<svg xmlns="http://www.w3.org/2000/svg" width="60" height="48" viewBox="0 0 60 48">
    <path fill="#FB7C52" fill-rule="evenodd" d="M6.5 42h36a.5.5 0 0 0 .5-.5v-21a.5.5 0 0 0-.5-.5h-36a.5.5 0 0 0-.5.5v21a.5.5 0 0 0 .5.5zm0-23h36a1.5 1.5 0 0 1 1.5 1.5v21a1.5 1.5 0 0 1-1.5 1.5h-36A1.5 1.5 0 0 1 5 41.5v-21A1.5 1.5 0 0 1 6.5 19zM17 22a.5.5 0 0 1 1 0v18a.5.5 0 0 1-1 0V22zm14 0a.5.5 0 0 1 1 0v18a.5.5 0 0 1-1 0V22zm23-4c0 1.103.897 2 2 2s2-.897 2-2c0-1.104-.897-2-2-2s-2 .896-2 2zm-7 27V17a1 1 0 0 0-1-1H3a1 1 0 0 0-1 1v28a1 1 0 0 0 1 1h43a1 1 0 0 0 1-1zM8 11v3h33v-3c0-1.379-1.122-2.5-2.5-2.5h-5.558l-.07-.417A8.467 8.467 0 0 0 24.5 1a8.467 8.467 0 0 0-8.372 7.083l-.07.417H10.5A2.503 2.503 0 0 0 8 11zm48 3a4 4 0 0 1 4 4 3.99 3.99 0 0 1-3 3.858V32c0 1.654-1.346 3-3 3h-2v4a2 2 0 0 1-2 2h-1v4a3 3 0 0 1-3 3H3a3 3 0 0 1-3-3V17a3 3 0 0 1 3-3h4v-3c0-1.93 1.57-3.5 3.5-3.5h4.721A9.463 9.463 0 0 1 24.5 0a9.463 9.463 0 0 1 9.279 7.5H38.5c1.93 0 3.5 1.57 3.5 3.5v3h4a3 3 0 0 1 3 3v10h1a2 2 0 0 1 2 2v4h2c.551 0 1-.448 1-1V21.858A3.99 3.99 0 0 1 52 18a4 4 0 0 1 4-4zm-45-3h27a.5.5 0 0 1 0 1H11a.5.5 0 0 1 0-1zm7.557-1.79a.5.5 0 0 1-.493-.583c.5-2.97 2.839-5.267 5.688-5.585 3.44-.382 6.577 1.975 7.149 5.373a.5.5 0 1 1-.986.166c-.484-2.874-3.143-4.872-6.051-4.545-2.41.27-4.388 2.225-4.814 4.757a.5.5 0 0 1-.493.417zM9 25h5a1 1 0 0 1 1 1v2.633c0 1.145-.649 2.179-1.694 2.699C11.767 32.097 10 33.56 10 38.103a1 1 0 1 1-2 0c0-5.706 2.52-7.62 4.415-8.563a1.02 1.02 0 0 0 .585-.908v-1.633h-3v.5a1 1 0 1 1-2 0v-1.5a1 1 0 0 1 1-1zm13 0h5a1 1 0 0 1 1 1v2.633c0 1.145-.649 2.179-1.694 2.699C24.767 32.097 23 33.56 23 38.103a1 1 0 1 1-2 0c0-5.706 2.52-7.62 4.415-8.563a1.02 1.02 0 0 0 .585-.908v-1.633h-3v.5a1 1 0 1 1-2 0v-1.5a1 1 0 0 1 1-1zm13 0h5a1 1 0 0 1 1 1v2.633c0 1.145-.649 2.179-1.694 2.699C37.767 32.097 36 33.56 36 38.103a1 1 0 1 1-2 0c0-5.706 2.52-7.62 4.415-8.563a1.02 1.02 0 0 0 .585-.908v-1.633h-3v.5a1 1 0 1 1-2 0v-1.5a1 1 0 0 1 1-1z"/>
</svg>
