<svg xmlns="http://www.w3.org/2000/svg" width="60" height="48" viewBox="0 0 60 48">
    <path fill="#FB7C52" fill-rule="evenodd" d="M58 42v-9a1 1 0 0 0-1-1H39a1 1 0 0 0-1 1v9h20zm-1-12a3 3 0 0 1 3 3v10a1 1 0 0 1-1 1H37a1 1 0 0 1-1-1V33a3 3 0 0 1 3-3h18zm-2.5-18a.5.5 0 0 1 0 1h-13a.5.5 0 0 1 0-1h13zm0 4a.5.5 0 0 1 0 1h-13a.5.5 0 0 1 0-1h13zm0 4a.5.5 0 0 1 0 1h-13a.5.5 0 0 1 0-1h13zM13 5.5c-2.206 0-4 1.794-4 4v2.361A8.498 8.498 0 0 0 15.763 5.5H13zm11 4c0-2.206-1.794-4-4-4h-2.763A8.498 8.498 0 0 0 24 11.861V9.5zm-6 14c3.309 0 6-2.691 6-6v-4.629a9.499 9.499 0 0 1-7.5-6.33 9.498 9.498 0 0 1-7.5 6.33V17.5c0 3.309 2.691 6 6 6h3zm-3 2a8 8 0 0 1-8-8v-4.51l-.03-.001.03-.499V9.5a6 6 0 0 1 6-6h7a6 6 0 0 1 6 6v2.99l.03.499-.03.001v4.51a8 8 0 0 1-8 8h-3zm-11-7a2 2 0 0 1-2-2v-4c0-.931.64-1.706 1.5-1.93V9.5C3.5 4.262 7.762 0 13 0h7c5.238 0 9.5 4.262 9.5 9.5v1.07c.86.224 1.5.999 1.5 1.93v4a2 2 0 0 1-2 2h-1a1 1 0 0 1-1-1v-6a1 1 0 0 1 1-1h.5v-1C28.5 4.813 24.687 1 20 1h-7C8.313 1 4.5 4.813 4.5 9.5v1H5a1 1 0 0 1 1 1v6a1 1 0 0 1-1 1H4zM58 24V8a1 1 0 0 0-1-1H39a1 1 0 0 0-1 1v10l-.8.6-1.667 1.25 1.527.954.94.588V24a1 1 0 0 0 1 1h18a1 1 0 0 0 1-1zM57 5a3 3 0 0 1 3 3v16a3 3 0 0 1-3 3H39a3 3 0 0 1-3-3v-1.5L32 20l4-3V8a3 3 0 0 1 3-3h18zm2 41a1 1 0 1 1 0 2H31a1 1 0 1 1 0-2h28zm-28-3v-6c0-4.411-3.589-8-8-8H10c-4.411 0-8 3.589-8 8v4c0 2.757 2.243 5 5 5h14v-2c0-1.103-.897-2-2-2H8c-1.103 0-2-.897-2-2v-2a1 1 0 1 1 2 0v2h11c2.206 0 4 1.794 4 4v2c0 1.103-.897 2-2 2H7c-3.859 0-7-3.141-7-7v-4c0-5.514 4.486-10 10-10h13c5.514 0 10 4.486 10 10v6a1 1 0 1 1-2 0z"/>
</svg>
