<svg width="102" height="16" viewBox="0 0 102 16" fill="none" xmlns="http://www.w3.org/2000/svg">
<path d="M6.24358 0.602415C5.66485 0.444353 4.54708 0.36499 2.88998 0.36499H0V14.8742H1.44994V8.85797H2.48559C4.28724 8.85797 5.51692 8.77158 6.17451 8.59896C7.07534 8.36154 7.78224 7.8993 8.29516 7.21221C8.80809 6.52518 9.06444 5.65274 9.06444 4.59523C9.06444 3.54487 8.80139 2.67271 8.27535 1.97831C7.74931 1.28408 7.07207 0.825505 6.24358 0.602415ZM7.40789 6.3944C7.13389 6.93096 6.75722 7.31936 6.27795 7.55922C5.79851 7.79919 5.04179 7.91906 4.0077 7.91906L1.44989 7.87971V1.33633H4.12071C5.14113 1.33633 5.87554 1.44989 6.32416 1.67663C6.77261 1.90343 7.13389 2.28514 7.40789 2.82169C7.68173 3.35825 7.81876 3.94943 7.81876 4.59485C7.81876 5.25809 7.68168 5.85801 7.40789 6.3944Z" fill="#494949"/>
<path d="M33.6512 0.36499L27.4917 6.97894V0.36499H26.2891V14.8742H27.4917V8.22705L33.6512 14.8742H35.2968L28.5577 7.60139L35.2968 0.36499H33.6512Z" fill="#494949"/>
<path d="M36.3262 14.8742H43.8066V13.6755H37.6654V7.75276H43.8066V6.5539H37.6654V1.56384H43.8658V0.36499H36.3262V14.8742Z" fill="#494949"/>
<path d="M48.7406 8.13739C49.9571 8.13097 51.7304 7.97452 52.4208 7.66819C53.1113 7.36214 53.6423 6.90948 54.0138 6.31028C54.3853 5.71129 54.5711 5.01662 54.5711 4.22654C54.5711 3.27839 54.3014 2.48 53.7622 1.8316C53.2231 1.18302 52.5228 0.760255 51.6613 0.562567C51.0893 0.43096 49.9976 0.36499 48.3867 0.36499H45.6074V14.8742H46.9466V8.13739L53.4216 14.8742H55.2153L48.7406 8.13739ZM46.9466 1.31491H49.5054C50.4997 1.31491 51.2112 1.41674 51.6393 1.62007C52.0674 1.82374 52.4131 2.16211 52.6766 2.63552C52.9401 3.10904 53.0718 3.63519 53.0718 4.21414C53.0718 4.80903 52.9418 5.34702 52.6816 5.82823C52.4214 6.30945 52.0591 6.65966 51.5947 6.87866C51.1303 7.09788 50.4142 7.20729 49.446 7.20729L46.9465 7.1836V1.31491H46.9466Z" fill="#494949"/>
<path d="M55.9551 0.36499H59.1339V6.64162L63.6536 0.36499H67.7732L62.7066 6.84041L68.266 14.8742H64.1878L59.1341 7.4441V14.8742H55.9552L55.9551 0.36499Z" fill="#494949"/>
<path d="M68.8926 0.36499H72.3184V12.2406H78.6395V14.8742H68.8926V0.36499Z" fill="#494949"/>
<path d="M83.2887 0.36499H87.4452L91.6113 14.8742H88.1069L87.3701 12.3841H83.0606L82.2902 14.8742H79.1113L83.2887 0.36499ZM85.273 3.49191L83.5742 9.94868H86.9618L85.273 3.49191Z" fill="#494949"/>
<path d="M101.719 3.0719L98.6755 4.16034C98.4172 3.03504 97.696 2.64343 96.8682 2.64343C96.4651 2.64343 95.3416 2.86901 95.3416 3.81687C95.3416 5.04583 96.5825 5.50756 98.0219 6.14495C99.2475 6.68771 100.557 7.29649 101.494 8.89204C101.814 9.43778 101.921 10.0745 101.921 10.744C101.921 12.0471 101.42 13.1234 100.418 13.9729C99.4158 14.8224 98.3869 15.2391 96.9154 15.2391C95.7658 15.2391 94.7647 14.9859 93.9117 14.4796C93.0588 13.9733 92.3284 13.1776 91.7207 12.0926L94.82 10.6724C95.0229 12.0191 95.9728 12.6154 96.9836 12.6154C97.7901 12.6154 98.6202 12.0376 98.6202 11.2443C98.6202 9.84229 97.5583 9.54354 96.5172 9.06748C94.5801 8.18198 93.5056 7.49644 92.9102 6.68328C92.3147 5.87034 92.0171 5.05911 92.0171 4.24972C92.0171 3.08164 92.5123 2.07953 93.5029 1.24357C94.4932 0.40755 95.6628 0 96.9149 0C97.7205 0 98.6111 0.167635 99.3397 0.503072C100.068 0.838399 101.332 1.92817 101.719 3.0719Z" fill="#494949"/>
<path d="M15.7333 4.92603C15.7333 4.92603 12.8555 6.69702 12.8555 8.13595C12.8555 10.1283 14.5158 10.322 14.5158 10.322C14.5158 10.322 13.5196 9.6579 13.5196 8.32965C13.5196 6.8077 15.7333 4.92603 15.7333 4.92603Z" fill="#494949"/>
<path d="M22.7747 2.19952C21.2942 0.733245 19.4551 0 17.2576 0C15.9019 0 14.6419 0.337041 13.4772 1.01101C12.3126 1.68521 11.3931 2.61719 10.7187 3.8073C10.0442 4.99752 9.70703 6.28968 9.70703 7.68361C9.70703 9.77471 10.4473 11.5567 11.9277 13.0296C13.4081 14.5027 15.2242 15.2391 17.3759 15.2391C19.5011 15.2391 21.3023 14.4994 22.7795 13.0198C24.2568 11.5403 24.9954 9.73863 24.9954 7.6146C24.9955 5.47104 24.2551 3.66595 22.7747 2.19952ZM19.9666 11.0414C18.583 11.0414 17.6975 9.98983 17.6975 9.98983C17.9742 11.5118 19.4131 12.5633 19.4131 12.5633H15.3177C15.3177 12.5633 16.7566 11.5118 17.0334 9.98983C17.0334 9.98983 16.1479 11.0414 14.7643 11.0414C13.3807 11.0414 12.0248 10.3496 12.0248 8.19117C12.0248 6.16737 15.8378 4.29991 17.3654 2.32592C18.893 4.29991 22.7061 6.16726 22.7061 8.19117C22.7061 10.3496 21.3502 11.0414 19.9666 11.0414Z" fill="#494949"/>
</svg>
