<svg width="89" height="32" viewBox="0 0 89 32" fill="none" xmlns="http://www.w3.org/2000/svg">
<path d="M85.4024 6.4273C85.4024 5.51533 85.1064 4.86344 84.2544 4.86344C83.4026 4.86344 82.8266 5.49534 82.4107 6.46324C81.9033 7.71236 81.6151 9.03971 81.5588 10.3868C81.5588 11.2987 81.8388 11.9347 82.7107 11.9347C83.5825 11.9347 84.1145 11.3388 84.5305 10.3868C85.0375 9.12407 85.3321 7.78617 85.4024 6.4273ZM88.39 6.86322C88.348 8.5567 87.8478 10.2071 86.9422 11.6387C85.956 13.1683 84.2418 14.0708 82.4227 14.0184C79.887 14.0184 78.5791 12.3946 78.5791 10.0749C78.6096 8.37954 79.1109 6.72614 80.0269 5.29941C81.0141 3.78364 82.7183 2.88994 84.5265 2.93963C87.0502 2.93963 88.39 4.54749 88.39 6.86322ZM11.5267 6.97115C11.4884 8.66463 10.9575 10.3101 9.99887 11.7067C8.98973 13.1852 7.30939 14.0629 5.51935 14.0464C4.99781 14.0538 4.47792 13.9865 3.97553 13.8463L3.09161 18.146H0L2.9717 3.79948C4.28436 3.25486 5.69413 2.98269 7.11522 2.99958C9.83093 3.00759 11.5147 4.39942 11.5147 6.97109H11.5267V6.97115ZM8.51506 6.73127C8.51506 5.50335 8.01908 4.82744 6.82721 4.82744C6.48327 4.82789 6.14214 4.88878 5.81929 5.00742L4.33946 12.0626C4.58557 12.1558 4.84852 12.1967 5.11137 12.1826C6.2032 12.1826 7.0551 11.5867 7.63108 10.4388C8.16532 9.27318 8.46173 8.01275 8.50297 6.73127H8.51506ZM21.5975 6.86322C21.557 8.55632 21.058 10.2067 20.1537 11.6387C19.1648 13.1653 17.4524 14.0668 15.6342 14.0184C13.0985 14.0184 11.7906 12.3946 11.7906 10.0749C11.8216 8.38021 12.3213 6.7273 13.2345 5.29941C14.2217 3.78364 15.9258 2.88994 17.7339 2.93963C20.2697 2.93963 21.5975 4.54749 21.5975 6.86322ZM18.6259 6.4273C18.6259 5.51533 18.3299 4.86344 17.478 4.86344C16.6261 4.86344 16.0502 5.49534 15.6343 6.46324C15.1341 7.70833 14.8514 9.03005 14.7984 10.3708C14.7984 11.2827 15.0743 11.9187 15.9462 11.9187C16.8181 11.9187 17.3541 11.3228 17.7701 10.3708C18.2699 9.1122 18.559 7.77988 18.6259 6.4273ZM29.2287 2.93565L28.2168 5.09542C27.569 4.82242 26.8442 4.79399 26.177 5.01543L24.3732 13.7544H21.2816L23.3813 3.66759C24.8397 3.1 26.3964 2.82805 27.9608 2.86769C28.3844 2.8678 28.8075 2.89044 29.2287 2.93565ZM35.452 3.07163L35.052 5.07141H33.3922L32.2403 10.6228C32.202 10.7718 32.1819 10.9249 32.1803 11.0788C32.1474 11.4639 32.433 11.8028 32.8181 11.8357C32.8722 11.8403 32.9266 11.8386 32.9803 11.8307C33.2112 11.832 33.4399 11.7858 33.6521 11.6947L33.2722 13.5985C32.7649 13.8062 32.2205 13.9083 31.6724 13.8985C29.8126 13.8985 29.0367 12.8666 29.0367 11.5387C29.0421 11.2693 29.0757 11.0012 29.1367 10.7388L30.2886 5.07141L28.7967 5.19938L29.7446 3.13158L30.7205 3.06362L31.1965 0.799899L34.4681 0L33.8082 3.07163H35.452ZM44.307 6.73127C44.265 8.4247 43.7647 10.0751 42.8591 11.5067C41.8736 13.0351 40.1614 13.9374 38.3436 13.8864C35.8039 13.8864 34.4961 12.2626 34.4961 9.94291C34.5294 8.24804 35.0305 6.59541 35.9439 5.16741C36.9293 3.64866 38.6336 2.75176 40.4434 2.79968C42.9791 2.79968 44.307 4.39948 44.307 6.73127ZM41.3353 6.2953C41.3353 5.38338 41.0393 4.73138 40.1834 4.73138C39.3275 4.73138 38.7595 5.36334 38.3436 6.33124C37.8362 7.58036 37.548 8.90771 37.4917 10.2548C37.4917 11.1667 37.7677 11.8026 38.6396 11.8026C39.5115 11.8026 40.0474 11.2067 40.4634 10.2548C40.97 8.99196 41.2646 7.65412 41.3353 6.2953ZM60.6971 5.43539C60.7003 5.69624 60.6734 5.95655 60.6171 6.21127L59.0933 13.6225H55.9937L57.5575 6.11129C57.5809 5.97918 57.5942 5.84547 57.5975 5.71132C57.5975 5.09542 57.2215 4.65945 56.3096 4.65945C55.765 4.67049 55.2402 4.86653 54.8218 5.21539L53.078 13.6145H49.9943L51.5622 6.0833C51.5843 5.95903 51.5977 5.83343 51.6021 5.70728C51.6021 5.05137 51.1262 4.65542 50.1943 4.65542C49.7489 4.65183 49.3062 4.72625 48.8865 4.87536L47.1947 13.0464C46.7938 12.7292 46.2939 12.5634 45.7828 12.5785C45.18 12.5814 44.5914 12.7622 44.091 13.0984L46.0908 3.53548C47.5235 2.97562 49.0524 2.70384 50.5903 2.73558C51.9981 2.73558 53.146 3.21152 53.6419 3.80749C54.3579 3.25155 55.7017 2.73558 57.4655 2.73558C59.6292 2.73967 60.6971 3.85154 60.6971 5.43539ZM71.464 3.59958L69.5042 13.0945C68.1991 13.6639 66.784 13.9372 65.3606 13.8944C62.561 13.8944 60.9611 12.3866 60.9611 9.89488C60.9781 8.11162 61.5685 6.38115 62.6449 4.95939C63.7768 3.59157 65.4447 2.79962 67.7204 2.79962C69.2642 2.79968 70.692 3.14362 71.464 3.59958ZM68.1363 4.77147C67.8502 4.64222 67.5382 4.58061 67.2244 4.59149C66.2925 4.59149 65.5206 5.14743 64.9446 6.19134C64.358 7.34104 64.0395 8.60854 64.0127 9.89896C64.0127 11.2068 64.5287 11.9427 65.6765 11.9427C66.0288 11.9483 66.3789 11.8871 66.7084 11.7628L68.1363 4.77147ZM78.9791 3.66759L77.9272 5.31145C77.4718 5.01046 76.9372 4.85179 76.3914 4.85549C75.5977 4.80641 74.9145 5.41005 74.8654 6.20371C74.8647 6.2169 74.8641 6.2301 74.8636 6.24329C74.8636 7.71115 77.8992 7.55116 77.8992 9.9709C77.8992 12.0307 76.2713 13.9704 73.0797 13.9704C72.0331 13.9929 71.002 13.7153 70.1081 13.1705L71.2599 11.3067C71.7891 11.6522 72.4121 11.8255 73.0438 11.8026C73.8882 11.8538 74.6143 11.2107 74.6655 10.3662C74.6665 10.3504 74.6671 10.3346 74.6676 10.3188C74.6676 8.83097 71.8319 9.11894 71.8319 6.63118C71.8319 4.76738 73.3598 2.88365 76.0955 2.88365C77.1137 2.84765 78.1191 3.12093 78.9791 3.66759Z" fill="#494949"/>
<path d="M46.9272 14.7984C46.9272 14.1265 46.3713 13.5986 45.5594 13.5986C44.5276 13.5986 43.5957 14.3985 43.5957 15.3224C43.6237 16.0155 44.2084 16.5545 44.9014 16.5264C44.9221 16.5255 44.9428 16.5243 44.9635 16.5223C45.9954 16.5584 46.9272 15.7464 46.9272 14.7984Z" fill="#B0B0B0"/>
<path d="M64.7699 18.334C64.4819 18.2067 64.1687 18.1465 63.854 18.158C62.8261 18.158 62.0542 18.75 61.4782 19.9418C60.9351 21.1321 60.632 22.4178 60.5864 23.7253C60.5864 24.9532 61.0623 25.5691 62.2102 25.5691C62.5939 25.5714 62.9734 25.4895 63.3221 25.3291L64.7699 18.334ZM68.0176 17.166L66.4177 24.8572C65.4583 24.9958 64.7282 25.7893 64.6699 26.757C64.6621 27.3838 65.1149 27.9217 65.7338 28.0209C64.9339 30.6005 62.9701 31.7124 60.3384 31.7124C59.0063 31.7446 57.6847 31.471 56.4749 30.9125L57.6468 28.9887C58.4525 29.3653 59.3332 29.5541 60.2225 29.5406C61.7863 29.5406 62.5582 28.7127 62.8382 27.5608L62.9742 26.9849C62.3939 27.2338 61.7654 27.3498 61.1344 27.3249C58.9907 27.3249 57.5348 25.917 57.5348 23.5772C57.5978 21.8331 58.1754 20.1465 59.1946 18.7298C60.3265 17.226 62.0303 16.3701 64.31 16.3701C65.5915 16.3371 66.8625 16.61 68.0176 17.166ZM15.1635 17.362L13.0638 27.5289C12.4278 30.6005 10.3481 31.9283 7.49242 31.9283C5.92857 31.9283 4.44078 31.5924 3.62891 31.1284L4.80079 29.1967C5.60765 29.5745 6.48964 29.7645 7.38052 29.7526C8.94432 29.7526 9.71623 28.9208 9.99221 27.7729L10.1282 27.1969C9.54542 27.4421 8.91611 27.5568 8.28437 27.5329C6.14465 27.5329 4.68475 26.1251 4.68475 23.7893C4.73493 22.046 5.29992 20.3566 6.30861 18.9338C7.4365 17.426 9.14031 16.5741 11.42 16.5741C12.7128 16.5344 13.9963 16.8046 15.1635 17.362ZM11.9119 18.5339C11.6259 18.4043 11.3138 18.3427 11 18.354C9.97206 18.354 9.19618 18.9499 8.62423 20.1378C8.08226 21.3284 7.77922 22.614 7.7323 23.9213C7.7323 25.1492 8.20824 25.7651 9.35617 25.7651C9.73809 25.767 10.116 25.6865 10.464 25.5291L11.9119 18.5339ZM25.5103 17.2981L23.5466 26.797C22.2414 27.3664 20.8264 27.6396 19.4031 27.5969C16.6033 27.5969 15.0035 26.0931 15.0035 23.5973C15.021 21.8143 15.6114 20.0839 16.6874 18.662C17.8192 17.2981 19.487 16.5022 21.7628 16.5022C23.3067 16.5022 24.7345 16.8421 25.5064 17.2981H25.5103V17.2981ZM22.1827 18.4659C21.8966 18.3366 21.5846 18.2751 21.2708 18.2859C20.3389 18.2859 19.567 18.8418 18.9911 19.8857C18.4016 21.036 18.0816 22.3051 18.0552 23.5973C18.0552 24.9051 18.5711 25.6371 19.719 25.6371C20.0712 25.6438 20.4216 25.5828 20.7508 25.4571L22.1827 18.4659ZM41.4406 19.1339C41.4431 19.3931 41.4177 19.652 41.3646 19.9057L39.8327 27.3169H36.7411L38.3089 19.8097C38.3308 19.6775 38.3428 19.5438 38.3449 19.4098C38.3449 18.7979 37.9689 18.362 37.057 18.362C36.5142 18.3728 35.9911 18.5674 35.5732 18.9139L33.8294 27.313H30.7378L32.3016 19.7818C32.3239 19.6576 32.3373 19.532 32.3416 19.4058C32.3416 18.7539 31.8657 18.3579 30.9338 18.3579C30.4886 18.3531 30.0459 18.4262 29.626 18.5739L27.8222 27.317H24.7305L26.8303 17.2301C28.2631 16.6706 29.792 16.3989 31.3298 16.4302C32.7376 16.4302 33.8895 16.9061 34.3814 17.5021C35.0973 16.9461 36.4452 16.4302 38.209 16.4302C40.3688 16.4382 41.4366 17.5461 41.4366 19.1339H41.4406V19.1339ZM46.396 16.9461L44.2923 27.2529H41.1966L43.3364 16.8541C43.7343 17.2192 44.2561 17.4194 44.7962 17.4141C45.3629 17.4119 45.9174 17.2497 46.396 16.9461ZM56.8388 19.0699C56.8338 19.3565 56.8003 19.6418 56.7388 19.9218L55.195 27.2529H52.1193L53.6471 19.7818C53.6851 19.6396 53.7052 19.4931 53.7072 19.3459C53.7072 18.75 53.3311 18.294 52.3593 18.294C51.9015 18.2988 51.4471 18.373 51.0114 18.514L49.1956 27.2529H46.104L48.2038 17.1661C49.6727 16.6118 51.2334 16.3404 52.8032 16.3662C55.6669 16.3702 56.8188 17.4621 56.8188 19.0699H56.8388V19.0699Z" fill="#B0B0B0"/>
<path d="M86.1723 23.0095C86.1723 22.1776 85.6122 21.5977 84.4804 21.5977C83.7714 21.569 83.0715 21.7649 82.4806 22.1576C82.0459 21.7608 81.4681 21.5585 80.8807 21.5977C80.0768 21.5743 79.2762 21.7103 78.525 21.9976L77.4251 27.277H79.025L79.9928 22.7175C80.2124 22.6398 80.4438 22.6005 80.6768 22.6015C81.1647 22.6015 81.4127 22.8135 81.4127 23.1534C81.4182 23.2187 81.4182 23.2842 81.4127 23.3494L80.5928 27.293H82.2126L83.1245 22.8935C83.3442 22.7112 83.619 22.6083 83.9044 22.6015C84.3804 22.6015 84.5803 22.8336 84.5803 23.1535C84.5783 23.2234 84.5702 23.2929 84.5563 23.3615L83.7564 27.2931H85.3563L86.1561 23.4135C86.1773 23.2799 86.1827 23.1443 86.1723 23.0095ZM75.7734 23.4094C75.7357 24.119 75.5816 24.8176 75.3174 25.4772C75.1014 25.9772 74.8094 26.2771 74.3655 26.2771C73.9216 26.2771 73.7616 25.9451 73.7616 25.4772C73.7906 24.7712 73.9422 24.0755 74.2096 23.4214C74.4255 22.9255 74.7375 22.5895 75.1734 22.5895C75.6093 22.5895 75.7734 22.9455 75.7734 23.4214V23.4094ZM77.3332 23.6414C77.3332 22.4415 76.6373 21.5857 75.3095 21.5857C74.3629 21.5608 73.4712 22.0286 72.9537 22.8215C72.4741 23.5685 72.211 24.4338 72.1937 25.3212C72.1937 26.521 72.8816 27.385 74.1935 27.385C75.1443 27.4101 76.0396 26.939 76.5573 26.1412C77.0361 25.3973 77.3043 24.5376 77.3332 23.6535V23.6414ZM72.5697 21.9976C72.1792 21.7146 71.7036 21.5734 71.2219 21.5977C70.3475 21.6145 69.5383 22.064 69.0621 22.7975C68.5718 23.5287 68.301 24.3851 68.2823 25.2652C68.2823 26.5851 69.0621 27.4129 70.15 27.4129C70.646 27.4428 71.1373 27.3016 71.5419 27.013L71.4058 25.9971C71.1789 26.1381 70.9171 26.2129 70.6499 26.2131C70.202 26.2131 69.922 25.8491 69.922 25.1653C69.933 24.5595 70.0864 23.9648 70.3699 23.4294C70.5677 22.9946 70.9926 22.7073 71.4698 22.6855C71.6782 22.6843 71.8816 22.7503 72.0498 22.8735L72.5697 21.9976ZM67.2783 26.2691C67.2813 25.8693 66.9595 25.5428 66.5597 25.5399C66.5433 25.5398 66.5268 25.5402 66.5103 25.5412C65.9176 25.5625 65.4371 26.0291 65.3984 26.6211C65.3979 27.0209 65.7216 27.3454 66.1215 27.3459C66.1338 27.3459 66.1461 27.3456 66.1584 27.345C66.7522 27.3261 67.2356 26.8616 67.2783 26.2691Z" fill="#494949"/>
</svg>
