<svg width="101" height="44" viewBox="0 0 101 44" fill="none" xmlns="http://www.w3.org/2000/svg">
<path d="M0 24.5356H1.62645C2.50932 24.5356 3.15995 24.6286 3.53168 24.768C3.9034 24.9538 4.22872 25.1862 4.46108 25.558C4.69345 25.9297 4.78639 26.348 4.78639 26.8591C4.78639 27.4166 4.64697 27.8814 4.36819 28.2532C4.08935 28.6249 3.67115 28.9037 3.15995 29.0431C2.88111 29.1361 2.32349 29.1826 1.5335 29.1826V32.5748H0V24.5356ZM1.5335 27.6955H1.99823C2.36996 27.6955 2.6488 27.6491 2.78822 27.6026C2.92764 27.5561 3.067 27.4631 3.15995 27.3238C3.25289 27.1843 3.29937 27.045 3.29937 26.8591C3.29937 26.5338 3.15995 26.3015 2.92764 26.162C2.78822 26.069 2.46291 26.0226 1.95176 26.0226H1.5335V27.6955Z" fill="#494949"/>
<path d="M6.04492 24.5356H7.67137C8.55425 24.5356 9.20487 24.6286 9.5766 24.768C9.94833 24.9073 10.2736 25.1862 10.506 25.558C10.7384 25.9297 10.8313 26.348 10.8313 26.8591C10.8313 27.3703 10.6919 27.8348 10.4596 28.2066C10.2273 28.5785 9.80903 28.8107 9.29788 28.9967L11.2031 32.5748H9.53019L7.7179 29.1826H7.57848V32.5748H6.04498L6.04492 24.5356ZM7.57842 27.6955H8.04316C8.55431 27.6955 8.87962 27.6491 9.06545 27.5097C9.25135 27.3703 9.34429 27.1844 9.34429 26.8591C9.34429 26.6733 9.29782 26.5339 9.20487 26.3944C9.11193 26.2549 8.97251 26.1621 8.83314 26.1156C8.69373 26.0691 8.41489 26.0226 7.99668 26.0226H7.57842V27.6955Z" fill="#494949"/>
<path d="M15.2408 24.5356H16.7742L19.8876 32.5748H18.3078L17.6572 30.9019H14.4043L13.7537 32.5748H12.1738L15.2408 24.5356ZM16.0308 26.6732L14.962 29.4614H17.0996L16.0308 26.6732Z" fill="#494949"/>
<path d="M27.9324 25.8368L26.8636 26.9055C26.1665 26.162 25.3765 25.8368 24.4937 25.8368C23.7036 25.8368 23.053 26.1154 22.4954 26.6268C21.9378 27.1379 21.7054 27.7885 21.7054 28.532C21.7054 29.3221 21.9842 29.9726 22.5418 30.5301C23.0995 31.0877 23.7965 31.3202 24.5865 31.3202C25.0977 31.3202 25.5624 31.2272 25.9341 30.9949C26.3058 30.7625 26.5847 30.4373 26.8169 29.926H24.4936V28.4855H28.5364V28.8107C28.5364 29.5078 28.3505 30.2049 27.9788 30.8089C27.607 31.4595 27.1422 31.9242 26.5381 32.2495C25.9341 32.5747 25.2835 32.7607 24.4936 32.7607C23.6571 32.7607 22.9136 32.5748 22.2629 32.2031C21.6124 31.8313 21.1012 31.3203 20.7295 30.6696C20.3577 30.019 20.1719 29.2755 20.1719 28.4855C20.1719 27.4166 20.5436 26.4873 21.2406 25.6973C22.0772 24.768 23.1459 24.3032 24.4936 24.3032C25.1906 24.3032 25.8412 24.4428 26.4453 24.675C26.9565 24.9074 27.4212 25.3256 27.9324 25.8368Z" fill="#494949"/>
<path d="M30.5753 24.5356H32.0623L33.9212 30.1584L35.8264 24.5356H37.3134L38.661 32.5748H37.1739L36.2911 27.4632L34.5717 32.5748H33.2241L31.5047 27.4632L30.6218 32.5748H29.1348L30.5753 24.5356Z" fill="#494949"/>
<path d="M42.7501 24.5356H44.2836L47.397 32.5748H45.8171L45.1666 30.9019H41.8673L41.2166 32.5748H39.6367L42.7501 24.5356ZM43.4935 26.6732L42.4247 29.4614H44.6088L43.4935 26.6732Z" fill="#494949"/>
<path d="M47.211 24.5356H51.6721V26.0227H50.185V32.5748H48.6515V26.0227H47.2109V24.5356H47.211Z" fill="#494949"/>
<path d="M52.8789 24.5356H54.4124V32.5748H52.8789V24.5356Z" fill="#494949"/>
<path d="M63.4278 25.93L62.3591 26.9523C61.6156 26.1624 60.8256 25.7906 59.8962 25.7906C59.1062 25.7906 58.4556 26.0694 57.9445 26.5806C57.4333 27.0918 57.1545 27.7424 57.1545 28.5323C57.1545 29.0898 57.294 29.5546 57.5263 29.9729C57.7587 30.3911 58.0839 30.7164 58.5021 30.9487C58.9203 31.1809 59.385 31.3205 59.9426 31.3205C60.4074 31.3205 60.7792 31.2275 61.1509 31.0881C61.5227 30.9022 61.9409 30.6234 62.3591 30.1588L63.3815 31.2276C62.7774 31.8316 62.2197 32.2034 61.7086 32.4358C61.1974 32.6681 60.5933 32.7611 59.8963 32.7611C58.6416 32.7611 57.6194 32.3428 56.8293 31.5529C56.0393 30.7629 55.6211 29.7406 55.6211 28.486C55.6211 27.6959 55.8069 26.9524 56.1787 26.3484C56.5504 25.7442 57.0615 25.2331 57.7586 24.8613C58.4556 24.4895 59.1527 24.3037 59.9427 24.3037C60.5931 24.3037 61.2437 24.4432 61.8479 24.722C62.452 25.0006 62.9632 25.4189 63.4278 25.93Z" fill="#494949"/>
<path d="M68.5879 24.675H70.1678C71.0506 24.675 71.6549 24.768 72.0266 24.9074C72.3983 25.0468 72.7237 25.3256 72.9095 25.6974C73.1417 26.0691 73.2347 26.4874 73.2347 26.9985C73.2347 27.5561 73.0953 28.0208 72.8165 28.3926C72.5378 28.7643 72.1194 28.9966 71.6548 29.1361C71.376 29.2291 70.8183 29.2756 70.0749 29.2756V32.6213H68.5879V24.675ZM70.0749 27.7885H70.5396C70.9113 27.7885 71.1901 27.742 71.3296 27.6955C71.469 27.6491 71.6084 27.5561 71.6549 27.4167C71.7478 27.2773 71.7943 27.1379 71.7943 26.952C71.7943 26.6268 71.6549 26.4408 71.4225 26.3015C71.2367 26.2085 70.9113 26.162 70.4467 26.162H70.0284V27.7884L70.0749 27.7885Z" fill="#494949"/>
<path d="M74.2559 24.675H75.7429V31.1342H77.9269V32.5748H74.256L74.2559 24.675Z" fill="#494949"/>
<path d="M81.8813 24.675H83.4148L86.4353 32.5748H84.8553L84.2513 30.9484H81.0449L80.3944 32.5748H78.8145L81.8813 24.675ZM82.6248 26.7662L81.556 29.4614H83.6471L82.6248 26.7662Z" fill="#494949"/>
<path d="M85.3164 24.675H86.9428L88.4299 27.5097L89.917 24.675H91.4968L89.1733 29.1361V32.5748H87.6398V29.1361L85.3164 24.675Z" fill="#494949"/>
<path d="M99.9544 27.5099L99.6755 25.7439L99.0714 27.5099H98.6067L98.0027 25.7439L97.6773 27.5099H97.1661L97.6309 24.7217H98.1421L98.7926 26.6734L99.4433 24.7217H99.9545L100.419 27.5099H99.9544ZM96.4692 27.5099H95.9115V25.2329H95.4004V24.7217H96.9338V25.2329H96.4227V27.5099H96.4692Z" fill="#494949"/>
<path d="M81.8329 17.0079C77.0932 17.2868 79.2307 23.4672 84.4352 23.1418C89.5468 22.7702 86.8516 16.6827 81.8329 17.0079Z" fill="#B0B0B0"/>
<path d="M79.8321 13.1973C71.4211 13.1973 64.6367 20.0282 64.6367 28.3927C64.6367 36.8036 71.4676 43.5881 79.8321 43.5881C88.2431 43.5881 95.0276 36.7571 95.0276 28.3927C95.0276 19.9818 88.2431 13.1973 79.8321 13.1973ZM79.8321 42.0082C72.3041 42.0082 66.2166 35.9208 66.2166 28.3927C66.2166 20.8646 72.304 14.7772 79.8321 14.7772C87.3601 14.7772 93.4476 20.8646 93.4476 28.3927C93.4476 35.9207 87.3602 42.0082 79.8321 42.0082Z" fill="#B0B0B0"/>
<path d="M79.3708 2.55585C75.7461 5.29753 76.3968 9.47972 76.3968 9.47972C76.3968 9.47972 74.1197 3.57814 71.1921 0C70.7738 4.64691 72.2609 10.7808 72.2609 10.7808C72.2609 10.7808 70.4021 6.9704 65.8945 6.73803C69.6586 8.87562 71.0992 12.779 71.4243 13.8014C73.6085 12.4538 76.1178 11.6637 78.8594 11.5708C78.5342 10.6415 77.4654 6.55219 79.3708 2.55585Z" fill="#B0B0B0"/>
</svg>
