<svg width="103" height="27" viewBox="0 0 103 27" fill="none" xmlns="http://www.w3.org/2000/svg">
<path fill-rule="evenodd" clip-rule="evenodd" d="M13.4273 0C15.5353 0 17.5319 0.490456 19.3102 1.36257C19.5892 1.49493 19.8682 1.64106 20.1471 1.80083L18.9118 2.90781L17.0544 0.987487L13.9198 3.78327L12.0578 1.75108L6.21929 7.01492L9.96301 11.1396L8.49186 12.4335L12.1788 16.5654L10.7165 17.8558L15.9849 23.7201L19.1121 20.8406L21.8158 23.926C21.2786 24.344 20.6923 24.7376 20.0471 25.1017C18.0915 26.2166 15.8317 26.8546 13.4273 26.8546C6.03172 26.8547 0 20.823 0 13.4273C0 6.03172 6.03172 0 13.4273 0Z" fill="#494949"/>
<path fill-rule="evenodd" clip-rule="evenodd" d="M10.9883 12.579L14.1812 9.70386L17.0562 12.8967L13.8634 15.7719L10.9883 12.579Z" fill="#494949"/>
<path fill-rule="evenodd" clip-rule="evenodd" d="M13.25 18.0961L16.4429 15.2212L19.3178 18.4141L16.1249 21.2895L13.25 18.0961Z" fill="#494949"/>
<path fill-rule="evenodd" clip-rule="evenodd" d="M8.6875 7.12654L11.8804 4.25171L14.7553 7.44458L11.5624 10.3195L8.6875 7.12654Z" fill="#494949"/>
<path fill-rule="evenodd" clip-rule="evenodd" d="M14.5547 5.57951L16.9492 3.4231L19.1053 5.81817L16.7108 7.97431L14.5547 5.57951Z" fill="#494949"/>
<path fill-rule="evenodd" clip-rule="evenodd" d="M18.8164 15.4547L21.211 13.2986L23.3671 15.6936L20.9726 17.8498L18.8164 15.4547Z" fill="#494949"/>
<path fill-rule="evenodd" clip-rule="evenodd" d="M20.9219 20.2914L23.3169 18.1353L25.4731 20.5298L23.0783 22.6859L20.9219 20.2914Z" fill="#494949"/>
<path fill-rule="evenodd" clip-rule="evenodd" d="M21.8789 9.20497L23.4754 7.76758L24.913 9.36424L23.3164 10.8017L21.8789 9.20497Z" fill="#494949"/>
<path fill-rule="evenodd" clip-rule="evenodd" d="M19.834 4.4621L21.4305 3.02466L22.8679 4.62137L21.2714 6.05876L19.834 4.4621Z" fill="#494949"/>
<path fill-rule="evenodd" clip-rule="evenodd" d="M23.9258 13.9486L25.5223 12.5112L26.96 14.1079L25.3632 15.5453L23.9258 13.9486Z" fill="#494949"/>
<path fill-rule="evenodd" clip-rule="evenodd" d="M16.7617 10.3944L19.156 8.23828L21.3121 10.6331L18.9179 12.7892L16.7617 10.3944Z" fill="#494949"/>
<path fill-rule="evenodd" clip-rule="evenodd" d="M63.8394 8.26983L63.7643 8.3198L63.6893 8.26983C63.1389 7.76923 62.5379 7.56885 61.7871 7.56885C60.0601 7.56885 58.9336 8.77042 58.9336 10.6476C58.9336 10.6476 58.9336 19.2324 58.9336 19.4328C59.1091 19.4328 60.4856 19.4328 60.6607 19.4328C60.6607 19.2324 60.6607 10.6476 60.6607 10.6476C60.6607 9.39608 61.5117 9.29592 61.7871 9.29592C61.9875 9.29592 62.2877 9.34583 62.5379 9.54622C62.7884 9.79652 62.9132 10.147 62.9132 10.6476C62.9132 10.6476 62.9132 19.2324 62.9132 19.4328C63.0887 19.4328 64.4652 19.4328 64.6407 19.4328C64.6407 19.2324 64.6407 10.6476 64.6407 10.6476C64.6407 9.39608 65.4918 9.29592 65.7668 9.29592C65.9671 9.29592 66.2674 9.34583 66.5179 9.54622C66.768 9.79652 66.8932 10.147 66.8932 10.6476C66.8932 10.6476 66.8932 19.2324 66.8932 19.4328C67.0683 19.4328 68.4448 19.4328 68.6198 19.4328C68.6198 19.2324 68.6198 10.6476 68.6198 10.6476C68.6198 9.67151 68.32 8.87036 67.7692 8.3198C67.2686 7.84427 66.5676 7.56885 65.7667 7.56885C64.9908 7.56885 64.3654 7.7943 63.8394 8.26983Z" fill="#494949"/>
<path fill-rule="evenodd" clip-rule="evenodd" d="M76.4315 11.6241C75.8558 11.0232 74.9043 10.4978 73.6028 10.4978C72.351 10.4978 71.4 11.0233 70.8243 11.6241C69.9235 12.6004 69.748 13.977 69.748 15.0528C69.748 16.1043 69.9235 17.4814 70.8243 18.4572C71.4 19.0577 72.351 19.5832 73.6028 19.5832C74.9043 19.5832 75.8558 19.0577 76.4315 18.4572C77.3323 17.4813 77.5073 16.1043 77.5073 15.0528C77.5073 13.977 77.3323 12.6004 76.4315 11.6241ZM75.7554 15.4286C75.7554 16.2543 75.7554 17.1805 75.1295 17.8566C74.8789 18.1067 74.4037 18.4323 73.6028 18.4323C72.8516 18.4323 72.3764 18.1067 72.1258 17.8566C71.4999 17.1805 71.4999 16.2543 71.4999 15.4286V14.6526C71.4999 13.8269 71.4999 12.9004 72.1258 12.2499C72.3764 11.9748 72.8516 11.6489 73.6028 11.6489C74.4037 11.6489 74.8789 11.9748 75.1295 12.2499C75.7554 12.9005 75.7554 13.8269 75.7554 14.6526V15.4286Z" fill="#494949"/>
<path fill-rule="evenodd" clip-rule="evenodd" d="M78.9356 10.6479L80.3878 10.673V11.4488C80.8133 11.1485 81.1886 10.9231 81.6147 10.7732C82.1402 10.5478 82.5155 10.4978 83.041 10.4978C83.7921 10.4978 84.5677 10.6479 85.1936 11.3489C85.7941 12.0496 85.9194 12.8759 85.9194 13.5768V19.4082H84.3171V13.451C84.3171 12.0247 83.4168 11.6489 82.6656 11.6489C81.9144 11.6489 81.1389 11.9747 80.5135 12.5499V19.4082H78.9355V11.9243V10.6479H78.9356Z" fill="#494949"/>
<path fill-rule="evenodd" clip-rule="evenodd" d="M93.7546 17.7065C93.4539 17.8565 93.1287 17.9814 92.7285 18.1067C92.2528 18.2573 91.8774 18.3318 91.3763 18.3318C90.5511 18.3318 89.7999 18.057 89.3992 17.6061C89.099 17.3058 88.7738 16.7053 88.7738 15.6538V15.4286H94.1802V15.0284C94.1802 13.6265 94.13 12.4749 93.254 11.5487C92.6783 10.9231 91.8023 10.4978 90.7007 10.4978C89.4743 10.4978 88.5735 11.0233 88.0232 11.6489C87.1219 12.6755 87.0215 14.0267 87.0215 14.9027C87.0215 15.8791 87.1721 17.3312 88.0729 18.3319C88.6486 19.0075 89.6747 19.5832 91.1268 19.5832C91.7776 19.5832 92.4785 19.5081 93.179 19.2327C93.5543 19.0826 93.9799 18.8828 94.2553 18.7321L93.7546 17.7065ZM88.7738 14.0774C88.7738 13.0756 89.099 12.5 89.35 12.2245C89.5996 11.9496 90.0003 11.6488 90.6759 11.6488C91.1268 11.6488 91.5767 11.749 91.9028 12.0747C92.4785 12.6252 92.4785 13.3009 92.4785 13.9019V14.2772H88.7738V14.0774Z" fill="#494949"/>
<path fill-rule="evenodd" clip-rule="evenodd" d="M102.839 10.6727L99.4105 20.9847C99.2852 21.4356 98.9601 22.1863 98.5842 22.6113C98.1338 23.1125 97.5333 23.3377 96.8571 23.3377C96.3814 23.3377 95.9315 23.2372 95.4806 22.9872C95.2057 22.8117 94.9297 22.6367 94.7543 22.4364L95.5054 21.4848C95.6307 21.6106 95.8057 21.7359 95.9563 21.8353C96.2064 21.9859 96.5072 22.061 96.7821 22.061C97.2579 22.061 97.5581 21.811 97.7083 21.6106C97.8832 21.3854 98.0582 20.8599 98.184 20.5344L98.3844 19.8333L94.7051 10.6727H96.4316L98.6339 16.1541C98.8596 16.6791 99.0848 17.4809 99.135 17.7061H99.2096C99.485 16.6547 99.6108 16.3037 99.836 15.6534L101.412 10.6726H102.839V10.6727Z" fill="#494949"/>
<path fill-rule="evenodd" clip-rule="evenodd" d="M35.4832 18.9071L35.5334 18.832L35.6085 18.9071C36.1839 19.3829 36.7599 19.6081 37.5359 19.6081C39.2627 19.6081 40.3892 18.3811 40.3892 16.5293C40.3892 16.5293 40.3892 7.91916 40.3892 7.7439C40.2137 7.7439 38.8123 7.7439 38.6371 7.7439C38.6371 7.91916 38.6371 16.5293 38.6371 16.5293C38.6371 17.7806 37.786 17.8561 37.5359 17.8561C37.3104 17.8561 37.0102 17.8307 36.7847 17.6056C36.5344 17.3804 36.4094 17.005 36.4094 16.5293C36.4094 16.5293 36.4094 7.91916 36.4094 7.7439C36.2342 7.7439 34.8325 7.7439 34.6573 7.7439C34.6573 7.91916 34.6573 16.5293 34.6573 16.5293C34.6573 17.7806 33.8064 17.8561 33.5313 17.8561C33.3309 17.8561 33.0304 17.8307 32.8052 17.6056C32.5547 17.3804 32.4299 17.005 32.4299 16.5293C32.4299 16.5293 32.4299 7.91916 32.4299 7.7439C32.2544 7.7439 30.8529 7.7439 30.6777 7.7439C30.6777 7.91916 30.6777 16.5293 30.6777 16.5293C30.6777 17.4808 30.978 18.2812 31.5288 18.832C32.0292 19.3326 32.7553 19.6081 33.5313 19.6081C34.307 19.6081 34.9327 19.358 35.4832 18.9071Z" fill="#494949"/>
<path fill-rule="evenodd" clip-rule="evenodd" d="M48.4157 17.7063C48.1403 17.831 47.8149 17.9812 47.4142 18.1065C46.939 18.2571 46.5631 18.3317 46.0627 18.3317C45.2368 18.3317 44.4855 18.0568 44.0852 17.6059C43.81 17.3056 43.4846 16.7051 43.4846 15.6537V15.4284H48.841V15.0282C48.841 13.6263 48.791 12.4747 47.9399 11.5486C47.3642 10.948 46.488 10.5225 45.3615 10.5225C44.1853 10.5225 43.2845 11.0482 42.7337 11.6487C41.8077 12.7002 41.7324 14.0514 41.7324 14.9025C41.7324 15.8789 41.8577 17.331 42.7587 18.3317C43.3596 18.983 44.3605 19.583 45.8124 19.583C46.4632 19.583 47.1388 19.4831 47.8648 19.2077C48.2401 19.0825 48.6406 18.8573 48.916 18.7071L48.4157 17.7063ZM43.4847 14.0772C43.4847 13.0755 43.7849 12.5251 44.0604 12.2244C44.2855 11.9746 44.686 11.6487 45.3615 11.6487C45.8125 11.6487 46.2631 11.7739 46.5885 12.0993C47.1639 12.6251 47.1639 13.3006 47.1639 13.9265V14.277H43.4846V14.0772H43.4847Z" fill="#494949"/>
<path fill-rule="evenodd" clip-rule="evenodd" d="M56.2851 11.3987C55.6592 10.8479 54.7832 10.5225 53.8824 10.5225C53.4818 10.5225 53.0567 10.5975 52.7559 10.6477C52.5059 10.7226 52.1802 10.8479 51.9051 10.948V7.51904H50.3281V18.6569C51.2543 19.2078 52.3557 19.5831 53.607 19.5831C54.5326 19.5831 55.7849 19.3832 56.6852 18.2065C57.4116 17.2301 57.5617 16.0042 57.5617 15.0029C57.5617 14.0514 57.4867 12.4247 56.2851 11.3987ZM53.5816 11.6487C54.2075 11.6487 54.8588 11.8491 55.2589 12.2749C55.8098 12.8757 55.8098 13.7764 55.8098 14.5525V15.3033C55.8098 16.7803 55.5593 17.3808 55.334 17.7064C55.0835 18.032 54.5585 18.4322 53.6571 18.4322C53.3315 18.4322 52.9309 18.3317 52.6306 18.2572C52.4059 18.1817 52.1305 18.032 51.905 17.9062V12.1744" fill="#494949"/>
</svg>
