<svg xmlns="http://www.w3.org/2000/svg" width="60" height="48" viewBox="0 0 60 48">
    <path fill="#FFBB4E" fill-rule="evenodd" d="M47 33a3 3 0 1 0-6 0 3 3 0 0 0 6 0zm-11 0c0-4.143-2.687-7.5-6-7.5s-6 3.357-6 7.5 2.687 7.5 6 7.5 6-3.357 6-7.5zm-17 0a3 3 0 1 0-6 0 3 3 0 0 0 6 0zm36-4.253v8.506A8.032 8.032 0 0 0 49.253 43H10.747A8.03 8.03 0 0 0 5 37.253v-8.506A8.032 8.032 0 0 0 10.747 23h38.506A8.034 8.034 0 0 0 55 28.747zM57 27a6 6 0 0 1-6-6H9a6 6 0 0 1-6 6v12a6 6 0 0 1 6 6h42a6 6 0 0 1 6-6V27zM0 48h60V18H0v30zm44-16a1 1 0 1 0 0 2 1 1 0 0 0 0-2zm-28 0a1 1 0 1 0 0 2 1 1 0 0 0 0-2zm14-4.5c-2.168 0-4 2.519-4 5.5s1.832 5.5 4 5.5 4-2.519 4-5.5-1.832-5.5-4-5.5zM24 3h12V0H24v3zM8 7h12V4H8v3zm2 4h12V8H10v3zm-1 4h12v-3H9v3zm15-8h12V4H24v3zm0 4h12V8H24v3zm0 4h12v-3H24v3zm16-8h12V4H40v3zm-2 4h12V8H38v3zm1 4h12v-3H39v3z"/>
</svg>
