<svg width="102" height="35" viewBox="0 0 102 35" fill="none" xmlns="http://www.w3.org/2000/svg">
<path d="M15.9631 0C7.14694 0 0 2.62709 0 10.3079V24.3609C0 32.0416 7.14694 34.6687 15.9631 34.6687C24.7793 34.6687 31.9263 32.0416 31.9263 24.3609V10.3079C31.9263 2.62715 24.7793 0 15.9631 0ZM23.3055 24.412C23.3055 27.622 20.0182 28.2799 15.9631 28.2799C11.908 28.2799 8.6207 27.6219 8.6207 24.412V10.2567C8.6207 7.04677 11.908 6.38878 15.9631 6.38878C20.0182 6.38878 23.3055 7.04682 23.3055 10.2567V24.412Z" fill="#494949"/>
<path d="M54.6207 22.8849L46.9458 0.514648H35.0762V34.1583H43.0573V10.6543L51.1212 34.1583H58.1201L65.8974 11.4894V34.1583H73.8786V0.514648H62.2955L54.6207 22.8849Z" fill="#494949"/>
<path d="M86.2848 0.514648H77.6074V34.1583H86.2848V0.514648Z" fill="#494949"/>
<path d="M99.7235 0.351318L98.4479 4.06972L97.1721 0.351318H95.1992V5.94358H96.5258V2.03674L97.8662 5.94358H99.0295L100.322 2.17551V5.94358H101.649V0.351318H99.7235Z" fill="#494949"/>
<path d="M89.9297 0.351318V1.24674H91.6282V5.94358H93.0706V1.24674H94.7693V0.351318H89.9297Z" fill="#494949"/>
</svg>
