<svg width="88" height="32" viewBox="0 0 88 32" fill="none" xmlns="http://www.w3.org/2000/svg">
<path d="M0.0292969 28.6088L0.92534 28.5182C0.979209 28.8203 1.08866 29.0421 1.25358 29.1838C1.41845 29.3255 1.64094 29.3962 1.92094 29.3962C2.21753 29.3962 2.44095 29.3334 2.59146 29.2076C2.74179 29.0817 2.81704 28.9346 2.81704 28.766C2.81704 28.658 2.78549 28.5661 2.72245 28.49C2.65936 28.4142 2.54919 28.3483 2.39195 28.292C2.28432 28.2552 2.03923 28.189 1.65652 28.094C1.16407 27.9724 0.818707 27.8225 0.620194 27.6442C0.340851 27.3939 0.20129 27.0887 0.20129 26.7284C0.20129 26.497 0.267037 26.2801 0.398698 26.0784C0.530359 25.8765 0.720142 25.7228 0.967937 25.6173C1.21568 25.5119 1.51497 25.459 1.86542 25.459C2.43775 25.459 2.86853 25.5848 3.15788 25.8363C3.44711 26.088 3.59899 26.4238 3.61358 26.8438L2.69035 26.88C2.65091 26.6452 2.56632 26.4766 2.43681 26.3736C2.30731 26.2707 2.11283 26.2192 1.8537 26.2192C1.58613 26.2192 1.37684 26.2741 1.22551 26.3841C1.12794 26.4545 1.07927 26.549 1.07927 26.6672C1.07927 26.7753 1.12479 26.8675 1.21606 26.9444C1.33203 27.0417 1.61386 27.1433 2.06161 27.2485C2.50924 27.354 2.8403 27.4632 3.05484 27.5766C3.26921 27.69 3.43706 27.845 3.55844 28.0414C3.67966 28.2382 3.74032 28.4809 3.74032 28.77C3.74032 29.0324 3.66761 29.2777 3.52242 29.5065C3.37705 29.7354 3.17152 29.9053 2.90594 30.0168C2.64035 30.1279 2.30929 30.1836 1.91288 30.1836C1.3359 30.1836 0.892632 30.0496 0.583509 29.7815C0.27411 29.5133 0.0894088 29.1224 0.0292969 28.6088Z" fill="#494949"/>
<path d="M4.68945 26.3458V25.5403H5.56744V26.3458H4.68945ZM4.68945 30.1021V26.7984H5.56744V30.1021H4.68945Z" fill="#494949"/>
<path d="M9.66449 30.1022H8.78652V28.4124C8.78652 28.0549 8.76784 27.8239 8.73066 27.7189C8.69348 27.614 8.63303 27.5323 8.54933 27.474C8.46563 27.416 8.36491 27.3868 8.24722 27.3868C8.09645 27.3868 7.96114 27.4284 7.84136 27.5116C7.72147 27.5947 7.63942 27.7047 7.595 27.8419C7.55058 27.9791 7.52837 28.2325 7.52837 28.6025V30.1022H6.65039V26.7985H7.46499V27.2839C7.75323 26.906 8.11628 26.717 8.55386 26.717C8.74674 26.717 8.92299 26.7521 9.08266 26.8217C9.24233 26.8913 9.3631 26.9801 9.44515 27.0882C9.52703 27.1962 9.58399 27.3187 9.61626 27.4558C9.64836 27.593 9.66449 27.7893 9.66449 28.0447V30.1022Z" fill="#494949"/>
<path d="M10.6496 30.3194L11.6452 30.4281C11.6619 30.5511 11.7004 30.6357 11.7608 30.6821C11.8441 30.748 11.9753 30.7811 12.1544 30.7811C12.3833 30.7811 12.5552 30.7469 12.6697 30.6784C12.7466 30.6329 12.805 30.5591 12.8447 30.4575C12.8717 30.3845 12.8853 30.251 12.8853 30.0558L12.8879 29.5736C12.6291 29.926 12.3005 30.1022 11.9019 30.1022C11.4576 30.1022 11.1057 29.9144 10.8462 29.5382C10.6427 29.2409 10.541 28.871 10.541 28.4283C10.541 27.8734 10.6744 27.4497 10.9411 27.1566C11.2078 26.8636 11.5396 26.717 11.9361 26.717C12.3451 26.717 12.6826 26.8969 12.9486 27.2562V26.7985H13.7632V29.7682C13.7632 30.1587 13.731 30.4507 13.6666 30.6435C13.6021 30.837 13.5117 30.9886 13.3953 31.0986C13.2789 31.2086 13.1237 31.295 12.9293 31.3575C12.735 31.4197 12.4893 31.4508 12.1924 31.4508C11.6314 31.4508 11.2334 31.3541 10.9987 31.1608C10.7639 30.9677 10.6465 30.7227 10.6465 30.4257C10.6465 30.3967 10.6474 30.3613 10.6496 30.3194ZM11.437 28.3791C11.437 28.7307 11.5043 28.9881 11.6392 29.1513C11.774 29.3148 11.9402 29.3963 12.1379 29.3963C12.3497 29.3963 12.5288 29.3125 12.675 29.1451C12.8211 28.9777 12.8942 28.7296 12.8942 28.4009C12.8942 28.0578 12.8242 27.803 12.6842 27.6363C12.5442 27.47 12.3673 27.3869 12.1533 27.3869C11.9454 27.3869 11.774 27.4686 11.6392 27.6319C11.5043 27.7954 11.437 28.0443 11.437 28.3791Z" fill="#494949"/>
<path d="M14.8125 30.1023V25.5405H15.6905V30.1023H14.8125Z" fill="#494949"/>
<path d="M18.7008 29.0612L19.5697 29.2061C19.4573 29.5246 19.2798 29.7672 19.0374 29.9339C18.7949 30.1004 18.4915 30.1836 18.1274 30.1836C17.5508 30.1836 17.1241 29.9952 16.8474 29.6184C16.6287 29.3164 16.5195 28.9357 16.5195 28.4752C16.5195 27.926 16.6631 27.4955 16.9501 27.184C17.2372 26.8726 17.6001 26.717 18.0391 26.717C18.5321 26.717 18.9211 26.8805 19.2061 27.2069C19.4911 27.5339 19.6274 28.034 19.615 28.7083H17.4155C17.4218 28.9685 17.493 29.1705 17.6292 29.3153C17.7653 29.4595 17.935 29.5319 18.1384 29.5319C18.2765 29.5319 18.3928 29.4949 18.4871 29.4205C18.5812 29.3464 18.6525 29.2264 18.7008 29.0612ZM18.746 28.1742C18.7398 27.9171 18.674 27.7217 18.5487 27.5876C18.4234 27.4538 18.2711 27.3868 18.0916 27.3868C17.8996 27.3868 17.7409 27.4575 17.6157 27.5986C17.4904 27.7398 17.4289 27.9318 17.431 28.1742H18.746Z" fill="#494949"/>
<path d="M22.4922 30.1023V25.5405H25.8682V26.3099H23.4154V27.3236H25.6962V28.093H23.4154V29.333H25.9587V30.1023H22.4922V30.1023Z" fill="#494949"/>
<path d="M29.1037 30.1022V29.6075C28.9831 29.7837 28.8245 29.9241 28.6279 30.0278C28.4313 30.1316 28.2239 30.1836 28.0055 30.1836C27.7829 30.1836 27.5834 30.1347 27.4066 30.0372C27.2299 29.9396 27.1019 29.8024 27.0228 29.6259C26.9437 29.4491 26.9043 29.205 26.9043 28.8933V26.7986H27.7823V28.318C27.7823 28.783 27.7982 29.0681 27.8305 29.1728C27.8627 29.278 27.9213 29.3609 28.0065 29.4223C28.0916 29.4834 28.1995 29.5139 28.3303 29.5139C28.4798 29.5139 28.6137 29.4732 28.7321 29.3912C28.8503 29.3092 28.9313 29.2073 28.9749 29.0857C29.0184 28.9644 29.0404 28.6671 29.0404 28.1936V26.7986H29.9183V30.1023H29.1037V30.1022Z" fill="#494949"/>
<path d="M31.8389 30.1022H30.9609V26.7985H31.7755V27.2683C31.9147 27.0463 32.0399 26.8992 32.151 26.8263C32.2622 26.7536 32.3883 26.717 32.5296 26.717C32.729 26.717 32.921 26.7725 33.1061 26.8828L32.8391 27.6476C32.6911 27.5523 32.5535 27.5045 32.4266 27.5045C32.3035 27.5045 32.1994 27.5384 32.114 27.6057C32.0286 27.6734 31.9613 27.7953 31.9123 27.9718C31.8634 28.1482 31.8389 28.518 31.8389 29.0805V30.1022Z" fill="#494949"/>
<path d="M33.4668 28.4034C33.4668 28.112 33.5383 27.8297 33.6816 27.5571C33.8247 27.2844 34.0277 27.0763 34.2903 26.9326C34.5528 26.7889 34.8459 26.717 35.1698 26.717C35.6701 26.717 36.08 26.88 36.3996 27.2058C36.7192 27.5316 36.8791 27.9435 36.8791 28.441C36.8791 28.9428 36.7176 29.3588 36.3948 29.6886C36.0721 30.0187 35.6658 30.1836 35.176 30.1836C34.873 30.1836 34.5839 30.1149 34.309 29.9777C34.0339 29.8402 33.8247 29.6388 33.6816 29.3733C33.5383 29.1077 33.4668 28.7846 33.4668 28.4034ZM34.3628 28.4503C34.3628 28.7795 34.4408 29.0313 34.5969 29.2061C34.753 29.3811 34.9455 29.4685 35.1745 29.4685C35.4033 29.4685 35.5954 29.3811 35.7503 29.2061C35.9054 29.0313 35.983 28.7773 35.983 28.444C35.983 28.1193 35.9054 27.8693 35.7503 27.6945C35.5954 27.5198 35.4033 27.4321 35.1745 27.4321C34.9455 27.4321 34.753 27.5198 34.5969 27.6945C34.4408 27.8693 34.3628 28.1213 34.3628 28.4503Z" fill="#494949"/>
<path d="M39.7344 30.1023V25.5405H41.2121C41.7722 25.5405 42.1372 25.5635 42.3073 25.609C42.5685 25.6774 42.7873 25.8265 42.9637 26.0559C43.1399 26.285 43.2282 26.5814 43.2282 26.9446C43.2282 27.2246 43.1774 27.46 43.0758 27.6511C42.9743 27.8417 42.8452 27.992 42.6888 28.1009C42.5323 28.2101 42.3732 28.2819 42.2117 28.3173C41.9919 28.3608 41.6739 28.3826 41.2576 28.3826H40.6577V30.1023H39.7344V30.1023ZM40.6576 26.3098V27.6132H41.1604C41.5224 27.6132 41.7645 27.5894 41.8867 27.5414C42.0088 27.4933 42.1045 27.4181 42.1738 27.3157C42.2431 27.2132 42.2777 27.0942 42.2777 26.9584C42.2777 26.7913 42.2291 26.6535 42.1318 26.5449C42.0345 26.4363 41.9114 26.3684 41.7625 26.3412C41.6528 26.3203 41.4324 26.3098 41.1013 26.3098H40.6576Z" fill="#494949"/>
<path d="M44.8059 27.8032L44.0185 27.6584C44.1075 27.3384 44.2611 27.1017 44.479 26.9479C44.697 26.794 45.0209 26.717 45.4505 26.717C45.8406 26.717 46.1313 26.7635 46.3222 26.8557C46.5132 26.9484 46.6478 27.0658 46.7254 27.2081C46.8034 27.3503 46.8424 27.6117 46.8424 27.9921L46.8334 29.0143C46.8334 29.3054 46.8472 29.52 46.8753 29.658C46.9033 29.7961 46.9555 29.9444 47.0325 30.1021H46.1636C46.1404 30.045 46.1126 29.9602 46.0793 29.8476C46.0648 29.7964 46.0544 29.7627 46.0484 29.7463C45.8991 29.892 45.7396 30.0014 45.5696 30.0744C45.3996 30.1471 45.2183 30.1836 45.0254 30.1836C44.6854 30.1836 44.4172 30.0911 44.2215 29.9062C44.0258 29.7212 43.9277 29.4873 43.9277 29.2044C43.9277 29.0178 43.9723 28.8509 44.0614 28.7044C44.1508 28.5579 44.2759 28.4453 44.4368 28.3675C44.5977 28.2897 44.8296 28.2213 45.1326 28.163C45.5413 28.0863 45.8247 28.0148 45.9826 27.948V27.8597C45.9826 27.6894 45.9407 27.5681 45.8573 27.4954C45.7738 27.423 45.6162 27.3868 45.3846 27.3868C45.2282 27.3868 45.1062 27.4176 45.0186 27.479C44.9309 27.5407 44.8599 27.6487 44.8059 27.8032ZM45.9825 28.5182C45.8706 28.5559 45.6935 28.6006 45.4513 28.6526C45.2092 28.7047 45.0508 28.7559 44.9764 28.8057C44.8624 28.8871 44.8059 28.9901 44.8059 29.1151C44.8059 29.2382 44.8511 29.3442 44.9422 29.4339C45.0332 29.5236 45.1493 29.5683 45.2901 29.5683C45.4474 29.5683 45.5973 29.5163 45.7404 29.4122C45.8456 29.333 45.9152 29.2362 45.9483 29.1214C45.9709 29.0464 45.9825 28.9036 45.9825 28.6932V28.5182Z" fill="#494949"/>
<path d="M47.4785 26.7986H48.4107L49.2027 29.1439L49.9766 26.7986H50.8817L49.7176 29.9781L49.5048 30.5588C49.4279 30.7523 49.3546 30.8999 49.285 31.0017C49.2154 31.1035 49.1354 31.1861 49.0449 31.2495C48.9544 31.3128 48.8435 31.3626 48.7114 31.3977C48.5793 31.4334 48.4302 31.4509 48.2639 31.4509C48.0956 31.4509 47.9302 31.4334 47.7681 31.398L47.6866 30.713C47.824 30.7404 47.9485 30.754 48.0587 30.754C48.2636 30.754 48.4146 30.6934 48.5127 30.573C48.6109 30.4519 48.6859 30.298 48.7382 30.1114L47.4785 26.7986Z" fill="#494949"/>
<path d="M51.5684 26.7985H52.3739V27.2497C52.6632 26.8947 53.0075 26.717 53.4071 26.717C53.6193 26.717 53.8034 26.7606 53.9595 26.8477C54.1157 26.9351 54.2438 27.0672 54.3433 27.2437C54.4887 27.0672 54.6461 26.9351 54.8141 26.8477C54.9826 26.7606 55.162 26.717 55.3531 26.717C55.5964 26.717 55.802 26.7663 55.9703 26.8653C56.1386 26.9637 56.2645 27.1088 56.3476 27.3C56.4076 27.4412 56.4379 27.6697 56.4379 27.9856V30.1022H55.5599V28.2099C55.5599 27.8816 55.5296 27.6697 55.4697 27.5741C55.3888 27.449 55.2643 27.3868 55.0966 27.3868C54.9741 27.3868 54.859 27.4242 54.7513 27.4991C54.6435 27.574 54.5657 27.6835 54.5182 27.8281C54.4704 27.9723 54.4466 28.2006 54.4466 28.5123V30.1021H53.5686V28.288C53.5686 27.9655 53.5531 27.7579 53.5219 27.6644C53.4908 27.5707 53.4427 27.5011 53.3774 27.4553C53.312 27.4098 53.2235 27.3869 53.1115 27.3869C52.9768 27.3869 52.8555 27.4234 52.7477 27.4961C52.64 27.5688 52.5627 27.6737 52.5161 27.8109C52.4695 27.9481 52.4462 28.1755 52.4462 28.4934V30.1023H51.5684V26.7985Z" fill="#494949"/>
<path d="M59.4117 29.0612L60.2807 29.2061C60.1681 29.5246 59.9907 29.7672 59.7483 29.9339C59.5056 30.1004 59.2024 30.1836 58.8381 30.1836C58.2616 30.1836 57.8352 29.9952 57.5583 29.6184C57.3396 29.3164 57.2305 28.9357 57.2305 28.4752C57.2305 27.926 57.3741 27.4955 57.6609 27.184C57.9483 26.8726 58.3109 26.717 58.7499 26.717C59.2432 26.717 59.6321 26.8805 59.9168 27.2069C60.2019 27.5339 60.3383 28.034 60.3258 28.7083H58.1264C58.1326 28.9685 58.2039 29.1705 58.3403 29.3153C58.476 29.4595 58.6457 29.5319 58.8494 29.5319C58.9874 29.5319 59.1037 29.4949 59.1978 29.4205C59.2924 29.3464 59.3636 29.2264 59.4117 29.0612ZM59.457 28.1742C59.4508 27.9171 59.3852 27.7217 59.2597 27.5876C59.1346 27.4538 58.9821 27.3868 58.8026 27.3868C58.6108 27.3868 58.4519 27.4575 58.3268 27.5986C58.2015 27.7398 58.1401 27.9318 58.1421 28.1742H59.457Z" fill="#494949"/>
<path d="M64.2348 30.1022H63.3568V28.4124C63.3568 28.0549 63.3382 27.8239 63.3011 27.7189C63.2638 27.614 63.2033 27.5323 63.1195 27.474C63.0358 27.416 62.9351 27.3868 62.8175 27.3868C62.6669 27.3868 62.5315 27.4284 62.4118 27.5116C62.2919 27.5947 62.2099 27.7047 62.1651 27.8419C62.1211 27.9791 62.0987 28.2325 62.0987 28.6025V30.1022H61.2207V26.7985H62.0353V27.2839C62.3235 26.906 62.6868 26.717 63.124 26.717C63.3169 26.717 63.4934 26.7521 63.6529 26.8217C63.8125 26.8913 63.9335 26.9801 64.0155 27.0882C64.0972 27.1962 64.1541 27.3187 64.1864 27.4558C64.2186 27.593 64.2347 27.7893 64.2347 28.0447V30.1022H64.2348Z" fill="#494949"/>
<path d="M66.8248 26.7984V27.4953H66.2273V28.8318C66.2273 29.1024 66.2327 29.2603 66.2441 29.3049C66.2551 29.3496 66.2805 29.3864 66.3204 29.4158C66.3603 29.4447 66.4084 29.4594 66.4655 29.4594C66.5452 29.4594 66.6601 29.4313 66.8112 29.3753L66.8881 30.0527C66.6856 30.1399 66.4565 30.1834 66.2009 30.1834C66.0435 30.1834 65.9025 30.1569 65.7765 30.104C65.6507 30.051 65.5582 29.9823 65.4993 29.898C65.4405 29.8139 65.3998 29.7 65.3771 29.5566C65.3585 29.4547 65.3494 29.2488 65.3494 28.9391V27.4952H64.9512V26.7982H65.3494V26.1375L66.2274 25.6216V26.7982H66.8248V26.7984Z" fill="#494949"/>
<path d="M67.3164 29.17L68.1944 29.0342C68.2317 29.2031 68.3072 29.3312 68.4212 29.4189C68.5352 29.5066 68.6947 29.5501 68.8998 29.5501C69.1258 29.5501 69.2957 29.5083 69.4097 29.4248C69.4864 29.3662 69.5248 29.2882 69.5248 29.1898C69.5248 29.123 69.5039 29.0675 69.462 29.024C69.4182 28.9821 69.32 28.9437 69.1679 28.908C68.4585 28.7513 68.0088 28.6085 67.8193 28.4795C67.5562 28.3008 67.425 28.0522 67.425 27.7342C67.425 27.4472 67.5384 27.2058 67.7658 27.0104C67.9932 26.8149 68.3459 26.717 68.8234 26.717C69.2782 26.717 69.6159 26.7903 69.8371 26.9365C70.0583 27.0831 70.2105 27.2994 70.2942 27.586L69.4705 27.7398C69.4349 27.6114 69.3671 27.5127 69.2674 27.4442C69.1676 27.3758 69.0253 27.3416 68.8409 27.3416C68.6078 27.3416 68.441 27.3739 68.3402 27.4389C68.2729 27.4847 68.2396 27.5441 68.2396 27.6171C68.2396 27.6799 68.2684 27.7331 68.327 27.7772C68.4062 27.8355 68.6796 27.9181 69.1475 28.0244C69.6153 28.131 69.942 28.2614 70.1276 28.4159C70.3108 28.5723 70.4027 28.7903 70.4027 29.0698C70.4027 29.3742 70.276 29.6361 70.0232 29.855C69.7697 30.0742 69.3956 30.1836 68.8997 30.1836C68.4496 30.1836 68.0936 30.0926 67.8311 29.911C67.5687 29.7289 67.3973 29.4822 67.3164 29.17Z" fill="#494949"/>
<path d="M77.4412 30.1023H76.4473L76.0527 29.0704H74.2142L73.8383 30.1023H72.8613L74.6282 25.5405H75.599L77.4412 30.1023ZM75.7484 28.3011L75.1106 26.6085L74.4942 28.3011H75.7484Z" fill="#494949"/>
<path d="M78.9483 30.1022H78.0703V26.7985H78.8849V27.2683C79.0241 27.0463 79.1491 26.8992 79.2606 26.8263C79.3714 26.7536 79.4976 26.717 79.639 26.717C79.8384 26.717 80.0305 26.7725 80.2155 26.8828L79.9485 27.6476C79.8006 27.5523 79.6628 27.5045 79.5361 27.5045C79.4128 27.5045 79.3087 27.5384 79.2233 27.6057C79.1379 27.6734 79.0705 27.7953 79.0219 27.9718C78.9727 28.1482 78.9483 28.518 78.9483 29.0805V30.1022Z" fill="#494949"/>
<path d="M82.7048 29.0612L83.5737 29.2061C83.4614 29.5246 83.2837 29.7672 83.0414 29.9339C82.799 30.1004 82.4954 30.1836 82.1315 30.1836C81.5547 30.1836 81.1279 29.9952 80.8513 29.6184C80.6326 29.3164 80.5234 28.9357 80.5234 28.4752C80.5234 27.926 80.6669 27.4955 80.9542 27.184C81.241 26.8726 81.6042 26.717 82.0432 26.717C82.5359 26.717 82.9251 26.8805 83.2102 27.2069C83.4949 27.5339 83.6314 28.034 83.6188 28.7083H81.4194C81.4257 28.9685 81.4969 29.1705 81.6329 29.3153C81.7694 29.4595 81.939 29.5319 82.1421 29.5319C82.2804 29.5319 82.3967 29.4949 82.4911 29.4205C82.5851 29.3464 82.6564 29.2264 82.7048 29.0612ZM82.75 28.1742C82.7438 27.9171 82.6779 27.7217 82.5528 27.5876C82.4273 27.4538 82.2751 27.3868 82.0958 27.3868C81.9035 27.3868 81.745 27.4575 81.6198 27.5986C81.4945 27.7398 81.4328 27.9318 81.4351 28.1742H82.75Z" fill="#494949"/>
<path d="M85.1631 27.8032L84.3757 27.6584C84.4648 27.3384 84.6184 27.1017 84.8361 26.9479C85.0542 26.794 85.3781 26.717 85.8077 26.717C86.1978 26.717 86.4885 26.7635 86.6794 26.8557C86.8704 26.9484 87.005 27.0658 87.0825 27.2081C87.1606 27.3503 87.1996 27.6117 87.1996 27.9921L87.1906 29.0143C87.1906 29.3054 87.2044 29.52 87.2325 29.658C87.2604 29.7961 87.3127 29.9444 87.3894 30.1021H86.5208C86.4976 30.045 86.4698 29.9602 86.4365 29.8476C86.4221 29.7964 86.4116 29.7627 86.4056 29.7463C86.2563 29.892 86.0968 30.0014 85.9268 30.0744C85.7568 30.1471 85.5755 30.1836 85.3826 30.1836C85.0426 30.1836 84.7744 30.0911 84.5787 29.9062C84.3829 29.7213 84.2852 29.4873 84.2852 29.2044C84.2852 29.0178 84.3296 28.8509 84.4186 28.7044C84.508 28.5579 84.6331 28.4453 84.794 28.3675C84.9549 28.2897 85.1868 28.2213 85.4898 28.163C85.8985 28.0863 86.1819 28.0148 86.3397 27.948V27.8597C86.3397 27.6894 86.2979 27.5681 86.2144 27.4954C86.131 27.423 85.9735 27.3868 85.7418 27.3868C85.5854 27.3868 85.4635 27.4176 85.3758 27.479C85.2881 27.5407 85.2171 27.6487 85.1631 27.8032ZM86.3397 28.5182C86.2277 28.5559 86.0507 28.6006 85.8086 28.6526C85.5664 28.7047 85.408 28.7559 85.3336 28.8057C85.2197 28.8871 85.1631 28.9901 85.1631 29.1151C85.1631 29.2382 85.2083 29.3442 85.2994 29.4339C85.3905 29.5236 85.5065 29.5683 85.6473 29.5683C85.8046 29.5683 85.9545 29.5163 86.0976 29.4122C86.2028 29.333 86.2724 29.2362 86.3055 29.1214C86.3281 29.0464 86.3397 28.9036 86.3397 28.6932V28.5182Z" fill="#494949"/>
<path d="M19.4096 7.61508H13.4319C13.4319 6.63418 13.3168 5.97598 13.0874 5.64084C12.7316 5.14486 11.7498 4.89668 10.143 4.89668C8.58226 4.89668 7.54787 5.0395 7.04305 5.3253C6.53845 5.61211 6.28585 6.23566 6.28585 7.19579C6.28585 8.06493 6.50961 8.63732 6.95791 8.91152C7.27896 9.10628 7.7035 9.2207 8.23241 9.25479L9.43791 9.33993C12.0215 9.51143 13.6351 9.63226 14.2786 9.70099C16.3218 9.90691 17.8029 10.4501 18.7221 11.3308C19.4451 12.0177 19.8765 12.9155 20.0142 14.0242C20.0945 14.6875 20.1347 15.4381 20.1347 16.272C20.1347 18.194 19.9512 19.6014 19.584 20.4935C18.9185 22.1304 17.4234 23.1641 15.0969 23.5983C14.1222 23.7818 12.6314 23.8735 10.626 23.8735C7.27819 23.8735 4.94526 23.6744 3.62805 23.2738C2.01127 22.7831 0.945493 21.7892 0.429624 20.2923C0.142213 19.4591 0 18.0714 0 16.1288H5.97738C5.97738 16.3455 5.97821 16.5109 5.97821 16.6252C5.97821 17.6618 6.27607 18.3285 6.87089 18.6255C7.283 18.8303 7.78052 18.9377 8.36546 18.9505H10.5632C11.6844 18.9505 12.4003 18.8931 12.7089 18.7777C13.2584 18.5616 13.6191 18.214 13.7913 17.7326C13.883 17.4362 13.9282 17.0525 13.9282 16.5833C13.9282 15.5323 13.5447 14.8927 12.7784 14.6634C12.4919 14.5728 11.1591 14.4464 8.78011 14.2864C6.86945 14.15 5.54235 14.0188 4.79934 13.8916C2.84233 13.5256 1.5381 12.7727 0.88726 11.6297C0.315036 10.6586 0.0290615 9.18927 0.0290615 7.22375C0.0290615 5.72692 0.183485 4.52678 0.492664 3.62394C0.802119 2.72093 1.30047 2.03534 1.98834 1.56654C2.9961 0.846689 4.28535 0.423971 5.85484 0.297835C7.16106 0.183965 8.60977 0.125732 10.2033 0.125732C12.7122 0.125732 14.5001 0.270101 15.5659 0.555909C18.1672 1.25482 19.4674 3.21255 19.4674 6.42942C19.4673 6.69329 19.448 7.08789 19.4096 7.61508Z" fill="#494949"/>
<path d="M45.6973 23.8739V0H55.062H56.5317H57.6682C59.3101 0 60.5629 0.134091 61.4239 0.401943C63.3928 1.01881 64.7136 2.28199 65.3905 4.19098C65.7395 5.19294 65.9143 6.70127 65.9143 8.7154C65.9143 11.1371 65.7206 12.8774 65.3373 13.9371C64.5694 16.0323 62.9891 17.2392 60.6025 17.552C60.3219 17.599 59.1277 17.6408 57.02 17.6745L55.9533 17.7101H52.1224V23.874H45.6973V23.8739ZM52.1224 12.1719H56.1281C57.398 12.1261 58.1705 12.0284 58.4486 11.8755C58.8284 11.6669 59.0833 11.2487 59.21 10.6218C59.2912 10.2044 59.3316 9.58388 59.3316 8.75982C59.3316 7.74991 59.2513 7.00149 59.0892 6.51275C58.8581 5.82793 58.3046 5.4109 57.428 5.25941C57.2546 5.23665 56.8397 5.22432 56.1821 5.22432H52.1224V12.1719H52.1224Z" fill="#494949"/>
<path d="M79.6271 19.7479H71.0364L69.8821 23.8738H63.2344L70.4074 0H80.1L87.361 23.8738H80.853L79.6271 19.7479ZM78.3511 15.0968L75.3405 4.748L72.419 15.0968H78.3511Z" fill="#494949"/>
<path d="M36.831 3.35866C39.481 3.35866 41.8462 4.57958 43.401 6.49161L44.7861 3.52198C42.6198 1.47459 39.6717 0.212402 36.42 0.212402C31.3571 0.212402 27.0261 3.27015 25.2487 7.59843H22.5478L20.9531 11.0173H24.4276C24.4016 11.3344 24.3846 11.6519 24.3846 11.9757C24.3846 12.3675 24.405 12.7549 24.4438 13.1374H22.6978L21.1033 16.5573H25.3316C27.1597 20.7762 31.4366 23.738 36.4201 23.738C38.9315 23.738 41.2619 22.9856 43.1915 21.7V17.5088C41.6375 19.278 39.3648 20.3959 36.831 20.3959C33.8691 20.3959 31.2638 18.8687 29.7468 16.5573H38.6011L40.1958 13.1374H28.4441C28.3836 12.7259 28.351 12.3053 28.351 11.8769C28.351 11.5871 28.366 11.3006 28.394 11.0173H41.1841L42.7785 7.59843H29.4999C30.9685 5.06406 33.7011 3.35866 36.831 3.35866Z" fill="#858585"/>
<path d="M36.8256 3.46069C39.3509 3.46069 41.7164 4.58928 43.3158 6.55617L43.4191 6.6833L43.4893 6.53507L44.8738 3.56506L44.9047 3.49771L44.8515 3.44666C42.5746 1.29462 39.5784 0.109619 36.4147 0.109619C33.9443 0.109619 31.567 0.831459 29.5395 2.19735C27.5599 3.53069 26.0416 5.38532 25.1492 7.55912L25.2434 7.49536H22.5425H22.4769L22.4494 7.55459L20.855 10.9738L20.7871 11.1199H20.9478H24.4223L24.3202 11.0087C24.2907 11.3635 24.2769 11.679 24.2769 11.9752C24.2769 12.3588 24.2964 12.7539 24.336 13.1471L24.4384 13.0349H22.6924H22.6274L22.5999 13.0941L21.0049 16.5133L20.9373 16.6593H21.0979H25.3262L25.2323 16.5974C27.1384 20.9968 31.5279 23.8402 36.4147 23.8402C38.8644 23.8402 41.2248 23.13 43.2429 21.7853L43.2882 21.7551V21.6997V17.5085V17.236L43.1088 17.4408C41.517 19.253 39.2267 20.2922 36.8256 20.2922C34.0009 20.2922 31.3845 18.8743 29.8269 16.5L29.7415 16.6593H38.5957H38.6614L38.6888 16.6007L40.2835 13.1804L40.3517 13.0349H40.1905H28.4387L28.5405 13.1221C28.4797 12.7082 28.4486 12.2894 28.4486 11.8765C28.4486 11.5953 28.4627 11.3098 28.491 11.0272L28.3886 11.1199H41.1787H41.2449L41.2718 11.0607L42.8662 7.64128L42.9349 7.49531H42.7731H29.4945L29.5827 7.64929C31.0802 5.06586 33.8558 3.46069 36.8256 3.46069ZM29.4945 7.70073H42.7731L42.68 7.55459L41.0862 10.9738L41.1787 10.9145H28.3886H28.2961L28.2862 11.0076C28.2577 11.2959 28.2433 11.5887 28.2433 11.8765C28.2433 12.2995 28.2749 12.7292 28.3371 13.1525L28.3507 13.24H28.4387H40.1905L40.098 13.0942L38.5033 16.5134L38.5958 16.4543H29.7415H29.5511L29.6558 16.6124C31.2513 19.0457 33.9319 20.4968 36.8257 20.4968C39.2856 20.4968 41.6322 19.4329 43.2636 17.5761L43.0834 17.5085V21.6997L43.1287 21.6151C41.1448 22.9363 38.8235 23.6349 36.4147 23.6349C31.6094 23.6349 27.294 20.8404 25.421 16.5157L25.3938 16.4543H25.3262H21.0979L21.1915 16.6008L22.7853 13.1805L22.6922 13.2401H24.4383H24.5514L24.5401 13.1268C24.5016 12.7405 24.4815 12.3521 24.4815 11.9754C24.4815 11.6856 24.4957 11.3746 24.5245 11.0258L24.5333 10.9146H24.4221H20.9477L21.0402 11.0609L22.6352 7.64139L22.5424 7.70078H25.2433H25.3124L25.3381 7.63714C26.2158 5.5004 27.7083 3.67843 29.6543 2.36713C31.6473 1.02517 33.9853 0.31537 36.4147 0.31537C39.5258 0.31537 42.4713 1.47987 44.7101 3.59594L44.6872 3.47787L43.3032 6.44816L43.4755 6.42667C41.8361 4.41137 39.4129 3.25566 36.8257 3.25566C33.7824 3.25566 30.9397 4.89984 29.4052 7.54669L29.3161 7.70073H29.4945Z" fill="#494949"/>
</svg>
