<svg width="70" height="23" viewBox="0 0 70 23" fill="none" xmlns="http://www.w3.org/2000/svg">
<path d="M30.0847 22.0204H24.4453L27.9363 0.268555H33.5757L30.0847 22.0204Z" fill="#494949"/>
<path d="M50.4903 0.805626C49.4162 0.268544 47.5364 0 45.3881 0C39.7487 0 35.9891 2.95395 35.9891 7.25061C35.9891 10.4731 38.6745 12.0843 40.8229 13.1585C42.9712 14.2327 43.7768 14.7698 43.7768 15.8439C43.7768 17.1866 42.1656 17.9922 40.2858 17.9922C38.1375 17.9922 36.7948 17.7237 34.915 16.9181L34.3779 16.1125L33.5723 20.9462C34.915 21.4833 37.3318 22.0204 39.7487 22.0204C45.6566 22.0204 49.4162 19.0664 49.4162 14.5012C49.4162 12.0843 48.0735 10.2046 44.5824 8.59331C42.7027 7.51915 41.3599 6.98206 41.3599 5.9079C41.3599 5.10228 42.4341 4.02812 44.5824 4.02812C46.4622 4.02812 47.8049 4.5652 48.8791 4.83374L49.4162 5.10228L50.4903 0.805626Z" fill="#494949"/>
<path d="M57.7417 14.2327C58.2788 12.89 59.8901 8.05625 59.8901 8.05625C59.8901 8.05625 60.4272 6.71353 60.6957 5.90791L61.2328 7.7877C61.2328 7.7877 62.3069 12.89 62.5755 13.9641C61.7699 14.2327 59.0845 14.2327 57.7417 14.2327ZM64.7238 0.268555H60.4272C59.0845 0.268555 58.0103 0.805639 57.4732 2.14834L49.1484 22.0204H55.0563C55.0563 22.0204 56.1305 19.335 56.1305 18.7979H63.3811C63.6496 19.6035 64.1867 22.0204 64.1867 22.0204H69.289L64.7238 0.268555Z" fill="#494949"/>
<path d="M19.6136 0.268555L14.2427 15.0383L13.7057 12.0844C12.6315 8.59333 9.409 4.83375 5.91797 2.95396L11.0202 22.0204H16.9282L25.79 0.268555H19.6136Z" fill="#494949"/>
<path d="M9.13039 0.309326H0V0.84641C6.98207 2.7262 11.8158 7.02286 13.6956 12.1251L11.8158 2.18912C11.2787 0.577869 10.2046 0.309326 9.13039 0.309326Z" fill="#B0B0B0"/>
</svg>
