<svg width="100" height="27" viewBox="0 0 100 27" fill="none" xmlns="http://www.w3.org/2000/svg">
<path d="M20.6503 4.28895C21.8647 4.29166 23.001 3.33352 23.1879 2.14904C23.3751 0.964892 22.542 0.00265988 21.3275 4.83878e-06C20.1132 -0.00248427 18.977 0.955654 18.7899 2.13991C18.6029 3.32445 19.4359 4.28669 20.6503 4.28895Z" fill="#858585"/>
<path d="M99.09 5.50769C97.0653 5.39966 94.4272 7.87526 94.4272 7.87526L93.5885 5.76501H91.2885L90.1827 12.0603C90.1062 12.4936 89.873 12.8838 89.5273 13.1558L86.4828 15.5535C86.4828 15.5535 85.2336 16.5078 83.5098 17.6236C82.7242 18.0096 82.0754 18.1832 81.4257 18.1832C80.0197 18.1832 79.1559 17.6417 78.7415 16.7124C78.6749 16.5431 78.6204 16.3654 78.5765 16.1829L86.3987 10.8959C87.5215 10.1098 87.5141 9.01848 87.3532 8.4815C86.8479 6.79704 85.332 5.5281 82.8204 5.5281C78.1312 5.5281 74.9129 9.5278 74.9129 15.2018C74.9129 15.5848 74.938 15.9583 74.9839 16.3213L72.7667 17.8826C72.3307 18.1482 71.7127 18.3852 71.3228 18.3858C70.6572 18.3842 70.3681 17.8679 70.5737 16.7394L73.478 0.507032L69.8307 0.498291L68.3769 8.57791C68.315 8.92124 68.1543 9.23918 67.9142 9.49229L63.9223 13.6992C64.0207 13.0039 64.076 12.2706 64.076 11.4966C64.076 8.07428 62.4892 5.54569 59.8302 5.54569C57.2601 5.54569 55.3398 7.72099 55.3398 7.72099L54.3326 5.77917H52.061L50.8099 12.8963C50.755 13.2084 50.6181 13.5002 50.4135 13.7421L48.0957 16.48C47.4505 17.1662 46.7755 18.0323 46.4387 18.0535C45.828 18.1587 45.5666 17.932 45.7691 16.803L46.6959 11.6414C47.4192 7.55987 46.1746 5.50454 42.6723 5.50454C40.5852 5.50454 38.1275 7.84938 38.1275 7.84938C37.6064 6.31504 36.3331 5.50454 34.3937 5.50454C32.2758 5.50454 29.9738 7.97372 29.9738 7.97372L29.0226 5.76523H26.723L25.5387 12.5043C25.4839 12.8165 25.3471 13.1083 25.1422 13.3502L22.4926 16.48C21.8476 17.1662 21.1725 18.0323 20.8356 18.0535C20.225 18.1587 19.9635 17.9321 20.1661 16.8031L22.1689 5.77148H18.5219L17.9278 9.02296C17.8502 9.44799 17.6603 9.84447 17.3777 10.1715L12.0463 16.3395C10.6582 17.8187 8.93289 18.0326 8.57899 18.0618H4.80966L13.3894 8.35837L13.8278 5.72795H2.80638L2.28051 8.67991H8.68414L0.412029 18.3825L0 21.1355C0 21.1355 7.74481 21.1661 7.87845 21.1344C10.1481 21.1344 12.1695 19.1252 12.9903 18.3045L17.1227 13.4306L16.3744 17.5269C15.9112 20.1898 16.9244 21.4473 19.1239 21.4054C20.4776 21.3797 21.3977 20.4798 22.3241 19.5535L24.8121 16.6391L23.9867 21.3363H27.6339L29.2298 12.1285C29.4404 10.9915 30.8959 9.05443 32.43 9.05443C34.0512 9.05443 34.8277 9.84652 34.4515 12.0176L32.8152 21.3363H36.4335L38.1919 11.4292C38.2972 10.7766 39.4762 8.92024 41.1089 8.92024C42.8168 8.92024 43.3669 9.84658 42.9906 12.0176L41.9774 17.527C41.5142 20.1899 42.5273 21.4474 44.7269 21.4055C46.0807 21.3798 47.0007 20.48 47.9271 19.5536L50.0834 17.0277L49.3236 21.3504L48.4453 26.3458H52.0925L53.279 19.5435C53.7803 20.18 54.4887 20.6995 55.3756 20.9763C55.5733 21.0382 55.7792 21.0887 55.9943 21.1248C58.357 21.2423 60.4627 20.0991 62.3327 18.1505L62.3431 18.1397L67.6446 12.6465L66.7795 17.4543C66.3105 20.1158 67.3208 21.3343 69.5205 21.3395C70.9469 21.3426 72.2851 20.6345 73.6879 19.6951L75.5484 18.3586C75.5815 18.4308 75.6155 18.5027 75.6516 18.5729C76.4869 20.205 78.0379 21.2821 80.3312 21.3073C80.3349 21.3077 80.3382 21.3079 80.3417 21.3083C82.7492 21.3083 85.1071 19.0346 86.4667 18.0801C86.8157 17.8353 88.14 16.7701 89.5571 15.6189L88.5525 21.3364H92.1997L93.7955 12.1286C94.0061 10.9916 95.4618 9.05454 96.9958 9.05454C97.5844 9.05454 98.0597 9.1608 98.4111 9.39765L99.09 5.50769ZM53.7714 16.6782L54.6207 11.8361C54.9994 10.6895 56.3396 9.15936 57.7399 9.06854C58.2742 9.0338 58.9181 9.05471 59.5224 9.54318C60.0438 10.1313 60.3132 11.0165 60.3132 12.1044C60.3132 15.5492 58.6341 17.9516 56.2606 17.9516C55.0737 17.9516 54.1476 17.3436 53.7714 16.6782ZM78.7069 12.1846C79.0996 10.2755 80.6495 8.6543 82.3864 8.6543C83.3636 8.6543 84.0688 9.37984 83.8162 10.1938L78.4495 13.8811C78.5248 12.921 78.7069 12.1846 78.7069 12.1846Z" fill="#858585"/>
</svg>
