<svg width="99" height="24" viewBox="0 0 99 24" fill="none" xmlns="http://www.w3.org/2000/svg">
<path d="M79.7035 13.0953C80.0618 12.3188 80.4202 11.7215 80.7189 11.0048C81.2565 9.45178 81.9135 8.01824 82.5705 6.58471C83.1678 5.21091 84.7208 4.85253 85.796 5.80821C86.0946 6.10687 86.2738 6.1666 86.6322 5.80821C86.9309 5.50956 87.2892 5.44983 87.7074 5.44983C90.5147 5.44983 93.322 5.3901 96.0696 5.33037C96.2488 5.33037 96.3683 5.33037 96.5475 5.3901C97.8018 5.62902 98.1602 6.58471 97.3837 7.60013C96.3683 8.97393 95.2931 10.3477 94.218 11.7215L91.7093 14.947C91.5898 15.0664 91.4704 15.1859 91.5898 15.3054C91.7093 15.4846 91.8885 15.4248 92.008 15.4248H96.4877C97.6226 15.4248 98.2199 16.0819 98.2199 17.0973C98.2199 17.9335 97.6226 18.5905 96.7267 18.5905C93.5609 18.6503 90.3952 18.6503 87.2892 18.5905C86.0946 18.5905 85.5571 17.5154 86.2141 16.5C86.9906 15.4248 87.8268 14.4094 88.663 13.2745C89.7979 11.7813 90.9328 10.3477 92.008 8.85447C92.3066 8.43636 91.8885 8.55582 91.7093 8.55582H87.9463C87.4087 8.55582 86.9309 8.43636 86.5725 8.01824C86.2738 7.71959 86.1544 7.89878 86.0946 8.1377L83.4068 14.4094C82.2121 17.0973 81.137 19.7852 79.9424 22.4133C79.4048 23.6079 78.7478 24.026 77.5532 23.8468C76.3586 23.6676 75.7612 22.6522 76.1794 21.5771C76.6572 20.3825 77.1948 19.1281 77.7324 17.9932C77.8518 17.6946 77.8518 17.3959 77.7324 17.0375C76.4183 13.9913 75.0445 10.8853 73.7901 7.89878C73.3123 6.70417 73.5512 5.80821 74.6264 5.3901C75.5821 4.91226 76.7767 5.33037 77.2545 6.40552C77.7324 7.42094 78.0907 8.49609 78.5686 9.63097C78.7478 10.7061 79.2256 11.841 79.7035 13.0953ZM50.4355 0.970042C52.108 0.970042 53.6012 0.91031 54.975 1.26869C58.7381 2.28411 60.5897 6.40552 58.738 9.6907C57.5434 11.7813 55.5126 12.6772 53.1234 12.7967C52.2274 12.8564 51.3315 12.8564 50.4355 12.7967C49.9577 12.7967 49.8382 12.9759 49.8382 13.4537C49.8979 14.5886 49.8382 15.7235 49.8382 16.8584C49.8382 18.053 49.0617 18.7697 47.9268 18.8295C46.8517 18.9489 45.9557 18.1724 45.7765 17.0973C45.7168 16.8584 45.7168 16.6194 45.7168 16.4402V3.29953C45.7168 1.74654 46.2544 1.20896 47.8074 1.02977C48.7631 0.910312 49.7187 1.02977 50.4355 0.970042ZM51.5704 4.31495C51.0925 4.31495 50.7342 4.31495 50.2563 4.25522C49.8979 4.25522 49.8382 4.37468 49.8382 4.73306V9.03366C49.8382 9.33231 49.9577 9.51151 50.316 9.51151C51.1523 9.51151 51.9288 9.57124 52.765 9.51151C54.1985 9.45178 55.2139 8.43636 55.2139 7.06255C55.2737 5.50956 54.3777 4.49414 52.8247 4.37468C52.4066 4.31495 51.9885 4.31495 51.5704 4.31495Z" fill="#B0B0B0"/>
<path d="M13.0476 13.2748H9.46381C8.98597 13.2748 8.86651 13.3942 9.0457 13.8721C9.40408 14.768 10.1806 15.0667 11.0168 15.2459C12.2711 15.5445 13.4658 15.3056 14.6006 14.768C15.0785 14.5889 15.4369 14.4097 15.9147 14.2902C16.7509 13.9915 17.4677 14.2305 18.0053 14.9472C18.4831 15.6043 18.3637 16.4405 17.7664 17.0975C17.2288 17.7546 16.5717 18.0532 15.7952 18.2921C13.5255 19.0686 11.1363 19.3673 8.86651 18.5311C6.41756 17.6351 4.92429 15.8432 4.50618 13.2748C4.02834 10.4077 4.98402 8.01849 7.37325 6.28631C11.2557 3.41925 16.6315 5.0917 18.1845 9.3923C18.4831 10.2285 18.5429 11.005 18.4831 11.8412C18.4234 12.558 18.1247 12.9164 17.408 13.0956C17.0496 13.215 16.7509 13.215 16.3926 13.215C15.2577 13.2748 14.1228 13.2748 13.0476 13.2748ZM11.5544 10.5272H13.8241C14.1228 10.5272 14.302 10.4077 14.1825 10.1091C13.9436 9.15337 12.6893 8.19769 11.6141 8.19769C10.539 8.19769 9.28462 9.03391 8.98597 9.9896C8.86651 10.2883 8.92624 10.4674 9.34435 10.4674C10.0611 10.5272 10.8376 10.5272 11.5544 10.5272Z" fill="#494949"/>
<path d="M73.0141 12.0801V16.5599C73.0141 16.9183 72.9543 17.3364 72.8946 17.635C72.6557 18.2921 72.2376 18.7102 71.5208 18.7699C70.6846 18.8296 69.9678 18.6504 69.5497 17.8739C69.4302 17.5753 69.3108 17.3364 68.9524 17.6948C66.9215 19.6061 63.2182 19.1283 61.3666 17.2169C59.515 15.3653 59.0371 13.0955 59.4552 10.6466C59.8733 8.07814 61.3069 6.28623 63.7558 5.39027C65.6075 4.73323 67.3994 4.91243 68.9524 6.28623C69.251 6.58488 69.3705 6.40569 69.5497 6.16677C70.0275 5.33054 70.8638 5.21108 71.7 5.33054C72.357 5.39027 72.7154 5.80838 72.8946 6.34596C73.0141 6.76407 73.0141 7.24192 73.0141 7.71976V12.0801ZM63.1585 11.7814C63.0391 12.4982 63.2182 13.1552 63.4572 13.6928C63.8156 14.6485 64.4129 15.425 65.488 15.6042C66.5034 15.7236 67.5188 15.6639 68.2356 14.768C69.251 13.5136 69.4302 11.5425 68.6537 10.109C68.1759 9.15329 67.4591 8.55599 66.2645 8.55599C65.0699 8.55599 64.2337 9.03383 63.6961 10.109C63.3377 10.5868 63.1585 11.1841 63.1585 11.7814Z" fill="#B0B0B0"/>
<path d="M37.4154 19.0088C33.294 19.0088 30.3672 16.082 30.3672 11.9606C30.3672 7.83915 33.3537 4.91235 37.4154 4.91235C41.4173 4.91235 44.4636 7.95861 44.4636 11.9606C44.5233 16.082 41.4771 19.0088 37.4154 19.0088ZM40.2227 11.9606C40.2825 11.6022 40.163 11.1243 40.0435 10.7659C39.7449 9.57133 38.7295 8.79483 37.5946 8.7351C36.4 8.61564 35.4443 9.21295 34.9067 10.4076C34.4289 11.423 34.4289 12.4981 34.9067 13.5733C35.2054 14.4095 35.8027 14.9471 36.6389 15.1263C38.6697 15.6041 40.163 14.2303 40.2227 11.9606Z" fill="#494949"/>
<path d="M26.1218 4.91235C27.3164 4.97208 28.5707 5.09155 29.7653 5.80831C30.8405 6.46535 31.1391 7.71969 30.4224 8.67538C29.9445 9.33241 29.168 9.57133 28.2123 9.33241C27.7345 9.21295 27.2567 9.03376 26.7788 8.9143C24.6285 8.43645 22.8366 9.92972 23.0158 12.1995C23.1352 13.4538 23.4936 14.529 24.748 15.0665C25.5245 15.3652 26.301 15.2457 27.0177 15.0665C27.5553 14.9471 28.0929 14.7679 28.6305 14.6484C29.4667 14.529 30.1834 14.8874 30.5418 15.6638C30.8405 16.3209 30.6613 17.1571 30.1237 17.6947C29.4667 18.3517 28.6902 18.5906 27.854 18.8296C24.3896 19.7853 20.985 18.3517 19.4917 15.3055C17.8192 11.9008 18.9541 7.89888 22.0601 5.86804C23.0755 5.21101 24.3896 4.91235 26.1218 4.91235Z" fill="#494949"/>
<path d="M3.30758 15.9626C0.141867 13.6331 -1.11247 9.7506 1.15729 6.34596C2.71028 4.0762 4.86058 2.76213 7.30953 1.80644C11.6699 0.0742566 16.2094 -0.284127 20.8086 0.193717C23.8549 0.49237 26.722 1.3286 29.3501 2.76213C30.0669 3.18024 30.7836 3.53863 31.4407 4.13593C31.0225 4.25539 30.7836 3.89701 30.5447 3.71782C28.5736 2.64267 26.483 1.98563 24.273 1.50779C21.5851 0.970214 18.8375 0.850753 16.0899 1.08967C12.088 1.50779 8.26522 2.52321 5.03977 5.09162C2.9492 6.76407 1.5754 8.85464 1.81432 11.7217C1.93378 13.0358 2.41163 14.1707 3.00893 15.3055C3.18812 15.6042 3.30758 15.7237 3.30758 15.9626ZM31.7393 4.37485V4.43459L31.6796 4.37485H31.7393Z" fill="#B0B0B0"/>
</svg>
