<svg width="87" height="60" viewBox="0 0 87 60" fill="none" xmlns="http://www.w3.org/2000/svg">
<path d="M78.5215 31.0999H70.614C69.6841 31.0999 68.9275 30.3433 68.9275 29.4134C68.9275 28.4834 69.6841 27.7268 70.614 27.7268H82.724V21.6995H70.614C66.3605 21.6995 62.9001 25.1599 62.9001 29.4134C62.9001 33.6669 66.3605 37.1273 70.614 37.1273H78.5215C79.36 37.1273 80.0421 37.8048 80.0421 38.6376C80.0421 39.4819 79.36 40.1687 78.5215 40.1687H61.7811C60.7008 42.5713 59.016 44.6452 56.9219 46.196H78.5215C82.6836 46.196 86.0695 42.8054 86.0695 38.6376C86.0695 34.4813 82.6836 31.0999 78.5215 31.0999Z" fill="#494949"/>
<path d="M41.6934 59.633H35.666V33.92C35.666 27.1968 41.1404 21.7271 47.8694 21.7271C54.5983 21.7271 60.0727 27.203 60.0727 33.9338C60.0727 40.6647 54.5998 46.1406 47.8728 46.1406H41.6934V59.633ZM41.6934 40.1132H47.8728C51.2763 40.1132 54.0453 37.3412 54.0453 33.9338C54.0453 30.5265 51.2747 27.7544 47.8693 27.7544C44.4639 27.7544 41.6934 30.5203 41.6934 33.92V40.1132Z" fill="#494949"/>
<path d="M16.2262 46.1406C9.50304 46.1406 4.03324 40.6656 4.03324 33.936C4.03324 27.2106 9.50917 21.7391 16.24 21.7391C19.4982 21.7391 22.55 23.0075 24.8555 25.3104C27.1635 27.616 28.4226 30.6835 28.4226 33.9476V36.9613H10.8519C11.9102 38.8412 13.9227 40.1132 16.2261 40.1132H32.5698V22.4735C32.5698 19.8471 30.4407 17.718 27.8143 17.718H4.75553C2.12909 17.718 0 19.8471 0 22.4735V45.5323C0 48.1587 2.12909 50.2878 4.75553 50.2878H27.8143C30.2345 50.2878 32.2309 48.4795 32.5297 46.1406H16.2262Z" fill="#858585"/>
<path d="M16.241 27.7664C13.9244 27.7664 11.9015 29.0458 10.8438 30.9338H21.6349C20.5762 29.0455 18.5551 27.7664 16.241 27.7664Z" fill="#858585"/>
<path d="M16.313 0C10.5198 0 5.80664 4.70896 5.80664 10.4971V13.2943C5.80664 13.5692 6.02943 13.792 6.30431 13.792H10.5622C10.837 13.792 11.0598 13.5692 11.0598 13.2943V10.4972C11.0598 7.60563 13.4164 5.25325 16.313 5.25325C19.2097 5.25325 21.5662 7.60984 21.5662 10.5065V13.2943C21.5662 13.5692 21.789 13.792 22.0639 13.792H26.3218C26.5966 13.792 26.8194 13.5692 26.8194 13.2943V10.5064C26.8194 4.71317 22.1063 0 16.313 0Z" fill="#858585"/>
</svg>
