<svg width="115" height="20" viewBox="0 0 115 20" fill="none" xmlns="http://www.w3.org/2000/svg">
<path d="M0.0604932 7.46168C0.18148 7.40119 0.18148 7.2802 0.18148 7.15921C0.423453 6.00984 1.39134 5.58639 2.23825 5.58639C4.29502 5.52589 6.47278 5.52589 8.52955 5.58639C9.8604 5.58639 10.6468 6.3728 10.7073 7.70365C10.8283 9.63943 10.8283 11.5752 10.7073 13.511C10.6468 14.9024 9.8604 15.6283 8.46906 15.6888C6.41228 15.7493 4.23453 15.7493 2.17776 15.6888C1.08888 15.6888 0.423453 15.0838 0.120987 14.1159C0.0604934 13.995 0.120986 13.9345 0 13.874C0.0604932 11.6962 0.0604932 9.51845 0.0604932 7.46168Z" fill="#494949"/>
<path d="M35.4331 19.4386V17.2608C35.4331 16.8979 35.554 16.8374 35.8565 16.8374H40.2725C40.575 16.8374 40.8775 16.7769 41.0589 16.5349C41.2404 16.2929 41.1799 15.9905 41.1799 15.7485C41.1194 15.567 40.817 15.6275 40.696 15.6275C39.7281 15.6275 38.7602 15.6275 37.8528 15.567C36.5824 15.5065 35.554 14.5386 35.554 13.2683V5.76711C35.554 5.52514 35.675 5.46464 35.917 5.46464H37.7318C38.0343 5.46464 38.0948 5.58563 38.0948 5.88809V12.0584C38.0948 12.9658 38.2157 13.0868 39.1231 13.0868H40.454C40.9984 13.0868 41.2404 12.7843 41.2404 12.3004V5.94859C41.2404 5.58563 41.3614 5.46464 41.6639 5.52513C42.2083 5.58563 42.8132 5.52513 43.3577 5.52513C43.5997 5.52513 43.7206 5.58563 43.7206 5.88809V16.8374C43.7206 18.1077 43.1762 19.1361 41.8453 19.4991C39.6071 19.4386 37.5503 19.4386 35.4331 19.4386ZM14.9863 19.4386V15.809V8.42881C14.9863 8.06585 14.9863 7.70289 15.1073 7.33993C15.3493 6.13007 16.1357 5.52513 17.3456 5.52513H20.8542C22.3665 5.52513 23.1529 6.37204 23.2134 7.82388C23.2739 9.69917 23.2739 11.5745 23.2134 13.4497C23.2134 14.5386 22.2455 15.567 21.0961 15.6275C20.0678 15.688 19.0394 15.688 17.9505 15.6275C17.5875 15.6275 17.527 15.7485 17.527 16.051V19.4386H14.9863ZM20.6727 10.6066V8.79177C20.6727 8.30783 20.5517 8.12634 20.0073 8.12634H18.253C17.7085 8.12634 17.4666 8.36832 17.4666 8.91276V12.3004C17.4666 12.8448 17.7085 13.0868 18.3135 13.0868H19.8863C20.3702 13.0868 20.6122 12.8448 20.6122 12.3609C20.6727 11.7559 20.6727 11.151 20.6727 10.6066ZM114.8 13.5707C114.679 13.6312 114.679 13.7522 114.679 13.8732C114.377 14.9621 113.59 15.567 112.502 15.6275C111.231 15.7485 109.9 15.7485 108.63 15.6275C107.481 15.5065 106.634 14.6596 106.573 13.3893C106.452 11.5745 106.452 9.69917 106.573 7.82388C106.694 6.19056 107.662 5.46464 109.416 5.46464H113.772C114.135 5.46464 114.195 5.40415 114.195 5.04119C114.135 4.31527 114.195 3.52886 114.195 2.80294C114.195 2.13751 114.195 2.13751 114.8 2.13751V13.5707ZM114.195 9.75966V6.43253C114.195 6.25105 114.256 6.06957 113.893 6.06957C112.381 6.06957 110.747 6.00908 109.235 6.06957C107.844 6.13007 107.118 6.97697 107.118 8.36832V13.0263C107.118 14.2967 107.662 14.9016 108.932 15.0831C109.961 15.2041 110.989 15.2041 112.018 15.0831C113.469 14.9621 114.135 14.1757 114.135 12.7843C114.195 11.6954 114.195 10.7276 114.195 9.75966ZM28.5973 5.52513C29.5047 5.58563 30.5331 5.40415 31.622 5.64612C32.7109 5.8276 33.3158 6.43253 33.3763 7.52141C33.4973 8.85226 33.4368 10.1831 33.4368 11.514C33.4368 12.2399 33.4973 13.0263 33.3763 13.7522C33.2553 14.9016 32.4084 15.6275 31.3195 15.688C29.9282 15.7485 28.5973 15.809 27.206 15.688C26.0566 15.567 25.3307 15.0226 25.2097 13.8127C25.0887 12.8448 25.0887 11.8164 25.2097 10.8485C25.3307 9.63868 26.1171 9.03374 27.327 8.97325C28.3553 8.91276 29.4442 8.97325 30.4726 8.97325C30.5936 8.97325 30.8961 9.09424 30.8961 8.79177C30.8961 8.5498 30.8356 8.30782 30.5936 8.24733C30.4726 8.18684 30.2306 8.18684 30.1097 8.18684H25.6331C25.2702 8.18684 25.2097 8.12634 25.2097 7.76339C25.2702 7.15845 25.2097 6.55352 25.2097 5.94859C25.2097 5.64612 25.3307 5.58563 25.5727 5.58563C26.4801 5.52513 27.4479 5.52513 28.5973 5.52513ZM29.3232 13.0868H29.8677C30.8961 13.0868 30.9566 13.0263 30.9566 11.9979C30.9566 11.4535 30.8356 11.3325 30.2911 11.3325H28.8998C27.7504 11.3325 27.6899 11.3325 27.7504 12.4819C27.7504 12.9053 27.9319 13.1473 28.4158 13.1473C28.6578 13.0868 28.9603 13.0868 29.3232 13.0868ZM63.26 10.6066V13.2078C63.26 14.7201 62.3526 15.6275 60.9007 15.688C59.6909 15.7485 58.481 15.688 57.2106 15.6275C55.8193 15.567 55.1539 14.9016 55.0329 13.5102C54.9724 12.6633 54.9724 11.7559 55.0329 10.909C55.1539 9.69917 55.8798 8.91276 57.0897 8.91276C58.1785 8.85226 59.2069 8.91276 60.2958 8.91276C60.4168 8.91276 60.7192 9.03374 60.7192 8.73128C60.7192 8.4893 60.6588 8.24733 60.4168 8.18684C60.2958 8.12635 60.0538 8.12634 59.9328 8.12634H55.4563C55.1539 8.12634 55.0329 8.00536 55.0329 7.70289V5.8276C55.0329 5.58563 55.0934 5.46464 55.3353 5.46464H60.9007C62.4131 5.52514 63.1995 6.37204 63.26 7.88437V10.6066ZM59.1464 11.272H58.5415C57.5736 11.272 57.5131 11.3325 57.5131 12.3004C57.5131 12.8448 57.6946 13.0263 58.239 13.0263H59.5699C60.7192 13.0263 60.7797 12.9053 60.7192 11.8164C60.7192 11.393 60.4773 11.2115 60.1143 11.151C59.8119 11.272 59.4489 11.272 59.1464 11.272ZM71.0031 10.6066V7.88437C71.0636 6.49303 71.6685 5.70661 72.9994 5.58563C74.4512 5.46464 75.8426 5.46464 77.2339 5.58563C78.4438 5.70661 79.1092 6.43253 79.1697 7.6424C79.2302 8.30782 79.1697 9.09424 79.1697 9.75966C79.1697 10.0016 78.9882 10.0621 78.8067 10.1226C77.1734 10.788 75.5401 11.393 73.9068 12.0584C73.7253 12.1794 73.4228 12.1794 73.4833 12.4819C73.6043 12.7843 73.6648 13.0868 74.1488 13.0868H78.6858C79.0487 13.0868 79.1092 13.2078 79.1092 13.5102C79.0487 14.1152 79.1092 14.7201 79.1092 15.325C79.1092 15.567 79.0487 15.688 78.8067 15.688C76.9314 15.6275 75.0562 15.7485 73.1809 15.6275C71.971 15.567 71.1241 14.7201 71.0636 13.5707C71.0031 13.0868 71.0031 12.6028 71.0031 12.0584V10.6066ZM75.1771 8.12634H74.8142C73.6043 8.12634 73.4833 8.24733 73.4833 9.4572C73.4833 9.75966 73.6043 9.75966 73.8463 9.63868C74.6327 9.33621 75.4796 9.03374 76.266 8.67078C76.387 8.61029 76.6895 8.61029 76.629 8.36832C76.5685 8.12634 76.387 8.00536 76.2055 8.00536C75.8426 8.12634 75.5401 8.12634 75.1771 8.12634ZM48.5601 15.688H45.9589C45.5959 15.688 45.5354 15.567 45.5354 15.2645C45.5354 14.6596 45.5959 14.1152 45.5354 13.5102C45.5354 13.1473 45.6564 13.0868 45.9589 13.0868H49.891C50.4354 13.0868 50.6169 12.9053 50.6169 12.4214C50.5564 12.0584 50.4354 11.8164 50.0119 11.8164H48.0157C46.8663 11.8769 45.354 10.8485 45.4749 9.27572C45.5354 8.79177 45.4749 8.24733 45.4749 7.76339C45.4749 6.31155 46.1404 5.52514 47.5922 5.46464C49.3465 5.40415 51.0403 5.46464 52.8551 5.40415C53.0366 5.40415 53.0971 5.52513 53.0971 5.64612V7.70289C53.0971 8.00536 52.9761 8.00536 52.7341 8.00536H48.4391C48.0762 8.06585 47.8947 8.18684 47.8947 8.5498C47.8947 8.97325 48.0157 9.15473 48.4391 9.15473H50.4959C52.1897 9.15473 53.0971 10.0621 53.0971 11.7559V13.0263C53.1576 13.9337 52.6736 14.5386 52.1292 15.1436C51.8267 15.3855 51.4638 15.567 51.1613 15.567C50.3749 15.6275 49.4675 15.6275 48.5601 15.688C48.5601 15.688 48.5601 15.6275 48.5601 15.688ZM69.4908 2.98442V3.95231C69.4908 4.13379 69.4303 4.19428 69.2488 4.19428H68.5834C67.9179 4.19428 67.555 4.67823 67.7365 5.34365C67.797 5.52513 67.8575 5.46464 67.9784 5.46464H69.1883C69.3698 5.46464 69.4908 5.52513 69.4908 5.70661V7.76339C69.4908 7.94486 69.4303 8.06585 69.1883 8.06585H68.0994C67.7365 8.00536 67.676 8.18684 67.676 8.4893V15.1436C67.676 15.567 67.555 15.6275 67.192 15.6275C66.6476 15.567 66.0427 15.6275 65.4982 15.6275C65.2562 15.6275 65.1353 15.567 65.1353 15.325V4.0128C65.1353 2.80294 66.1032 1.83505 67.3735 1.71406C67.9784 1.65357 68.5834 1.71406 69.1278 1.65356C69.3093 1.65356 69.3698 1.77455 69.3698 1.89554C69.4908 2.37948 69.4908 2.68195 69.4908 2.98442Z" fill="#606060"/>
<path d="M10.4095 5.52538C9.98605 5.2834 9.68359 5.04143 9.19964 4.98094C9.01816 4.92044 9.01816 4.67847 9.01816 4.55749C8.11076 1.83529 4.72314 1.04888 2.66637 3.04515C2.24292 3.46861 1.94045 4.01305 1.69848 4.55749C1.63799 4.73897 1.57749 4.92044 1.27503 4.98094C0.851574 5.10192 0.609601 5.2834 0.246642 5.52538C-0.116318 4.13403 0.851574 2.01677 2.24292 0.988382C3.93673 -0.221484 6.17498 -0.342471 7.92928 0.746408C9.68359 1.77479 10.712 3.83157 10.4095 5.52538Z" fill="#494949"/>
<path d="M98.4015 10.8496C98.4015 11.757 98.462 12.6039 98.4015 13.5113C98.341 14.6607 97.4941 15.5681 96.3447 15.6286C95.0139 15.7496 93.7435 15.7496 92.4127 15.6286C91.3843 15.5076 90.4769 14.7212 90.3559 13.6323C90.2349 12.6644 90.2349 11.636 90.4164 10.6681C90.5979 9.70024 91.3238 9.03481 92.2917 8.91383C93.0781 8.79284 93.925 8.85334 94.7114 8.85334H97.4941C97.7966 8.85334 97.9176 8.73235 97.9176 8.42988V7.88544C97.7966 6.91755 97.3126 6.01015 95.8608 6.01015H90.7189C90.4164 6.01015 90.3559 5.88916 90.3559 5.5867C90.3559 5.40522 90.4769 5.34473 90.5979 5.34473C92.4127 5.34473 94.2275 5.34473 96.0423 5.40522C97.4941 5.46571 98.341 6.31262 98.462 7.70396C98.5225 8.85333 98.462 9.82123 98.4015 10.8496ZM97.8571 11.5755V9.76074C97.8571 9.51876 97.7966 9.39778 97.5546 9.39778H92.7756C91.5658 9.39778 90.9003 10.1237 90.9003 11.3336V13.0879C90.9608 14.1767 91.5658 14.8422 92.6547 14.9027C93.8645 14.9632 95.0744 14.9632 96.3447 14.9027C97.2521 14.8422 97.7361 14.2977 97.8571 13.3903C97.9176 12.8459 97.8571 12.1805 97.8571 11.5755ZM82.1288 10.3657V12.8459C82.1288 14.2372 82.7942 14.9632 84.1856 15.0237C85.335 15.0841 86.4843 15.0236 87.6337 15.0841C87.8152 15.0841 88.0572 15.0236 88.0572 15.3866C88.0572 15.6891 87.9362 15.7496 87.6942 15.6891C86.4843 15.6286 85.214 15.7496 83.9436 15.6286C82.4313 15.5076 81.5844 14.6002 81.5239 13.1484C81.4634 11.3336 81.4634 9.51876 81.5239 7.70396C81.5239 6.4941 82.3708 5.64719 83.5807 5.52621C84.972 5.40522 86.3633 5.46571 87.7547 5.46571C88.0572 5.46571 87.9967 5.64719 87.9967 5.82867C87.9967 6.07065 87.8757 6.07065 87.6942 6.07065H84.4881C84.1856 6.07065 83.8831 6.07065 83.6412 6.13114C82.6733 6.25213 82.1288 6.79656 82.1288 7.82495V10.3657ZM101.426 11.5755C101.426 10.3657 101.366 9.1558 101.426 7.88544C101.547 6.31262 102.213 5.5867 103.785 5.46571H104.451C104.693 5.46571 104.814 5.5867 104.814 5.76818C104.814 6.01015 104.693 6.07065 104.511 6.07065C104.209 6.07065 103.846 6.07065 103.543 6.13114C102.636 6.25213 102.152 6.79656 102.031 7.70396C101.91 8.36939 101.971 8.97432 101.971 9.63975V15.2051C101.971 15.3866 102.031 15.6286 101.668 15.6286C101.305 15.6286 101.305 15.4471 101.305 15.2051C101.426 14.0558 101.426 12.7854 101.426 11.5755Z" fill="#606060"/>
</svg>
