<svg width="123" height="31" viewBox="0 0 123 31" fill="none" xmlns="http://www.w3.org/2000/svg">
<g clip-path="url(#clip0)">
<path fill-rule="evenodd" clip-rule="evenodd" d="M34.0519 21.5983C35.0345 19.5972 35.587 17.3421 35.587 14.9564C35.587 6.69621 28.9634 0 20.7926 0C12.6218 0 5.99813 6.69621 5.99813 14.9564C5.99813 15.1697 6.00254 15.3821 6.01129 15.5933C3.7017 17.7256 1.15964 20.5923 0.101227 21.8081C0.0512069 21.866 0.0180938 21.9369 0.00558629 22.0127C-0.0069212 22.0886 0.0016695 22.1665 0.0303988 22.2377C0.0591281 22.3088 0.106864 22.3705 0.168276 22.4159C0.229686 22.4613 0.302354 22.4885 0.37816 22.4944C3.92697 22.7799 5.65905 21.9365 6.78094 20.5656C7.26157 19.9782 7.53986 19.0496 7.84468 18.0323C8.25141 16.6749 8.70544 15.1597 9.7505 14.0866L15.4707 9.42878C15.5731 9.35406 15.6641 9.28475 15.7421 9.22161C16.1133 8.92167 16.5591 8.41358 17.0713 7.82964L17.0714 7.82957C17.9158 6.86703 18.941 5.69841 20.1113 4.91623C20.8676 4.32443 21.8712 3.96244 22.9721 3.96244C23.5827 3.96022 24.1882 4.07473 24.7567 4.29992C25.0197 4.38617 25.2679 4.51284 25.4927 4.67549C25.4949 4.67658 25.497 4.67806 25.4988 4.67986C26.0306 5.01177 26.4744 5.46989 26.7915 6.01446C27.4162 6.09106 28.8449 6.20749 28.8449 6.20749C28.924 6.21681 28.9977 6.25287 29.0541 6.30984C29.1104 6.3668 29.1461 6.44132 29.1553 6.52134C29.2631 7.43264 29.151 10.3523 24.8822 11.6019C22.8903 12.1845 21.7201 14.0887 21.0209 16.4524C20.9986 16.5285 20.969 16.6661 20.9363 16.8323C20.9367 16.9729 20.9495 17.1695 21.0555 17.4695C21.1386 17.7049 21.2102 17.8769 21.2712 18.0049L21.2725 17.9977C22.4404 19.6893 23.6308 20.9916 24.827 21.9181C26.3754 22.9275 28.527 23.9693 29.8361 23.3076C30.4346 23.0051 31.2972 21.9013 31.0253 20.9393C29.4484 17.958 26.7385 15.9339 24.7758 15.0528C24.7417 15.0302 24.7156 14.9972 24.7012 14.9585C24.6867 14.92 24.6847 14.8778 24.6954 14.838C24.7061 14.7982 24.729 14.7628 24.7608 14.7369C24.7926 14.711 24.8316 14.696 24.8724 14.6939C26.7708 14.5945 28.5536 14.8458 29.5883 15.0208C29.9075 15.0755 30.211 15.2004 30.4772 15.3868L30.8733 15.6643C30.8912 15.677 30.9129 15.6832 30.9347 15.6819C30.9566 15.6806 30.9773 15.6718 30.9936 15.657C31.0099 15.6423 31.0208 15.6224 31.0245 15.6006C31.0282 15.5788 31.0245 15.5563 31.014 15.5369C30.7337 15.0108 30.6487 14.4007 30.7741 13.8167C31.0045 12.747 31.3015 11.6189 31.5612 10.6896C31.5744 10.6424 31.6008 10.6 31.6373 10.5676C31.6738 10.5352 31.7188 10.5142 31.7669 10.5072C31.815 10.5002 31.864 10.5073 31.9081 10.5279C31.9522 10.5485 31.9895 10.5816 32.0154 10.6231C33.3896 12.8305 34.1166 15.3865 34.1121 17.9947C34.1122 18.6265 34.07 19.2574 33.9857 19.8832C33.9855 19.9661 33.9848 20.0351 33.9841 20.0965C33.9818 20.3078 33.9805 20.4278 34.0096 20.7069C34.041 21.008 34.069 21.3512 34.0519 21.5983ZM23.5411 7.73174C23.5283 7.73427 23.5245 7.73427 23.5283 7.73202C23.5488 7.72935 23.5542 7.72907 23.5411 7.73174ZM12.6034 27.2604C12.5567 25.6801 12.4803 23.0959 14.4652 21.5656L18.3085 19.1944C18.9867 19.5372 17.7646 24.3946 17.2914 26.0496C16.7702 27.8734 15.0496 29.7174 13.7794 30.36C13.5828 30.4595 13.3826 30.5557 13.1831 30.6517C13.0949 30.694 13.0069 30.7364 12.9194 30.7788C12.3644 31.0484 12.1552 30.8192 12.2104 30.5647C12.2104 30.5647 12.6139 29.2912 12.6156 27.8532C12.6158 27.6785 12.6099 27.479 12.6034 27.2604Z" fill="url(#paint0_linear)"/>
<path d="M45.4834 7.04026C45.4834 6.74764 45.5934 6.496 45.8134 6.28531C46.0449 6.07463 46.3228 5.96929 46.647 5.96929H54.5141C54.5141 6.67156 54.3925 7.18654 54.1494 7.51429C53.9179 7.83031 53.5358 7.98833 53.0032 7.98833H47.8105V10.9554H52.4301C52.4301 11.6577 52.3085 12.1727 52.0654 12.5004C51.8338 12.8165 51.4518 12.9745 50.9192 12.9745H47.8105V16.7492C47.8105 17.3344 47.6253 17.7617 47.2548 18.0308C46.8843 18.2884 46.2939 18.4171 45.4834 18.4171V7.04026ZM57.8703 18.4171C56.9094 18.4171 56.18 18.142 55.6821 17.5919C55.1958 17.0301 54.9527 16.322 54.9527 15.4675V7.1456C54.9527 6.66571 55.1264 6.32628 55.4737 6.1273C55.8326 5.91662 56.3826 5.81128 57.1235 5.81128V15.3798C57.1235 15.7777 57.2104 16.0703 57.384 16.2576C57.5577 16.4332 57.8356 16.5209 58.2176 16.5209C58.646 16.5209 59.0744 16.4098 59.5028 16.1874C59.6186 16.2927 59.7054 16.4273 59.7633 16.5912C59.8327 16.7434 59.8675 16.9014 59.8675 17.0652C59.8675 17.4163 59.6938 17.7324 59.3465 18.0133C58.9991 18.2825 58.5071 18.4171 57.8703 18.4171ZM61.6777 8.49747C61.2609 8.49747 60.9136 8.37458 60.6357 8.12878C60.3694 7.87126 60.2363 7.54358 60.2363 7.1456C60.2363 6.75935 60.3694 6.44333 60.6357 6.19753C60.9136 5.94003 61.2609 5.81128 61.6777 5.81128C62.0945 5.81128 62.4361 5.94003 62.7024 6.19753C62.9802 6.44333 63.1192 6.75935 63.1192 7.1456C63.1192 7.54358 62.9802 7.87126 62.7024 8.12878C62.4361 8.37458 62.0945 8.49747 61.6777 8.49747ZM60.5836 10.657C60.5836 10.1771 60.763 9.83762 61.122 9.63867C61.4809 9.42799 62.0251 9.32264 62.7545 9.32264V17.0828C62.7545 17.551 62.575 17.8904 62.2161 18.1011C61.8571 18.3117 61.313 18.4171 60.5836 18.4171V10.657ZM64.0427 10.8325C64.0427 10.3994 64.2106 10.0425 64.5463 9.76157C64.8821 9.46893 65.38 9.32264 66.0399 9.32264V10.2707C65.8431 10.5399 65.733 10.6979 65.7099 10.7447L65.7794 10.815C66.1499 10.3234 66.5551 9.95469 66.9951 9.7089C67.4466 9.45137 68.0023 9.32264 68.6623 9.32264C69.2991 9.32264 69.8607 9.45727 70.347 9.72645C70.8443 9.98398 71.2327 10.3527 71.5105 10.8325C71.7884 11.3124 71.9273 11.8626 71.9273 12.4829V15.2569C71.9273 15.8889 71.771 16.4449 71.4584 16.9248C71.1569 17.4046 70.7402 17.7733 70.208 18.0308C69.6752 18.2884 69.0733 18.4171 68.4018 18.4171C67.9734 18.4171 67.5277 18.3293 67.0645 18.1537C66.613 17.9664 66.2309 17.7148 65.9183 17.3988L65.8489 17.4866C65.9299 17.6036 66.0572 17.7265 66.2309 17.8553V20.4537C66.2309 21.4369 65.5015 21.9284 64.0427 21.9284V10.8325ZM67.985 16.5209C68.5523 16.5209 68.9922 16.398 69.3048 16.1523C69.6176 15.9065 69.7739 15.5611 69.7739 15.1164V12.6233C69.7739 12.1669 69.6176 11.8215 69.3048 11.5875C69.0038 11.3417 68.5638 11.2188 67.985 11.2188C67.464 11.2188 67.0356 11.3475 66.6998 11.605C66.3641 11.8508 66.1962 12.161 66.1962 12.5355V15.2042C66.1962 15.567 66.3582 15.8772 66.6825 16.1347C67.0182 16.3922 67.4524 16.5209 67.985 16.5209ZM72.5303 10.8325C72.5303 10.3994 72.6977 10.0425 73.0339 9.76157C73.3695 9.46893 73.8675 9.32264 74.5275 9.32264V10.2707C74.3302 10.5399 74.2204 10.6979 74.1975 10.7447L74.267 10.815C74.6372 10.3234 75.0422 9.95469 75.4827 9.7089C75.9342 9.45137 76.4899 9.32264 77.1499 9.32264C77.7862 9.32264 78.3482 9.45727 78.8344 9.72645C79.3318 9.98398 79.7201 10.3527 79.998 10.8325C80.2759 11.3124 80.4148 11.8626 80.4148 12.4829V15.2569C80.4148 15.8889 80.2585 16.4449 79.9459 16.9248C79.6444 17.4046 79.2276 17.7733 78.6955 18.0308C78.1627 18.2884 77.5604 18.4171 76.8894 18.4171C76.4607 18.4171 76.0148 18.3293 75.5521 18.1537C75.1006 17.9664 74.7185 17.7148 74.4059 17.3988L74.3364 17.4866C74.417 17.6036 74.5448 17.7265 74.7185 17.8553V20.4537C74.7185 21.4369 73.9891 21.9284 72.5303 21.9284V10.8325ZM76.4726 16.5209C77.0394 16.5209 77.4798 16.398 77.7924 16.1523C78.105 15.9065 78.2613 15.5611 78.2613 15.1164V12.6233C78.2613 12.1669 78.105 11.8215 77.7924 11.5875C77.4909 11.3417 77.0512 11.2188 76.4726 11.2188C75.9515 11.2188 75.5229 11.3475 75.1874 11.605C74.8512 11.8508 74.6838 12.161 74.6838 12.5355V15.2042C74.6838 15.567 74.8456 15.8772 75.17 16.1347C75.5056 16.3922 75.9397 16.5209 76.4726 16.5209ZM84.803 18.4171C84.0854 18.4171 83.431 18.2766 82.8406 17.9957C82.2501 17.7031 81.7812 17.311 81.4339 16.8194C81.0865 16.3161 80.9129 15.7543 80.9129 15.134V12.7989C80.9129 12.1435 81.0928 11.5524 81.4512 11.0257C81.8104 10.499 82.2848 10.0834 82.8753 9.77912C83.4776 9.47483 84.1257 9.32264 84.8204 9.32264C85.5039 9.32264 86.1291 9.46893 86.696 9.76157C87.2753 10.0425 87.7324 10.4405 88.068 10.9554C88.4042 11.4587 88.5716 12.0381 88.5716 12.6936V13.6767C88.5716 13.9343 88.4736 14.1508 88.2764 14.3263C88.0916 14.5019 87.854 14.5897 87.5643 14.5897H83.0142V14.9759C83.0142 15.4793 83.165 15.8889 83.4658 16.2049C83.7673 16.5209 84.2188 16.679 84.8204 16.679C85.3997 16.679 85.8277 16.5502 86.1055 16.2927C86.3952 16.0352 86.5397 15.7016 86.5397 15.292C86.7481 15.2686 86.8933 15.2569 86.9739 15.2569C87.4025 15.2569 87.738 15.3564 87.9811 15.5553C88.2243 15.7426 88.3458 16.0118 88.3458 16.3629C88.3458 16.7023 88.1895 17.0301 87.8769 17.3461C87.5643 17.6621 87.1364 17.9197 86.5918 18.1186C86.0479 18.3176 85.4518 18.4171 84.803 18.4171ZM86.6092 13.0271V12.6936C86.6092 12.202 86.4417 11.804 86.1055 11.4997C85.77 11.1954 85.3358 11.0432 84.803 11.0432C84.2709 11.0432 83.8367 11.1954 83.5005 11.4997C83.1768 11.7923 83.0142 12.1902 83.0142 12.6936V13.0271H86.6092ZM93.5781 11.2188C92.8945 11.2188 92.3388 11.4061 91.9109 11.7806C91.4823 12.1435 91.2683 12.5999 91.2683 13.15V17.0828C91.2683 17.551 91.0946 17.8904 90.7473 18.1011C90.4 18.3117 89.8553 18.4171 89.1148 18.4171V11.0081C89.1148 10.4697 89.2822 10.0542 89.6185 9.76157C89.9658 9.46893 90.4868 9.32264 91.1815 9.32264V10.3585C91.0078 10.5575 90.8689 10.7506 90.7647 10.9379L90.8689 11.0081C91.5983 9.88446 92.5124 9.32264 93.6128 9.32264C94.1102 9.32264 94.4867 9.45727 94.7416 9.72645C94.9959 9.98398 95.1237 10.3117 95.1237 10.7096C95.1237 11.0139 95.0424 11.2715 94.8806 11.4821C94.568 11.3066 94.1338 11.2188 93.5781 11.2188ZM95.4821 7.04026C95.4821 6.74764 95.5919 6.496 95.8121 6.28531C96.0434 6.07463 96.3213 5.96929 96.6457 5.96929H104.513C104.513 6.67156 104.391 7.18654 104.148 7.51429C103.916 7.83031 103.534 7.98833 103.002 7.98833H97.8093V10.9554H102.429C102.429 11.6577 102.307 12.1727 102.064 12.5004C101.832 12.8165 101.45 12.9745 100.918 12.9745H97.8093V16.7492C97.8093 17.3344 97.6238 17.7617 97.2536 18.0308C96.8826 18.2884 96.2921 18.4171 95.4821 18.4171V7.04026ZM107.869 18.4171C106.908 18.4171 106.179 18.142 105.681 17.5919C105.194 17.0301 104.951 16.322 104.951 15.4675V7.1456C104.951 6.66571 105.125 6.32628 105.472 6.1273C105.831 5.91662 106.381 5.81128 107.122 5.81128V15.3798C107.122 15.7777 107.209 16.0703 107.383 16.2576C107.556 16.4332 107.834 16.5209 108.216 16.5209C108.645 16.5209 109.073 16.4098 109.501 16.1874C109.617 16.2927 109.704 16.4273 109.762 16.5912C109.831 16.7434 109.866 16.9014 109.866 17.0652C109.866 17.4163 109.692 17.7324 109.345 18.0133C108.998 18.2825 108.506 18.4171 107.869 18.4171ZM111.676 8.49747C111.259 8.49747 110.912 8.37458 110.634 8.12878C110.368 7.87126 110.235 7.54358 110.235 7.1456C110.235 6.75935 110.368 6.44333 110.634 6.19753C110.912 5.94003 111.259 5.81128 111.676 5.81128C112.093 5.81128 112.435 5.94003 112.701 6.19753C112.979 6.44333 113.118 6.75935 113.118 7.1456C113.118 7.54358 112.979 7.87126 112.701 8.12878C112.435 8.37458 112.093 8.49747 111.676 8.49747ZM110.582 10.657C110.582 10.1771 110.761 9.83762 111.121 9.63867C111.48 9.42799 112.024 9.32264 112.753 9.32264V17.0828C112.753 17.551 112.574 17.8904 112.215 18.1011C111.855 18.3117 111.312 18.4171 110.582 18.4171V10.657ZM114.041 10.8325C114.041 10.3994 114.209 10.0425 114.545 9.76157C114.881 9.46893 115.378 9.32264 116.038 9.32264V10.2707C115.841 10.5399 115.732 10.6979 115.708 10.7447L115.778 10.815C116.149 10.3234 116.554 9.95469 116.993 9.7089C117.445 9.45137 118.001 9.32264 118.66 9.32264C119.297 9.32264 119.859 9.45727 120.345 9.72645C120.843 9.98398 121.231 10.3527 121.509 10.8325C121.786 11.3124 121.925 11.8626 121.925 12.4829V15.2569C121.925 15.8889 121.769 16.4449 121.456 16.9248C121.156 17.4046 120.739 17.7733 120.206 18.0308C119.674 18.2884 119.072 18.4171 118.4 18.4171C117.972 18.4171 117.526 18.3293 117.063 18.1537C116.611 17.9664 116.229 17.7148 115.917 17.3988L115.847 17.4866C115.928 17.6036 116.055 17.7265 116.229 17.8553V20.4537C116.229 21.4369 115.5 21.9284 114.041 21.9284V10.8325ZM117.983 16.5209C118.551 16.5209 118.99 16.398 119.303 16.1523C119.616 15.9065 119.772 15.5611 119.772 15.1164V12.6233C119.772 12.1669 119.616 11.8215 119.303 11.5875C119.002 11.3417 118.563 11.2188 117.983 11.2188C117.462 11.2188 117.034 11.3475 116.698 11.605C116.362 11.8508 116.194 12.161 116.194 12.5355V15.2042C116.194 15.567 116.357 15.8772 116.681 16.1347C117.017 16.3922 117.451 16.5209 117.983 16.5209Z" fill="white"/>
</g>
<defs>
<linearGradient id="paint0_linear" x1="25.0895" y1="8.9117" x2="-1.81819" y2="22.7252" gradientUnits="userSpaceOnUse">
<stop stop-color="#18EDFF"/>
<stop offset="1" stop-color="#00C1EC"/>
</linearGradient>
<clipPath id="clip0">
<rect width="122.956" height="30.9" fill="white"/>
</clipPath>
</defs>
</svg>
