<svg xmlns="http://www.w3.org/2000/svg" width="60" height="48" viewBox="0 0 60 48">
    <path fill="#FB7C52" fill-rule="evenodd" d="M19 31c-2.206 0-4-1.794-4-4s1.794-4 4-4 4 1.794 4 4-1.794 4-4 4zm0-9c-2.757 0-5 2.243-5 5s2.243 5 5 5 5-2.243 5-5-2.243-5-5-5zm2.009 4.571a.5.5 0 0 1 0 .858l-2.5 1.5a.497.497 0 0 1-.504.007.502.502 0 0 1-.254-.436v-3a.502.502 0 0 1 .758-.429l2.5 1.5zM19 16c-2.206 0-4-1.794-4-4s1.794-4 4-4 4 1.794 4 4-1.794 4-4 4zm0-9c-2.757 0-5 2.243-5 5s2.243 5 5 5 5-2.243 5-5-2.243-5-5-5zm2.009 4.571a.5.5 0 0 1 0 .858l-2.5 1.5a.497.497 0 0 1-.504.007.502.502 0 0 1-.254-.436v-3a.502.502 0 0 1 .758-.429l2.5 1.5zM41 23c2.206 0 4 1.794 4 4s-1.794 4-4 4-4-1.794-4-4 1.794-4 4-4zm0 9c2.757 0 5-2.243 5-5s-2.243-5-5-5-5 2.243-5 5 2.243 5 5 5zm-1.249-3.5v-3a.502.502 0 0 1 .758-.429l2.5 1.5a.5.5 0 0 1 0 .858l-2.5 1.5a.497.497 0 0 1-.504.007.502.502 0 0 1-.254-.436zM41 8c2.206 0 4 1.794 4 4s-1.794 4-4 4-4-1.794-4-4 1.794-4 4-4zm0 9c2.757 0 5-2.243 5-5s-2.243-5-5-5-5 2.243-5 5 2.243 5 5 5zm-1.249-3.5v-3a.502.502 0 0 1 .758-.429l2.5 1.5a.5.5 0 0 1 0 .858l-2.5 1.5a.497.497 0 0 1-.504.007.502.502 0 0 1-.254-.436zM8 37h44v-2H8v2zm0-3h21.5V20H8v14zm0-15h21.5V5H8v14zM8 3c0-.552.449-1 1-1h42a1 1 0 0 1 1 1v1H8V3zm22.5 16H52V5H30.5v14zm0 15H52V20H30.5v14zM7 39h46a1 1 0 0 0 1-1V3a3 3 0 0 0-3-3H9a3 3 0 0 0-3 3v35a1 1 0 0 0 1 1zm51 6a1 1 0 0 1-1 1H3c-.551 0-1-.448-1-1v-1h56v1zm1-3H1a1 1 0 0 0-1 1v2a3 3 0 0 0 3 3h54a3 3 0 0 0 3-3v-2a1 1 0 0 0-1-1z"/>
</svg>
