<svg width="99" height="17" viewBox="0 0 99 17" fill="none" xmlns="http://www.w3.org/2000/svg">
<path d="M82.306 16.1716H32.5242V16.0509L32.8862 14.0596C33.1276 12.8528 33.3689 11.5856 33.6103 10.3788C33.7913 9.29263 34.0327 8.20648 34.2137 7.12033C34.3948 6.2152 34.5758 5.24973 34.6965 4.34461C34.7568 4.16358 34.7568 3.98256 34.7568 3.74119L34.6965 3.68085H31.9811C31.9207 3.68085 31.8604 3.74119 31.8001 3.80153C31.619 4.70666 31.4984 5.55144 31.3173 6.39622C31.1363 7.30135 30.9553 8.26682 30.8346 9.1116C30.6536 10.1374 30.4725 11.1632 30.2312 12.189C30.0502 13.2148 29.8691 14.301 29.6278 15.3268C29.5674 15.5682 29.5071 15.8095 29.5071 16.0509H10.5598C10.5598 15.9906 10.4995 15.8699 10.4995 15.8699C10.1977 14.9648 9.89604 14.12 9.59433 13.2752C8.99091 11.646 8.44783 9.95639 7.90476 8.32716C7.66339 7.60306 7.42203 6.87896 7.18066 6.2152C7.18066 6.15486 7.18066 6.15486 7.12032 6.15486C7.05998 6.33588 7.05998 6.57725 6.99963 6.75828C6.81861 7.72374 6.63758 8.68921 6.5169 9.65468C6.33588 10.7408 6.15485 11.827 5.91348 12.9131C5.73246 13.9389 5.55143 14.9044 5.37041 15.9302C5.37041 15.9906 5.31007 16.1112 5.31007 16.1716H0V15.9906C0.0603417 15.9906 0.0603419 15.9302 0.0603419 15.9302C0.241367 15.0251 0.36205 14.1803 0.543075 13.2752C0.784442 12.0683 1.02581 10.8012 1.26718 9.59434C1.50854 8.14614 1.81025 6.75827 2.05162 5.37041L2.77572 1.38786C2.83606 0.965468 2.95674 0.543076 3.01708 0.120684H8.56852C8.56852 0.181026 8.62886 0.181024 8.62886 0.241366C8.80988 0.7241 8.99091 1.26718 9.17194 1.74991C10.0771 4.3446 11.0425 6.87896 12.008 9.47366C12.0683 9.65468 12.0683 9.77536 12.189 9.95639C12.189 9.89605 12.2494 9.89605 12.2494 9.8357C12.3097 9.47365 12.37 9.1116 12.4304 8.80989C12.6114 8.02545 12.7321 7.24101 12.8528 6.39622C13.0338 5.43076 13.2148 4.40495 13.3959 3.43948C13.5769 2.65504 13.6976 1.87059 13.8182 1.02581L13.9993 0.120684H45.739V0.301709C45.6786 0.784443 45.558 1.32752 45.4976 1.81025C45.3769 2.41367 45.2563 3.07743 45.1356 3.68085C45.1356 3.74119 45.0752 3.86187 44.9545 3.80153H40.1272C39.9462 3.80153 39.9462 3.80153 39.9462 3.92221C39.7652 4.70666 39.6445 5.55144 39.4635 6.39622C39.4031 6.57725 39.4031 6.57725 39.6445 6.57725H44.0494C44.1098 6.57725 44.2304 6.57725 44.2908 6.63759C44.2908 6.69793 44.2304 6.81862 44.2304 6.87896C44.0494 7.72374 43.9287 8.56853 43.7477 9.41331C43.6874 9.77536 43.8081 9.71502 43.3857 9.71502H38.9807C38.7997 9.71502 38.7997 9.71502 38.7997 9.89605C38.6187 10.6805 38.5583 11.4649 38.3773 12.3097C38.317 12.5511 38.317 12.5511 38.5583 12.5511H46.4027C46.4631 12.5511 46.5234 12.4907 46.5234 12.4304C46.5838 12.0683 46.6441 11.7063 46.7045 11.4046C46.8855 10.4391 47.0665 9.41331 47.2475 8.44785C47.4286 7.48238 47.6096 6.51691 47.7906 5.4911C47.9716 4.64631 48.0923 3.74119 48.2733 2.8964L48.6354 0.724101C48.6957 0.482734 48.7561 0.241367 48.7561 0H54.0661C54.1265 0.181025 54.0058 0.241366 54.0058 0.36205L53.2817 3.98255C53.1007 5.06871 52.9197 6.15486 52.6783 7.24101C52.4369 8.68921 52.1352 10.1374 51.8938 11.5856C51.8335 11.7666 51.8335 11.7666 52.0145 11.7666H55.3937C55.5143 11.7666 55.5143 11.7666 55.5747 11.646C55.6954 11.0425 55.7557 10.4995 55.8764 9.89605C56.0574 8.80989 56.2988 7.72374 56.4798 6.63759C56.6608 5.67212 56.8419 4.64631 57.0229 3.68085C57.2642 2.47401 57.5056 1.20684 57.747 0H63.057V0.181025C62.9967 0.663759 62.876 1.08615 62.8157 1.62923C62.6347 2.41367 62.5743 3.19811 62.3933 3.92221C62.2123 4.767 62.0916 5.61178 61.9106 6.45657C61.7295 7.30135 61.6089 8.08579 61.4278 8.99092C61.2468 9.89605 61.0658 10.8012 60.9451 11.7063C60.8848 11.8873 60.9451 11.8873 61.0658 11.8873H64.5052C64.6259 11.8873 64.6259 11.8873 64.6863 11.7666C64.7466 11.5856 64.7466 11.4046 64.7466 11.2236C64.9276 10.1978 65.1087 9.1116 65.35 8.08579C65.5311 7.30135 65.5914 6.51691 65.7724 5.73247C65.9535 4.82734 66.0741 3.98256 66.2552 3.13777C66.4362 2.35333 66.5569 1.56889 66.6776 0.784442C66.7379 0.543075 66.7982 0.301708 66.7982 0.0603408H76.996C76.996 0.241366 76.9356 0.301708 76.9356 0.482734C76.7546 1.50854 76.5736 2.47401 76.3926 3.49982C76.3322 3.74119 76.3322 3.74119 76.1512 3.74119H71.5652C71.3842 3.74119 71.3842 3.74119 71.3842 3.92221V3.98255C71.2032 4.767 71.0825 5.55144 70.9015 6.39622C70.8411 6.57725 70.8411 6.57725 71.0825 6.57725H75.6685C75.7891 6.57725 75.7891 6.57725 75.7288 6.69793C75.6081 7.42203 75.4874 8.08579 75.3667 8.80989L75.1857 9.71502C75.1857 9.77536 75.1254 9.8357 75.065 9.8357H70.4187C70.2377 9.8357 70.2377 9.8357 70.2377 10.0167C70.0567 10.7408 69.9963 11.4649 69.8153 12.2494C69.755 12.4304 69.755 12.4907 69.755 12.6718C69.8153 12.7321 69.8757 12.7321 69.936 12.7321H77.6597C77.8408 12.7321 77.8408 12.7321 77.8408 12.5511C77.9614 11.9477 78.0821 11.3442 78.2028 10.6805L78.9269 6.69793C79.1683 5.12905 79.5303 3.68085 79.7717 2.11196C79.8924 1.50854 80.0131 0.905125 80.1337 0.241366H87.6765C87.6161 0.301707 87.7368 0.301709 87.7368 0.301709C87.8575 0.301709 87.9782 0.36205 88.0988 0.36205C88.8833 0.422391 89.6677 0.603418 90.4522 0.905126C91.1763 1.14649 91.7797 1.56889 92.3228 2.11196C92.8658 2.65504 93.1072 3.37914 93.2279 4.16358C93.2882 4.52563 93.2882 4.88768 93.2882 5.18939C93.2279 5.85315 93.1675 6.45657 92.9262 7.05999C92.6848 7.6634 92.3228 8.20648 91.84 8.62887C91.1763 9.23229 90.3918 9.59434 89.547 9.77536C89.366 9.83571 89.1246 9.83571 88.9436 9.95639C88.9436 10.0167 89.004 10.0771 89.004 10.1374C89.6074 11.7063 90.2108 13.2752 90.7539 14.9044L91.297 16.3526H85.9869C85.8662 15.9906 85.7455 15.5682 85.6248 15.2061C85.0214 13.0942 84.3577 10.9219 83.7542 8.80989C83.7542 8.74955 83.7542 8.62887 83.6939 8.62887V8.68921C83.5732 9.23229 83.5129 9.77536 83.3922 10.3184C83.2112 11.2839 83.0301 12.3097 82.8491 13.2752C82.6681 14.0596 82.5474 14.9044 82.4267 15.6889C82.3664 15.6889 82.306 15.9302 82.306 16.1716ZM16.956 12.4907C17.0164 12.5511 17.0767 12.4907 17.137 12.4907H24.8608C25.0418 12.4907 25.0418 12.4907 25.0418 12.3097C25.2228 11.4649 25.3435 10.6805 25.5245 9.77536C25.7056 8.87024 25.8866 7.90477 26.0073 7.05999C26.1883 6.27554 26.309 5.43076 26.49 4.64632C26.5503 4.40495 26.5503 4.10324 26.671 3.86187C26.7314 3.68085 26.671 3.68085 26.5503 3.68085H18.8266C18.6456 3.68085 18.6456 3.68085 18.6456 3.86187C18.4646 4.64631 18.4042 5.43076 18.2232 6.27554C18.1628 6.51691 18.1628 6.51691 18.4042 6.51691H22.9902C23.0505 6.51691 23.1712 6.51691 23.2315 6.57725C23.1712 6.75828 23.1712 6.87896 23.1712 6.99964C22.9902 7.84443 22.8695 8.74955 22.6885 9.59434C22.6281 9.77536 22.6281 9.77536 22.5074 9.77536H17.8008C17.6198 9.77536 17.6198 9.77536 17.6198 9.95639V10.0167C17.4991 10.5598 17.4387 11.1029 17.3181 11.646C17.0767 11.827 17.0164 12.1287 16.956 12.4907ZM83.8749 7.60306C83.9353 7.6634 83.9353 7.6634 83.9956 7.6634H85.2628C85.7455 7.6634 86.2886 7.60306 86.711 7.42204C87.3144 7.18067 87.7368 6.81862 87.9178 6.2152C88.0988 5.85315 88.0988 5.43076 88.0385 5.00837C87.9782 4.40495 87.6161 3.98256 87.073 3.74119C86.892 3.68085 86.711 3.56016 86.53 3.56016C85.9265 3.43948 85.3231 3.43948 84.7197 3.43948C84.6594 3.43948 84.599 3.49982 84.599 3.49982C84.5387 3.74119 84.5387 3.98256 84.4783 4.22392C84.2973 5.18939 84.1163 6.2152 83.9353 7.18067C83.9353 7.24101 83.8749 7.42203 83.8749 7.60306ZM95.9433 16.1716C95.9433 16.1716 95.9433 16.1112 95.9433 16.1716C95.8829 16.1112 95.8226 16.1112 95.7622 16.1112C94.8571 15.7492 94.314 15.0854 94.133 14.12C93.952 12.7924 94.9174 11.5856 96.1846 11.4649C97.2104 11.3442 98.2966 11.8873 98.719 12.9131C98.7793 13.0338 98.7793 13.0942 98.8397 13.2148C98.8397 13.2752 98.9 13.2752 98.9 13.2148V14.4217C98.8397 14.482 98.8397 14.482 98.8397 14.5424C98.6586 15.1458 98.2966 15.6285 97.7535 15.9302C97.5725 16.0509 97.3915 16.1112 97.2104 16.1716C97.1501 16.1716 97.1501 16.1716 97.1501 16.2319C96.7277 16.1716 96.3657 16.1716 95.9433 16.1716ZM98.4776 13.8183C98.5379 12.7924 97.6932 11.827 96.5467 11.827C95.4605 11.827 94.5554 12.6718 94.5554 13.7579C94.5554 14.9044 95.5209 15.7492 96.4863 15.7492C97.6328 15.7492 98.5379 14.7837 98.4776 13.8183Z" fill="#929292"/>
<path d="M97.0139 13.8795C97.3759 14.1208 97.6173 14.6036 97.919 14.9656C97.738 15.026 97.6776 15.026 97.4966 15.026C97.4363 15.026 97.4363 14.9656 97.3759 14.9053C97.1949 14.6639 97.0742 14.4829 96.8932 14.2415C96.7122 14.0002 96.4708 13.8795 96.1691 14.0002C96.1087 14.0002 95.9881 13.9398 95.9881 14.0605C95.9277 14.1208 95.9881 14.1812 95.9881 14.2415C95.9881 14.4829 96.0484 14.7243 96.0484 15.026C96.0484 15.1467 96.0484 15.207 95.8674 15.207C95.6864 15.207 95.6864 15.207 95.626 15.026C95.626 14.7243 95.5657 14.4226 95.5657 14.1208C95.5053 13.7588 95.5053 13.3364 95.5053 12.9744C95.5053 12.914 95.445 12.7933 95.5053 12.733C95.5657 12.6726 95.6864 12.6726 95.7467 12.6726C96.1087 12.6123 96.5311 12.6123 96.8932 12.6123C97.4966 12.6123 97.6776 13.2761 97.4966 13.6381C97.4363 13.8191 97.2552 13.8795 97.1346 13.9398C97.1346 13.8795 97.0742 13.8795 97.0139 13.8795ZM96.1088 13.6985C96.3501 13.6381 96.5311 13.6381 96.7725 13.6381C96.8328 13.6381 96.9535 13.5778 97.0139 13.5778C97.1949 13.5174 97.2552 13.3967 97.1949 13.2157C97.1949 13.0347 97.0742 12.914 96.8932 12.8537C96.8329 12.7933 96.7122 12.7933 96.5915 12.7933C96.4105 12.8537 96.1691 12.8537 95.9881 12.8537C95.8674 12.8537 95.807 12.8537 95.8674 13.0347C95.9277 13.2157 95.8674 13.3967 95.9277 13.5778C95.9277 13.6985 95.9277 13.6985 96.1088 13.6985Z" fill="#929292"/>
</svg>
