<svg width="52" height="52" viewBox="0 0 52 52" fill="none" xmlns="http://www.w3.org/2000/svg">
<path d="M30.1932 51.6616C29.9766 51.6969 29.7592 51.7295 29.541 51.7592C29.7592 51.7295 29.9766 51.6969 30.1932 51.6616Z" fill="white"/>
<path d="M30.713 51.5728C30.6094 51.5918 30.5059 51.6093 30.4023 51.6271C30.5059 51.6093 30.6094 51.5918 30.713 51.5728Z" fill="white"/>
<path d="M28.9598 51.8313C28.7063 51.8599 28.4512 51.8853 28.1953 51.9067C28.4512 51.8853 28.7063 51.8599 28.9598 51.8313Z" fill="white"/>
<path d="M29.4584 51.7703C29.3366 51.7865 29.214 51.8016 29.0918 51.8159C29.214 51.8016 29.3366 51.7865 29.4584 51.7703Z" fill="white"/>
<path d="M31.421 51.4324C31.3298 51.4518 31.2381 51.4713 31.1465 51.4899C31.2381 51.4713 31.3298 51.4518 31.421 51.4324Z" fill="white"/>
<path d="M33.1765 50.9958C33.1027 51.0169 33.0289 51.0367 32.9551 51.0573C33.0289 51.0367 33.1027 51.0169 33.1765 50.9958Z" fill="white"/>
<path d="M32.6455 51.1411C32.5654 51.1621 32.4848 51.1836 32.4043 51.2038C32.4848 51.1836 32.5654 51.1625 32.6455 51.1411Z" fill="white"/>
<path d="M31.9516 51.3149C31.8667 51.3348 31.781 51.3534 31.6953 51.3725C31.781 51.3534 31.8667 51.3348 31.9516 51.3149Z" fill="white"/>
<path d="M28.1864 51.9075C28.0495 51.919 27.9127 51.9293 27.7754 51.9384C27.9127 51.9293 28.0495 51.919 28.1864 51.9075Z" fill="white"/>
<path d="M52 26C52 11.6428 40.3572 0 26 0C11.6428 0 0 11.6428 0 26C0 40.3572 11.6428 52 26 52C26.1527 52 26.3047 51.9968 26.457 51.994V31.7542H20.8711V25.2442H26.457V20.4537C26.457 14.8979 29.8487 11.8741 34.8046 11.8741C37.1778 11.8741 39.2178 12.051 39.8125 12.13V17.9365H36.3951C33.6989 17.9365 33.1768 19.2179 33.1768 21.098V25.2442H39.6237L38.7834 31.7542H33.1768V50.9955C44.0444 47.88 52 37.8677 52 26Z" fill="white"/>
<path d="M27.7172 51.9421C27.4467 51.9596 27.1749 51.9735 26.9023 51.9826C27.1749 51.9735 27.4467 51.9596 27.7172 51.9421Z" fill="white"/>
<path d="M26.8887 51.9834C26.7451 51.9882 26.601 51.9917 26.457 51.9941C26.601 51.9917 26.7451 51.9882 26.8887 51.9834Z" fill="white"/>
</svg>
