<svg width="82" height="38" viewBox="0 0 82 38" fill="none" xmlns="http://www.w3.org/2000/svg">
<path d="M6.35417 18.5695C6.35417 23.1708 0 25.8548 0 29.0319C0 32.209 7.34016 37.139 14.4064 37.139C25.088 37.139 29.1415 30.0179 29.1415 30.0179C29.1415 30.0179 24.2116 34.6192 15.5568 34.6192C10.0242 34.6192 7.61405 32.209 7.61405 29.5249C7.61405 24.4854 15.8854 22.0752 15.8854 18.5695C15.8854 18.5528 15.8839 18.5364 15.8836 18.5198H6.35307C6.35324 18.5364 6.35417 18.5528 6.35417 18.5695Z" fill="#858585"/>
<path d="M7.55927 7.2306C7.55927 2.9032 14.2969 2.35542 15.5568 2.35542C16.8166 2.35542 23.2256 2.51976 28.9772 6.95672C28.9772 6.95672 24.8689 0 14.2421 0C7.2306 0 0 4.76563 0 7.88793C0 11.4355 6.30739 13.9502 6.35307 18.5198H15.8836C15.8053 15.0415 7.55927 12.6823 7.55927 7.2306Z" fill="#858585"/>
<path d="M16.9262 18.5149C16.9262 14.6827 1.33071 11.4542 0.0317709 7.52759C0.0115581 7.6498 0 7.77025 0 7.88813C0 11.4487 6.35417 13.9684 6.35417 18.5697C6.35417 23.171 0 25.8551 0 29.0321C0 29.3006 0.0536273 29.5818 0.15387 29.8713C1.84402 24.6232 16.9262 22.7875 16.9262 18.5149Z" fill="#494949"/>
<path fill-rule="evenodd" clip-rule="evenodd" d="M63.8845 16.6498C63.7175 16.5633 63.5269 16.5133 63.3142 16.4631C63.2108 16.4386 63.1122 16.4676 62.9997 16.4434C62.9017 16.4224 62.7143 16.4225 62.6162 16.4434C62.5212 16.4434 62.4261 16.4434 62.3312 16.4434C62.2424 16.4625 62.1343 16.4419 62.0361 16.4631C61.8429 16.5049 61.6293 16.5099 61.4561 16.5614C61.3665 16.5879 61.2651 16.5888 61.2005 16.64C61.1972 16.64 61.194 16.64 61.1906 16.64C61.1906 16.3287 61.1906 16.0173 61.1906 15.706C61.1906 15.5528 61.2098 15.3599 61.1808 15.2243C61.1808 15.1588 61.1808 15.0932 61.1808 15.0277C61.1644 14.9359 61.148 14.8442 61.1317 14.7524C61.084 14.6049 60.9871 14.4542 60.8662 14.3788C60.726 14.2914 60.6236 14.3587 60.4434 14.3198C60.17 14.2609 59.8014 14.3138 59.6569 14.1331C59.6536 14.1331 59.6504 14.1331 59.6471 14.1331C59.6471 16.8004 59.6471 19.4685 59.6471 22.1358C60.2057 22.1512 60.8242 22.1354 61.053 21.7917C61.2292 21.527 61.1906 21.0325 61.1906 20.5923C61.1906 19.7338 61.1906 18.875 61.1906 18.0165C61.2579 18.0067 61.3118 17.9759 61.3676 17.9575C61.4758 17.9313 61.5839 17.9051 61.6921 17.8789C62.1748 17.7561 62.9913 17.8588 63.1569 18.1738C63.2442 18.3399 63.2293 18.5755 63.2749 18.7833C63.2749 18.8259 63.2749 18.8685 63.2749 18.9112C63.3043 19.0465 63.2618 19.2124 63.2945 19.3634C63.3226 19.4927 63.3043 19.6784 63.3043 19.8255C63.3043 20.1204 63.3043 20.4154 63.3043 20.7103C63.3043 21.1944 63.2883 21.5615 63.4912 21.8409C63.5445 21.9143 63.628 21.9588 63.7074 22.008C64.0249 22.2048 64.3692 22.1515 64.8282 22.1457C64.8372 22.1351 64.8274 22.1448 64.838 22.1359C64.838 21.1627 64.838 20.1892 64.838 19.2159C64.838 18.5649 64.8791 17.9675 64.6906 17.5053C64.5121 17.0673 64.2911 16.8608 63.8845 16.6498ZM39.0306 16.1878C39.0307 15.6504 39.1032 14.9459 38.8832 14.6148C38.7903 14.475 38.6332 14.4414 38.4408 14.3985C38.3646 14.3815 38.2592 14.4026 38.1951 14.3886C38.1131 14.3854 38.0312 14.3821 37.9493 14.3788C37.7632 14.3373 37.6315 14.2991 37.497 14.2215C37.497 15.0505 37.497 15.8798 37.497 16.7088C37.4338 16.6877 37.3798 16.6365 37.3201 16.6105C37.1985 16.5576 37.0552 16.536 36.917 16.5024C36.8242 16.4799 36.7414 16.5049 36.6418 16.4827C36.5628 16.4652 36.442 16.4729 36.3468 16.4729C35.9601 16.473 35.618 16.516 35.3342 16.6204C34.1768 17.0462 33.5634 17.8135 33.5842 19.4124C33.5866 19.6017 33.5952 19.8251 33.6333 19.9925C33.6582 20.1015 33.6458 20.1926 33.6727 20.2973C33.7468 20.5857 33.818 20.8842 33.9578 21.1133C34.2526 21.5964 34.6554 21.8658 35.2457 22.0571C35.4016 22.1076 35.5747 22.1166 35.7373 22.1553C35.7897 22.1586 35.8421 22.1619 35.8946 22.1652C36.072 22.2055 36.5626 22.2366 36.7597 22.1947C36.8449 22.1947 36.9302 22.1947 37.0154 22.1947C37.2029 22.1528 37.4198 22.1669 37.5954 22.1259C37.7168 22.0975 37.824 22.1089 37.9395 22.0767C38.3202 21.9704 38.675 21.8526 38.8833 21.5754C38.9244 21.5207 38.9956 21.4775 39.021 21.4082C39.055 21.3532 39.0308 21.0652 39.0308 20.9757C39.0308 20.5922 39.0308 20.2088 39.0308 19.8254C39.0306 18.613 39.0306 17.4002 39.0306 16.1878ZM37.497 20.7103C37.4085 20.7299 37.32 20.7496 37.2315 20.7692C37.1231 20.7951 37.009 20.7863 36.9071 20.8085C36.793 20.8335 36.5451 20.8211 36.445 20.7987C36.3697 20.7889 36.2942 20.7791 36.2189 20.7692C36.0337 20.7184 35.8441 20.665 35.6978 20.5726C35.6578 20.5474 35.6264 20.5018 35.5896 20.4742C35.559 20.4513 35.5236 20.4353 35.5012 20.4054C35.3755 20.2381 35.2701 20.0441 35.2062 19.8155C35.1715 19.6913 35.1415 19.4625 35.1669 19.3338C35.1966 19.1832 35.1623 19.0375 35.1964 18.9012C35.3126 18.436 35.5029 18.0839 35.9042 17.9082C36.158 17.7973 36.6378 17.7072 37.0152 17.7903C37.1734 17.8251 37.3347 17.8689 37.4871 17.8886C37.4871 17.8919 37.4871 17.8952 37.4871 17.8984C37.4904 17.8984 37.4937 17.8984 37.497 17.8984C37.497 18.8356 37.497 19.7731 37.497 20.7103ZM67.3845 14.4772C67.2962 14.4484 67.1891 14.4462 67.0798 14.4477C67.0242 14.4815 66.8874 14.4794 66.8241 14.5067C66.6265 14.5918 66.4556 14.7698 66.3719 14.9688C66.3401 15.0441 66.3531 15.1112 66.3325 15.2048C66.3137 15.2899 66.3314 15.3978 66.3521 15.4702C66.4364 15.7635 66.5783 15.9201 66.8438 16.0306C66.9292 16.0661 67.0881 16.1198 67.2272 16.0896C67.5714 16.0148 67.7932 15.8599 67.9154 15.5685C68.1285 15.0604 67.738 14.5923 67.3845 14.4772ZM67.7581 16.758C67.6883 16.6513 67.5667 16.5558 67.4237 16.5221C67.3255 16.5221 67.2271 16.5221 67.1288 16.5221C66.8627 16.4646 66.5125 16.5115 66.3718 16.3353C66.3685 16.3353 66.3653 16.3353 66.3619 16.3353C66.3619 18.2686 66.3619 20.2025 66.3619 22.1358C66.8564 22.1368 67.4998 22.1239 67.7089 21.8606C67.9438 21.5646 67.9055 21.1205 67.9055 20.5923C67.9055 19.7371 67.9055 18.8816 67.9055 18.0263C67.9055 17.5663 67.9421 17.0397 67.7581 16.758ZM28.8256 16.4336C28.1885 16.4915 27.5513 16.4918 27.1445 16.7776C27.0734 16.8276 26.9899 16.917 26.9577 17.0038C26.9201 17.1047 26.938 17.2672 26.938 17.397C26.938 17.6625 26.938 17.9279 26.938 18.1934C26.938 19.5074 26.938 20.8217 26.938 22.1358C27.4367 22.1371 28.065 22.141 28.2849 21.8507C28.4972 21.5704 28.4717 21.2662 28.4717 20.7889C28.4717 20.3792 28.4717 19.9695 28.4717 19.5599C28.4717 19.1929 28.4717 18.8258 28.4717 18.4588C28.4717 18.3517 28.4932 18.0922 28.452 18.0262C28.4518 17.9976 28.4516 17.9727 28.4619 17.9574C28.556 17.8848 28.8228 17.9019 28.9633 17.869C29.6063 17.7181 30.3519 17.7984 30.556 18.2819C30.6368 18.4734 30.5953 18.8324 30.5953 19.0881C30.5953 19.6714 30.5953 20.2548 30.5953 20.8381C30.5953 21.2186 30.5839 21.5674 30.733 21.7917C30.9623 22.1368 31.5461 22.1416 32.129 22.1358C32.129 21.1626 32.129 20.1891 32.129 19.2158C32.129 18.6193 32.1599 17.9959 31.9816 17.5838C31.5715 16.6363 30.244 16.3044 28.8256 16.4336ZM58.1724 18.6849C58.1462 18.5277 58.1199 18.3703 58.0938 18.213C58.0371 18.0118 57.9767 17.8141 57.8971 17.633C57.6254 17.015 57.0814 16.7197 56.3831 16.5221C56.2225 16.4958 56.0619 16.4696 55.9013 16.4434C55.8227 16.4401 55.744 16.4368 55.6653 16.4336C55.5184 16.4007 55.1797 16.3909 55.0263 16.4237C54.894 16.4521 54.7492 16.4182 54.633 16.4434C54.5347 16.4499 54.4364 16.4565 54.3381 16.463C54.0541 16.5292 53.7484 16.5364 53.5024 16.64C53.3376 16.7094 53.1697 16.8039 53.0305 16.9054C52.9223 16.9844 52.8655 17.1365 52.7552 17.2102C52.7552 18.7995 52.7552 20.3892 52.7552 21.9785C52.7552 22.2864 52.7552 22.5946 52.7552 22.9026C52.7552 23.0528 52.7367 23.2419 52.7651 23.3745C52.7651 23.4269 52.7651 23.4793 52.7651 23.5317C52.798 23.6819 52.8127 23.8402 52.8831 23.9545C52.9471 24.0585 53.0607 24.171 53.1878 24.2101C53.2787 24.2381 53.3994 24.1977 53.5024 24.2199C53.7886 24.2819 54.1084 24.2271 54.2791 24.3969C54.2823 24.3969 54.2856 24.3969 54.289 24.3969C54.289 23.6039 54.289 22.8107 54.289 22.0177C54.4115 22.0284 54.5429 22.0765 54.6626 22.1062C54.7412 22.1127 54.8198 22.1192 54.8985 22.1258C55.1064 22.1729 55.5381 22.1828 55.7538 22.1357C55.8357 22.1291 55.9177 22.1225 55.9996 22.116C56.1964 22.0681 56.4022 22.0413 56.5797 21.9686C57.3182 21.6659 57.7629 21.2645 58.0445 20.5037C58.1176 20.3062 58.1314 20.0856 58.1822 19.8646C58.1855 19.7859 58.1887 19.7073 58.192 19.6287C58.227 19.4725 58.2138 19.0384 58.1822 18.8913C58.179 18.8226 58.1757 18.7537 58.1724 18.6849ZM56.6092 19.5501C56.5764 19.6996 56.5829 19.8229 56.5404 19.9532C56.4066 20.3646 56.2159 20.5376 55.8522 20.72C55.6728 20.8101 55.3844 20.9194 55.0952 20.8577C55.0231 20.8544 54.951 20.8511 54.8789 20.8478C54.7391 20.8173 54.5813 20.8062 54.4562 20.7691C54.4027 20.7534 54.3467 20.7591 54.3087 20.7298C54.3022 20.7265 54.2956 20.7232 54.2891 20.72C54.2891 19.7861 54.2891 18.8519 54.2891 17.918C54.3808 17.8984 54.4726 17.8787 54.5643 17.8591C54.683 17.8318 54.808 17.8438 54.9183 17.8197C55.1518 17.7688 55.4296 17.8297 55.6064 17.8787C55.7254 17.9117 55.8266 17.9223 55.9309 17.9672C56.3455 18.1459 56.5098 18.5301 56.619 19.0191C56.6502 19.1581 56.6369 19.424 56.6092 19.5501ZM71.3072 16.4336C70.6701 16.4915 70.0329 16.4918 69.626 16.7776C69.5549 16.8276 69.4716 16.917 69.4393 17.0038C69.4016 17.1047 69.4196 17.2672 69.4196 17.397C69.4196 17.6625 69.4196 17.9279 69.4196 18.1934C69.4196 19.5074 69.4196 20.8217 69.4196 22.1358C69.9183 22.1371 70.5466 22.141 70.7666 21.8507C70.9789 21.5704 70.9533 21.2662 70.9533 20.7889C70.9533 20.3792 70.9533 19.9695 70.9533 19.5599C70.9533 19.1929 70.9533 18.8258 70.9533 18.4588C70.9533 18.3517 70.9748 18.0922 70.9337 18.0262C70.9334 17.9976 70.9332 17.9727 70.9435 17.9574C71.0377 17.8848 71.3045 17.9019 71.4449 17.869C72.0879 17.7181 72.8336 17.7984 73.0376 18.2819C73.1185 18.4734 73.077 18.8324 73.0769 19.0881C73.0769 19.6714 73.0769 20.2548 73.0769 20.8381C73.0769 21.2186 73.0655 21.5674 73.2146 21.7917C73.444 22.1368 74.0277 22.1416 74.6106 22.1358C74.6106 21.1626 74.6106 20.1891 74.6106 19.2158C74.6106 18.6193 74.6415 17.9959 74.4632 17.5838C74.0531 16.6363 72.7256 16.3044 71.3072 16.4336ZM81.2369 19.8451C81.2369 19.6353 81.2369 19.4256 81.2369 19.2159C81.2369 18.6461 81.2253 18.126 81.06 17.7215C80.6124 16.6256 79.5759 16.4135 78.0221 16.4336C77.9784 16.4603 77.8591 16.4434 77.7959 16.4434C77.6206 16.4434 77.4467 16.4339 77.3044 16.473C76.6778 16.6448 76.4296 17.0791 76.4884 17.869C76.6096 17.833 76.7309 17.7969 76.8521 17.7609C77.0111 17.7165 77.164 17.7308 77.3338 17.6921C77.8107 17.5836 78.6209 17.6057 79.0642 17.7216C79.3009 17.7835 79.501 17.8162 79.6246 17.987C79.6608 18.0371 79.7271 18.1177 79.7032 18.223C79.6049 18.6569 78.842 18.6654 78.2974 18.6654C78.1237 18.6687 77.95 18.672 77.7763 18.6752C77.5835 18.7172 77.382 18.7074 77.2061 18.7638C76.729 18.9165 76.3858 19.1626 76.2033 19.6093C76.1249 19.8008 76.115 20.0225 76.0656 20.2483C75.9979 20.5581 76.0902 21.0115 76.1738 21.2117C76.3581 21.654 76.6654 21.9068 77.1372 22.0573C77.5362 22.1846 78.1244 22.136 78.6316 22.136C79.1902 22.1359 79.7185 22.141 80.1161 21.9787C80.5292 21.8101 80.8645 21.4999 81.0403 21.0939C81.1204 20.9092 81.1576 20.6974 81.2075 20.4844C81.2322 20.3788 81.2027 20.2823 81.2272 20.1697C81.2462 20.0816 81.2369 19.9496 81.2369 19.8451ZM79.7328 19.9729C79.7096 20.2275 79.7182 20.5863 79.5656 20.7004C79.4788 20.7653 79.3678 20.8272 79.251 20.8577C79.1156 20.8931 78.922 20.8676 78.7693 20.8676C78.3027 20.8676 77.8267 20.8613 77.6485 20.5726C77.4955 20.3248 77.6535 20.0968 77.8353 20.0024C78.0233 19.9048 78.2543 19.9077 78.494 19.8549C78.6316 19.8516 78.7692 19.8484 78.9069 19.8451C79.2257 19.773 79.5734 19.6644 79.7327 19.4321C79.7735 19.4972 79.7405 19.8874 79.7328 19.9729ZM46.2568 18.5571C46.1893 18.2521 46.1313 17.9965 46.0208 17.7412C45.9273 17.5252 45.7759 17.3055 45.5981 17.1709C45.5652 17.1349 45.5325 17.0989 45.4997 17.0628C45.3728 16.9671 45.2449 16.8715 45.1064 16.7876C44.6853 16.5319 43.9356 16.4329 43.2483 16.4434C43.1766 16.4884 43.0231 16.4434 42.9336 16.4631C42.716 16.5109 42.4947 16.5162 42.2947 16.581C41.5243 16.8309 41.0205 17.2201 40.7118 17.928C40.5244 18.3577 40.4077 19.0674 40.5348 19.6485C40.5636 19.7804 40.5432 19.8945 40.5742 20.022C40.6641 20.3923 40.7223 20.7785 40.8986 21.0641C41.0922 21.3779 41.3925 21.6775 41.7442 21.8309C41.9295 21.9118 42.1368 21.9605 42.3439 22.0178C42.5267 22.0683 42.7252 22.0644 42.9141 22.1063C42.996 22.1095 43.0779 22.1127 43.1598 22.1161C43.2241 22.13 43.329 22.1093 43.4056 22.1259C43.4987 22.1461 43.6762 22.1455 43.7694 22.1259C43.8316 22.1259 43.8939 22.1259 43.9562 22.1259C44.084 22.1095 44.2118 22.0932 44.3396 22.0768C45.0645 21.8948 45.4578 21.7075 45.834 21.1722C45.9435 21.0164 46.0472 20.8471 46.119 20.6512C46.2088 20.4066 46.2158 20.1209 46.2763 19.8451C46.2763 19.7663 46.2763 19.6877 46.2763 19.6091C46.3143 19.4336 46.3015 18.9377 46.2665 18.7733C46.2633 18.7014 46.26 18.6292 46.2568 18.5571ZM43.8972 20.7299C43.758 20.7684 43.4369 20.7834 43.2778 20.7495C43.2384 20.7495 43.1991 20.7495 43.1598 20.7495C43.0355 20.7226 42.9038 20.7185 42.7862 20.6807C42.4255 20.5647 42.2244 20.3219 42.1079 19.963C42.0684 19.8415 42.0795 19.7247 42.0489 19.5894C42.0154 19.4414 42.0194 19.2526 42.0194 19.0683C42.0194 19.0094 42.0194 18.9504 42.0194 18.8914C42.0523 18.7443 42.0812 18.5893 42.1373 18.4588C42.27 18.1507 42.5326 17.9966 42.8649 17.8886C42.9828 17.8689 43.1009 17.8492 43.2188 17.8296C43.8176 17.8277 44.1407 17.8961 44.4379 18.1934C44.5262 18.2817 44.6106 18.3749 44.664 18.4981C44.7232 18.6348 44.7563 18.7866 44.7918 18.9406C44.7984 19.0717 44.8049 19.2027 44.8115 19.3338C44.8116 20.1589 44.5404 20.552 43.8972 20.7299ZM51.5067 16.4434C51.1168 16.4434 50.7267 16.4434 50.3368 16.4434C49.9557 16.4434 49.4881 16.4069 49.1767 16.4926C48.4022 16.7056 48.0057 17.0884 47.8003 17.869C47.7254 18.153 47.7511 18.519 47.7511 18.8619C47.7511 19.1765 47.7511 19.4912 47.7511 19.8057C47.7511 20.1662 47.7511 20.5268 47.7511 20.8871C47.7511 21.1593 47.7476 21.4165 47.8298 21.6049C48.0191 22.0384 48.5881 21.984 49.0194 22.1652C49.1144 22.2052 49.2079 22.227 49.275 22.293C49.2783 22.293 49.2816 22.293 49.2849 22.293C49.2849 21.3625 49.2849 20.4316 49.2849 19.5009C49.2849 19.0682 49.2507 18.4858 49.4226 18.2228C49.5371 18.0475 49.749 17.9554 49.9829 17.8984C50.089 17.8725 50.2139 17.8912 50.3172 17.8689C50.3991 17.8689 50.481 17.8689 50.563 17.8689C50.7637 17.8689 50.9431 17.861 51.0841 17.8001C51.4203 17.6545 51.431 17.3671 51.5166 16.9742C51.5552 16.7969 51.4922 16.5918 51.5067 16.4434ZM22.2582 20.0516C22.5412 19.976 22.8833 19.9532 23.2316 19.9532C23.4183 19.9565 23.6052 19.9598 23.7919 19.9631C24.0335 19.9107 24.2917 19.9515 24.5194 19.8942C24.7044 19.8477 24.9146 19.8171 25.0602 19.7271C25.4576 19.4815 25.5257 19.0663 25.5124 18.4392C25.5091 18.2831 25.4925 18.1094 25.4534 17.9673C25.2408 17.1944 24.889 16.822 24.1458 16.581C23.9851 16.529 23.8048 16.5208 23.6346 16.4827C23.5625 16.4794 23.4904 16.4762 23.4183 16.4729C23.2703 16.4407 23.013 16.4304 22.8579 16.4631C22.7399 16.4663 22.6219 16.4696 22.504 16.4729C22.2169 16.5351 21.9295 16.5384 21.6782 16.6302C20.9327 16.9026 20.54 17.3028 20.2919 18.0754C20.2141 18.3178 20.2235 18.5901 20.1641 18.8619C20.1641 18.9275 20.1641 18.993 20.1641 19.0586C20.1221 19.2526 20.1551 19.7194 20.1937 19.8942C20.1969 19.9467 20.2002 19.9991 20.2035 20.0516C20.2583 20.2877 20.2852 20.5305 20.3706 20.7397C20.6618 21.453 21.1084 21.811 21.865 22.0572C22.4784 22.2567 23.8224 22.3156 24.4703 22.1063C24.6407 22.0513 24.7933 21.9676 24.9226 21.8703C25.2047 21.658 25.2816 21.1164 25.2765 20.602C25.0859 20.6067 24.8857 20.641 24.7161 20.6807C24.5837 20.7117 24.4668 20.69 24.3327 20.7201C24.0254 20.789 23.6351 20.8086 23.2807 20.8085C22.8308 20.8085 22.4115 20.8105 22.1305 20.6414C22.0428 20.5887 21.9479 20.512 21.8945 20.4251C21.8748 20.3661 21.8552 20.3072 21.8355 20.2482C21.8362 20.0921 22.1255 20.087 22.2582 20.0516ZM21.7962 19.0881C21.7929 19.0881 21.7896 19.0881 21.7864 19.0881C21.6661 18.4917 21.8988 18.0232 22.2976 17.8493C22.3959 17.8165 22.4943 17.7837 22.5925 17.751C22.6487 17.7354 22.7237 17.7494 22.7695 17.7215C23.2615 17.7191 23.6429 17.8241 23.8804 18.0754C24.0499 18.2548 23.9348 18.5846 23.7821 18.6948C23.4171 18.9583 22.8501 18.8167 22.3467 18.9308C22.1543 18.9744 21.8999 18.964 21.7962 19.0881Z" fill="#494949"/>
</svg>
