<svg width="78" height="25" viewBox="0 0 78 25" fill="none" xmlns="http://www.w3.org/2000/svg">
<path d="M76.64 6.09267C77.3366 4.71489 77.6898 3.24649 77.6898 1.72827V1.01367H72.4169V1.72827C72.4169 3.11263 71.7383 4.44268 70.5061 5.47354C69.1382 6.61787 67.2907 7.2481 65.3039 7.2481C63.3171 7.2481 61.4696 6.61787 60.1017 5.47354C58.8695 4.44268 58.1909 3.11263 58.1909 1.72827V1.01367H52.918V1.72827C52.918 3.24649 53.2712 4.71489 53.9677 6.09267C54.6212 7.38531 55.5467 8.53772 56.7183 9.51783C56.9159 9.68316 57.1192 9.84162 57.3272 9.99409C57.1192 10.1466 56.9159 10.3051 56.7183 10.4704C55.5467 11.4506 54.6212 12.6029 53.9677 13.8956C53.2711 15.2734 52.918 16.7418 52.918 18.26V18.9746H58.1909V18.26C58.1909 16.8756 58.8695 15.5455 60.1017 14.5147C61.4696 13.3703 63.3171 12.7401 65.3039 12.7401C67.2907 12.7401 69.1382 13.3703 70.5061 14.5147C71.7383 15.5455 72.4169 16.8756 72.4169 18.26V18.9746H77.6898V18.26C77.6898 16.7418 77.3366 15.2734 76.64 13.8956C75.9865 12.6029 75.0611 11.4505 73.8895 10.4704C73.6919 10.3051 73.4885 10.1466 73.2806 9.99409C73.4885 9.84162 73.6919 9.6831 73.8895 9.51783C75.0611 8.53772 75.9865 7.38531 76.64 6.09267Z" fill="#494949"/>
<path d="M45.3094 2.99229C45.3094 4.37665 44.6309 5.7067 43.3987 6.73756C42.0308 7.88189 40.1833 8.51212 38.1965 8.51212C36.2097 8.51212 34.3622 7.88189 32.9943 6.73756C31.762 5.70675 31.0835 4.37665 31.0835 2.99229V1.01367H25.8105V2.99229C25.8105 4.51051 26.1637 5.97891 26.8603 7.35669C27.5138 8.64933 28.4393 9.80174 29.6109 10.7818C31.2818 12.1797 33.3353 13.124 35.56 13.5414V18.9746H40.8329V13.5414C43.0576 13.124 45.1111 12.1797 46.7821 10.7819C47.9537 9.80174 48.8791 8.64938 49.5326 7.35674C50.2292 5.97897 50.5824 4.51056 50.5824 2.99234V1.01367H45.3094V2.99229Z" fill="#494949"/>
<path d="M21.4618 3.85356C19.1469 1.9169 16.0977 0.850342 12.8762 0.850342C9.65462 0.850342 6.60548 1.9169 4.29055 3.85356C3.11896 4.83372 2.19356 5.98608 1.53999 7.27872C0.843412 8.65649 0.490234 10.1249 0.490234 11.6431V18.9746H5.76318V11.6431C5.76318 10.2587 6.44174 8.92871 7.67396 7.89785C9.04185 6.75351 10.8894 6.12328 12.8762 6.12328C14.863 6.12328 16.7105 6.75351 18.0784 7.89785C19.3106 8.92871 19.9892 10.2587 19.9892 11.6431V18.9746H25.2621V11.6431C25.2621 10.1249 24.9089 8.65649 24.2123 7.27872C23.5588 5.98608 22.6334 4.83372 21.4618 3.85356Z" fill="#494949"/>
<path d="M0.480469 24.7533V20.625H1.31403V24.7533H0.480469Z" fill="#494949"/>
<path d="M6.05469 24.757V20.6287H6.86573L8.55538 23.3855V20.6287H9.32979V24.757H8.49342L6.82915 22.0648V24.757H6.05469Z" fill="#494949"/>
<path d="M15.0804 24.757V21.3271H13.8555V20.6287H17.1361V21.3271H15.914V24.757H15.0804Z" fill="#494949"/>
<path d="M21.6133 24.757V20.6287H24.6743V21.3271H22.4468V22.2423H24.5194V22.9378H22.4468V24.0614H24.7532V24.757H21.6133Z" fill="#494949"/>
<path d="M29.4023 24.757V20.6287H31.1567C31.5979 20.6287 31.9185 20.6658 32.1184 20.7399C32.3184 20.8141 32.4784 20.9459 32.5986 21.1355C32.7187 21.3252 32.7788 21.542 32.7788 21.786C32.7788 22.0959 32.6877 22.3516 32.5056 22.5534C32.3235 22.7553 32.0513 22.8825 31.689 22.935C31.8692 23.0402 32.018 23.1557 32.1353 23.2814C32.2526 23.4072 32.4108 23.6306 32.6098 23.9516L33.1139 24.757H32.117L31.5144 23.8587C31.3004 23.5377 31.1539 23.3354 31.0751 23.2518C30.9962 23.1683 30.9127 23.1111 30.8244 23.08C30.7362 23.0491 30.5963 23.0336 30.4049 23.0336H30.2359V24.757H29.4023ZM30.2359 22.3746H30.8526C31.2524 22.3746 31.5021 22.3577 31.6017 22.3239C31.7011 22.2901 31.7791 22.232 31.8354 22.1493C31.8917 22.0667 31.9198 21.9634 31.9198 21.8395C31.9198 21.7006 31.8828 21.5884 31.8086 21.503C31.7344 21.4176 31.6298 21.3636 31.4947 21.3411C31.4271 21.3317 31.2243 21.327 30.8864 21.327H30.2359V22.3746H30.2359Z" fill="#494949"/>
<path d="M41.2265 24.757H40.3196L39.9592 23.8193H38.309L37.9682 24.757H37.084L38.692 20.6287H39.5734L41.2265 24.757ZM39.6917 23.1237L39.1229 21.5917L38.5653 23.1237H39.6917Z" fill="#494949"/>
<path d="M48.2489 23.239L49.0571 23.4953C48.9332 23.9459 48.7271 24.2805 48.4389 24.4992C48.1507 24.7179 47.7851 24.8273 47.3421 24.8273C46.7939 24.8273 46.3433 24.64 45.9904 24.2655C45.6374 23.8909 45.4609 23.3789 45.4609 22.7293C45.4609 22.0422 45.6383 21.5085 45.9932 21.1284C46.348 20.7482 46.8145 20.5581 47.3928 20.5581C47.8977 20.5581 48.3079 20.7074 48.6233 21.0059C48.811 21.1823 48.9518 21.4358 49.0457 21.7662L48.2206 21.9633C48.1718 21.7494 48.07 21.5803 47.915 21.4564C47.7602 21.3325 47.5719 21.2706 47.3505 21.2706C47.0445 21.2706 46.7961 21.3804 46.6056 21.6001C46.415 21.8197 46.3198 22.1755 46.3198 22.6673C46.3198 23.1893 46.4136 23.561 46.6014 23.7825C46.7891 24.004 47.0332 24.1148 47.3335 24.1148C47.555 24.1148 47.7456 24.0445 47.9052 23.9036C48.0648 23.7628 48.1794 23.5413 48.2489 23.239Z" fill="#494949"/>
<path d="M54.641 24.757V21.3271H53.416V20.6287H56.6967V21.3271H55.4746V24.757H54.641Z" fill="#494949"/>
<path d="M61.1484 24.757V20.6287H61.982V24.757H61.1484Z" fill="#494949"/>
<path d="M67.7666 24.757L66.291 20.6287H67.1949L68.2397 23.6841L69.2506 20.6287H70.1349L68.6565 24.757H67.7666Z" fill="#494949"/>
<path d="M74.498 24.757V20.6287H77.5591V21.3271H75.3316V22.2423H77.4042V22.9378H75.3316V24.0614H77.6379V24.757H74.498Z" fill="#494949"/>
</svg>
