<svg width="55" height="46" viewBox="0 0 55 46" fill="none" xmlns="http://www.w3.org/2000/svg">
<path d="M7.82617 38.5396L8.93427 38.5532V44.5316H15.1316L15.1179 45.6124H7.83984L7.82617 38.5396Z" fill="#494949"/>
<path d="M23.1738 38.5669H24.4871L27.1002 41.7544L29.6995 38.5669H31.0265L27.6474 42.972V45.6124H26.5529V42.972L23.1738 38.5669Z" fill="#494949"/>
<path d="M31.0963 39.5791C31.0963 38.9908 31.7256 38.5667 32.3412 38.553C33.8051 38.553 37.2115 38.5257 37.4441 38.5941C37.8955 38.7172 38.2786 39.1003 38.3744 39.5654C38.4291 39.7843 38.4017 40.2357 38.4017 40.2357H37.2662C37.2662 40.2357 37.2662 39.88 37.2662 39.7295C37.2662 39.6338 37.1158 39.6201 37.02 39.6201C35.4877 39.6201 33.9692 39.6201 32.4369 39.6201C32.3002 39.6064 32.177 39.7295 32.1906 39.8664C32.1906 40.3453 32.1906 40.8103 32.1906 41.2892C32.177 41.426 32.3001 41.5491 32.4369 41.5491C34.0239 41.5491 35.6245 41.5491 37.2114 41.5491C37.8545 41.5902 38.4017 42.1511 38.4017 42.794C38.4017 43.3139 38.4017 43.8337 38.4017 44.3536C38.388 44.8462 38.046 45.3113 37.5945 45.4891C37.3345 45.5986 33.8597 45.5986 32.3821 45.5986C31.8759 45.5849 31.3835 45.2839 31.1782 44.8051C31.0551 44.5178 31.0688 43.8885 31.0688 43.8885H32.177C32.177 43.8885 32.1085 44.3673 32.3137 44.5178C33.9007 44.5178 35.474 44.5178 37.0608 44.5178C37.1703 44.5178 37.2935 44.422 37.2798 44.3125C37.2798 43.9021 37.2798 43.4917 37.2798 43.0813C37.2798 42.9308 37.3071 42.7667 37.2114 42.6436C37.1156 42.6162 37.0198 42.6025 36.9104 42.6025C35.3918 42.6025 33.887 42.6025 32.3685 42.6025C31.7665 42.6025 31.0962 42.2468 31.0962 41.5765C31.1099 41.2891 31.0963 39.5791 31.0963 39.5791Z" fill="#494949"/>
<path d="M47.0605 38.553H48.4012L53.2578 44.162V38.553L54.3796 38.5667L54.3523 45.6122H53.08L48.1686 39.9895L48.155 45.6122H47.0605V38.553Z" fill="#494949"/>
<path d="M7.30544 39.783C7.29177 39.1127 6.66246 38.5654 6.01947 38.5654H0V45.5973H1.08081L1.10815 43.0527L5.96474 43.0663C6.66246 43.0663 7.30544 42.5328 7.30544 41.835V39.783ZM6.19735 41.8078C6.19735 41.9308 6.08788 42.013 5.96479 42.013C4.39153 42.013 1.25868 42.013 1.25868 42.013C1.17661 41.9856 1.09454 41.9173 1.10821 41.8078V39.8104C1.10821 39.6736 1.25868 39.6189 1.38182 39.6189C1.38182 39.6189 4.44627 39.6189 5.97852 39.6189C6.11533 39.6189 6.1974 39.7283 6.1974 39.8515C6.19735 40.5218 6.19735 41.1648 6.19735 41.8078Z" fill="#494949"/>
<path d="M23.0515 39.8253C23.0515 39.1413 22.5727 38.553 22.1076 38.553H16.991C16.3343 38.5667 15.7461 39.1276 15.7461 39.7843C15.7461 41.7269 15.7461 45.5985 15.7461 45.5985H16.8405V43.136H21.9433V45.065L21.9707 45.5985H23.0378L23.0515 44.2168C23.0515 44.2168 23.0379 41.2892 23.0515 39.8253ZM21.9434 42.0689H16.8406C16.8406 42.0689 16.8406 40.6051 16.8406 39.8663C16.8132 39.7295 16.9363 39.6064 17.0731 39.6201C18.619 39.6201 20.1649 39.6201 21.7108 39.6201C21.8476 39.6064 21.9434 39.7432 21.9297 39.8663C21.9434 40.6051 21.9434 42.0689 21.9434 42.0689Z" fill="#494949"/>
<path d="M46.3641 44.0801C46.3641 43.1772 46.3504 40.1812 46.3504 39.5793C46.3504 39.0184 45.6937 38.5669 45.1054 38.5532C43.6553 38.5532 40.6319 38.5532 40.3309 38.5532C39.77 38.5532 39.0449 39.2373 39.0449 39.7162C39.0449 40.3865 39.0449 43.4782 39.0449 44.3538C39.0586 45.0242 39.6742 45.585 40.3309 45.5988C41.9042 45.5988 43.4775 45.5988 45.0508 45.5988C45.5843 45.5988 46.1041 45.2431 46.282 44.7368C46.3777 44.5316 46.3641 44.2991 46.3641 44.0801ZM45.1328 44.5316C43.6142 44.5316 41.8768 44.5316 40.3036 44.5316C40.2215 44.5316 40.1531 44.4222 40.1667 44.3264C40.1667 42.8078 40.1667 39.7571 40.1667 39.7571C40.1941 39.675 40.1667 39.5656 40.4541 39.5656H45.0097C45.1465 39.5656 45.256 39.6203 45.256 39.7571C45.256 41.2209 45.256 42.8626 45.256 44.3264C45.2696 44.4222 45.2286 44.5316 45.1328 44.5316Z" fill="#494949"/>
<path d="M12.877 0L24.9872 5.51821L12.877 11.0662V0Z" fill="#494949"/>
<path d="M24.9863 5.51807L37.0668 11.0363L24.9863 16.5545V5.51807Z" fill="#494949"/>
<path d="M12.877 11.0662L24.9872 16.5546L12.877 22.043V11.0662Z" fill="#494949"/>
<path d="M48.9102 16.495L37.0684 22.0728V11.0364L48.9102 16.495Z" fill="#494949"/>
<path d="M37.0668 22.0729L24.9863 27.5911V16.5547L37.0668 22.0729Z" fill="#494949"/>
<path d="M24.9872 27.5911L12.877 33.0795V22.043L24.9872 27.5911Z" fill="#494949"/>
</svg>
