<svg width="95" height="17" viewBox="0 0 95 17" fill="none" xmlns="http://www.w3.org/2000/svg">
<path d="M77.8848 0.302979C78.1381 0.468348 78.3767 0.657536 78.5944 0.874341C79.4582 1.73434 79.8268 2.85832 79.697 4.22462H82.9107L78.2741 16.65H82.8638L87.5004 4.22462H93.4968L94.9502 0.302979H77.8848Z" fill="#858585"/>
<path d="M73.4825 0.302979H67.8148L61.7148 16.65H66.8288L69.0762 10.6366L70.5374 16.65H75.7995L74.7429 12.3018C74.4344 11.0953 73.8499 10.1832 73.4478 9.66142C75.6886 9.05142 77.6678 7.23376 78.2194 5.09151C79.2403 1.12681 75.9844 0.302979 73.4825 0.302979ZM73.5729 5.69007C73.1486 6.77703 72.0312 7.6509 71.085 7.6509H69.621L71.0844 3.72925H72.3553C73.1904 3.72925 74.2099 4.05826 73.5729 5.69007Z" fill="#858585"/>
<path d="M59.1359 0C55.3951 0 50.8865 2.92051 48.8217 8.49002C46.6754 14.2797 49.5629 16.98 52.8411 16.98C57.4797 16.98 61.009 14.2797 63.1554 8.48998C65.2201 2.92051 63.312 0 59.1359 0ZM58.3797 8.48998C57.0225 12.0926 55.6945 13.1272 54.2744 13.1272C53.0896 13.1272 52.3059 12.0926 53.6631 8.48998C54.9751 5.00769 56.6434 3.85283 57.7683 3.85283C59.2487 3.85283 59.6916 5.00769 58.3797 8.48998Z" fill="#858585"/>
<path d="M17.8055 7.09584C17.0606 6.7059 16.0831 6.48241 15.0442 6.17512C13.7183 5.78296 14.2793 4.2659 16.1662 4.2659C17.2007 4.2659 19.8446 4.2659 22.0223 4.2659C22.8289 3.16078 23.768 2.18846 24.8197 1.37895C25.348 0.972258 25.8979 0.612953 26.4618 0.302979H16.0838C13.1204 0.302979 10.2804 1.63691 9.14342 5.1001C8.43288 7.26464 8.93393 8.59737 10.1332 9.29254C10.8528 9.70963 12.0597 10.0457 13.1064 10.3478C14.2028 10.6644 14.2028 12.3981 12.0354 12.3981H1.6489L0 16.65H11.6719C14.7968 16.65 17.785 15.2415 18.9838 11.5897C19.7583 9.23053 19.1651 7.80755 17.8055 7.09584Z" fill="#858585"/>
<path d="M31.5129 0C27.7721 0 23.2635 2.92051 21.1987 8.49002C19.0524 14.2797 21.9399 16.98 25.2181 16.98C29.8566 16.98 33.386 14.2797 35.5324 8.48998C37.5971 2.92051 35.689 0 31.5129 0ZM30.7566 8.48998C29.3995 12.0926 28.0715 13.1272 26.6514 13.1272C25.4665 13.1272 24.6828 12.0926 26.0401 8.48998C27.3521 5.00769 29.0204 3.85283 30.1453 3.85283C31.6257 3.85283 32.0686 5.00769 30.7566 8.48998Z" fill="#858585"/>
<path d="M43.8372 0.302979C41.8554 0.302979 39.7096 1.62387 38.9781 3.23389C38.8281 3.56413 33.9238 16.65 33.9238 16.65H38.9088C38.9088 16.65 40.1423 13.3448 41.3178 10.2103H45.7892L46.9876 6.86657H42.5751C43.0436 5.6256 43.3743 4.75945 43.4069 4.69934C43.5447 4.44485 43.8793 4.22462 44.2003 4.22462H49.5934C50.3991 3.12458 51.3361 2.15618 52.3846 1.34902C52.8956 0.955746 53.4267 0.606348 53.9711 0.302979H43.8372Z" fill="#858585"/>
</svg>
