<svg width="88" height="28" viewBox="0 0 88 28" fill="none" xmlns="http://www.w3.org/2000/svg">
<path d="M11.3925 21.2956H4.09417C3.79749 21.2956 3.56015 21.2363 3.3228 21.1769C2.72945 20.9396 2.37343 20.5243 2.25476 19.9309C2.01742 18.9815 1.83941 18.0322 1.60207 17.1421C1.06804 14.828 0.534021 12.5733 0.0593349 10.2592C-9.06277e-07 10.0218 0 9.90315 0 9.6658C0.0593358 9.30979 0.237343 9.01311 0.534022 8.8351C0.830701 8.65709 1.18672 8.53842 1.48339 8.53842H4.56886C4.68753 8.53842 4.68753 8.47909 4.68753 8.41975V8.06374C4.68753 7.47038 4.62819 6.87702 4.74686 6.28366C4.86553 4.8596 5.34022 3.61355 6.23026 2.48617C7.2983 1.24012 8.54435 0.468754 10.1464 0.112739C12.2825 -0.243275 14.2406 0.231412 15.8427 1.71481C17.0294 2.78285 17.7414 4.08824 17.9787 5.6903C18.0381 6.04632 18.0381 6.40233 18.0381 6.75835V8.36042C18.0381 8.53842 18.0381 8.53842 18.2161 8.53842H20.8862C21.1829 8.53842 21.5389 8.59776 21.8356 8.65709C21.9542 8.71643 22.1322 8.77577 22.2509 8.8351C22.6663 9.13178 22.9036 9.54713 22.7849 10.0218C22.7256 10.5558 22.5476 11.0305 22.4883 11.5052L21.0642 17.9135C20.9455 18.5662 20.7675 19.2189 20.5895 19.8716C20.5302 20.1682 20.4115 20.4056 20.2928 20.5836C19.9962 20.9989 19.5215 21.2363 19.0468 21.2363H18.7501C16.1987 21.2956 13.8252 21.2956 11.3925 21.2956ZM11.3331 8.47909H15.4273C15.6053 8.47909 15.6053 8.47909 15.6053 8.30108V6.343C15.6053 6.04632 15.546 5.74964 15.4866 5.45296C15.012 3.25754 12.8759 1.77414 10.6211 2.18949C8.66302 2.48617 7.06096 4.20691 7.00162 6.22433C6.94229 6.93636 7.00162 7.58905 7.00162 8.30108C7.00162 8.47909 7.00162 8.47909 7.17963 8.47909H11.3331ZM11.3331 11.2085H8.66302C8.42568 11.2679 8.42568 11.2679 8.42568 11.5052V12.5733C8.42568 12.8106 8.48502 12.8106 8.66302 12.8106H9.96841C10.0871 12.8106 10.1464 12.8699 10.1464 12.9886V17.4981C10.1464 17.7355 10.2058 17.7948 10.4431 17.7948H11.9858C12.3418 17.7948 12.4012 17.7355 12.4012 17.3795V13.0479V12.9293C12.4012 12.8106 12.4605 12.6919 12.6385 12.6919H13.9439C14.1219 12.6919 14.1813 12.6326 14.1813 12.4546V11.2679C14.1813 11.1492 14.1219 11.0305 13.9439 11.0305C13.8252 10.9712 13.7659 10.9712 13.6472 10.9712C12.9945 11.2085 12.1638 11.2085 11.3331 11.2085Z" fill="#858585"/>
<path d="M30.6757 8.47854H35.4226C35.5412 8.47854 35.7192 8.47854 35.8379 8.53788C36.0753 8.59721 36.1939 8.71589 36.1939 8.95323V11.3267C36.1346 11.5047 36.0753 11.6233 35.8972 11.6233H33.2271C33.1678 11.6233 33.0491 11.6233 32.9898 11.6827C32.8711 11.742 32.8118 11.742 32.7525 11.92V20.7017C32.7525 20.8204 32.7525 20.9391 32.6931 20.9984C32.6338 21.1764 32.5744 21.2951 32.3964 21.3544C32.2778 21.4138 32.1591 21.4138 32.0404 21.4138H29.0736C28.955 21.4138 28.8363 21.4138 28.7769 21.3544C28.6583 21.2951 28.5396 21.2357 28.5396 21.0577C28.4803 20.9391 28.4803 20.8204 28.4803 20.7611V12.2167V11.9794C28.4803 11.8607 28.4209 11.742 28.2429 11.742H25.8102C25.6915 11.742 25.5728 11.742 25.5135 11.6827C25.3355 11.6233 25.2761 11.564 25.2168 11.386V11.1487V9.13124C25.2168 8.83456 25.2761 8.65655 25.7508 8.59722H26.0475C27.5902 8.47854 29.133 8.47854 30.6757 8.47854ZM54.054 15.7769V18.803C54.054 19.2777 53.9353 19.693 53.7573 20.1084C53.4013 20.8797 52.808 21.2357 51.9773 21.2951H47.4084C47.1117 21.2951 46.8744 21.2357 46.637 21.1764C45.747 20.9391 45.213 20.405 44.9756 19.4557C44.9163 19.159 44.857 18.803 44.857 18.5063V12.7507C44.857 12.5134 44.9163 12.3947 44.9756 12.2167C45.0943 11.9794 45.2723 11.8607 45.569 11.8607H48.0018C48.1204 11.8607 48.2984 11.92 48.3578 11.9794C48.6545 12.098 48.8325 12.3354 48.8325 12.6914V17.0822C48.8325 17.2602 48.8325 17.3789 48.8918 17.5569C48.9511 17.8536 49.1885 18.0316 49.4852 18.0316C49.8412 18.0909 50.0785 17.9129 50.1972 17.6163C50.2565 17.4976 50.2565 17.3196 50.2565 17.1416V12.8101C50.2565 12.6321 50.2565 12.454 50.3159 12.3354C50.3752 12.098 50.5532 11.9794 50.7312 11.92C50.7905 11.92 50.9092 11.8607 50.9686 11.8607H53.164C53.2827 11.8607 53.4013 11.8607 53.52 11.92C53.8167 11.9794 54.054 12.2167 54.054 12.5134V15.7769ZM82.5352 16.0735C82.6539 15.7175 82.8319 15.4208 82.8912 15.1242C83.2472 14.2935 83.5439 13.4628 83.8999 12.6321C84.0186 12.3947 84.1373 12.1574 84.3153 12.0387C84.434 11.92 84.612 11.8607 84.79 11.8607H86.9261C87.0447 11.8607 87.1634 11.8607 87.2821 11.92C87.5194 11.9794 87.5788 12.098 87.5194 12.276C87.4601 12.3354 87.4601 12.3947 87.4601 12.5134C85.858 16.3109 84.1966 20.1677 82.5946 23.9652C82.5352 24.2025 82.3572 24.3212 82.2385 24.4992C82.0605 24.6179 81.8825 24.7366 81.6452 24.7366H79.8058C79.6871 24.7366 79.5684 24.7366 79.4498 24.6772C79.2124 24.6179 79.0937 24.4992 79.1531 24.2619C79.2124 24.1432 79.2124 24.0839 79.2718 24.0245C79.6871 23.0752 80.0431 22.1258 80.4585 21.1764C80.5178 21.0577 80.5178 20.9984 80.4585 20.8797C79.3311 18.091 78.263 15.3615 77.0763 12.5727C77.017 12.454 77.017 12.3947 76.9576 12.276C76.8983 12.0387 77.017 11.92 77.2543 11.8607C77.373 11.8014 77.4917 11.8013 77.551 11.8013H80.3991C80.6365 11.8013 80.8145 11.92 80.9332 12.0387C81.1112 12.1574 81.1705 12.3354 81.2298 12.5727C81.5858 13.6408 82.0012 14.7681 82.3572 15.8362C82.4759 16.0142 82.5352 16.0735 82.5352 16.0735ZM60.759 11.564C61.3523 11.564 61.8863 11.6233 62.4797 11.6827C62.5984 11.742 62.7764 11.742 62.8951 11.8013C63.0137 11.8607 63.0731 11.92 63.1324 12.0387C63.1917 12.276 63.1917 12.5134 63.1324 12.7507C63.0731 13.0474 63.0137 13.4034 62.8951 13.7001C62.8357 13.8188 62.7764 13.9374 62.7764 13.9968C62.717 14.1154 62.5984 14.1748 62.4797 14.1154C62.2424 14.0561 62.005 14.0561 61.7083 13.9968C61.2337 13.9374 60.8183 13.8781 60.3436 13.8781C60.2249 13.8781 60.1656 13.9374 60.0469 13.9374C59.9876 13.9374 59.9283 13.9968 59.8689 13.9968C59.6909 14.1154 59.6909 14.2935 59.8096 14.4715C59.9283 14.5901 60.0469 14.6495 60.1656 14.7088C60.4623 14.8275 60.8183 15.0055 61.115 15.1835C61.5897 15.4208 62.0644 15.6582 62.4797 16.0142C63.0137 16.4295 63.3697 16.9636 63.5478 17.5569C63.7851 18.269 63.7258 18.981 63.4291 19.693C63.1324 20.405 62.5984 20.8797 61.8863 21.1764C61.4117 21.3544 60.937 21.4731 60.4623 21.4731C58.9789 21.5918 57.5548 21.4731 56.1308 21.1171C56.0121 21.0577 55.8934 21.0577 55.7748 20.9984C55.6561 20.9391 55.5968 20.8797 55.5374 20.7611C55.4187 20.2864 55.4187 19.8117 55.4781 19.337C55.4781 19.2183 55.4781 19.0403 55.5374 18.8623C55.5374 18.803 55.5968 18.7436 55.5968 18.625C55.6561 18.3876 55.7154 18.3876 55.9528 18.447L56.6648 18.625C57.4362 18.7436 58.2075 18.803 58.9789 18.7436C59.0976 18.7436 59.2162 18.6843 59.3349 18.625C59.5722 18.5063 59.6909 18.269 59.3942 18.0316C59.2756 17.9129 59.1569 17.9129 59.0382 17.7943C58.5635 17.5569 58.0889 17.4383 57.6735 17.1416C57.2582 16.9042 56.8428 16.6669 56.5461 16.3109C56.0714 15.8362 55.8341 15.2428 55.7748 14.5308C55.7154 13.5221 56.1308 12.7507 56.9615 12.2167C57.4955 11.8607 58.0295 11.6827 58.6822 11.564C59.2756 11.564 59.9876 11.5047 60.759 11.564ZM65.4465 16.9042V14.5901C65.4465 14.4715 65.4465 14.4715 65.3278 14.4715H64.8531C64.5565 14.4715 64.4971 14.3528 64.3785 14.1154C64.3191 14.0561 64.3191 13.9374 64.3191 13.8781V12.6321C64.3191 12.1574 64.4971 11.9794 64.9718 11.9794H65.5058C65.6245 11.9794 65.6245 11.9794 65.6245 11.8607V10.9113C65.5652 10.5553 65.8025 10.318 66.0992 10.1993C66.3365 10.0806 66.5739 10.0806 66.8112 10.0213C67.4639 9.9026 67.9979 9.78393 68.6506 9.7246H68.9473C69.1253 9.78393 69.1847 9.84327 69.1847 10.0213C69.1847 10.1399 69.244 10.2586 69.244 10.3773V11.92C69.244 12.0387 69.244 12.0387 69.3627 12.0387H70.312C70.5494 12.0387 70.7274 12.1574 70.8461 12.3947C70.9054 12.5134 70.9054 12.6914 70.9054 12.8101V14.2341C70.8461 14.5308 70.7867 14.5901 70.49 14.6495H69.5407C69.422 14.6495 69.422 14.6495 69.422 14.7681V18.3876C69.422 18.625 69.5407 18.803 69.778 18.8623C69.8967 18.9217 70.0747 18.9216 70.2527 18.9216C70.3714 18.9216 70.3714 18.981 70.4307 19.0403C70.49 19.159 70.49 19.2777 70.5494 19.337C70.6681 19.871 70.7867 20.4644 70.7867 21.0577V21.2951C70.7867 21.4138 70.7274 21.4731 70.6087 21.5324C70.1934 21.6511 69.7187 21.7698 69.3033 21.7698C68.8286 21.8291 68.4133 21.8291 67.9979 21.7698C67.3452 21.7104 66.8112 21.4731 66.3365 21.0577C65.9212 20.6424 65.6838 20.1084 65.6245 19.5743C65.5652 19.2777 65.5652 18.9216 65.5652 18.625C65.4465 17.8536 65.4465 17.3789 65.4465 16.9042ZM72.2701 14.8275V8.95323V8.71589C72.3295 8.47855 72.4481 8.35987 72.6855 8.30054H75.2962C75.4743 8.30054 75.5929 8.30054 75.7709 8.35987C76.0083 8.41921 76.0676 8.53788 76.0676 8.71589V20.8797C76.0083 21.1171 75.9489 21.2357 75.7116 21.2951C75.6523 21.2951 75.5929 21.3544 75.4743 21.3544H72.7448C72.3295 21.3544 72.2701 21.2357 72.2701 20.8204V16.4295V14.8275ZM36.8466 17.0822V14.0561C36.8466 13.8188 36.8466 13.5814 36.906 13.3441C37.0246 12.8101 37.3213 12.3947 37.8553 12.1574C38.2113 11.9794 38.5674 11.92 38.9234 11.8607C39.3387 11.8014 39.8134 11.8013 40.2288 11.8013H43.3736C43.6109 11.8013 43.7296 11.92 43.7296 12.1574V14.1154C43.7296 14.4121 43.6109 14.5308 43.2549 14.5901C42.8395 14.5901 42.4835 14.5901 42.0682 14.6495C41.7715 14.7088 41.5342 14.7681 41.3561 14.9462C40.9408 15.1835 40.7628 15.4802 40.7035 15.9549V20.4644C40.7035 20.5831 40.7035 20.7611 40.6441 20.8797C40.5848 21.1171 40.4068 21.2357 40.1694 21.2951H37.7367C37.618 21.2951 37.44 21.2951 37.3213 21.2357C37.0246 21.1764 36.8466 20.9391 36.8466 20.7017C36.7873 20.5831 36.7873 20.4644 36.7873 20.3457C36.8466 19.2183 36.8466 18.1503 36.8466 17.0822Z" fill="#606060"/>
<path d="M15.842 21.7703C17.2067 21.7703 18.4527 22.8383 18.4527 24.381C18.4527 25.8644 17.266 26.9918 15.842 26.9918C14.3586 26.9918 13.1719 25.8051 13.2312 24.3217C13.2312 22.957 14.4179 21.7703 15.842 21.7703ZM6.88226 21.7703C8.36566 21.7703 9.49304 22.957 9.49304 24.381C9.49304 25.8051 8.30632 27.0512 6.88226 27.0512C5.39886 27.0512 4.27148 25.8644 4.27148 24.4404C4.27148 23.0163 5.39886 21.7703 6.88226 21.7703Z" fill="#858585"/>
</svg>
