<svg width="97" height="94" viewBox="0 0 97 94" fill="none" xmlns="http://www.w3.org/2000/svg">
<path d="M89.9668 48.5295C89.9668 63.0857 81.8325 75.7458 69.8451 82.1982C64.463 85.1033 58.2858 86.7546 51.7417 86.7546C30.6414 86.7546 13.5166 69.6298 13.5166 48.5295C13.5166 27.4293 30.6414 10.3044 51.7417 10.3044C63.6068 10.3044 74.2181 15.7171 81.2209 24.2184C86.6947 30.8237 89.9668 39.2944 89.9668 48.5295Z" fill="#E29A39"/>
<path d="M51.7418 80.4552C34.1277 80.4552 19.7856 66.1132 19.7856 48.499C19.7856 30.8849 34.1277 16.5428 51.7418 16.5428C69.356 16.5428 83.698 30.8849 83.698 48.499C83.698 66.1132 69.356 80.4552 51.7418 80.4552ZM51.7418 18.4082C35.1368 18.4082 21.6204 31.9246 21.6204 48.5296C21.6204 65.1346 35.1368 78.651 51.7418 78.651C68.3468 78.651 81.8632 65.1346 81.8632 48.5296C81.8632 31.9246 68.3468 18.4082 51.7418 18.4082Z" fill="#AD5428"/>
<path d="M20.0603 31.4044C13.7608 43.1471 15.5038 60.272 23.1794 70.0882C30.5186 79.4457 45.1665 89.9347 69.2024 82.3202C69.4165 82.2591 69.6306 82.2591 69.8446 82.2285C64.4625 85.1336 58.2853 86.7849 51.7412 86.7849C30.641 86.7849 13.5161 69.6601 13.5161 48.5598C13.5161 27.4596 30.641 10.3347 51.7412 10.3347C63.6063 10.3347 74.2176 15.7474 81.2204 24.2487L81.0981 24.5545C81.0981 24.5545 70.6091 11.4662 51.5271 12.1084C36.6958 12.5671 23.8522 24.3404 20.0603 31.4044Z" fill="#F5BB45"/>
<path d="M83.4529 48.1931C85.5018 66.0519 69.2637 80.394 52.1083 80.394C34.9529 80.394 21.6812 65.318 21.6812 48.1931C21.6812 47.5815 21.7117 46.9699 21.7423 46.3889C23.0573 53.5446 26.5128 67.7338 43.3013 70.9753C65.2272 75.1648 80.7313 58.3151 75.0128 29.417C75.0128 29.3864 82.0768 36.4198 83.4529 48.1931Z" fill="#C9722C"/>
<path d="M31.1307 51.5266L30.6108 51.4348C30.7943 51.4348 30.9778 51.4654 31.1307 51.5266Z" fill="#C99BED"/>
<path d="M71.0683 17.9496C71.6493 17.919 72.2303 17.8578 72.8725 17.7967C77.2454 17.4297 82.7193 16.971 86.5724 19.0199L86.6641 19.081C86.8476 19.3257 87.0922 19.4786 87.184 19.4786L87.398 19.448C87.1534 19.0504 86.9087 18.6529 86.6947 18.2248C86.5112 17.6743 86.3277 17.1545 86.1442 16.604C85.655 15.2585 85.4103 13.9742 85.1045 12.5981L85.0128 12.1393C84.6458 10.3657 84.2483 8.50032 83.5755 6.81842C82.6275 4.46375 80.8233 2.87359 78.0711 1.95619C72.0162 -0.0620978 65.0746 -0.55138 58.5916 0.641243C57.0932 0.916463 55.6253 1.28342 54.2492 1.71155C45.9009 4.34143 38.4699 10.3351 33.8523 18.1025C32.0787 21.0993 30.8249 24.0962 29.4794 27.3071C29.2041 27.9798 28.9289 28.622 28.6537 29.2948C28.2256 30.2733 27.9198 31.3131 27.614 32.3222C27.3693 33.1479 27.0941 34.0347 26.7577 34.8909L26.6354 35.1661C26.1767 36.2976 25.7792 37.3985 25.8098 38.5911C25.8098 38.6217 25.8709 38.7746 26.0238 38.8663C26.1156 38.9275 26.1461 38.9275 26.1767 38.9275C27.1247 38.2547 27.9809 37.3679 28.8066 36.5117C29.5711 35.7166 30.3662 34.8909 31.253 34.2182C32.1398 33.5454 33.0267 32.8115 33.8829 32.1081C35.1367 31.0684 36.4516 29.9981 37.7972 29.0501C41.8337 26.2062 46.4819 24.4325 50.9772 22.7201C51.9863 22.3531 52.9649 21.9556 53.974 21.558C57.0014 20.3654 60.1818 19.4786 63.6067 18.8364C65.9308 18.4694 68.3772 18.1636 71.0683 17.9496Z" fill="#FEED9D"/>
<path d="M71.9857 4.09673C75.1048 6.81835 77.9794 10.9772 78.8662 15.1056C78.9579 15.5031 78.224 15.0444 78.1323 14.8609C76.3892 10.9161 74.6767 7.46054 71.8633 4.12731C71.7716 4.00499 71.9551 4.03557 71.9857 4.09673Z" fill="#EBC869"/>
<path d="M58.0712 3.36279C58.1017 3.36279 58.1323 3.36279 58.1629 3.36279C58.2241 3.36279 58.377 3.48511 58.3158 3.51569C59.5696 2.81235 63.4838 6.81834 64.2483 7.58284C66.0526 9.38707 67.9791 11.8641 68.7436 14.3105C68.8353 14.6163 68.2543 14.2799 68.1932 14.1881C65.3492 9.84577 62.8722 6.08442 58.1323 3.51569C58.1017 3.51569 57.9488 3.36279 58.0712 3.36279Z" fill="#EBC869"/>
<path d="M61.4964 3.9133C63.4841 5.35057 65.2884 6.84899 66.7868 8.77553C68.0712 10.4269 69.8142 12.1699 70.3035 14.2494C70.3952 14.6163 69.7225 14.1882 69.6613 14.0353C67.6125 10.0905 64.7073 6.84899 61.4047 3.94388C61.313 3.9133 61.4047 3.88272 61.4964 3.9133Z" fill="#EBC869"/>
<path d="M45.4116 8.71439C47.3687 9.75411 49.3258 10.5798 51.1606 11.9253C52.7508 13.1179 54.7079 14.8304 55.1972 16.8181C55.2584 17.1239 54.7385 16.757 54.7079 16.6652C53.1789 14.2188 51.2524 12.384 48.8671 10.7938C47.7357 10.0599 46.4819 9.54005 45.4116 8.77555C45.3198 8.74497 45.3198 8.68381 45.4116 8.71439Z" fill="#EBC869"/>
<path d="M41.8645 12.8733C43.3936 12.7204 45.3813 13.8519 46.7268 14.494C48.2252 15.1974 49.9683 16.1148 51.008 17.4909C51.2221 17.7967 50.8551 17.7355 50.7022 17.6132C48.0417 15.6867 45.1978 13.8824 41.9869 13.0262C41.9257 13.0262 41.7728 12.9039 41.8645 12.8733Z" fill="#EBC869"/>
<path d="M34.6165 21.6498C36.1761 21.7721 37.7357 21.9862 39.2647 22.3837C40.2432 22.6283 41.3135 22.9036 41.9863 23.6986C42.2615 24.0044 41.7417 23.8821 41.6193 23.7598C40.7325 22.9953 39.387 22.8118 38.2861 22.506C37.1546 22.1696 35.9009 22.0167 34.7388 21.8333C34.6777 21.8333 34.5248 21.6498 34.6165 21.6498Z" fill="#EBC869"/>
<path d="M44.3104 58.4682C44.0657 58.3765 43.7905 58.2542 43.5153 58.1624C41.5887 57.3979 39.1729 56.4193 38.0109 54.7374L37.9803 54.6763C37.9497 54.5234 37.8886 54.4316 37.858 54.4011L37.7662 54.3705C37.7968 54.5845 37.7968 54.7986 37.7968 55.0432C37.7662 55.3185 37.7357 55.5937 37.7051 55.8383C37.6133 56.5111 37.4604 57.0921 37.277 57.7343L37.2158 57.9484C37.0017 58.774 36.7571 59.6303 36.6959 60.4865C36.6042 61.6791 37.0017 62.7188 37.9803 63.6974C40.1209 65.838 42.9343 67.5199 45.9311 68.3762C46.6345 68.5902 47.3072 68.7431 48.0106 68.8349C52.1083 69.5076 56.5118 68.5596 60.0897 66.2661C61.4658 65.3793 62.6584 64.3702 63.8816 63.2999C64.1263 63.0858 64.4015 62.8717 64.6461 62.6271C65.0437 62.2907 65.38 61.9238 65.7164 61.5874C65.9916 61.2816 66.2974 60.9758 66.6338 60.7006L66.7256 60.6088C67.1537 60.2113 67.5512 59.8443 67.7959 59.355C67.7959 59.3245 67.7959 59.2633 67.7653 59.2021C67.7347 59.1716 67.7347 59.141 67.7347 59.141C67.1843 59.2327 66.6338 59.4162 66.114 59.5997C65.6247 59.7832 65.1048 59.9361 64.585 60.0584C64.0651 60.1501 63.5452 60.2724 63.0254 60.3948C62.2609 60.5782 61.4964 60.7311 60.7319 60.8535C58.4384 61.1898 56.0837 60.9452 53.8208 60.7311C53.3315 60.67 52.8116 60.6394 52.3224 60.5782C50.7933 60.4253 49.2643 60.1501 47.6742 59.6914C46.5733 59.355 45.4724 58.9575 44.3104 58.4682Z" fill="#FEED9D"/>
<path d="M57.979 65.8993C59.3551 64.4926 60.5783 62.4437 60.8536 60.4866C60.8841 60.3031 60.5477 60.5478 60.5172 60.6089C59.8138 62.5355 59.1411 64.2174 57.9179 65.8687C57.8873 65.9604 57.979 65.9299 57.979 65.8993Z" fill="#EBC869" stroke="#EBC869" stroke-width="0.75" stroke-miterlimit="10"/>
<path d="M51.4661 66.7249H51.4967C51.5273 66.7249 51.5884 66.6637 51.5579 66.6331C52.1695 66.9389 53.8819 64.9207 54.2183 64.5231C55.0134 63.6057 55.8391 62.3825 56.1143 61.1899C56.1449 61.037 55.9002 61.2205 55.8696 61.2816C54.677 63.4222 53.6373 65.2876 51.4967 66.6331C51.4661 66.6331 51.405 66.7249 51.4661 66.7249Z" fill="#EBC869" stroke="#EBC869" stroke-width="0.75" stroke-miterlimit="10"/>
<path d="M45.2889 64.6148C46.1757 64.0643 47.0625 63.6056 47.8882 62.9023C48.5915 62.2907 49.4784 61.4039 49.6313 60.4559C49.6618 60.303 49.4172 60.517 49.3866 60.5476C48.7444 61.7403 47.9188 62.6882 46.8179 63.5139C46.3286 63.9114 45.7476 64.1867 45.2583 64.5842C45.2583 64.6148 45.2583 64.6454 45.2889 64.6148Z" fill="#EBC869" stroke="#EBC869" stroke-width="0.75" stroke-miterlimit="10"/>
<path d="M43.4846 62.78C44.2186 62.8106 45.1054 62.199 45.717 61.8626C46.3897 61.4651 47.1848 60.9758 47.6129 60.303C47.7047 60.1501 47.5212 60.1807 47.46 60.2419C46.2674 61.251 44.9831 62.199 43.5152 62.6883C43.5152 62.7189 43.4541 62.78 43.4846 62.78Z" fill="#EBC869" stroke="#EBC869" stroke-width="0.75" stroke-miterlimit="10"/>
<path d="M39.7845 58.8964C40.5184 58.7741 41.2523 58.6212 41.9557 58.4071C42.4144 58.2542 42.9036 58.1013 43.1789 57.7037C43.3012 57.5508 43.0565 57.612 42.9954 57.6732C42.5978 58.0707 41.9557 58.193 41.4664 58.3765C40.9465 58.56 40.3655 58.6823 39.815 58.8046C39.7845 58.8046 39.7233 58.8964 39.7845 58.8964Z" fill="#EBC869" stroke="#EBC869" stroke-width="0.75" stroke-miterlimit="10"/>
<path d="M31.1307 51.5266L30.6108 51.4348C30.7943 51.4348 30.9778 51.4654 31.1307 51.5266Z" fill="#C99BED"/>
<path d="M88.9573 37.8264C86.3274 38.9885 86.2663 36.0222 87.7341 34.7684C90.0582 32.8419 92.1988 32.9336 92.5963 31.1294C92.9939 29.2946 91.0673 28.683 91.0673 28.683C91.0673 28.683 89.8441 17.4295 79.5081 11.9557C69.172 6.48185 56.3895 9.20347 44.5245 16.2063C34.2496 22.2612 29.2344 32.6584 26.6657 37.7041C26.6351 37.7653 26.6045 37.8264 26.574 37.857C26.574 37.857 26.574 37.8876 26.5434 37.8876C26.207 38.5909 25.9012 39.172 25.626 39.6307C25.259 40.2423 24.9226 40.7621 24.5557 41.1902C24.4639 41.282 24.3722 41.4043 24.2805 41.496C24.097 41.6795 23.8829 41.863 23.6994 41.9853C23.4854 42.1382 23.2407 42.2605 22.9961 42.3217L23.7606 44.0953L26.4211 50.2114L27.5831 52.933C27.6137 52.933 27.6137 52.9024 27.6137 52.9024C27.9806 52.6578 28.4088 52.5049 28.8675 52.4131C29.5096 52.2908 30.213 52.3214 31.0692 52.4437C31.0998 52.4437 31.0998 52.4437 31.1304 52.4437C31.2527 52.4743 31.375 52.4743 31.4974 52.5049C32.0172 52.6272 32.5982 52.7801 33.2098 52.9941C37.7663 54.5231 48.1329 62.4128 58.469 62.7186C68.805 63.0244 76.4195 58.1622 82.8107 54.7984C89.202 51.4346 93.1468 43.2391 93.4526 39.5695C93.4832 39.2025 93.4832 38.8661 93.4832 38.5604C93.4832 36.0222 92.8104 36.0834 88.9573 37.8264ZM30.6105 51.4346C30.794 51.4346 30.9775 51.4651 31.1304 51.5263L30.6105 51.4346Z" fill="#F8DB1D"/>
<path d="M71.4956 34.0959C74.0796 34.0959 76.1744 32.0012 76.1744 29.4172C76.1744 26.8332 74.0796 24.7384 71.4956 24.7384C68.9116 24.7384 66.8169 26.8332 66.8169 29.4172C66.8169 32.0012 68.9116 34.0959 71.4956 34.0959Z" fill="#F2A700"/>
<path d="M71.2211 33.2395C73.1802 33.2395 74.7684 31.6513 74.7684 29.6922C74.7684 27.7331 73.1802 26.1449 71.2211 26.1449C69.262 26.1449 67.6738 27.7331 67.6738 29.6922C67.6738 31.6513 69.262 33.2395 71.2211 33.2395Z" fill="#010300"/>
<path d="M72.4748 31.0072C73.3193 31.0072 74.0038 30.3227 74.0038 29.4782C74.0038 28.6338 73.3193 27.9492 72.4748 27.9492C71.6304 27.9492 70.9458 28.6338 70.9458 29.4782C70.9458 30.3227 71.6304 31.0072 72.4748 31.0072Z" fill="white"/>
<path d="M83.2386 64.6147C83.0857 65.0122 82.9328 65.318 82.7799 65.5933C81.8319 67.0611 81.1286 67 80.3641 65.5627C80.0583 64.9817 79.6913 64.2783 79.3243 63.5138C79.2938 63.4527 79.2632 63.3915 79.2326 63.3303C78.7127 62.1989 78.254 60.9451 78.04 59.7525C77.9177 59.1103 77.8259 58.4681 77.7342 57.8259C77.7342 57.673 77.7036 57.5507 77.7036 57.3978C77.6424 56.2969 77.7342 55.1655 78.254 53.9423C78.4375 53.4836 78.988 53.2695 79.4467 53.453C80.15 53.7282 81.1591 54.2175 82.046 54.982C82.7187 55.563 83.2997 56.3275 83.575 57.2449C84.3395 59.7219 83.9419 62.7799 83.2386 64.6147Z" fill="#FEED9D"/>
<path opacity="0.6" d="M79.2326 63.2998C78.7128 62.1684 78.2541 60.9146 78.04 59.722C77.9177 59.0798 77.8259 58.4376 77.7342 57.7954C77.7342 57.6425 77.7036 57.5202 77.7036 57.3673C78.0706 57.2756 79.4773 57.0003 79.6302 58.6822C79.7831 59.9972 79.4467 62.0766 79.2326 63.2998Z" fill="#C99E4C"/>
<path d="M80.5174 57.5506C80.5174 57.5506 80.548 57.5506 80.548 57.5812C80.5786 57.5812 80.6091 57.673 80.548 57.673C81.129 57.7035 81.6489 59.9665 81.7406 60.3946C81.9852 61.4343 82.1381 62.7187 81.8629 63.7584C81.8323 63.8807 81.71 63.6361 81.71 63.6055C81.6489 61.4649 81.5877 59.5995 80.4868 57.673C80.5174 57.6118 80.4868 57.52 80.5174 57.5506Z" fill="#EBC869" stroke="#EBC869" stroke-width="0.5" stroke-miterlimit="10"/>
<path d="M81.9546 56.5109C81.9546 56.5109 81.9546 56.5414 81.9546 56.5109C81.9852 56.5414 82.0157 56.572 81.9852 56.572C82.4133 56.572 82.872 58.1316 82.9637 58.4374C83.1778 59.1408 83.3307 60.0582 83.2084 60.7921C83.1778 60.8838 83.086 60.7309 83.086 60.6698C82.9331 59.1713 82.8108 57.8564 81.9546 56.5414C81.924 56.572 81.924 56.5109 81.9546 56.5109Z" fill="#EBC869" stroke="#EBC869" stroke-width="0.5" stroke-miterlimit="10"/>
<path d="M91.0981 28.683C91.0981 28.683 88.0095 29.3252 86.3276 30.7319C86.1441 30.8848 85.8995 30.7625 85.8995 30.5484C85.8077 29.0806 84.5234 24.1878 83.1167 21.2215C82.077 19.0503 79.233 14.1575 72.8418 11.9252C69.6615 10.8243 59.4171 9.78456 50.4877 14.0658C44.5858 16.8791 40.8244 19.2338 35.4118 25.3192C35.4118 25.3192 31.4975 29.417 28.7147 35.6553C26.2377 41.1597 23.7913 41.8936 24.036 41.7407C24.25 41.5878 24.1277 41.649 24.3112 41.4655C24.4029 41.3738 24.4947 41.282 24.5864 41.1597C24.9534 40.7316 25.3203 40.2117 25.6567 39.6001C25.9014 39.1414 26.2072 38.5604 26.5741 37.8571C26.5741 37.8571 26.5741 37.8265 26.6047 37.8265C26.6353 37.7653 26.6659 37.7042 26.6964 37.6736C29.2346 32.6279 34.2803 22.2306 44.5552 16.1758C56.4203 9.17296 69.2028 6.45133 79.5388 11.9252C89.8749 17.4296 91.0981 28.683 91.0981 28.683Z" fill="#F2A700"/>
<path d="M93.5442 38.6217C93.5442 38.9275 93.5442 39.2639 93.5136 39.6308C93.2078 43.2699 89.263 51.4959 82.8718 54.8597C76.4805 58.2235 68.8661 63.0858 58.53 62.78C48.194 62.4742 37.8273 54.5539 33.2709 53.0555C32.6593 52.8414 32.0783 52.6885 31.5584 52.5662C31.4361 52.5356 31.3138 52.5051 31.1914 52.5051C31.1609 52.5051 31.1609 52.5051 31.1303 52.5051C30.274 52.3522 29.5401 52.3522 28.9285 52.4745C28.4698 52.5662 28.0723 52.6885 28.0723 52.6885C29.4484 51.6794 32.3535 51.8629 34.4023 52.5662C36.0842 53.1472 38.3166 54.1258 41.1911 55.8383C46.3591 58.8963 51.2214 60.0889 57.0316 60.0889C61.2822 60.0889 65.5634 59.1715 67.6735 57.3367C69.8141 55.5019 66.3585 56.4805 63.4228 52.7803C59.7838 48.2238 60.0896 37.5514 60.9764 40.3036C61.8938 43.0558 62.1996 48.5296 68.2851 53.0861C72.291 56.0829 78.6211 54.3093 82.5965 51.2513C86.9389 47.918 88.3762 40.6094 88.3762 40.6094C91.0978 40.3953 92.688 39.4168 93.5442 38.6217Z" fill="#F2A700"/>
<path d="M26.6655 39.3862C26.6655 39.3862 34.4023 27.6128 39.0505 23.2093C45.0442 17.5214 54.9827 12.4757 57.4291 11.8641C59.8449 11.2525 38.2248 13.3014 26.6655 39.3862Z" fill="#FEED9D"/>
<path d="M27.7056 66.7555C24.7087 69.3242 13.5164 70.2722 12.3238 75.8378C11.5593 74.1559 12.018 73.3914 12.6602 71.159C13.3023 68.9267 10.703 59.3245 11.5899 56.817C12.4767 54.3094 16.0851 52.3523 17.7059 52.0465C16.819 51.0373 13.18 50.7927 10.0303 49.753C6.9111 48.7132 6.08544 45.38 4.73991 42.4443C3.42497 39.5086 0.764502 34.7076 0 33.7902C0 33.7902 6.02428 33.148 10.6419 32.9951C15.2289 32.8422 22.0177 34.4324 25.2286 43.6064C25.9931 45.8081 27.1551 47.1842 28.1643 48.0405C29.1122 48.8356 29.6321 50.0282 29.5709 51.2514C29.5098 53.6978 29.2346 56.7864 29.2346 56.7864C29.2346 56.7864 30.7024 64.1868 27.7056 66.7555Z" fill="#FEED9D"/>
<path d="M29.082 51.9854C28.3174 52.7499 27.8893 53.7284 27.6447 54.7376C27.3695 55.7467 27.2777 56.7864 27.0942 57.8567C26.9413 58.927 26.7273 59.9973 26.3297 61.0676C26.2686 61.19 26.238 61.3429 26.1768 61.4652L25.9628 61.8627C25.8405 62.1379 25.657 62.352 25.4735 62.5966C25.1371 63.0859 24.6784 63.4835 24.2197 63.8198C23.3023 64.4926 22.2932 64.9513 21.3146 65.41C20.336 65.8381 19.4492 66.3274 18.593 66.9084C16.8805 68.0705 15.4127 69.5995 14.1895 71.3731C14.954 69.3548 16.3301 67.5506 18.0425 66.1745C18.8682 65.4712 19.8773 64.8901 20.8253 64.4009C21.7733 63.9116 22.7213 63.4529 23.5164 62.8719C24.3115 62.2908 24.8925 61.5263 25.29 60.6395C25.7181 59.7221 25.9322 58.713 26.1768 57.6732C26.4215 56.6335 26.6661 55.5632 27.0637 54.5541C27.5224 53.5144 28.1645 52.5358 29.082 51.9854Z" fill="#EBC869"/>
<path d="M24.8924 45.013C23.9444 44.7378 23.0576 44.3402 22.1708 43.8815C21.3145 43.4228 20.4583 42.903 19.6326 42.3831C19.2351 42.1079 18.807 41.8327 18.4094 41.5574C18.0119 41.2822 17.6143 40.9458 17.2168 40.64C16.4829 39.9979 15.7795 39.3557 15.015 38.8052C13.5166 37.6738 11.8041 36.8175 9.99991 36.2671C8.19568 35.6861 6.26914 35.472 4.31201 35.3497C6.23856 35.0439 8.25684 35.0745 10.1834 35.5026C12.1405 35.9307 14.0059 36.787 15.5961 37.9796C16.4217 38.5606 17.1251 39.2639 17.8284 39.9061C18.1954 40.2425 18.5317 40.5483 18.8987 40.8235L20.0302 41.7103C21.6509 42.903 23.1799 44.065 24.8924 45.013Z" fill="#EBC869"/>
<path d="M27.0942 50.8538C25.9321 51.7712 25.2288 53.0555 24.5254 54.3093C24.1585 54.9515 23.8527 55.5937 23.4551 56.2359C23.0882 56.878 22.6906 57.5202 22.1096 58.1012C21.9567 58.2541 21.8344 58.3765 21.6815 58.4988C21.5286 58.6211 21.4063 58.7434 21.2534 58.8657C20.9476 59.1104 20.6418 59.3244 20.2748 59.5079C19.6326 59.8749 18.9905 60.2113 18.3177 60.5476C17.0028 61.2204 15.6878 61.8626 14.3423 62.4436C15.5349 61.5568 16.7581 60.7617 18.0119 59.9666C18.6235 59.5691 19.2657 59.1715 19.8773 58.8046C20.1525 58.6211 20.4277 58.407 20.7029 58.193C20.8253 58.0707 20.9782 57.9789 21.1005 57.8566C21.2228 57.7343 21.3757 57.612 21.4674 57.4896C21.9261 57.0004 22.3237 56.3888 22.6906 55.7771C23.0576 55.1655 23.4551 54.5234 23.8527 53.9118C24.2808 53.3002 24.7089 52.6886 25.2288 52.1381C25.7792 51.6183 26.3908 51.0984 27.0942 50.8538Z" fill="#EBC869"/>
<path d="M26.2381 46.9396C24.5867 47.5512 22.7519 47.6429 20.9783 47.276C20.0915 47.0925 19.2352 46.7867 18.4401 46.3586C17.6451 45.961 16.9111 45.4718 16.1772 44.9825C15.4433 44.5238 14.7399 44.0345 13.9754 43.6369C13.2109 43.2394 12.4464 42.8113 11.6819 42.5055C10.8869 42.1691 10.0918 41.955 9.23554 41.8633C8.37929 41.7716 7.52305 41.8021 6.63623 41.8939C7.46189 41.6187 8.34871 41.4658 9.23554 41.4352C9.69424 41.4352 10.1224 41.4658 10.5811 41.5575C11.0092 41.6492 11.4679 41.741 11.896 41.8939C12.7522 42.1691 13.5473 42.5666 14.3424 42.9642C15.1375 43.3617 15.902 43.851 16.6053 44.3403C17.3393 44.8296 18.0426 45.2883 18.7765 45.7164C19.5104 46.1445 20.3055 46.4503 21.1006 46.695C22.7519 47.1537 24.495 47.2454 26.2381 46.9396Z" fill="#EBC869"/>
<path d="M13.9756 57.6426C14.312 56.2054 14.893 54.8293 15.8104 53.5755C16.2385 52.9639 16.789 52.4134 17.4006 51.9242C18.0122 51.4655 18.7155 51.0985 19.4188 50.8233C20.1222 50.5481 20.8255 50.334 21.5289 50.1199C22.2322 49.9059 22.9661 49.6918 23.7001 49.5695C24.434 49.4166 25.1985 49.4166 25.9018 49.3554C26.6052 49.2943 27.3391 49.172 27.9813 48.8356C27.4308 49.3554 26.6969 49.6001 25.963 49.7836C25.2291 49.967 24.5257 50.0588 23.8224 50.2423C23.1496 50.4257 22.4463 50.6398 21.7735 50.915C21.1007 51.1597 20.3974 51.4043 19.7246 51.6489C19.0519 51.8936 18.4403 52.1994 17.8898 52.5969C17.3088 52.9945 16.8195 53.4532 16.3303 53.973C15.4129 55.0739 14.6789 56.3583 13.9756 57.6426Z" fill="#EBC869"/>
<path d="M57.6123 38.2242C57.2759 37.368 56.542 36.7564 55.6552 36.5117C54.8907 36.2977 54.0344 35.8084 53.4228 34.6769C52.0773 32.2611 49.8144 29.3254 44.9828 29.8453C43.3926 45.8386 50.3037 44.7683 50.3037 44.7683C50.3037 44.7683 54.2179 44.1567 57.0007 41.4963C57.857 40.6706 58.1322 39.3862 57.6735 38.2854C57.6429 38.2548 57.6123 38.2242 57.6123 38.2242Z" fill="#FEED9D"/>
<path d="M49.6618 33.9124C49.4172 33.8818 49.2949 33.3008 49.5395 33.2396C50.9768 32.8727 53.6984 31.8024 54.9828 32.7503C56.8788 34.157 57.8267 37.3679 57.0317 39.1416C56.5118 40.273 52.5364 40.6706 51.0991 40.7623C50.8851 40.7623 50.7016 40.273 50.8851 40.1507C51.5578 39.7226 54.3712 39.2333 54.3712 38.5606C54.4018 36.6646 51.3132 37.8572 50.0594 37.7043C49.6619 37.6737 48.2246 37.6126 47.8576 37.4903C47.5212 37.3679 47.1543 37.0315 47.4907 36.9704C48.6221 36.7869 50.7627 35.9612 51.3132 35.7778C52.1694 35.5331 52.7199 34.1264 49.6618 33.9124Z" fill="#F8DB1D"/>
<path d="M78.4071 58.8964C78.1013 60.7618 77.3368 62.1073 76.4194 63.3305C75.9913 63.8809 75.5632 64.3702 75.1045 64.8901C74.9516 65.043 74.8292 65.1959 74.6763 65.3488C73.973 66.1439 73.0862 66.8778 72.1688 67.5505C70.7621 68.5597 69.2942 69.4159 68.1934 70.0275C66.3586 71.0367 65.5635 70.6391 65.5635 68.4068C65.5635 66.1745 67.3983 61.4957 70.4257 58.8658C72.5969 56.9698 75.8078 57.2756 77.4591 57.5814C77.612 57.612 77.7344 57.6732 77.8567 57.7343C78.2542 57.9484 78.4988 58.4071 78.4071 58.8964Z" fill="#FEED9D"/>
<path d="M69.6616 66.3578C69.6922 66.3578 69.6922 66.3578 69.7228 66.3578C69.7534 66.3578 69.8451 66.266 69.8145 66.266C70.6096 66.633 72.7808 64.0643 73.2089 63.575C74.2181 62.4129 75.2884 60.8533 75.6248 59.3243C75.6553 59.1409 75.319 59.3549 75.2884 59.4161C73.7594 62.1683 72.4139 64.523 69.6922 66.266C69.6922 66.266 69.6005 66.3883 69.6616 66.3578Z" fill="#EBC869" stroke="#EBC869" stroke-width="0.25" stroke-miterlimit="10"/>
<path d="M69.2026 64.0338V64.0032C69.2026 63.9726 69.2332 63.9115 69.2638 63.9421C68.8968 63.4528 70.3341 61.6485 70.6093 61.3122C71.2515 60.4865 72.1689 59.5691 73.1475 59.1104C73.2698 59.0492 73.1475 59.3245 73.1169 59.355C71.4961 60.7617 70.0589 61.9543 69.2638 64.0338C69.2638 64.0338 69.2026 64.0949 69.2026 64.0338Z" fill="#EBC869" stroke="#EBC869" stroke-width="0.5" stroke-miterlimit="10"/>
<path d="M22.5982 69.5383C22.4453 69.8747 22.2924 70.1193 22.2007 70.2722C22.1395 70.3945 22.0784 70.4557 22.0784 70.4557C22.0784 70.4557 22.0478 70.4557 21.956 70.4251C21.8643 70.3945 21.6808 70.364 21.4973 70.3028C21.2527 69.4466 21.1915 68.5903 21.2221 67.7341C21.2527 67.1836 21.3138 66.6332 21.4056 66.0828C21.6197 66.572 21.8031 67.0919 21.956 67.6118L22.3842 68.9267C22.5065 69.0796 22.5676 69.2937 22.5982 69.5383Z" fill="#B58967"/>
<path opacity="0.5" d="M47.6127 86.7243C47.3987 87.0301 47.2458 87.2442 47.154 87.3665C47.1235 87.4277 47.0929 87.4277 47.0929 87.4277C47.0929 87.4277 47.0317 87.3971 46.9094 87.3665C46.6342 87.2748 46.0837 87.0913 45.411 86.7549C43.6985 85.9292 41.038 84.1862 39.0503 80.9753C39.2032 81.0058 39.3561 81.0364 39.4479 81.067C39.5702 81.0976 39.6313 81.0976 39.6313 81.0976C39.6313 81.0976 39.6619 81.067 39.6925 80.9753C39.9983 81.067 40.1512 80.7306 40.1512 80.2719C40.1512 80.2108 40.1512 80.1802 40.1512 80.119C40.1206 79.7215 39.9983 79.324 39.8148 78.957L39.1726 77.1222C38.8668 76.2659 38.5305 75.4097 38.1635 74.5535C38.0412 75.2874 37.9494 76.0213 37.9494 76.7552C37.9494 78.1925 38.2552 79.6298 39.0503 80.9447L39.0809 80.9753C38.8057 80.9141 38.4387 80.7918 38.0106 80.6389C36.3287 80.0273 33.6682 78.7123 31.4359 75.9601C31.283 75.7767 31.1607 75.5932 31.0383 75.4097C30.8854 75.7767 30.7325 76.113 30.6102 76.3883C30.3962 76.8164 30.1821 77.1528 30.0598 77.3668C29.968 77.5197 29.9069 77.6115 29.9069 77.6115C29.9069 77.6115 29.8457 77.6115 29.754 77.5809C29.5093 77.5197 29.0201 77.3668 28.4085 77.0916C26.8489 76.4188 24.433 75.0427 22.5371 72.2905C22.109 71.6789 21.8337 71.0062 21.6197 70.3334C21.8337 70.3946 21.9866 70.4557 22.0784 70.4557C22.1701 70.4863 22.2007 70.4863 22.2007 70.4863C22.2007 70.4863 22.2313 70.4251 22.323 70.3028C22.5982 70.4863 22.7206 70.2111 22.7206 69.8441C22.7206 69.7524 22.7206 69.6606 22.7206 69.5689C22.69 69.3243 22.6288 69.1102 22.5065 68.8961L22.0784 67.5812C21.9255 67.0613 21.742 66.5721 21.5279 66.0522C21.4362 66.6026 21.375 67.1531 21.3445 67.7035C21.3139 68.5598 21.375 69.4466 21.6197 70.2722C21.4668 70.2111 21.2833 70.1499 21.0692 70.0888C19.9072 69.6301 18.0418 68.6209 16.5434 66.6026C14.7697 64.2174 15.7789 60.7313 16.4211 59.1105C16.4516 59.0494 16.4822 58.9882 16.5128 58.8965C16.6963 58.4683 16.8186 58.1931 16.8186 58.1931C16.8186 58.1931 20.7329 59.4163 22.5371 62.6578C22.5982 62.5049 22.6594 62.352 22.7206 62.2297C22.7511 62.1379 22.7817 62.0462 22.8429 61.9545C23.1181 61.3734 23.3016 61.0371 23.3016 61.0371C23.3016 61.0371 28.1332 62.719 30.4879 66.7861C30.6408 66.2663 30.7937 65.777 30.916 65.3794C30.9466 65.2877 30.9772 65.196 31.0078 65.1042C31.2524 64.462 31.4053 64.0951 31.4053 64.0951C31.4053 64.0951 36.9709 65.6546 39.6925 70.1193C39.7842 69.9053 39.9066 69.6912 39.9983 69.5077C40.0595 69.416 40.09 69.2937 40.1512 69.2019C40.4876 68.5598 40.7322 68.1622 40.7322 68.1622C40.7322 68.1622 40.8545 68.2234 41.0686 68.3151C41.0992 68.3151 41.0992 68.3457 41.1298 68.3457C42.6588 69.049 47.0011 73.2997 48.0103 77.6726C48.9277 82.0762 48.5301 85.3176 47.6127 86.7243Z" fill="#966A4D"/>
<path d="M22.5988 69.5381C22.5988 69.6299 22.6293 69.7216 22.5988 69.8133C22.5988 70.1803 22.4764 70.4249 22.2012 70.272C22.1095 70.2109 22.0177 70.1191 21.8954 69.9968C21.8954 69.9968 21.6508 69.0183 21.2227 67.7033C21.2532 67.1529 21.3144 66.6024 21.4061 66.052C21.6202 66.5413 21.8037 67.0611 21.9566 67.581L22.3847 68.8959C22.507 69.0794 22.5682 69.2935 22.5988 69.5381Z" fill="#B58967"/>
<path d="M17.8888 69.2018C17.8582 69.6605 17.7664 70.0275 17.7359 70.1804C17.7053 70.2416 17.7053 70.3027 17.7053 70.3027C17.7053 70.3027 13.9745 70.6697 10.9165 67.9175C7.52212 64.8901 8.28662 60.2725 8.28662 60.2725C8.28662 60.2725 8.59243 60.2725 9.11229 60.3336C9.17345 60.3336 9.26519 60.3642 9.35693 60.3642C11.2529 60.6088 15.106 61.4039 16.6044 63.9421C17.8582 66.0827 17.9805 68.0398 17.8888 69.2018Z" fill="#EFB081"/>
<path d="M8.25732 60.2725C8.25732 60.2725 11.2848 62.78 13.67 65.5934C15.4436 67.6423 17.0032 70.1192 17.0032 70.1192C17.676 70.5779 17.7677 70.211 17.6454 69.7829C17.5537 69.4771 17.3702 69.1713 17.1255 68.9572L16.2999 67.8257C14.4039 65.1958 11.9269 62.9023 9.23589 60.9146L8.25732 60.2725Z" fill="#B26D46"/>
<path opacity="0.64" d="M17.8891 69.2019C17.8585 69.6606 17.7668 70.0276 17.7362 70.1805C16.7882 68.468 15.5344 65.991 14.9228 64.1868C14.1277 61.8321 10.8557 60.7618 9.32666 60.3643C11.2226 60.6089 15.0757 61.404 16.5741 63.9421C17.8585 66.0827 17.9808 68.0399 17.8891 69.2019Z" fill="#FFD997"/>
<path d="M21.1004 72.2293C21.1004 72.2293 21.1004 72.2599 21.1004 72.2293C21.5591 72.4434 21.9261 72.5351 22.1095 72.5963C22.2013 72.6269 22.2319 72.6269 22.2319 72.6269C22.2319 72.6269 24.403 69.8747 23.3022 66.0827C22.1095 61.9238 17.2779 60.2419 17.2779 60.2419C17.2779 60.2419 17.125 60.4866 16.9415 60.9453C16.9109 61.0064 16.8803 61.0676 16.8498 61.1288C16.1464 62.7495 15.015 66.1745 16.6969 68.6209C18.1341 70.7003 19.9384 71.7401 21.1004 72.2293Z" fill="#EFB081" stroke="#BF8458" stroke-width="0.5889" stroke-miterlimit="10"/>
<path d="M17.2778 60.3031C17.2778 60.3031 19.235 63.5752 20.5193 66.9084C21.4673 69.3854 22.0789 72.1682 22.0789 72.1682C22.5376 72.7798 22.7517 72.5046 22.7822 72.0153C22.8128 71.6789 22.7211 71.3731 22.5988 71.0673L22.2318 69.7523C21.3756 66.6943 19.8466 63.7892 17.9812 61.1288L17.2778 60.3031Z" fill="#B26D46"/>
<path d="M28.1635 79.4156C28.1635 79.4156 28.1635 79.4462 28.1635 79.4156C28.7751 79.7214 29.2644 79.8743 29.509 79.9354C29.6008 79.966 29.6619 79.9966 29.6619 79.9966C29.6619 79.9966 32.6894 76.3881 31.405 71.3119C29.9677 65.6851 23.6377 63.2693 23.6377 63.2693C23.6377 63.2693 23.4236 63.6057 23.1484 64.1867C23.1178 64.2784 23.0566 64.3396 23.0261 64.4313C22.0169 66.5414 20.335 71.0978 22.4756 74.431C24.2798 77.2444 26.6345 78.7122 28.1635 79.4156Z" fill="#EFB081" stroke="#BF8458" stroke-width="1.1779" stroke-miterlimit="10"/>
<path d="M23.6074 63.3611C23.6074 63.3611 26.0844 67.7952 27.644 72.2905C28.7755 75.6237 29.4788 79.385 29.4788 79.385C30.0904 80.2107 30.3656 79.8437 30.4268 79.2016C30.4574 78.7734 30.3962 78.3453 30.2127 77.9172L29.754 76.1436C28.7449 72.0458 26.8489 68.101 24.4942 64.4925L23.6074 63.3611Z" fill="#B26D46"/>
<path d="M21.9563 70.8532C22.2927 71.2202 22.4762 71.4954 22.5985 71.6483C22.6291 71.7095 22.6596 71.74 22.6596 71.74C22.6596 71.74 20.1826 74.2782 15.8403 74.1864C11.0392 74.0947 8.10352 70.2722 8.10352 70.2722C8.10352 70.2722 8.34816 70.0887 8.77628 69.8135C8.83744 69.7829 8.8986 69.7218 8.95976 69.6912C10.5499 68.7126 14.0055 66.9084 17.0329 67.8258C19.571 68.6209 21.1306 69.9664 21.9563 70.8532Z" fill="#BF8458"/>
<path d="M30.2129 76.7246C30.6105 77.2444 30.8551 77.642 30.9468 77.856C31.008 77.9478 31.008 78.0089 31.008 78.0089C31.008 78.0089 27.3995 81.1587 21.6199 80.6083C15.2593 79.9967 11.8037 74.6451 11.8037 74.6451C11.8037 74.6451 12.1401 74.4311 12.7517 74.0947C12.8434 74.0335 12.9352 74.003 13.0269 73.9418C15.2287 72.7797 20.0603 70.7309 23.9746 72.2599C27.3384 73.5137 29.2344 75.4402 30.2129 76.7246Z" fill="#BF8458"/>
<path d="M20.8558 71.0369C21.2228 71.3733 21.4369 71.6485 21.5286 71.8014C21.5898 71.8626 21.5898 71.8932 21.5898 71.8932C21.5898 71.8932 19.2657 74.5537 14.9233 74.7066C10.1222 74.8595 6.94189 71.1898 6.94189 71.1898C6.94189 71.1898 7.18654 71.0064 7.58408 70.7006C7.64524 70.67 7.7064 70.6088 7.76756 70.5782C9.26598 69.5079 12.6298 67.5508 15.7184 68.2847C18.3483 68.9269 19.9996 70.1807 20.8558 71.0369Z" fill="#EFB081"/>
<path d="M6.94141 71.1897C6.94141 71.1897 11.1003 70.9451 14.984 71.2815C17.8585 71.5261 20.9471 72.1989 20.9471 72.1989C21.7727 72.0765 21.5587 71.7707 21.1 71.5567C20.7942 71.4038 20.4272 71.3426 20.0603 71.312L18.5618 71.0674C15.1063 70.5169 11.5284 70.5475 8.07287 70.9451L6.94141 71.1897Z" fill="#B26D46"/>
<path opacity="0.64" d="M20.8554 71.0367C21.2223 71.3731 21.4364 71.6483 21.5281 71.8012C19.4793 71.2202 16.6353 70.3639 14.7393 69.5383C12.2929 68.4374 9.14319 69.8441 7.76709 70.578C9.26551 69.5077 12.6293 67.5506 15.7179 68.2845C18.3478 68.9267 19.9991 70.1805 20.8554 71.0367Z" fill="#FFD997"/>
<path d="M38.6529 80.6694C39.1422 81.1281 39.4174 81.5256 39.5703 81.7091C39.6315 81.8008 39.6621 81.8314 39.6621 81.8314C39.6621 81.8314 36.5429 85.4704 30.641 85.6233C24.158 85.8068 19.8462 80.8834 19.8462 80.8834C19.8462 80.8834 20.152 80.6082 20.7024 80.2107C20.7942 80.1495 20.8553 80.0883 20.9471 80.0272C22.9959 78.5899 27.5218 75.9294 31.7113 76.9386C35.2585 77.8254 37.4909 79.5073 38.6529 80.6694Z" fill="#BF8458"/>
<path d="M29.2647 77.2445C29.2647 77.2445 29.2953 77.2445 29.2647 77.2445C29.6622 77.7643 29.9069 78.1619 29.9986 78.3759C30.0598 78.4677 30.0598 78.5288 30.0598 78.5288C30.0598 78.5288 26.4513 81.6786 20.6717 81.1281C14.311 80.5165 10.8555 75.165 10.8555 75.165C10.8555 75.165 11.1918 74.951 11.8035 74.6146C11.8952 74.5534 11.9869 74.5228 12.0787 74.4617C14.2804 73.2996 19.1121 71.2508 23.0263 72.7798C26.3901 74.0336 28.3167 75.9601 29.2647 77.2445Z" fill="#EFB081"/>
<path d="M10.917 75.1343C10.917 75.1343 16.4214 75.5013 21.5283 76.6022C25.2896 77.4278 29.2039 78.804 29.2039 78.804C30.3048 78.7734 30.1213 78.3452 29.5403 77.9783C29.1427 77.7336 28.684 77.5807 28.2253 77.489L26.2988 76.908C21.8647 75.593 17.1553 75.0426 12.4766 74.9814L10.917 75.1343Z" fill="#B26D46"/>
<path opacity="0.64" d="M29.2648 77.2445C29.2648 77.2445 29.2954 77.2445 29.2648 77.2445C29.6623 77.7643 29.907 78.1619 29.9987 78.3759C27.43 77.2751 23.8521 75.6543 21.528 74.2476C18.5312 72.4128 14.0971 73.6972 12.1094 74.4617C14.3111 73.2996 19.1428 71.2508 23.057 72.7798C26.3903 74.0336 28.3168 75.9601 29.2648 77.2445Z" fill="#FFD997"/>
<path d="M37.9493 80.6082C38.4386 81.0669 38.7138 81.4644 38.8667 81.6479C38.9279 81.7397 38.9585 81.7702 38.9585 81.7702C38.9585 81.7702 35.8087 85.3787 29.9373 85.5622C23.4544 85.7457 19.1426 80.8223 19.1426 80.8223C19.1426 80.8223 19.4484 80.547 19.9988 80.1495C20.0906 80.0883 20.1517 80.0272 20.2435 79.966C22.2923 78.5288 26.8182 75.8683 31.0076 76.8774C34.5549 77.7643 36.7873 79.4462 37.9493 80.6082Z" fill="#BF8458"/>
<path d="M38.1334 81.3727C38.1334 81.3727 38.1334 81.4033 38.1334 81.3727C38.6227 81.8314 38.8979 82.229 39.0508 82.4125C39.112 82.5042 39.1425 82.5348 39.1425 82.5348C39.1425 82.5348 35.9928 86.1432 30.1214 86.3267C23.6385 86.5102 19.3267 81.5868 19.3267 81.5868C19.3267 81.5868 19.6325 81.3116 20.1829 80.914C20.2746 80.8529 20.3358 80.7917 20.4275 80.7306C22.4764 79.2933 27.0023 76.6328 31.1917 77.642C34.739 78.5288 36.9714 80.2413 38.1334 81.3727Z" fill="#EFB081"/>
<path d="M19.3262 81.6175C19.3262 81.6175 24.9223 81.2811 30.2127 81.7398C34.1269 82.0762 38.2858 82.9936 38.2858 82.9936C39.4173 82.8101 39.1421 82.4125 38.4999 82.1067C38.0718 81.8927 37.5825 81.8009 37.0932 81.8009L35.0749 81.4646C30.4267 80.7001 25.5645 80.7612 20.8552 81.3117L19.3262 81.6175Z" fill="#B26D46"/>
<path opacity="0.64" d="M38.1331 81.3727C38.1331 81.3727 38.1331 81.4032 38.1331 81.3727C38.6224 81.8314 38.8976 82.2289 39.0505 82.4124C36.2983 81.6479 32.4452 80.4858 29.8765 79.3544C26.5738 77.8865 22.2926 79.7519 20.4272 80.7611C22.4761 79.3238 27.002 76.6633 31.1914 77.6725C34.7387 78.5287 36.9711 80.2412 38.1331 81.3727Z" fill="#FFD997"/>
<path d="M37.6745 83.3299C38.3473 83.6051 38.8671 83.7274 39.1118 83.7886C39.2341 83.8192 39.2953 83.8192 39.2953 83.8192C39.2953 83.8192 42.2309 79.8438 40.4573 74.5534C38.5002 68.7432 31.6502 66.572 31.6502 66.572C31.6502 66.572 31.4668 66.939 31.1915 67.5812C31.161 67.6729 31.1304 67.7646 31.0692 67.8564C30.1824 70.1499 28.7451 75.0427 31.2527 78.4371C33.4239 81.2505 36.0232 82.6571 37.6745 83.3299Z" fill="#EFB081" stroke="#BF8458" stroke-width="1.1779" stroke-miterlimit="10"/>
<path d="M31.7725 66.6331C31.7725 66.6331 34.647 71.1895 36.543 75.8682C37.9496 79.3238 38.867 83.238 38.8976 83.2686C39.5704 84.1249 39.8762 83.6967 39.9068 83.024C39.9373 82.5653 39.815 82.1066 39.601 81.709L39.0199 79.8437C37.705 75.5624 35.4727 71.5259 32.8122 67.7951L31.7725 66.6331Z" fill="#B26D46"/>
<path d="M49.2952 83.9721C49.3258 83.9721 49.3258 83.9721 49.2952 83.9721C49.9374 84.339 50.3655 84.6448 50.5795 84.7977C50.6713 84.8589 50.7324 84.9201 50.7324 84.9201C50.7324 84.9201 48.653 89.4459 42.6287 91.189C35.9928 93.1155 29.938 89.1707 29.938 89.1707C29.938 89.1707 30.1826 88.8037 30.6108 88.2533C30.6719 88.1615 30.7637 88.1004 30.8248 88.0086C32.996 84.5837 36.8185 82.0761 41.4667 82.0455C45.4115 81.9538 47.7356 83.0853 49.2952 83.9721Z" fill="#BF8458"/>
<path d="M49.8142 86.2349C49.8142 86.2349 49.2637 87.4275 47.9488 88.8036C47.7653 88.9871 47.5818 89.2012 47.3678 89.3847C46.4809 90.1797 45.3495 91.0054 43.9122 91.6782C43.4229 91.8922 42.9337 92.1063 42.3832 92.2898C42.1691 92.3509 41.9551 92.4427 41.741 92.5038C35.1051 94.4304 29.0503 90.4855 29.0503 90.4855C29.0503 90.4855 29.2949 90.1186 29.7231 89.5681C29.7842 89.4764 29.8454 89.4152 29.9371 89.3235C31.5884 87.3052 35.3804 83.3604 40.0591 83.3298C41.527 83.2992 42.8419 83.4521 43.9734 83.6968C44.1263 83.7273 44.2486 83.7579 44.4015 83.7885C44.4627 83.7885 44.4932 83.8191 44.5544 83.8191C44.9214 83.9108 45.2577 84.0026 45.5941 84.1249C46.7867 84.4918 47.7347 84.9505 48.4075 85.3175C49.0497 85.6845 49.4778 85.9903 49.6918 86.1432C49.7836 86.2043 49.8142 86.2349 49.8142 86.2349Z" fill="#EFB081"/>
<path d="M29.0503 90.4855C29.0503 90.4855 34.7382 88.6507 40.3343 87.7639C44.4626 87.0911 49.0802 86.9077 49.0802 86.9077C50.1811 86.4184 49.753 86.082 49.0191 85.9597C48.4992 85.8679 47.9794 85.8985 47.4595 85.9903L45.2577 86.1737C40.212 86.6324 35.2275 87.9474 30.5181 89.7516L29.0503 90.4855Z" fill="#B26D46"/>
<path opacity="0.64" d="M48.4079 85.3177C49.0501 85.6846 49.4782 85.9904 49.6922 86.1433C46.6036 86.0822 42.2307 85.8987 39.2338 85.4094C35.3196 84.7672 31.5582 87.8252 29.9375 89.3237C31.5888 87.3054 35.3808 83.3911 40.0595 83.33C43.9738 83.2688 46.8177 84.4308 48.4079 85.3177Z" fill="#FFD997"/>
<path opacity="0.78" d="M43.5151 90.3021C44.1879 90.6691 44.7383 90.8831 45.0135 90.9749C45.1359 91.0055 45.197 91.036 45.197 91.036C45.197 91.036 48.8972 87.0912 47.7657 81.1892C46.512 74.7063 40.5794 71.4954 40.5794 71.4954C40.5794 71.4954 40.3348 71.8623 39.9678 72.5045C39.9067 72.5962 39.8761 72.688 39.8149 72.7797C38.5306 75.1344 35.1362 80.333 37.3685 84.2473C39.2339 87.5805 41.8332 89.4153 43.5151 90.3021Z" fill="#BF8458"/>
<path d="M44.8606 89.6599C45.5334 90.0269 46.0839 90.2409 46.3591 90.3327C46.4814 90.3632 46.5425 90.3938 46.5425 90.3938C46.5425 90.3938 50.2427 86.449 49.1113 80.547C47.8575 74.0641 40.7935 70.9143 40.7935 70.9143C40.7935 70.9143 40.5489 71.2813 40.1819 71.9235C40.1207 72.0152 40.0902 72.1069 40.029 72.1987C38.7446 74.5533 36.5123 79.6602 38.7141 83.605C40.5794 86.9383 43.1787 88.7731 44.8606 89.6599Z" fill="#EFB081" stroke="#BF8458" stroke-width="1.2749" stroke-miterlimit="10"/>
<path d="M41.0693 70.9143C41.0693 70.9143 43.424 76.2047 44.6778 81.4644C45.6258 85.3481 45.9927 89.6905 45.9927 89.7211C46.5737 90.7302 46.9713 90.3327 47.0936 89.5987C47.1854 89.1095 47.1548 88.6202 47.0019 88.1309L46.6961 86.0514C45.9927 81.281 44.2497 76.6328 41.9867 72.2904L41.0693 70.9143Z" fill="#B26D46"/>
<path d="M45.5641 84.125C45.4724 84.7671 45.5335 85.3482 45.7782 85.8374C46.3592 86.9383 47.2154 88.0086 47.9494 88.8037C47.7659 88.9872 47.5824 89.2012 47.3683 89.3847C46.4815 90.1798 45.3501 91.0055 43.9128 91.6782C43.4235 91.8923 42.9342 92.1063 42.3838 92.2898C42.7813 91.5253 44.8608 89.6294 44.8608 89.6294C44.8608 89.6294 43.6376 86.816 44.4021 83.758C44.8302 82.0455 45.8699 80.2413 48.1023 78.8346C48.0717 78.8652 45.9005 81.7703 45.5641 84.125Z" fill="#A04A3E"/>
<path d="M81.3125 69.5381C81.4654 69.8744 81.6183 70.1191 81.71 70.272C81.7712 70.3943 81.8324 70.4555 81.8324 70.4555C81.8324 70.4555 81.8629 70.4555 81.9547 70.4249C82.0464 70.3943 82.2299 70.3637 82.4134 70.3026C82.658 69.4463 82.7192 68.5901 82.6886 67.7338C82.658 67.1834 82.5969 66.633 82.5051 66.0825C82.2911 66.5718 82.1076 67.0917 81.9547 67.6115L81.5266 68.9265C81.4348 69.0794 81.3431 69.2934 81.3125 69.5381Z" fill="#B58967"/>
<path opacity="0.5" d="M56.3288 86.7241C56.5429 87.0299 56.6958 87.2439 56.7875 87.3663C56.8181 87.4274 56.8487 87.4274 56.8487 87.4274C56.8487 87.4274 56.9098 87.3968 57.0322 87.3663C57.3074 87.2745 57.8578 87.091 58.5306 86.7547C60.2431 85.929 62.9035 84.1859 64.8912 80.975C64.7383 81.0056 64.5854 81.0362 64.4937 81.0668C64.3714 81.0973 64.3102 81.0974 64.3102 81.0974C64.3102 81.0974 64.2796 81.0668 64.2491 80.975C63.9433 81.0668 63.7904 80.7304 63.7904 80.2717C63.7904 80.2105 63.7904 80.1799 63.7904 80.1188C63.8209 79.7212 63.9433 79.3237 64.1267 78.9567L64.7689 77.1219C65.0747 76.2657 65.4111 75.4094 65.7781 74.5532C65.9004 75.2871 65.9921 76.0211 65.9921 76.755C65.9921 78.1922 65.6863 79.6295 64.8912 80.9445L64.8607 80.975C65.1359 80.9139 65.5028 80.7915 65.931 80.6387C67.6129 80.027 70.2733 78.7121 72.5057 75.9599C72.6586 75.7764 72.7809 75.5929 72.9032 75.4095C73.0561 75.7764 73.209 76.1128 73.3313 76.388C73.5454 76.8161 73.7595 77.1525 73.8818 77.3666C73.9735 77.5195 74.0347 77.6112 74.0347 77.6112C74.0347 77.6112 74.0958 77.6112 74.1876 77.5806C74.4322 77.5195 74.9215 77.3666 75.5331 77.0914C77.0927 76.4186 79.5085 75.0425 81.4045 72.2903C81.8326 71.6787 82.1078 71.0059 82.3219 70.3332C82.1078 70.3943 81.9549 70.4555 81.8632 70.4555C81.7714 70.4861 81.7409 70.4861 81.7409 70.4861C81.7409 70.4861 81.7103 70.4249 81.6185 70.3026C81.3433 70.4861 81.221 70.2108 81.221 69.8439C81.221 69.7521 81.221 69.6604 81.221 69.5687C81.2516 69.324 81.3127 69.11 81.4351 68.8959L81.8632 67.581C82.0161 67.0611 82.1996 66.5718 82.4136 66.0519C82.5054 66.6024 82.5665 67.1528 82.5971 67.7033C82.6277 68.5595 82.5665 69.4463 82.3219 70.272C82.4748 70.2108 82.6583 70.1497 82.8723 70.0885C84.0344 69.6298 85.8997 68.6207 87.3982 66.6024C89.1718 64.2171 88.1627 60.731 87.5205 59.1103C87.4899 59.0491 87.4593 58.988 87.4288 58.8962C87.2453 58.4681 87.123 58.1929 87.123 58.1929C87.123 58.1929 83.2087 59.4161 81.4045 62.6576C81.3433 62.5047 81.2822 62.3518 81.221 62.2294C81.1904 62.1377 81.1598 62.046 81.0987 61.9542C80.8235 61.3732 80.64 61.0368 80.64 61.0368C80.64 61.0368 75.8083 62.7187 73.4537 66.7859C73.3008 66.266 73.1479 65.7767 73.0255 65.3792C72.995 65.2874 72.9644 65.1957 72.9338 65.104C72.6892 64.4618 72.5363 64.0948 72.5363 64.0948C72.5363 64.0948 66.9707 65.6544 64.2491 70.1191C64.1573 69.905 64.035 69.691 63.9433 69.5075C63.8821 69.4158 63.8515 69.2934 63.7904 69.2017C63.454 68.5595 63.2093 68.162 63.2093 68.162C63.2093 68.162 63.087 68.2231 62.873 68.3149C62.8424 68.3149 62.8424 68.3455 62.8118 68.3455C61.2828 69.0488 56.9404 73.2994 55.9313 77.6724C55.0139 82.0759 55.4114 85.3174 56.3288 86.7241Z" fill="#966A4D"/>
<path d="M81.3124 69.5379C81.3124 69.6296 81.2818 69.7214 81.3124 69.8131C81.3124 70.1801 81.4347 70.4247 81.71 70.2718C81.8017 70.2106 81.8934 70.1189 82.0158 69.9966C82.0158 69.9966 82.2604 69.018 82.6885 67.7031C82.6579 67.1526 82.5968 66.6022 82.505 66.0518C82.291 66.541 82.1075 67.0609 81.9546 67.5808L81.5265 68.8957C81.4347 69.0792 81.343 69.2932 81.3124 69.5379Z" fill="#B58967"/>
<path d="M86.0522 69.2017C86.0827 69.6604 86.1745 70.0274 86.2051 70.1803C86.2356 70.2414 86.2356 70.3026 86.2356 70.3026C86.2356 70.3026 89.9664 70.6696 93.0244 67.9174C96.4188 64.8899 95.6543 60.2723 95.6543 60.2723C95.6543 60.2723 95.3485 60.2723 94.8286 60.3335C94.7675 60.3335 94.6757 60.3641 94.584 60.3641C92.688 60.6087 88.8349 61.4038 87.3365 63.9419C86.0827 66.0826 85.9604 68.0397 86.0522 69.2017Z" fill="#EFB081"/>
<path d="M95.6851 60.2723C95.6851 60.2723 92.6576 62.7799 90.2724 65.5933C88.4988 67.6421 86.9392 70.1191 86.9392 70.1191C86.2664 70.5778 86.1747 70.2109 86.297 69.7827C86.3887 69.4769 86.5722 69.1711 86.8168 68.9571L87.6425 67.8256C89.5385 65.1957 92.0155 62.9022 94.7065 60.9145L95.6851 60.2723Z" fill="#B26D46"/>
<path opacity="0.64" d="M86.0525 69.2018C86.0831 69.6605 86.1748 70.0274 86.2054 70.1803C87.1534 68.4679 88.4072 65.9909 89.0188 64.1866C89.8139 61.832 93.0859 60.7617 94.6149 60.3641C92.719 60.6088 88.8659 61.4039 87.3675 63.942C86.0831 66.0826 85.9608 68.0397 86.0525 69.2018Z" fill="#FFD997"/>
<path d="M82.8413 72.229C82.8413 72.229 82.8413 72.2596 82.8413 72.229C82.3826 72.4431 82.0157 72.5348 81.8322 72.596C81.7405 72.6266 81.7099 72.6266 81.7099 72.6266C81.7099 72.6266 79.5387 69.8744 80.6396 66.0824C81.8628 61.9235 86.6639 60.2111 86.6639 60.2111C86.6639 60.2111 86.8168 60.4557 87.0002 60.9144C87.0308 60.9756 87.0614 61.0367 87.092 61.0979C87.7953 62.7186 88.9268 66.1436 87.2449 68.59C85.8076 70.7 84.0034 71.7398 82.8413 72.229Z" fill="#EFB081" stroke="#BF8458" stroke-width="0.5889" stroke-miterlimit="10"/>
<path d="M86.6646 60.3029C86.6646 60.3029 84.7075 63.5749 83.4231 66.9082C82.4752 69.3851 81.8636 72.1679 81.8636 72.1679C81.4049 72.7795 81.1908 72.5043 81.1602 72.015C81.1296 71.6786 81.2214 71.3728 81.3437 71.067L81.7107 69.7521C82.5669 66.6941 84.0959 63.789 85.9613 61.1285L86.6646 60.3029Z" fill="#B26D46"/>
<path d="M75.7772 79.4153C75.7772 79.4153 75.7772 79.4459 75.7772 79.4153C75.1656 79.7211 74.6763 79.874 74.4317 79.9352C74.34 79.9658 74.2788 79.9963 74.2788 79.9963C74.2788 79.9963 71.2514 76.3879 72.5357 71.3116C73.973 65.6849 80.3031 63.269 80.3031 63.269C80.3031 63.269 80.5171 63.6054 80.7924 64.1864C80.8229 64.2782 80.8841 64.3394 80.9147 64.4311C81.9238 66.5411 83.6057 71.0975 81.4651 74.4308C79.6609 77.2441 77.2756 78.712 75.7772 79.4153Z" fill="#EFB081" stroke="#BF8458" stroke-width="1.1779" stroke-miterlimit="10"/>
<path d="M80.3337 63.3607C80.3337 63.3607 77.8567 67.7948 76.2971 72.2901C75.1657 75.6233 74.4623 79.3847 74.4623 79.3847C73.8507 80.2103 73.5755 79.8434 73.5143 79.2012C73.4838 78.7731 73.5449 78.3449 73.7284 77.9168L74.1871 76.1432C75.1963 72.0455 77.0922 68.1006 79.4469 64.4922L80.3337 63.3607Z" fill="#B26D46"/>
<path d="M81.9851 70.853C81.6487 71.2199 81.4652 71.4952 81.3429 71.6481C81.3123 71.7092 81.2817 71.7398 81.2817 71.7398C81.2817 71.7398 83.7587 74.2779 88.1011 74.1862C92.9022 74.0945 95.8379 70.2719 95.8379 70.2719C95.8379 70.2719 95.5932 70.0885 95.1651 69.8132C95.1039 69.7827 95.0428 69.7215 94.9816 69.6909C93.3915 68.7124 89.9359 66.9081 86.9085 67.8255C84.3703 68.6206 82.8107 69.9662 81.9851 70.853Z" fill="#BF8458"/>
<path d="M73.7287 76.7243C73.3311 77.2442 73.0865 77.6417 72.9948 77.8558C72.9336 77.9475 72.9336 78.0087 72.9336 78.0087C72.9336 78.0087 76.542 81.1585 82.3217 80.608C88.6823 79.9964 92.1379 74.6449 92.1379 74.6449C92.1379 74.6449 91.8015 74.4308 91.1899 74.0944C91.0982 74.0333 91.0064 74.0027 90.9147 73.9415C88.7129 72.7795 83.8813 70.7306 79.967 72.2596C76.6032 73.5134 74.6767 75.44 73.7287 76.7243Z" fill="#BF8458"/>
<path d="M83.0865 71.0365C82.7195 71.3728 82.5054 71.6481 82.4137 71.801C82.3525 71.8621 82.3525 71.8927 82.3525 71.8927C82.3525 71.8927 84.6766 74.5532 89.019 74.7061C93.8201 74.859 97.0004 71.1894 97.0004 71.1894C97.0004 71.1894 96.7558 71.0059 96.3582 70.7001C96.2971 70.6695 96.2359 70.6083 96.1747 70.5778C94.6763 69.5075 91.3125 67.5503 88.2239 68.2842C85.594 68.9264 83.9427 70.1802 83.0865 71.0365Z" fill="#EFB081"/>
<path d="M96.9996 71.1893C96.9996 71.1893 92.8407 70.9447 88.957 71.2811C86.0825 71.5257 82.9939 72.1985 82.9939 72.1985C82.1682 72.0762 82.3823 71.7704 82.841 71.5563C83.1468 71.4034 83.5138 71.3423 83.8807 71.3117L85.3792 71.067C88.8347 70.5166 92.4126 70.5472 95.8681 70.9447L96.9996 71.1893Z" fill="#B26D46"/>
<path opacity="0.64" d="M83.0859 71.0365C82.7189 71.3728 82.5048 71.6481 82.4131 71.801C84.462 71.2199 87.3059 70.3637 89.2019 69.538C91.6483 68.4371 94.798 69.8438 96.1741 70.5778C94.6757 69.5075 91.3119 67.5503 88.2233 68.2842C85.5934 68.9264 83.9421 70.1802 83.0859 71.0365Z" fill="#FFD997"/>
<path d="M65.2884 80.6692C64.7992 81.1279 64.5239 81.5255 64.371 81.709C64.3099 81.8007 64.2793 81.8313 64.2793 81.8313C64.2793 81.8313 67.429 85.4397 73.3004 85.6232C79.7834 85.8067 84.0952 80.8833 84.0952 80.8833C84.0952 80.8833 83.7894 80.6081 83.2389 80.2105C83.1472 80.1494 83.086 80.0882 82.9943 80.0271C80.9454 78.5898 76.4196 75.9293 72.2301 76.9385C68.6828 77.8253 66.4505 79.5072 65.2884 80.6692Z" fill="#BF8458"/>
<path d="M74.6769 77.2442C74.6463 77.2442 74.6463 77.2442 74.6769 77.2442C74.2794 77.7641 74.0347 78.1616 73.943 78.3757C73.8818 78.4674 73.8818 78.5286 73.8818 78.5286C73.8818 78.5286 77.4903 81.6783 83.2699 81.1279C89.6306 80.5163 93.0861 75.1648 93.0861 75.1648C93.0861 75.1648 92.7497 74.9507 92.1381 74.6143C92.0464 74.5532 91.9547 74.5226 91.8629 74.4614C89.6612 73.2994 84.8295 71.2505 80.9153 72.7795C77.5514 74.0333 75.6249 75.9599 74.6769 77.2442Z" fill="#EFB081"/>
<path d="M93.0251 75.1342C93.0251 75.1342 87.5207 75.5012 82.4138 76.6021C78.6525 77.4277 74.7382 78.8038 74.7382 78.8038C73.6373 78.7733 73.8208 78.3451 74.4018 77.9782C74.7994 77.7335 75.2581 77.5806 75.7168 77.4889L77.6433 76.9079C82.0774 75.5929 86.7868 75.0425 91.4655 74.9813L93.0251 75.1342Z" fill="#B26D46"/>
<path opacity="0.64" d="M74.6773 77.2442C74.6467 77.2442 74.6467 77.2442 74.6773 77.2442C74.2797 77.7641 74.0351 78.1616 73.9434 78.3757C76.5121 77.2748 80.09 75.6541 82.414 74.2474C85.4109 72.4126 89.845 73.6969 91.8327 74.4614C89.6309 73.2994 84.7993 71.2505 80.885 72.7795C77.5518 74.0333 75.6253 75.9599 74.6773 77.2442Z" fill="#FFD997"/>
<path d="M65.9916 80.608C65.5023 81.0667 65.2271 81.4642 65.0742 81.6477C65.013 81.7394 64.9824 81.77 64.9824 81.77C64.9824 81.77 68.1322 85.3784 74.0035 85.5619C80.4865 85.7454 84.7983 80.822 84.7983 80.822C84.7983 80.822 84.4925 80.5468 83.9421 80.1493C83.8503 80.0881 83.7892 80.0269 83.6974 79.9658C81.6486 78.5285 77.1227 75.868 72.9332 76.8772C69.386 77.764 67.1536 79.4459 65.9916 80.608Z" fill="#BF8458"/>
<path d="M65.8085 81.3726C65.8085 81.3726 65.8085 81.4032 65.8085 81.3726C65.3192 81.8313 65.044 82.2289 64.8911 82.4123C64.8299 82.5041 64.7993 82.5347 64.7993 82.5347C64.7993 82.5347 67.9491 86.1431 73.8204 86.3266C80.3034 86.5101 84.6152 81.5867 84.6152 81.5867C84.6152 81.5867 84.3094 81.3115 83.759 80.9139C83.6672 80.8528 83.6061 80.7916 83.5143 80.7304C81.4655 79.2932 76.9396 76.6327 72.7501 77.6418C69.2028 78.5287 66.9705 80.2411 65.8085 81.3726Z" fill="#EFB081"/>
<path d="M84.6153 81.6173C84.6153 81.6173 79.0191 81.281 73.7288 81.7397C69.8145 82.076 65.6556 82.9934 65.6556 82.9934C64.5242 82.81 64.7994 82.4124 65.4416 82.1066C65.8697 81.8926 66.359 81.8008 66.8483 81.8008L68.8666 81.4644C73.5147 80.6999 78.377 80.7611 83.0863 81.3115L84.6153 81.6173Z" fill="#B26D46"/>
<path opacity="0.64" d="M65.8085 81.3725C65.8085 81.3725 65.8085 81.4031 65.8085 81.3725C65.3192 81.8312 65.044 82.2288 64.8911 82.4123C67.6433 81.6478 71.4964 80.4857 74.0651 79.3543C77.3678 77.8864 81.649 79.7518 83.5144 80.7609C81.4655 79.3237 76.9397 76.6632 72.7502 77.6724C69.2029 78.5286 66.9706 80.2411 65.8085 81.3725Z" fill="#FFD997"/>
<path d="M66.2673 83.3297C66.2673 83.3297 66.2367 83.3297 66.2673 83.3297C65.5946 83.6049 65.0747 83.7272 64.8301 83.7884C64.7077 83.8189 64.6466 83.8189 64.6466 83.8189C64.6466 83.8189 61.7109 79.8435 63.4845 74.5532C65.4417 68.743 72.2916 66.5718 72.2916 66.5718C72.2916 66.5718 72.4751 66.9387 72.7503 67.5809C72.7809 67.6727 72.8115 67.7644 72.8726 67.8561C73.7594 70.1496 75.1967 75.0425 72.6891 78.4368C70.518 81.2502 67.9186 82.6569 66.2673 83.3297Z" fill="#EFB081" stroke="#BF8458" stroke-width="1.1779" stroke-miterlimit="10"/>
<path d="M72.1692 66.6328C72.1692 66.6328 69.2947 71.1892 67.3987 75.868C65.992 79.3235 65.0746 83.2378 65.0441 83.2684C64.3713 84.1246 64.0655 83.6965 64.0349 83.0237C64.0043 82.565 64.1267 82.1063 64.3407 81.7088L64.9217 79.8434C66.2367 75.5622 68.469 71.5256 71.1295 67.7949L72.1692 66.6328Z" fill="#B26D46"/>
<path d="M54.616 83.972C53.9738 84.3389 53.5457 84.6447 53.3316 84.7976C53.2399 84.8588 53.1787 84.9199 53.1787 84.9199C53.1787 84.9199 55.2582 89.4458 61.2824 91.1889C67.9183 93.1154 73.9732 89.1706 73.9732 89.1706C73.9732 89.1706 73.7285 88.8036 73.3004 88.2532C73.2392 88.1614 73.1475 88.1003 73.0863 88.0085C70.9152 84.5835 67.0926 82.076 62.4445 82.0454C58.5302 81.9537 56.2061 83.0851 54.616 83.972Z" fill="#BF8458"/>
<path d="M54.0962 86.2347C54.0962 86.2347 54.6466 87.4273 55.9616 88.8034C56.1451 88.9869 56.3285 89.2009 56.5426 89.3844C57.4294 90.1795 58.5609 91.0052 59.9981 91.6779C60.4874 91.892 60.9767 92.106 61.5272 92.2895C61.7412 92.3507 61.9553 92.4424 62.1693 92.5036C68.8052 94.4301 74.8601 90.4853 74.8601 90.4853C74.8601 90.4853 74.6154 90.1183 74.1873 89.5679C74.1261 89.4762 74.065 89.415 73.9732 89.3233C72.3219 87.305 68.53 83.3601 63.8512 83.3296C62.3834 83.299 61.0685 83.4519 59.937 83.6965C59.7841 83.7271 59.6618 83.7577 59.5089 83.7883C59.4477 83.7883 59.4171 83.8188 59.356 83.8188C58.989 83.9106 58.6526 84.0023 58.3162 84.1246C57.1236 84.4916 56.1756 84.9503 55.5029 85.3173C54.8607 85.6842 54.4326 85.99 54.2185 86.1429C54.1574 86.2041 54.0962 86.2347 54.0962 86.2347Z" fill="#EFB081"/>
<path d="M74.8902 90.4853C74.8902 90.4853 69.2023 88.6505 63.6062 87.7637C59.4779 87.0909 54.8603 86.9074 54.8603 86.9074C53.7594 86.4181 54.1875 86.0818 54.9214 85.9594C55.4413 85.8677 55.9612 85.8983 56.481 85.99L58.6828 86.1735C63.7285 86.6322 68.7131 87.9471 73.4224 89.7514L74.8902 90.4853Z" fill="#B26D46"/>
<path opacity="0.64" d="M55.5329 85.3173C54.8907 85.6843 54.4626 85.9901 54.2485 86.143C57.3371 86.0818 61.7101 85.8983 64.7069 85.409C68.6212 84.7668 72.3825 87.8249 74.0033 89.3233C72.3519 87.305 68.56 83.3907 63.8813 83.3296C59.967 83.2684 57.1231 84.4305 55.5329 85.3173Z" fill="#FFD997"/>
<path opacity="0.78" d="M60.4262 90.302C59.7534 90.6689 59.203 90.883 58.9278 90.9748C58.8055 91.0053 58.7443 91.0359 58.7443 91.0359C58.7443 91.0359 55.0441 87.0911 56.1756 81.1891C57.4294 74.7062 63.3619 71.4952 63.3619 71.4952C63.3619 71.4952 63.6065 71.8622 63.9735 72.5044C64.0347 72.5961 64.0652 72.6879 64.1264 72.7796C65.4108 75.1343 68.8052 80.3329 66.5728 84.2471C64.7074 87.5804 62.1081 89.4152 60.4262 90.302Z" fill="#BF8458"/>
<path d="M59.0805 89.6593C59.0805 89.6593 59.0499 89.6593 59.0805 89.6593C58.4077 90.0263 57.8573 90.2404 57.5821 90.3321C57.4598 90.3627 57.3986 90.3933 57.3986 90.3933C57.3986 90.3933 53.6984 86.4484 54.8299 80.5465C56.0837 74.0635 63.1477 70.9443 63.1477 70.9443C63.1477 70.9443 63.3923 71.3113 63.7593 71.9535C63.8204 72.0452 63.851 72.137 63.9122 72.2287C65.1965 74.5834 67.4289 79.6902 65.2271 83.6351C63.3617 86.9377 60.7624 88.7725 59.0805 89.6593Z" fill="#EFB081" stroke="#BF8458" stroke-width="1.2749" stroke-miterlimit="10"/>
<path d="M62.8728 70.9142C62.8728 70.9142 60.5181 76.2045 59.2643 81.4643C58.3163 85.348 57.9494 89.6904 57.9494 89.7209C57.3683 90.7301 56.9708 90.3325 56.8485 89.5986C56.7567 89.1093 56.7873 88.6201 56.9402 88.1308L57.246 86.0513C57.9494 81.2808 59.6924 76.6327 61.9554 72.2903L62.8728 70.9142Z" fill="#B26D46"/>
<path d="M58.3775 84.1247C58.4692 84.7669 58.4081 85.3479 58.1634 85.8372C57.5824 86.9381 56.7262 88.0084 55.9923 88.8035C56.1757 88.9869 56.3592 89.201 56.5733 89.3845C57.4601 90.1796 58.5916 91.0052 60.0288 91.678C60.5181 91.892 61.0074 92.1061 61.5578 92.2896C61.1603 91.5251 59.0808 89.6291 59.0808 89.6291C59.0808 89.6291 60.304 86.8158 59.5395 83.7577C59.1114 82.0453 58.0717 80.241 55.8394 78.8344C55.8699 78.8649 58.0411 81.77 58.3775 84.1247Z" fill="#A04A3E"/>
<path d="M59.1419 84.8587C59.1419 85.1033 59.1419 85.348 59.1113 85.5926C59.0196 86.51 58.7444 87.3662 58.3468 88.1307C57.1542 90.4243 54.769 91.9838 52.0168 91.9838C49.2646 91.9838 46.8793 90.4242 45.6867 88.1613C45.5949 87.9778 45.5032 87.7638 45.4115 87.5497C45.3197 87.3051 45.228 87.0604 45.1668 86.8158C44.9833 86.2042 44.8916 85.5314 44.8916 84.8587C44.8916 83.2685 45.4115 81.8007 46.2983 80.608C47.6132 78.865 49.6927 77.7335 52.0168 77.7335C53.821 77.7335 55.5029 78.4063 56.7567 79.5377C56.9096 79.6906 57.0931 79.8435 57.246 79.9964C58.408 81.2502 59.1419 82.9627 59.1419 84.8587Z" fill="#FFBD76"/>
<path d="M58.8668 89.3233C58.4998 91.1275 57.032 92.4119 55.3501 92.259C54.2186 92.1672 53.2706 92.0449 52.3838 92.0143C52.3226 92.0143 52.2921 92.0143 52.2309 92.0143C51.8334 92.0143 51.4664 92.0143 51.0688 92.0755C51.0688 92.0755 51.6804 90.3936 53.974 90.0878C56.2675 89.782 57.1849 87.7943 57.1849 86.1124C57.1849 84.4305 57.3378 83.299 57.4907 82.9015C57.4907 82.8709 57.5212 82.8709 57.5212 82.8709C57.6741 82.8097 58.1634 83.666 58.5304 84.8892C58.9279 86.1124 59.2031 87.7637 58.8668 89.3233Z" fill="#EFB081" stroke="#BF8458" stroke-width="1.0824" stroke-miterlimit="10"/>
<path opacity="0.56" d="M58.8367 89.2314C58.4697 90.9745 57.063 92.1977 55.4728 92.0448C54.372 91.9531 53.4851 91.8308 52.6289 91.8308C52.6289 91.8308 53.5769 91.2803 54.8918 90.9133C56.9407 90.3323 57.5217 89.4455 57.8275 88.1306C58.0722 87.0908 57.4606 84.5527 57.5829 83.0237C57.7358 82.9625 58.1945 83.7882 58.5614 84.9502C58.8978 86.1734 59.1425 87.7636 58.8367 89.2314Z" fill="#FFD997"/>
<path d="M51.6498 91.3112C51.6498 91.4335 51.558 91.4947 51.4357 91.5252C50.9159 91.6781 49.6315 91.4641 48.6529 91.831C47.3991 92.2897 45.5643 91.0971 45.3809 88.1309C45.3809 88.1309 46.2983 90.302 48.3777 90.4244C50.3043 90.5161 51.6804 90.7607 51.6498 91.3112Z" fill="#BF8458"/>
<path d="M51.7718 91.9229C51.7718 92.0452 51.6801 92.1064 51.5578 92.1369C51.0379 92.2898 49.7536 92.0758 48.775 92.4427C47.5212 92.9014 45.6864 91.7088 45.5029 88.7426C45.5029 88.7426 46.6038 90.9137 48.4998 91.0361C50.4263 91.1278 51.8024 91.3724 51.7718 91.9229Z" fill="#EFB081" stroke="#BF8458" stroke-width="0.4606" stroke-miterlimit="10"/>
<path opacity="0.32" d="M51.6195 92.0145C51.1608 92.1674 49.6624 91.984 48.745 92.3203C47.6135 92.7179 45.7481 91.7699 45.5952 89.0789C45.5952 89.0789 46.1457 91.0054 47.4912 91.3418C48.8367 91.6782 50.1822 91.1583 51.2219 91.8005C51.2525 91.7699 51.5277 91.9534 51.6195 92.0145Z" fill="#FFD997"/>
<path opacity="0.65" d="M51.6802 86.5406C54.2642 86.5406 56.359 84.6649 56.359 82.3511C56.359 80.0373 54.2642 78.1616 51.6802 78.1616C49.0962 78.1616 47.0015 80.0373 47.0015 82.3511C47.0015 84.6649 49.0962 86.5406 51.6802 86.5406Z" fill="#FFD997"/>
</svg>
