<svg width="18" height="14" viewBox="0 0 18 14" fill="none" xmlns="http://www.w3.org/2000/svg">
<path d="M16.1683 3.94287C16.1683 3.78984 16.1683 3.6375 16.1575 3.48585C16.8803 2.98535 17.5042 2.36563 18 1.65572C17.326 1.94165 16.611 2.12916 15.8789 2.21199C16.6498 1.77013 17.2268 1.07515 17.5025 0.256404C16.7776 0.66824 15.9845 0.958481 15.1574 1.1146C14.0127 -0.050759 12.1937 -0.335985 10.7205 0.418862C9.24723 1.17371 8.48612 2.78091 8.86392 4.33922C5.89456 4.19671 3.12802 2.85397 1.2528 0.645179C0.272608 2.26069 0.773271 4.32741 2.39616 5.36493C1.80845 5.34825 1.23356 5.19647 0.72 4.92239C0.72 4.93686 0.72 4.95203 0.72 4.96719C0.720481 6.65022 1.95966 8.09981 3.6828 8.43307C3.13911 8.57503 2.56866 8.59578 2.01528 8.49373C2.49908 9.93401 3.88553 10.9207 5.46552 10.9491C4.15781 11.933 2.54236 12.4672 0.87912 12.4656C0.585291 12.465 0.291747 12.448 0 12.4146C1.68886 13.4522 3.65394 14.0026 5.66064 14C12.4531 14.0027 16.1683 8.61505 16.1683 3.94287Z" fill="white"/>
</svg>
