<svg width="21" height="20" viewBox="0 0 21 20" fill="none" xmlns="http://www.w3.org/2000/svg">
<g clip-path="url(#clip0)">
<path d="M1.76758 3.75V7.08333C1.76758 8.46417 4.00591 9.58333 6.76758 9.58333C9.52924 9.58333 11.7676 8.46417 11.7676 7.08333V3.75" stroke="#636E7E" stroke-miterlimit="10"/>
<path d="M1.76758 7.0835V10.4168C1.76758 11.7977 4.00591 12.9168 6.76758 12.9168C8.04841 12.9168 9.21591 12.6752 10.1009 12.2793" stroke="#636E7E" stroke-miterlimit="10"/>
<path d="M1.76758 10.4165V13.7498C1.76758 15.1307 4.00591 16.2498 6.76758 16.2498C8.04841 16.2498 9.21674 16.009 10.1009 15.6132" stroke="#636E7E" stroke-miterlimit="10"/>
<path d="M6.76758 6.25C9.529 6.25 11.7676 5.13071 11.7676 3.75C11.7676 2.36929 9.529 1.25 6.76758 1.25C4.00615 1.25 1.76758 2.36929 1.76758 3.75C1.76758 5.13071 4.00615 6.25 6.76758 6.25Z" stroke="#636E7E" stroke-miterlimit="10" stroke-linecap="square"/>
<path d="M10.1006 10.4165V13.7498C10.1006 15.1307 12.3389 16.2498 15.1006 16.2498C17.8623 16.2498 20.1006 15.1307 20.1006 13.7498V10.4165" stroke="#636E7E" stroke-miterlimit="10"/>
<path d="M10.1006 13.75V17.0833C10.1006 18.4642 12.3389 19.5833 15.1006 19.5833C17.8623 19.5833 20.1006 18.4642 20.1006 17.0833V13.75" stroke="#636E7E" stroke-miterlimit="10"/>
<path d="M15.1006 12.9165C17.862 12.9165 20.1006 11.7972 20.1006 10.4165C20.1006 9.03579 17.862 7.9165 15.1006 7.9165C12.3392 7.9165 10.1006 9.03579 10.1006 10.4165C10.1006 11.7972 12.3392 12.9165 15.1006 12.9165Z" stroke="#636E7E" stroke-miterlimit="10" stroke-linecap="square"/>
</g>
<defs>
<clipPath id="clip0">
<rect width="20" height="20" fill="white" transform="translate(0.517578)"/>
</clipPath>
</defs>
</svg>
