<svg width="20" height="20" viewBox="0 0 20 20" fill="none" xmlns="http://www.w3.org/2000/svg">
<path d="M14.722 5.53286C14.722 7.58906 13.0559 10.7441 10.9997 10.7441C8.94345 10.7441 7.27734 7.58906 7.27734 5.53286C7.27734 4.54564 7.66951 3.59885 8.36758 2.90079C9.06565 2.20272 10.0124 1.81055 10.9997 1.81055C11.9869 1.81055 12.9337 2.20272 13.6317 2.90079C14.3298 3.59885 14.722 4.54564 14.722 5.53286V5.53286Z" stroke="#636E7E" stroke-linecap="round" stroke-linejoin="round"/>
<path d="M5.38228 11.4883C4.18122 12.6215 3.3508 14.0913 3 15.7049C5.35426 17.3225 8.14357 18.1884 11 18.1884C13.8564 18.1884 16.6457 17.3225 19 15.7049C18.6492 14.0913 17.8188 12.6215 16.6177 11.4883" stroke="#636E7E" stroke-linecap="round" stroke-linejoin="round"/>
</svg>
