<svg width="3" height="10" viewBox="0 0 3 10" fill="none" xmlns="http://www.w3.org/2000/svg">
<path d="M2.2885 7.01681H0.711505L0 0H3L2.2885 7.01681ZM2.57522 9.07563C2.57522 9.31839 2.47434 9.53315 2.27257 9.71989C2.0708 9.90663 1.81593 10 1.50796 10C1.21062 10 0.955752 9.9113 0.743363 9.73389C0.541593 9.54715 0.440708 9.3324 0.440708 9.08964C0.440708 8.83753 0.541593 8.62278 0.743363 8.44538C0.945133 8.25864 1.2 8.16527 1.50796 8.16527C1.81593 8.16527 2.0708 8.25397 2.27257 8.43137C2.47434 8.60878 2.57522 8.82353 2.57522 9.07563Z" fill="white"/>
</svg>
