<svg xmlns="http://www.w3.org/2000/svg" width="60" height="48" viewBox="0 0 60 48">
    <path fill="#FFBB4E" fill-rule="evenodd" d="M15 17h30v-2H15v2zm3 12h24v-9H18v9zm6-16h12v-2H24v2zm25-7v28H11V6c0-.552.449-1 1-1h36a1 1 0 0 1 1 1zm2 0c0-1.654-1.346-3-3-3H12c-1.654 0-3 1.346-3 3v30h42V6zm3 0v33H6V6a6 6 0 0 1 6-6h36a6 6 0 0 1 6 6zM35.354 26.659l-1.502-1.511L35 24l-5-2 2 5 1.145-1.145 1.501 1.509.708-.705zM60 42v.01c0 3.31-2.68 5.99-5.99 5.99H5.99C2.68 48 0 45.32 0 42.01V42h24v.01c0 1.65 1.34 2.99 2.99 2.99h6.02c1.65 0 2.99-1.34 2.99-2.99V42h24z"/>
</svg>
