<svg xmlns="http://www.w3.org/2000/svg" width="60" height="48" viewBox="0 0 60 48">
    <path fill="#FFBB4E" fill-rule="evenodd" d="M30 0l-3.526 4.145-5.033 2.073 2.853 4.636.417 5.427L30 14.999l5.29 1.282.416-5.427 2.854-4.636-5.033-2.073L30 0zm16.355 7.313L42.58 8.868l2.141 3.476.312 4.071L49 15.454l3.968.961.311-4.071 2.142-3.476-3.775-1.555L49 4.204l-2.645 3.109zm-38 0L4.58 8.868l2.141 3.476.312 4.071L11 15.454l3.968.961.312-4.071 2.14-3.476-3.774-1.555L11 4.204 8.355 7.313zM55 14.999h2v-3h-2v3zm-18 0h6v-3h-6v3zm-20 0h6v-3h-6v3zm-14 0h2.001v-3H3v3zM0 48h60V18H0v30zm3-3h54V21H3v24zm2.001-2.001H55v-20H5.001v20zm38-18h9.489l-6.59 16h-2.15L49.51 27h-6.509v-2.001zm-5.001 16h2v-16h-2v16zm-12.999-16h9.489l-6.59 16h-2.15L31.51 27h-6.509v-2.001zm-5.001 16h2v-16h-2v16zm-12-16h9.491l-6.59 16H8.75L14.51 27H8v-2.001z"/>
</svg>
