<svg width="97" height="32" viewBox="0 0 97 32" fill="none" xmlns="http://www.w3.org/2000/svg">
<path d="M0 1.71332C2.14984 0.572662 4.56281 -0.0416175 6.9759 0.00219223C10.6613 0.00219223 14.3028 1.62559 16.7598 4.34574C17.1108 4.74058 17.4618 5.13548 17.725 5.61811C19.3922 7.94341 20.3136 10.7514 20.4891 13.6032C20.2258 13.6032 16.5404 13.7348 15.6191 13.7348C13.2938 13.7348 11.0123 13.2961 8.86249 12.4624C7.76564 12.0237 6.75657 11.4972 5.83518 10.7953C4.60673 9.87387 3.59761 8.73315 2.80793 7.46078C1.62334 5.66197 0.87747 3.68759 0 1.71332Z" fill="url(#paint0_radial)"/>
<path d="M17.8135 7.24127C17.8135 9.6105 17.1554 11.8042 16.0586 13.7785C17.3749 13.7346 20.2705 13.6469 20.4899 13.6469C20.3144 10.7951 19.3931 7.98721 17.7259 5.66184C17.7259 5.66184 17.7259 5.61792 17.6819 5.61792C17.7697 6.10061 17.8135 6.67097 17.8135 7.24127Z" fill="url(#paint1_linear)"/>
<path d="M13.6418 14.8316C15.5723 14.4806 20.4862 14.7877 20.4862 14.7877C20.3546 17.7711 19.3455 20.7546 17.5028 23.1677C15.9234 25.2297 13.7297 26.8092 11.2727 27.6428C7.58727 28.9151 3.4193 28.5203 0.0410156 26.6776C0.830756 24.8348 1.57669 22.9483 2.62956 21.2372C3.63868 19.4823 5.08657 17.9905 6.79759 16.9375C8.85964 15.7091 11.2727 15.0948 13.6418 14.8316Z" fill="url(#paint2_radial)"/>
<path d="M15.4874 14.7C12.8549 18.5609 8.2044 21.1055 2.93952 21.1055C2.85174 21.1055 2.80793 21.1055 2.7202 21.1055C2.67628 21.1933 2.63235 21.2371 2.58855 21.3249C1.53556 23.036 0.78974 24.9225 0 26.7652C3.37829 28.6079 7.59012 29.0028 11.2317 27.7305C13.6887 26.8969 15.9262 25.3174 17.4618 23.2553C19.3045 20.8422 20.2697 17.8588 20.4452 14.8754C20.4891 14.8316 17.6811 14.6122 15.4874 14.7Z" fill="url(#paint3_linear)"/>
<path d="M19.9187 25.3614C19.5677 25.142 19.0851 25.0543 18.6463 25.142C17.9005 25.2737 17.2862 25.9318 17.1984 26.6776C17.1108 27.3357 17.4178 27.9937 17.9444 28.3448C18.5147 28.7834 19.3922 28.7834 19.9626 28.3448C20.4013 28.0377 20.7084 27.5111 20.7523 26.9847C20.8401 26.3705 20.4891 25.7124 19.9187 25.3614ZM20.3574 27.2479C20.182 27.95 19.48 28.4326 18.7779 28.3009C18.1198 28.2132 17.5934 27.5989 17.5934 26.9408C17.5495 26.2827 18.076 25.6246 18.7341 25.5369C19.0851 25.493 19.436 25.5369 19.7431 25.7124C20.2258 25.9756 20.5329 26.6338 20.3574 27.2479ZM19.3922 27.0725C19.6994 26.897 19.8749 26.5022 19.6555 26.195C19.3484 25.7563 18.778 25.9756 18.3393 25.9318C18.3393 26.546 18.3393 27.1602 18.3393 27.7745C18.4709 27.7745 18.5587 27.7745 18.6903 27.7745C18.6903 27.5551 18.6903 27.3357 18.6903 27.0725C18.778 27.0725 18.8657 27.0725 18.9974 27.0725C19.129 27.2918 19.2168 27.5112 19.3484 27.7306C19.48 27.7306 19.6115 27.7306 19.7871 27.7306C19.6554 27.555 19.5239 27.2918 19.3922 27.0725ZM18.6902 26.8093C18.6902 26.6338 18.6902 26.4144 18.6902 26.2389C18.9096 26.2389 19.3045 26.1951 19.3483 26.546C19.3483 26.8531 18.9534 26.8093 18.6902 26.8093Z" fill="#AAAAAA"/>
<path d="M40.3648 14.8753C40.5842 14.8753 40.8036 14.8753 41.023 14.8753C41.1108 16.7181 41.2424 18.5608 41.374 20.3596C41.1546 20.3596 40.9353 20.3596 40.7598 20.3596C40.4088 19.1751 39.97 17.9904 39.1803 16.9814C38.5222 16.1477 37.5131 15.5774 36.4163 15.5774C35.2755 15.5335 34.1348 16.1039 33.4767 16.9814C32.687 18.0781 32.336 19.4822 32.2921 20.7983C32.2921 22.0707 32.2044 23.343 32.5992 24.5276C32.9064 25.449 33.3451 26.4143 34.1348 27.0284C35.1 27.7304 36.4163 27.8182 37.5131 27.511C38.4344 27.2477 39.1803 26.5019 39.4436 25.6244C39.7507 24.8347 39.619 23.9572 39.619 23.1236C39.6629 22.8165 39.3996 22.5533 39.0926 22.5093C38.5222 22.4216 37.9957 22.4655 37.4254 22.4655C37.4254 22.2461 37.4254 22.0267 37.4254 21.8074C39.2242 21.8074 41.023 21.8074 42.8658 21.8074C42.8658 22.0267 42.8658 22.2461 42.8658 22.4655C42.5147 22.4655 42.1637 22.4216 41.8127 22.597C41.5495 22.6848 41.4617 22.9919 41.4617 23.2552C41.4617 25.0101 41.4617 26.7213 41.4617 28.4761C41.2424 28.4761 41.023 28.4761 40.8475 28.4761C40.6281 27.6865 40.4088 26.8968 40.1455 26.1508C39.5312 27.2039 38.566 28.0375 37.3376 28.3007C35.8898 28.6078 34.3103 28.3007 33.0818 27.5109C31.9412 26.8528 31.1076 25.7999 30.5371 24.6153C29.8351 23.2552 29.7035 21.6319 30.0107 20.1402C30.2739 19.131 30.7126 18.2097 31.3707 17.3323C32.1604 16.2793 33.3012 15.4456 34.5735 15.0069C35.6703 14.656 36.855 14.656 37.9517 15.0946C38.566 15.3579 39.1363 15.7089 39.619 16.1476C39.8384 15.7967 40.1016 15.358 40.3648 14.8753ZM68.7951 15.4457C68.4442 15.6212 68.137 15.9722 68.137 16.3671C68.0493 16.9374 68.5757 17.5078 69.1461 17.464C69.7165 17.5078 70.2868 16.9375 70.243 16.3671C70.1991 15.709 69.4094 15.1386 68.7951 15.4457ZM92.7941 19.5699C92.7941 20.1403 92.2677 20.6229 91.6973 20.579C91.3462 20.579 90.9953 20.3596 90.8198 20.0525C90.7321 19.8331 90.6881 19.6138 90.5127 19.4822C89.9423 19.7015 89.4158 20.0087 88.9332 20.4036C89.2403 20.7984 89.5036 21.281 89.5913 21.7637C89.7229 22.5972 89.5037 23.5625 88.8455 24.1329C88.3628 24.5715 87.7925 24.8787 87.1783 25.0542C86.1254 25.4051 85.0285 25.0542 83.9755 25.3613C83.4929 25.4929 83.2297 26.0633 83.4929 26.502C83.7123 26.853 84.1949 26.853 84.5459 26.853C85.6428 26.853 86.7396 26.7652 87.8365 26.853C88.6262 26.9407 89.5475 27.1601 90.0301 27.8621C90.6444 28.7396 90.3811 30.0558 89.6353 30.7577C88.9772 31.4159 88.0997 31.723 87.2222 31.8546C86.3447 31.9862 85.4234 31.9862 84.502 31.8546C83.8 31.723 83.0981 31.5036 82.5716 30.9771C82.2645 30.7139 82.089 30.3189 82.089 29.9242C82.089 29.4416 82.3961 29.0467 82.7472 28.7834C83.1859 28.4764 83.6685 28.3447 84.1511 28.257C83.6246 28.1253 83.0542 27.9059 82.6594 27.4672C82.1767 26.9407 82.2207 26.0633 82.6594 25.5367C83.0104 25.1419 83.493 24.9225 83.9756 24.747C83.5368 24.4837 83.0981 24.1766 82.8348 23.694C82.3084 22.9042 82.3084 21.8074 82.7472 20.9738C83.0981 20.3157 83.7124 19.8331 84.3705 19.5699C85.6867 19.0434 87.2661 19.219 88.4507 20.0525C89.021 19.526 89.6792 19.175 90.3811 18.824C90.776 18.6486 91.2148 18.4292 91.6974 18.473C92.3114 18.473 92.838 18.9556 92.7941 19.5699ZM87.9679 22.2023C87.9679 21.5003 87.7925 20.7983 87.266 20.3157C86.7834 19.8331 86.0375 19.7454 85.4233 19.9647C84.7213 20.228 84.2825 20.93 84.1948 21.6319C84.0632 22.4656 84.1948 23.4308 84.809 24.0888C85.4672 24.7909 86.6956 24.7909 87.3537 24.0888C87.8364 23.6063 87.9679 22.8604 87.9679 22.2023ZM81.9134 27.511C81.9134 27.7304 81.9134 27.9936 81.9134 28.213C80.5972 28.213 79.3248 28.213 78.0525 28.213C78.0525 27.9937 78.0086 27.7304 78.0525 27.511C78.3596 27.511 78.6228 27.511 78.93 27.3794C79.1494 27.2477 79.281 26.9406 79.2371 26.7213C79.2371 25.405 79.2371 24.0888 79.2371 22.7727C79.1932 22.0707 79.1055 21.3248 78.579 20.8422C78.1403 20.4034 77.4383 20.3157 76.8241 20.4034C76.1659 20.5351 75.6394 20.9737 75.2885 21.5442C74.9814 22.1145 74.8498 22.7287 74.8498 23.3869C74.8498 24.4398 74.8498 25.5367 74.8498 26.5897C74.8498 26.8968 74.8937 27.204 75.1569 27.3795C75.4201 27.5111 75.7272 27.5111 76.0343 27.5111C76.0343 27.7304 76.0343 27.9937 76.0343 28.2131C71.5592 28.2131 67.0841 28.2131 62.5651 28.2131C62.5651 27.9937 62.5651 27.7305 62.5651 27.5111C62.9161 27.5111 63.311 27.5549 63.6619 27.3795C63.9252 27.2478 64.0129 26.9407 64.0129 26.6774C64.0129 25.2735 64.0129 23.9134 64.0129 22.5094C64.0129 21.8513 63.8813 21.1493 63.3109 20.7106C62.5212 20.0963 61.2488 20.4035 60.7224 21.237C60.4153 21.7197 60.1959 22.29 60.1081 22.8604C60.1081 24.1766 60.1081 25.4489 60.1081 26.7651C60.1081 27.0283 60.1958 27.2916 60.459 27.4232C60.8101 27.5549 61.205 27.511 61.5559 27.511C61.5559 27.7304 61.5559 27.9936 61.5559 28.213C60.0643 28.213 58.5726 28.213 57.0807 28.213C57.0807 27.9936 57.0807 27.7304 57.0807 27.511C57.4318 27.511 57.7828 27.5549 58.1338 27.4232C58.3531 27.3355 58.5286 27.1161 58.5286 26.8529C58.5286 25.449 58.5286 24.045 58.5286 22.5971C58.4848 21.939 58.397 21.237 57.8705 20.7983C57.3879 20.3595 56.686 20.3595 56.0717 20.5351C55.7207 20.6666 55.4136 20.9299 55.1942 21.237C54.7994 21.8074 54.5799 22.5094 54.5799 23.2114C54.5799 24.396 54.5799 25.5367 54.5799 26.7214C54.5799 26.9406 54.6238 27.2039 54.7993 27.3355C55.1502 27.5549 55.5891 27.4672 55.9839 27.4672C55.9839 27.6866 55.9839 27.9498 55.9839 28.1693C54.229 28.1693 52.474 28.1693 50.719 28.1693C50.3681 28.1253 49.9732 28.1253 49.6222 27.9499C49.2274 27.7305 49.0518 27.2917 48.9202 26.853C48.3937 27.3355 47.9111 27.8621 47.253 28.1253C46.5071 28.4324 45.6297 28.4762 44.8399 28.3008C44.2256 28.1692 43.6115 27.8621 43.2604 27.2917C42.8657 26.6335 42.9534 25.7562 43.3921 25.098C43.7869 24.5277 44.4012 24.1327 45.0154 23.8257C46.2439 23.2553 47.5601 22.9921 48.8325 22.8165C48.8325 22.334 48.8325 21.8074 48.8325 21.3248C48.7447 20.5352 48.0427 19.9648 47.2969 19.8331C46.6387 19.7454 45.9368 19.8331 45.3664 20.1841C45.1908 20.3158 44.9715 20.4912 45.0592 20.7544C45.2348 21.1055 45.5857 21.4126 45.5419 21.8513C45.5419 22.3778 45.0154 22.7727 44.5327 22.7288C43.8747 22.7727 43.3482 22.1145 43.436 21.5004C43.5237 20.5352 44.4012 19.8331 45.2348 19.4822C46.2439 19.0873 47.3846 19.0434 48.4814 19.2628C49.2711 19.4382 49.9731 19.9648 50.2803 20.7106C50.4118 21.0615 50.4118 21.4126 50.4118 21.7636C50.4118 23.2552 50.4118 24.747 50.4118 26.2387C50.4118 26.6335 50.5434 27.1162 50.9821 27.3355C51.377 27.4672 51.8158 27.4233 52.2107 27.4233C52.5178 27.4233 52.8687 27.2917 52.9565 26.9846C53.0004 26.8092 53.0004 26.5898 53.0004 26.4143C53.0004 24.6154 53.0004 22.7727 53.0004 20.9739C53.0004 20.6668 52.9126 20.4036 52.6494 20.2281C52.3862 20.0964 52.0791 20.0526 51.8158 20.0087C51.8158 19.7893 51.8158 19.57 51.8158 19.3506C52.6494 19.3506 53.483 19.2628 54.3166 19.2189C54.4482 19.8332 54.536 20.4475 54.5798 21.0616C55.1063 20.2719 55.8083 19.5261 56.7735 19.3067C57.5194 19.1312 58.3529 19.1752 58.9672 19.6577C59.4937 20.0526 59.757 20.623 59.9325 21.2371C60.4589 20.3158 61.3364 19.4823 62.3894 19.3067C63.1353 19.1751 64.0127 19.2628 64.5831 19.8331C65.2412 20.4913 65.5045 21.4126 65.5045 22.29C65.5045 23.7379 65.5045 25.2296 65.5045 26.6775C65.5045 26.8969 65.5483 27.1162 65.7677 27.2478C66.1187 27.4672 66.6013 27.3795 66.9962 27.4233C67.3471 27.4233 67.742 27.4672 68.1369 27.3795C68.4879 27.3355 68.6633 26.9846 68.6633 26.6774C68.6633 24.8347 68.6633 22.992 68.6633 21.1493C68.6633 20.7983 68.5317 20.4473 68.2246 20.2718C67.8737 20.0963 67.5226 20.0963 67.1278 20.0963C67.1278 19.877 67.1278 19.6137 67.1278 19.3943C68.1807 19.3505 69.2338 19.3505 70.2429 19.2627C70.2429 21.588 70.2429 23.9134 70.2429 26.2387C70.2429 26.5457 70.199 26.8968 70.3745 27.2039C70.55 27.2917 70.7254 27.3794 70.9448 27.3794C71.4713 27.3794 72.0416 27.3794 72.5681 27.3794C72.9191 27.3794 73.314 27.1161 73.314 26.7212C73.314 24.8347 73.314 22.992 73.314 21.1054C73.314 20.7544 73.1824 20.3595 72.8753 20.184C72.5242 19.9646 72.0855 20.0086 71.6468 19.9646C71.6907 19.7453 71.559 19.4821 71.7346 19.3504C72.6559 19.2627 73.6211 19.2627 74.5863 19.1749C74.7179 19.833 74.8057 20.4472 74.8496 21.1054C75.2444 20.4472 75.7709 19.8769 76.5167 19.5698C77.1748 19.2627 77.8768 19.175 78.5789 19.2627C79.1492 19.3505 79.6757 19.5698 80.0267 20.0086C80.5531 20.6229 80.8164 21.4564 80.8164 22.2462C80.8164 23.6501 80.8164 25.0541 80.8164 26.502C80.8164 26.7652 80.8602 27.1162 81.1235 27.2917C81.2992 27.511 81.6063 27.511 81.9134 27.511ZM48.8326 23.6063C47.7357 23.7817 46.6828 23.9572 45.7175 24.5276C45.2349 24.8347 44.84 25.3173 44.7962 25.8877C44.7083 26.4142 44.7962 27.0285 45.1909 27.3794C45.542 27.7304 46.0685 27.8181 46.5511 27.7304C47.4724 27.5988 48.306 26.8968 48.657 26.0193C48.9642 25.2296 48.7886 24.396 48.8326 23.6063ZM85.1162 28.3447C84.5459 28.4762 83.8878 28.7395 83.5807 29.266C83.3174 29.7048 83.4052 30.3628 83.8438 30.7138C84.3265 31.1087 84.9407 31.2403 85.511 31.2841C86.3886 31.328 87.266 31.328 88.0996 30.9771C88.5384 30.7577 88.9771 30.4506 89.1965 30.0119C89.4158 29.5731 89.1965 29.0027 88.8455 28.6956C88.4506 28.3885 87.9241 28.3007 87.3976 28.2569C86.6518 28.213 85.862 28.213 85.1162 28.3447ZM52.2108 0.35317C52.2108 0.572551 52.2108 0.835798 52.2108 1.05518C52.6934 1.09899 53.2199 0.967339 53.7025 1.23064C53.9658 1.36224 54.0973 1.66935 54.0973 1.93259C54.0973 5.26701 54.0973 8.55757 54.0973 11.8481C54.0973 12.1552 54.0096 12.4623 53.7025 12.55C53.3953 12.6817 53.0444 12.6378 52.7373 12.6378C52.7373 12.8572 52.7373 13.0766 52.7373 13.3398C54.1412 13.3398 55.5451 13.3398 56.993 13.3398C56.993 13.1204 56.993 12.8572 56.993 12.6378C56.6421 12.6378 56.2472 12.7257 55.9401 12.5062C55.7646 12.4184 55.6768 12.199 55.7208 11.9797C55.7208 8.03102 55.7208 4.08238 55.7208 0.133789C54.5361 0.26544 53.3954 0.309249 52.2108 0.35317ZM24.658 1.05518C25.0529 1.05518 25.4478 1.01126 25.8426 1.14291C26.1497 1.23064 26.2814 1.53775 26.2375 1.84481C26.2375 5.22309 26.2375 8.60138 26.2375 12.0236C26.2375 12.3307 26.1058 12.5939 25.7988 12.6817C25.4477 12.7694 25.0968 12.7694 24.7457 12.7694C24.7019 12.7694 24.658 12.8133 24.658 12.8133C24.658 13.0327 24.658 13.252 24.658 13.4714C28.3434 13.4714 31.9849 13.4714 35.6703 13.4714C35.758 12.0236 35.802 10.5318 35.8897 9.08401C35.6703 9.08401 35.451 9.08401 35.1877 9.08401C35.056 10.0054 34.8367 11.0145 34.2225 11.7603C33.696 12.3746 32.9063 12.6817 32.1605 12.7694C31.3707 12.8572 30.581 12.8133 29.7913 12.8572C29.3964 12.8572 29.0454 12.8572 28.6505 12.8133C28.3874 12.7694 28.2118 12.5062 28.2118 12.2868C28.2118 10.5758 28.2118 8.86474 28.2118 7.15355C29.0015 7.15355 29.9229 7.02196 30.581 7.54845C31.3707 8.11881 31.4585 9.21566 31.5462 10.0932C31.7656 10.0932 31.9849 10.0932 32.2043 10.0932C32.2043 7.94335 32.2043 5.83737 32.2043 3.68759C31.9849 3.68759 31.7656 3.68759 31.5462 3.68759C31.5023 4.25789 31.4585 4.82836 31.1952 5.3548C30.8881 5.9251 30.3616 6.36392 29.7035 6.45165C29.1771 6.49552 28.6945 6.45165 28.2118 6.49552C28.2118 4.95996 28.2118 3.42434 28.2118 1.88878C28.1679 1.53781 28.4312 1.23069 28.7821 1.23069C29.9668 1.23069 31.1952 1.23069 32.3798 1.23069C32.9941 1.23069 33.6961 1.31843 34.0909 1.84486C34.6174 2.45914 34.6174 3.33661 34.7929 4.08243C35.0123 4.08243 35.2317 4.08243 35.4511 4.08243C35.3194 2.89791 35.2755 1.71327 35.144 0.528687C31.634 0.528687 28.1241 0.528687 24.5703 0.528687C24.658 0.572552 24.658 0.835798 24.658 1.05518ZM75.4201 0.660282C75.0691 0.835798 74.8058 1.18672 74.8058 1.58162C74.8058 2.15198 75.3323 2.72228 75.9466 2.67847C76.5608 2.67847 77.0435 2.02027 76.9118 1.4061C76.7802 0.748068 76.0343 0.35317 75.4201 0.660282ZM69.3655 1.14291C69.3216 2.19584 69.1023 3.29264 68.4002 4.17016C68.0493 4.60893 67.479 4.82825 66.9085 4.91604C66.9085 5.13542 66.9085 5.3548 66.9085 5.57424C67.435 5.57424 67.9177 5.57424 68.4442 5.57424C68.4442 7.50469 68.4442 9.47896 68.4442 11.4533C68.4442 11.9797 68.6196 12.5501 69.0145 12.945C69.4971 13.4715 70.243 13.6031 70.9011 13.6031C71.7347 13.6031 72.5243 13.1205 72.9192 12.3746C73.3141 11.7165 73.4457 10.9268 73.4457 10.137C73.2264 10.137 73.007 10.137 72.7876 10.137C72.7876 10.7075 72.6999 11.2778 72.4366 11.8043C72.2174 12.1991 71.9102 12.5063 71.4714 12.594C71.0327 12.6817 70.5939 12.5501 70.3307 12.243C70.0675 11.9359 70.0236 11.4971 69.9797 11.1023C69.9797 9.25964 69.9797 7.41691 69.9797 5.53032C71.2959 5.53032 72.6122 5.53032 73.9284 5.53032C74.2793 5.53032 74.6742 5.53032 74.9814 5.7497C75.2445 5.92516 75.3323 6.27614 75.3323 6.58325C75.3323 8.33824 75.3323 10.0932 75.3323 11.8482C75.3323 12.1114 75.2445 12.4185 74.9814 12.5501C74.6742 12.6817 74.3232 12.6379 73.9722 12.6379C73.9722 12.8572 73.9722 13.1206 73.9722 13.3399C75.3762 13.3399 76.824 13.3399 78.228 13.3399C78.228 13.1206 78.228 12.8573 78.228 12.6379C77.9209 12.6379 77.6577 12.6379 77.3505 12.594C77.175 12.5501 76.9557 12.4185 76.9118 12.243C76.8679 12.0236 76.8679 11.8043 76.8679 11.5848C76.8679 9.21566 76.8679 6.89036 76.8679 4.5212C74.5426 4.60893 72.2612 4.65279 69.9358 4.60893C69.9358 3.42434 69.9358 2.23971 69.9358 1.05518C69.8042 1.14291 69.5849 1.14291 69.3655 1.14291ZM86.8272 4.65279C86.7395 4.65279 86.608 4.60893 86.564 4.74052C86.564 4.91604 86.564 5.09155 86.564 5.31088C87.0027 5.31088 87.4854 5.26701 87.8364 5.53026C88.1434 5.74964 88.1873 6.18835 88.1873 6.53938C88.1873 8.33819 88.1873 10.137 88.1873 11.8919C88.1873 12.1113 88.1873 12.3307 88.0119 12.4623C87.7487 12.7256 87.3537 12.6817 87.0027 12.7256C87.0027 12.9449 87.0027 13.1643 87.0027 13.4275C88.319 13.4275 89.5912 13.4275 90.9075 13.4275C90.9075 13.2082 90.9075 12.9888 90.9075 12.7256C90.6004 12.7256 90.2932 12.7256 90.03 12.5939C89.7667 12.4623 89.7229 12.1113 89.7229 11.8481C89.7229 10.7074 89.7229 9.56664 89.7229 8.42592C89.7668 7.59231 90.03 6.75871 90.6443 6.18835C91.2585 5.61799 92.1799 5.44253 92.9696 5.74964C93.4522 5.96902 93.7593 6.40773 93.9348 6.89036C94.0664 7.37293 94.1104 7.89948 94.1104 8.42592C94.1104 9.6105 94.1104 10.7951 94.1104 11.9359C94.1104 12.1552 94.0226 12.4623 93.8471 12.5939C93.5839 12.7694 93.2767 12.7256 92.9257 12.7256C92.9257 12.9449 92.9257 13.2082 92.9257 13.4275C94.2419 13.4275 95.5143 13.4275 96.8304 13.4275C96.8304 13.2082 96.8304 12.9888 96.8304 12.7256C96.5233 12.6817 96.2162 12.7256 95.953 12.5939C95.6897 12.4623 95.6459 12.1113 95.6459 11.8481C95.6459 10.4441 95.6459 9.0402 95.6459 7.59231C95.6459 6.84649 95.4265 6.05676 94.9878 5.44248C94.6807 5.04758 94.2418 4.78439 93.7593 4.65274C92.794 4.38949 91.6533 4.565 90.8636 5.17923C90.425 5.53021 90.03 5.96897 89.7229 6.40768C89.679 5.74959 89.5912 5.13531 89.4597 4.52114C88.626 4.56506 87.7048 4.60893 86.8272 4.65279ZM60.1081 4.5212C59.099 4.60893 58.046 4.65279 57.0369 4.65279C57.0369 4.87217 57.0369 5.09155 57.0369 5.31088C57.3879 5.31088 57.7389 5.31088 58.046 5.44253C58.3531 5.57418 58.5725 5.9251 58.5725 6.23227C58.5725 7.5485 58.5725 8.82082 58.5725 10.1371C58.5725 10.7513 58.6602 11.4094 58.9234 11.9797C59.1428 12.4623 59.5377 12.8572 59.9764 13.1205C60.7661 13.5592 61.8191 13.5592 62.6528 13.2082C63.3986 12.8572 64.0128 12.2868 64.5833 11.6727C64.6271 12.243 64.7148 12.7695 64.7148 13.3398C65.68 13.3837 66.6892 13.296 67.6544 13.296C67.6544 13.0766 67.6544 12.8572 67.6544 12.6379C67.2156 12.6379 66.6891 12.7257 66.3382 12.3746C66.0311 12.0675 66.0311 11.6726 66.0311 11.2778C66.0311 8.99628 66.0311 6.71484 66.0311 4.43346C65.0219 4.52119 64.0128 4.56506 62.9599 4.60893C62.9599 4.82831 62.9599 5.04763 62.9599 5.26702C63.3108 5.26702 63.7057 5.31094 64.0567 5.44253C64.3638 5.57418 64.5393 5.88129 64.5393 6.18835C64.5393 7.32912 64.5393 8.42592 64.5393 9.56664C64.5393 10.4441 64.1883 11.3216 63.5301 11.8919C63.0914 12.2868 62.4333 12.4623 61.863 12.4184C61.2487 12.3745 60.7223 11.9797 60.459 11.497C60.1958 11.0144 60.152 10.444 60.1958 9.91761C60.1081 8.16273 60.1081 6.32 60.1081 4.5212ZM35.0123 4.65279C35.0123 4.87217 34.9684 5.09155 34.9684 5.31088C35.4071 5.39861 35.8458 5.3548 36.2407 5.48645C36.5918 5.66197 36.7233 6.05681 36.8989 6.36387C37.9957 8.82087 39.0926 11.2778 40.2333 13.6909C40.4088 13.6909 40.5843 13.6909 40.7598 13.6909C41.7689 11.3217 42.8218 8.95252 43.831 6.5833C43.9626 6.27625 44.0942 5.92521 44.4013 5.70583C44.6645 5.48651 45.0155 5.39878 45.3226 5.35491C45.3226 5.13553 45.3226 4.9162 45.3226 4.69677C44.1381 4.69677 42.9096 4.69677 41.725 4.69677C41.725 4.91615 41.725 5.13547 41.725 5.35491C42.1198 5.44264 42.6024 5.48656 42.8657 5.79362C43.0412 5.96919 43.085 6.27619 42.9534 6.49563C42.2514 8.16284 41.5494 9.78618 40.8474 11.4534C40.1455 9.87391 39.3996 8.29449 38.6976 6.71501C38.566 6.4079 38.3466 6.05692 38.4782 5.70589C38.7854 5.31105 39.3557 5.4427 39.7506 5.35497C39.7506 5.13559 39.7506 4.9162 39.7506 4.69682C38.1712 4.65279 36.5918 4.65279 35.0123 4.65279ZM52.1669 11.6287C51.2894 13.1643 49.3152 13.9979 47.604 13.5592C46.2878 13.2082 45.2349 12.1553 44.7962 10.8829C44.5768 10.2248 44.489 9.4789 44.5329 8.7769C44.5329 7.6801 44.9278 6.58325 45.6736 5.74964C46.2001 5.13536 46.9021 4.69666 47.6919 4.5212C48.7887 4.30181 50.0171 4.43335 50.9385 5.09155C51.9038 5.74964 52.5618 6.80257 52.7373 7.98721C52.9128 9.21566 52.7812 10.5319 52.1669 11.6287ZM51.0262 8.29438C50.9823 7.59237 50.8946 6.93428 50.5875 6.27608C50.2804 5.66191 49.6661 5.17928 49.0081 5.09155C48.6571 5.04763 48.2622 5.04763 47.9112 5.17928C47.3848 5.39867 46.9899 5.83737 46.7267 6.32C46.3756 7.06582 46.2879 7.89948 46.2441 8.7769C46.2441 9.69829 46.2879 10.6635 46.6389 11.541C46.9022 12.1991 47.4286 12.8134 48.1746 12.9888C48.6571 13.0766 49.1398 13.0327 49.5785 12.8134C50.1927 12.5063 50.5876 11.892 50.7631 11.2339C51.0701 10.2686 51.0701 9.25952 51.0262 8.29438ZM85.7743 12.1552C84.809 13.3398 83.1418 13.9101 81.6502 13.5152C80.4656 13.252 79.5004 12.3746 78.9738 11.2778C78.4474 10.1809 78.4036 8.95247 78.6229 7.81175C78.93 6.10062 80.334 4.56506 82.0889 4.38954C83.0104 4.30181 84.0194 4.47727 84.8091 5.00382C85.8621 5.66191 86.5201 6.84644 86.6956 8.075C86.915 9.52283 86.6956 11.0584 85.7743 12.1552ZM84.6775 6.53938C84.4142 5.88129 83.7999 5.26701 83.0541 5.17928C82.6593 5.13536 82.2644 5.13536 81.9134 5.26702C81.1236 5.57418 80.6411 6.36381 80.4656 7.19747C80.2024 8.29432 80.2024 9.43504 80.3778 10.5318C80.5095 11.3216 80.7727 12.1113 81.3869 12.6378C81.9134 13.0765 82.7032 13.2082 83.3613 12.9449C83.9756 12.7255 84.4582 12.1551 84.6776 11.5848C84.9407 10.9267 85.0285 10.2247 85.0285 9.47885C85.0723 8.42592 85.0723 7.41691 84.6775 6.53938Z" fill="#E3E3E3"/>
<defs>
<radialGradient id="paint0_radial" cx="0" cy="0" r="1" gradientUnits="userSpaceOnUse" gradientTransform="translate(10.2438 6.88357) scale(8.72446)">
<stop stop-color="#A8A8A8"/>
<stop offset="0.3834" stop-color="#9E9E9E"/>
<stop offset="1" stop-color="#707070"/>
</radialGradient>
<linearGradient id="paint1_linear" x1="18.2737" y1="13.7561" x2="18.2737" y2="5.56436" gradientUnits="userSpaceOnUse">
<stop stop-color="#C9C9C9"/>
<stop offset="1" stop-color="#D3D3D3"/>
</linearGradient>
<radialGradient id="paint2_radial" cx="0" cy="0" r="1" gradientUnits="userSpaceOnUse" gradientTransform="translate(10.2629 21.5592) scale(8.72106)">
<stop offset="0.1316" stop-color="#A3A3A3"/>
<stop offset="0.812" stop-color="#9B9C9C"/>
</radialGradient>
<linearGradient id="paint3_linear" x1="10.2222" y1="28.4256" x2="10.2222" y2="14.6676" gradientUnits="userSpaceOnUse">
<stop stop-color="#A2A2A1"/>
<stop offset="1" stop-color="#C4C4C4"/>
</linearGradient>
</defs>
</svg>
