<svg xmlns="http://www.w3.org/2000/svg" width="120" height="32" viewBox="0 0 120 32">
    <g fill="none" fill-rule="nonzero">
        <path fill="#ABABAB" d="M13 13.288c-1.53.475-3.059.712-5.098.712C3.654 14 0 11.39 0 7.435 0 3.005 3.314 0 8.327 0c1.87 0 3.314.316 4.588.87l-.765 2.057c-.425-.317-1.699-1.108-3.908-1.108-3.484 0-5.438 2.057-5.438 5.141 0 3.243 2.464 5.3 5.183 5.3.935 0 1.7-.08 2.21-.237.084-.712.084-2.136.084-2.769 0-.87 0-1.582-.085-2.214H13c-.085.79-.085 1.74-.085 2.689.085.949.085 2.452.085 3.56"/>
        <path fill="#676767" d="M0 25.397C0 20.784 3.5 18 7.833 18c1.834 0 3 .239 4.167.716l-.833 2.227c-.417-.477-1.584-1.114-3.334-1.114-2.916 0-5.083 1.91-5.083 5.25 0 3.102 2.167 5.17 5.083 5.17 1.334 0 2.417-.24 3.417-.955l.75 1.75c-1.333.716-2.75.954-4.667.954C3.25 32.078 0 29.294 0 25.397M20.038 18C16.05 18 13 20.864 13 25.239 13 29.295 15.894 32 20.038 32c3.91 0 6.96-2.784 6.96-7.239.079-4.136-2.815-6.761-6.96-6.761zm0 12.17c-2.659 0-4.38-2.147-4.38-5.25 0-3.102 1.643-5.25 4.38-5.25 2.581 0 4.38 2.069 4.38 5.25-.078 3.182-1.877 5.25-4.38 5.25z"/>
        <path fill="#ABABAB" d="M22.48 0h-2.4C18.32 4.127 15.52 10.601 14 14h2.48c.16-.405.4-1.052.64-1.618.32-.729.64-1.538.96-2.266h5.6c.24.809.56 1.618.88 2.346.24.567.4 1.052.56 1.538H28c-1.92-4.37-4.16-10.116-5.52-14zM18.8 8.254c.24-.728.64-1.456.88-2.185.56-1.294.96-2.427 1.36-3.48.56 1.78 1.2 3.642 2.08 5.665H18.8z"/>
        <path fill="#676767" d="M41.32 32c0-3.663-.081-7.57-.325-10.826-.244.652-.487 1.384-.812 2.28-.975 2.686-2.193 6.186-3.087 8.546h-2.355c-1.137-3.5-2.68-7.895-3.573-10.826-.325 3.256-.731 7.245-.813 10.826H28c.731-4.72.975-9.198 1.137-13.919h3.249c.65 2.28 1.543 4.803 2.436 7.245.569 1.465.975 2.767 1.381 3.988 1.3-3.256 2.843-7.733 4.061-11.314h3.005c0 3.988.325 9.36.731 13.919h-2.68"/>
        <path fill="#ABABAB" d="M42.388 14c0-3.684-.082-7.614-.327-10.889-.245.655-.571 1.474-.898 2.293-.898 2.62-2.204 6.222-3.02 8.596h-2.367c-1.143-3.52-2.694-7.942-3.592-10.889-.408 3.275-.735 7.287-.817 10.889H29c.735-4.749.98-9.251 1.143-14h3.184c.653 2.292 1.55 4.83 2.449 7.287.49 1.473.98 2.783 1.387 4.093C38.47 8.105 40.02 3.52 41.245 0h3.02c0 4.012.327 9.415.735 14h-2.612"/>
        <path fill="#676767" d="M58.47 32c0-3.663-.082-7.57-.327-10.826-.245.652-.572 1.384-.898 2.28A602.11 602.11 0 0 0 54.225 32h-2.368c-1.224-3.5-2.612-7.895-3.592-10.826-.408 3.256-.734 7.245-.898 10.826H45c.735-4.72.98-9.198 1.143-13.919h3.184c.653 2.28 1.55 4.803 2.449 7.245.57 1.465.98 2.767 1.387 3.988C54.47 26.058 56.02 21.581 57.245 18h3.02c0 3.988.327 9.36.735 13.919h-2.53"/>
        <path fill="#ABABAB" d="M53.96 6.386c1.44-.41 2.48-1.72 2.48-3.03C56.44 1.229 54.52 0 51.16 0H47c.16 2.784.16 4.421.16 7.205 0 2.62 0 4.175-.16 6.795h4.24C55.16 14 57 12.526 57 9.825c0-1.802-1.12-3.03-3.04-3.439zm-4.32-4.667c.4-.082.88-.082 1.28-.082 2.24 0 3.12.737 3.12 1.965 0 1.31-.96 2.129-3.2 2.129h-1.28c0-1.392 0-2.784.08-4.012zm1.28 10.316h-1.36c-.08-1.555-.08-2.947-.08-4.503h1.36c2.48 0 3.6.737 3.6 2.293.08 1.473-.8 2.21-3.52 2.21zM60.667 10.48v1.637c2.166 0 4.833 0 6.333-.082L66.25 14H58c.167-2.62.167-4.175.167-6.795 0-2.784 0-4.503-.167-7.205h2.75c0 .982 0 1.801-.083 2.538 0 1.31-.084 2.947-.084 4.667-.083 1.228-.083 2.21.084 3.275"/>
        <path fill="#676767" d="M62 32c.182-2.523.182-4.151.182-6.756 0-2.849 0-4.477-.182-7.244h3c-.182 2.767-.182 4.395-.182 7.244 0 2.605 0 4.233.182 6.756h-3M74.932 20.61c-.534-.554-1.525-.949-2.746-.949-1.525 0-2.364.712-2.364 1.661 0 .791.381 1.424 2.06 2.136.38.158.838.395 1.296.632 1.983.95 2.822 1.978 2.822 3.876C76 30.656 73.94 32 71.271 32c-1.602 0-2.974-.237-4.271-.87l.686-1.977c.916.711 2.289 1.107 3.433 1.107 1.754 0 2.364-.87 2.364-1.898 0-.95-.686-1.582-1.983-2.215-.458-.237-1.068-.554-1.525-.712-1.83-.87-2.67-1.898-2.67-3.638 0-2.215 1.907-3.797 4.729-3.797 1.602 0 2.746.237 3.508.712l-.61 1.898"/>
        <path fill="#ABABAB" d="M67 13.919c.182-2.605.182-4.152.182-6.756 0-2.768 0-4.477-.182-7.163h3v1.872c0 1.79-.09 3.175-.09 5.29 0 1.954.09 3.338.09 5.047V14h-3M84 0c-.082 2.784-.082 4.421-.082 7.205 0 2.62 0 4.175.082 6.795h-2.466c-2.548-3.93-5.342-8.105-7.315-10.889 0 4.667 0 7.205.165 10.889H72c.164-2.62.164-4.175.164-6.795 0-2.784 0-4.503-.164-7.205h2.795c2.712 3.684 5.342 7.45 6.986 9.988 0-4.175 0-6.713-.165-9.988H84"/>
        <path fill="#676767" d="M84.932 20.61c-.61-.554-1.525-.949-2.746-.949-1.525 0-2.364.712-2.364 1.661 0 .791.381 1.424 2.06 2.136.38.158.838.395 1.296.632 1.983.95 2.822 1.978 2.822 3.876C86 30.656 83.94 32 81.271 32c-1.678 0-2.974-.237-4.271-.87l.686-1.977c.916.711 2.212 1.107 3.433 1.107 1.754 0 2.364-.87 2.364-1.898 0-.95-.686-1.582-1.983-2.215-.458-.237-1.068-.554-1.525-.712-1.83-.87-2.67-1.898-2.67-3.638 0-2.215 1.907-3.797 4.729-3.797 1.602 0 2.746.237 3.508.712l-.61 1.898"/>
        <path fill="#ABABAB" d="M97.832 13.288c-1.51.475-3.02.712-5.032.712-4.194 0-7.8-2.61-7.8-6.565C85 3.005 88.271 0 93.303 0c1.845 0 3.271.316 4.53.87l-.756 2.057c-.587-.554-2.18-1.108-3.774-1.108-3.522 0-5.368 2.057-5.368 5.141 0 3.243 2.433 5.3 5.117 5.3.922 0 1.593-.08 2.18-.237.084-.712.084-2.136.084-2.769 0-.87 0-1.582-.084-2.214H98c-.084.79-.084 1.74-.084 2.689-.168.949-.168 2.452-.084 3.56"/>
        <path fill="#676767" d="M88 32c.182-2.523.182-4.151.182-6.756 0-2.849 0-4.477-.182-7.244h3c-.182 2.767-.182 4.395-.182 7.244 0 2.605 0 4.233.182 6.756h-3M98.96 18C94.973 18 92 20.864 92 25.239 92 29.295 94.816 32 98.96 32c3.99 0 7.04-2.784 7.04-7.239-.078-4.136-2.894-6.761-7.04-6.761zm0 12.17c-2.658 0-4.379-2.147-4.379-5.25 0-3.102 1.72-5.25 4.38-5.25 2.58 0 4.458 2.069 4.458 5.25-.078 3.182-1.799 5.25-4.458 5.25zM120 18c-.083 2.767-.083 4.395-.083 7.244 0 2.605 0 4.233.083 6.756h-2.317c-2.649-3.907-5.462-8.058-7.449-10.826 0 4.64 0 7.245.166 10.826H108v-.407c0-1.22.166-3.988.166-6.349 0-2.849-.083-5.86-.166-7.244h2.814c2.814 3.663 5.296 7.488 7.034 10.012 0-3.989 0-6.756-.165-10.012H120"/>
    </g>
</svg>
