<svg width="96" height="34" viewBox="0 0 96 34" fill="none" xmlns="http://www.w3.org/2000/svg">
<path d="M0.493654 16.0012C0.479938 16.0012 0.479938 16.0012 0.493654 16.0012C0.266445 16.0014 0.0822382 15.8174 0.0820695 15.5902C0.0820695 15.5855 0.0821256 15.5809 0.0822942 15.5762L0.0960102 12.7928C0.0960102 12.5656 0.28016 12.3815 0.507369 12.3815C0.734579 12.3814 0.918786 12.5654 0.918954 12.7925C0.918954 12.7972 0.918898 12.8019 0.91873 12.8065L0.905014 15.5899C0.904958 15.8171 0.720863 16.0012 0.493654 16.0012ZM0.822719 26.6962L0.891242 17.2079C0.891242 16.9748 0.712993 16.7966 0.479938 16.7828C0.252729 16.7828 0.0685783 16.967 0.0685783 17.1941L0 26.6825C0 26.9155 0.178248 27.0938 0.411359 27.1075C0.638568 27.1075 0.822719 26.9234 0.822719 26.6962ZM2.37215 8.6382V8.52853C2.37215 8.29542 2.1939 8.11723 1.96079 8.11723C1.72768 8.11723 1.54948 8.29542 1.54948 8.52853V8.6382C1.54948 8.87126 1.72768 9.04956 1.96079 9.04956C2.19384 9.04956 2.37215 8.85754 2.37215 8.6382ZM2.35838 12.8065L2.37209 10.0231C2.37209 9.78999 2.19384 9.61174 1.96073 9.61174C1.72762 9.61174 1.54943 9.78993 1.54943 10.0231L1.53571 12.8065C1.53571 13.0337 1.71986 13.2178 1.94702 13.2178C2.17428 13.2178 2.35838 13.0336 2.35838 12.8065ZM2.28985 27.5463L2.35838 14.3285C2.35838 14.0954 2.18013 13.9171 1.94702 13.9171C1.71396 13.9171 1.53571 14.0954 1.53571 14.3285L1.46713 27.5463C1.46713 27.7735 1.65128 27.9577 1.87849 27.9577C2.10565 27.9577 2.28985 27.7735 2.28985 27.5463ZM3.83923 10.832V10.7635C3.83923 10.5304 3.66098 10.3521 3.42787 10.3521C3.19481 10.3521 3.01656 10.5304 3.01656 10.7635V10.832C3.01656 11.0593 3.20071 11.2434 3.42787 11.2434C3.65508 11.2434 3.83923 11.0592 3.83923 10.832ZM3.74327 28.3965L3.82551 12.1072C3.82551 11.8742 3.64726 11.6959 3.41421 11.6959C3.1811 11.6959 3.00285 11.8741 3.00285 12.1072L2.92055 28.3965C2.92055 28.6236 3.1047 28.8078 3.33191 28.8078C3.55906 28.8078 3.74327 28.6236 3.74327 28.3965ZM5.29264 3.04388V2.93421C5.29264 2.7011 5.1144 2.52285 4.88134 2.52285C4.64829 2.52285 4.46998 2.71487 4.46998 2.93421V3.04388C4.46998 3.27109 4.65413 3.45524 4.88134 3.45524C5.10855 3.45524 5.29264 3.27109 5.29264 3.04388ZM5.27893 6.45808L5.29264 4.23686C5.29264 4.00375 5.1144 3.8255 4.88134 3.8255C4.64829 3.8255 4.46998 4.0037 4.46998 4.23686L4.45626 6.45808C4.45626 6.68529 4.64042 6.86944 4.86763 6.86944C5.08696 6.8831 5.27893 6.69119 5.27893 6.45808ZM5.26521 12.1072L5.27893 7.77439C5.27893 7.54134 5.10068 7.36304 4.86763 7.36304C4.63451 7.36304 4.45626 7.54128 4.45626 7.77439L4.44255 12.1072C4.44255 12.3344 4.6267 12.5186 4.85385 12.5186C5.08106 12.5186 5.26521 12.3344 5.26521 12.1072ZM5.19669 29.2329L5.25155 13.5606C5.25155 13.3276 5.0733 13.1493 4.84019 13.1493C4.60708 13.1493 4.42889 13.3276 4.42889 13.5606L4.36031 29.2329C4.36031 29.4659 4.53856 29.6442 4.77161 29.6442C5.00473 29.6442 5.19669 29.4659 5.19669 29.2329ZM6.71863 16.3166L6.74606 9.07699C6.74606 8.84388 6.56781 8.66569 6.33476 8.66569C6.1017 8.66569 5.9234 8.84388 5.9234 9.07699L5.89597 16.3166C5.89597 16.5438 6.08012 16.728 6.30733 16.728C6.53454 16.728 6.71863 16.5438 6.71863 16.3166ZM6.65011 30.083L6.66382 25.613C6.66382 25.3799 6.48558 25.2017 6.25247 25.2017C6.01941 25.2017 5.84116 25.3799 5.84116 25.613L5.82745 30.083C5.82745 30.3161 6.00564 30.4943 6.23875 30.4943C6.47186 30.4943 6.65011 30.3023 6.65011 30.083ZM8.19954 7.70582V7.59615C8.19954 7.36303 8.02129 7.18484 7.78818 7.18484C7.55512 7.18484 7.37682 7.36303 7.37682 7.59615V7.70582C7.37682 7.93887 7.55507 8.11717 7.78818 8.11717C8.02129 8.11717 8.19954 7.92515 8.19954 7.70582ZM8.19954 10.0093V9.07694C8.19954 8.84383 8.02129 8.66563 7.78818 8.66563C7.55512 8.66563 7.37682 8.84383 7.37682 9.07694V10.0093C7.37682 10.2365 7.56097 10.4206 7.78818 10.4206C8.01539 10.4206 8.19954 10.2365 8.19954 10.0093ZM8.17205 16.3166L8.18582 11.216C8.18582 10.9888 8.00161 10.8046 7.77446 10.8046C7.54725 10.8046 7.3631 10.9888 7.3631 11.216L7.34939 16.3166C7.34939 16.5438 7.53354 16.728 7.76075 16.728C7.98795 16.728 8.17205 16.5438 8.17205 16.3166ZM8.11724 30.9468L8.14467 25.5993C8.14467 25.3721 7.96052 25.188 7.73337 25.188C7.50622 25.188 7.32201 25.3721 7.32201 25.5993L7.29458 30.9468C7.29458 31.174 7.47873 31.3581 7.70594 31.3581C7.93315 31.3581 8.11724 31.174 8.11724 30.9468ZM9.61181 19.2372L9.65296 7.78811C9.65296 7.555 9.47471 7.37675 9.2416 7.37675C9.00854 7.37675 8.83024 7.555 8.83024 7.78811L8.78915 19.2372C8.78915 19.4702 8.96739 19.6486 9.2005 19.6486C9.43356 19.6486 9.61181 19.4565 9.61181 19.2372ZM9.57066 31.7558L9.61181 22.9255C9.61181 22.6925 9.43356 22.5143 9.2005 22.5143C8.96739 22.5143 8.78915 22.6925 8.78915 22.9255L8.748 31.7558C8.748 31.9829 8.93215 32.1671 9.15936 32.1671C9.3787 32.1808 9.57066 31.9888 9.57066 31.7558ZM11.1201 0.534745V0.41136C11.1201 0.178249 10.9418 0 10.7087 0C10.4756 0 10.2974 0.191964 10.2974 0.41136V0.534745C10.2974 0.761954 10.4815 0.946047 10.7087 0.946047C10.9359 0.946047 11.1201 0.761898 11.1201 0.534745ZM11.1064 4.7304L11.1201 2.11155C11.1201 1.87849 10.9418 1.70019 10.7087 1.70019C10.4756 1.70019 10.2974 1.89221 10.2974 2.11155L10.2837 4.7304C10.2837 4.95761 10.4678 5.14176 10.695 5.14176C10.9144 5.15548 11.1064 4.96352 11.1064 4.7304ZM11.0652 19.2372L11.1063 6.27983C11.1063 6.04672 10.9281 5.86853 10.695 5.86853C10.4619 5.86853 10.2837 6.06044 10.2837 6.27983L10.2425 19.2372C10.2425 19.4643 10.4267 19.6486 10.6539 19.6486C10.8811 19.6486 11.0652 19.4643 11.0652 19.2372ZM11.0241 32.6059L11.0515 22.9393C11.0515 22.7062 10.8733 22.528 10.6402 22.528C10.407 22.528 10.2288 22.7199 10.2288 22.9393L10.2014 32.6059C10.2014 32.8331 10.3856 33.0172 10.6128 33.0172C10.84 33.0172 11.0241 32.8331 11.0241 32.6059ZM12.5324 19.2372L12.5735 8.52853C12.5735 8.29548 12.3952 8.11723 12.1621 8.11723C11.929 8.11723 11.7507 8.29542 11.7507 8.52853L11.7096 19.2372C11.7096 19.4643 11.8938 19.6486 12.121 19.6486C12.3482 19.6486 12.5324 19.4643 12.5324 19.2372ZM12.4775 31.7557L12.5186 22.9255C12.5186 22.6925 12.3404 22.5142 12.1073 22.5142C11.8742 22.5142 11.6959 22.6925 11.6959 22.9255L11.6548 31.7557C11.6548 31.9829 11.839 32.1671 12.0661 32.1671C12.2992 32.1808 12.4775 31.9888 12.4775 31.7557ZM13.9995 16.3166L14.0269 9.77621C14.0269 9.5431 13.8487 9.36486 13.6156 9.36486C13.3825 9.36486 13.2042 9.5431 13.2042 9.77621L13.1768 16.3166C13.1768 16.5497 13.355 16.7279 13.5881 16.7279C13.8212 16.7279 13.9995 16.5497 13.9995 16.3166ZM13.9446 30.9194L13.9721 25.5993C13.9721 25.3662 13.7938 25.188 13.5607 25.188C13.3276 25.188 13.1493 25.3662 13.1493 25.5993L13.1219 30.9194C13.1219 31.1465 13.3061 31.3307 13.5333 31.3307C13.7605 31.3307 13.9446 31.1465 13.9446 30.9194ZM15.3981 6.54032V6.33464C15.3981 6.10743 15.2139 5.92334 14.9867 5.92334C14.7595 5.92334 14.5753 6.10748 14.5753 6.33464V6.54032C14.5753 6.77343 14.7673 6.95168 14.9867 6.95168C15.2061 6.95168 15.3981 6.75971 15.3981 6.54032ZM15.3981 10.6949V8.06231C15.3981 7.83516 15.2139 7.65095 14.9867 7.65095C14.7595 7.65095 14.5753 7.83516 14.5753 8.06231V10.6949C14.5753 10.928 14.7673 11.1063 14.9867 11.1063C15.2061 11.1063 15.3981 10.928 15.3981 10.6949ZM15.3981 16.3166V12.1895C15.3981 11.9622 15.2139 11.7781 14.9867 11.7781C14.7595 11.7781 14.5753 11.9622 14.5753 12.1895V16.3166C14.5753 16.5497 14.7673 16.7279 14.9867 16.7279C15.2061 16.7279 15.3981 16.5497 15.3981 16.3166ZM15.3981 30.0829V25.613C15.3981 25.3858 15.2139 25.2017 14.9867 25.2017C14.7595 25.2017 14.5753 25.3858 14.5753 25.613V30.0829C14.5753 30.3161 14.7673 30.4943 14.9867 30.4943C15.2061 30.4943 15.3981 30.3023 15.3981 30.0829ZM16.8515 29.4385L16.9475 4.99095C16.9475 4.75789 16.7692 4.57959 16.5361 4.57959C16.303 4.57959 16.1248 4.75789 16.1248 4.99095L16.0287 29.4385C16.0287 29.6657 16.2129 29.8498 16.4401 29.8498C16.6673 29.8498 16.8515 29.6657 16.8515 29.4385ZM18.4008 8.21313V8.07603C18.4008 7.84292 18.2226 7.66467 17.9895 7.66467C17.7564 7.66467 17.5782 7.84292 17.5782 8.07603V8.21313C17.5782 8.44618 17.7564 8.62449 17.9895 8.62449C18.2226 8.62449 18.4008 8.43252 18.4008 8.21313ZM18.3871 10.8731V9.59802C18.3871 9.36491 18.2089 9.18666 17.9758 9.18666C17.7427 9.18666 17.5644 9.36491 17.5644 9.59802V10.8731C17.5644 11.1062 17.7427 11.2845 17.9758 11.2845C18.2089 11.2845 18.3871 11.0925 18.3871 10.8731ZM18.3049 28.3965L18.3735 12.1895C18.3735 11.9564 18.1952 11.7781 17.9621 11.7781C17.729 11.7781 17.5507 11.9564 17.5507 12.1895L17.4822 28.3965C17.4822 28.6295 17.6604 28.8078 17.8935 28.8078C18.1266 28.8078 18.3049 28.6295 18.3049 28.3965ZM19.772 27.5463V10.7497C19.772 10.5167 19.5801 10.3384 19.3607 10.3384C19.1413 10.3384 18.9493 10.5304 18.9493 10.7497V27.5326C18.9493 27.7657 19.1413 27.9439 19.3607 27.9439C19.5801 27.9439 19.772 27.7657 19.772 27.5463ZM21.2254 10.5715V10.4343C21.2254 10.2013 21.0335 10.023 20.8141 10.023C20.5947 10.023 20.4027 10.215 20.4027 10.4343V10.5715C20.4027 10.8046 20.5947 10.9829 20.8141 10.9829C21.0335 10.9829 21.2254 10.8046 21.2254 10.5715ZM21.2254 12.9162V12.0798C21.2254 11.8467 21.0335 11.6684 20.8141 11.6684C20.5947 11.6684 20.4027 11.8604 20.4027 12.0798V12.9162C20.4027 13.1493 20.5947 13.3275 20.8141 13.3275C21.0335 13.3275 21.2254 13.1493 21.2254 12.9162ZM21.2254 26.6962V14.5478C21.2254 14.3147 21.0335 14.1365 20.8141 14.1365C20.5947 14.1365 20.4027 14.3285 20.4027 14.5478V26.6962C20.4027 26.9293 20.5947 27.1075 20.8141 27.1075C21.0335 27.1075 21.2254 26.9293 21.2254 26.6962Z" fill="#858585"/>
<path d="M31.0141 13.163V21.3077H29.451V17.8524H25.6803V21.3214H24.1172V13.1768H25.6803V16.5224H29.451V13.1768H31.0141V13.163ZM37.9795 19.7583H34.3323L33.8112 21.3214H32.111L34.9218 13.1768H37.3213L40.187 21.3214H38.5279L37.9795 19.7583ZM37.6093 18.5928L36.1559 14.3559L34.7162 18.5928H37.6093ZM41.0783 21.3214V13.1768H45.2466C46.2338 13.1768 46.892 13.3276 47.2485 13.6293C47.605 13.931 47.7695 14.4931 47.7695 15.3295C47.7695 15.8916 47.6735 16.303 47.4953 16.5773C47.3033 16.8515 46.988 17.0297 46.5355 17.1257C47.0703 17.2354 47.4541 17.4274 47.6598 17.7016C47.8654 17.9758 47.9752 18.442 47.9752 19.0865C47.9752 19.9229 47.7969 20.5124 47.4267 20.8416C47.0566 21.1706 46.4121 21.3352 45.4797 21.3352H41.0783V21.3214ZM42.6962 16.5909H44.6569C45.3014 16.5909 45.7265 16.5223 45.891 16.399C46.0693 16.2619 46.1515 15.9602 46.1515 15.4528C46.1515 15.0415 46.083 14.7809 45.9322 14.6438C45.7813 14.5205 45.466 14.4519 44.986 14.4519H42.6962V16.5909ZM42.6962 20.0188H44.465C45.3152 20.0188 45.8362 19.9639 46.0555 19.8405C46.2612 19.7172 46.3709 19.4155 46.3709 18.9081C46.3709 18.4009 46.2886 18.0718 46.1104 17.9484C45.9321 17.825 45.4796 17.7564 44.7667 17.7564H42.7099V20.0188H42.6962ZM54.4058 19.7583H50.7449L50.2238 21.3214H48.5372L51.3481 13.1768H53.7477L56.6133 21.3214H54.9542L54.4058 19.7583ZM54.0356 18.5928L52.5823 14.3559L51.1425 18.5928H54.0356ZM65.3476 13.163V21.3077H62.6191L60.1921 16.8377L59.6299 15.6586L59.3694 15.0689L59.0951 14.493H59.0403L59.054 15.0141L59.0677 16.015L59.0814 16.6183V21.294H57.4772V13.1493H60.1921L62.3996 17.2903L63.0715 18.6202L63.3868 19.2784L63.7159 19.9502H63.7707L63.757 19.4292L63.7433 18.4557L63.7296 17.8524V13.1493H65.3476V13.163H65.3476ZM68.4327 14.4657V16.6046H72.3816V17.7564H68.4327V20.0325H72.6285V21.3214H66.801V13.1768H72.5873V14.4657H68.4327ZM73.9859 21.3214V13.1768H78.1404C79.1688 13.1768 79.8818 13.355 80.2795 13.7115C80.677 14.068 80.8827 14.6988 80.8827 15.6037C80.8827 16.4264 80.7868 16.9886 80.5811 17.2903C80.3891 17.5918 79.9778 17.7975 79.3607 17.9072V17.9622C79.8407 17.9622 80.1972 18.0992 80.444 18.3597C80.677 18.634 80.8005 19.0179 80.8005 19.539V21.3078H79.1689V19.8405C79.1689 19.3607 79.0729 19.0315 78.8946 18.8533C78.7164 18.675 78.3873 18.5927 77.8937 18.5927H75.6039V21.294H73.986V21.3214H73.9859ZM75.6175 17.2628H77.8937C78.4421 17.2628 78.8123 17.1668 78.9906 16.9886C79.1688 16.7967 79.2511 16.4127 79.2511 15.8368C79.2511 15.2884 79.1688 14.9182 79.018 14.7536C78.8672 14.589 78.5244 14.5068 78.0034 14.5068H75.6176V17.2628H75.6175ZM85.5858 13.1082C86.7238 13.1082 87.5192 13.1904 87.9853 13.355C88.4515 13.5195 88.7943 13.7938 89 14.1777C89.2056 14.5616 89.3428 14.9455 89.3839 15.3295C89.4388 15.7134 89.4662 16.3304 89.4662 17.1805C89.4662 18.1814 89.4388 18.867 89.3839 19.2372C89.329 19.6075 89.2056 19.9777 89 20.3479C88.7943 20.7181 88.4378 20.9786 87.9442 21.1569C87.4506 21.3352 86.7239 21.4175 85.7641 21.4175C84.1187 21.4175 83.0629 21.1843 82.5967 20.7181C82.1305 20.252 81.9112 19.1962 81.9112 17.5371C81.9112 16.4538 81.9386 15.7134 81.9934 15.2884C82.0483 14.877 82.199 14.4931 82.4185 14.1366C82.6813 13.7704 83.057 13.5006 83.488 13.3688C84.1685 13.1694 84.877 13.0815 85.5858 13.1082ZM87.8207 17.4822V16.207C87.8207 15.4255 87.6974 14.9318 87.4368 14.7399C87.1763 14.5342 86.5456 14.4382 85.5583 14.4382C84.5849 14.4382 84.009 14.5753 83.8444 14.8633C83.6662 15.1375 83.5839 16.0562 83.5839 17.6193C83.5839 18.7848 83.6936 19.484 83.913 19.7172C84.1323 19.9365 84.7905 20.0462 85.9148 20.0462C86.7923 20.0462 87.3408 19.9091 87.5328 19.6486C87.7111 19.3744 87.8207 18.6613 87.8207 17.4822Z" fill="#231F20"/>
<path d="M91.7025 13.4098V15.1649H91.2226V13.4098H90.5645V13.0122H92.3607V13.4098H91.7025ZM95.2401 13.0122V15.1649H94.7739V13.684L94.7875 13.5195V13.4647L94.7739 13.5195L94.719 13.6703L94.6093 13.972L94.102 15.1786H93.6907L93.1834 13.9857L93.0738 13.6978L93.0188 13.5469L92.9915 13.4921V13.5469L93.0052 14.0131V15.1785H92.5389V13.0259H93.2657L93.677 14.0132L93.773 14.3148L93.8278 14.4657L93.869 14.5753L93.9101 14.4657L93.9649 14.3148L94.0746 14.0269L94.4722 13.0396L95.2401 13.0122Z" fill="#231F20"/>
</svg>
