<svg width="93" height="32" viewBox="0 0 93 32" fill="none" xmlns="http://www.w3.org/2000/svg">
<path d="M92.67 2.02084H88.7374V19.3964H86.6824V2.02084H82.7498V0.256377H92.67V2.02084ZM80.6367 2.02084H73.9519V8.54053H78.8937V10.2866H73.9519V17.6502H80.9517V19.3965H71.8939V0.256377H80.6368V2.02084H80.6367ZM65.3925 2.68134C64.8544 2.22878 63.9848 2.00856 62.784 2.02084H60.7076V8.48548H61.885C63.3528 8.4977 64.4364 8.23476 65.1357 7.69648C65.8329 7.17054 66.1754 6.26438 66.1631 4.97796C66.1754 3.89954 65.9185 3.13395 65.3925 2.68134ZM63.7382 0.256377C65.1713 0.280821 66.2793 0.716088 67.0622 1.56212C67.8348 2.41834 68.2273 3.55699 68.2396 4.97791C68.2396 5.95646 68.0133 6.82595 67.5607 7.58637C67.0938 8.35703 66.3465 8.90131 65.3192 9.21936V9.27442C66.4689 9.59445 67.314 10.1765 67.8542 11.0205C68.3924 11.8645 68.6616 12.8869 68.6616 14.0876C68.6616 15.8633 68.159 17.1925 67.1539 18.0752C66.1509 18.956 64.6025 19.3964 62.5088 19.3964H58.6496V0.256377H63.7382ZM62.784 10.2316H60.7076V17.6502H62.784C64.0338 17.6502 64.9767 17.3629 65.6127 16.7879C66.261 16.2252 66.5852 15.3252 66.5852 14.0877C66.5974 12.8259 66.3038 11.8707 65.7044 11.2224C65.0929 10.5618 64.1193 10.2316 62.784 10.2316ZM2.09474 2.05756C1.76447 2.35112 1.59936 2.76089 1.59936 3.28689C1.59936 3.80067 1.76452 4.20538 2.09474 4.50091C2.42502 4.79452 2.81641 4.9413 3.26902 4.9413C3.72163 4.9413 4.12017 4.79452 4.46471 4.50091C4.79498 4.19304 4.96015 3.78844 4.96015 3.28689C4.96015 2.76095 4.79498 2.35112 4.46471 2.05756C4.12023 1.76395 3.72163 1.61718 3.26902 1.61718C2.81641 1.61718 2.42502 1.76395 2.09474 2.05756ZM3.26902 0.0178223C4.12727 0.0178223 4.88054 0.305321 5.52887 0.880262C5.77348 1.07593 5.99981 1.3767 6.20776 1.78234C6.4157 2.17373 6.52581 2.67528 6.53803 3.28689C6.52581 3.90054 6.4157 4.40302 6.20776 4.79452C5.99981 5.18591 5.76737 5.48563 5.51054 5.69352C4.87448 6.24396 4.12727 6.52535 3.26902 6.53757C2.42496 6.52535 1.67781 6.24396 1.0275 5.69352C0.782886 5.48563 0.556609 5.18591 0.34861 4.79452C0.128444 4.40308 0.0122223 3.90054 0 3.28689C0.0122223 2.67528 0.128444 2.16767 0.34861 1.76395C0.556554 1.37047 0.788997 1.06982 1.04583 0.861819C1.68397 0.311377 2.42502 0.0300445 3.26902 0.0178223ZM4.22621 8.02676V19.4331H2.22319V8.02676H2.24152C2.54735 8.12459 2.87757 8.17359 3.23235 8.17359C3.57485 8.17353 3.90617 8.12459 4.22621 8.02676Z" fill="#494949"/>
<path d="M56.4118 2.02174H52.4975V19.3973H50.4212V2.02174H46.51V0.257276H56.4118V2.02174H56.4118ZM43.9932 2.02174H37.8405V8.54144H42.4489V10.2875H37.8405V19.3973H35.7825V0.257276H43.9932V2.02174ZM49.0879 26.024C49.1226 26.0404 49.1582 26.0628 49.1949 26.0913C49.2214 26.1178 49.2387 26.1444 49.2469 26.1709C49.2571 26.1973 49.2622 26.2147 49.2622 26.2228L47.4182 29.0575V30.9933C47.4182 31.1543 47.3377 31.2349 47.1765 31.2349H47.0971C46.9463 31.2349 46.8708 31.1543 46.8708 30.9933V29.0575L45.0238 26.2228C45.0238 26.2146 45.0288 26.1973 45.0391 26.1709C45.0472 26.1443 45.0646 26.1178 45.091 26.0912C45.1176 26.0627 45.1532 26.0403 45.1981 26.024C45.2428 25.9975 45.2969 25.9842 45.3601 25.9842C45.4661 25.9842 45.5549 26.0464 45.6262 26.1709L47.1491 28.5499L48.6597 26.183C48.7493 26.0505 48.8431 25.9842 48.941 25.9842C49.0023 25.9842 49.0512 25.9975 49.0879 26.024ZM56.5861 27.5867C56.5861 28.1128 56.421 28.5092 56.0906 28.7762C55.7605 29.0515 55.2701 29.189 54.6197 29.189H53.5922V30.9933C53.5922 31.0647 53.5739 31.1227 53.5372 31.1676C53.4924 31.2124 53.4302 31.2349 53.3507 31.2349H53.2834C53.1243 31.2349 53.0448 31.1544 53.0448 30.9933V26.3298C53.0448 26.2421 53.0754 26.1708 53.1366 26.1157C53.1896 26.0546 53.2609 26.024 53.3507 26.024H54.6871C55.2924 26.024 55.7604 26.1575 56.0906 26.4245C56.421 26.6998 56.5861 27.0872 56.5861 27.5867ZM53.5923 26.5042V28.709H54.6748C55.1295 28.709 55.4679 28.6152 55.6901 28.4276C55.9205 28.2402 56.0356 27.9689 56.0356 27.6142C56.0356 26.8742 55.586 26.5041 54.6871 26.5041H53.5923V26.5042H53.5923ZM40.8191 25.9842C40.9801 25.9842 41.0606 26.0689 41.0606 26.2381V30.6997H43.559C43.7282 30.6997 43.8128 30.7751 43.8128 30.926V30.9809C43.8128 31.1318 43.7282 31.2072 43.559 31.2072H40.819C40.7313 31.2072 40.661 31.1766 40.608 31.1155C40.5447 31.0604 40.5132 30.9891 40.5132 30.9014V26.2381C40.5132 26.0689 40.5937 25.9843 40.7547 25.9843H40.8191V25.9842ZM38.7671 27.5867C38.7671 28.1128 38.6019 28.5092 38.2717 28.7762C37.9434 29.0515 37.4541 29.189 36.8038 29.189H35.7733V30.9933C35.7733 31.0647 35.756 31.1227 35.7213 31.1676C35.6765 31.2124 35.6143 31.2349 35.5348 31.2349H35.4675C35.3065 31.2349 35.226 31.1544 35.226 30.9933V26.3298C35.226 26.2421 35.2576 26.1708 35.3208 26.1157C35.3738 26.0546 35.4451 26.024 35.5348 26.024H36.8711C37.4767 26.024 37.9435 26.1575 38.2717 26.4245C38.602 26.6998 38.7671 27.0872 38.7671 27.5867ZM38.2198 27.6142C38.2198 26.8742 37.7702 26.5042 36.8711 26.5042H35.7734V28.709H36.8559C37.3105 28.709 37.6489 28.6152 37.8711 28.4276C38.1035 28.2401 38.2198 27.9689 38.2198 27.6142ZM68.6316 26.0913C68.6581 26.0628 68.6938 26.0404 68.7386 26.024C68.7834 25.9975 68.8365 25.9842 68.8976 25.9842C69.0057 25.9842 69.0955 26.0465 69.1668 26.1709L70.6896 28.55L72.1973 26.183C72.287 26.0506 72.3808 25.9843 72.4786 25.9843C72.5418 25.9843 72.5907 25.9976 72.6254 26.0241C72.662 26.0404 72.6977 26.0628 72.7324 26.0914C72.7588 26.1179 72.7772 26.1444 72.7874 26.171C72.7956 26.1974 72.7996 26.2147 72.7996 26.2229L70.9557 29.0576V30.9934C70.9557 31.1545 70.8752 31.235 70.7141 31.235H70.6346C70.4837 31.235 70.4084 31.1545 70.4084 30.9934V29.0576L68.5643 26.2228C68.5643 26.2147 68.5685 26.1973 68.5766 26.1709C68.5868 26.1443 68.6051 26.1178 68.6316 26.0913ZM58.5769 25.9842C58.738 25.9842 58.8185 26.0689 58.8185 26.2381V30.6997H61.3169C61.4861 30.6997 61.5707 30.7751 61.5707 30.926V30.9809C61.5707 31.1318 61.4861 31.2072 61.3169 31.2072H58.5769C58.4871 31.2072 58.4158 31.1766 58.3628 31.1155C58.2996 31.0604 58.268 30.9891 58.268 30.9014V26.2381C58.268 26.0689 58.3485 25.9843 58.5096 25.9843H58.5769V25.9842ZM65.5522 26.1709L67.4512 31.0728C67.4697 31.1013 67.4431 31.1369 67.3717 31.1797C67.3004 31.2166 67.2239 31.2348 67.1424 31.2348C67.0813 31.2348 67.019 31.2216 66.9558 31.195C66.8947 31.1503 66.8458 31.0829 66.8091 30.9932L66.2495 29.5101H64.0172L63.4544 30.9932C63.4198 31.0829 63.3708 31.1502 63.3077 31.195C63.2548 31.2216 63.2017 31.2348 63.1487 31.2348C63.0589 31.2348 62.9835 31.2165 62.9224 31.1797C62.851 31.1369 62.8236 31.1013 62.8398 31.0728L64.7388 26.1709C64.7654 26.1076 64.8051 26.0587 64.8581 26.024C64.9213 25.9874 65.0191 25.969 65.1517 25.969C65.278 25.969 65.3678 25.9874 65.4208 26.024C65.4819 26.0587 65.5257 26.1075 65.5522 26.1709ZM65.1394 26.5837L64.2036 29.0301H66.0629L65.1394 26.5837ZM28.8224 2.40702C28.3311 1.95446 27.7735 1.73424 27.1497 1.74652C26.5259 1.72208 25.9622 1.94224 25.4587 2.40702C24.9572 2.85963 24.5535 3.67406 24.2477 4.85037C23.9541 6.02464 23.8073 7.68412 23.8073 9.82885C23.8073 11.9714 23.9602 13.6299 24.266 14.8042C24.5596 15.9805 24.9571 16.8011 25.4587 17.2659C25.95 17.7206 26.5137 17.9356 27.1497 17.9111C27.7735 17.9356 28.3373 17.7206 28.8408 17.2659C29.3423 16.8011 29.7399 15.9805 30.0334 14.8042C30.327 13.6299 30.4738 11.9715 30.4738 9.82885C30.4738 7.68412 30.327 6.02464 30.0334 4.85037C29.7276 3.67406 29.324 2.85963 28.8224 2.40702ZM31.8713 4.11643C32.3117 5.55981 32.5379 7.46395 32.5502 9.8288C32.5379 12.1916 32.3117 14.0957 31.8713 15.5412C31.4166 16.9846 30.7857 18.0375 29.9784 18.7001C29.1691 19.3483 28.2262 19.6664 27.1498 19.6541C26.0591 19.6664 25.1101 19.3483 24.3028 18.7001C23.4935 18.0375 22.8624 16.9846 22.4099 15.5412C21.9695 14.0957 21.7433 12.1916 21.731 9.8288C21.7433 7.4639 21.9695 5.55981 22.4099 4.11643C22.8625 2.67106 23.4935 1.62314 24.3028 0.972829C25.1101 0.312221 26.0591 -0.0118892 27.1498 0.000333115C28.2262 -0.0118892 29.1691 0.312221 29.9784 0.972829C30.7856 1.62314 31.4167 2.67106 31.8713 4.11643ZM18.7922 14.7859C18.7922 16.3169 18.3691 17.5115 17.5231 18.3698C16.6913 19.214 15.4793 19.6421 13.8871 19.6542C12.8841 19.6542 12.0268 19.428 11.3154 18.9754C10.6059 18.5227 10.0555 17.8918 9.66402 17.0824C9.2706 16.2751 9.06161 15.3322 9.03711 14.2538H10.9484C10.9728 15.3933 11.248 16.2873 11.774 16.9357C12.302 17.5738 13.0798 17.899 14.1073 17.9111C14.9778 17.9111 15.6638 17.641 16.1653 17.1007C16.6668 16.5626 16.9237 15.7848 16.9359 14.7676C16.9115 13.9114 16.6485 13.1713 16.1469 12.5474C15.6332 11.9216 14.9961 11.3457 14.2357 10.8197C13.4773 10.306 12.7179 9.7607 11.9575 9.18366C11.1991 8.62105 10.5631 7.96044 10.0493 7.20211C9.54577 6.45391 9.28177 5.53553 9.25727 4.44687C9.28172 3.08706 9.70471 2.00858 10.5264 1.21144C11.3581 0.416385 12.4722 0.0127196 13.8688 0.000442325C15.2652 0.0127196 16.3733 0.459163 17.1928 1.33983C18.0266 2.23481 18.4924 3.52128 18.5903 5.19909H16.6791C16.6057 4.19406 16.3427 3.3734 15.8901 2.73741C15.4375 2.10135 14.7209 1.77107 13.7403 1.74658C12.933 1.7588 12.2959 1.9973 11.8291 2.46218C11.3642 2.92702 11.1257 3.52745 11.1135 4.26337C11.138 5.10737 11.401 5.82903 11.9025 6.42848C12.4183 7.01762 13.0553 7.56289 13.8137 8.0645C14.5721 8.56594 15.3315 9.0991 16.0919 9.6638C16.8503 10.2387 17.4874 10.9298 18.0032 11.7371C18.5047 12.5586 18.7677 13.5749 18.7922 14.7859ZM32.648 25.9842H32.755C32.8712 25.9842 32.9651 26.0199 33.0364 26.0912C33.1077 26.1524 33.1434 26.232 33.1434 26.3298V30.9933C33.1434 31.1543 33.068 31.2349 32.9171 31.2349H32.8498C32.6969 31.2349 32.6204 31.1543 32.6204 30.9933V26.6111L31.2718 29.5773C31.2189 29.6834 31.1608 29.768 31.0975 29.8312C31.0262 29.8842 30.9243 29.9106 30.7918 29.9106C30.6572 29.9106 30.5542 29.8842 30.4829 29.8312C30.4217 29.768 30.3687 29.6833 30.3238 29.5773L28.96 26.6111V30.9933C28.96 31.1543 28.8886 31.2349 28.7459 31.2349H28.6542C28.5115 31.2349 28.4401 31.1543 28.4401 30.9933V26.3298C28.4401 26.232 28.4757 26.1524 28.5471 26.0912C28.6185 26.0199 28.7164 25.9842 28.8407 25.9842H28.96C29.1027 25.9842 29.2057 26.0199 29.2689 26.0912C29.3219 26.1524 29.379 26.2544 29.4401 26.3971L30.804 29.4184L32.1678 26.3971C32.229 26.2544 32.2871 26.1525 32.3421 26.0912C32.4034 26.02 32.5053 25.9842 32.648 25.9842ZM22.7462 26.024C22.9603 26.077 23.1427 26.1525 23.2935 26.2503C23.4362 26.34 23.5474 26.4338 23.6269 26.5316C23.7084 26.6377 23.7492 26.7355 23.7492 26.8252C23.7492 26.8782 23.7309 26.9271 23.6942 26.972C23.6596 27.0168 23.6238 27.0525 23.5872 27.079C23.5443 27.1055 23.5087 27.1279 23.4801 27.1463C23.4455 27.1545 23.4281 27.1545 23.4281 27.1463C23.3037 26.9322 23.1213 26.7538 22.8808 26.6111C22.6402 26.4684 22.3589 26.397 22.0368 26.397C21.6719 26.397 21.3782 26.4817 21.156 26.6508C20.9338 26.82 20.8227 27.0473 20.8227 27.3328C20.8227 27.502 20.8533 27.6396 20.9145 27.7457C20.9776 27.8537 21.0673 27.9434 21.1836 28.0147C21.2997 28.0758 21.4424 28.134 21.6117 28.1891C21.7707 28.2317 21.9481 28.2757 22.1438 28.3205C22.3578 28.3653 22.5679 28.4235 22.7737 28.4949C22.9694 28.5662 23.1478 28.6599 23.3089 28.7762C23.4679 28.8822 23.5964 29.0249 23.6942 29.2043C23.7921 29.3735 23.841 29.5865 23.841 29.8434C23.841 30.0676 23.8013 30.2685 23.7217 30.4458C23.632 30.6232 23.5117 30.775 23.3609 30.9014C23.1999 31.0339 23.0082 31.1318 22.786 31.195C22.5638 31.2663 22.3141 31.302 22.0368 31.302C21.7535 31.302 21.4956 31.2663 21.2631 31.195C21.0226 31.1318 20.8217 31.0472 20.6607 30.9413C20.5017 30.8332 20.3774 30.7221 20.2877 30.6079C20.1898 30.4917 20.1408 30.3846 20.1408 30.2868C20.1408 30.2236 20.1582 30.1747 20.1928 30.14C20.2295 30.0952 20.2652 30.0596 20.2998 30.033C20.3365 29.9963 20.3722 29.9739 20.4068 29.9658C20.4436 29.9555 20.4619 29.9555 20.4619 29.9658C20.6046 30.1961 20.8054 30.401 21.0643 30.5804C21.3314 30.7496 21.6556 30.8342 22.0368 30.8342C22.4384 30.8342 22.7503 30.7495 22.9725 30.5804C23.1968 30.4112 23.3089 30.1747 23.3089 29.871C23.3089 29.7017 23.2681 29.5589 23.1865 29.4428C23.1152 29.3287 23.0133 29.2358 22.8808 29.1644C22.7463 29.0829 22.5943 29.0157 22.4252 28.9626C22.2478 28.9178 22.0695 28.8729 21.89 28.828C21.6861 28.7751 21.4904 28.7221 21.3028 28.669C21.1153 28.6059 20.9461 28.5171 20.7952 28.403C20.6443 28.2949 20.5241 28.1563 20.4344 27.987C20.3365 27.8178 20.2876 27.6037 20.2876 27.3449C20.2876 27.1492 20.3324 26.9626 20.4221 26.7853C20.5098 26.6161 20.63 26.4642 20.7829 26.3297C20.942 26.2053 21.1285 26.1074 21.3426 26.0361C21.5566 25.9566 21.7839 25.9169 22.0245 25.9169C22.2916 25.917 22.5321 25.9527 22.7462 26.024ZM26.269 26.2381V30.9933C26.269 31.1544 26.1895 31.2349 26.0305 31.2349H25.951C25.7981 31.2349 25.7216 31.1544 25.7216 30.9933V26.2381C25.7216 26.0689 25.7981 25.9843 25.951 25.9843H26.0305C26.1895 25.9842 26.269 26.0689 26.269 26.2381Z" fill="#B0B0B0"/>
</svg>
