<svg width="326" height="42" viewBox="0 0 326 42" fill="none" xmlns="http://www.w3.org/2000/svg">
<path d="M6.32897 22.276H13.4777L19.8037 41.664H13.7311L12.7231 37.8073H6.81414L5.80324 41.664H0L6.32897 22.276ZM9.71359 26.7511L7.84676 33.7912H11.689L9.82221 26.7497H9.71359V26.7511ZM29.2566 22.276V34.1272C29.2566 35.1482 29.4999 35.9288 29.9895 36.4705C30.4775 37.0136 31.1828 37.2844 32.1054 37.2844C33.0279 37.2844 33.7332 37.0136 34.2213 36.4705C34.7094 35.9288 34.9541 35.1482 34.9541 34.1272V22.2745H40.6502V34.7586C40.6502 36.96 39.8681 38.7197 38.3055 40.0304C36.7428 41.344 34.6761 42 32.1068 42C29.5332 42 27.468 41.344 25.9053 40.0304C24.3412 38.7197 23.5591 36.96 23.5591 34.7586V22.2745H29.2566V22.276ZM52.7766 26.4817V31.4001H55.1272C55.9252 31.4001 56.5537 31.1756 57.0157 30.7281C57.4763 30.2791 57.7066 29.6882 57.7066 28.954C57.7066 28.2284 57.4705 27.6346 56.9969 27.1726C56.5204 26.712 55.902 26.4817 55.1431 26.4817H52.7752H52.7766ZM52.7766 35.1613V41.664H47.0791V22.2745H55.6935C58.254 22.2745 60.2005 22.848 61.53 23.9951C62.8624 25.1421 63.5257 26.7613 63.5257 28.8584C63.5257 30.0315 63.2506 31.1162 62.7002 32.1097C62.1843 33.07 61.377 33.8418 60.3946 34.314L64.0775 41.6626H57.7066L54.6435 35.1598H52.7766V35.1613ZM74.9063 22.276V34.1272C74.9063 35.1482 75.1496 35.9288 75.6391 36.4705C76.1272 37.0136 76.8325 37.2844 77.7536 37.2844C78.6776 37.2844 79.3829 37.0136 79.871 36.4705C80.359 35.9288 80.6038 35.1482 80.6038 34.1272V22.2745H86.2999V34.7586C86.2999 36.96 85.5178 38.7197 83.9537 40.0304C82.3924 41.344 80.3257 42 77.755 42C75.1829 42 73.1177 41.344 71.555 40.0304C69.9894 38.7197 69.2088 36.96 69.2088 34.7586V22.2745H74.9063V22.276ZM114.672 22.276V41.664H109.698V30.4312H109.591L105.226 41.4352H102.174L97.8079 30.4312H97.7007V41.664H92.7302V22.2745H99.3141L103.655 33.5884H103.762L108.086 22.2745H114.672V22.276Z" fill="url(#paint0_linear)"/>
<path d="M206.498 26.5614V32.1662H208.097C209.056 32.1662 209.799 31.9243 210.329 31.4449C210.856 30.967 211.12 30.2718 211.12 29.3565C211.12 28.4514 210.859 27.7591 210.333 27.2797C209.811 26.8018 209.078 26.5614 208.138 26.5614H206.498ZM200.801 22.2759H209.656C211.824 22.2759 213.567 22.916 214.89 24.1963C216.21 25.478 216.871 27.1943 216.871 29.342C216.871 31.4652 216.173 33.1684 214.775 34.4487C213.378 35.7304 211.541 36.3691 209.266 36.3691H206.498V41.664H200.801V22.2759ZM229.012 26.7511L227.143 33.7897H230.986L229.117 26.7511H229.012ZM233.028 41.664L232.021 37.8072H226.109L225.101 41.664H219.297L225.626 22.2759H232.774L239.102 41.664H233.026H233.028ZM257.947 37.1367V41.664H244.644V22.2745H250.342V37.1338H257.947V37.1367ZM272.945 26.7496L271.077 33.7897H274.919L273.051 26.7511H272.945V26.7496ZM276.961 41.664L275.955 37.8072H270.043L269.035 41.664H263.23L269.559 22.2759H276.708L283.035 41.664H276.961ZM296.875 42C293.883 42 291.532 41.1194 289.822 39.3598C288.109 37.5987 287.254 35.1337 287.254 31.9634C287.254 28.7917 288.109 26.3296 289.821 24.5729C291.532 22.8176 293.883 21.9399 296.875 21.9399C298.567 21.9399 300.097 22.2803 301.463 22.9609C302.787 23.6052 303.906 24.6058 304.693 25.8503C305.482 27.0943 305.876 28.5064 305.876 30.0821H300.422C300.358 28.98 300.002 28.0936 299.347 27.4216C298.693 26.7496 297.87 26.4136 296.875 26.4136C295.702 26.4136 294.772 26.9075 294.086 27.8923C293.402 28.8772 293.059 30.2298 293.059 31.9504C293.059 33.697 293.399 35.0627 294.08 36.0476C294.761 37.0338 295.698 37.5263 296.89 37.5263C297.874 37.5263 298.69 37.1917 299.34 36.524C299.989 35.8578 300.358 34.9643 300.448 33.8447H305.904C305.895 35.4292 305.502 36.8456 304.728 38.0896C303.951 39.3361 302.838 40.3377 301.517 40.9789C300.151 41.6596 298.603 42 296.875 42ZM325.888 37.1367V41.664H312.211V22.2745H325.888V26.8032H317.907V29.9315H325.392V34.0185H317.907V37.1352H325.887L325.888 37.1367Z" fill="url(#paint1_linear)"/>
<path opacity="0.9" d="M156.869 5.69897L154.241 3.07179L157.313 0L160.386 3.07179L157.759 5.69897H170.976V41.9059H143.459V5.69897H156.869Z" fill="url(#paint2_linear)"/>
<path opacity="0.9" d="M172.425 41.9059H137.666V12.9403L172.425 41.9059Z" fill="url(#paint3_linear)"/>
<path opacity="0.9" d="M142.01 41.9059H176.768V12.9403L142.01 41.9059Z" fill="url(#paint4_linear)"/>
<path opacity="0.9" d="M156.495 41.9058H130.426V20.1817L156.495 41.9058Z" fill="url(#paint5_linear)"/>
<path opacity="0.9" d="M182.563 41.9058H156.494L182.563 20.1817V41.9058Z" fill="url(#paint6_linear)"/>
<defs>
<linearGradient id="paint0_linear" x1="114.672" y1="32.1373" x2="0" y2="32.1373" gradientUnits="userSpaceOnUse">
<stop stop-color="#FFE2A7"/>
<stop offset="1" stop-color="#FCB435" stop-opacity="0.5"/>
</linearGradient>
<linearGradient id="paint1_linear" x1="200.801" y1="31.9699" x2="325.888" y2="31.9699" gradientUnits="userSpaceOnUse">
<stop stop-color="#FFE2A7"/>
<stop offset="1" stop-color="#FCB435" stop-opacity="0.5"/>
</linearGradient>
<linearGradient id="paint2_linear" x1="157.218" y1="41.9059" x2="157.218" y2="0" gradientUnits="userSpaceOnUse">
<stop stop-color="#FFE2A7"/>
<stop offset="1" stop-color="#FCB435" stop-opacity="0.5"/>
</linearGradient>
<linearGradient id="paint3_linear" x1="137.666" y1="27.4231" x2="172.425" y2="27.4231" gradientUnits="userSpaceOnUse">
<stop stop-color="#FFE2A7"/>
<stop offset="1" stop-color="#FCB435" stop-opacity="0.5"/>
</linearGradient>
<linearGradient id="paint4_linear" x1="176.768" y1="27.4231" x2="142.01" y2="27.4231" gradientUnits="userSpaceOnUse">
<stop stop-color="#FFE2A7"/>
<stop offset="1" stop-color="#FCB435" stop-opacity="0.5"/>
</linearGradient>
<linearGradient id="paint5_linear" x1="130.426" y1="31.0438" x2="156.495" y2="31.0438" gradientUnits="userSpaceOnUse">
<stop stop-color="#FFE2A7"/>
<stop offset="1" stop-color="#FCB435" stop-opacity="0.5"/>
</linearGradient>
<linearGradient id="paint6_linear" x1="182.563" y1="31.0438" x2="156.494" y2="31.0438" gradientUnits="userSpaceOnUse">
<stop stop-color="#FFE2A7"/>
<stop offset="1" stop-color="#FCB435" stop-opacity="0.5"/>
</linearGradient>
</defs>
</svg>
