<svg width="52" height="41" viewBox="0 0 52 41" fill="none" xmlns="http://www.w3.org/2000/svg">
<path d="M9.4678 40.2464V37.6169C9.52756 36.7803 8.87019 36.0034 7.97378 35.9436H7.7945C7.19689 35.8839 6.59928 36.1827 6.30048 36.6607C6.00168 36.1827 5.46383 35.8839 4.86623 35.9436C4.38814 35.9436 3.8503 36.1229 3.61125 36.5412V36.0034H2.71484V40.2464H3.61125V37.9157C3.55149 37.3779 3.91006 36.84 4.4479 36.7803H4.62718C5.22479 36.7803 5.52359 37.1986 5.52359 37.9157V40.2464H6.42V37.9157C6.36024 37.3779 6.71881 36.84 7.25665 36.7803H7.43593C8.03354 36.7803 8.33234 37.1986 8.33234 37.9157V40.2464H9.4678ZM23.3323 36.0034H21.7785V34.6886H20.8821V36.0034H20.0454V36.84H20.8821V38.8121C20.8821 39.8281 21.2406 40.4257 22.3761 40.4257C22.7944 40.4257 23.153 40.3061 23.5713 40.1269L23.2725 39.35C23.0335 39.4695 22.7347 39.589 22.4956 39.589C22.0773 39.589 21.898 39.2902 21.898 38.8719V36.8998H23.4518L23.3323 36.0034ZM31.2804 35.9436C30.8621 35.9436 30.4438 36.1827 30.145 36.5412V36.0631H29.2486V40.3061H30.145V37.9157C30.145 37.2583 30.4438 36.7803 30.9816 36.7803C31.1609 36.7803 31.3402 36.84 31.5195 36.8998L31.8183 36.0631C31.6988 35.9436 31.4597 35.8839 31.2804 35.9436ZM19.2685 36.3619C18.7307 36.0631 18.1331 35.8839 17.5355 35.9436C16.4 35.9436 15.7427 36.4217 15.7427 37.3181C15.7427 37.9755 16.2207 38.4536 17.2367 38.5731L17.655 38.6328C18.1331 38.6926 18.3721 38.8121 18.3721 39.0512C18.3721 39.35 18.0733 39.5293 17.3562 39.5293C16.8781 39.5293 16.3403 39.4097 15.9219 39.1109L15.5036 39.8281C16.0415 40.1866 16.6988 40.3659 17.3562 40.3659C18.6112 40.3659 19.3283 39.8281 19.3283 38.9316C19.3283 38.095 18.7905 37.7364 17.8343 37.6169L17.416 37.5572C16.9976 37.4974 16.6988 37.4376 16.6988 37.1388C16.6988 36.84 16.9976 36.6607 17.4757 36.6607C17.9538 36.6607 18.3721 36.7803 18.8502 37.0193L19.2685 36.3619ZM44.129 35.9436C43.7106 35.9436 43.2923 36.1827 42.9935 36.5412V36.0631H42.0971V40.3061H42.9935V37.9157C42.9935 37.2583 43.2923 36.7803 43.8302 36.7803C44.0094 36.7803 44.1887 36.84 44.368 36.8998L44.6668 36.0631C44.5473 35.9436 44.3083 35.8839 44.129 35.9436ZM32.1768 38.1548C32.1171 39.35 33.0135 40.3061 34.2685 40.3659H34.4477C34.9856 40.3659 35.5832 40.2464 36.0015 39.8878L35.5832 39.1707C35.2844 39.4097 34.8661 39.5293 34.4477 39.5293C33.7306 39.4695 33.133 38.8121 33.1928 38.0352C33.2525 37.3779 33.7306 36.84 34.4477 36.7803C34.8661 36.7803 35.2246 36.8998 35.5832 37.1388L36.0015 36.4217C35.5832 36.0631 34.9856 35.8839 34.4477 35.9436C33.2525 35.8839 32.2366 36.7803 32.1768 37.9755V38.1548ZM40.9019 38.1548V36.0631H39.9457V36.5412C39.6469 36.1229 39.1688 35.9436 38.5712 35.9436C37.3163 35.9436 36.3601 36.9595 36.3601 38.1548C36.3601 39.4097 37.376 40.3659 38.5712 40.3659C39.0493 40.3659 39.6469 40.1866 39.9457 39.7683V40.2464H40.8421L40.9019 38.1548ZM37.4358 38.1548C37.4955 37.4376 38.0931 36.8998 38.8103 36.8998C39.5274 36.9595 40.0652 37.5572 40.0652 38.2743C40.0055 38.9316 39.4676 39.5293 38.7505 39.5293C38.0931 39.5293 37.4358 38.9914 37.4358 38.2743V38.1548ZM26.2605 35.9436C25.0056 35.9436 24.0494 37.0193 24.0494 38.2145C24.0494 39.4695 25.1251 40.4257 26.3203 40.4257C26.9179 40.4854 27.635 40.2464 28.1131 39.8878L27.6948 39.2305C27.3362 39.5293 26.9179 39.6488 26.4398 39.6488C25.8422 39.7085 25.1848 39.2304 25.1251 38.5731H28.2924V38.2145C28.2924 36.7803 27.4557 35.9436 26.2605 35.9436ZM26.2605 36.7205C26.7984 36.7205 27.3362 37.1388 27.396 37.7962H25.1848C25.0653 37.1388 25.6629 36.7205 26.2605 36.7205ZM49.5074 38.1548V34.3301H48.6708V36.5412C48.372 36.1229 47.8939 35.9436 47.2963 35.9436C46.0413 35.9436 45.0851 36.9595 45.0851 38.1548C45.0851 39.4097 46.1011 40.3659 47.2963 40.3659C47.7744 40.3659 48.372 40.1866 48.6708 39.7683V40.2464H49.5074V38.1548ZM51.0612 39.6488C51.121 39.6488 51.1807 39.6488 51.2405 39.7085C51.3002 39.7085 51.36 39.7683 51.36 39.7683L51.4795 39.8878C51.5393 40.0073 51.5393 40.1269 51.4795 40.1866C51.4795 40.2464 51.4198 40.3061 51.36 40.3061C51.3003 40.3659 51.3002 40.3659 51.2405 40.3659C51.1807 40.3659 51.121 40.4257 51.0612 40.4257C50.8819 40.4257 50.7624 40.3061 50.6429 40.1866C50.5831 40.0671 50.5831 39.9476 50.6429 39.8878C50.6429 39.8281 50.7026 39.7683 50.7624 39.7683C50.8222 39.7085 50.8222 39.7085 50.8819 39.7085C50.9417 39.7085 51.0014 39.6488 51.0612 39.6488ZM51.0612 40.4257H51.1807C51.2405 40.4257 51.2405 40.3659 51.3002 40.3659C51.4198 40.2464 51.4198 40.0671 51.3002 39.9476C51.3002 39.9476 51.2405 39.8878 51.1807 39.8878H50.9417C50.8819 39.8878 50.8819 39.9476 50.8222 39.9476C50.7026 40.0671 50.7026 40.2464 50.8222 40.3659C50.8222 40.3659 50.8819 40.4257 50.9417 40.4257H51.0612ZM51.0612 39.8878C51.121 39.8878 51.121 39.8878 51.1807 39.9476C51.1807 39.9476 51.2405 40.0073 51.2405 40.0671C51.2405 40.0671 51.2405 40.1269 51.1807 40.1269C51.1807 40.1269 51.121 40.1866 51.0612 40.1866L51.1807 40.3061H51.0612L50.9417 40.1866H50.8819V40.3061H50.8222V39.9476L51.0612 39.8878ZM50.9417 39.9476V40.0671H51.121V40.0073V39.9476H50.9417ZM46.0413 38.1548C46.1011 37.4376 46.6987 36.8998 47.4158 36.8998C48.0732 36.8998 48.6708 37.5572 48.6708 38.2743C48.611 38.9316 48.0732 39.5293 47.356 39.5293C46.6987 39.5293 46.0413 38.9914 46.0413 38.2743V38.1548ZM14.7267 38.1548V36.0034H13.8303V36.4815C13.5315 36.0631 13.0534 35.8839 12.4558 35.8839C11.2009 35.8839 10.2447 36.8998 10.2447 38.095C10.2447 39.35 11.2606 40.3061 12.4558 40.3061C12.9339 40.3061 13.5315 40.1269 13.8303 39.7085V40.1866H14.7267V38.1548ZM11.2606 38.1548C11.3204 37.4376 11.918 36.8998 12.6351 36.8998C13.3522 36.9595 13.8901 37.5572 13.8901 38.2743C13.8303 38.9316 13.2925 39.5293 12.5753 39.5293C11.8582 39.5293 11.2606 38.9316 11.2606 38.2743V38.1548Z" fill="white"/>
<path d="M18.9629 3.49365H33.0066V28.7724H18.9629V3.49365Z" fill="#858585"/>
<path d="M19.9274 16.1621C19.9274 11.202 22.1983 6.60039 26.023 3.49284C19.031 -2.00514 8.93149 -0.750165 3.43351 6.18207C-2.06446 13.1143 -0.809491 23.2736 6.12274 28.7716C11.9195 33.3134 20.1067 33.3134 25.9633 28.7716C22.1386 25.7836 19.8677 21.0625 19.9274 16.1621Z" fill="#494949"/>
<path d="M51.9498 16.1625C51.9498 25.0669 44.7188 32.1784 35.9339 32.1784C32.3483 32.1784 28.8224 30.9234 26.0137 28.7123C33.0057 23.2143 34.2009 13.1147 28.7029 6.12274C27.926 5.10681 26.9698 4.2104 26.0137 3.43351C33.0057 -2.06446 43.1052 -0.809491 48.6032 6.12274C50.8143 9.05101 51.9498 12.5769 51.9498 16.1625ZM50.4558 26.0828V25.6047H50.635V25.4852H50.0972V25.6047H50.3362V26.0828H50.4558ZM51.4717 26.0828V25.4852H51.2924L51.1131 25.9035L50.9339 25.4852H50.8143V26.0828H50.9339V25.6047L51.1131 26.023H51.2327L51.4119 25.6047L51.4717 26.0828Z" fill="#B0B0B0"/>
</svg>
