<svg width="63" height="54" viewBox="0 0 63 54" fill="none" xmlns="http://www.w3.org/2000/svg">
<path d="M31.4848 0C21.5159 0 13.4082 8.10767 13.4082 18.0767C13.4082 19.8748 13.6606 21.6099 14.1653 23.2504C18.929 16.8778 24.3551 6.972 24.9861 5.4577C25.5854 4.06961 26.0586 3.40712 27.6676 3.75414C28.1093 3.8488 28.8033 4.5744 28.614 6.08864C27.5414 14.6379 28.4247 27.9194 30.4753 26.2474C32.3366 24.7646 36.5008 16.5939 37.7943 13.4076C38.4568 11.7356 38.8353 10.7892 40.3181 10.9154C41.4853 11.0416 41.6746 12.335 41.7062 12.7767C41.99 18.613 44.5769 22.7456 44.8925 23.2819C45.4919 24.323 44.4823 24.3861 43.0312 22.8088C42.1164 21.8308 40.7913 19.6856 39.8765 17.2249C39.6241 16.4993 34.7027 31.4843 29.0242 29.7176C24.6707 28.3926 24.6707 18.4868 24.8915 13.7231C24.923 13.2499 20.3487 22.6826 16.4369 28.0141C19.6547 32.9039 25.207 36.1217 31.5164 36.1217C41.4854 36.1217 49.593 28.0141 49.593 18.0451C49.5613 8.10767 41.4536 0 31.4848 0Z" fill="#858585"/>
<path d="M6.24635 44.2608L3.84869 51.5167H3.40701L1.00946 44.2608H0.883306V51.5167H0V43.5352H1.60885L3.65949 49.7499L5.67852 43.5352H7.31897V51.5166H6.43567L6.40411 44.2608H6.24635V44.2608ZM20.3165 45.9643C19.9063 45.9643 19.4332 45.8697 18.8022 46.1536C18.5498 46.2798 18.2659 46.406 18.0135 46.6268V51.4219H17.004V45.3333H17.7296L17.8557 45.9643C18.1082 45.7435 18.3921 45.5542 18.7076 45.4595C19.6224 45.1441 20.2218 45.1756 20.3796 45.2703L20.3165 45.9643ZM26.0581 48.709C26.0581 49.2768 25.995 49.7185 25.9004 50.0971C25.8057 50.4756 25.6479 50.7595 25.4271 50.9804C25.2063 51.2012 24.9539 51.3589 24.6069 51.4536C24.2599 51.5482 23.8812 51.5797 23.4081 51.5797C22.9349 51.5797 22.5563 51.5167 22.2093 51.4536C21.8623 51.3589 21.6098 51.2012 21.3891 50.9804C21.1682 50.7595 21.0105 50.444 20.9158 50.0971C20.8212 49.7185 20.7581 49.2768 20.7581 48.709V48.0465C20.7581 47.5102 20.8212 47.1001 20.9158 46.7215C21.0105 46.343 21.1683 46.059 21.3891 45.8382C21.6098 45.6174 21.8623 45.4596 22.2093 45.365C22.5563 45.2704 22.9349 45.2388 23.4081 45.2388C23.8812 45.2388 24.2599 45.3019 24.6069 45.365C24.9539 45.4596 25.2063 45.6174 25.4271 45.8382C25.6479 46.059 25.8057 46.3745 25.9004 46.7215C25.995 47.1001 26.0581 47.4787 26.0581 48.0465V48.709ZM25.0801 47.9203C25.0801 47.5102 25.0486 47.1631 25.017 46.9107C24.9538 46.6584 24.8908 46.4376 24.733 46.2798C24.6069 46.1221 24.4176 46.0274 24.2283 45.9643C24.0075 45.9012 23.7551 45.8697 23.4397 45.8697C23.1242 45.8697 22.8403 45.9012 22.651 45.9643C22.4301 46.0274 22.2724 46.1221 22.1462 46.2798C22.02 46.4376 21.9254 46.6269 21.8939 46.9107C21.8308 47.1631 21.8308 47.6047 21.8308 48.0149V48.6774C21.8308 49.0875 21.8624 49.5922 21.8939 49.8446C21.957 50.0971 22.0201 50.3178 22.1462 50.4756C22.2724 50.6333 22.4302 50.7279 22.651 50.7911C22.8718 50.8542 23.1242 50.8857 23.4397 50.8857C23.7551 50.8857 24.039 50.8542 24.2283 50.7911C24.4492 50.728 24.6069 50.6333 24.733 50.4756C24.8593 50.3178 24.9539 50.1286 25.017 49.8446C25.0801 49.5923 25.0801 49.0875 25.0801 48.6774V47.9203ZM15.8998 49.4661C15.8998 50.0339 15.8998 49.5292 15.8683 50.0654C15.8367 50.444 15.679 50.7595 15.4581 50.9803C15.2373 51.2011 14.985 51.3589 14.6379 51.4535C14.2909 51.5481 13.9123 51.5797 13.4391 51.5797C12.9659 51.5797 12.5873 51.5166 12.2403 51.4535C11.8933 51.3589 11.704 51.2327 11.4831 51.0119C11.2623 50.791 11.1046 50.4755 11.01 50.1285C10.9153 49.7499 10.8522 49.3083 10.8522 48.7405V48.0464C10.8522 47.5101 10.9153 47.1 11.01 46.7215C11.1046 46.343 11.2623 46.059 11.4831 45.8382C11.704 45.6173 11.9248 45.4911 12.2403 45.3965C12.5873 45.3019 12.9659 45.2703 13.4391 45.2703C13.9123 45.2703 14.2909 45.3333 14.6379 45.3965C14.9849 45.4911 15.2373 45.6489 15.4581 45.8697C15.679 46.0905 15.7736 46.3744 15.8367 46.753C15.8998 47.2893 15.8683 46.7845 15.8683 47.3524H15.0165C15.0165 46.9738 14.8903 46.4376 14.7641 46.2798C14.6379 46.1221 14.4486 46.0274 14.2593 45.9643C14.0385 45.9012 13.7861 45.8697 13.4706 45.8697C13.1551 45.8697 12.8712 45.9012 12.682 45.9643C12.4611 46.0274 12.3034 46.1221 12.1772 46.2798C12.051 46.4376 11.9563 46.6269 11.9248 46.9107C11.8617 47.1631 11.8617 47.6047 11.8617 48.0149V48.6774C11.8617 49.0875 11.8933 49.5922 11.9248 49.8446C11.9879 50.0971 12.051 50.3178 12.1772 50.4756C12.3034 50.6333 12.4611 50.7279 12.682 50.7911C12.9028 50.8543 13.1551 50.8857 13.4706 50.8857C13.7861 50.8857 14.07 50.8542 14.2593 50.7911C14.4802 50.728 14.6379 50.6333 14.7641 50.4756C14.8903 50.3178 15.0165 49.9393 15.0165 49.4661H15.8998ZM40.5068 45.9012C40.8538 45.6489 41.2324 45.4911 41.5793 45.3649C41.8317 45.3018 42.1788 45.2387 42.5258 45.2387C42.9359 45.2387 43.2829 45.3018 43.5353 45.428C43.7877 45.5542 43.9455 45.6803 44.1347 45.9012C44.4818 45.6803 44.7341 45.5857 45.0812 45.428C45.4282 45.3018 45.8383 45.2072 46.2169 45.2072C46.5955 45.2072 46.974 45.3018 47.2264 45.3964C47.4472 45.4595 47.6365 45.5857 47.7627 45.7435C47.8889 45.9012 48.0466 46.2482 48.1098 46.5006C48.1728 46.753 48.1413 46.8476 48.1413 47.1631V51.4536L47.2264 51.4851V47.1947C47.2264 46.753 47.0687 46.406 46.911 46.2482C46.7532 46.0904 46.4693 45.8697 46.0277 45.8697C45.8069 45.8697 45.3652 45.8697 45.0812 45.9959C44.7972 46.1221 44.6396 46.1851 44.3872 46.406L44.4187 51.4851H43.5354V47.1947C43.5354 46.9738 43.5354 46.7845 43.4723 46.6268C43.3461 46.3113 43.22 46.2166 43.1568 46.1536C43.0622 46.059 42.9045 45.9643 42.7467 45.9328C42.6206 45.9012 42.4628 45.8697 42.242 45.8697C41.9896 45.8697 41.6741 45.9012 41.3902 45.9959C41.1063 46.0905 40.8539 46.2482 40.6016 46.4376L40.57 51.4536H39.6867V45.3964H40.4123L40.5068 45.9012ZM49.4346 43.5352H50.4126V44.5131H49.4346V43.5352ZM49.4662 45.3649H50.4126V51.4536H49.4662V45.3649ZM8.80166 43.5983H9.77962V44.5763H8.80166V43.5983ZM8.83316 45.428H9.77962V51.5167H8.83316V45.428ZM52.4316 45.3964L52.5578 45.9959C52.9049 45.775 53.2203 45.5857 53.5673 45.4595C53.9144 45.3333 54.2929 45.2702 54.7031 45.2702C55.0816 45.2702 55.3971 45.3018 55.681 45.3964C55.9335 45.4595 56.1542 45.5857 56.3435 45.7435C56.5013 45.9012 56.6274 46.1536 56.7221 46.406C56.7852 46.6583 56.8483 47.0053 56.8483 47.4155V51.4536H55.8388V47.4155C55.8388 47.1631 55.8072 46.7215 55.7442 46.5322C55.6811 46.3428 55.618 46.2166 55.4918 46.1221C55.3656 46.0274 55.2395 45.9643 55.0817 45.9012C54.8924 45.8697 54.7032 45.8382 54.4823 45.8382C54.1668 45.8382 53.8514 45.9012 53.5359 45.9959C53.2204 46.0905 52.9365 46.2167 52.684 46.4061V51.422H51.7376V45.3649C51.706 45.3964 52.4316 45.3964 52.4316 45.3964ZM61.9905 50.8542C61.7066 51.0435 61.4858 51.2012 61.1702 51.3274C60.8548 51.4536 60.5393 51.5166 60.2238 51.5166C59.8767 51.5166 59.5298 51.4851 59.2459 51.3904C58.9619 51.3274 58.7095 51.1696 58.5202 50.9803C58.3309 50.791 58.1732 50.5071 58.047 50.1285C57.9524 49.7815 57.8892 49.3083 57.8892 48.7405V48.0149C57.8892 47.447 57.9524 46.9738 58.047 46.6268C58.1416 46.2797 58.2994 45.9958 58.5202 45.775C58.7095 45.5857 58.9618 45.4279 59.2459 45.3649C59.5297 45.3018 59.8452 45.2387 60.2238 45.2387C60.5708 45.2387 60.9178 45.3017 61.2333 45.4279C61.5804 45.5541 61.8958 45.7434 62.1798 45.9643L62.2113 45.3649H63V51.5166C63 52.2106 62.7476 52.8416 62.3691 53.1886C61.9905 53.5356 61.4858 53.6303 60.634 53.6303C60.3184 53.6303 60.003 53.6933 59.656 53.6618C59.309 53.6303 59.025 53.6303 58.7411 53.5356L58.8674 52.9362C59.1829 53.0308 60.9495 52.9993 61.1388 52.9362C61.328 52.8731 61.5489 52.7154 61.6751 52.6207C61.8013 52.5261 61.8644 52.3683 61.9274 52.179C61.9905 51.9897 62.0221 51.7689 62.0221 51.5165L61.9905 50.8542ZM60.3816 45.8697C60.1292 45.8697 59.9084 45.9012 59.719 45.9643C59.5298 46.0274 59.372 46.1221 59.2459 46.2798C59.1196 46.4376 58.9935 46.7845 58.9303 47.037C58.8673 47.2893 58.8358 47.6048 58.8358 47.9834V48.6774C58.8358 49.0875 58.8673 49.403 58.9303 49.6554C58.9935 49.9077 59.0882 50.2548 59.1828 50.4126C59.309 50.5703 59.4667 50.6649 59.6559 50.728C59.8452 50.7911 60.0661 50.8227 60.3184 50.8227C60.6023 50.8227 60.9494 50.7911 61.2649 50.6649C61.5804 50.5387 61.8012 50.4756 62.0535 50.2548V46.5322C61.8012 46.2798 61.5172 46.1221 61.2018 45.9959C60.8863 45.8697 60.6655 45.8697 60.3816 45.8697ZM31.1056 50.8542C30.8217 51.0435 30.6009 51.2012 30.2854 51.3274C29.9699 51.4536 29.6545 51.5166 29.339 51.5166C28.992 51.5166 28.6449 51.4851 28.361 51.3904C28.0771 51.3274 27.8247 51.1696 27.6355 50.9803C27.4462 50.791 27.2885 50.5071 27.1622 50.1285C27.0676 49.7815 27.0044 49.3083 27.0044 48.7405V48.0149C27.0044 47.447 27.0676 46.9738 27.1622 46.6268C27.2569 46.2797 27.4146 45.9958 27.6355 45.775C27.8247 45.5857 28.0771 45.4279 28.361 45.3649C28.6449 45.3018 28.9604 45.2387 29.339 45.2387C29.686 45.2387 30.033 45.3017 30.3484 45.4279C30.664 45.5541 31.011 45.7434 31.2949 45.9643L31.3265 45.3649H32.1152V51.5166C32.1152 52.2106 31.8627 52.8416 31.4842 53.1886C31.1057 53.5356 30.6009 53.6303 29.7491 53.6303C29.4336 53.6303 29.1182 53.6933 28.7712 53.6618C28.4241 53.6303 28.1402 53.6303 27.8563 53.5356L27.9826 52.9362C28.298 53.0308 30.0647 52.9993 30.254 52.9362C30.4432 52.9046 30.6641 52.7154 30.7902 52.6207C30.9164 52.5261 30.9795 52.3683 31.0426 52.179C31.1058 51.9897 31.1373 51.7689 31.1373 51.5165V50.8541H31.1056V50.8542ZM29.4967 45.8697C29.2443 45.8697 29.0236 45.9012 28.8342 45.9643C28.6449 46.0274 28.4872 46.1221 28.361 46.2798C28.2348 46.4376 28.1087 46.7845 28.0455 47.037C27.9825 47.2893 27.9509 47.6048 27.9509 47.9834V48.6774C27.9509 49.0875 27.9825 49.403 28.0455 49.6554C28.1087 49.9077 28.2033 50.2548 28.2979 50.4126C28.4241 50.5703 28.5818 50.6649 28.7711 50.728C28.9604 50.7911 29.1812 50.8227 29.4336 50.8227C29.7176 50.8227 30.0646 50.7911 30.3801 50.6649C30.6955 50.5387 30.9163 50.4756 31.1687 50.2548V46.5322C30.9163 46.2798 30.6324 46.1221 30.3169 45.9959C30.0014 45.8697 29.7806 45.8697 29.4967 45.8697ZM37.6359 45.3649L37.5097 45.8696C37.5097 45.8696 36.7841 45.428 36.4686 45.3333C35.9324 45.1755 35.3645 45.2071 35.0491 45.2702C34.7967 45.3333 34.2918 45.5226 34.0711 45.6803C33.8818 45.8066 33.6294 46.2166 33.5348 46.406C33.4402 46.6268 33.3454 47.1631 33.3454 47.4155C33.3139 48.0149 33.2192 49.1822 33.3454 49.7499C33.4085 50.0971 33.5978 50.7595 33.8186 51.0119C34.0079 51.2327 34.5127 51.5166 34.7966 51.5797C35.1437 51.6744 35.9007 51.6744 36.2793 51.5797C36.6263 51.5166 37.4782 50.9803 37.4782 50.9803L37.6044 51.5166H38.3299V45.428H37.6044V45.365H37.6359V45.3649ZM37.4467 50.3494C37.4467 50.3494 36.658 50.8226 36.3425 50.8858C36.0902 50.9488 35.5538 50.9488 35.333 50.8858C35.1437 50.8227 34.8283 50.728 34.5759 50.4126C34.3866 50.1917 34.3866 49.8762 34.3551 49.6869C34.2289 49.056 34.2289 47.7625 34.3551 47.1316C34.3866 46.9423 34.3551 46.7846 34.5128 46.4692C34.6705 46.1852 34.8913 46.059 35.0806 45.9644C35.333 45.8382 35.964 45.8382 36.2479 45.8698C36.5634 45.9328 37.4467 46.343 37.4467 46.343V50.3494H37.4467Z" fill="#858585"/>
</svg>
