<svg width="65" height="22" viewBox="0 0 65 22" fill="none" xmlns="http://www.w3.org/2000/svg">
<path d="M46.1983 5.21595C47.6058 5.21595 48.8477 3.97406 48.8477 2.64937C48.8477 1.24189 47.6058 0 46.1983 0C44.7908 0 43.6318 1.24189 43.6318 2.64937C43.6318 3.97406 44.7908 5.21595 46.1983 5.21595ZM26.0797 6.54063C25.9969 6.8718 25.0862 9.27279 23.0992 11.7566V1.07631L17.5521 2.15261V21.6089H23.0992V15.565C24.755 17.966 25.4174 21.6089 25.4174 21.6089H32.0408C31.3784 18.8768 28.4807 13.9092 28.4807 13.9092C31.0473 10.6803 32.1236 7.20297 32.3719 6.62342C32.2892 6.54063 26.0797 6.54063 26.0797 6.54063ZM40.5684 6.37505C35.6009 6.54063 33.1171 8.69324 33.1171 13.1641V21.6089H38.4986V14.7371C38.4986 12.0877 38.8298 10.9286 41.9759 10.8459V6.45784C41.4791 6.29225 40.5684 6.37505 40.5684 6.37505ZM8.19648 8.69324C7.53414 8.61045 5.96107 8.61045 5.96107 7.12018C5.96107 5.46432 8.27927 5.46432 9.1072 5.46432C10.5975 5.46432 12.5017 5.96108 13.8264 6.29225C13.8264 6.29225 14.5715 6.62342 15.2339 6.8718H15.3166V2.15261L15.2339 2.06982C13.578 1.49027 11.7566 0.91072 8.19648 0.91072C2.15261 0.91072 0 4.47081 0 7.36856C0 9.10721 0.745132 13.2468 7.61693 13.6608C8.19648 13.7436 9.68674 13.7436 9.68674 15.2339C9.68674 16.4758 8.44485 17.1381 6.29224 17.1381C3.97405 17.1381 1.65585 16.5586 0.248374 15.979V20.8638C2.31819 21.4433 4.63639 21.6089 7.36855 21.6089C13.2468 21.6089 15.8962 18.2972 15.8962 14.9855C16.1446 11.5082 13.164 9.10721 8.19648 8.69324ZM43.549 21.6089H48.9305V6.62342H43.549V21.6089ZM58.9484 2.06982V21.6089H64.3299V1.07631L58.9484 2.06982ZM51.1659 2.06982L56.5474 1.07631V21.6089H51.1659V2.06982Z" fill="#666666"/>
</svg>
