<svg width="97" height="22" viewBox="0 0 97 22" fill="none" xmlns="http://www.w3.org/2000/svg">
<path d="M34.5489 3.4185C35.8652 6.52308 32.5123 11.149 26.6384 14.9614L26.5205 14.8992C26.35 14.7667 26.2606 14.5551 26.2845 14.3404C26.2848 14.1945 26.2994 14.0489 26.328 13.9058L26.9489 10.41H28.5819L28.8489 8.91367H27.1787L27.5512 6.72798H25.7567L25.3842 8.91367H24.1051L23.8443 10.41H25.1545L24.5335 13.8748C24.5025 14.0238 24.4839 14.179 24.4652 14.3528C24.4466 14.5267 24.4652 14.6819 24.4652 14.8247C24.4479 15.2679 24.609 15.6995 24.9123 16.0231C23.5056 16.8252 22.0545 17.5466 20.5659 18.1839C11.128 22.2385 2.07502 22.1888 0.355048 18.1032C-0.967578 14.9986 1.40435 10.5528 7.48317 6.57279L5.77558 16.3957H7.48928L7.70661 15.1166C7.96272 15.5817 8.35779 15.9551 8.83662 16.1845C9.31689 16.4377 9.85226 16.5678 10.3952 16.5633C10.9644 16.5686 11.5273 16.4432 12.0406 16.1969C12.5338 15.9565 12.9715 15.6161 13.3259 15.1973C13.6952 14.7627 13.9815 14.2638 14.1704 13.7257C14.3728 13.145 14.4735 12.5338 14.4685 11.9188C14.473 11.4723 14.3973 11.0286 14.2449 10.6087C14.1096 10.2305 13.8983 9.88394 13.6239 9.5904C13.3463 9.30075 13.0096 9.07425 12.6367 8.92606C12.2207 8.77843 11.78 8.71305 11.339 8.73349C10.8047 8.72788 10.2774 8.85591 9.80533 9.10607C9.34883 9.35512 8.95737 9.70826 8.66283 10.1368L9.55078 5.36825C11.011 4.54417 12.5159 3.80202 14.0586 3.1454C24.8936 -1.48677 32.8289 -0.667131 34.5489 3.4185ZM22.8881 12.3969C22.9142 12.1661 22.9287 11.9339 22.9316 11.7014C22.9413 11.2539 22.8632 10.8089 22.7018 10.3913C22.5673 10.0383 22.355 9.71998 22.0808 9.45998C21.8004 9.20349 21.4679 9.01065 21.106 8.8949C20.7048 8.76649 20.2854 8.70372 19.8642 8.70861C19.2661 8.70217 18.6735 8.82281 18.1256 9.06258C17.6053 9.28831 17.1379 9.62045 16.7534 10.0374C16.3608 10.459 16.053 10.9523 15.8468 11.4903C15.6279 12.0651 15.5183 12.6758 15.524 13.291C15.5146 13.7736 15.6034 14.2531 15.7848 14.7004C15.9459 15.0963 16.1943 15.4507 16.5113 15.7374C16.8335 16.0142 17.2068 16.2252 17.6102 16.3583C18.0577 16.5119 18.5281 16.5875 19.0012 16.5819C20.2828 16.6009 21.5075 16.0533 22.3478 15.0855L21.3172 14.1044C21.0608 14.3955 20.7535 14.6374 20.4106 14.8184C20.0261 15.0116 19.5987 15.1036 19.1687 15.0855C18.9064 15.0881 18.6457 15.044 18.3989 14.955C18.1726 14.8716 17.9626 14.7498 17.7779 14.5949C17.6043 14.4461 17.4646 14.262 17.3681 14.0548C17.269 13.8409 17.2202 13.6073 17.2253 13.3717C17.2189 13.3139 17.2189 13.2556 17.2253 13.1979H22.7514C22.8138 12.9341 22.8595 12.6666 22.8881 12.3969ZM10.0848 15.0856C9.56955 15.1121 9.06845 14.9126 8.71259 14.539C8.36429 14.1593 8.18128 13.6568 8.20344 13.142C8.20022 12.3866 8.46404 11.6542 8.94848 11.0743C9.18026 10.8151 9.46086 10.6041 9.77428 10.4535C10.0932 10.2973 10.4437 10.2165 10.7988 10.2175C11.3102 10.1855 11.8075 10.3919 12.1462 10.7764C12.4669 11.1649 12.6348 11.6573 12.6182 12.161C12.6194 12.549 12.5587 12.9347 12.438 13.3035C12.3303 13.644 12.1573 13.9602 11.9289 14.2349C11.4705 14.7896 10.7857 15.1069 10.0661 15.098L10.0848 15.0856ZM19.6779 10.0809C20.116 10.0551 20.546 10.2074 20.8701 10.5032C21.1512 10.7714 21.3066 11.1455 21.2985 11.5339C21.2985 11.596 21.2985 11.6581 21.2985 11.7202V11.9189H17.4488C17.5005 11.7008 17.5842 11.4916 17.6972 11.298C17.8235 11.0692 17.9824 10.86 18.1691 10.6771C18.366 10.4931 18.5927 10.3441 18.8397 10.2362C19.1053 10.1267 19.3907 10.0739 19.6779 10.0809Z" fill="#B0B0B0"/>
<path d="M35.8782 12.8378C35.8643 13.3276 36.0275 13.806 36.3376 14.1852C36.6678 14.5576 37.1511 14.7569 37.6477 14.7254C37.9896 14.7267 38.3271 14.6502 38.6351 14.5019C38.9404 14.3499 39.2126 14.1389 39.436 13.881C39.6629 13.6116 39.8415 13.3049 39.9637 12.9745C40.0964 12.6276 40.1639 12.2592 40.1625 11.8878C40.1808 11.3871 40.0025 10.8991 39.6657 10.5281C39.3225 10.162 38.8387 9.96076 38.337 9.97548C37.9861 9.9697 37.639 10.0485 37.325 10.2053C37.0239 10.3556 36.7573 10.5671 36.5426 10.8262C36.3239 11.0929 36.1575 11.3983 36.0521 11.7266C35.9317 12.0844 35.8729 12.4602 35.8782 12.8378ZM40.5475 9.88222L40.7275 8.77705H42.404L41.2677 15.427C41.1693 16.0216 41.009 16.6043 40.7895 17.1656C40.5967 17.6631 40.3124 18.1202 39.9514 18.513C39.5907 18.8993 39.1439 19.1949 38.6474 19.3761C38.051 19.5929 37.4191 19.6962 36.7847 19.6804C36.4724 19.6801 36.1609 19.6532 35.8533 19.5997C35.5348 19.5417 35.2213 19.4587 34.9157 19.3513C34.6116 19.2425 34.3185 19.1053 34.0403 18.9414C33.7745 18.7911 33.5337 18.6004 33.3262 18.3764L34.4935 17.0911C34.7717 17.4253 35.1249 17.6891 35.5243 17.861C35.934 18.0454 36.3789 18.1386 36.8282 18.1342C37.2092 18.1447 37.5888 18.0814 37.9458 17.9479C38.2336 17.8284 38.4935 17.6508 38.7096 17.4263C38.9233 17.1959 39.0899 16.9258 39.2001 16.6315C39.329 16.3031 39.4308 15.9645 39.5043 15.6194L39.6223 15.042C39.3511 15.3962 39 15.6813 38.5977 15.8741C38.147 16.0913 37.6514 16.1998 37.151 16.1906C36.7263 16.1939 36.3048 16.1159 35.9092 15.9609C35.5496 15.8248 35.2235 15.6131 34.9531 15.34C34.6783 15.0587 34.4666 14.7222 34.3321 14.3527C34.1841 13.9448 34.1105 13.5138 34.1147 13.0798C34.1121 12.4859 34.2108 11.8958 34.4066 11.3351C34.5888 10.8136 34.8644 10.3297 35.22 9.907C35.5621 9.50298 35.9851 9.17501 36.4618 8.94451C36.9586 8.71012 37.5021 8.59131 38.0513 8.59681C38.6041 8.5701 39.1537 8.69457 39.6409 8.95689C40.0206 9.17878 40.3271 9.50687 40.5226 9.90072L40.5475 9.88222Z" fill="#B0B0B0"/>
<path d="M48.3075 12.9621C47.9597 12.9621 47.5995 12.9745 47.227 12.9993C46.8794 13.0227 46.5359 13.0852 46.2024 13.1856C45.9204 13.2633 45.6595 13.4034 45.4387 13.5954C45.2377 13.777 45.1284 14.0389 45.1407 14.3095C45.1348 14.4684 45.169 14.6265 45.2401 14.7689C45.3051 14.8874 45.3964 14.9894 45.5071 15.0669C45.6246 15.1422 45.7552 15.1949 45.8921 15.2221C46.0364 15.2574 46.1845 15.2742 46.333 15.2719C46.8531 15.28 47.3559 15.0864 47.7363 14.7316C47.9148 14.5655 48.0637 14.3702 48.1771 14.1542C48.2961 13.9297 48.3817 13.6892 48.4317 13.4402L48.5248 12.9621H48.3075ZM48.6923 11.6147C48.6923 11.4863 48.7048 11.387 48.7296 11.3166C48.7296 11.2484 48.7296 11.18 48.7296 11.1117C48.7608 10.8025 48.6292 10.4992 48.382 10.3108C48.0773 10.1287 47.724 10.0442 47.3699 10.0686C46.9892 10.0741 46.6128 10.1476 46.2584 10.2859C45.8958 10.4239 45.5533 10.6098 45.2401 10.8386L44.5571 9.59678C44.9901 9.27808 45.4726 9.03269 45.9851 8.87029C46.5153 8.69172 47.0712 8.60152 47.6306 8.6033C47.9775 8.60263 48.3234 8.64223 48.6612 8.72127C48.9896 8.79575 49.3011 8.93044 49.5802 9.11862C49.8415 9.30335 50.0545 9.54823 50.2012 9.83267C50.3787 10.1709 50.4644 10.5499 50.4494 10.9317C50.4494 11.0228 50.4494 11.1407 50.4494 11.2855C50.443 11.4085 50.4284 11.5309 50.4061 11.6519L49.8721 14.7565C49.8183 15.0588 49.7749 15.3692 49.7417 15.688C49.708 15.9557 49.6895 16.2252 49.6858 16.4951H48.0343C48.0359 16.1865 48.0673 15.8788 48.1273 15.5762C47.5477 16.3022 46.6522 16.7026 45.7245 16.6504C45.4569 16.649 45.1903 16.6177 44.9297 16.5573C44.6601 16.4981 44.4047 16.3861 44.1783 16.2281C43.9486 16.0668 43.7594 15.8541 43.6257 15.6072C43.4736 15.301 43.4011 14.9615 43.4146 14.62C43.3889 14.0675 43.5605 13.5238 43.899 13.0863C44.2312 12.6843 44.6578 12.3707 45.1408 12.1735C45.6851 11.9432 46.2605 11.7946 46.8483 11.7327C47.4601 11.6569 48.0759 11.6177 48.6923 11.6147Z" fill="#B0B0B0"/>
<path d="M52.656 9.60894C52.6995 9.29846 52.7367 9.02519 52.7553 8.77692H54.4753C54.4753 8.88873 54.4442 9.06874 54.4131 9.31718C54.3822 9.56551 54.3574 9.76418 54.3386 9.93809C54.5789 9.57312 54.884 9.25536 55.2391 9.00048C55.6513 8.70777 56.1496 8.56136 56.6547 8.58447C57.1853 8.5602 57.7104 8.70122 58.1574 8.98809C58.5201 9.2352 58.7841 9.60244 58.9025 10.0251C59.2038 9.59583 59.5934 9.23598 60.0449 8.96954C60.505 8.70461 61.0291 8.57142 61.5598 8.58447C61.9449 8.57597 62.328 8.63912 62.69 8.77076C62.9804 8.87756 63.2451 9.04469 63.4662 9.26136C63.676 9.46376 63.8356 9.71253 63.9319 9.98774C64.031 10.2711 64.0814 10.5693 64.0808 10.8695C64.0813 11.1027 64.0606 11.3355 64.0189 11.565L63.1869 16.1535H61.3551L62.0754 12.0989C62.0754 11.9748 62.119 11.8568 62.1313 11.7325C62.1406 11.6086 62.1406 11.484 62.1313 11.36C62.1325 11.2006 62.1116 11.0418 62.0692 10.8881C62.0288 10.7411 61.9591 10.6039 61.8643 10.4845C61.7578 10.366 61.6263 10.2727 61.4792 10.2113C61.2818 10.1338 61.0705 10.0978 60.8584 10.1058C60.589 10.1027 60.3227 10.1645 60.0823 10.2858C59.8477 10.4059 59.6374 10.5679 59.4613 10.7639C59.2879 10.9571 59.1475 11.1773 59.0452 11.4158C58.9427 11.6437 58.8698 11.8836 58.828 12.1298L58.1076 16.1534H56.2449L57.0397 11.7014C57.0698 11.5647 57.0865 11.4254 57.0894 11.2855C57.1036 10.9763 57.0018 10.6729 56.8038 10.4348C56.5775 10.1972 56.255 10.0759 55.9283 10.1057C55.6653 10.1006 55.4051 10.1603 55.1707 10.2796C54.9496 10.3929 54.7518 10.5467 54.5871 10.7328C54.4164 10.9165 54.2759 11.126 54.171 11.3537C54.0637 11.5851 53.9866 11.8293 53.9413 12.0802L53.2086 16.1348H51.377L52.5567 10.3603C52.5938 10.1615 52.6436 9.9132 52.6871 9.609" fill="#B0B0B0"/>
<path d="M70.9915 11.838C70.9915 11.7635 70.9915 11.6953 70.9915 11.6331C70.9915 11.5711 70.9915 11.5027 70.9915 11.4407C71.001 11.0452 70.8431 10.6643 70.5569 10.3913C70.2199 10.0829 69.7705 9.92787 69.3152 9.96281C69.0122 9.95686 68.7115 10.0162 68.4335 10.1367C68.18 10.2483 67.947 10.4015 67.7441 10.5899C67.5548 10.772 67.3937 10.9813 67.266 11.2109C67.1522 11.4047 67.0665 11.6139 67.0115 11.8319L70.9915 11.838ZM66.8997 13.1792C66.8929 13.237 66.8929 13.2953 66.8997 13.353C66.8935 13.8306 67.1008 14.2858 67.4648 14.5949C67.6477 14.7537 67.8582 14.8778 68.0858 14.9613C68.3359 15.0547 68.601 15.101 68.868 15.0978C69.2975 15.1112 69.7239 15.0196 70.1099 14.8309C70.4563 14.6416 70.7672 14.3936 71.0289 14.0981L72.0844 15.0978C71.2241 16.0817 69.9763 16.6399 68.6694 16.6253C68.1856 16.6313 67.7048 16.5536 67.2475 16.3956C66.8355 16.2511 66.4558 16.0275 66.1299 15.7374C65.8104 15.4403 65.5584 15.0784 65.3909 14.6756C65.2044 14.2187 65.1137 13.7284 65.1238 13.2351C65.116 12.5991 65.2277 11.9672 65.453 11.3723C65.6624 10.8205 65.9766 10.3146 66.3781 9.88205C66.7698 9.45749 67.2455 9.11918 67.7751 8.88862C68.3347 8.64335 68.9401 8.52055 69.551 8.52843C69.9727 8.5246 70.3922 8.58959 70.7927 8.721C71.1733 8.85402 71.5191 9.07041 71.8051 9.35435C72.0959 9.61856 72.3231 9.94565 72.4694 10.3105C72.6339 10.736 72.714 11.1895 72.7053 11.6455C72.7053 11.8194 72.7053 12.0553 72.6556 12.3595C72.6257 12.6457 72.578 12.9299 72.5128 13.2102L66.8997 13.1792Z" fill="#B0B0B0"/>
<path d="M74.1019 14.185C74.252 14.4871 74.493 14.7347 74.791 14.8928C75.1056 15.0558 75.4552 15.139 75.8094 15.135C76.1668 15.155 76.5218 15.0662 76.8277 14.8803C77.0707 14.7343 77.2156 14.4682 77.2065 14.1849C77.2263 13.9394 77.1125 13.702 76.9084 13.5639C76.6001 13.389 76.2732 13.2494 75.9335 13.1479C75.5857 13.03 75.2754 12.912 75.0084 12.7941C74.7694 12.6836 74.5479 12.5393 74.3501 12.3656C74.1805 12.21 74.0471 12.0194 73.959 11.8068C73.863 11.5703 73.8165 11.3168 73.8224 11.0617C73.8207 10.709 73.9059 10.3614 74.0708 10.0496C74.2401 9.74125 74.4729 9.47243 74.7537 9.26103C75.0619 9.02648 75.4086 8.84786 75.7783 8.73316C76.1978 8.61086 76.6329 8.55026 77.0699 8.5532C77.6127 8.54459 78.1511 8.65474 78.647 8.87607C79.1082 9.08591 79.4955 9.42994 79.7583 9.86328L78.3427 10.7201C78.2063 10.507 78.0264 10.3251 77.815 10.1862C77.546 10.0305 77.2372 9.95709 76.927 9.97497C76.7684 9.97336 76.61 9.99002 76.4552 10.0247C76.3056 10.0516 76.1609 10.102 76.0268 10.1738C75.906 10.2408 75.802 10.3342 75.7225 10.447C75.6452 10.5762 75.6063 10.7248 75.6107 10.8754C75.5987 11.0993 75.7174 11.3099 75.915 11.4156C76.1981 11.5619 76.4958 11.6783 76.8029 11.7634C77.3965 11.9068 77.9488 12.1852 78.4174 12.5768C78.8153 12.9544 79.0266 13.4882 78.9947 14.0359C79.0027 14.4243 78.9131 14.8088 78.734 15.1535C78.5545 15.4797 78.3092 15.7652 78.0138 15.9918C77.7038 16.216 77.3572 16.3841 76.9892 16.4886C76.5849 16.6005 76.1669 16.6547 75.7474 16.65C75.0712 16.6805 74.3988 16.5327 73.7977 16.2215C73.3364 15.9611 72.9497 15.587 72.6738 15.135L74.1019 14.185Z" fill="#B0B0B0"/>
<path d="M82.7809 15.3588C82.7896 15.7005 82.6572 16.0307 82.4147 16.2716C82.1816 16.5193 81.8545 16.657 81.5144 16.6504C81.1921 16.66 80.8777 16.5493 80.6327 16.3399C80.3753 16.1087 80.238 15.7723 80.2601 15.4271C80.2484 15.0731 80.3939 14.7322 80.6575 14.4957C80.9003 14.2601 81.2256 14.1286 81.564 14.1293C81.8864 14.124 82.198 14.2442 82.4332 14.4646C82.6713 14.6996 82.7979 15.0248 82.7809 15.3588Z" fill="#B0B0B0"/>
<path d="M83.2891 10.3417L83.5499 8.80175H84.8413L85.214 6.5603H87.0208L86.6483 8.80175H88.3309L88.0639 10.3417H86.4124L85.7914 13.9367C85.7609 14.0838 85.7442 14.2336 85.7417 14.3838C85.7146 14.6038 85.8069 14.8216 85.9839 14.955C86.1716 15.0658 86.3867 15.1217 86.6048 15.1165C86.7274 15.1156 86.85 15.1053 86.9711 15.0855C87.0843 15.0698 87.1963 15.0471 87.3063 15.0172L87.1947 16.4453C87.0162 16.5143 86.8309 16.5643 86.642 16.5943C86.4495 16.6299 86.2541 16.6486 86.0583 16.6502C85.4563 16.7086 84.8545 16.5355 84.3757 16.1659C84.0382 15.8254 83.8582 15.3595 83.8789 14.8805C83.8704 14.7171 83.8704 14.5534 83.8789 14.39C83.8908 14.2272 83.9135 14.0655 83.9472 13.9057L84.5682 10.3417H83.2891Z" fill="#B0B0B0"/>
<path d="M91.8522 16.6565H89.8405L88.3379 9.0813H90.2999L91.2003 14.6322H91.2314L94.429 9.0813H96.4097L91.8522 16.6565Z" fill="#B0B0B0"/>
</svg>
