<svg width="66" height="57" viewBox="0 0 66 57" fill="none" xmlns="http://www.w3.org/2000/svg">
<path d="M58.2564 8.27132C55.5539 5.50477 52.1183 3.40308 48.0448 2.02469C44.0744 0.681182 39.3886 0 34.1174 0H0V56.0856H34.1174C39.3886 56.0856 44.0744 55.4044 48.0448 54.061C52.1182 52.6825 55.5538 50.581 58.2564 47.8143C62.9634 42.9958 65.35 36.3437 65.35 28.0428C65.35 19.742 62.9634 13.0899 58.2564 8.27132Z" fill="#282828"/>
<path d="M56.2699 10.2095C53.8759 7.7587 50.8086 5.8889 47.1534 4.65202C43.4701 3.40566 39.0834 2.77368 34.1151 2.77368H2.77148V53.3118H34.1151C39.0834 53.3118 43.4701 52.6798 47.1534 51.4335C50.8086 50.1966 53.8759 48.3268 56.2699 45.876C60.453 41.5938 62.574 35.5938 62.574 28.0427C62.574 20.4916 60.453 14.4917 56.2699 10.2095Z" fill="#929292"/>
<path d="M43.3438 23.6326H45.4802L44.3945 20.0776L43.3438 23.6326Z" fill="#606060"/>
<path d="M51.425 28.57V17.3085H54.2543V25.7407H58.3382C57.6147 15.166 51.611 6.93457 34.1167 6.93457H21.9121V17.3085H24.4085C26.7676 17.3085 28.6755 19.817 28.6755 22.9115C28.6755 26.0059 26.7584 28.5145 24.3993 28.5145H21.9121V49.1513H34.1167C52.5786 49.1513 58.244 39.9844 58.411 28.57H51.425ZM37.5007 20.1377H33.2291V21.3582H37.0014V24.1874H33.2291V25.7407H37.5007V28.57H30.3998V17.3085H37.5007V20.1377ZM46.987 28.57L46.3262 26.4064H42.5227L41.8832 28.57H39.054L42.3825 17.3085H46.3768L49.8162 28.57H46.987Z" fill="#606060"/>
<path d="M26.0173 22.8836C26.0173 21.2803 25.2473 19.9712 24.2976 19.9712H21.9121V25.7961H24.2976C25.2473 25.7961 26.0173 24.4871 26.0173 22.8836Z" fill="#606060"/>
<path d="M11.7987 28.9581C15.1587 28.9581 17.8825 26.2343 17.8825 22.8743C17.8825 19.5143 15.1587 16.7905 11.7987 16.7905C8.43866 16.7905 5.71484 19.5143 5.71484 22.8743C5.71484 26.2343 8.43866 28.9581 11.7987 28.9581Z" fill="#282828"/>
<path d="M16.7535 31.7319H6.87891V49.1512H16.7535V31.7319Z" fill="#282828"/>
</svg>
