<svg width="105" height="22" viewBox="0 0 105 22" fill="none" xmlns="http://www.w3.org/2000/svg">
<path d="M17.668 6.92163H25.1924V8.84466H20.3855V10.4091H24.5409V12.215H20.3855V15.8735H17.668V6.92163Z" fill="#494949"/>
<path d="M34.0905 8.84477V6.91821H26.5625V6.91933H26.5566V15.8736H26.5625H29.2801H34.0811V13.9505H29.2801V12.2151H32.4582V10.408H29.2801V8.84477H34.0905Z" fill="#494949"/>
<path d="M97.7428 6.93433L96.1572 9.95661L94.5799 6.93433H91.8848L94.7873 12.1398V15.8896H97.5039V12.1398L100.417 6.93433H97.7428Z" fill="url(#paint0_linear)"/>
<path d="M44.2266 6.90161H46.9147L48.5015 9.92725L50.0836 6.90161H52.7612L49.8422 12.1046V15.8615H47.1281V12.1046L44.2266 6.90161Z" fill="#494949"/>
<path d="M83.5629 7.64217C83.0612 7.16413 82.3055 6.92505 81.3 6.92505H80.5394H76.7988V15.8828H79.4708V12.5581H80.5393H80.9904C82.1144 12.5581 82.9488 12.3061 83.4948 11.7977C84.0421 11.2843 84.3139 10.5814 84.3139 9.67661C84.3141 8.7977 84.0644 8.11686 83.5629 7.64217ZM81.2813 10.4688C81.1232 10.6071 80.8758 10.6914 80.5394 10.7266C80.4223 10.7371 80.2946 10.7465 80.1551 10.7465H79.4709V8.75083H80.2641C80.3636 8.75083 80.4551 8.75083 80.5394 8.75776C80.9109 8.78478 81.1699 8.87974 81.3259 9.04136C81.5145 9.23363 81.6071 9.475 81.6071 9.7586C81.6071 10.0446 81.4991 10.2824 81.2813 10.4688Z" fill="url(#paint1_linear)"/>
<path d="M35.2374 6.92505H43.4967L43.4896 8.84567H40.7159L40.7253 15.8827H38.0089L37.9983 8.84567H35.2246L35.2374 6.92505Z" fill="#494949"/>
<path d="M13.9535 6.91553H13.2063H12.641H11.3145L8.36719 15.8697H11.0871L11.4668 14.3942H12.641H12.7945H13.7965L14.1831 15.8697H16.8996L13.9535 6.91553ZM12.861 12.4538H12.641H11.9918L12.6082 9.23573L12.641 9.39131V9.39288L12.7056 9.69733L12.708 9.70885V9.70879L13.2903 12.4538H12.861Z" fill="#494949"/>
<path d="M89.3581 6.92505H88.0445H86.7203L83.7754 15.8851H86.4906L86.8727 14.4062H88.0445H89.2023L89.5867 15.8851H92.3099L89.3581 6.92505ZM88.0445 12.4679H87.3917L88.0142 9.24883L88.0445 9.40581L88.6948 12.4679H88.0445Z" fill="url(#paint2_linear)"/>
<path d="M0 12.796H2.61208C2.66599 13.2072 2.77023 13.4381 2.94729 13.6584C3.22854 14.0077 3.63517 14.1811 4.16718 14.1811C4.55971 14.1811 4.86327 14.0897 5.07774 13.914C5.29099 13.7312 5.39406 13.5273 5.39406 13.2905C5.39406 13.0643 5.2968 12.864 5.09402 12.6858C4.88665 12.5124 4.41794 12.3413 3.67728 12.1865C2.46561 11.923 1.60319 11.5726 1.08869 11.1343C0.567245 10.6938 0.302385 10.1394 0.302385 9.46559C0.302385 9.01445 0.438282 8.59613 0.705491 8.20242C0.972588 7.80156 1.37105 7.49224 1.90541 7.2649C2.43983 7.03757 3.17574 6.92505 4.10381 6.92505C5.24647 6.92505 6.1194 7.13359 6.7183 7.54139C7.31714 7.95512 7.67685 8.64529 7.79054 9.54305H5.16096C5.09408 9.15158 4.96757 8.98162 4.74723 8.80249C4.52571 8.62667 4.21991 8.53993 3.83191 8.53993C3.50497 8.53993 3.26478 8.6067 3.1031 8.73796C2.94136 8.87039 2.85938 9.02983 2.85938 9.21964C2.85938 9.35911 2.92733 9.48215 3.06093 9.59232C3.18984 9.70601 3.50156 9.81143 3.98906 9.90863C5.19485 10.163 6.05861 10.4196 6.58123 10.6751C7.10502 10.934 7.48586 11.2516 7.72148 11.6337C7.9605 12.0204 8.07772 12.4446 8.07772 12.918C8.07772 13.4736 7.91951 13.9845 7.60426 14.4531C7.28795 14.9243 6.84379 15.2805 6.27426 15.5207C5.70472 15.7633 4.98759 15.8828 4.12272 15.8828C2.60162 15.8828 1.55163 15.5992 0.96459 15.0321C0.37738 14.4659 0.0749951 13.6725 0 12.796Z" fill="#494949"/>
<path d="M101.072 7.03638H102.692V7.46415H102.145V8.76015H101.617V7.46415H101.072V7.03638Z" fill="#858585"/>
<path d="M102.926 7.03638H103.623L103.894 8.08513L104.163 7.03638H104.861V8.76015H104.425V7.44647L104.089 8.76015H103.695L103.361 7.44647V8.76015H102.926V7.03638Z" fill="#858585"/>
<path d="M63.8117 0L52.8887 10.9231L63.8117 21.8462L74.7348 10.9231L63.8117 0ZM61.687 17.5746L58.4667 14.3543L61.8119 11.0091L58.4667 7.66388L61.687 4.44351L65.0323 7.78865L68.2526 11.0091L61.687 17.5746ZM71.5175 12.1379L66.1058 17.5498L64.877 16.321L70.2888 10.9094L64.877 5.49747L66.1057 4.26874L72.7461 10.9093L71.5175 12.1379Z" fill="url(#paint3_linear)"/>
<defs>
<linearGradient id="paint0_linear" x1="96.1509" y1="15.8896" x2="96.1509" y2="6.93436" gradientUnits="userSpaceOnUse">
<stop offset="0.3681" stop-color="#494949"/>
<stop offset="0.7791" stop-color="#858585"/>
</linearGradient>
<linearGradient id="paint1_linear" x1="80.5565" y1="15.8828" x2="80.5565" y2="6.92511" gradientUnits="userSpaceOnUse">
<stop offset="0.3681" stop-color="#494949"/>
<stop offset="0.7791" stop-color="#858585"/>
</linearGradient>
<linearGradient id="paint2_linear" x1="88.0426" y1="15.8851" x2="88.0426" y2="6.92505" gradientUnits="userSpaceOnUse">
<stop offset="0.3681" stop-color="#494949"/>
<stop offset="0.7791" stop-color="#858585"/>
</linearGradient>
<linearGradient id="paint3_linear" x1="63.8118" y1="21.8463" x2="63.8118" y2="0" gradientUnits="userSpaceOnUse">
<stop offset="0.4417" stop-color="#494949"/>
<stop offset="0.6564" stop-color="#858585"/>
</linearGradient>
</defs>
</svg>
