<svg width="52" height="52" viewBox="0 0 52 52" fill="none" xmlns="http://www.w3.org/2000/svg">
<path d="M26 0C11.6428 0 0 11.6428 0 26C0 40.3572 11.6428 52 26 52C40.3572 52 52 40.3572 52 26C52 11.6428 40.3572 0 26 0ZM37.8713 20.272C37.8828 20.5279 37.8884 20.785 37.8884 21.0433C37.8884 28.929 31.8859 38.0225 20.9088 38.0229H20.9092H20.9088C17.5386 38.0229 14.4024 37.035 11.7614 35.3422C12.2284 35.3973 12.7036 35.4247 13.1849 35.4247C15.981 35.4247 18.5542 34.4709 20.597 32.8701C17.9845 32.8217 15.7819 31.0964 15.0217 28.7251C15.3855 28.795 15.7596 28.833 16.1433 28.833C16.688 28.833 17.2156 28.7596 17.7171 28.6228C14.9864 28.0761 12.9294 25.6628 12.9294 22.773C12.9294 22.746 12.9294 22.7218 12.9302 22.6968C13.7343 23.144 14.654 23.4129 15.6331 23.4431C14.0307 22.3739 12.9774 20.5462 12.9774 18.4756C12.9774 17.3823 13.2729 16.3579 13.7855 15.476C16.7285 19.087 21.1266 21.4618 26.0865 21.7114C25.9841 21.2742 25.9314 20.8187 25.9314 20.3506C25.9314 17.0562 28.6041 14.3834 31.8997 14.3834C33.6164 14.3834 35.1668 15.109 36.2558 16.269C37.6154 16.0009 38.8921 15.5042 40.0454 14.8206C39.5991 16.2135 38.6533 17.3823 37.421 18.1214C38.6283 17.977 39.7788 17.6568 40.848 17.1815C40.0493 18.3784 39.0365 19.4298 37.8713 20.272Z" fill="white"/>
</svg>
