<svg width="52" height="52" viewBox="0 0 52 52" fill="none" xmlns="http://www.w3.org/2000/svg">
<path d="M30.9766 26C30.9766 28.7485 28.7485 30.9766 26 30.9766C23.2515 30.9766 21.0234 28.7485 21.0234 26C21.0234 23.2515 23.2515 21.0234 26 21.0234C28.7485 21.0234 30.9766 23.2515 30.9766 26Z" fill="ffffff"/>
<path d="M37.6381 17.195C37.3988 16.5467 37.0172 15.96 36.5213 15.4783C36.0396 14.9824 35.4533 14.6008 34.8046 14.3615C34.2786 14.1572 33.4883 13.914 32.0327 13.8478C30.4581 13.776 29.986 13.7605 25.9996 13.7605C22.0129 13.7605 21.5408 13.7756 19.9666 13.8474C18.511 13.914 17.7203 14.1572 17.1946 14.3615C16.546 14.6008 15.9592 14.9824 15.478 15.4783C14.9821 15.96 14.6004 16.5463 14.3608 17.195C14.1565 17.721 13.9133 18.5117 13.847 19.9673C13.7752 21.5415 13.7598 22.0136 13.7598 26.0004C13.7598 29.9867 13.7752 30.4588 13.847 32.0334C13.9133 33.489 14.1565 34.2793 14.3608 34.8054C14.6004 35.454 14.9817 36.0404 15.4776 36.522C15.9592 37.0179 16.5456 37.3996 17.1942 37.6388C17.7203 37.8435 18.511 38.0867 19.9666 38.153C21.5408 38.2248 22.0125 38.2398 25.9992 38.2398C29.9864 38.2398 30.4585 38.2248 32.0323 38.153C33.4879 38.0867 34.2786 37.8435 34.8046 37.6388C36.1067 37.1365 37.1358 36.1074 37.6381 34.8054C37.8424 34.2793 38.0856 33.489 38.1522 32.0334C38.224 30.4588 38.2391 29.9867 38.2391 26.0004C38.2391 22.0136 38.224 21.5415 38.1522 19.9673C38.086 18.5117 37.8428 17.721 37.6381 17.195ZM25.9996 33.6664C21.7654 33.6664 18.3329 30.2343 18.3329 26C18.3329 21.7657 21.7654 18.3336 25.9996 18.3336C30.2335 18.3336 33.666 21.7657 33.666 26C33.666 30.2343 30.2335 33.6664 25.9996 33.6664ZM33.9691 19.8221C32.9797 19.8221 32.1775 19.0199 32.1775 18.0305C32.1775 17.041 32.9797 16.2389 33.9691 16.2389C34.9586 16.2389 35.7607 17.041 35.7607 18.0305C35.7603 19.0199 34.9586 19.8221 33.9691 19.8221Z" fill="#ffffff"/>
<path d="M26 0C11.6428 0 0 11.6428 0 26C0 40.3572 11.6428 52 26 52C40.3572 52 52 40.3572 52 26C52 11.6428 40.3572 0 26 0ZM40.8396 32.1552C40.7674 33.7445 40.5147 34.8296 40.1458 35.7794C39.3701 37.7848 37.7848 39.3701 35.7794 40.1458C34.83 40.5147 33.7445 40.767 32.1556 40.8396C30.5636 40.9122 30.055 40.9297 26.0004 40.9297C21.9454 40.9297 21.4372 40.9122 19.8448 40.8396C18.2559 40.767 17.1704 40.5147 16.221 40.1458C15.2245 39.7708 14.3223 39.1833 13.5764 38.4236C12.8171 37.6781 12.2296 36.7755 11.8546 35.7794C11.4857 34.83 11.233 33.7445 11.1608 32.1556C11.0874 30.5632 11.0703 30.0546 11.0703 26C11.0703 21.9454 11.0874 21.4368 11.1604 19.8448C11.2326 18.2555 11.4849 17.1704 11.8539 16.2206C12.2288 15.2245 12.8167 14.3219 13.5764 13.5764C14.3219 12.8167 15.2245 12.2292 16.2206 11.8542C17.1704 11.4853 18.2555 11.233 19.8448 11.1604C21.4368 11.0878 21.9454 11.0703 26 11.0703C30.0546 11.0703 30.5632 11.0878 32.1552 11.1608C33.7445 11.233 34.8296 11.4853 35.7794 11.8539C36.7755 12.2288 37.6781 12.8167 38.424 13.5764C39.1833 14.3223 39.7712 15.2245 40.1458 16.2206C40.5151 17.1704 40.7674 18.2555 40.84 19.8448C40.9126 21.4368 40.9297 21.9454 40.9297 26C40.9297 30.0546 40.9126 30.5632 40.8396 32.1552Z" fill="#ffffff"/>
</svg>
