<svg xmlns="http://www.w3.org/2000/svg" width="40" height="40" viewBox="0 0 40 40">
    <g fill="none" fill-rule="nonzero">
        <circle cx="20" cy="20" r="20" fill="#4D4D4D"/>
        <g fill="#FFF">
            <path d="M8.605 12.825h2.072V26.4H7.684V15.825l-2.38.6-.613-2.4 3.914-1.2z"/>
            <path d="M10.753 26.475H7.607v-10.5l-2.38.525-.69-2.55 3.99-1.2h2.15v13.725h.076zm-2.993-.15h2.84V12.9H8.605L4.69 14.025l.614 2.325 2.455-.6v10.575zm16.193-3.675c0 .6-.153 1.2-.383 1.65a4.37 4.37 0 0 1-1.075 1.275c-.46.375-.997.6-1.688.75-.614.15-1.381.3-2.149.3-.767 0-1.458-.075-2.149-.3-.69-.225-1.228-.45-1.688-.75-.46-.375-.844-.75-1.074-1.2-.307-.45-.384-1.05-.384-1.575 0-.825.153-1.5.537-2.025.384-.525.92-.9 1.688-1.275-.537-.3-.997-.675-1.304-1.2-.307-.525-.46-1.05-.46-1.8 0-.525.076-.975.306-1.425.23-.45.537-.825.998-1.2.46-.3.92-.6 1.535-.75.614-.225 1.228-.3 1.995-.3.69 0 1.382.075 1.995.3.614.225 1.075.45 1.535.75.46.3.768.75.998 1.2.23.45.307.975.307 1.425 0 .75-.153 1.35-.46 1.8-.307.45-.768.825-1.305 1.2.69.375 1.228.75 1.612 1.275.46.375.613 1.05.613 1.875zm-2.916-.225c0-.525-.23-.975-.69-1.2-.461-.3-.998-.45-1.689-.45-.69 0-1.228.15-1.688.45-.46.3-.69.675-.69 1.2 0 .45.23.9.613 1.2.384.3.998.45 1.765.45.768 0 1.305-.15 1.765-.45.46-.3.614-.675.614-1.2zm-.384-5.625c0-.45-.153-.825-.537-1.125-.307-.3-.844-.45-1.458-.45s-1.151.15-1.458.45c-.307.3-.537.675-.537 1.125 0 .45.153.9.537 1.2.384.3.844.45 1.458.45s1.075-.15 1.458-.45c.307-.3.537-.675.537-1.2z"/>
            <path d="M18.658 26.7c-.767 0-1.458-.075-2.149-.3a3.932 3.932 0 0 1-1.688-.825c-.46-.375-.844-.75-1.151-1.275-.307-.525-.384-1.05-.384-1.65 0-.825.23-1.5.537-2.025.384-.45.921-.9 1.612-1.2-.46-.3-.921-.675-1.228-1.125-.307-.45-.46-1.05-.46-1.8 0-.525.153-1.05.383-1.5.23-.45.537-.9.998-1.2.46-.3.92-.6 1.535-.825.614-.225 1.304-.3 1.995-.3.69 0 1.382.075 1.995.3.614.225 1.152.45 1.535.825.46.375.768.75.998 1.2.23.45.384.975.384 1.5 0 .75-.154 1.35-.46 1.8a3.52 3.52 0 0 1-1.229 1.125c.691.375 1.152.75 1.535 1.2.384.525.614 1.125.614 1.95 0 .6-.153 1.2-.383 1.725-.307.525-.691.9-1.152 1.275-.46.375-1.074.6-1.688.825-.69.15-1.381.3-2.149.3zm0-13.875c-.69 0-1.381.075-1.995.3a7.228 7.228 0 0 0-1.535.75c-.384.3-.768.75-.998 1.125-.23.375-.307.9-.307 1.425 0 .75.154 1.275.46 1.725.308.45.768.825 1.229 1.125l.076.075v.15c-.69.3-1.304.75-1.611 1.2-.384.525-.537 1.125-.537 1.95 0 .6.153 1.125.383 1.575.23.45.614.9 1.075 1.2.46.3.997.6 1.688.75.614.15 1.381.3 2.072.3.768 0 1.458-.075 2.072-.3a5.737 5.737 0 0 0 1.689-.75c.46-.3.844-.75 1.074-1.2.23-.45.384-1.05.384-1.65 0-.75-.154-1.425-.537-1.875-.384-.45-.921-.9-1.612-1.275l-.077-.075.077-.075c.537-.3.92-.675 1.228-1.125.307-.45.46-1.05.46-1.725 0-.525-.076-.975-.307-1.425a2.823 2.823 0 0 0-.997-1.125c-.384-.3-.921-.6-1.535-.75-.537-.225-1.228-.3-1.919-.3zm0 11.4c-.767 0-1.381-.15-1.765-.525-.46-.3-.69-.75-.69-1.275 0-.525.23-.975.69-1.275.46-.3 1.074-.45 1.765-.45.69 0 1.305.15 1.765.45.46.3.691.75.691 1.275 0 .525-.23.9-.69 1.275-.384.375-.998.525-1.766.525zm0-3.375c-.69 0-1.228.15-1.688.45-.46.3-.614.675-.614 1.2 0 .45.23.825.614 1.125.383.3.997.45 1.688.45.69 0 1.305-.15 1.689-.45.383-.3.613-.675.613-1.125 0-.525-.23-.9-.613-1.2-.384-.3-.998-.45-1.689-.45zm0-2.325c-.614 0-1.151-.15-1.458-.45-.384-.3-.537-.75-.537-1.275 0-.45.153-.825.537-1.125.384-.3.844-.45 1.535-.45.69 0 1.151.15 1.535.525.383.375.537.75.537 1.125 0 .525-.154.9-.537 1.2-.46.3-.998.45-1.612.45zm0-3.225c-.614 0-1.074.15-1.381.45-.307.3-.46.675-.46 1.05 0 .45.153.825.536 1.125.307.3.845.45 1.382.45.614 0 1.074-.15 1.381-.45.307-.3.537-.675.537-1.125 0-.375-.153-.75-.46-1.05-.46-.3-.92-.45-1.535-.45zM29.786 14.85h2.763v3.45h3.53V21h-3.53v3.45h-2.763V21h-3.53v-2.7h3.53z"/>
            <path d="M32.626 24.525h-2.917V21h-3.53v-2.775h3.53v-3.45h2.917v3.45h3.53V21h-3.53v3.525zm-2.84-.15h2.686v-3.45h3.53v-2.55h-3.53v-3.45h-2.686v3.45h-3.53v2.55h3.53v3.45z"/>
        </g>
    </g>
</svg>
