<svg width="89" height="26" viewBox="0 0 89 26" fill="none" xmlns="http://www.w3.org/2000/svg">
<path d="M7.59335 13.2095C7.59335 9.7889 10.8585 5.32981 16.4308 2.94161C26.1389 -1.27493 31.7112 2.62447 33.1478 6.28752C34.5035 9.70807 31.7921 15.8402 27.2583 20.2993C30.2011 18.2505 32.8285 15.7823 35.057 12.9731C37.5447 9.70801 38.5584 6.60471 37.607 4.13574C36.2512 0.553469 30.7659 -0.640603 23.9248 0.317161C17.0837 1.27487 11.8223 3.0225 7.60572 5.24892C2.81707 7.63712 0.428871 10.3984 0.030792 13.6883C-0.448062 18.3899 4.64547 24.7584 16.2006 25.5545C22.2519 25.9525 28.1414 26.108 39.3669 23.3218C38.005 23.4026 7.51247 27.2212 7.59335 13.2095Z" fill="#B0B0B0"/>
<path d="M54.6417 1.2688V4.45294H46.762V7.71808H53.8455V10.7468H46.762V14.0055H54.8841V17.1151H43.1797V1.2688H54.6417Z" fill="#B0B0B0"/>
<path d="M69.4492 8.99289H73.0315V14.6462C71.4394 16.3937 69.2999 17.2706 66.5076 17.2706C64.3148 17.3097 62.1955 16.4804 60.6118 14.9633C59.0303 13.4518 58.1627 11.3414 58.2237 9.15455C58.1515 4.65227 61.7428 0.943781 66.2452 0.871564C66.3057 0.870625 66.3662 0.870239 66.4268 0.870625C68.6061 0.817732 70.7197 1.61908 72.3163 3.10335L70.4879 5.7278C69.9069 5.18623 69.2326 4.75425 68.4977 4.45284C67.8851 4.22653 67.2351 4.11881 66.5822 4.13571C65.3089 4.12422 64.0815 4.61075 63.1617 5.4915C62.2184 6.43684 61.725 7.74073 61.8059 9.07366C61.7617 10.4009 62.2498 11.6906 63.1617 12.6559C63.9912 13.5262 65.1437 14.0147 66.346 14.0054C67.3995 14.044 68.4439 13.7968 69.3684 13.2903V8.99289H69.4492Z" fill="#B0B0B0"/>
<path d="M83.7015 4.29756V17.1151H80.1877V4.29756H75.7285V1.2688H88.229V4.29751H83.7015V4.29756Z" fill="#B0B0B0"/>
<path d="M43.2598 21.0144H43.8817V24.9946H43.2598V21.0144Z" fill="#B0B0B0"/>
<path d="M48.5904 21.0144H49.2124V24.9946H48.4972L46.2645 22.1275V24.9946H45.6426V21.0144H46.2645L48.5718 23.9623L48.5904 21.0144Z" fill="#B0B0B0"/>
<path d="M52.4137 21.649V24.9949H51.7917V21.649H50.5977V21.0271H53.7072V21.649H52.4137Z" fill="#B0B0B0"/>
<path d="M57.669 21.0145V21.6364H55.5171V22.6751H57.4264V23.2285H55.5171V24.2672H57.7436V24.8889H54.8828V20.9087H57.669V21.0145Z" fill="#B0B0B0"/>
<path d="M62.3632 22.3703C62.3755 22.9325 62.0199 23.4369 61.4863 23.6142L62.5249 25.0508H61.648L60.6902 23.6951H59.8134V25.0757H59.1914V21.0955H60.7026C61.1424 21.0408 61.5866 21.154 61.9465 21.4126C62.2377 21.6414 62.3943 22.0014 62.3632 22.3703ZM61.4863 22.9239C61.6574 22.7937 61.7491 22.5844 61.7289 22.3704C61.7347 22.1572 61.6459 21.9523 61.4863 21.8106C61.2643 21.7005 61.019 21.6451 60.7711 21.6489H59.8942V23.0856H60.6902C60.9649 23.0976 61.2382 23.0421 61.4863 22.9239Z" fill="#B0B0B0"/>
<path d="M64.4365 24.1177L64.0198 24.9946H63.3047L65.0521 21.0144H65.7674L67.5212 24.9946H66.806L66.408 24.1177H64.4365ZM66.1841 23.4957L65.4689 21.8228L64.7536 23.4584L66.1841 23.4957Z" fill="#B0B0B0"/>
<path d="M70.4868 24.435C70.6745 24.4524 70.8638 24.4269 71.0402 24.3604C71.2019 24.2795 71.3575 24.1178 71.6 23.9623L71.998 24.435C71.6271 24.8887 71.0728 25.1533 70.4868 25.1565C69.9245 25.1931 69.3731 24.9896 68.9693 24.5966C68.5936 24.2178 68.393 23.6993 68.4158 23.1662C68.4173 22.5987 68.6405 22.0542 69.0378 21.6488C69.4402 21.2584 69.9896 21.0572 70.549 21.0954C71.1525 21.068 71.7319 21.3345 72.1038 21.8105L71.7058 22.2894C71.5392 22.1305 71.3508 21.9965 71.146 21.8914C70.9673 21.8253 70.7766 21.7977 70.5863 21.8105C70.2071 21.8228 69.8432 21.963 69.5539 22.2085C69.2972 22.4608 69.1536 22.8064 69.1559 23.1663C69.1681 23.5455 69.3084 23.9095 69.5539 24.1987C69.8486 24.3314 70.1643 24.4114 70.4868 24.435Z" fill="#B0B0B0"/>
<path d="M74.941 21.649V24.9949H74.3191V21.649H73.125V21.0271H76.2346V21.649H74.941Z" fill="#B0B0B0"/>
<path d="M77.4102 21.0144H78.0321V24.9946H77.4102V21.0144Z" fill="#B0B0B0"/>
<path d="M81.5529 24.9946H80.8128L79.2207 21.0144H79.9359L81.13 23.9623L82.3241 21.0144H83.0393L81.5529 24.9946Z" fill="#B0B0B0"/>
<path d="M87.1229 21.0145V21.6364H84.9711V22.6751H86.8865V23.2285H84.9711V24.2672H87.1229V24.8889H84.2559V20.9087H87.1229V21.0145Z" fill="#B0B0B0"/>
<path d="M18.82 18.7073C22.471 18.7073 25.4308 15.7475 25.4308 12.0963C25.4308 8.44521 22.471 5.48535 18.82 5.48535C15.1688 5.48535 12.209 8.44516 12.209 12.0963C12.2259 15.7403 15.1759 18.6902 18.82 18.7073Z" fill="#B0B0B0"/>
</svg>
