<svg xmlns="http://www.w3.org/2000/svg" width="120" height="32" viewBox="0 0 120 32">
    <path fill="#676767" fill-rule="nonzero" d="M119.999 8.861c-.104-.012-.119.088-.179.139h-5.794c-.01-.055-.02-.103-.024-.15-.004-.048 0-.101 0-.155V.185c.052-.086.158-.058.17-.15 0-.015.06-.03.093-.033a1.53 1.53 0 0 1 .159 0h5.364c.07 0 .141.005.212.008v1.18c-.115-.017-.124.11-.204.145h-3.158c-.354 0-.705-.005-1.066.005-.01.047-.016.093-.02.14v2.186a.729.729 0 0 0 .027.136c.104 0 .202.003.298.003h3.185a.66.66 0 0 1 .296.029c.008.38.006.753 0 1.142-.041.012-.091.013-.101.033-.065.131-.186.106-.297.108h-3.106a.55.55 0 0 0-.289.031.704.704 0 0 0-.015.1v2.29a.606.606 0 0 0 .032.128h4.124c.097 0 .194.004.291.006L120 8.861zM63.995 19.818c-.03.018-.05.03-.07.044a.485.485 0 0 1-.403.134h-.825c-.057 0-.115-.007-.19-.012-.018-.217-.007-.42-.01-.624v-4.996a.276.276 0 0 0-.134.174c-.383.804-.765 1.609-1.145 2.413l-.453.953a1.654 1.654 0 0 1-.135.276 1.619 1.619 0 0 1-.225.21h-.872a.574.574 0 0 1-.095-.02c-.213-.415-.414-.852-.625-1.278-.215-.438-.427-.878-.64-1.317-.21-.427-.412-.858-.625-1.28-.028.01-.038.01-.042.015a.043.043 0 0 0-.006.025v.077c0 1.721 0 3.442-.002 5.162a.15.15 0 0 1-.003.025c0 .008-.005.017-.01.035-.024.01-.068.017-.082.04-.07.122-.18.126-.301.124-.352-.005-.705 0-1.07 0-.012-.05-.022-.1-.03-.15-.005-.05 0-.1 0-.154V11.18c.064-.053.111-.1.164-.137a.164.164 0 0 1 .089-.035c.411-.003.822 0 1.242 0 .046.093.088.176.128.26.755 1.605 1.51 3.207 2.267 4.81a.685.685 0 0 0 .176.294l.125-.261 2.2-4.755a.674.674 0 0 1 .129-.217.438.438 0 0 1 .336-.138c.308.017.618.005.928.006.06 0 .118.006.19.01.008.052.019.1.022.15.004.05 0 .1 0 .154v8.498h-.003zm-.99 2.364c.034-.03.046-.04.06-.05.051-.04.1-.1.16-.115.086-.015.174-.018.261-.011h.932c.061.086.123.168.18.25l3.666 5.43c.042.078.096.15.161.213.024-.015.033-.018.036-.023a.058.058 0 0 0 .006-.025V22.25c0-.017 0-.034.004-.05 0-.008.003-.016.007-.04.03-.013.087-.02.103-.05a.235.235 0 0 1 .24-.107c.333.005.668 0 1.002 0 .051 0 .102.007.151.01.012.027.021.056.026.085v8.732a.686.686 0 0 0-.074.045c-.045.037-.083.094-.134.108a.892.892 0 0 1-.235.014h-.963c-.278-.384-.532-.782-.798-1.173-.267-.391-.532-.787-.798-1.18l-.809-1.203-.795-1.181-.796-1.178c-.073.009-.055.06-.057.098-.003.076 0 .153 0 .23v5.412c-.033.02-.082.033-.1.064-.068.117-.175.115-.291.114-.37-.004-.737 0-1.12 0a1.261 1.261 0 0 1-.028-.181c-.004-.189 0-.377 0-.565v-8.069l.002-.003zM99 .149a.585.585 0 0 0 .102-.036c.17-.111.17-.112.336-.112h3.53c.44-.008.877.061 1.288.204.88.285 1.494 1.017 1.57 1.87.042.28.03.565-.037.841-.1.423-.347.804-.704 1.085-.132.106-.273.207-.4.305 0 .066.051.075.088.096.11.065.226.123.328.195.485.333.8.836.868 1.389.063.408.03.825-.095 1.221-.127.397-.37.754-.704 1.032-.48.415-1.097.67-1.754.724-.205.018-.41.035-.614.035-1.177.004-2.354 0-3.53 0-.082 0-.164-.008-.243-.011A.339.339 0 0 1 99 8.9V.15zm2.032 7.833a.343.343 0 0 0 .073.018h1.815c.164-.005.326-.045.48-.117.218-.091.394-.304.484-.583.091-.275.13-.576.112-.875-.015-.63-.333-1.172-.787-1.343a1.245 1.245 0 0 0-.465-.082h-1.59a.648.648 0 0 0-.123.023c-.027.223-.042 2.33-.022 2.82.005.048.013.094.023.14zm-.008-4.006c.023.01.047.016.071.021.597 0 1.195.007 1.792 0 .203-.005.403-.061.591-.166.175-.093.318-.275.398-.508.08-.22.121-.462.12-.708.044-.721-.307-1.376-.822-1.536a1.256 1.256 0 0 0-.461-.079h-1.56a.661.661 0 0 0-.125.026c-.025.269-.037 2.166-.02 2.789 0 .048.009.1.015.16zm10.438 23.917c.01-.125.012-.25.007-.376v-5.324a.277.277 0 0 1 .042-.056.642.642 0 0 1 .185-.124c.086-.014.174-.017.261-.008h1.01c.012.059.026.106.03.154.006.048 0 .103 0 .154v8.506c-.028.02-.057.036-.082.057-.044.037-.08.094-.13.11a.699.699 0 0 1-.21.01h-.989c-.205-.274-.385-.566-.579-.851l-.565-.836-.577-.859-.565-.837-.578-.858-.564-.837-.573-.847a.172.172 0 0 0-.042.013.035.035 0 0 0-.008.022c0 .06-.004.12-.004.18v5.495a.103.103 0 0 1-.005.025c0 .008-.004.016-.006.025-.04.054-.135.04-.157.123-.005.02-.057.037-.087.038-.411.002-.822 0-1.248 0-.01-.06-.023-.107-.026-.155-.004-.06 0-.12 0-.18V22.16c.04-.018.085-.024.1-.047.07-.115.178-.11.293-.11.332.003.667 0 1.01 0 .056.076.115.15.167.227l3.587 5.318c.08.12.163.24.244.36l.059-.015zM84.999 8.807L84.784 9h-1.2l-1.992-2.96c-.664-.986-1.325-1.973-2.013-2.99a.648.648 0 0 0-.043.13c-.004.086-.003.172-.003.257v5.367L79.321 9h-1.29c-.013-.05-.022-.1-.029-.15-.005-.06 0-.12 0-.18V.194c.046-.093.154-.062.168-.154 0-.016.059-.035.09-.035h1.169l1.997 2.963c.663.983 1.322 1.968 2.024 3 .02-.138.026-.277.02-.415V.159a.526.526 0 0 0 .082-.04c.045-.035.082-.091.133-.107a.757.757 0 0 1 .209-.009h.869c.068 0 .137.006.193.008l.03.031a.05.05 0 0 1 .008.023c0 .068.006.137.006.205v8.537zM76 11.015v8.812a.435.435 0 0 0-.1.05c-.037.031-.058.093-.099.106a.697.697 0 0 1-.205.015h-.97a.613.613 0 0 1-.2-.242c-1.02-1.51-2.037-3.02-3.054-4.53l-.68-1.01c-.034-.05-.07-.096-.1-.14-.063.005-.057.042-.058.074v5.65l-.216.187h-1.29c-.008-.05-.022-.096-.026-.144-.005-.06 0-.12 0-.18v-8.48c.051-.082.154-.057.172-.146.004-.019.076-.033.116-.033h1.098c.08.058.146.135.188.224l3.696 5.472c.051.076.106.15.154.222.026-.008.037-.009.042-.014a.04.04 0 0 0 .005-.024v-5.716a.93.93 0 0 0 .085-.05c.046-.035.084-.09.136-.106a.759.759 0 0 1 .209-.009h.87c.067 0 .135.006.227.012zm-32.781-5.74a12.593 12.593 0 0 0-1.602.007c-.034.293-.01.591-.015.888-.004.296 0 .582 0 .873v1.778a.442.442 0 0 0-.1.043c-.045.038-.076.105-.127.12a.889.889 0 0 1-.243.01h-1.105A1.387 1.387 0 0 1 40 8.812V.171c.029-.017.059-.032.085-.052.046-.035.086-.091.138-.104a.984.984 0 0 1 .244-.012h3.382c.382-.006.763.052 1.124.172.924.282 1.594 1.04 1.723 1.947.074.397.053.805-.06 1.195a2.127 2.127 0 0 1-.604.99 3.08 3.08 0 0 1-.976.644c-.041.016-.08.038-.137.066.035.075.063.144.1.21l1.861 3.37c.042.075.08.15.12.227-.069.046-.187.026-.168.144-.534.037-1.07.042-1.606.015a.57.57 0 0 1-.153-.234c-.574-1.078-1.147-2.157-1.719-3.236-.044-.082-.093-.163-.135-.238zm-1.2-1.285c.09.004.165.01.24.01h1.077c.198 0 .397-.002.596-.007.176-.01.348-.06.51-.15a.87.87 0 0 0 .386-.436 1.89 1.89 0 0 0 .161-.691c.084-.779-.325-1.506-.933-1.656a1.635 1.635 0 0 0-.408-.057c-.489-.007-.978 0-1.467 0-.051 0-.103.008-.15.011-.034.23-.043 2.584-.011 2.975zm30.008 27.002a.423.423 0 0 1-.027-.094v-8.713c.024-.02.043-.038.064-.054.055-.04.104-.1.167-.116.09-.015.184-.019.276-.012 1.06 0 2.12 0 3.178.003.494 0 .983.091 1.437.272.864.335 1.5 1.034 1.709 1.877.107.382.162.775.163 1.17.007.719.01 1.439 0 2.158a4.56 4.56 0 0 1-.184 1.27c-.3 1.074-1.229 1.9-2.403 2.139-.306.074-.621.11-.938.108h-3.288c-.046.001-.092-.004-.154-.008zM74 24.022v5.685c0 .047-.002.095 0 .146.003.05.014.09.021.132a.511.511 0 0 0 .08.013c.474 0 .95.006 1.424-.003a1.96 1.96 0 0 0 .44-.07c.451-.094.806-.476.9-.968.008-.039.019-.078.027-.118.064-.342.097-.69.1-1.04.008-.527.011-1.055 0-1.583-.01-.3-.039-.598-.086-.894a1.486 1.486 0 0 0-.503-.945 1.526 1.526 0 0 0-.971-.37c-.445-.012-.89-.005-1.336-.005a.68.68 0 0 0-.096.02zM45.977 13.665c-.048.063-.138.033-.16.107a.121.121 0 0 1-.08.052c-.087.019-1.21 0-1.35-.017-.025-.063-.046-.135-.078-.203a3.747 3.747 0 0 0-.24-.479c-.287-.44-.781-.73-1.334-.784a2.352 2.352 0 0 0-.946.063c-.476.122-.851.46-.997.895a2.73 2.73 0 0 0-.154.767c-.07.915-.07 1.834 0 2.749.016.21.052.418.107.622.18.695.837 1.196 1.61 1.231.32.026.64-.01.944-.104.403-.125.73-.4.904-.758a1.71 1.71 0 0 0 .187-.656c.018-.258.004-.519.004-.794a1.54 1.54 0 0 0-.181-.02h-1.784a.321.321 0 0 1-.037-.1v-.98c.02-.016.032-.037.046-.037.09-.004.097-.108.16-.12.108-.017.217-.022.325-.017h3.048c.014.05.024.1.029.151 0 .522 0 1.044-.005 1.566-.008.311-.056.62-.143.921a2.49 2.49 0 0 1-.677 1.138c-1.224 1.279-3.29 1.515-4.814.55-.705-.428-1.169-1.122-1.266-1.896a7.882 7.882 0 0 1-.085-.93 54.415 54.415 0 0 1 0-2.044c0-.404.046-.807.14-1.202a2.45 2.45 0 0 1 .776-1.28c.19-.17.393-.328.605-.473a3.638 3.638 0 0 1 2.273-.571 3.86 3.86 0 0 1 1.068.197c.843.282 1.517.883 1.853 1.651.12.258.204.528.252.805zm37.412 2.664h-1.963a.811.811 0 0 1-.033-.358c-.006-.126 0-.253 0-.379v-.35a.797.797 0 0 0 .076-.045c.046-.037.085-.092.138-.109a.75.75 0 0 1 .217-.012h2.898c.08 0 .16.006.254.01.01.05.017.102.02.154 0 .455.008.91 0 1.364-.003.32-.04.64-.109.953a2.68 2.68 0 0 1-.883 1.451 3.637 3.637 0 0 1-1.69.888 3.892 3.892 0 0 1-2.815-.4c-.827-.461-1.363-1.262-1.44-2.152a11.632 11.632 0 0 1-.058-1.21c-.003-.547 0-1.095.006-1.642.002-.354.039-.707.11-1.054a2.51 2.51 0 0 1 .812-1.402 3.922 3.922 0 0 1 1.328-.826 4.272 4.272 0 0 1 2.442-.06c.987.276 1.768.978 2.095 1.882.09.2.147.411.17.626-.043.066-.145.04-.174.123-.009.025-.092.04-.141.04-.301.004-.602.004-.903 0-.117 0-.235 0-.357-.003-.031-.085-.054-.156-.082-.227a2.085 2.085 0 0 0-.352-.624 1.828 1.828 0 0 0-1.174-.63 2.343 2.343 0 0 0-1.102.093 1.38 1.38 0 0 0-.854.77c-.09.202-.146.417-.165.636-.029.293-.053.587-.06.881a36.2 36.2 0 0 0 .009 1.668c.01.31.045.62.106.927.144.79.887 1.365 1.754 1.357a2.5 2.5 0 0 0 .884-.128c.381-.131.688-.4.85-.745.096-.19.157-.396.178-.606.034-.286.037-.574.008-.861zM70 4.547c.014-.463.025-.925.042-1.388.012-.337.069-.67.17-.994.073-.253.195-.492.361-.705A3.714 3.714 0 0 1 72.43.176a3.909 3.909 0 0 1 2.778.174c.378.173.718.41.999.7.395.404.642.912.705 1.452.037.266.057.536.067.805.031.858.028 1.716-.01 2.574a3.766 3.766 0 0 1-.166.97 2.217 2.217 0 0 1-.495.865 3.76 3.76 0 0 1-1.785 1.13 3.957 3.957 0 0 1-2.651-.164 3.3 3.3 0 0 1-1.156-.838 2.593 2.593 0 0 1-.618-1.356 10.592 10.592 0 0 1-.086-1.334c-.008-.202 0-.404 0-.606L70 4.547zm2-.136h.017c0 .36-.006.721 0 1.083.006.267.024.535.048.8.026.419.163.814.388 1.122.454.565 1.13.738 1.721.44.306-.144.547-.45.66-.837.034-.102.06-.208.076-.317.043-.271.07-.546.082-.823.01-.878.01-1.756 0-2.634a5.528 5.528 0 0 0-.085-.823c-.081-.528-.357-.975-.741-1.202a1.294 1.294 0 0 0-1.212-.123c-.397.135-.707.527-.814 1.029a1.196 1.196 0 0 0-.034.16c-.031.293-.072.585-.086.879-.015.414-.013.831-.02 1.246zm32.998 22.032c0 .354.005.708 0 1.061-.003.396-.05.79-.14 1.178a2.49 2.49 0 0 1-.826 1.315c-1.097 1.026-2.786 1.295-4.196.668-1.03-.432-1.715-1.35-1.782-2.385A11.786 11.786 0 0 1 98 27.12c0-.49 0-.978.003-1.467a5.64 5.64 0 0 1 .155-1.354c.13-.512.43-.975.856-1.327a3.982 3.982 0 0 1 1.233-.75 4.083 4.083 0 0 1 1.706-.205 3.594 3.594 0 0 1 1.667.546c.778.477 1.27 1.257 1.333 2.112.06.589.045 1.179.045 1.768zm-1.998.14c-.018-.534-.03-1.07-.056-1.604a4.569 4.569 0 0 0-.08-.627c-.095-.513-.373-.94-.75-1.152a1.25 1.25 0 0 0-1.036-.147c-.288.06-.55.256-.731.549-.14.237-.23.517-.262.812-.04.347-.066.696-.076 1.047a54.471 54.471 0 0 0 0 1.968c.007.341.033.682.075 1.02.062.62.381 1.149.835 1.382.308.171.65.214.977.121.496-.094.89-.583.978-1.214.036-.198.06-.399.071-.602.025-.517.038-1.034.055-1.554zm-50.003-.145c0 .394.007.791 0 1.187a4.605 4.605 0 0 1-.153 1.124 2.42 2.42 0 0 1-.726 1.17c-.432.43-.98.748-1.589.923a3.885 3.885 0 0 1-3.021-.35c-.779-.427-1.3-1.158-1.414-1.983a8.1 8.1 0 0 1-.092-1.157c-.003-.522-.003-1.044 0-1.566a7.284 7.284 0 0 1 .102-1.231 2.58 2.58 0 0 1 .889-1.558c1.394-1.306 3.68-1.332 5.11-.06.411.368.687.844.787 1.362.069.322.105.65.108.978.003.387 0 .774 0 1.161h-.001zM48 26.682h.014v.221c-.001.509.026 1.017.081 1.52.05.513.274.972.613 1.255.3.25.658.36 1.014.31.616-.004 1.13-.6 1.195-1.382.044-.3.069-.604.075-.909.01-.758.011-1.516 0-2.275 0-.36-.035-.72-.103-1.07-.108-.549-.42-.996-.833-1.197a1.26 1.26 0 0 0-.958-.104c-.488.098-.875.579-.966 1.2a5.187 5.187 0 0 0-.08.684c-.025.583-.035 1.165-.052 1.747zm4.333-22.876v1.15a.55.55 0 0 0-.079.04c-.046.034-.084.092-.135.105a.949.949 0 0 1-.236.01h-3.017c-.095 0-.191 0-.298.004a.781.781 0 0 0-.027.134v2.26c.003.047.009.093.017.138.22.021.43.01.64.011.209.002.405 0 .608 0h3.155c.033.127.043.258.03.387.004.129 0 .257 0 .386v.366l-.21.188c-.394.026-5.546.016-5.764-.014-.006-.053-.016-.11-.017-.167V.166c.03-.017.059-.032.086-.05.182-.115.182-.116.342-.116h5.52c.058.382.067.769.03 1.153l-.202.174-4.19.022c-.008 0-.014.01-.02.016-.037.215-.036 2.19 0 2.414a.71.71 0 0 0 .279.02h3.175c.097 0 .193.005.313.007zm1.668 19.378c.063-.05.114-.093.17-.132a.184.184 0 0 1 .09-.043c.43 0 .861.004 1.295.008.007 0 .014.01.041.03 0 .076.01.167.01.258v5.35c-.006.263.028.525.1.78.195.689.85 1.182 1.619 1.223.293.026.59.005.875-.06a1.4 1.4 0 0 0 .98-.756 2.11 2.11 0 0 0 .21-.812c.008-.119.005-.237.005-.357v-5.509c.044-.02.1-.028.12-.057a.256.256 0 0 1 .252-.104c.395.004.79 0 1.199 0a.815.815 0 0 1 .032.15c.003.22 0 .44 0 .661v4.97a3.05 3.05 0 0 1-.274 1.314 2.71 2.71 0 0 1-.572.804c-.56.574-1.32.946-2.147 1.052-.797.121-1.614 0-2.33-.342-.92-.437-1.536-1.274-1.638-2.224a3.84 3.84 0 0 1-.036-.532c-.003-1.817-.003-3.634 0-5.452l-.001-.22zm-6.561-3.19h-1.428c-.038-.097.024-.17.052-.245a2948.51 2948.51 0 0 1 1.608-4.222l1.554-4.078a1.16 1.16 0 0 1 .104-.262c.064-.07.135-.133.214-.187h1.06c.09.067.099.167.132.251.645 1.688 1.289 3.377 1.93 5.066.418 1.094.835 2.188 1.25 3.282l.084.222c-.056.06-.184.047-.17.162-.487.025-.975.022-1.462-.007l-.626-1.745a1.762 1.762 0 0 0-.185-.019h-3.21c-.035 0-.07.005-.098.006-.087.05-.089.134-.115.204-.148.402-.293.808-.433 1.215a.412.412 0 0 1-.205.28c-.027.014-.038.053-.056.078zm4.55-3.024c.004-.025.014-.042.008-.053-.479-.966-.958-1.933-1.44-2.899a.042.042 0 0 0-.018-.017c-.006-.002-.017 0-.026 0-.113.138-1.254 2.315-1.494 2.857a.454.454 0 0 0-.02.102c.938.043 1.878.051 2.817.025a2.03 2.03 0 0 0 .173-.015zM79 30.969c.022-.07.043-.143.07-.213l3.178-8.338c.025-.054.046-.111.062-.169.024-.116.147-.14.215-.215.03-.034.114-.032.173-.033.267-.003.534 0 .801 0 .043 0 .086.006.124.01.099.176 3.278 8.494 3.377 8.836a.423.423 0 0 0-.112.043.471.471 0 0 0-.079.1h-1.425c-.23-.582-.416-1.179-.64-1.754-.219-.031-3.254-.034-3.522 0-.029.07-.063.147-.092.227-.142.396-.296.789-.416 1.19-.045.148-.157.216-.246.317a.141.141 0 0 1-.095.03c-.445 0-.89-.003-1.334-.009-.011-.005-.019-.013-.039-.022zM85 28c-.5-1.015-.984-1.997-1.485-3a.96.96 0 0 0-.087.108c-.08.153-.157.307-.235.46l-1.139 2.244c-.03.058-.087.114-.03.186L85 28zM63.662 5.51a6.828 6.828 0 0 0-.02.848c-.005.274 0 .548 0 .823v1.627L63.413 9h-1.378a1.173 1.173 0 0 1-.034-.145c-.005-.06 0-.12 0-.18V.19c.05-.091.166-.064.178-.156 0-.015.064-.03.1-.033.056-.003.112-.003.169 0h3.447c.424-.007.847.06 1.245.195.968.307 1.665 1.082 1.805 2.007a2.488 2.488 0 0 1-.2 1.612c-.395.806-1.18 1.397-2.124 1.597-.292.07-.593.103-.894.1h-1.752l-.314-.003zm.353-1.532a.42.42 0 0 0 .07.019c.57 0 1.141.007 1.711 0 .214-.004.425-.058.62-.16a.884.884 0 0 0 .402-.425c.144-.303.205-.651.174-.997-.015-.612-.356-1.144-.846-1.32A1.34 1.34 0 0 0 65.63 1h-1.482a1.042 1.042 0 0 0-.144.022c-.008.938 0 1.862-.003 2.788-.002.051.006.103.012.168h.002zM54 7.84c.385-.335.724-.68 1.124-.974.057.044.108.08.156.12a3.116 3.116 0 0 0 1.783.68c.396.043.797.03 1.188-.038.135-.029.271-.065.4-.104.39-.115.669-.428.712-.8.043-.216.032-.438-.03-.65a1.067 1.067 0 0 0-.734-.735 3.504 3.504 0 0 0-.591-.131c-.42-.062-.843-.106-1.263-.165-.375-.05-.74-.15-1.083-.296-.757-.302-1.267-.96-1.325-1.711a2.558 2.558 0 0 1 .15-1.27c.135-.334.35-.635.63-.882A3.432 3.432 0 0 1 56.974.05a5.617 5.617 0 0 1 2.038.1 3.734 3.734 0 0 1 1.583.802c.011.012.02.026.026.042-.32.342-.671.658-1.052.944-.039-.025-.084-.05-.124-.08a2.795 2.795 0 0 0-1.602-.56 3.317 3.317 0 0 0-.965.05c-.062.015-.123.034-.185.05a1.023 1.023 0 0 0-.723.677 1.215 1.215 0 0 0-.03.771c.073.256.258.474.51.605.282.147.592.242.914.28.475.066.952.125 1.424.206.245.042.485.106.716.191.703.235 1.226.779 1.39 1.444.176.581.132 1.2-.124 1.756a2.05 2.05 0 0 1-.438.61 3.606 3.606 0 0 1-1.826.952 6.592 6.592 0 0 1-1.958.066 4.908 4.908 0 0 1-1.053-.216 4.011 4.011 0 0 1-1.358-.766c-.043-.036-.077-.075-.137-.134zm33 .014a9.271 9.271 0 0 1 1.12-.982c.047.035.097.071.144.11a3.14 3.14 0 0 0 1.789.683c.397.043.799.03 1.191-.038.136-.028.272-.063.4-.103.411-.12.7-.455.73-.845.033-.2.02-.406-.037-.602a1.07 1.07 0 0 0-.732-.739 3.463 3.463 0 0 0-.592-.132c-.412-.061-.826-.108-1.24-.162a4.23 4.23 0 0 1-1.091-.285c-.829-.317-1.368-1.053-1.371-1.868a2.53 2.53 0 0 1 .159-1.12c.147-.364.389-.691.706-.952a3.546 3.546 0 0 1 2.031-.793 5.431 5.431 0 0 1 2.113.21c.494.16.945.416 1.322.749a4.347 4.347 0 0 1-.52.492 3.58 3.58 0 0 1-.558.46c-.066-.046-.126-.085-.183-.127a2.647 2.647 0 0 0-1.347-.496 7.535 7.535 0 0 0-.89-.01 1.788 1.788 0 0 0-.614.15.905.905 0 0 0-.43.346 1.215 1.215 0 0 0-.157 1.093c.084.245.27.45.519.57.276.14.58.23.893.268.476.066.952.13 1.428.204.266.04.525.109.771.208.738.274 1.264.88 1.386 1.595.093.422.078.859-.046 1.275A2.23 2.23 0 0 1 93.2 8.06a3.652 3.652 0 0 1-1.912.867 6.63 6.63 0 0 1-2.457-.09 3.993 3.993 0 0 1-1.709-.862c-.037-.033-.072-.072-.121-.12zm-45.424 15.48c-.034.226-.04 2.278-.01 2.546.085.057.185.029.278.03 1.056.002 2.114 0 3.17 0 .095 0 .19.005.28.008.042.388.049.78.019 1.169a.602.602 0 0 0-.061.038c-.045.037-.084.095-.135.11a.895.895 0 0 1-.235.012H41.87c-.096 0-.191.004-.294.007a.623.623 0 0 0-.029.283v3.285a.612.612 0 0 0-.154.112.139.139 0 0 1-.13.066h-1.188a.192.192 0 0 1-.052-.02.21.21 0 0 1-.024-.068v-8.727c.06-.05.107-.097.16-.137a.192.192 0 0 1 .089-.044c.061-.004.123-.005.184-.003h5.513c.06.388.07.781.031 1.171-.026.014-.069.024-.084.05-.074.126-.193.118-.315.118H41.88l-.304-.005zM92.993 22c.012.409.004.784.006 1.164-.044.023-.104.036-.117.065-.06.128-.179.105-.288.105h-2.24c-.01.061-.022.109-.025.157-.004.077 0 .154 0 .231v7.098c-.03.02-.061.036-.088.056-.047.037-.086.096-.14.11a1.045 1.045 0 0 1-.251.011h-.903c-.073 0-.147-.003-.238-.006-.008-.06-.019-.108-.02-.156-.004-.069 0-.137 0-.205v-6.962a.919.919 0 0 0-.025-.315 7.538 7.538 0 0 0-.87-.017c-.29-.005-.582 0-.873 0h-.862c-.023-.025-.045-.037-.046-.05-.023-.376-.007-.752-.012-1.114a.775.775 0 0 0 .165-.115.14.14 0 0 1 .115-.054h6.715L92.993 22zM107.001.149a.572.572 0 0 0 .096-.037c.17-.111.17-.112.32-.112h1.108c.013.05.022.1.028.15.005.069 0 .138 0 .206v6.972c0 .1 0 .2.005.306a.598.598 0 0 0 .299.033h3.821c.097 0 .193.005.306.008.03.387.006.761.015 1.129l-.224.196h-5.741a1.38 1.38 0 0 1-.032-.145c-.005-.05 0-.102 0-.154V.15h-.001zM95.998 30.832a1.063 1.063 0 0 0-.1.045c-.058.036-.106.092-.173.108-.09.015-.181.018-.272.012H94.32c-.09 0-.18-.006-.288-.01-.01-.054-.025-.1-.029-.15-.005-.06 0-.12 0-.18V22.17a.982.982 0 0 0 .198-.116.175.175 0 0 1 .14-.055h1.628c.012.061.025.11.03.158.005.048 0 .1 0 .153v8.52zM96 8.8l-.294.2h-1.639a.549.549 0 0 1-.058-.043.04.04 0 0 1-.009-.025V.162a.973.973 0 0 0 .106-.044c.059-.034.106-.09.172-.105.09-.013.182-.016.273-.01h1.137c.09 0 .18.004.246.006.017.01.033.02.047.032.006.007.01.015.01.024L96 8.59v.21zm-30.999 2.373c.085-.052.148-.097.218-.135a.261.261 0 0 1 .117-.037c.536-.002 1.072 0 1.626 0 .014.057.029.105.036.154a.913.913 0 0 1 0 .128v8.545c-.048.017-.121.024-.139.05-.08.125-.218.123-.369.122-.402-.004-.8 0-1.2 0h-.255c-.013-.062-.028-.109-.033-.157-.005-.048 0-.1 0-.154v-8.516zM32 16.02c-.012 1.403-1.337 2.415-2.692 2.012-.42-.125-.524-.055-.63.367-.412 1.625-1.195 3.06-2.373 4.263-.432.441-.926.454-1.187.025-.244-.4-.08-.74.216-1.034a7.606 7.606 0 0 0 2.24-4.718c.233-2.441-.459-4.702-2.184-6.552-.446-.479-.509-.929-.14-1.209.465-.353.825-.115 1.158.255 1.062 1.182 1.844 2.52 2.237 4.066.114.448.203.632.755.47 1.336-.39 2.612.66 2.6 2.055zM13.89 2.254c.028-.939.39-1.593 1.127-2.001.74-.41 1.494-.286 2.18.122.804.477 1.081 1.32.834 2.368-.062.265-.101.418.245.506 1.675.421 3.14 1.199 4.365 2.458.392.403.49.716.158 1.075-.302.327-.68.234-1.021-.07-3.495-3.126-8.016-3.137-11.465-.028-.376.34-.768.466-1.125.072-.325-.359-.197-.744.143-1.074 1.083-1.05 2.332-1.826 3.78-2.245.62-.18 1.23-.288.782-1.155-.018-.035-.007-.085-.004-.028zm4.023 27.543c-.008 1.275-1.053 2.254-2.262 2.201-1.03-.045-2.437-1.299-2.04-2.513.197-.604-.046-.72-.582-.857-1.61-.412-3.008-1.217-4.21-2.34-.336-.314-.443-.67-.143-1.021.334-.39.731-.32 1.1.004.198.173.403.337.609.502.855.683 1.813 1.305 2.852 1.546 2.97.69 5.746.222 8.125-1.779.274-.23.568-.382.944-.403.545-.03.853.363.61.842-.095.185-.264.347-.429.485a11.568 11.568 0 0 1-3.531 2.034c-.346.125-.782.107-1.053.31-.375.278.154.685.01.99zM2.205 18.105c-.923.032-1.587-.333-1.965-1.135-.404-.86-.292-1.705.292-2.438.52-.652 1.265-.861 2.029-.635.62.183.665-.063.781-.572A7.649 7.649 0 0 1 5.818 9.18c.315-.275.69-.213.998.037.235.191.243.52.037.688-.347.283-.525.674-.779 1.013-2.361 3.162-2.29 7.328.188 10.395.26.323.471.641.572 1.048.106.429-.103.712-.518.622-.325-.07-.623-.167-.872-.458a10.347 10.347 0 0 1-1.993-3.464c-.11-.328-.1-.748-.305-.98-.25-.283-.646.14-.941.024zm21.56 2.395c-.096-.038-.248-.073-.375-.15-2.16-1.323-4.324-2.642-6.473-3.986-.538-.336-.561-.9-.036-1.227 2.182-1.363 4.386-2.691 6.583-4.03.343-.21.64-.092.868.188.239.294.214.622-.018.912-.092.115-.234.194-.362.273-1.565.96-3.132 1.915-4.697 2.873-.635.39-.635.394.018.795.819.503 1.643.997 2.46 1.504.817.506 1.63 1.02 2.44 1.538.296.19.37.486.28.813-.086.315-.333.448-.687.497zM7.786 11c.132.065.315.135.48.237 2.083 1.281 4.167 2.56 6.242 3.855.662.413.658.95-.018 1.37-2.069 1.287-4.15 2.554-6.225 3.83-.414.254-.819.345-1.134-.136-.309-.471.018-.769.332-1.046.113-.1.255-.165.385-.245.83-.513 1.674-.998 2.53-1.466.742-.406 1.405-.96 2.146-1.367.408-.224.269-.36.024-.51-1.017-.625-2.046-1.228-3.068-1.845-.708-.427-1.414-.856-2.112-1.298-.307-.194-.443-.49-.324-.853.106-.324.354-.488.742-.526zm7.968 1.916c.338-.528.648-1 .944-1.48.817-1.323 1.619-2.655 2.446-3.972.243-.387.607-.63 1.057-.303.381.278.367.67.137 1.047-1.289 2.108-2.576 4.216-3.878 6.316-.403.65-.997.626-1.395-.022-.893-1.455-1.79-2.907-2.686-4.36-.414-.67-.839-1.335-1.245-2.01-.224-.372-.168-.724.19-.984.382-.277.715-.134.994.178.102.113.176.25.256.381l3.18 5.21zM19.86 25c-.41-.019-.62-.29-.81-.602-.998-1.636-2.029-3.253-2.985-4.912-.292-.507-.354-.316-.554.012-1.007 1.646-2.029 3.285-3.04 4.929-.267.434-.59.773-1.125.439-.53-.332-.364-.774-.088-1.195.025-.037.045-.076.069-.113.722-1.18 1.438-2.363 2.17-3.536a93.368 93.368 0 0 1 1.666-2.59c.34-.507 1.027-.589 1.215-.127.226.554.661.95.926 1.472.396.783.947 1.49 1.384 2.255.562.986 1.256 1.898 1.728 2.934.232.508-.046 1.018-.556 1.034z"/>
</svg>
