<svg width="15" height="15" viewBox="0 0 15 15" fill="none" xmlns="http://www.w3.org/2000/svg">
<mask id="mask0" mask-type="alpha" maskUnits="userSpaceOnUse" x="0" y="0" width="15" height="15">
<path fill-rule="evenodd" clip-rule="evenodd" d="M14.0843 6.083H7.2907V8.95553H11.2012C10.8366 10.7804 9.31221 11.8281 7.2907 11.8281C4.90465 11.8281 2.98256 9.86798 2.98256 7.43478C2.98256 5.00158 4.90465 3.0415 7.2907 3.0415C8.31802 3.0415 9.24593 3.41324 9.975 4.02154L12.0959 1.8587C10.8035 0.709684 9.14651 0 7.2907 0C3.24767 0 0 3.31186 0 7.43478C0 11.5577 3.24767 14.8696 7.2907 14.8696C10.936 14.8696 14.25 12.166 14.25 7.43478C14.25 6.99545 14.1837 6.52233 14.0843 6.083Z" fill="white"/>
</mask>
<g mask="url(#mask0)">
<path d="M-0.875 11.6739V3L5.70109 7.33696L-0.875 11.6739Z" fill="white"/>
</g>
<mask id="mask1" mask-type="alpha" maskUnits="userSpaceOnUse" x="0" y="0" width="15" height="15">
<path fill-rule="evenodd" clip-rule="evenodd" d="M14.0843 6.083H7.2907V8.95553H11.2012C10.8366 10.7804 9.31221 11.8281 7.2907 11.8281C4.90465 11.8281 2.98256 9.86798 2.98256 7.43478C2.98256 5.00158 4.90465 3.0415 7.2907 3.0415C8.31802 3.0415 9.24593 3.41324 9.975 4.02154L12.0959 1.8587C10.8035 0.709684 9.14651 0 7.2907 0C3.24767 0 0 3.31186 0 7.43478C0 11.5577 3.24767 14.8696 7.2907 14.8696C10.936 14.8696 14.25 12.166 14.25 7.43478C14.25 6.99545 14.1837 6.52233 14.0843 6.083Z" fill="white"/>
</mask>
<g mask="url(#mask1)">
<path d="M-0.619568 3.07195L5.0856 7.43472L7.43478 5.38757L15.4891 4.07874V-0.619629H-0.619568V3.07195Z" fill="white"/>
</g>
<mask id="mask2" mask-type="alpha" maskUnits="userSpaceOnUse" x="0" y="0" width="15" height="15">
<path fill-rule="evenodd" clip-rule="evenodd" d="M14.0843 6.083H7.2907V8.95553H11.2012C10.8366 10.7804 9.31221 11.8281 7.2907 11.8281C4.90465 11.8281 2.98256 9.86798 2.98256 7.43478C2.98256 5.00158 4.90465 3.0415 7.2907 3.0415C8.31802 3.0415 9.24593 3.41324 9.975 4.02154L12.0959 1.8587C10.8035 0.709684 9.14651 0 7.2907 0C3.24767 0 0 3.31186 0 7.43478C0 11.5577 3.24767 14.8696 7.2907 14.8696C10.936 14.8696 14.25 12.166 14.25 7.43478C14.25 6.99545 14.1837 6.52233 14.0843 6.083Z" fill="white"/>
</mask>
<g mask="url(#mask2)">
<path d="M-0.619568 11.7975L9.44837 4.07874L12.0996 4.41434L15.4891 -0.619629V15.4891H-0.619568V11.7975Z" fill="white"/>
</g>
<mask id="mask3" mask-type="alpha" maskUnits="userSpaceOnUse" x="0" y="0" width="15" height="15">
<path fill-rule="evenodd" clip-rule="evenodd" d="M14.0843 6.083H7.2907V8.95553H11.2012C10.8366 10.7804 9.31221 11.8281 7.2907 11.8281C4.90465 11.8281 2.98256 9.86798 2.98256 7.43478C2.98256 5.00158 4.90465 3.0415 7.2907 3.0415C8.31802 3.0415 9.24593 3.41324 9.975 4.02154L12.0959 1.8587C10.8035 0.709684 9.14651 0 7.2907 0C3.24767 0 0 3.31186 0 7.43478C0 11.5577 3.24767 14.8696 7.2907 14.8696C10.936 14.8696 14.25 12.166 14.25 7.43478C14.25 6.99545 14.1837 6.52233 14.0843 6.083Z" fill="white"/>
</mask>
<g mask="url(#mask3)">
<path d="M15.489 15.4891L5.06257 7.45148L3.71722 6.44678L15.489 3.09778V15.4891Z" fill="white"/>
</g>
</svg>
