<svg xmlns="http://www.w3.org/2000/svg" width="29" height="27" viewBox="0 0 29 27"><defs><linearGradient id="eimya" x1=".5" x2="24.01" y1="18.66" y2="18.66" gradientUnits="userSpaceOnUse"><stop offset="0" stop-color="#0296b0"/><stop offset="1" stop-color="#0ffeff"/></linearGradient><linearGradient id="eimyb" x1=".72" x2="29.01" y1="9.82" y2="9.82" gradientUnits="userSpaceOnUse"><stop offset="0" stop-color="#0db6d4"/><stop offset="1" stop-color="#22dcdd"/></linearGradient></defs><g><g><g/><g><path fill="url(#eimya)" d="M3.087 11.58h23.552c.246 0 .446.2.446.447v9.857a4 4 0 0 1-4 4H6.64a4 4 0 0 1-4-4v-9.857c0-.247.2-.447.447-.447z"/></g><g opacity=".36"><path fill="#fff" d="M26.639 11.58H3.087c-.247 0-.447.2-.447.447v1.786h24.445v-1.786c0-.247-.2-.447-.446-.447z"/></g><g><path fill="#009eb6" d="M17.14 11.58h-4.563c-.247 0-.447.2-.447.447v13.857c0 .246.2.446.447.446h4.563c.246 0 .446-.2.446-.446V12.027c0-.247-.2-.447-.446-.447z"/></g><g opacity=".36"><path fill="#fff" d="M17.14 11.58h-4.563c-.247 0-.447.2-.447.447v1.776h5.456v-1.776c0-.247-.2-.447-.446-.447z"/></g><g><path fill="#14dbf2" d="M25.762 3.325c-.438-1.141-1.129-2.256-1.848-2.982-.264-.266-.62-.401-1.024-.393-1.341.032-3.526 1.715-6.495 5.002a.446.446 0 0 0-.115.3v2.362c0 .247.2.447.447.447h6.87c1.53 0 2.162-.745 2.422-1.37.348-.833.256-2.028-.257-3.366z"/></g><g><path fill="#0eb8d5" d="M26.02 4.112a.445.445 0 0 0-.058-.13c-.674-1.02-2.131-.638-3.235-.138-3.206 1.451-4.53 3.45-4.585 3.535a.446.446 0 0 0 .375.69H23.6c.974 0 1.696-.3 2.147-.889.535-.7.63-1.761.274-3.068z"/></g><g><path fill="#14dbf2" d="M13.321 4.952C10.353 1.665 8.168-.018 6.827-.05c-.406-.008-.76.127-1.024.393-.72.726-1.41 1.84-1.848 2.982-.514 1.338-.605 2.533-.258 3.366.26.625.892 1.37 2.423 1.37h6.87c.247 0 .446-.2.446-.447V5.252c0-.11-.04-.218-.115-.3z"/></g><g><path fill="#0eb8d5" d="M11.57 7.379c-.055-.084-1.379-2.084-4.585-3.535-1.104-.5-2.56-.881-3.235.138a.447.447 0 0 0-.059.13c-.356 1.307-.26 2.368.275 3.068.45.59 1.172.889 2.147.889h5.083a.446.446 0 0 0 .374-.69z"/></g><g><path fill="#0eb8d5" d="M16.728 4.37h-3.741c-.247 0-.447.2-.447.447V7.62c0 .247.2.447.447.447h3.74c.248 0 .447-.2.447-.447V4.817c0-.247-.2-.447-.446-.447z"/></g><g><path fill="url(#eimyb)" d="M28.559 7.17H1.167c-.247 0-.447.2-.447.447v4.407c0 .246.2.446.447.446h27.392c.246 0 .446-.2.446-.446V7.617c0-.247-.2-.447-.446-.447z"/></g><g><path fill="#009eb6" d="M18.291 7.17H11.43v5.3h6.861z"/></g></g></g></svg>