<svg xmlns="http://www.w3.org/2000/svg" width="122" height="31" viewBox="0 0 122 31"><defs><linearGradient id="jg51a" x1="25.09" x2="-1.7" y1="8.91" y2="22.96" gradientUnits="userSpaceOnUse"><stop offset="0" stop-color="#18edff"/><stop offset="1" stop-color="#00c1ec"/></linearGradient></defs><g><g><path fill="url(#jg51a)" d="M34.01 20.707c-.03-.28-.028-.4-.026-.61l.002-.214c.084-.626.126-1.256.126-1.888a13.906 13.906 0 0 0-2.097-7.372.253.253 0 0 0-.248-.116.25.25 0 0 0-.206.183c-.26.929-.557 2.057-.787 3.127a2.53 2.53 0 0 0 .24 1.72.1.1 0 0 1-.02.12.096.096 0 0 1-.12.007l-.397-.277a2.196 2.196 0 0 0-.889-.366c-1.034-.175-2.817-.426-4.716-.327a.192.192 0 0 0-.177.144.197.197 0 0 0 .08.215c1.964.88 4.673 2.905 6.25 5.886.272.962-.59 2.066-1.189 2.369-1.309.661-3.46-.38-5.009-1.39-1.196-.926-2.387-2.229-3.554-3.92l-.002.007a5.549 5.549 0 0 1-.216-.535 1.818 1.818 0 0 1-.119-.638c.033-.166.063-.303.085-.38.7-2.363 1.87-4.267 3.861-4.85 4.269-1.25 4.381-4.17 4.273-5.08a.36.36 0 0 0-.31-.315s-1.429-.116-2.053-.193a3.865 3.865 0 0 0-1.3-1.339 2.68 2.68 0 0 0-.735-.375 4.798 4.798 0 0 0-1.785-.338c-1.1 0-2.104.362-2.86.954-1.171.782-2.196 1.951-3.04 2.914-.513.584-.959 1.092-1.33 1.392a6.916 6.916 0 0 1-.271.207l-5.72 4.658c-1.046 1.073-1.5 2.588-1.906 3.945-.305 1.018-.583 1.946-1.064 2.534-1.122 1.37-2.854 2.214-6.403 1.928a.406.406 0 0 1-.348-.256.42.42 0 0 1 .071-.43c1.059-1.216 3.6-4.082 5.91-6.215a15.388 15.388 0 0 1-.013-.637C5.998 6.696 12.622 0 20.793 0c8.17 0 14.794 6.696 14.794 14.956 0 2.386-.552 4.641-1.535 6.642.017-.247-.011-.59-.042-.891zM23.54 7.732c-.013.002-.017.002-.013 0M12.603 27.26c-.046-1.58-.123-4.164 1.862-5.694l3.844-2.372c.678.343-.544 5.2-1.018 6.856-.52 1.823-2.241 3.667-3.512 4.31-.196.1-.396.196-.596.292l-.264.127c-.555.27-.764.04-.709-.214 0 0 .404-1.274.406-2.712 0-.175-.006-.374-.013-.593z"/></g><g><path fill="#fff" d="M45.48 7.039c0-.293.11-.544.33-.755.231-.21.51-.316.834-.316h7.867c0 .702-.122 1.217-.365 1.545-.232.316-.614.474-1.146.474h-5.193v2.967h4.62c0 .702-.122 1.217-.365 1.545-.232.316-.614.474-1.146.474h-3.109v3.775c0 .585-.185 1.012-.556 1.282-.37.257-.96.386-1.771.386zm12.387 11.377c-.961 0-1.69-.275-2.188-.825-.487-.562-.73-1.27-.73-2.125V7.144c0-.48.174-.819.521-1.018.36-.21.91-.316 1.65-.316v9.568c0 .398.087.691.26.878.174.176.452.264.834.264.429 0 .857-.111 1.285-.334.116.105.203.24.26.404.07.152.105.31.105.474 0 .351-.174.667-.52.948-.348.27-.84.404-1.477.404zm3.807-9.92c-.416 0-.764-.123-1.042-.369-.266-.257-.4-.585-.4-.983 0-.386.134-.702.4-.948.278-.257.626-.386 1.042-.386.417 0 .759.129 1.025.386.278.246.417.562.417.948 0 .398-.14.726-.417.983-.266.246-.608.37-1.025.37zm-1.094 2.16c0-.48.18-.82.539-1.019.359-.21.903-.316 1.632-.316v7.76c0 .469-.18.808-.538 1.019-.36.21-.903.316-1.633.316zm3.46.175c0-.433.167-.79.503-1.07.336-.293.834-.44 1.493-.44v.948a6.21 6.21 0 0 0-.33.474l.07.07c.37-.49.776-.86 1.216-1.105.451-.258 1.007-.387 1.667-.387.637 0 1.198.135 1.685.404.497.258.885.626 1.163 1.106.278.48.417 1.03.417 1.65v2.775c0 .632-.156 1.188-.469 1.668a2.97 2.97 0 0 1-1.25 1.106c-.533.257-1.135.386-1.807.386-.428 0-.874-.088-1.337-.263a3.447 3.447 0 0 1-1.146-.755l-.07.087c.081.117.209.24.382.369v2.598c0 .984-.729 1.475-2.188 1.475zm3.942 5.689c.567 0 1.007-.123 1.32-.369.312-.246.468-.591.468-1.036v-2.493c0-.456-.156-.802-.469-1.036-.3-.246-.74-.369-1.32-.369-.52 0-.949.13-1.285.387-.335.246-.503.556-.503.93v2.669c0 .363.162.673.486.93.336.258.77.387 1.303.387zm4.545-5.689c0-.433.167-.79.503-1.07.336-.293.834-.44 1.494-.44v.948c-.197.27-.307.428-.33.474l.07.07c.37-.49.775-.86 1.215-1.105.452-.258 1.008-.387 1.668-.387.636 0 1.198.135 1.684.404.497.258.886.626 1.164 1.106.278.48.416 1.03.416 1.65v2.775c0 .632-.156 1.188-.469 1.668a2.97 2.97 0 0 1-1.25 1.106c-.533.257-1.135.386-1.806.386-.429 0-.875-.088-1.337-.263a3.447 3.447 0 0 1-1.147-.755l-.069.087c.08.117.208.24.382.369v2.598c0 .984-.73 1.475-2.188 1.475zm3.942 5.689c.567 0 1.007-.123 1.32-.369.313-.246.469-.591.469-1.036v-2.493c0-.456-.156-.802-.469-1.036-.301-.246-.741-.369-1.32-.369-.52 0-.95.13-1.285.387-.336.246-.504.556-.504.93v2.669c0 .363.162.673.487.93.335.258.77.387 1.302.387zm8.33 1.896a4.51 4.51 0 0 1-1.962-.422 3.687 3.687 0 0 1-1.407-1.176 2.9 2.9 0 0 1-.52-1.685v-2.335c0-.656.18-1.247.538-1.774.359-.526.833-.942 1.424-1.246a4.252 4.252 0 0 1 1.945-.457c.683 0 1.309.147 1.876.44.579.28 1.036.678 1.372 1.193.336.503.503 1.083.503 1.738v.983a.835.835 0 0 1-.295.65c-.185.176-.422.263-.712.263h-4.55v.387c0 .503.15.913.451 1.229.302.316.753.474 1.355.474.58 0 1.007-.129 1.285-.387.29-.257.434-.59.434-1 .209-.024.354-.035.435-.035.428 0 .764.1 1.007.298.243.187.364.457.364.808 0 .34-.156.667-.468.983-.313.316-.741.573-1.286.772a5.17 5.17 0 0 1-1.788.299zm1.807-5.39v-.334c0-.491-.168-.89-.504-1.194-.335-.304-.77-.456-1.302-.456s-.967.152-1.303.456c-.324.293-.486.691-.486 1.194v.334zm6.969-1.809c-.684 0-1.24.188-1.667.562-.43.363-.643.82-.643 1.37v3.932c0 .469-.174.808-.521 1.019-.347.21-.892.316-1.633.316v-7.41c0-.538.168-.953.504-1.246.347-.292.868-.439 1.563-.439v1.036a3.423 3.423 0 0 0-.417.58l.105.07c.729-1.124 1.643-1.686 2.743-1.686.498 0 .874.135 1.13.404.254.258.381.585.381.983 0 .305-.081.562-.243.773-.312-.176-.747-.264-1.302-.264zm1.904-4.178c0-.293.11-.544.33-.755.231-.21.509-.316.833-.316h7.867c0 .702-.121 1.217-.364 1.545-.232.316-.614.474-1.146.474h-5.193v2.967h4.62c0 .702-.122 1.217-.365 1.545-.232.316-.614.474-1.146.474h-3.11v3.775c0 .585-.185 1.012-.555 1.282-.37.257-.961.386-1.771.386zm12.386 11.377c-.96 0-1.69-.275-2.188-.825-.486-.562-.73-1.27-.73-2.125V7.144c0-.48.174-.819.522-1.018.359-.21.908-.316 1.65-.316v9.568c0 .398.086.691.26.878.174.176.452.264.834.264.428 0 .856-.111 1.285-.334.116.105.203.24.26.404.07.152.105.31.105.474 0 .351-.174.667-.521.948-.348.27-.84.404-1.477.404zm3.808-9.92c-.417 0-.764-.123-1.042-.369-.266-.257-.4-.585-.4-.983 0-.386.134-.702.4-.948.278-.257.625-.386 1.042-.386.417 0 .758.129 1.024.386.278.246.417.562.417.948 0 .398-.139.726-.417.983-.266.246-.607.37-1.024.37zm-1.094 2.16c0-.48.179-.82.538-1.019.36-.21.903-.316 1.633-.316v7.76c0 .469-.18.808-.539 1.019-.359.21-.903.316-1.632.316zm3.459.175c0-.433.168-.79.503-1.07.336-.293.834-.44 1.494-.44v.948a6.45 6.45 0 0 0-.33.474l.07.07c.37-.49.775-.86 1.215-1.105.451-.258 1.007-.387 1.667-.387.637 0 1.198.135 1.685.404.498.258.885.626 1.163 1.106.278.48.417 1.03.417 1.65v2.775c0 .632-.156 1.188-.469 1.668-.3.48-.718.848-1.25 1.106-.532.257-1.135.386-1.807.386a3.77 3.77 0 0 1-1.337-.263 3.447 3.447 0 0 1-1.146-.755l-.07.087c.082.117.209.24.383.369v2.598c0 .984-.73 1.475-2.188 1.475zm3.942 5.689c.567 0 1.007-.123 1.32-.369.312-.246.469-.591.469-1.036v-2.493c0-.456-.157-.802-.47-1.036-.3-.246-.74-.369-1.32-.369-.52 0-.948.13-1.284.387-.336.246-.504.556-.504.93v2.669c0 .363.162.673.486.93.336.258.77.387 1.303.387z"/></g></g></svg>