<svg width="98" height="99" viewBox="0 0 98 99" fill="none" xmlns="http://www.w3.org/2000/svg">
<path d="M91.4262 50.1318C91.4262 65.9281 82.5988 79.6669 69.5901 86.669C63.7495 89.8217 57.0792 91.6137 49.9443 91.6137C27.0463 91.6137 8.4624 73.0298 8.4624 50.1318C8.4624 27.2338 27.0463 8.6499 49.9443 8.6499C62.8203 8.6499 74.3356 14.5237 81.9351 23.7493C87.8753 30.9174 91.4262 40.1098 91.4262 50.1318Z" fill="#E29A39"/>
<path d="M49.944 84.7774C30.8291 84.7774 15.2651 69.2466 15.2651 50.1317C15.2651 31.0169 30.8291 15.4529 49.944 15.4529C69.0588 15.4529 84.6229 31.0169 84.6229 50.1317C84.6229 69.2466 69.0588 84.7774 49.944 84.7774ZM49.944 17.444C31.9243 17.444 17.2563 32.112 17.2563 50.1317C17.2563 68.1515 31.9243 82.8195 49.944 82.8195C67.9637 82.8195 82.6317 68.1515 82.6317 50.1317C82.6317 32.112 67.9637 17.444 49.944 17.444Z" fill="#AD5428"/>
<path d="M15.5636 31.5479C8.69421 44.2912 10.5858 62.8751 18.9485 73.5276C26.9131 83.6824 42.8089 95.065 68.8927 86.8018C69.125 86.7354 69.3573 86.7354 69.5896 86.7022C63.749 89.8549 57.0787 91.6469 49.9438 91.6469C27.0458 91.6469 8.46191 73.063 8.46191 50.165C8.46191 27.267 27.0458 8.68311 49.9438 8.68311C62.8198 8.68311 74.3352 14.5569 81.9346 23.7825L81.8019 24.1144C81.8019 24.1144 70.4193 9.91097 49.7115 10.6079C33.5834 11.1056 19.6454 23.8821 15.5636 31.5479Z" fill="#F5BB45"/>
<path d="M84.3243 49.7668C86.5477 69.1471 68.9262 84.7111 50.3091 84.7111C31.6921 84.7111 17.2896 68.3506 17.2896 49.7668C17.2896 49.103 17.3227 48.4393 17.3559 47.8088C18.7829 55.5742 22.5329 70.9723 40.7517 74.49C64.5457 79.0364 81.3708 60.7512 75.1651 29.3909C75.1983 29.3577 82.8641 36.9903 84.3243 49.7668Z" fill="#C9722C"/>
<path d="M90.2316 62.1781C89.9993 62.9414 89.7338 63.7047 89.4019 64.5343C88.6719 66.2268 87.6431 68.0852 86.2825 70.1095C77.0569 83.7487 44.8338 76.6138 43.4068 76.2488C43.3736 76.2488 43.3404 76.2488 43.3073 76.2156C28.5729 74.5231 24.7897 66.3927 23.9933 64.1693C23.8937 63.8706 23.6283 63.6715 23.3296 63.6051C22.5331 63.4392 19.646 62.51 16.1615 57.9636C11.2501 51.4924 12.6439 46.2823 13.4071 42.9637C14.4359 38.5169 20.0442 31.8466 18.8495 29.9218C17.6217 27.9971 17.4226 25.8068 17.9535 22.7537C18.8164 17.5768 23.4623 14.1255 23.9269 11.9685C23.9933 11.6034 24.0265 11.3048 24.0597 11.0393C24.0597 10.5747 24.0265 10.2096 23.9601 9.77822C23.8274 8.94858 23.6614 7.9862 23.9601 6.09462C24.3251 3.8712 26.084 1.88006 27.2455 0.751757C27.2787 0.718572 27.3118 0.685386 27.3782 0.652201C27.7101 0.386717 28.0751 0.187603 28.4733 0.088047C28.5065 0.088047 28.5729 0.054862 28.6061 0.054862H28.6393C28.9711 -0.0115091 29.303 -0.0115098 29.6348 0.0216757C29.8671 0.0548612 30.0662 0.0880477 30.2985 0.121233C43.5727 2.17873 44.5683 5.26499 44.0705 6.85789C44.0373 6.99063 44.0042 7.12338 44.0373 7.25612C44.0373 7.32249 44.0705 7.38886 44.0705 7.45523C44.1037 7.62116 44.2033 7.78709 44.336 7.91983C44.3692 7.95301 44.4024 7.95301 44.4024 7.9862C44.5019 8.08575 44.6679 8.15213 44.8338 8.18531C47.1236 8.81583 52.1346 10.4087 58.4067 13.6941C64.911 17.079 64.015 20.0325 63.1522 21.3268C63.0195 21.5259 62.9863 21.725 63.0526 21.9241C63.0526 21.9573 63.0858 21.9905 63.0858 22.0237C63.0858 22.0569 63.119 22.0569 63.119 22.09C63.1522 22.1232 63.1522 22.1896 63.2186 22.2228C63.2849 22.3223 63.3845 22.3887 63.4841 22.4551C63.7827 22.621 64.4132 22.8533 65.2761 23.152C67.7318 24.048 72.0459 25.5745 76.1609 27.9639C76.9242 28.4285 77.6874 28.8931 78.4175 29.3909C83.8931 33.2072 84.6232 38.6828 84.2914 42.4991C84.1586 44.092 83.86 45.4194 83.6277 46.1827C83.6277 46.1827 83.6277 46.2159 83.6277 46.2491C83.6277 46.3155 83.5945 46.3486 83.5945 46.415C83.5613 46.5478 83.5613 46.6805 83.5613 46.7801C83.5945 47.0124 83.7604 47.2115 83.9595 47.311C84.0923 47.3774 84.225 47.477 84.3577 47.5433C84.3909 47.5433 84.4241 47.5765 84.4241 47.5765C88.2404 50.0322 92.5214 54.3464 90.2316 62.1781Z" fill="#CBCDD3"/>
<path d="M44.2697 7.98613L42.2786 7.8202L38.4954 7.91976C36.0729 7.78702 33.6835 7.95294 31.3273 8.41754C29.6017 8.7494 28.042 8.84895 26.5486 9.57903L23.9933 11.006C24.0597 9.61222 23.4292 8.88214 23.8938 6.06137C24.2588 3.83794 26.0177 1.84681 27.1792 0.718501C27.6106 0.287089 28.407 0.0216051 28.3738 0.0547906C28.1747 1.71407 27.9424 4.89988 32.2234 5.13217C37.3007 5.43084 38.9932 5.89544 42.0131 6.99056C43.5064 7.5879 44.2697 7.98613 44.2697 7.98613Z" fill="#848EA0"/>
<path d="M85.6186 57.3662C88.738 60.7511 89.2026 65.5962 86.7469 69.3794C86.581 69.6117 86.415 69.8771 86.2491 70.1426C77.0235 83.7819 44.8004 76.6138 43.3734 76.282C43.3402 76.282 43.307 76.2488 43.2407 76.2488C28.5063 74.5563 24.7232 66.4259 23.9267 64.2024C23.8272 63.9369 23.5617 63.7046 23.263 63.6383C22.4665 63.4723 19.5794 62.5431 16.0949 57.9635C11.1503 51.4924 12.6104 46.2822 13.3405 42.9637C14.137 39.2801 19.9776 31.8465 18.783 29.9218C17.5551 27.997 17.356 25.8068 17.8869 22.7537C18.7498 17.5768 23.3957 14.0923 23.8603 11.9684C23.9267 11.6034 23.9599 11.3047 23.9931 11.0392C24.0263 10.5746 23.9599 10.1764 23.8935 9.77819C29.4687 7.85343 34.6788 7.4552 34.6788 7.4552C34.6788 7.4552 28.6059 8.74943 23.8935 13.6277C21.5705 16.0502 22.5993 18.9706 25.4532 19.2029C28.3072 19.4352 34.7784 16.5812 39.6898 16.3821C44.6013 16.1498 49.1809 16.2825 53.2959 17.444C56.9463 18.4728 62.1896 21.4263 63.0192 22.0568C63.1188 22.1232 63.0192 22.1232 63.0524 22.1232C63.0524 22.1232 63.1188 22.1564 63.0524 22.1232C61.5923 21.4595 48.4508 15.9175 34.5129 22.7869C19.7121 30.0877 20.044 36.7248 20.044 36.7248C20.044 36.7248 18.4511 42.5987 30.4974 39.0146C42.577 35.4306 50.0105 34.6341 58.3733 35.6961C66.736 36.758 78.9483 42.2668 80.8067 43.8597C81.2381 44.2247 81.9018 44.8885 82.3664 45.3531C82.7978 45.7845 83.1297 46.2491 83.4283 46.7468C83.5943 47.0455 83.6938 47.2446 83.6938 47.2446C83.6938 47.2446 83.196 46.7137 82.7978 46.3486C79.8443 43.6938 65.8068 36.4593 48.1853 40.2093C26.9466 44.7225 27.4112 55.2755 27.4112 55.2755C27.4112 55.2755 27.7099 65.198 43.0416 59.6228C58.3733 54.0145 65.6077 52.4548 72.4771 52.5875C79.3133 52.6871 84.1916 55.7733 85.6186 57.3662Z" fill="#848EA0"/>
<path d="M84.1251 65.6958C83.3619 68.7821 80.2756 71.9679 75.5633 73.9258C71.7138 75.5187 62.1563 76.0165 56.548 75.2864C48.1852 74.1581 43.4729 73.9258 40.8512 71.802C40.1212 71.2046 39.026 68.9812 41.1831 67.3219C43.8711 65.2644 46.1277 64.4016 49.4463 62.2114C53.7272 59.3242 59.6342 56.603 67.0014 55.9725C81.1384 54.7778 84.5897 63.7711 84.1251 65.6958Z" fill="#5B5350"/>
<path d="M84.2578 64.8329C84.0255 68.417 80.7734 71.4369 76.1938 73.6603C76.2933 73.5607 76.4261 73.4612 76.5588 73.3616C79.3132 71.47 78.6495 67.0896 77.7203 65.4635C76.227 62.7754 68.9925 61.3485 62.8864 60.8175C57.444 60.3529 50.0104 62.4104 48.4507 62.875C52.5325 59.7556 59.0369 56.7357 66.3377 55.7069C80.4415 53.6494 84.4238 62.3772 84.2578 64.8329Z" fill="#4C4745"/>
<path d="M44.0371 6.85789C44.0039 6.99063 43.9708 7.12338 44.0039 7.25612C44.0039 7.32249 44.2031 7.7539 44.2031 7.82027C41.1168 3.20749 28.4399 0.088047 28.4399 0.088047C28.4731 0.088047 28.5395 0.054862 28.5727 0.054862H28.6059C28.9377 -0.0115091 29.2696 -0.0115098 29.6014 0.0216757C29.8337 0.0548612 30.0328 0.0880477 30.2651 0.121233C43.5393 2.17874 44.5017 5.29817 44.0371 6.85789Z" fill="#FAF3FE"/>
<path d="M63.1189 21.3268C62.9862 21.5259 62.953 21.725 63.0194 21.9241C59.4354 18.1078 47.024 8.78265 30.564 9.11451C30.564 9.11451 33.5507 6.36011 44.3028 7.9862C44.3359 7.9862 44.3691 7.9862 44.4023 7.9862C44.5019 8.08576 44.6678 8.15213 44.8337 8.18531C47.1235 8.81584 52.1345 10.4087 58.4066 13.6941C64.8778 17.079 63.9818 20.0325 63.1189 21.3268Z" fill="#FAF3FE"/>
<path d="M84.2579 42.5323C84.2579 42.5655 84.2579 42.5986 84.2579 42.5986C83.7602 45.519 83.5942 46.2822 83.5942 46.2822C83.5942 46.2822 71.0833 20.9285 38.4951 21.1608C38.4951 21.1608 49.0813 16.1498 63.1851 22.1896C63.5834 22.3555 63.9816 22.5546 64.413 22.7205C64.6785 22.8533 64.9772 22.986 65.2426 23.1187C70.4196 25.5081 73.6718 26.6364 75.9947 27.8643C76.0279 27.8975 76.0943 27.9306 76.1607 27.9306C76.9239 28.3621 77.6872 28.8598 78.4173 29.3576C83.8597 33.2403 84.5898 38.7159 84.2579 42.5323Z" fill="#FAF3FE"/>
<path d="M88.7714 65.8618C88.705 64.2357 91.8908 55.6074 78.5834 48.6385C77.7206 48.1739 67.599 43.3288 46.2607 40.6408C46.2607 40.6408 66.6698 36.6585 77.4883 42.7978C79.8113 44.1252 84.3577 47.6429 84.3909 47.6761C88.2404 50.0323 93.9815 54.8773 88.7714 65.8618Z" fill="#FAF3FE"/>
<path d="M16.991 72.9303C16.8251 73.2953 16.6591 73.5608 16.5596 73.7267C16.4932 73.8595 16.4268 73.9258 16.4268 73.9258C16.4268 73.9258 16.3936 73.9258 16.2941 73.8926C16.1945 73.8595 15.9954 73.8263 15.7963 73.7599C15.5308 72.8307 15.4644 71.9015 15.4976 70.9723C15.5308 70.375 15.5972 69.7776 15.6967 69.1803C15.929 69.7113 16.1282 70.2754 16.2941 70.8396L16.7587 72.2665C16.8914 72.4325 16.9578 72.6648 16.991 72.9303Z" fill="#B58967"/>
<path opacity="0.5" d="M44.1035 91.5805C43.8712 91.9123 43.7052 92.1446 43.6057 92.2774C43.5725 92.3438 43.5393 92.3438 43.5393 92.3438C43.5393 92.3438 43.4729 92.3106 43.3402 92.2774C43.0415 92.1778 42.4442 91.9787 41.7141 91.6137C39.8557 90.7177 36.9686 88.8261 34.8115 85.3416C34.9775 85.3748 35.1434 85.408 35.2429 85.4412C35.3757 85.4744 35.4421 85.4744 35.4421 85.4744C35.4421 85.4744 35.4752 85.4412 35.5084 85.3416C35.8403 85.4412 36.0062 85.0761 36.0062 84.5783C36.0062 84.512 36.0062 84.4788 36.0062 84.4124C35.973 83.981 35.8403 83.5496 35.6412 83.1514L34.9443 81.1602C34.6124 80.231 34.2474 79.3019 33.8492 78.3727C33.7164 79.1691 33.6169 79.9656 33.6169 80.762C33.6169 82.3217 33.9487 83.8815 34.8115 85.3084L34.8447 85.3416C34.546 85.2752 34.1478 85.1425 33.6832 84.9766C31.858 84.3129 28.9709 82.8859 26.5483 79.8992C26.3824 79.7001 26.2497 79.501 26.1169 79.3019C25.951 79.7001 25.7851 80.0651 25.6523 80.3638C25.42 80.8284 25.1877 81.1934 25.055 81.4257C24.9554 81.5917 24.8891 81.6912 24.8891 81.6912C24.8891 81.6912 24.8227 81.6912 24.7231 81.658C24.4577 81.5917 23.9267 81.4257 23.263 81.1271C21.5705 80.397 18.9489 78.9036 16.8914 75.9169C16.4268 75.2532 16.1281 74.5231 15.8958 73.7931C16.1281 73.8594 16.294 73.9258 16.3936 73.9258C16.4931 73.959 16.5263 73.959 16.5263 73.959C16.5263 73.959 16.5595 73.8926 16.6591 73.7599C16.9577 73.959 17.0905 73.6603 17.0905 73.2621C17.0905 73.1625 17.0905 73.063 17.0905 72.9634C17.0573 72.6979 16.9909 72.4656 16.8582 72.2333L16.3936 70.8064C16.2276 70.2422 16.0285 69.7112 15.7962 69.1471C15.6967 69.7444 15.6303 70.3418 15.5971 70.9391C15.5639 71.8683 15.6303 72.8307 15.8958 73.7267C15.7299 73.6603 15.5307 73.5939 15.2984 73.5276C14.0374 73.0298 12.0131 71.9347 10.387 69.7444C8.46224 67.156 9.55736 63.3728 10.2543 61.614C10.2874 61.5476 10.3206 61.4812 10.3538 61.3817C10.5529 60.9171 10.6857 60.6184 10.6857 60.6184C10.6857 60.6184 14.9334 61.9458 16.8914 65.4635C16.9577 65.2976 17.0241 65.1316 17.0905 64.9989C17.1237 64.8993 17.1568 64.7998 17.2232 64.7002C17.5219 64.0697 17.721 63.7047 17.721 63.7047C17.721 63.7047 22.9643 65.5299 25.5196 69.9435C25.6855 69.3794 25.8514 68.8484 25.9842 68.417C26.0174 68.3175 26.0506 68.2179 26.0837 68.1183C26.3492 67.4214 26.5152 67.0232 26.5152 67.0232C26.5152 67.0232 32.5549 68.7157 35.5084 73.5608C35.608 73.3285 35.7407 73.0962 35.8403 72.8971C35.9067 72.7975 35.9398 72.6648 36.0062 72.5652C36.3713 71.8683 36.6367 71.4369 36.6367 71.4369C36.6367 71.4369 36.7695 71.5033 37.0018 71.6028C37.035 71.6028 37.035 71.636 37.0681 71.636C38.7274 72.3993 43.4398 77.0121 44.5349 81.7576C45.5304 86.5363 45.1322 90.054 44.1035 91.5805Z" fill="#966A4D"/>
<path d="M16.9909 72.9302C16.9909 73.0298 17.0241 73.1294 16.9909 73.2289C16.9909 73.6271 16.8582 73.8926 16.5595 73.7267C16.4599 73.6603 16.3604 73.5608 16.2276 73.428C16.2276 73.428 15.9622 72.3661 15.4976 70.9391C15.5307 70.3418 15.5971 69.7444 15.6967 69.1471C15.929 69.6781 16.1281 70.2422 16.294 70.8064L16.7586 72.2334C16.8914 72.4325 16.9577 72.6648 16.9909 72.9302Z" fill="#B58967"/>
<path d="M11.8474 72.5653C11.8142 73.0631 11.7147 73.4613 11.6815 73.6272C11.6483 73.6936 11.6483 73.76 11.6483 73.76C11.6483 73.76 7.63288 74.1582 4.28114 71.1715C0.597547 67.8861 1.42718 62.8751 1.42718 62.8751C1.42718 62.8751 1.75904 62.8751 2.32319 62.9415C2.38956 62.9415 2.48912 62.9747 2.58868 62.9747C4.64618 63.2402 8.82755 64.103 10.4536 66.8574C11.8474 69.1804 11.947 71.3042 11.8474 72.5653Z" fill="#EFB081"/>
<path d="M1.42725 62.8751C1.42725 62.8751 4.71261 65.5963 7.30108 68.6494C9.22584 70.8728 10.9183 73.5609 10.9183 73.5609C11.6484 74.0586 11.7479 73.6604 11.6152 73.1958C11.5156 72.864 11.3165 72.5321 11.051 72.2998L10.155 71.0719C8.09753 68.218 5.40951 65.7291 2.48918 63.572L1.42725 62.8751Z" fill="#B26D46"/>
<path opacity="0.64" d="M11.8476 72.5652C11.8144 73.063 11.7149 73.4612 11.6817 73.6272C10.6529 71.7688 9.29232 69.0807 8.62861 67.1228C7.76579 64.5675 4.21494 63.406 2.55566 62.9746C4.61317 63.2401 8.79454 64.1029 10.4206 66.8573C11.8476 69.1803 11.9472 71.3042 11.8476 72.5652Z" fill="#FFD997"/>
<path d="M15.3315 75.8506C15.3315 75.8838 15.3647 75.8838 15.3315 75.8506C15.8293 76.0829 16.2275 76.1825 16.4266 76.2488C16.5262 76.282 16.5594 76.282 16.5594 76.282C16.5594 76.282 18.9155 73.2953 17.7209 69.1803C16.3934 64.6671 11.1833 62.8087 11.1833 62.8087C11.1833 62.8087 11.0174 63.0742 10.8183 63.572C10.7851 63.6384 10.7519 63.7047 10.7187 63.7711C9.95546 65.5299 8.7276 69.2467 10.5528 71.9015C12.1125 74.1913 14.1036 75.3197 15.3315 75.8506Z" fill="#EFB081" stroke="#BF8458" stroke-width="0.5889" stroke-miterlimit="10"/>
<path d="M11.1836 62.9082C11.1836 62.9082 13.3075 66.4591 14.7013 70.0763C15.73 72.7643 16.3937 75.7842 16.3937 75.7842C16.8915 76.4479 17.1238 76.1492 17.157 75.6182C17.1902 75.2532 17.0906 74.9214 16.9579 74.5895L16.5596 73.1625C15.6305 69.844 13.9712 66.6914 11.9469 63.8042L11.1836 62.9082Z" fill="#B26D46"/>
<path d="M23.0308 83.6492C23.0308 83.6492 23.0308 83.6823 23.0308 83.6492C23.6945 83.981 24.2255 84.1469 24.491 84.2133C24.5905 84.2465 24.6569 84.2797 24.6569 84.2797C24.6569 84.2797 27.9423 80.3638 26.5485 74.855C24.9887 68.7489 18.1193 66.1272 18.1193 66.1272C18.1193 66.1272 17.887 66.4922 17.5884 67.1228C17.5552 67.2223 17.4888 67.2887 17.4556 67.3882C16.3605 69.678 14.5353 74.6227 16.8583 78.2399C18.8162 81.293 21.3715 82.8859 23.0308 83.6492Z" fill="#EFB081" stroke="#BF8458" stroke-width="1.1779" stroke-miterlimit="10"/>
<path d="M18.0859 66.2268C18.0859 66.2268 20.774 71.0387 22.4664 75.917C23.6943 79.5342 24.4576 83.616 24.4576 83.616C25.1213 84.512 25.4199 84.1138 25.4863 83.4169C25.5195 82.9523 25.4531 82.4877 25.254 82.0231L24.7562 80.0983C23.6611 75.6515 21.6036 71.3706 19.0483 67.4547L18.0859 66.2268Z" fill="#B26D46"/>
<path d="M16.2611 74.3572C16.6261 74.7554 16.8252 75.0541 16.958 75.22C16.9911 75.2864 17.0243 75.3195 17.0243 75.3195C17.0243 75.3195 14.3363 78.0739 9.62396 77.9744C4.41384 77.8748 1.22803 73.7266 1.22803 73.7266C1.22803 73.7266 1.49351 73.5275 1.95811 73.2288C2.02448 73.1957 2.09085 73.1293 2.15722 73.0961C3.88287 72.0342 7.63283 70.0762 10.9182 71.0718C13.7058 71.9346 15.3982 73.3948 16.2611 74.3572Z" fill="#BF8458"/>
<path d="M25.254 80.7289C25.6855 81.293 25.9509 81.7244 26.0505 81.9567C26.1169 82.0563 26.1169 82.1227 26.1169 82.1227C26.1169 82.1227 22.201 85.5408 15.9289 84.9434C9.02633 84.2797 5.27637 78.4722 5.27637 78.4722C5.27637 78.4722 5.64141 78.24 6.30512 77.8749C6.40467 77.8085 6.50423 77.7754 6.60379 77.709C8.99314 76.4479 14.2365 74.2245 18.4842 75.8838C22.1346 77.2444 24.1921 79.3351 25.254 80.7289Z" fill="#BF8458"/>
<path d="M15.0662 74.5565C15.4644 74.9215 15.6967 75.2202 15.7963 75.3861C15.8627 75.4525 15.8627 75.4857 15.8627 75.4857C15.8627 75.4857 13.3406 78.3728 8.62823 78.5387C3.45129 78.7047 0 74.7224 0 74.7224C0 74.7224 0.265484 74.5233 0.696895 74.1914C0.763266 74.1583 0.829638 74.0919 0.896009 74.0587C2.5221 72.8972 6.1725 70.7733 9.52424 71.5698C12.345 72.2667 14.137 73.6273 15.0662 74.5565Z" fill="#EFB081"/>
<path d="M0 74.7223C0 74.7223 4.51323 74.4568 8.72779 74.8218C11.8472 75.0873 15.199 75.8174 15.199 75.8174C16.095 75.6847 15.8627 75.3528 15.3649 75.1205C15.033 74.9546 14.6348 74.8882 14.2366 74.855L12.6105 74.5895C8.86053 73.9922 4.97783 74.0254 1.22786 74.4568L0 74.7223Z" fill="#B26D46"/>
<path opacity="0.64" d="M15.0662 74.5564C15.4644 74.9214 15.6967 75.2201 15.7963 75.386C13.5728 74.7555 10.4866 73.8263 8.42909 72.9303C5.77425 71.7356 2.35614 73.2621 0.862793 74.0586C2.48888 72.8971 6.13929 70.7732 9.49103 71.5697C12.345 72.2666 14.137 73.6272 15.0662 74.5564Z" fill="#FFD997"/>
<path d="M34.4135 85.0098C34.9445 85.5076 35.2431 85.939 35.409 86.1381C35.4754 86.2376 35.5086 86.2708 35.5086 86.2708C35.5086 86.2708 32.0905 90.1867 25.7189 90.3858C18.6836 90.5849 14.0044 85.2421 14.0044 85.2421C14.0044 85.2421 14.3363 84.9434 14.9336 84.512C15.0331 84.4456 15.0995 84.3792 15.1991 84.3129C17.4225 82.7532 22.334 79.866 26.8804 80.9611C30.7299 81.9235 33.1192 83.7487 34.4135 85.0098Z" fill="#BF8458"/>
<path d="M24.2252 81.293C24.6566 81.8571 24.9221 82.2885 25.0217 82.5208C25.0881 82.6204 25.0881 82.6867 25.0881 82.6867C25.0881 82.6867 21.1722 86.1049 14.9001 85.5075C7.99752 84.8438 4.24756 79.0363 4.24756 79.0363C4.24756 79.0363 4.6126 78.804 5.27631 78.439C5.37587 78.3726 5.47542 78.3394 5.57498 78.2731C7.96434 77.012 13.2076 74.7886 17.4554 76.4479C21.1058 77.8085 23.1633 79.8992 24.2252 81.293Z" fill="#EFB081"/>
<path d="M4.28076 79.0032C4.28076 79.0032 10.2542 79.4014 15.7961 80.5961C19.878 81.4921 24.1257 82.9855 24.1257 82.9855C25.3204 82.9523 25.1213 82.4877 24.4907 82.0895C24.0593 81.824 23.5615 81.658 23.0638 81.5585L20.9731 80.928C16.1612 79.501 11.0506 78.9037 5.97322 78.8373L4.28076 79.0032Z" fill="#B26D46"/>
<path opacity="0.64" d="M24.2255 81.293C24.6569 81.8571 24.9224 82.2885 25.0219 82.5208C22.2343 81.3261 18.3516 79.5673 15.8295 78.0408C12.5774 76.0496 7.76546 77.4434 5.6084 78.2731C7.99776 77.012 13.2411 74.7886 17.4888 76.4479C21.106 77.8085 23.1635 79.8992 24.2255 81.293Z" fill="#FFD997"/>
<path d="M33.6166 84.9434C33.6166 84.9434 33.6498 84.9434 33.6166 84.9434C34.1476 85.4411 34.4462 85.8726 34.6122 86.0717C34.6785 86.1712 34.7117 86.2044 34.7117 86.2044C34.7117 86.2044 31.2936 90.1203 24.922 90.3194C17.8867 90.5185 13.2075 85.1757 13.2075 85.1757C13.2075 85.1757 13.5394 84.877 14.1367 84.4456C14.2363 84.3792 14.3026 84.3128 14.4022 84.2465C16.6256 82.6867 21.5371 79.7996 26.0835 80.8947C29.933 81.8571 32.3556 83.6823 33.6166 84.9434Z" fill="#BF8458"/>
<path d="M33.8168 85.7731C33.8168 85.8063 33.8168 85.8063 33.8168 85.7731C34.3478 86.2709 34.6464 86.7023 34.8124 86.9014C34.8787 87.0009 34.9119 87.0341 34.9119 87.0341C34.9119 87.0341 31.4938 90.95 25.1222 91.1491C18.0869 91.3482 13.4077 86.0054 13.4077 86.0054C13.4077 86.0054 13.7396 85.7067 14.3369 85.2753C14.4365 85.2089 14.5028 85.1425 14.6024 85.0762C16.8258 83.5165 21.7373 80.6293 26.2837 81.7244C30.1332 82.6868 32.5558 84.5452 33.8168 85.7731Z" fill="#EFB081"/>
<path d="M13.4072 86.0384C13.4072 86.0384 19.4802 85.6734 25.2213 86.1712C29.469 86.5362 33.9822 87.5318 33.9822 87.5318C35.2101 87.3327 34.9114 86.9013 34.2145 86.5694C33.7499 86.3371 33.219 86.2376 32.688 86.2376L30.4978 85.8725C25.4536 85.0429 20.1771 85.1093 15.0665 85.7066L13.4072 86.0384Z" fill="#B26D46"/>
<path opacity="0.64" d="M33.8165 85.773C33.8165 85.8062 33.8165 85.8062 33.8165 85.773C34.3474 86.2708 34.6461 86.7022 34.812 86.9013C31.8253 86.0716 27.644 84.8106 24.8564 83.5827C21.2723 81.9898 16.6264 84.0141 14.6021 85.1093C16.8255 83.5495 21.7369 80.6624 26.2833 81.7575C30.1329 82.6867 32.5554 84.5451 33.8165 85.773Z" fill="#FFD997"/>
<path d="M33.3516 87.897C34.0817 88.1956 34.6459 88.3284 34.9113 88.3947C35.0441 88.4279 35.1104 88.4279 35.1104 88.4279C35.1104 88.4279 38.2963 84.1138 36.3715 78.3727C34.2476 72.0675 26.8141 69.7113 26.8141 69.7113C26.8141 69.7113 26.615 70.1095 26.3163 70.8064C26.2831 70.906 26.2499 71.0055 26.1835 71.1051C25.2212 73.594 23.6614 78.9037 26.3827 82.5873C28.7056 85.6735 31.5596 87.1669 33.3516 87.897Z" fill="#EFB081" stroke="#BF8458" stroke-width="1.1779" stroke-miterlimit="10"/>
<path d="M26.9136 69.7776C26.9136 69.7776 30.033 74.7222 32.0905 79.7996C33.617 83.5496 34.6126 87.7973 34.6458 87.8305C35.3759 88.7597 35.7077 88.2951 35.7409 87.565C35.7741 87.0672 35.6414 86.5695 35.4091 86.1381L34.7785 84.1137C33.3516 79.4678 30.929 75.0873 28.0419 71.0386L26.9136 69.7776Z" fill="#B26D46"/>
<path d="M45.962 88.5938C46.6589 88.992 47.1235 89.3239 47.3558 89.4898C47.4553 89.5562 47.5217 89.6226 47.5217 89.6226C47.5217 89.6226 45.2651 94.534 38.7276 96.4256C31.5263 98.5163 24.9556 94.2353 24.9556 94.2353C24.9556 94.2353 25.221 93.8371 25.6856 93.2398C25.752 93.1402 25.8516 93.0739 25.9179 92.9743C28.2741 89.2575 32.4223 86.5363 37.4665 86.5031C41.7474 86.4036 44.2363 87.6314 45.962 88.5938Z" fill="#BF8458"/>
<path d="M46.5261 91.0495C46.5261 91.0495 45.9288 92.3438 44.5018 93.8371C44.3027 94.0362 44.1036 94.2685 43.8713 94.4676C42.9089 95.3305 41.681 96.2265 40.1213 96.9566C39.5904 97.1889 39.0594 97.4212 38.462 97.6203C38.2297 97.6866 37.9974 97.7862 37.7652 97.8526C30.5639 99.9432 23.9932 95.6623 23.9932 95.6623C23.9932 95.6623 24.2586 95.2641 24.7232 94.6667C24.7896 94.5672 24.856 94.5008 24.9555 94.4013C26.7476 92.211 30.8626 87.9301 35.9399 87.8969C37.5329 87.8637 38.9598 88.0297 40.1877 88.2951C40.3536 88.3283 40.4864 88.3615 40.6523 88.3947C40.7187 88.3947 40.7518 88.4279 40.8182 88.4279C41.2164 88.5274 41.5815 88.627 41.9465 88.7597C43.2408 89.158 44.2695 89.6557 44.9996 90.054C45.6965 90.4522 46.1611 90.7841 46.3934 90.95C46.4929 91.0164 46.5261 91.0495 46.5261 91.0495Z" fill="#EFB081"/>
<path d="M23.9932 95.6624C23.9932 95.6624 30.1657 93.6712 36.2386 92.7089C40.7187 91.9788 45.7297 91.7797 45.7297 91.7797C46.9244 91.2487 46.4598 90.8836 45.6633 90.7509C45.0991 90.6514 44.535 90.6845 43.9708 90.7841L41.5815 90.9832C36.1059 91.481 30.6966 92.908 25.5861 94.8659L23.9932 95.6624Z" fill="#B26D46"/>
<path opacity="0.64" d="M44.9664 90.054C45.6633 90.4522 46.1279 90.7841 46.3602 90.95C43.0085 90.8836 38.2629 90.6845 35.0108 90.1535C30.763 89.4566 26.6812 92.7752 24.9224 94.4013C26.7144 92.211 30.8294 87.9633 35.9068 87.8969C40.1545 87.8306 43.2739 89.0916 44.9664 90.054Z" fill="#FFD997"/>
<path opacity="0.78" d="M39.6567 95.4632C39.6899 95.4632 39.6899 95.4632 39.6567 95.4632C40.3868 95.8614 40.9841 96.0937 41.2828 96.1932C41.4155 96.2264 41.4819 96.2596 41.4819 96.2596C41.4819 96.2596 45.4974 91.9787 44.2695 85.5739C42.9089 78.5385 36.4709 75.0541 36.4709 75.0541C36.4709 75.0541 36.2054 75.4523 35.8072 76.1492C35.7408 76.2488 35.7076 76.3483 35.6413 76.4479C34.2475 79.0031 30.5639 84.6447 32.9864 88.8924C35.0107 92.5096 37.8315 94.5008 39.6567 95.4632Z" fill="#BF8458"/>
<path d="M41.1501 94.7663C41.8802 95.1645 42.4775 95.3968 42.7762 95.4964C42.9089 95.5296 42.9753 95.5628 42.9753 95.5628C42.9753 95.5628 46.9907 91.2818 45.7629 84.877C44.4023 77.8417 36.7364 74.4236 36.7364 74.4236C36.7364 74.4236 36.4709 74.8218 36.0727 75.5187C36.0063 75.6183 35.9731 75.7178 35.9068 75.8174C34.513 78.3727 32.0904 83.9146 34.4798 88.1956C36.5041 91.8128 39.3249 93.8039 41.1501 94.7663Z" fill="#EFB081" stroke="#BF8458" stroke-width="1.2749" stroke-miterlimit="10"/>
<path d="M37.002 74.4236C37.002 74.4236 39.5572 80.1647 40.9178 85.8726C41.9466 90.0871 42.3448 94.7995 42.3448 94.8327C42.9753 95.9278 43.4068 95.4964 43.5395 94.6999C43.6391 94.169 43.6059 93.638 43.4399 93.107L43.1081 90.8504C42.3448 85.6735 40.4532 80.6293 37.9975 75.9169L37.002 74.4236Z" fill="#B26D46"/>
<path d="M41.9132 88.7598C41.8137 89.4567 41.88 90.0872 42.1455 90.6182C42.776 91.8128 43.7052 92.9743 44.5017 93.8371C44.3026 94.0363 44.1035 94.2686 43.8712 94.4677C42.9088 95.3305 41.6809 96.2265 40.1212 96.9566C39.5902 97.1889 39.0593 97.4212 38.4619 97.6203C38.8933 96.7907 41.1499 94.7332 41.1499 94.7332C41.1499 94.7332 39.8225 91.6801 40.6522 88.3615C41.1168 86.5031 42.2451 84.5452 44.6676 83.0187C44.6344 83.0519 42.2451 86.2045 41.9132 88.7598Z" fill="#A04A3E"/>
<path d="M80.707 72.9303C80.873 73.2953 81.0389 73.5608 81.1384 73.7267C81.2048 73.8595 81.2712 73.9258 81.2712 73.9258C81.2712 73.9258 81.3044 73.9258 81.4039 73.8926C81.5035 73.8595 81.7026 73.8263 81.9017 73.7599C82.1672 72.8307 82.2336 71.9015 82.2004 70.9723C82.1672 70.375 82.1008 69.7776 82.0013 69.1803C81.769 69.7113 81.5698 70.2754 81.4039 70.8396L80.9393 72.2665C80.8066 72.4325 80.7402 72.6648 80.707 72.9303Z" fill="#B58967"/>
<path opacity="0.5" d="M53.5943 91.5805C53.8266 91.9123 53.9925 92.1446 54.0921 92.2774C54.1253 92.3438 54.1585 92.3438 54.1585 92.3438C54.1585 92.3438 54.2248 92.3106 54.3576 92.2774C54.6562 92.1778 55.2536 91.9787 55.9837 91.6137C57.842 90.7177 60.7292 88.8261 62.8862 85.3416C62.7203 85.3748 62.5544 85.408 62.4548 85.4412C62.3221 85.4744 62.2557 85.4744 62.2557 85.4744C62.2557 85.4744 62.2225 85.4412 62.1893 85.3416C61.8575 85.4412 61.6916 85.0761 61.6916 84.5783C61.6916 84.512 61.6916 84.4788 61.6916 84.4124C61.7248 83.981 61.8575 83.5496 62.0566 83.1514L62.7535 81.1602C63.0854 80.231 63.4504 79.3019 63.8486 78.3727C63.9814 79.1691 64.0809 79.9656 64.0809 80.762C64.0809 82.3217 63.7491 83.8815 62.8862 85.3084L62.8531 85.3416C63.1517 85.2752 63.55 85.1425 64.0146 84.9766C65.8398 84.3129 68.7269 82.8859 71.1494 79.8992C71.3154 79.7001 71.4481 79.501 71.5809 79.3019C71.7468 79.7001 71.9127 80.0651 72.0455 80.3638C72.2777 80.8284 72.51 81.1934 72.6428 81.4257C72.7423 81.5917 72.8087 81.6912 72.8087 81.6912C72.8087 81.6912 72.8751 81.6912 72.9746 81.658C73.2401 81.5917 73.7711 81.4257 74.4348 81.1271C76.1273 80.397 78.7489 78.9036 80.8064 75.9169C81.271 75.2532 81.5697 74.5231 81.802 73.7931C81.5697 73.8594 81.4038 73.9258 81.3042 73.9258C81.2047 73.959 81.1715 73.959 81.1715 73.959C81.1715 73.959 81.1383 73.8926 81.0387 73.7599C80.7401 73.959 80.6073 73.6603 80.6073 73.2621C80.6073 73.1625 80.6073 73.063 80.6073 72.9634C80.6405 72.6979 80.7069 72.4656 80.8396 72.2333L81.3042 70.8064C81.4701 70.2422 81.6692 69.7112 81.9015 69.1471C82.0011 69.7444 82.0675 70.3418 82.1007 70.9391C82.1338 71.8683 82.0675 72.8307 81.802 73.7267C81.9679 73.6603 82.167 73.5939 82.3993 73.5276C83.6604 73.0298 85.6847 71.9347 87.3108 69.7444C89.2355 67.156 88.1404 63.3728 87.4435 61.614C87.4103 61.5476 87.3772 61.4812 87.344 61.3817C87.1449 60.9171 87.0121 60.6184 87.0121 60.6184C87.0121 60.6184 82.7644 61.9458 80.8064 65.4635C80.7401 65.2976 80.6737 65.1316 80.6073 64.9989C80.5741 64.8993 80.5409 64.7998 80.4746 64.7002C80.1759 64.0697 79.9768 63.7047 79.9768 63.7047C79.9768 63.7047 74.7335 65.5299 72.1782 69.9435C72.0123 69.3794 71.8463 68.8484 71.7136 68.417C71.6804 68.3175 71.6472 68.2179 71.614 68.1183C71.3485 67.4214 71.1826 67.0232 71.1826 67.0232C71.1826 67.0232 65.1429 68.7157 62.1893 73.5608C62.0898 73.3285 61.9571 73.0962 61.8575 72.8971C61.7911 72.7975 61.7579 72.6648 61.6916 72.5652C61.3265 71.8683 61.061 71.4369 61.061 71.4369C61.061 71.4369 60.9283 71.5033 60.696 71.6028C60.6628 71.6028 60.6628 71.636 60.6296 71.636C58.9704 72.3993 54.258 77.0121 53.1629 81.7576C52.1673 86.5363 52.5656 90.054 53.5943 91.5805Z" fill="#966A4D"/>
<path d="M80.7071 72.9302C80.7071 73.0298 80.6739 73.1294 80.7071 73.2289C80.7071 73.6271 80.8399 73.8926 81.1385 73.7267C81.2381 73.6603 81.3377 73.5608 81.4704 73.428C81.4704 73.428 81.7359 72.3661 82.2005 70.9391C82.1673 70.3418 82.1009 69.7444 82.0014 69.1471C81.7691 69.6781 81.5699 70.2422 81.404 70.8064L80.9394 72.2334C80.8067 72.4325 80.7403 72.6648 80.7071 72.9302Z" fill="#B58967"/>
<path d="M85.8509 72.5653C85.8841 73.0631 85.9836 73.4613 86.0168 73.6272C86.05 73.6936 86.05 73.76 86.05 73.76C86.05 73.76 90.0986 74.1582 93.4172 71.1715C97.1008 67.8861 96.2711 62.8751 96.2711 62.8751C96.2711 62.8751 95.9393 62.8751 95.3751 62.9415C95.3087 62.9415 95.2092 62.9747 95.1096 62.9747C93.0521 63.2402 88.8708 64.103 87.2447 66.8574C85.8509 69.1804 85.7513 71.3042 85.8509 72.5653Z" fill="#EFB081"/>
<path d="M96.2711 62.8751C96.2711 62.8751 92.9857 65.5963 90.3973 68.6494C88.4725 70.8728 86.78 73.5609 86.78 73.5609C86.05 74.0586 85.9504 73.6604 86.0831 73.1958C86.1827 72.864 86.3818 72.5321 86.6473 72.2998L87.5433 71.0719C89.6008 68.218 92.2888 65.7291 95.2092 63.572L96.2711 62.8751Z" fill="#B26D46"/>
<path opacity="0.64" d="M85.8507 72.5652C85.8839 73.063 85.9835 73.4612 86.0167 73.6272C87.0454 71.7688 88.406 69.0807 89.0697 67.1228C89.9325 64.5675 93.4834 63.406 95.1427 62.9746C93.0852 63.2401 88.9038 64.1029 87.2777 66.8573C85.8507 69.1803 85.7512 71.3042 85.8507 72.5652Z" fill="#FFD997"/>
<path d="M82.366 75.8506C82.3328 75.8838 82.3328 75.8838 82.366 75.8506C81.8682 76.0829 81.47 76.1825 81.2709 76.2488C81.1713 76.282 81.1382 76.282 81.1382 76.282C81.1382 76.282 78.782 73.2953 79.9767 69.1803C81.3041 64.6671 86.5142 62.8087 86.5142 62.8087C86.5142 62.8087 86.6801 63.0742 86.8793 63.572C86.9124 63.6384 86.9456 63.7047 86.9788 63.7711C87.7421 65.5299 88.9699 69.2467 87.1447 71.9015C85.585 74.1913 83.5939 75.3197 82.366 75.8506Z" fill="#EFB081" stroke="#BF8458" stroke-width="0.5889" stroke-miterlimit="10"/>
<path d="M86.5145 62.9082C86.5145 62.9082 84.3906 66.4591 82.9968 70.0763C81.9681 72.7643 81.3044 75.7842 81.3044 75.7842C80.8066 76.4479 80.5743 76.1492 80.5411 75.6182C80.5079 75.2532 80.6075 74.9214 80.7402 74.5895L81.1384 73.1625C82.0676 69.844 83.7269 66.6914 85.7512 63.8042L86.5145 62.9082Z" fill="#B26D46"/>
<path d="M74.6669 83.6492C74.6669 83.6492 74.6669 83.6823 74.6669 83.6492C74.0032 83.981 73.4722 84.1469 73.2067 84.2133C73.1072 84.2465 73.0408 84.2797 73.0408 84.2797C73.0408 84.2797 69.7554 80.3638 71.1492 74.855C72.7089 68.7489 79.5783 66.1272 79.5783 66.1272C79.5783 66.1272 79.8106 66.4922 80.1093 67.1228C80.1425 67.2223 80.2089 67.2887 80.242 67.3882C81.3372 69.678 83.1624 74.6227 80.8394 78.2399C78.8814 81.293 76.3262 82.8859 74.6669 83.6492Z" fill="#EFB081" stroke="#BF8458" stroke-width="1.1779" stroke-miterlimit="10"/>
<path d="M79.6116 66.2268C79.6116 66.2268 76.9236 71.0387 75.2312 75.917C74.0033 79.5342 73.24 83.616 73.24 83.616C72.5763 84.512 72.2776 84.1138 72.2113 83.4169C72.1781 82.9523 72.2445 82.4877 72.4436 82.0231L72.9413 80.0983C74.0365 75.6515 76.094 71.3706 78.6493 67.4547L79.6116 66.2268Z" fill="#B26D46"/>
<path d="M81.4371 74.3572C81.0721 74.7554 80.8729 75.0541 80.7402 75.22C80.707 75.2864 80.6738 75.3195 80.6738 75.3195C80.6738 75.3195 83.3619 78.0739 88.0742 77.9744C93.2843 77.8748 96.4701 73.7266 96.4701 73.7266C96.4701 73.7266 96.2046 73.5275 95.74 73.2288C95.6737 73.1957 95.6073 73.1293 95.5409 73.0961C93.8153 72.0342 90.0653 70.0762 86.78 71.0718C83.9924 71.9346 82.2999 73.3948 81.4371 74.3572Z" fill="#BF8458"/>
<path d="M72.4439 80.7289C72.0125 81.293 71.747 81.7244 71.6474 81.9567C71.581 82.0563 71.5811 82.1227 71.5811 82.1227C71.5811 82.1227 75.4969 85.5408 81.769 84.9434C88.6716 84.2797 92.4216 78.4722 92.4216 78.4722C92.4216 78.4722 92.0565 78.24 91.3928 77.8749C91.2932 77.8085 91.1937 77.7754 91.0941 77.709C88.7048 76.4479 83.4615 74.2245 79.2137 75.8838C75.5633 77.2444 73.5058 79.3351 72.4439 80.7289Z" fill="#BF8458"/>
<path d="M82.6319 74.5564C82.2337 74.9214 82.0014 75.2201 81.9018 75.386C81.8354 75.4524 81.8354 75.4856 81.8354 75.4856C81.8354 75.4856 84.3575 78.3727 89.0699 78.5386C94.28 78.7046 97.7313 74.7223 97.7313 74.7223C97.7313 74.7223 97.4658 74.5232 97.0344 74.1913C96.968 74.1581 96.9017 74.0918 96.8353 74.0586C95.2092 72.8971 91.5588 70.7732 88.2071 71.5697C85.3531 72.2666 83.5611 73.6272 82.6319 74.5564Z" fill="#EFB081"/>
<path d="M97.698 74.7223C97.698 74.7223 93.1847 74.4568 88.9702 74.8218C85.8507 75.0873 82.499 75.8174 82.499 75.8174C81.603 75.6847 81.8353 75.3528 82.3331 75.1205C82.6649 74.9546 83.0631 74.8882 83.4614 74.855L85.0875 74.5895C88.8374 73.9922 92.7201 74.0254 96.4701 74.4568L97.698 74.7223Z" fill="#B26D46"/>
<path opacity="0.64" d="M82.6319 74.5564C82.2337 74.9214 82.0014 75.2201 81.9019 75.386C84.1253 74.7555 87.2115 73.8263 89.269 72.9303C91.9239 71.7356 95.342 73.2621 96.8353 74.0586C95.2092 72.8971 91.5588 70.7732 88.2071 71.5697C85.3531 72.2666 83.5611 73.6272 82.6319 74.5564Z" fill="#FFD997"/>
<path d="M63.2846 85.0098C62.7536 85.5076 62.4549 85.939 62.289 86.1381C62.2226 86.2376 62.1895 86.2708 62.1895 86.2708C62.1895 86.2708 65.6076 90.1867 71.9792 90.3858C79.0145 90.5849 83.6937 85.2421 83.6937 85.2421C83.6937 85.2421 83.3618 84.9434 82.7645 84.512C82.6649 84.4456 82.5985 84.3792 82.499 84.3129C80.2756 82.7532 75.3641 79.866 70.8177 80.9611C66.9682 81.9235 64.5788 83.7487 63.2846 85.0098Z" fill="#BF8458"/>
<path d="M73.4727 81.293C73.0413 81.8571 72.7758 82.2885 72.6762 82.5208C72.6099 82.6204 72.6099 82.6867 72.6099 82.6867C72.6099 82.6867 76.5258 86.1049 82.7978 85.5075C89.7004 84.8438 93.4504 79.0363 93.4504 79.0363C93.4504 79.0363 93.0853 78.804 92.4216 78.439C92.3221 78.3726 92.2225 78.3394 92.1229 78.2731C89.7336 77.012 84.4903 74.7886 80.2425 76.4479C76.5921 77.8085 74.5346 79.8992 73.4727 81.293Z" fill="#EFB081"/>
<path d="M93.4174 79.0032C93.4174 79.0032 87.444 79.4014 81.9021 80.5961C77.8202 81.4921 73.5725 82.9855 73.5725 82.9855C72.3778 82.9523 72.5769 82.4877 73.2075 82.0895C73.6389 81.824 74.1366 81.658 74.6344 81.5585L76.7251 80.928C81.537 79.501 86.6476 78.9037 91.725 78.8373L93.4174 79.0032Z" fill="#B26D46"/>
<path opacity="0.64" d="M73.4727 81.293C73.0413 81.8571 72.7758 82.2885 72.6763 82.5208C75.4639 81.3261 79.3466 79.5673 81.8687 78.0408C85.1208 76.0496 89.9327 77.4434 92.0898 78.2731C89.7004 77.012 84.4571 74.7886 80.2094 76.4479C76.5922 77.8085 74.5347 79.8992 73.4727 81.293Z" fill="#FFD997"/>
<path d="M64.081 84.9434C64.0478 84.9434 64.0478 84.9434 64.081 84.9434C63.55 85.4411 63.2513 85.8726 63.0854 86.0717C63.019 86.1712 62.9858 86.2044 62.9858 86.2044C62.9858 86.2044 66.4039 90.1203 72.7756 90.3194C79.8109 90.5185 84.4901 85.1757 84.4901 85.1757C84.4901 85.1757 84.1582 84.877 83.5609 84.4456C83.4613 84.3792 83.3949 84.3128 83.2954 84.2465C81.0719 82.6867 76.1605 79.7996 71.6141 80.8947C67.7645 81.8571 65.342 83.6823 64.081 84.9434Z" fill="#BF8458"/>
<path d="M63.8817 85.7731C63.8817 85.8063 63.8817 85.8063 63.8817 85.7731C63.3508 86.2709 63.0521 86.7023 62.8862 86.9014C62.8198 87.0009 62.7866 87.0341 62.7866 87.0341C62.7866 87.0341 66.2047 90.95 72.5764 91.1491C79.6117 91.3482 84.2908 86.0054 84.2908 86.0054C84.2908 86.0054 83.959 85.7067 83.3616 85.2753C83.2621 85.2089 83.1957 85.1425 83.0962 85.0762C80.8727 83.5165 75.9613 80.6293 71.4149 81.7244C67.5653 82.6868 65.1428 84.5452 63.8817 85.7731Z" fill="#EFB081"/>
<path d="M84.2906 86.0384C84.2906 86.0384 78.2177 85.6734 72.4766 86.1712C68.2288 86.5362 63.7156 87.5318 63.7156 87.5318C62.4877 87.3327 62.7864 86.9013 63.4833 86.5694C63.9479 86.3371 64.4789 86.2376 65.0098 86.2376L67.2001 85.8725C72.2443 85.0429 77.5208 85.1093 82.6313 85.7066L84.2906 86.0384Z" fill="#B26D46"/>
<path opacity="0.64" d="M63.8818 85.773C63.8818 85.8062 63.8818 85.8062 63.8818 85.773C63.3508 86.2708 63.0522 86.7022 62.8862 86.9013C65.8729 86.0716 70.0543 84.8106 72.8419 83.5827C76.4259 81.9898 81.0719 84.0141 83.0962 85.1093C80.8728 83.5495 75.9613 80.6624 71.4149 81.7575C67.5654 82.6867 65.1428 84.5451 63.8818 85.773Z" fill="#FFD997"/>
<path d="M64.3469 87.897C63.6168 88.1956 63.0526 88.3284 62.7872 88.3947C62.6544 88.4279 62.5881 88.4279 62.5881 88.4279C62.5881 88.4279 59.4022 84.1138 61.327 78.3727C63.4509 72.0675 70.8844 69.7113 70.8844 69.7113C70.8844 69.7113 71.0835 70.1095 71.3822 70.8064C71.4154 70.906 71.4486 71.0055 71.515 71.1051C72.4773 73.594 74.037 78.9037 71.3158 82.5873C68.9929 85.6735 66.1389 87.1669 64.3469 87.897Z" fill="#EFB081" stroke="#BF8458" stroke-width="1.1779" stroke-miterlimit="10"/>
<path d="M70.785 69.7776C70.785 69.7776 67.6656 74.7222 65.6081 79.7996C64.0816 83.5496 63.086 87.7973 63.0528 87.8305C62.3227 88.7597 61.9909 88.2951 61.9577 87.565C61.9245 87.0672 62.0572 86.5695 62.2895 86.1381L62.9201 84.1137C64.347 79.4678 66.7696 75.0873 69.6567 71.0386L70.785 69.7776Z" fill="#B26D46"/>
<path d="M51.736 88.5938C51.0391 88.992 50.5745 89.3239 50.3422 89.4898C50.2426 89.5562 50.1763 89.6226 50.1763 89.6226C50.1763 89.6226 52.4329 94.534 58.9704 96.4256C66.1717 98.5163 72.7424 94.2353 72.7424 94.2353C72.7424 94.2353 72.4769 93.8371 72.0123 93.2398C71.946 93.1402 71.8464 93.0739 71.78 92.9743C69.4239 89.2575 65.2757 86.5363 60.2315 86.5031C55.9505 86.4036 53.4616 87.6314 51.736 88.5938Z" fill="#BF8458"/>
<path d="M51.1719 91.0495C51.1719 91.0495 51.7692 92.3438 53.1962 93.8371C53.3953 94.0362 53.5944 94.2685 53.8267 94.4676C54.7891 95.3305 56.017 96.2265 57.5767 96.9566C58.1076 97.1889 58.6386 97.4212 59.236 97.6203C59.4683 97.6866 59.7006 97.7862 59.9329 97.8526C67.1341 99.9432 73.7048 95.6623 73.7048 95.6623C73.7048 95.6623 73.4394 95.2641 72.9748 94.6667C72.9084 94.5672 72.842 94.5008 72.7425 94.4013C70.9504 92.211 66.8354 87.9301 61.7581 87.8969C60.1652 87.8637 58.7382 88.0297 57.5103 88.2951C57.3444 88.3283 57.2116 88.3615 57.0457 88.3947C56.9793 88.3947 56.9462 88.4279 56.8798 88.4279C56.4816 88.5274 56.1165 88.627 55.7515 88.7597C54.4572 89.158 53.4285 89.6557 52.6984 90.054C52.0015 90.4522 51.5369 90.7841 51.3046 90.95C51.2051 91.0164 51.1719 91.0495 51.1719 91.0495Z" fill="#EFB081"/>
<path d="M73.7051 95.6624C73.7051 95.6624 67.5326 93.6712 61.4596 92.7089C56.9796 91.9788 51.9686 91.7797 51.9686 91.7797C50.7739 91.2487 51.2385 90.8836 52.035 90.7509C52.5991 90.6514 53.1633 90.6845 53.7274 90.7841L56.1168 90.9832C61.5924 91.481 67.0016 92.908 72.1122 94.8659L73.7051 95.6624Z" fill="#B26D46"/>
<path opacity="0.64" d="M52.7317 90.054C52.0348 90.4522 51.5702 90.7841 51.3379 90.95C54.6896 90.8836 59.4352 90.6845 62.6873 90.1535C66.9351 89.4566 71.0169 92.7752 72.7757 94.4013C70.9837 92.211 66.8687 87.9633 61.7913 87.8969C57.5436 87.8306 54.4241 89.0916 52.7317 90.054Z" fill="#FFD997"/>
<path opacity="0.78" d="M58.0079 95.4632C57.2778 95.8614 56.6804 96.0937 56.3818 96.1932C56.249 96.2264 56.1827 96.2596 56.1827 96.2596C56.1827 96.2596 52.1672 91.9787 53.3951 85.5739C54.7557 78.5385 61.1937 75.0541 61.1937 75.0541C61.1937 75.0541 61.4592 75.4523 61.8574 76.1492C61.9238 76.2488 61.9569 76.3483 62.0233 76.4479C63.4171 79.0031 67.1007 84.6447 64.6782 88.8924C62.687 92.5096 59.8663 94.5008 58.0079 95.4632Z" fill="#BF8458"/>
<path d="M56.5479 94.7663C55.8178 95.1645 55.2205 95.3968 54.9218 95.4964C54.7891 95.5296 54.7227 95.5628 54.7227 95.5628C54.7227 95.5628 50.7073 91.2818 51.9351 84.877C53.2957 77.8417 60.9616 74.4236 60.9616 74.4236C60.9616 74.4236 61.2271 74.8218 61.6253 75.5187C61.6917 75.6183 61.7248 75.7178 61.7912 75.8174C63.185 78.3727 65.6075 83.9146 63.2182 88.1956C61.1939 91.8128 58.3731 93.8039 56.5479 94.7663Z" fill="#EFB081" stroke="#BF8458" stroke-width="1.2749" stroke-miterlimit="10"/>
<path d="M60.6961 74.4236C60.6961 74.4236 58.1408 80.1647 56.7802 85.8726C55.7514 90.0871 55.3532 94.7995 55.3532 94.8327C54.7227 95.9278 54.2913 95.4964 54.1585 94.6999C54.059 94.169 54.0922 93.638 54.2581 93.107L54.59 90.8504C55.3532 85.6735 57.2448 80.6293 59.7005 75.9169L60.6961 74.4236Z" fill="#B26D46"/>
<path d="M55.7847 88.7598C55.8842 89.4567 55.8179 90.0872 55.5524 90.6182C54.9218 91.8128 53.9927 92.9743 53.1962 93.8371C53.3953 94.0363 53.5944 94.2686 53.8267 94.4677C54.7891 95.3305 56.017 96.2265 57.5767 96.9566C58.1077 97.1889 58.6386 97.4212 59.236 97.6203C58.8046 96.7907 56.5479 94.7332 56.5479 94.7332C56.5479 94.7332 57.8754 91.6801 57.0457 88.3615C56.5811 86.5031 55.4528 84.5452 53.0303 83.0187C53.0635 83.0519 55.4528 86.2045 55.7847 88.7598Z" fill="#A04A3E"/>
<path d="M56.6144 89.5562C56.6144 89.8217 56.6144 90.0872 56.5812 90.3526C56.4816 91.3482 56.1829 92.2774 55.7515 93.107C54.4573 95.596 51.8688 97.2884 48.8821 97.2884C45.8954 97.2884 43.307 95.596 42.0127 93.1402C41.9132 92.9411 41.8136 92.7088 41.7141 92.4765C41.6145 92.211 41.5149 91.9455 41.4486 91.6801C41.2495 91.0164 41.1499 90.2863 41.1499 89.5562C41.1499 87.8305 41.7141 86.2376 42.6764 84.9434C44.1034 83.0518 46.36 81.824 48.8821 81.824C50.8401 81.824 52.6653 82.5541 54.0259 83.7819C54.1918 83.9478 54.3909 84.1138 54.5568 84.2797C55.8179 85.6403 56.6144 87.4987 56.6144 89.5562Z" fill="#FFBD76"/>
<path d="M56.3495 94.4012C55.9513 96.3592 54.3584 97.753 52.5332 97.587C51.3053 97.4875 50.2766 97.3547 49.3142 97.3216C49.2478 97.3216 49.2146 97.3216 49.1483 97.3216C48.7168 97.3216 48.3186 97.3216 47.8872 97.3879C47.8872 97.3879 48.5509 95.5627 51.0398 95.2309C53.5287 94.899 54.5243 92.742 54.5243 90.9168C54.5243 89.0916 54.6902 87.8637 54.8562 87.4323C54.8562 87.3991 54.8893 87.3991 54.8893 87.3991C55.0553 87.3327 55.5862 88.2619 55.9845 89.5893C56.4159 90.9168 56.6814 92.7088 56.3495 94.4012Z" fill="#EFB081" stroke="#BF8458" stroke-width="1.0824" stroke-miterlimit="10"/>
<path opacity="0.56" d="M56.3162 94.3018C55.918 96.1933 54.3915 97.5208 52.6658 97.3548C51.4712 97.2553 50.5088 97.1225 49.5796 97.1225C49.5796 97.1225 50.6083 96.5252 52.0353 96.127C54.2587 95.4964 54.8893 94.5341 55.2211 93.1071C55.4866 91.9788 54.8229 89.2244 54.9556 87.5651C55.1216 87.4987 55.6194 88.3947 56.0176 89.6558C56.3494 90.9832 56.6481 92.7089 56.3162 94.3018Z" fill="#FFD997"/>
<path d="M48.4842 96.5583C48.4842 96.6911 48.3846 96.7575 48.2519 96.7906C47.6877 96.9566 46.2939 96.7243 45.232 97.1225C43.8714 97.6203 41.8803 96.3261 41.6812 93.1071C41.6812 93.1071 42.6767 95.4632 44.9333 95.596C47.024 95.6955 48.5506 95.961 48.4842 96.5583Z" fill="#BF8458"/>
<path d="M48.617 97.222C48.617 97.3548 48.5174 97.4212 48.3847 97.4543C47.8205 97.6203 46.4267 97.388 45.3648 97.7862C44.0042 98.284 42.0131 96.9897 41.814 93.7708C41.814 93.7708 43.0086 96.1269 45.0661 96.2597C47.1568 96.3592 48.6834 96.6247 48.617 97.222Z" fill="#EFB081" stroke="#BF8458" stroke-width="0.4606" stroke-miterlimit="10"/>
<path opacity="0.32" d="M48.4843 97.3215C47.9865 97.4875 46.3605 97.2884 45.3649 97.6534C44.137 98.0848 42.1127 97.0561 41.9468 94.1357C41.9468 94.1357 42.5441 96.2264 44.0043 96.5915C45.4644 96.9565 46.9246 96.3924 48.0529 97.0893C48.0529 97.0561 48.3848 97.2552 48.4843 97.3215Z" fill="#FFD997"/>
<path opacity="0.65" d="M48.5505 91.3814C51.3547 91.3814 53.6279 89.3459 53.6279 86.835C53.6279 84.3241 51.3547 82.2886 48.5505 82.2886C45.7464 82.2886 43.4731 84.3241 43.4731 86.835C43.4731 89.3459 45.7464 91.3814 48.5505 91.3814Z" fill="#FFD997"/>
</svg>
