<svg width="21" height="20" viewBox="0 0 21 20" fill="none" xmlns="http://www.w3.org/2000/svg">
<path d="M18.8958 6.94488L18.6633 7.22751L17.1091 9.11729C16.6308 9.69895 15.9692 10.0455 15.2423 10.0455C14.3839 10.0455 13.6077 9.54804 13.1389 8.78514C13.1389 8.78514 13.1389 8.78514 13.1389 8.78513L10.6252 4.69452L10.4234 4.3985L10.6497 4.11052C10.7798 3.94502 10.87 3.70732 10.87 3.43182C10.87 2.82254 10.4786 2.5 10.1924 2.5C9.90617 2.5 9.51481 2.82254 9.51481 3.43182C9.51481 3.71709 9.61058 3.96118 9.74615 4.1259L9.97397 4.40272L9.7849 4.70732L7.2466 8.79675C7.24659 8.79676 7.24659 8.79677 7.24658 8.79677C6.77712 9.5532 6.00346 10.0454 5.14835 10.0454C4.42569 10.0454 3.74787 9.68871 3.27478 9.10906L1.73027 7.2169L1.52751 6.9685L1.51607 7.18729C1.51445 7.21843 1.51655 7.24559 1.52132 7.26894C1.52133 7.26899 1.52133 7.26903 1.52134 7.26908L2.75496 13.2917L2.75497 13.2917C2.76727 13.3518 2.79243 13.3869 2.80839 13.4021C2.81209 13.4056 2.81491 13.4078 2.81683 13.4091H10.2111H10.214L17.6052 13.3637C17.6072 13.3624 17.6101 13.3601 17.614 13.3564C17.63 13.3412 17.655 13.3062 17.6673 13.2465C17.6673 13.2465 17.6673 13.2464 17.6673 13.2464L18.9008 7.247L18.8958 6.94488ZM18.8958 6.94488L18.906 7.16744C18.9074 7.19872 18.9053 7.22481 18.9009 7.24648L18.8958 6.94488ZM19.2081 6.68513L18.8979 6.81838L18.6273 6.55293C18.4623 6.39117 18.3372 6.12148 18.3372 5.79545C18.3372 5.18618 18.7286 4.86364 19.0148 4.86364C19.301 4.86364 19.6924 5.18618 19.6924 5.79545C19.6924 6.25678 19.4492 6.58158 19.2081 6.68513ZM17.6023 13.3654C17.6022 13.3654 17.6025 13.3652 17.6032 13.365L17.6023 13.3654ZM2.81988 13.4108C2.81989 13.4109 2.81961 13.4108 2.81907 13.4105L2.81988 13.4108ZM1.76375 6.54749L1.5006 6.8111L1.19562 6.69427C0.949599 6.60002 0.692383 6.27188 0.692383 5.79545C0.692383 5.18618 1.08374 4.86364 1.36995 4.86364C1.65617 4.86364 2.04752 5.18618 2.04752 5.79545C2.04752 6.11785 1.92555 6.3854 1.76375 6.54749ZM17.4649 15.8617C17.4649 15.8616 17.4656 15.8618 17.4669 15.8626C17.4655 15.8622 17.4648 15.8618 17.4649 15.8617ZM17.4686 15.8636C17.4721 15.866 17.4781 15.8711 17.4862 15.8809C17.51 15.9098 17.5366 15.9663 17.5366 16.0455V17.6818C17.5366 17.7609 17.51 17.8175 17.4862 17.8463C17.4781 17.8562 17.4721 17.8612 17.4686 17.8636H2.97855C2.975 17.8612 2.969 17.8562 2.96089 17.8463C2.93716 17.8175 2.91048 17.7609 2.91048 17.6818V16.0455C2.91048 15.9663 2.93716 15.9098 2.96089 15.8809C2.969 15.8711 2.975 15.866 2.97855 15.8636H17.4686ZM2.98224 15.8617C2.98226 15.8618 2.9816 15.8622 2.98023 15.8626C2.98154 15.8618 2.98223 15.8616 2.98224 15.8617ZM2.98224 17.8656C2.98223 17.8657 2.98154 17.8655 2.98023 17.8647C2.9816 17.8651 2.98226 17.8655 2.98224 17.8656ZM17.4649 17.8656C17.4648 17.8655 17.4655 17.8651 17.4669 17.8647C17.4656 17.8654 17.4649 17.8656 17.4649 17.8656Z" stroke="#636E7E"/>
</svg>
