<svg width="21" height="20" viewBox="0 0 21 20" fill="none" xmlns="http://www.w3.org/2000/svg">
<g clip-path="url(#clip0)">
<path d="M3.85449 3.33343C3.87342 2.7626 4.11808 2.22261 4.53478 1.83201C4.95147 1.4414 5.50613 1.23212 6.07699 1.25009C9.36366 1.25009 10.5212 5.41676 10.5212 5.41676H6.07699C5.50613 5.43474 4.95147 5.22545 4.53478 4.83485C4.11808 4.44425 3.87342 3.90425 3.85449 3.33343V3.33343Z" stroke="#636E7E" stroke-miterlimit="10" stroke-linecap="square"/>
<path d="M14.9657 5.41676H10.5215C10.5215 5.41676 11.679 1.25009 14.9657 1.25009C15.5365 1.23212 16.0912 1.4414 16.5079 1.83201C16.9246 2.22261 17.1692 2.7626 17.1882 3.33343C17.1692 3.90425 16.9246 4.44425 16.5079 4.83485C16.0912 5.22545 15.5365 5.43474 14.9657 5.41676Z" stroke="#636E7E" stroke-miterlimit="10" stroke-linecap="square"/>
<path d="M18.0215 11.25V17.9167C18.0215 18.3587 17.8459 18.7826 17.5333 19.0952C17.2208 19.4077 16.7968 19.5833 16.3548 19.5833H4.68815C4.24612 19.5833 3.8222 19.4077 3.50964 19.0952C3.19708 18.7826 3.02148 18.3587 3.02148 17.9167V11.25" stroke="#636E7E" stroke-miterlimit="10" stroke-linecap="square"/>
<path d="M19.6878 5.41699H1.35449V8.75033H19.6878V5.41699Z" stroke="#636E7E" stroke-miterlimit="10" stroke-linecap="square"/>
<path d="M10.5215 5.41699V19.5837" stroke="#636E7E" stroke-miterlimit="10" stroke-linecap="square"/>
</g>
<defs>
<clipPath id="clip0">
<rect width="20" height="20" fill="white" transform="translate(0.104492)"/>
</clipPath>
</defs>
</svg>
