<svg height="480pt" viewBox="0 -8 480 480" width="480pt" xmlns="http://www.w3.org/2000/svg"><path d="m240 112.097656c-53.363281.25-106.679688-3.277344-159.542969-10.558594-27.238281-3.617187-54.144531-9.410156-80.457031-17.328124l4.753906-15.273438c25.492188 7.660156 51.558594 13.265625 77.949219 16.761719 52.121094 7.175781 104.683594 10.652343 157.296875 10.398437 52.609375.25 105.167969-3.226562 157.289062-10.398437 26.390626-3.511719 52.460938-9.128907 77.957032-16.800781l4.753906 15.3125c-26.316406 7.917968-53.222656 13.714843-80.464844 17.335937-52.863281 7.273437-106.175781 10.800781-159.535156 10.550781zm0 0" fill="#4d4d4d"/><path d="m144 312.097656c0 50.5625-55.121094 129.28125-57.441406 132.640625-1.515625 2.109375-3.957032 3.363281-6.558594 3.363281s-5.042969-1.253906-6.558594-3.363281c-2.320312-3.359375-57.441406-82.078125-57.441406-132.640625 0-53.839844 28.078125-96 64-96s64 42.160156 64 96zm0 0" fill="#009245"/><path d="m464 312.097656c0 50.5625-55.121094 129.28125-57.441406 132.640625-1.515625 2.109375-3.957032 3.363281-6.558594 3.363281s-5.042969-1.253906-6.558594-3.363281c-2.320312-3.359375-57.441406-82.078125-57.441406-132.640625 0-53.839844 28.078125-96 64-96s64 42.160156 64 96zm0 0" fill="#ffcc5c"/><path d="m304 328.097656c0 50.5625-55.121094 129.28125-57.441406 132.640625-1.515625 2.109375-3.957032 3.363281-6.558594 3.363281s-5.042969-1.253906-6.558594-3.363281c-2.320312-3.359375-57.441406-82.078125-57.441406-132.640625 0-53.839844 28.078125-96 64-96s64 42.160156 64 96zm0 0" fill="#c1272d"/><g fill="#4d4d4d"><path d="m232 168.097656h16c13.253906 0 24 10.746094 24 24v32c0 13.253906-10.746094 24-24 24h-16c-13.253906 0-24-10.746094-24-24v-32c0-13.253906 10.746094-24 24-24zm0 0"/><path d="m232 104.097656h16v72h-16zm0 0"/><path d="m392 152.097656h16c13.253906 0 24 10.746094 24 24v32c0 13.253906-10.746094 24-24 24h-16c-13.253906 0-24-10.746094-24-24v-32c0-13.253906 10.746094-24 24-24zm0 0"/><path d="m392 88.097656h16v72h-16zm0 0"/><path d="m72 152.097656h16c13.253906 0 24 10.746094 24 24v32c0 13.253906-10.746094 24-24 24h-16c-13.253906 0-24-10.746094-24-24v-32c0-13.253906 10.746094-24 24-24zm0 0"/><path d="m72 88.097656h16v72h-16zm0 0"/></g><path d="m323.3125 24.097656 10.34375-10.34375c2.078125-2.007812 2.914062-4.984375 2.179688-7.78125-.730469-2.796875-2.914063-4.980468-5.710938-5.710937-2.796875-.734375-5.773438.101562-7.78125 2.179687l-10.34375 10.34375-10.34375-10.34375c-3.140625-3.03125-8.128906-2.988281-11.214844.097656-3.085937 3.085938-3.128906 8.078126-.097656 11.214844l10.34375 10.34375-10.34375 10.34375c-2.078125 2.007813-2.914062 4.984375-2.179688 7.78125.730469 2.796875 2.914063 4.980469 5.710938 5.714844 2.796875.730469 5.773438-.105469 7.78125-2.183594l10.34375-10.34375 10.34375 10.34375c3.140625 3.03125 8.128906 2.988282 11.214844-.097656 3.085937-3.085938 3.128906-8.074219.097656-11.214844zm0 0" fill="#ffe184"/><path d="m168 48.097656h-8v-8c0-4.417968-3.582031-8-8-8s-8 3.582032-8 8v8h-8c-4.417969 0-8 3.582032-8 8 0 4.417969 3.582031 8 8 8h8v8c0 4.417969 3.582031 8 8 8s8-3.582031 8-8v-8h8c4.417969 0 8-3.582031 8-8 0-4.417968-3.582031-8-8-8zm0 0" fill="#ffe184"/></svg>