<svg width="460" height="376" viewBox="0 0 460 376" fill="none" xmlns="http://www.w3.org/2000/svg">
<path d="M207.555 252.005L217.822 253.716L131.583 255.256L155.367 253.716L207.555 252.005Z" fill="#FFFFFE"/>
<path d="M131.583 255.256L217.822 253.716L341.876 260.047L74.6038 263.127L131.583 255.256Z" fill="white"/>
<path d="M96.3346 256.111L108.997 255.598L131.583 255.256L74.6038 263.127L96.3346 256.111Z" fill="#F0EFEF"/>
<path d="M26.522 309.668L34.9063 266.891L50.3061 270.998L42.0929 314.973L26.522 309.668Z" fill="#3BA4CD"/>
<path d="M0 329.517L9.5821 287.938L23.0997 283.146L12.8332 330.544L0 329.517Z" fill="#77C3DC"/>
<path d="M12.8333 330.544L23.0998 283.146L29.773 285.2L20.1909 334.821L12.8333 330.544Z" fill="#ECE5E3"/>
<path d="M20.1909 334.821L29.773 285.2L43.9751 289.477L37.8151 336.532L20.1909 334.821Z" fill="#92CFE4"/>
<path d="M454.123 269.971L485.949 281.778L408.779 314.802L454.123 269.971Z" fill="white"/>
<path d="M495.703 289.82L408.779 314.802L482.958 283.331L495.703 289.82Z" fill="white"/>
<path d="M485.949 281.778L487.832 282.291L408.779 314.802L485.949 281.778Z" fill="white"/>
<path d="M442.317 259.191L454.123 269.971L408.779 314.802L426.232 258.165L442.317 259.191Z" fill="white"/>
<path d="M470.378 313.604L408.779 314.802L495.703 289.82L474.656 298.718L470.378 313.604Z" fill="white"/>
<path d="M49.6215 348.51L54.2414 304.193L83.501 310.353L80.5922 359.119L49.6215 348.51Z" fill="#77C3DD"/>
<path d="M34.906 266.891L62.4546 263.469L278.736 314.973L50.3058 270.998L34.906 266.891Z" fill="white"/>
<path d="M74.6038 263.127L341.876 260.047L278.737 314.973L74.6038 263.127Z" fill="white"/>
<path d="M426.232 258.165L278.736 314.973L341.876 260.047L426.232 258.165Z" fill="white"/>
<path d="M389.957 303.68L278.736 314.973L426.232 258.165L408.779 314.802L389.957 303.68Z" fill="white"/>
<path d="M23.0997 283.147L50.3061 270.998L278.737 314.973L23.0997 283.147Z" fill="white"/>
<path d="M62.4548 263.469L74.6036 263.127L278.737 314.973L62.4548 263.469Z" fill="white"/>
<path d="M43.975 289.478L29.773 285.2L23.0997 283.146L278.737 314.973L275.657 315.657L43.975 289.478Z" fill="white"/>
<path d="M272.748 315.828L54.2415 304.193L43.975 289.477L275.657 315.657L272.748 315.828Z" fill="#FFFFFE"/>
<path d="M118.921 317.882L54.2415 304.193L272.748 315.828L176.584 323.357L118.921 317.882Z" fill="#C8E9F2"/>
<path d="M286.436 363.91L278.736 314.973L389.957 303.679L392.866 362.883L286.436 363.91Z" fill="#8BCADF"/>
<path d="M283.699 363.91L275.657 315.657L278.737 314.973L286.436 363.91H283.699Z" fill="#166C9D"/>
<path d="M280.79 364.081L272.747 315.828L275.656 315.657L283.698 363.91L280.79 364.081Z" fill="#166C9D"/>
<path d="M175.9 375.887L176.585 323.357L201.738 312.748L205.673 364.765L175.9 375.887Z" fill="#2B8AB2"/>
<path d="M205.673 364.765L201.737 312.748L272.748 315.828L280.79 364.081L205.673 364.765Z" fill="#41A9C9"/>
<path d="M93.0831 367.846L95.6498 312.92L118.921 317.882L116.867 370.412L93.0831 367.846Z" fill="white"/>
<path d="M116.867 370.412L118.921 317.881L176.584 323.357L175.9 375.887L116.867 370.412Z" fill="#7AC3D9"/>
<path d="M80.5924 359.119L83.5013 310.353L95.65 312.92L93.0834 367.846L80.5924 359.119Z" fill="#2C8AB2"/>
<path d="M37.8153 336.532L43.9752 289.477L54.2418 304.193L49.6218 348.51L37.8153 336.532Z" fill="#E4F4F9"/>
<path d="M414.939 366.648L408.779 314.802L470.378 313.604L476.538 368.359L414.939 366.648Z" fill="#41A7C8"/>
<path d="M392.866 362.883L389.957 303.679L408.779 314.802L414.939 366.648L392.866 362.883Z" fill="#166C9D"/>
<path d="M107.114 299.402C134.52 299.402 156.736 292.661 156.736 284.344C156.736 276.028 134.52 269.287 107.114 269.287C79.709 269.287 57.4927 276.028 57.4927 284.344C57.4927 292.661 79.709 299.402 107.114 299.402Z" fill="url(#paint0_radial)"/>
<path d="M455.663 288.451C455.663 294.44 433.419 299.231 406.042 299.231C378.664 299.231 356.42 294.44 356.42 288.451C356.42 282.462 378.664 277.671 406.042 277.671C433.419 277.671 455.663 282.462 455.663 288.451Z" fill="url(#paint1_radial)"/>
<path d="M392.524 291.873C392.524 310.695 329.385 325.753 251.359 325.753C173.333 325.753 110.194 310.524 110.194 291.873C110.194 273.051 173.333 257.994 251.359 257.994C329.385 257.823 392.524 273.051 392.524 291.873Z" fill="url(#paint2_radial)"/>
<path d="M336.854 281.156L390.331 277.802L388.841 269.23L350.643 264.572L331.637 269.044L336.854 281.156Z" fill="#A6A6A6"/>
<path d="M340.953 273.144L338.904 247.43L386.791 247.057L384.369 273.144H340.953Z" fill="#A81C12"/>
<path d="M386.791 247.057L338.904 247.43L338.717 225.629L386.978 226.188L386.791 247.057Z" fill="#A81C12"/>
<path d="M339.463 225.629L386.232 226.188H386.978L338.717 225.629H339.463Z" fill="#A81C12"/>
<path d="M340.953 275.38V230.66L386.046 231.033L385.301 275.193L340.953 275.38Z" fill="#897077"/>
<path d="M340.953 275.38V230.66L386.046 231.033L385.301 275.193L340.953 275.38Z" fill="url(#paint3_linear)"/>
<path d="M339.09 227.678L341.699 226.933L383.065 227.492L387.909 228.237L339.09 227.678Z" fill="#B4B4B2"/>
<path d="M339.09 248.734V227.678L387.909 228.237L387.537 248.92L339.09 248.734Z" fill="#8B7C83"/>
<path d="M339.09 248.734V227.678L387.909 228.237L387.537 248.92L339.09 248.734Z" fill="url(#paint4_linear)"/>
<path d="M361.077 225.256V216.312H364.804L364.618 225.256H361.077Z" fill="#8A1405"/>
<path d="M364.617 225.256L364.804 216.312V217.617V224.511L364.617 225.256Z" fill="#AA1F14"/>
<path d="M364.99 225.628L364.617 225.256L364.804 224.51L364.99 224.697V225.628Z" fill="#AA1F14"/>
<path d="M364.804 217.617L364.99 225.443H361.264L361.077 217.43L364.804 217.617Z" fill="#8A1405"/>
<path d="M361.264 225.629L361.077 225.256H364.618L364.99 225.629H361.264Z" fill="#8A1405"/>
<path d="M364.804 216.312L364.99 224.697V225.443L364.804 217.617V216.312Z" fill="#AA1F14"/>
<path d="M361.264 224.698H364.99V225.629L361.264 224.698Z" fill="#8A1505"/>
<path d="M361.264 225.629V224.698L364.99 225.629H361.264Z" fill="#8A1505"/>
<path d="M364.99 224.7V225.445H361.264L364.99 224.7Z" fill="#8A1405"/>
<path d="M364.99 224.697L361.264 225.442V224.51L364.99 224.697Z" fill="#8A1405"/>
<path d="M362.568 224.51L362.941 225.442L362.568 224.51Z" fill="#8A1405"/>
<path d="M362.568 224.51L362.941 225.442L362.568 224.51Z" fill="#8A1405"/>
<path d="M382.506 224.697L380.083 217.43L380.642 216.126L383.81 225.629L382.506 224.697Z" fill="#8A1605"/>
<path d="M362.94 224.698H382.505L383.81 225.629H362.94V224.698Z" fill="#8A1605"/>
<path d="M380.083 217.431L362.941 225.443L362.568 224.511L380.642 216.126L380.083 217.431Z" fill="#8A1605"/>
<path d="M383.81 225.629L380.642 216.126H380.829L384.183 225.629H383.81Z" fill="#8A1405"/>
<path d="M363.313 225.629L342.072 225.07L343.376 224.138L363.313 224.697V225.629Z" fill="#8A1505"/>
<path d="M345.426 215.567L363.686 224.511L363.127 225.442L345.985 216.871L345.426 215.567Z" fill="#8A1605"/>
<path d="M342.074 225.07L345.428 215.567L345.987 216.871L343.379 224.138L342.074 225.07Z" fill="#8A1605"/>
<path d="M363.313 225.629L341.885 225.07H342.071L363.313 225.629Z" fill="#8A1405"/>
<path d="M345.239 215.567L363.686 224.511L345.426 215.567H345.239Z" fill="#6E0300"/>
<path d="M341.885 225.07L345.239 215.567H345.426L342.072 225.07H341.885Z" fill="#AA1F14"/>
<path d="M365.363 215.381L364.99 224.511H361.264V215.194L365.363 215.381Z" fill="#AA1F14"/>
<path d="M361.264 224.511V216.685H365.363V224.511H361.264Z" fill="#8A1C08"/>
<path d="M358.842 276.684L358.469 268.858V244.821L359.028 249.107L358.842 276.684Z" fill="#AA1F14"/>
<path d="M358.841 276.684L359.028 249.107L368.158 249.48L367.785 276.498L358.841 276.684Z" fill="#8A1405"/>
<path d="M359.028 249.107L359.214 226.001L368.344 226.188L368.158 249.479L359.028 249.107Z" fill="#8A1505"/>
<path d="M358.469 244.821L358.655 225.629L359.214 226.002L359.028 249.107L358.469 244.821Z" fill="#AA1F14"/>
<path d="M359.217 226.002L358.658 225.629L366.297 225.815L368.347 226.188L359.217 226.002Z" fill="#8A1405"/>
<path d="M140.087 275.566L138.783 258.982L169.528 258.796L168.037 275.566H140.087Z" fill="#A81C12"/>
<path d="M169.528 258.797L138.783 258.983V245.008L169.714 245.381L169.528 258.797Z" fill="#A81C12"/>
<path d="M139.155 245.008L169.341 245.381H169.714L138.783 245.008H139.155Z" fill="#A81C12"/>
<path d="M140.087 277.057V248.176L169.155 248.548L168.782 276.871L140.087 277.057Z" fill="#897077"/>
<path d="M140.087 277.057V248.176L169.155 248.548L168.782 276.871L140.087 277.057Z" fill="url(#paint5_linear)"/>
<path d="M138.969 246.312L140.646 245.939L167.292 246.126L170.273 246.685L138.969 246.312Z" fill="#B4B4B2"/>
<path d="M138.969 259.916V246.313L170.273 246.686L170.087 260.102L138.969 259.916Z" fill="#8B7C83"/>
<path d="M138.969 259.916V246.313L170.273 246.686L170.087 260.102L138.969 259.916Z" fill="url(#paint6_linear)"/>
<path d="M153.13 244.822V239.046H155.553L155.366 244.822H153.13Z" fill="#8A1405"/>
<path d="M155.366 244.821L155.553 239.045V239.79L155.366 244.262V244.821Z" fill="#AA1F14"/>
<path d="M155.553 245.008L155.366 244.822V244.263L155.739 244.449L155.553 245.008Z" fill="#AA1F14"/>
<path d="M155.553 239.79V244.821H153.13V239.79H155.553Z" fill="#8A1405"/>
<path d="M153.13 245.008V244.821H155.366L155.553 245.008H153.13Z" fill="#8A1405"/>
<path d="M155.553 239.045L155.739 244.262L155.553 244.821V239.79V239.045Z" fill="#AA1F14"/>
<path d="M153.13 244.449H155.739L155.553 245.008L153.13 244.449Z" fill="#8A1505"/>
<path d="M153.13 245.008V244.449L155.553 245.008H153.13Z" fill="#8A1505"/>
<path d="M155.739 244.262L155.553 244.821H153.13L155.739 244.262Z" fill="#8A1405"/>
<path d="M155.739 244.262L153.13 244.821V244.262H155.739Z" fill="#8A1405"/>
<path d="M154.062 244.262L154.248 244.821L154.062 244.262Z" fill="#8A1405"/>
<path d="M154.062 244.262L154.248 244.821L154.062 244.262Z" fill="#8A1405"/>
<path d="M166.919 244.448L165.242 239.79L165.615 238.858L167.664 245.007L166.919 244.448Z" fill="#8A1605"/>
<path d="M154.248 244.448H166.919L167.664 245.007H154.248V244.448Z" fill="#8A1605"/>
<path d="M165.242 239.79L154.248 244.821L154.062 244.262L165.615 238.858L165.242 239.79Z" fill="#8A1605"/>
<path d="M167.664 245.007L165.615 238.858H165.801L167.851 245.007H167.664Z" fill="#8A1405"/>
<path d="M154.434 245.009L140.832 244.636L141.764 244.077L154.434 244.45V245.009Z" fill="#8A1505"/>
<path d="M143.068 238.487L154.807 244.263L154.435 244.822L143.441 239.418L143.068 238.487Z" fill="#8A1605"/>
<path d="M140.835 244.636L143.071 238.487L143.444 239.418L141.767 244.077L140.835 244.636Z" fill="#8A1605"/>
<path d="M154.621 245.008L140.646 244.635H140.832L154.435 245.008H154.621Z" fill="#8A1405"/>
<path d="M142.882 238.487L154.807 244.263L143.068 238.487H142.882Z" fill="#6E0300"/>
<path d="M140.646 244.636L142.882 238.487H143.068L140.832 244.636H140.646Z" fill="#AA1F14"/>
<path d="M155.925 238.3L155.553 244.262H153.13L153.317 238.3H155.925Z" fill="#AA1F14"/>
<path d="M153.13 244.262L153.317 239.231H155.925V244.262H153.13Z" fill="#8A1C08"/>
<path d="M151.64 277.803L151.453 272.772V257.306L151.826 260.101L151.64 277.803Z" fill="#AA1F14"/>
<path d="M151.64 277.803L151.826 260.101L157.602 260.288L157.416 277.803H151.64Z" fill="#8A1405"/>
<path d="M151.826 260.101V245.195L157.789 245.381L157.602 260.288L151.826 260.101Z" fill="#8A1505"/>
<path d="M151.453 257.306V245.008L151.826 245.195V260.101L151.453 257.306Z" fill="#AA1F14"/>
<path d="M151.826 245.195L151.453 245.008H156.484L157.789 245.381L151.826 245.195Z" fill="#8A1405"/>
<path d="M364.497 282.228L359.596 290.193L342.034 292.439L309.973 296.931L288.94 299.79L269.54 298.769L246.26 299.382L217.671 298.157L177.034 296.727L144.565 292.439L122.918 286.108L127.207 279.982L134.354 274.264L172.949 271.201L210.115 268.751L239.93 266.504L296.087 272.018L313.649 273.447L352.653 278.757L364.497 282.228Z" fill="url(#paint7_linear)"/>
<path d="M250.549 83.7375L228.086 95.7858L237.888 91.2933L250.549 83.7375Z" fill="#010900"/>
<path d="M245.647 149.084L239.725 152.76L255.245 150.922L245.647 149.084Z" fill="#010900"/>
<path d="M299.763 188.292L298.946 188.496L301.396 191.968L299.763 188.292Z" fill="#010900"/>
<path d="M258.513 113.961L276.075 118.862L274.849 109.264L276.279 108.856L262.189 107.63H255.45L258.513 113.961Z" fill="#010900"/>
<path d="M235.437 188.497L212.77 186.455V188.292L234.008 189.109L235.437 188.497Z" fill="#010900"/>
<path d="M197.25 157.457L198.68 156.232L195.412 156.64L195.617 158.887L197.25 157.457Z" fill="#010900"/>
<path d="M238.705 78.4285L239.522 77.8159H237.071L238.705 78.4285Z" fill="#010900"/>
<path d="M271.786 76.386L271.99 76.5903L280.363 76.386L277.096 73.9355L271.786 76.386Z" fill="#010900"/>
<path d="M238.705 153.577L239.726 152.76L235.641 148.676L233.191 153.373L238.705 153.577Z" fill="#010900"/>
<path d="M232.987 74.5486H232.374L231.149 75.5696L235.846 77.2033L240.134 75.978L232.987 74.5486Z" fill="#010900"/>
<path d="M247.485 143.979L252.182 141.937L273.011 128.664L256.675 136.015L247.485 143.979Z" fill="#010900"/>
<path d="M235.641 148.676L236.867 148.268L234.62 148.063L233.191 149.493L235.641 148.676Z" fill="#010900"/>
<path d="M249.528 231.584L238.705 232.401L260.555 233.626L263.005 231.993L249.528 231.584Z" fill="#010900"/>
<path d="M274.237 188.7L269.744 187.883L273.216 190.538L274.237 188.7Z" fill="#010900"/>
<path d="M275.462 79.8575L284.243 77.6112L273.011 77.407L275.462 79.8575Z" fill="#0B1703"/>
<path d="M278.933 91.7021L282.405 93.9483V93.5399L269.54 79.2454H269.336L278.933 91.7021Z" fill="#273506"/>
<path d="M158.451 223.416L160.901 226.479L169.069 213.818L158.451 223.416Z" fill="#E8F334"/>
<path d="M288.327 108.242L286.897 108.446L293.636 109.876L295.27 110.08L293.84 108.038L288.327 108.242Z" fill="#000100"/>
<path d="M297.312 110.284L297.108 108.855L295.474 110.08L297.312 110.284Z" fill="#000100"/>
<path d="M281.792 77.4068L280.363 76.3858L271.99 76.59L273.012 77.4068L278.729 77.611H284.243L286.489 74.9563L284.243 76.1815L281.792 77.4068Z" fill="#122101"/>
<path d="M126.594 271.405L129.045 275.694L136.805 270.18L126.594 271.405Z" fill="#F7FE36"/>
<path d="M210.728 107.018L212.974 107.426L223.797 93.54L210.728 107.018Z" fill="#F9FF3F"/>
<path d="M160.901 237.507L157.838 247.513L167.027 243.225L160.901 237.507Z" fill="#AFCE10"/>
<path d="M172.541 231.176L168.865 231.38L173.562 228.929L173.97 228.112L172.337 227.296L160.901 237.506L167.027 243.224L172.541 231.176Z" fill="#7D9F1F"/>
<path d="M278.934 91.7014L269.336 79.2447L268.723 79.0405L274.033 88.6383L278.934 91.7014Z" fill="#030F00"/>
<path d="M145.79 256.498L136.805 270.18L156.204 248.125L145.79 256.498Z" fill="#FAFF1B"/>
<path d="M204.398 129.276L196.025 136.628L217.671 126.213L204.398 129.276Z" fill="#519032"/>
<path d="M221.347 116.819L204.397 129.276L217.671 126.213L221.347 116.819Z" fill="#CCE830"/>
<path d="M307.727 141.324L309.36 146.021L313.24 145.817L314.466 150.105L318.141 147.655L312.628 144.387L316.304 148.063L307.727 141.324Z" fill="#081706"/>
<path d="M316.303 148.063L312.627 144.387L303.03 134.79L307.726 141.324L316.303 148.063Z" fill="#1F4B07"/>
<path d="M309.361 146.021L310.586 148.88L304.46 151.126L305.481 151.331L307.319 153.168L315.487 153.577L314.466 150.105L313.241 145.817L309.361 146.021Z" fill="#041500"/>
<path d="M296.087 107.834L293.841 108.038L295.27 110.08V110.285L295.474 110.08L297.108 108.855L298.333 107.834L286.285 96.3984L296.087 107.834Z" fill="#355007"/>
<path d="M231.965 107.834L229.107 107.426L221.347 116.819L236.458 107.834H231.965Z" fill="#1A2B12"/>
<path d="M237.888 107.63L236.458 107.835L221.347 116.82L228.494 113.961L237.888 107.63Z" fill="#203404"/>
<path d="M228.494 113.961L221.347 116.82L217.671 126.213L228.494 113.961Z" fill="#769623"/>
<path d="M237.071 77.8152H233.803L235.846 77.2026L231.149 75.5689L228.086 77.4068V74.3437V70.2595L225.635 75.9773L224.41 78.2236L238.092 79.2447L238.704 78.4278L237.071 77.8152Z" fill="#0C2101"/>
<path d="M240.134 77.6113L239.521 77.8155L238.704 78.4282L238.092 79.245L223.797 93.5396L250.549 83.7376L240.134 77.6113Z" fill="#314A2A"/>
<path d="M248.711 74.1396L246.26 75.3649L253.612 77.407L258.104 76.7944L259.534 75.5691L248.711 74.1396Z" fill="#000200"/>
<path d="M253.611 77.407H252.182L250.548 83.7374L257.083 77.8154L253.611 77.407Z" fill="#000200"/>
<path d="M240.134 77.6112L250.549 83.7374L252.182 77.407L240.134 77.6112Z" fill="#192A18"/>
<path d="M182.139 169.709L174.175 181.349L178.871 177.673L182.139 169.709Z" fill="#FBFF23"/>
<path d="M275.258 58.6199L267.498 48.8179L256.266 60.0493L275.258 58.6199Z" fill="#237D18"/>
<path d="M267.498 48.818L255.041 30.8477L256.266 60.0494L267.498 48.818Z" fill="#45BA2F"/>
<path d="M255.041 30.8477L249.936 36.7697L256.266 60.0494L255.041 30.8477Z" fill="#4BBA26"/>
<path d="M276.075 118.861L292.82 125.396L281.384 109.264L279.546 109.059L276.075 118.861Z" fill="#000200"/>
<path d="M223.797 93.54L212.974 107.426L228.086 95.7863L223.797 93.54Z" fill="#F9FF3C"/>
<path d="M250.549 83.7375L223.797 93.5395L228.086 95.7858L250.549 83.7375Z" fill="#E2F214"/>
<path d="M228.086 95.7854L212.974 107.425L218.692 110.284L221.143 106.608L219.305 106.404L228.086 95.7854Z" fill="#67A72A"/>
<path d="M256.266 60.0497L249.936 36.77L244.014 66.7886L256.266 60.0497Z" fill="#349E27"/>
<path d="M249.936 36.77L236.662 56.1698L244.014 66.7886L249.936 36.77Z" fill="#38A527"/>
<path d="M228.086 77.4067L231.149 75.5688L232.374 74.5477L229.311 75.1604L244.014 66.7878L228.086 70.2594V74.3435V77.4067Z" fill="#E3F92B"/>
<path d="M236.662 56.1694L228.086 70.2598L244.014 66.7883L236.662 56.1694Z" fill="#2B5F0E"/>
<path d="M325.289 240.57L338.562 246.9L326.31 229.747L323.655 229.951L325.289 240.57Z" fill="#020A01"/>
<path d="M282.405 71.8934L275.258 58.6199L276.075 67.1966L282.405 71.8934Z" fill="#B1D00F"/>
<path d="M276.075 67.1966L275.258 58.6199L256.266 60.0493L276.075 67.1966Z" fill="#C3F53C"/>
<path d="M281.793 77.4067L284.243 76.1814L284.651 75.9772L286.489 74.9562L282.405 71.8931L276.075 67.1963L281.793 77.4067Z" fill="#184708"/>
<path d="M276.075 118.861L279.546 109.059L276.279 108.855L274.849 109.263L276.075 118.861Z" fill="#000200"/>
<path d="M361.434 283.861L366.947 278.144L362.455 271.609L361.434 283.861Z" fill="#2E4400"/>
<path d="M274.032 88.6383L268.723 79.0405H267.294L266.681 85.9836L274.032 88.6383Z" fill="#020900"/>
<path d="M274.032 88.6386L266.681 85.9839L286.285 96.3985L282.405 93.948L278.933 91.7017L274.032 88.6386Z" fill="#57760A"/>
<path d="M267.294 79.0409L265.864 78.8367L266.681 85.984L267.294 79.0409Z" fill="#010600"/>
<path d="M265.864 78.837L257.083 77.8159L250.548 83.738L266.681 85.9842L265.864 78.837Z" fill="#040E00"/>
<path d="M258.104 76.7946L264.435 76.182L259.534 75.5693L258.104 76.7946Z" fill="#040E00"/>
<path d="M195.412 156.64L186.427 164.604L187.857 165.012L195.617 158.886L195.412 156.64Z" fill="#D3E440"/>
<path d="M313.853 170.934L305.481 151.33L304.46 151.126L301.396 152.351H300.171L313.853 170.934Z" fill="#0A1701"/>
<path d="M313.853 170.935L328.556 176.448L307.319 153.169L305.481 151.331L313.853 170.935Z" fill="#97BC0B"/>
<path d="M288.327 108.243L293.841 108.038L296.087 107.834L286.285 96.3984L288.327 108.243Z" fill="#9ED613"/>
<path d="M255.449 107.63H254.224H237.888L228.494 113.961H258.513L255.449 107.63Z" fill="#061006"/>
<path d="M244.014 66.7878L229.311 75.1604L232.374 74.5477H232.987L244.014 66.7878Z" fill="#F9FF2B"/>
<path d="M190.716 147.859L194.391 149.084L209.094 139.282L190.716 147.859Z" fill="#DBEA1A"/>
<path d="M196.025 136.627L190.716 147.859L209.094 139.282L196.025 136.627Z" fill="#F3FB58"/>
<path d="M209.094 139.282L194.391 149.084L203.377 147.451H202.968L209.094 139.282Z" fill="#7FB129"/>
<path d="M266.681 85.9838L250.548 83.7375L237.888 91.2933L266.681 85.9838Z" fill="#122802"/>
<path d="M280.363 76.3857L281.793 77.4067L276.075 67.1963L277.096 73.9352L280.363 76.3857Z" fill="#7EAB0B"/>
<path d="M271.786 76.3857L277.096 73.9352L276.074 67.1963L271.173 75.773L271.786 76.3857Z" fill="#A5F246"/>
<path d="M271.786 76.3863L271.173 75.7737L270.561 76.9989L264.434 76.1821L258.104 76.7947L253.611 77.4074L257.083 77.8158L265.864 78.8368L267.293 79.041H268.723L269.335 79.2452H269.54L275.462 79.8578L273.011 77.4074L271.99 76.5905L271.786 76.3863Z" fill="#0A1E00"/>
<path d="M246.873 99.87L266.681 85.9839L237.888 91.2933L246.873 99.87Z" fill="#1B5A15"/>
<path d="M156.204 248.125L136.805 270.18L162.535 254.66L156.204 248.125Z" fill="#E2F374"/>
<path d="M240.134 75.9772L243.606 74.752L243.81 74.9562L244.014 66.7878L232.987 74.5477L240.134 75.9772Z" fill="#A7F03E"/>
<path d="M282.201 109.264L283.222 109.059H282.201V109.264Z" fill="#7DD329"/>
<path d="M282.609 107.63L286.897 108.447L288.327 108.243L286.285 96.3984L282.609 107.63Z" fill="#7DD329"/>
<path d="M301.396 191.968L308.952 191.56L302.417 188.088L299.763 188.292L301.396 191.968Z" fill="#1A2C01"/>
<path d="M332.844 185.842L328.556 176.448L325.289 188.7L332.844 185.842Z" fill="#E8F922"/>
<path d="M253.612 77.4076L252.386 76.9992L246.26 75.3656L243.81 76.5908V74.9571L243.605 74.7529L240.134 75.9782L235.846 77.2034L233.803 77.8161H237.071H239.521L240.134 77.6118L252.182 77.4076H253.612Z" fill="#001500"/>
<path d="M282.609 107.63L282.201 109.06H283.222L295.066 110.285L293.636 109.877L286.898 108.447L282.609 107.63Z" fill="#081303"/>
<path d="M212.77 188.292L189.286 190.334L179.076 203.199L186.019 198.911L212.77 188.292Z" fill="#071300"/>
<path d="M212.77 186.454L202.764 185.637L194.8 186.658L189.286 190.333L212.77 188.291V186.454Z" fill="#0A1500"/>
<path d="M324.676 207.488L308.952 191.56L315.282 211.776L324.676 207.488Z" fill="#030D00"/>
<path d="M217.671 126.213L233.395 120.496L228.494 113.961L217.671 126.213Z" fill="#80A346"/>
<path d="M233.395 120.495L217.671 126.213L196.025 136.627L209.094 139.282L233.395 120.495Z" fill="#F4FD39"/>
<path d="M228.494 113.961L233.395 120.496L258.513 113.961H228.494Z" fill="#122102"/>
<path d="M187.652 230.155L172.541 231.176L167.027 243.225L190.92 230.359L187.652 230.155Z" fill="#3E5622"/>
<path d="M173.97 228.113L173.562 228.93L174.787 228.317L173.97 228.113Z" fill="#3E5622"/>
<path d="M174.175 181.349L171.112 183.8L178.259 183.595L178.872 177.673L174.175 181.349Z" fill="#F9FF3E"/>
<path d="M206.235 149.697L205.827 149.493L195.412 156.64L198.68 156.232L206.235 149.697Z" fill="#010600"/>
<path d="M301.396 152.351L296.904 126.009L292.82 125.396L301.396 152.351Z" fill="#87A608"/>
<path d="M301.396 152.352L307.727 141.324L303.03 134.79L296.904 126.009L301.396 152.352Z" fill="#84C723"/>
<path d="M310.586 148.88L309.36 146.021L307.727 141.324L301.396 152.351L304.459 151.126L310.586 148.88Z" fill="#C5F133"/>
<path d="M301.396 152.351L292.82 125.396L289.348 136.015L301.396 152.351Z" fill="#55A91A"/>
<path d="M243.81 76.5898L246.26 75.3646L248.711 74.1393L244.014 66.7878L243.81 74.9562V76.5898Z" fill="#F0FE74"/>
<path d="M248.711 74.1397L256.266 60.0493L244.014 66.7882L248.711 74.1397Z" fill="#EBFF3E"/>
<path d="M248.711 74.1397L276.075 67.1966L256.266 60.0493L248.711 74.1397Z" fill="#ABF03D"/>
<path d="M248.711 74.1394L252.999 74.752L259.534 75.5688L264.435 76.1814L270.561 76.9983L271.174 75.773L276.075 67.1963L248.711 74.1394Z" fill="#40AA26"/>
<path d="M179.076 203.199L169.069 213.818L188.469 208.713L179.076 203.199Z" fill="#9FC114"/>
<path d="M186.019 198.911L179.076 203.199L188.469 208.713L186.019 198.911Z" fill="#709509"/>
<path d="M237.888 91.293L228.086 95.7855L231.966 107.834L237.888 91.293Z" fill="#29791E"/>
<path d="M246.873 99.8697L237.888 91.293L231.966 107.834L246.873 99.8697Z" fill="#2A7B1F"/>
<path d="M228.086 95.7854L219.305 106.404L221.143 106.608L229.107 107.425L231.966 107.834L228.086 95.7854Z" fill="#C7F43F"/>
<path d="M190.92 230.359L167.027 243.224L184.794 237.506L193.575 230.563L190.92 230.359Z" fill="#354B0D"/>
<path d="M184.793 237.507L156.204 248.126L162.535 254.66L184.793 237.507Z" fill="#BCDE59"/>
<path d="M184.793 237.507L167.027 243.225L157.838 247.513L156.204 248.126L184.793 237.507Z" fill="#BCDD56"/>
<path d="M169.069 213.818L179.076 218.719L188.469 208.713L169.069 213.818Z" fill="#D1E536"/>
<path d="M160.901 226.479L179.076 218.719L169.069 213.818L160.901 226.479Z" fill="#E8F449"/>
<path d="M210.932 156.844L214.404 154.189L225.227 148.063V147.859L210.932 147.655L206.848 149.288L210.932 156.844Z" fill="#020800"/>
<path d="M209.298 158.07L210.32 157.253L197.25 157.457L195.617 158.886L187.857 165.013L182.139 169.709L209.298 158.07Z" fill="#C0DC4D"/>
<path d="M197.25 157.457L210.32 157.253L210.932 156.844L206.848 149.289L206.236 149.697L198.68 156.232L197.25 157.457Z" fill="#556F29"/>
<path d="M362.455 271.61L348.16 253.844L347.752 269.363L362.455 271.61Z" fill="#A1C40C"/>
<path d="M347.752 269.363L361.434 283.862L362.455 271.609L347.752 269.363Z" fill="#668D09"/>
<path d="M289.348 136.015L292.82 125.396L273.011 128.663L289.348 136.015Z" fill="#4B9717"/>
<path d="M273.011 128.664L276.074 118.862L258.512 113.961L273.011 128.664Z" fill="#0A1701"/>
<path d="M273.011 128.663L292.82 125.396L276.075 118.861L273.011 128.663Z" fill="#497111"/>
<path d="M221.347 153.576L233.191 149.492L234.62 148.063L225.227 147.859V148.063L214.404 154.189L221.347 153.576Z" fill="#020902"/>
<path d="M202.56 172.364L182.139 169.709L178.871 177.673L202.56 172.364Z" fill="#F7FF23"/>
<path d="M205.214 167.871L196.025 168.076L209.298 158.069L182.139 169.709L202.56 172.364L205.214 167.871Z" fill="#85A63D"/>
<path d="M290.777 159.09L297.925 152.147L289.348 151.126L290.777 159.09Z" fill="#020801"/>
<path d="M273.011 128.663L246.056 128.051L256.675 136.015L273.011 128.663Z" fill="#032500"/>
<path d="M233.395 120.496L246.056 128.051L258.513 113.961L233.395 120.496Z" fill="#0B2104"/>
<path d="M258.512 113.961L246.056 128.051L273.011 128.664L258.512 113.961Z" fill="#020E00"/>
<path d="M209.094 139.282L246.056 128.051L233.395 120.495L209.094 139.282Z" fill="#4AA135"/>
<path d="M202.968 147.451L246.056 128.051L209.094 139.282L202.968 147.451Z" fill="#EDFD35"/>
<path d="M266.681 85.9839L262.188 107.63L286.285 96.3985L266.681 85.9839Z" fill="#4C981A"/>
<path d="M262.188 107.63L276.279 108.855L279.546 109.059L281.384 109.264H282.201V109.059L282.609 107.63L286.285 96.3984L262.188 107.63Z" fill="#75CA25"/>
<path d="M262.189 107.63L266.681 85.9839L246.873 99.87L262.189 107.63Z" fill="#6BC72C"/>
<path d="M213.383 156.436L214.404 154.189L210.932 156.844L210.32 157.253L209.299 158.069L196.025 168.076L205.214 167.871L211.341 157.253L213.383 156.436Z" fill="#B0D13D"/>
<path d="M246.873 99.8699L231.966 107.834H236.458L237.888 107.63H254.224L246.873 99.8699Z" fill="#BAED32"/>
<path d="M246.873 99.8699L254.224 107.63H255.45H262.189L246.873 99.8699Z" fill="#A1E52F"/>
<path d="M196.842 185.025L189.082 187.271L185.406 186.046L180.097 188.701L194.8 186.659L202.764 185.638L196.842 185.025Z" fill="#183800"/>
<path d="M273.215 190.539L301.396 191.968L298.946 188.497L282.201 190.334L274.236 188.701L273.215 190.539Z" fill="#000100"/>
<path d="M174.787 228.318L177.442 226.888H178.667L179.076 218.72L166.211 225.05L172.337 227.297L173.971 228.114L174.787 228.318Z" fill="#82D240"/>
<path d="M325.289 188.7L328.556 176.448L320.388 186.046L325.289 188.7Z" fill="#85AA0A"/>
<path d="M320.388 186.046L328.556 176.448L313.853 170.935L320.388 186.046Z" fill="#C3DF10"/>
<path d="M315.283 211.776L308.952 191.56L297.312 211.368L315.283 211.776Z" fill="#020A01"/>
<path d="M297.312 211.368L301.396 191.968L273.215 190.539L297.312 211.368Z" fill="#010701"/>
<path d="M297.312 211.368L308.952 191.56L301.397 191.968L297.312 211.368Z" fill="#040E00"/>
<path d="M178.463 229.746L178.667 226.887H177.442L174.787 228.317L173.562 228.929L168.865 231.38L172.541 231.176L187.652 230.155L178.463 229.746Z" fill="#0F2C00"/>
<path d="M247.485 143.979L242.176 148.267L252.182 141.937L247.485 143.979Z" fill="#071301"/>
<path d="M239.725 152.76L245.647 149.084L242.176 148.268H236.866L235.641 148.676L239.725 152.76Z" fill="#071301"/>
<path d="M315.283 211.776L297.312 211.368L315.283 221.986V211.776Z" fill="#254107"/>
<path d="M315.282 221.987L324.676 207.488L315.282 211.776V221.987Z" fill="#203504"/>
<path d="M338.154 226.683L337.541 225.662L335.499 222.599L324.676 207.488L315.282 221.987L338.154 226.683Z" fill="#476709"/>
<path d="M208.686 167.872L212.974 157.661L211.341 157.253L205.214 167.872L202.56 172.364L214.404 167.463L208.686 167.872Z" fill="#3E7B31"/>
<path d="M235.641 148.676L233.191 149.493L221.347 153.577L229.515 153.169L233.191 153.373L235.641 148.676Z" fill="#030903"/>
<path d="M211.341 157.252L212.974 157.661L213.383 156.436L211.341 157.252Z" fill="#030903"/>
<path d="M287.102 146.634L289.348 136.015L273.011 128.664L283.835 147.042L287.102 146.634Z" fill="#7BC81D"/>
<path d="M288.531 146.43L289.348 151.126L297.925 152.147L299.15 150.922L300.171 152.352H301.396L289.348 136.015L287.102 146.634L288.531 146.43Z" fill="#75BF15"/>
<path d="M184.794 237.507L162.535 254.66L183.16 248.942L184.794 237.507Z" fill="#BADA50"/>
<path d="M300.171 152.351L299.15 150.922L292.003 170.526L313.853 170.934L300.171 152.351Z" fill="#2C4907"/>
<path d="M290.778 159.09L291.594 167.259L292.003 168.28H291.799L292.003 170.526L299.15 150.922L297.925 152.147L290.778 159.09Z" fill="#1C3103"/>
<path d="M347.751 269.363L348.16 253.844L336.724 272.426L347.751 269.363Z" fill="#C3E415"/>
<path d="M348.16 253.843L338.562 246.9L336.724 272.426L348.16 253.843Z" fill="#527206"/>
<path d="M321.613 230.155L310.586 231.176L317.12 247.921L321.613 230.155Z" fill="#010400"/>
<path d="M325.289 240.569L323.655 229.95L321.613 230.155L317.12 247.921L325.289 240.569Z" fill="#030A01"/>
<path d="M315.282 221.987L322.225 225.458L322.838 225.662L323.042 225.867L330.394 229.338L338.154 226.683L315.282 221.987Z" fill="#51800C"/>
<path d="M319.979 258.949L325.289 240.57L317.12 247.921L319.979 258.949Z" fill="#253804"/>
<path d="M319.979 258.949L338.562 246.9L325.289 240.57L319.979 258.949Z" fill="#0E1D02"/>
<path d="M186.019 198.911L188.469 208.713L221.347 199.932L186.019 198.911Z" fill="#537A39"/>
<path d="M221.347 199.932L212.77 188.292L186.019 198.911L221.347 199.932Z" fill="#385525"/>
<path d="M234.008 189.109L212.77 188.292L221.347 199.932L234.008 189.109Z" fill="#0E1E05"/>
<path d="M265.864 149.493L283.835 147.042L273.012 128.664L265.864 149.493Z" fill="#44A729"/>
<path d="M276.891 168.28L273.828 173.997L280.363 168.28H276.891Z" fill="#428920"/>
<path d="M283.63 155.823L287.919 156.027L289.348 160.316L290.778 159.09L289.348 151.126L288.531 146.429L283.63 155.823Z" fill="#428920"/>
<path d="M290.777 159.091L289.348 160.316L291.594 167.259L290.777 159.091Z" fill="#459125"/>
<path d="M280.363 168.28L273.828 173.997L292.003 170.526L291.799 168.28H280.363Z" fill="#459125"/>
<path d="M211.136 231.38H209.707L184.794 237.506L183.16 248.942L211.136 231.38Z" fill="#557834"/>
<path d="M201.947 230.767L193.575 230.563L184.794 237.506L209.707 231.38L201.947 230.767Z" fill="#1B2D0D"/>
<path d="M196.842 185.025L178.259 183.596L185.406 186.046L189.082 187.271L196.842 185.025Z" fill="#1B3A01"/>
<path d="M202.56 172.364L178.871 177.673L196.842 185.025L202.56 172.364Z" fill="#F0FD3A"/>
<path d="M196.842 185.025L178.872 177.673L178.259 183.595L196.842 185.025Z" fill="#F4FF2C"/>
<path d="M224.002 163.378L228.086 161.54L229.515 153.168L221.347 153.576L214.404 154.189L224.002 163.378Z" fill="#1B360A"/>
<path d="M213.383 156.436L212.974 157.661L208.686 167.871L214.404 167.463L224.001 163.379L214.404 154.189L213.383 156.436Z" fill="#77B03F"/>
<path d="M233.191 153.372L229.515 153.168L228.086 161.54L229.311 161.132L238.705 153.576L233.191 153.372Z" fill="#243916"/>
<path d="M248.915 157.661L239.725 152.76L238.704 153.577L229.311 161.133L238.296 161.949L248.915 157.661Z" fill="#031405"/>
<path d="M248.915 157.661L256.47 154.598L274.645 155.415L288.531 146.429L287.102 146.634L283.834 147.042L265.864 149.493L264.639 152.556L255.245 150.922L239.725 152.76L248.915 157.661Z" fill="#010600"/>
<path d="M266.272 168.076L273.828 173.998L276.891 168.28L266.272 168.076Z" fill="#2A6512"/>
<path d="M274.645 155.415L283.63 155.823L288.531 146.429L274.645 155.415Z" fill="#2A6512"/>
<path d="M256.471 154.598L248.915 157.661L238.296 161.949L260.146 163.991L256.471 154.598Z" fill="#051706"/>
<path d="M280.363 168.28H291.798H292.003L291.594 167.259L289.348 160.315L287.919 156.027L264.435 166.85L266.272 168.075L276.891 168.28H280.363Z" fill="#19490E"/>
<path d="M287.919 156.027L283.63 155.823L274.645 155.415L256.471 154.598L260.146 163.991L260.963 164.196L264.435 166.85L287.919 156.027Z" fill="#0B2105"/>
<path d="M178.667 226.888L178.463 229.747L202.355 216.065L179.076 218.72L178.667 226.888Z" fill="#D1EA72"/>
<path d="M188.469 208.713L179.076 218.719L202.355 216.064L188.469 208.713Z" fill="#B7DC56"/>
<path d="M229.311 161.132L228.086 161.541L224.001 163.379L214.404 167.463L202.56 172.364L226.86 170.117L229.311 161.132Z" fill="#2C4412"/>
<path d="M260.963 164.195L260.146 163.991L238.296 161.949L229.311 161.132L226.86 170.117L260.963 164.195Z" fill="#459224"/>
<path d="M226.861 170.118L202.56 172.364L196.842 185.025L226.861 170.118Z" fill="#E5FA37"/>
<path d="M225.227 147.859L234.62 148.063L236.867 148.267H242.176L246.056 128.051L202.968 147.451H203.377L210.932 147.655L225.227 147.859Z" fill="#B9F044"/>
<path d="M255.245 150.922L264.639 152.556L265.864 149.493L273.011 128.664L252.182 141.937L242.176 148.268L245.648 149.084L255.245 150.922Z" fill="#409F27"/>
<path d="M256.675 136.015L246.056 128.051L242.176 148.267L247.485 143.979L256.675 136.015Z" fill="#458C15"/>
<path d="M323.042 225.867L322.838 225.662L322.226 225.458L315.283 221.987L310.382 230.972L310.586 231.176L321.613 230.155L323.655 229.951L326.31 229.746L330.394 229.338L323.042 225.867Z" fill="#34600A"/>
<path d="M129.045 275.694L153.346 283.862L136.805 270.18L129.045 275.694Z" fill="#EBF75C"/>
<path d="M295.883 181.553L320.388 186.046L313.853 170.935L295.883 181.553Z" fill="#B5E21F"/>
<path d="M295.883 181.553L313.853 170.935L292.003 170.526L295.883 181.553Z" fill="#88CB16"/>
<path d="M273.828 173.998L295.883 181.553L292.003 170.526L273.828 173.998Z" fill="#65C631"/>
<path d="M336.725 272.426L338.562 246.9L328.965 270.384L336.725 272.426Z" fill="#64950C"/>
<path d="M328.965 270.384L338.562 246.9L319.979 258.948L328.965 270.384Z" fill="#6BA30F"/>
<path d="M344.893 285.495L361.433 283.862L347.751 269.363L344.893 285.495Z" fill="#557909"/>
<path d="M238.296 188.7L235.437 188.496L234.008 189.109L238.909 206.67L250.753 188.292L238.296 188.7Z" fill="#091705"/>
<path d="M221.347 199.932L188.469 208.713L238.909 206.671L221.347 199.932Z" fill="#1E391F"/>
<path d="M221.347 199.932L238.909 206.671L234.008 189.109L221.347 199.932Z" fill="#0D2406"/>
<path d="M188.469 208.713L202.355 216.065L238.909 206.671L188.469 208.713Z" fill="#4E750D"/>
<path d="M269.744 187.884L268.723 187.679L250.753 188.292L238.909 206.671L273.216 190.538L269.744 187.884Z" fill="#020700"/>
<path d="M291.594 233.831L283.017 232.81L285.264 243.429L291.594 233.831Z" fill="#010600"/>
<path d="M295.474 234.443L291.594 233.831L285.264 243.428L317.12 247.921L310.586 231.176L310.382 230.972V231.176L295.474 234.443Z" fill="#010600"/>
<path d="M273.216 190.539L238.909 206.671L279.955 213.819L273.216 190.539Z" fill="#021001"/>
<path d="M279.954 213.819L297.312 211.368L273.215 190.539L279.954 213.819Z" fill="#020A01"/>
<path d="M295.474 234.443L310.381 231.176V230.972L315.282 221.987L295.474 234.443Z" fill="#4F9420"/>
<path d="M260.555 233.627L285.264 243.429L283.018 232.81L281.997 232.606L263.005 231.993L260.555 233.627Z" fill="#000400"/>
<path d="M238.909 206.671L232.578 221.17L279.955 213.818L238.909 206.671Z" fill="#051D04"/>
<path d="M238.909 206.671L202.355 216.065L232.578 221.17L238.909 206.671Z" fill="#082F08"/>
<path d="M260.963 164.195L226.86 170.117L240.542 179.919L260.963 164.195Z" fill="#165511"/>
<path d="M240.542 179.92L226.861 170.118L196.842 185.025L240.542 179.92Z" fill="#2F8124"/>
<path d="M266.272 168.075L264.435 166.85L260.963 164.195L240.542 179.919L273.828 173.997L266.272 168.075Z" fill="#13510F"/>
<path d="M162.535 254.66L136.805 270.18L175.4 267.117L162.535 254.66Z" fill="#E8F765"/>
<path d="M136.805 270.18L153.345 283.862L175.4 267.117L136.805 270.18Z" fill="#EAF84D"/>
<path d="M162.535 254.66L175.4 267.116L183.16 248.942L162.535 254.66Z" fill="#E2F550"/>
<path d="M201.947 230.768L232.578 221.17L202.356 216.065L201.947 230.768Z" fill="#276B1C"/>
<path d="M190.92 230.36L193.575 230.564L201.947 230.768L202.355 216.065L178.463 229.747L187.652 230.155L190.92 230.36Z" fill="#BBE370"/>
<path d="M282.201 190.334L298.946 188.496L299.763 188.292L302.417 188.087L320.388 186.045L295.883 181.553L282.201 190.334Z" fill="#092700"/>
<path d="M254.428 245.675L285.264 243.428L260.555 233.626L254.428 245.675Z" fill="#010701"/>
<path d="M238.296 188.701L240.542 179.92L196.842 185.025L202.764 185.638L212.77 186.454L235.437 188.496L238.296 188.701Z" fill="#6FD43A"/>
<path d="M211.136 231.38L183.16 248.942L213.791 249.146L212.362 231.38H211.136Z" fill="#5F8444"/>
<path d="M238.704 232.401L232.987 232.605L212.362 231.38L213.791 249.146L260.555 233.626L238.704 232.401Z" fill="#091F05"/>
<path d="M260.555 233.626L213.791 249.146L254.428 245.675L260.555 233.626Z" fill="#010901"/>
<path d="M268.723 187.68L273.828 173.998L240.542 179.92L268.723 187.68Z" fill="#AFE833"/>
<path d="M268.723 187.68L240.542 179.92L238.296 188.701L250.753 188.292L268.723 187.68Z" fill="#5CC337"/>
<path d="M268.723 187.679L269.744 187.883L274.237 188.7L282.201 190.334L295.883 181.553L268.723 187.679Z" fill="#011301"/>
<path d="M273.828 173.998L268.723 187.68L295.883 181.554L273.828 173.998Z" fill="#A3E331"/>
<path d="M281.997 232.605L297.312 211.368L279.955 213.818L281.997 232.605Z" fill="#1E4407"/>
<path d="M281.997 232.605L283.018 232.81L291.595 233.831L295.475 234.443L315.283 221.987L281.997 232.605Z" fill="#0C2601"/>
<path d="M281.997 232.605L315.283 221.986L297.312 211.368L281.997 232.605Z" fill="#295210"/>
<path d="M317.12 247.921L300.579 265.279L319.979 258.948L317.12 247.921Z" fill="#254B07"/>
<path d="M300.579 265.279L328.964 270.384L319.979 258.948L300.579 265.279Z" fill="#65A214"/>
<path d="M232.987 232.606L232.578 221.17L201.947 230.768L209.707 231.38H211.137H212.362L232.987 232.606Z" fill="#63BA28"/>
<path d="M232.987 232.605L279.955 213.818L232.578 221.17L232.987 232.605Z" fill="#407E1C"/>
<path d="M278.934 260.378L317.121 247.921L285.264 243.428L278.934 260.378Z" fill="#133408"/>
<path d="M278.934 260.378L300.58 265.279L317.121 247.921L278.934 260.378Z" fill="#549C1E"/>
<path d="M263.005 231.993L281.996 232.605L279.954 213.818L249.527 231.584L263.005 231.993Z" fill="#215E17"/>
<path d="M232.987 232.605L238.705 232.401L249.528 231.584L279.955 213.818L232.987 232.605Z" fill="#7CC624"/>
<path d="M254.429 245.675L250.957 256.702L285.264 243.428L254.429 245.675Z" fill="#1A3A0C"/>
<path d="M213.791 249.146L250.957 256.702L254.428 245.675L213.791 249.146Z" fill="#132E07"/>
<path d="M250.957 256.702L278.934 260.378L285.264 243.428L250.957 256.702Z" fill="#235617"/>
<path d="M213.791 249.146L223.184 266.708L250.957 256.702L213.791 249.146Z" fill="#2E7921"/>
<path d="M183.16 248.942L223.185 266.708L213.791 249.146L183.16 248.942Z" fill="#589640"/>
<path d="M175.4 267.116L223.185 266.708L183.16 248.942L175.4 267.116Z" fill="#7FD22F"/>
<path d="M153.346 283.862L185.61 287.946L175.4 267.117L153.346 283.862Z" fill="#A6DC67"/>
<path d="M175.4 267.117L185.61 287.946L223.185 266.708L175.4 267.117Z" fill="#62BF38"/>
<path d="M336.724 272.426L312.424 288.763L347.752 269.363L336.724 272.426Z" fill="#569814"/>
<path d="M328.964 270.384L312.424 288.763L336.724 272.426L328.964 270.384Z" fill="#6CBA23"/>
<path d="M312.424 288.763L344.893 285.495L347.752 269.363L312.424 288.763Z" fill="#67AD17"/>
<path d="M223.185 266.708L185.61 287.946L231.353 278.757L223.185 266.708Z" fill="#52B133"/>
<path d="M250.957 256.702L231.353 278.756L278.933 260.377L250.957 256.702Z" fill="#1E5F18"/>
<path d="M223.185 266.708L231.353 278.756L250.957 256.702L223.185 266.708Z" fill="#4DAA2B"/>
<path d="M252.999 281.002L300.58 265.278L278.934 260.377L252.999 281.002Z" fill="#388121"/>
<path d="M231.353 278.756L252.999 281.002L278.933 260.377L231.353 278.756Z" fill="#73CA2E"/>
<path d="M185.61 287.946L226.452 289.376L231.353 278.757L185.61 287.946Z" fill="#66C338"/>
<path d="M231.353 278.757L226.452 289.376L252.999 281.003L231.353 278.757Z" fill="#45A12E"/>
<path d="M226.452 289.375L248.711 291.213L252.999 281.003L226.452 289.375Z" fill="#0F400E"/>
<path d="M271.173 289.784L312.424 288.763L328.964 270.384L271.173 289.784Z" fill="#6DBB24"/>
<path d="M291.594 291.621L312.424 288.762L271.173 289.783L291.594 291.621Z" fill="#031602"/>
<path d="M300.579 265.278L271.173 289.783L328.964 270.384L300.579 265.278Z" fill="#134407"/>
<path d="M248.711 291.213L271.174 289.784L252.999 281.003L248.711 291.213Z" fill="#115010"/>
<path d="M252.999 281.002L271.174 289.783L300.58 265.278L252.999 281.002Z" fill="#439227"/>
<path d="M258.717 35.9532L255.041 39.4247L249.732 36.9742L250.957 34.9321L258.717 35.9532Z" fill="#66807F"/>
<path d="M253.816 28.805L250.14 36.5649L255.449 37.3817L254.837 28.1924L254.02 29.6218L253.816 28.805Z" fill="#F7D930"/>
<path d="M255.449 37.3817L254.837 28.1924L255.449 30.0303L255.654 29.2134L258.717 35.9523L255.449 37.3817Z" fill="#6F671F"/>
<path d="M254.02 29.6221L254.837 28.1927L255.45 30.0306L256.879 23.2917L261.78 25.9464L259.738 20.4328L269.744 18.7991L259.942 16.1444L262.393 10.6308L257.287 12.8771L255.858 0.0119629L253.203 12.4687L247.894 9.81395L250.344 15.736L238.909 17.3697L250.14 20.2286L247.485 25.7422L252.795 23.2917L253.612 29.0095L253.816 28.8053L254.02 29.6221Z" fill="#CEA80D"/>
<path d="M254.02 29.6228L252.999 23.0881L252.795 23.2923L253.612 28.806H253.816L254.02 29.6228Z" fill="url(#paint8_linear)"/>
<path d="M238.098 303.703L232.694 306.498L218.533 307.616L203.626 302.957L208.098 300.721L238.098 303.703Z" fill="#DEDEDE"/>
<path d="M220.024 282.461L208.471 280.597L226.173 280.038L238.843 281.715L220.024 282.461Z" fill="#B4B4B2" stroke="#B4B4B2" stroke-width="0.5"/>
<path d="M208.098 301.653L208.471 280.598L220.024 282.461L219.651 305.38L208.098 301.653Z" fill="#E2D7D3"/>
<path d="M219.651 305.379L220.024 282.46L238.843 281.715L238.098 303.702L219.651 305.379Z" fill="url(#paint9_linear)"/>
<path d="M224.496 278.175L224.31 278.548L222.633 278.734L224.496 278.175Z" fill="#AA1F14" stroke="#AA1F14" stroke-width="0.5"/>
<path d="M224.496 278.175L222.633 278.734L222.819 278.175H224.496Z" fill="#AA1F14" stroke="#AA1F14" stroke-width="0.5"/>
<path d="M222.633 278.734L224.31 278.361V278.734H222.633Z" fill="#AA1F14" stroke="#AA1F14" stroke-width="0.5"/>
<path d="M222.633 278.734V278.361H224.31L222.633 278.734Z" fill="#AA1F14" stroke="#AA1F14" stroke-width="0.5"/>
<path d="M222.819 278.737L223.937 278.365V278.924L222.819 278.737Z" fill="#8A1E09" stroke="#8A1E09" stroke-width="0.5"/>
<path d="M222.819 278.734V278.175L223.937 278.361L222.819 278.734Z" fill="#8A1E09" stroke="#8A1E09" stroke-width="0.5"/>
<path d="M223.751 278.361L222.819 278.548L222.633 278.175L223.751 278.361Z" fill="#871203" stroke="#871203" stroke-width="0.5"/>
<path d="M223.752 278.363L223.938 278.736L222.82 278.549L223.752 278.363Z" fill="#871203" stroke="#871203" stroke-width="0.5"/>
<path d="M219.84 281.157L207.356 279.107L226.362 278.548L239.964 280.411L219.84 281.157Z" fill="#FEFFFF"/>
<path d="M207.167 288.982L207.353 279.106L219.837 281.156L219.651 291.777L207.167 288.982Z" fill="#E3D7D3"/>
<path d="M219.651 291.777L219.837 281.156L239.961 280.411L239.589 290.659L219.651 291.777Z" fill="#83848D"/>
<path d="M234.93 278.734V279.666H230.645L230.458 278.92L234.93 278.734Z" fill="#8A1405" stroke="#8A1405" stroke-width="0.5"/>
<path d="M227.477 305.194L228.409 291.405H232.135L231.204 305.007L227.477 305.194Z" fill="#AA1F14" stroke="#AA1F14" stroke-width="0.5"/>
<path d="M228.409 291.405L228.781 279.852H232.508L232.135 291.405H228.409Z" fill="#AA1F14" stroke="#AA1F14" stroke-width="0.5"/>
<path d="M228.781 279.852L214.993 277.989H218.533L232.508 279.852H228.781Z" fill="#8A1405" stroke="#8A1405" stroke-width="0.5"/>
<path d="M212.012 303.703L211.453 290.101L213.689 290.846L214.248 304.448L212.012 303.703Z" fill="#8A1706" stroke="#8A1706" stroke-width="0.5"/>
<path d="M211.453 290.1L211.639 279.107L213.875 279.293L213.689 290.846L211.453 290.1Z" fill="#8A1A07" stroke="#8A1A07" stroke-width="0.5"/>
<path d="M211.64 279.107L232.323 278.361L234.932 278.734L213.876 279.293L211.64 279.107Z" fill="#8A1405" stroke="#8A1405" stroke-width="0.5"/>
<path d="M218.533 277.803L219.465 273.144L219.651 273.89L218.906 277.43L218.533 277.803Z" fill="#8A1E0A" stroke="#8A1E0A" stroke-width="0.5"/>
<path d="M216.856 277.803L217.788 273.144H219.465L218.533 277.803H216.856Z" fill="#AA1F14" stroke="#AA1F14" stroke-width="0.5"/>
<path d="M224.31 278.734L218.533 277.802L218.906 277.43L224.31 278.361V278.734Z" fill="#8A1E0A" stroke="#8A1E0A" stroke-width="0.5"/>
<path d="M219.465 273.144L224.496 278.175L224.309 278.548L219.651 273.89L219.465 273.144Z" fill="#8A1F0A" stroke="#8A1F0A" stroke-width="0.5"/>
<path d="M219.651 273.889L224.309 278.547L222.632 278.734L217.974 273.889H219.651Z" fill="#8A1405" stroke="#8A1405" stroke-width="0.5"/>
<path d="M222.632 278.734L216.856 277.802H218.533L224.31 278.734H222.632Z" fill="#8A1405" stroke="#8A1405" stroke-width="0.5"/>
<path d="M231.39 277.802L230.458 274.076L230.645 273.517L231.949 278.361L231.39 277.802Z" fill="#AA1F14" stroke="#AA1F14" stroke-width="0.5"/>
<path d="M222.819 278.175L231.39 277.802L231.949 278.361L222.819 278.734V278.175Z" fill="#AA1F14" stroke="#AA1F14" stroke-width="0.5"/>
<path d="M230.459 274.076L222.819 278.548L222.633 278.175L230.645 273.517L230.459 274.076Z" fill="#AA1F14" stroke="#AA1F14" stroke-width="0.5"/>
<path d="M222.819 278.734L231.949 278.361H233.067L223.937 278.92L222.819 278.734Z" fill="#8A1405" stroke="#8A1405" stroke-width="0.5"/>
<path d="M231.576 274.262L223.937 278.734L222.819 278.548L230.458 274.076L231.576 274.262Z" fill="#AA2015" stroke="#AA2015" stroke-width="0.5"/>
<path d="M231.949 278.361L230.645 273.517H231.763L233.067 278.361H231.949Z" fill="#8A1405" stroke="#8A1405" stroke-width="0.5"/>
<path d="M215.179 273.703L223.192 278.175L223.005 278.548L215.366 274.448L215.179 273.703Z" fill="#AA1F14" stroke="#AA1F14" stroke-width="0.5"/>
<path d="M213.502 278.921L215.179 273.703L215.366 274.449L214.061 278.362L213.502 278.921Z" fill="#AA1F14" stroke="#AA1F14" stroke-width="0.5"/>
<path d="M223.005 278.734L213.502 278.92L214.061 278.361L223.005 278.175V278.734Z" fill="#AA1F14" stroke="#AA1F14" stroke-width="0.5"/>
<path d="M216.111 273.889L224.31 278.361L223.192 278.175L215.179 273.703L216.111 273.889Z" fill="#8A1405" stroke="#8A1405" stroke-width="0.5"/>
<path d="M214.061 278.361L215.366 274.448L216.484 274.635L215.179 278.548L214.061 278.361Z" fill="#AC4227" stroke="#AC4227" stroke-width="0.5"/>
<path d="M224.123 278.92H214.434H213.502L223.005 278.734L224.123 278.92Z" fill="#8A1405" stroke="#8A1405" stroke-width="0.5"/>
<path d="M229.527 274.263L224.123 278.176H222.446L227.85 274.263H229.527Z" fill="#AA1F14" stroke="#AA1F14" stroke-width="0.5"/>
<path d="M230.086 278.921L229.341 274.821L229.527 274.262L230.459 279.479L230.086 278.921Z" fill="#8A200B" stroke="#8A200B" stroke-width="0.5"/>
<path d="M224.31 278.175L230.086 278.921L230.459 279.48L224.31 278.734V278.175Z" fill="#8A1F0A" stroke="#8A1F0A" stroke-width="0.5"/>
<path d="M228.409 278.921L227.663 275.008L229.34 274.822L230.086 278.921H228.409Z" fill="#AA2115" stroke="#AA2115" stroke-width="0.5"/>
<path d="M224.309 278.734L230.458 279.479H228.781L222.446 278.734H224.309Z" fill="#8A1405" stroke="#8A1405" stroke-width="0.5"/>
<path d="M229.34 274.821L224.31 278.548L224.123 278.175L229.527 274.262L229.34 274.821Z" fill="#8A1F0A" stroke="#8A1F0A" stroke-width="0.5"/>
<path d="M225.987 304.821L227.105 304.635L227.85 291.405L224.31 291.591L225.987 304.821Z" fill="url(#paint10_linear)"/>
<path d="M227.85 291.405H226.173L225.8 280.784H228.222L227.85 291.405Z" fill="url(#paint11_linear)"/>
<path d="M225.986 304.821L227.477 305.193L228.409 291.405L228.781 279.852L222.819 279.107V279.852L228.222 280.597L227.85 291.405L227.291 304.821H225.986Z" fill="url(#paint12_linear)"/>
<path d="M214.247 290.659L214.806 303.703L216.297 304.262L214.247 304.448L213.688 290.846L213.875 279.293L222.819 279.107V279.852L214.434 280.225L214.247 290.659Z" fill="url(#paint13_linear)"/>
<path d="M214.434 280.225L216.856 280.598L217.042 291.218L214.247 290.846L214.434 280.225Z" fill="url(#paint14_linear)"/>
<path d="M214.247 290.846L214.806 303.703L216.297 304.262L216.67 291.218L214.247 290.846Z" fill="url(#paint15_linear)"/>
<path d="M127.416 286.001L119.404 290.287L98.7211 291.777L76.9202 284.883L83.4418 281.529L127.416 286.001Z" fill="#DEDEDE"/>
<path d="M101.143 255.07L84.0009 252.275L109.901 251.343L128.348 253.952L101.143 255.07Z" fill="#B4B4B2" stroke="#B4B4B2" stroke-width="0.5"/>
<path d="M83.4419 283.206L84.0009 252.275L101.143 255.07L100.398 288.423L83.4419 283.206Z" fill="#E2D7D3"/>
<path d="M100.398 288.423L101.143 255.069L128.348 253.951L127.416 286.001L100.398 288.423Z" fill="url(#paint16_linear)"/>
<path d="M107.479 248.734L107.292 249.293L104.684 249.48L107.479 248.734Z" fill="#AA1F14" stroke="#AA1F14" stroke-width="0.5"/>
<path d="M107.479 248.734L104.684 249.48L104.87 248.734H107.479Z" fill="#AA1F14" stroke="#AA1F14" stroke-width="0.5"/>
<path d="M104.684 249.666L107.292 248.734V249.48L104.684 249.666Z" fill="#AA1F14" stroke="#AA1F14" stroke-width="0.5"/>
<path d="M104.684 249.666V248.921L107.292 248.734L104.684 249.666Z" fill="#AA1F14" stroke="#AA1F14" stroke-width="0.5"/>
<path d="M105.057 249.481L106.547 248.922V249.668L105.057 249.481Z" fill="#8A1E09" stroke="#8A1E09" stroke-width="0.5"/>
<path d="M105.057 249.48V248.734L106.547 248.921L105.057 249.48Z" fill="#8A1E09" stroke="#8A1E09" stroke-width="0.5"/>
<path d="M106.361 248.921L105.056 249.293L104.87 248.548L106.361 248.921Z" fill="#871203" stroke="#871203" stroke-width="0.5"/>
<path d="M106.361 248.92L106.547 249.479L105.056 249.293L106.361 248.92Z" fill="#871203" stroke="#871203" stroke-width="0.5"/>
<path d="M100.774 253.02L82.5131 250.039L110.277 249.293L130.028 251.902L100.774 253.02Z" fill="#FEFFFF"/>
<path d="M82.324 264.573L82.5103 250.039L100.771 253.02L100.398 268.672L82.324 264.573Z" fill="#E3D7D3"/>
<path d="M100.398 268.672L100.771 253.02L130.025 251.902L129.652 266.808L100.398 268.672Z" fill="#83848D"/>
<path d="M122.572 249.48V250.97H116.423L116.05 249.666L122.572 249.48Z" fill="#8A1405" stroke="#8A1405" stroke-width="0.5"/>
<path d="M111.765 288.423L113.255 268.113L118.659 267.927L117.355 287.864L111.765 288.423Z" fill="#AA1F14" stroke="#AA1F14" stroke-width="0.5"/>
<path d="M113.255 268.113L113.628 251.343L119.218 251.157L118.659 267.927L113.255 268.113Z" fill="#AA1F14" stroke="#AA1F14" stroke-width="0.5"/>
<path d="M113.628 251.343L93.5038 248.548L98.7211 248.362L119.218 251.157L113.628 251.343Z" fill="#8A1405" stroke="#8A1405" stroke-width="0.5"/>
<path d="M89.2183 286.001L88.2866 266.25L91.6406 267.181L92.5723 287.119L89.2183 286.001Z" fill="#8A1706" stroke="#8A1706" stroke-width="0.5"/>
<path d="M88.2866 266.249L88.473 249.851L91.8269 250.41L91.6406 267.18L88.2866 266.249Z" fill="#8A1A07" stroke="#8A1A07" stroke-width="0.5"/>
<path d="M88.4744 249.852L119.033 249.107L122.573 249.48L91.8283 250.411L88.4744 249.852Z" fill="#8A1405" stroke="#8A1405" stroke-width="0.5"/>
<path d="M98.7211 248.175L100.212 241.281L100.398 242.399L99.2801 247.616L98.7211 248.175Z" fill="#8A1E0A" stroke="#8A1E0A" stroke-width="0.5"/>
<path d="M96.2988 248.175L97.7895 241.467L100.212 241.281L98.7212 248.175H96.2988Z" fill="#AA1F14" stroke="#AA1F14" stroke-width="0.5"/>
<path d="M107.292 249.48L98.7211 248.175L99.2801 247.616L107.292 248.734V249.48Z" fill="#8A1E0A" stroke="#8A1E0A" stroke-width="0.5"/>
<path d="M100.212 241.281L107.479 248.734L107.292 249.293L100.398 242.399L100.212 241.281Z" fill="#8A1F0A" stroke="#8A1F0A" stroke-width="0.5"/>
<path d="M100.398 242.399L107.292 249.293L104.684 249.48L97.9758 242.399H100.398Z" fill="#8A1405" stroke="#8A1405" stroke-width="0.5"/>
<path d="M104.684 249.666L96.2988 248.175H98.7212L107.292 249.479L104.684 249.666Z" fill="#8A1405" stroke="#8A1405" stroke-width="0.5"/>
<path d="M117.541 248.175L116.05 242.772L116.423 241.84L118.286 248.92L117.541 248.175Z" fill="#AA1F14" stroke="#AA1F14" stroke-width="0.5"/>
<path d="M105.056 248.734L117.541 248.175L118.286 248.92L105.056 249.479V248.734Z" fill="#AA1F14" stroke="#AA1F14" stroke-width="0.5"/>
<path d="M116.05 242.772L105.056 249.293L104.87 248.548L116.423 241.84L116.05 242.772Z" fill="#AA1F14" stroke="#AA1F14" stroke-width="0.5"/>
<path d="M105.056 249.479L118.286 248.92L119.963 249.107L106.547 249.666L105.056 249.479Z" fill="#8A1405" stroke="#8A1405" stroke-width="0.5"/>
<path d="M117.727 242.958L106.547 249.479L105.056 249.293L116.05 242.771L117.727 242.958Z" fill="#AA2015" stroke="#AA2015" stroke-width="0.5"/>
<path d="M118.286 248.92L116.423 241.84L118.1 242.026L119.963 249.107L118.286 248.92Z" fill="#8A1405" stroke="#8A1405" stroke-width="0.5"/>
<path d="M93.6901 242.213L105.429 248.548L105.243 249.293L94.0627 243.331L93.6901 242.213Z" fill="#AA1F14" stroke="#AA1F14" stroke-width="0.5"/>
<path d="M91.2678 249.666L93.6901 242.213L94.0628 243.331L92.1995 248.921L91.2678 249.666Z" fill="#AA1F14" stroke="#AA1F14" stroke-width="0.5"/>
<path d="M105.243 249.48L91.2678 249.666L92.1995 248.921L105.243 248.734V249.48Z" fill="#AA1F14" stroke="#AA1F14" stroke-width="0.5"/>
<path d="M95.3671 242.399L107.106 248.921L105.429 248.548L93.6901 242.213L95.3671 242.399Z" fill="#8A1405" stroke="#8A1405" stroke-width="0.5"/>
<path d="M92.1995 248.921L94.0628 243.331L95.5534 243.517L93.6901 249.107L92.1995 248.921Z" fill="#AC4227" stroke="#AC4227" stroke-width="0.5"/>
<path d="M106.733 249.666L92.9448 249.852L91.2678 249.666L105.243 249.48L106.733 249.666Z" fill="#8A1405" stroke="#8A1405" stroke-width="0.5"/>
<path d="M114.932 242.958L106.92 248.735H104.498L112.324 242.958H114.932Z" fill="#AA1F14" stroke="#AA1F14" stroke-width="0.5"/>
<path d="M115.677 249.852L114.746 243.889L114.932 242.958L116.236 250.597L115.677 249.852Z" fill="#8A200B" stroke="#8A200B" stroke-width="0.5"/>
<path d="M107.106 248.734L115.677 249.852L116.237 250.597L107.106 249.479V248.734Z" fill="#8A1F0A" stroke="#8A1F0A" stroke-width="0.5"/>
<path d="M113.069 249.852L112.137 243.889H114.746L115.677 249.852H113.069Z" fill="#AA2115" stroke="#AA2115" stroke-width="0.5"/>
<path d="M107.106 249.479L116.237 250.597H113.628L104.498 249.666L107.106 249.479Z" fill="#8A1405" stroke="#8A1405" stroke-width="0.5"/>
<path d="M114.746 243.889L107.106 249.293L106.92 248.734L114.932 242.958L114.746 243.889Z" fill="#8A1F0A" stroke="#8A1F0A" stroke-width="0.5"/>
<path d="M109.715 287.491H111.392L112.51 268.112L107.106 268.299L109.715 287.491Z" fill="url(#paint17_linear)"/>
<path d="M112.51 268.113H109.901L109.528 252.647H112.882L112.51 268.113Z" fill="url(#paint18_linear)"/>
<path d="M109.715 287.491L111.764 288.423L113.255 268.113L113.628 251.343L104.87 250.039L105.056 251.157L112.882 252.275L112.51 268.113L111.392 287.678L109.715 287.491Z" fill="url(#paint19_linear)"/>
<path d="M92.5722 266.809L93.1312 286.187L95.5535 286.932L92.5722 287.119L91.6405 267.181L91.8268 250.411L104.87 250.039L105.056 251.157L92.7585 251.716L92.5722 266.809Z" fill="url(#paint20_linear)"/>
<path d="M92.7586 251.716L96.2989 252.275L96.4852 267.74L92.5723 267.181L92.7586 251.716Z" fill="url(#paint21_linear)"/>
<path d="M92.5723 267.181L93.1313 286.187L95.5536 286.932L95.9263 267.74L92.5723 267.181Z" fill="url(#paint22_linear)"/>
<path d="M414.927 292.523L408.406 296.063L391.263 297.367L373.375 291.591L378.779 288.982L414.927 292.523Z" fill="#DEDEDE"/>
<path d="M393.313 266.995L379.152 264.759L400.58 264.013L415.673 266.249L393.313 266.995Z" fill="#B4B4B2" stroke="#B4B4B2" stroke-width="0.5"/>
<path d="M378.779 290.286L379.152 264.759L393.313 266.995L392.568 294.572L378.779 290.286Z" fill="#E2D7D3"/>
<path d="M392.568 294.572L393.313 266.994L415.673 266.249L414.928 292.522L392.568 294.572Z" fill="url(#paint23_linear)"/>
<path d="M398.53 261.964L398.344 262.337L396.294 262.523L398.53 261.964Z" fill="#AA1F14" stroke="#AA1F14" stroke-width="0.5"/>
<path d="M398.53 261.964L396.294 262.523L396.481 261.964H398.53Z" fill="#AA1F14" stroke="#AA1F14" stroke-width="0.5"/>
<path d="M396.294 262.709L398.344 261.964V262.523L396.294 262.709Z" fill="#AA1F14" stroke="#AA1F14" stroke-width="0.5"/>
<path d="M396.294 262.709V261.964H398.344L396.294 262.709Z" fill="#AA1F14" stroke="#AA1F14" stroke-width="0.5"/>
<path d="M396.481 262.526L397.785 262.154V262.713L396.481 262.526Z" fill="#8A1E09" stroke="#8A1E09" stroke-width="0.5"/>
<path d="M396.481 262.523V261.964L397.785 262.15L396.481 262.523Z" fill="#8A1E09" stroke="#8A1E09" stroke-width="0.5"/>
<path d="M397.599 261.964L396.481 262.336L396.294 261.777L397.599 261.964Z" fill="#871203" stroke="#871203" stroke-width="0.5"/>
<path d="M397.601 261.967L397.787 262.526L396.483 262.34L397.601 261.967Z" fill="#871203" stroke="#871203" stroke-width="0.5"/>
<path d="M392.943 265.318L377.85 263.082L400.769 262.337L417.166 264.573L392.943 265.318Z" fill="#FEFFFF"/>
<path d="M377.661 275.007L377.847 263.082L392.94 265.318L392.754 278.361L377.661 275.007Z" fill="#E3D7D3"/>
<path d="M392.754 278.361L392.94 265.318L417.164 264.573L416.791 276.87L392.754 278.361Z" fill="#83848D"/>
<path d="M411.015 262.523V263.641H405.984L405.611 262.71L411.015 262.523Z" fill="#8A1405" stroke="#8A1405" stroke-width="0.5"/>
<path d="M402.071 294.572L403.189 277.802H407.847L406.543 294.2L402.071 294.572Z" fill="#AA1F14" stroke="#AA1F14" stroke-width="0.5"/>
<path d="M403.189 277.802L403.561 264.014L408.22 263.827L407.847 277.802H403.189Z" fill="#AA1F14" stroke="#AA1F14" stroke-width="0.5"/>
<path d="M403.561 264.014L387.164 261.778L391.45 261.592L408.22 263.828L403.561 264.014Z" fill="#8A1405" stroke="#8A1405" stroke-width="0.5"/>
<path d="M383.437 292.522L382.692 276.312L385.487 277.057L386.232 293.454L383.437 292.522Z" fill="#8A1706" stroke="#8A1706" stroke-width="0.5"/>
<path d="M382.692 276.311L382.878 262.896L385.673 263.268L385.487 277.057L382.692 276.311Z" fill="#8A1A07" stroke="#8A1A07" stroke-width="0.5"/>
<path d="M382.881 262.895L408.036 262.15L411.017 262.523L385.676 263.268L382.881 262.895Z" fill="#8A1405" stroke="#8A1405" stroke-width="0.5"/>
<path d="M391.263 261.405L392.568 255.815L392.754 256.561L391.822 260.846L391.263 261.405Z" fill="#8A1E0A" stroke="#8A1E0A" stroke-width="0.5"/>
<path d="M389.4 261.405L390.518 255.815H392.568L391.263 261.405H389.4Z" fill="#AA1F14" stroke="#AA1F14" stroke-width="0.5"/>
<path d="M398.344 262.523L391.263 261.405L391.822 260.846L398.344 261.964V262.523Z" fill="#8A1E0A" stroke="#8A1E0A" stroke-width="0.5"/>
<path d="M392.568 255.815L398.53 261.964L398.344 262.337L392.754 256.561L392.568 255.815Z" fill="#8A1F0A" stroke="#8A1F0A" stroke-width="0.5"/>
<path d="M392.754 256.561L398.344 262.337L396.294 262.523L390.704 256.747L392.754 256.561Z" fill="#8A1405" stroke="#8A1405" stroke-width="0.5"/>
<path d="M396.294 262.71L389.4 261.406H391.263L398.344 262.524L396.294 262.71Z" fill="#8A1405" stroke="#8A1405" stroke-width="0.5"/>
<path d="M406.729 261.405L405.611 257.119L405.984 256.188L407.474 261.964L406.729 261.405Z" fill="#AA1F14" stroke="#AA1F14" stroke-width="0.5"/>
<path d="M396.481 261.964L406.729 261.405L407.474 261.964L396.481 262.523V261.964Z" fill="#AA1F14" stroke="#AA1F14" stroke-width="0.5"/>
<path d="M405.611 257.119L396.481 262.337L396.294 261.778L405.984 256.188L405.611 257.119Z" fill="#AA1F14" stroke="#AA1F14" stroke-width="0.5"/>
<path d="M396.481 262.523L407.474 261.964L408.779 262.151L397.785 262.71L396.481 262.523Z" fill="#8A1405" stroke="#8A1405" stroke-width="0.5"/>
<path d="M406.915 257.119L397.785 262.523L396.481 262.337L405.611 257.119H406.915Z" fill="#AA2015" stroke="#AA2015" stroke-width="0.5"/>
<path d="M407.474 261.964L405.983 256.188L407.288 256.374L408.778 262.15L407.474 261.964Z" fill="#8A1405" stroke="#8A1405" stroke-width="0.5"/>
<path d="M387.164 256.56L396.853 261.778L396.667 262.337L387.537 257.306L387.164 256.56Z" fill="#AA1F14" stroke="#AA1F14" stroke-width="0.5"/>
<path d="M385.301 262.71L387.164 256.561L387.537 257.306L386.046 262.151L385.301 262.71Z" fill="#AA1F14" stroke="#AA1F14" stroke-width="0.5"/>
<path d="M396.667 262.523L385.301 262.709L386.046 262.15L396.667 261.964V262.523Z" fill="#AA1F14" stroke="#AA1F14" stroke-width="0.5"/>
<path d="M388.469 256.747L398.158 261.964L396.853 261.778L387.164 256.56L388.469 256.747Z" fill="#8A1405" stroke="#8A1405" stroke-width="0.5"/>
<path d="M386.046 262.15L387.537 257.305L388.841 257.492L387.164 262.15H386.046Z" fill="#AC4227" stroke="#AC4227" stroke-width="0.5"/>
<path d="M397.971 262.709L386.419 262.895L385.301 262.709L396.667 262.522L397.971 262.709Z" fill="#8A1405" stroke="#8A1405" stroke-width="0.5"/>
<path d="M404.68 257.12L398.158 261.778L396.108 261.964L402.63 257.12H404.68Z" fill="#AA1F14" stroke="#AA1F14" stroke-width="0.5"/>
<path d="M405.238 262.709L404.493 257.865L404.68 257.119L405.797 263.455L405.238 262.709Z" fill="#8A200B" stroke="#8A200B" stroke-width="0.5"/>
<path d="M398.158 261.964L405.238 262.709L405.797 263.455L398.158 262.523V261.964Z" fill="#8A1F0A" stroke="#8A1F0A" stroke-width="0.5"/>
<path d="M403.189 262.896L402.257 258.051L404.493 257.865L405.238 262.709L403.189 262.896Z" fill="#AA2115" stroke="#AA2115" stroke-width="0.5"/>
<path d="M398.158 262.523L405.798 263.454H403.562L396.108 262.709L398.158 262.523Z" fill="#8A1405" stroke="#8A1405" stroke-width="0.5"/>
<path d="M404.493 257.865L398.158 262.337V261.778L404.679 257.119L404.493 257.865Z" fill="#8A1F0A" stroke="#8A1F0A" stroke-width="0.5"/>
<path d="M400.394 293.827H401.698L402.63 277.802L398.344 277.989L400.394 293.827Z" fill="url(#paint24_linear)"/>
<path d="M402.63 277.802H400.394L400.208 265.132H403.003L402.63 277.802Z" fill="url(#paint25_linear)"/>
<path d="M400.394 293.827L402.071 294.572L403.189 277.802L403.561 264.013L396.481 263.082V263.827L403.002 264.759L402.63 277.802L401.884 294.013L400.394 293.827Z" fill="url(#paint26_linear)"/>
<path d="M386.232 276.87L386.791 292.709L388.655 293.268L386.232 293.454L385.487 277.057L385.673 263.268L396.481 263.082V263.827L386.419 264.386L386.232 276.87Z" fill="url(#paint27_linear)"/>
<path d="M386.419 264.387L389.4 264.759L389.586 277.616L386.232 277.057L386.419 264.387Z" fill="url(#paint28_linear)"/>
<path d="M386.232 277.057L386.791 292.709L388.655 293.268L389.027 277.616L386.232 277.057Z" fill="url(#paint29_linear)"/>
<path d="M133.006 306.312L171.205 303.889L170.087 297.74L143.068 294.386L129.466 297.554L133.006 306.312Z" fill="#A6A6A6"/>
<path d="M135.988 300.535L134.497 282.088L168.596 281.902L166.919 300.535H135.988Z" fill="#A81C12"/>
<path d="M168.596 281.902L134.497 282.088V266.623L168.968 266.995L168.596 281.902Z" fill="#A81C12"/>
<path d="M135.056 266.623L168.409 266.995H168.968L134.497 266.623H135.056Z" fill="#A81C12"/>
<path d="M135.988 302.025V270.162L168.223 270.535L167.664 302.025H135.988Z" fill="#897077"/>
<path d="M135.988 302.025V270.162L168.223 270.535L167.664 302.025H135.988Z" fill="url(#paint30_linear)"/>
<path d="M134.683 268.113L136.547 267.554L165.987 267.927L169.528 268.486L134.683 268.113Z" fill="#B4B4B2"/>
<path d="M134.87 283.206L134.683 268.114L169.528 268.486L169.341 283.206H134.87Z" fill="#8B7C83"/>
<path d="M134.87 283.206L134.683 268.114L169.528 268.486L169.341 283.206H134.87Z" fill="url(#paint31_linear)"/>
<path d="M150.335 266.436L150.522 259.915H153.13L152.944 266.436H150.335Z" fill="#8A1405"/>
<path d="M152.944 266.436L153.13 259.915V260.846L152.944 265.877V266.436Z" fill="#AA1F14"/>
<path d="M153.317 266.623L152.944 266.436V265.877L153.317 266.064V266.623Z" fill="#AA1F14"/>
<path d="M153.13 260.846L153.317 266.436H150.522V260.846H153.13Z" fill="#8A1405"/>
<path d="M150.522 266.623L150.335 266.436H152.944L153.317 266.623H150.522Z" fill="#8A1405"/>
<path d="M153.13 259.915L153.317 265.877V266.436L153.13 260.846V259.915Z" fill="#AA1F14"/>
<path d="M150.522 266.063H153.317V266.622L150.522 266.063Z" fill="#8A1505"/>
<path d="M150.522 266.622V266.063L153.317 266.622H150.522Z" fill="#8A1505"/>
<path d="M153.317 265.877V266.436H150.522L153.317 265.877Z" fill="#8A1405"/>
<path d="M153.317 265.877L150.522 266.436V265.877H153.317Z" fill="#8A1405"/>
<path d="M151.64 266.622V266.063L151.826 266.622H151.64Z" fill="#AA1F14"/>
<path d="M151.64 266.063H151.826V266.622L151.64 266.063Z" fill="#AA1F14"/>
<path d="M151.453 265.877L151.826 266.436L151.453 265.877Z" fill="#8A1405"/>
<path d="M151.453 265.877L151.826 266.436L151.453 265.877Z" fill="#8A1405"/>
<path d="M165.614 266.064L163.938 260.846L164.31 259.915L166.546 266.623L165.614 266.064Z" fill="#8A1605"/>
<path d="M151.64 266.063H165.615L166.546 266.622H151.64V266.063Z" fill="#8A1605"/>
<path d="M163.938 260.848L151.826 266.438L151.453 265.879L164.31 259.916L163.938 260.848Z" fill="#8A1605"/>
<path d="M166.546 266.622L164.31 259.914L164.497 259.728L166.919 266.622H166.546Z" fill="#8A1405"/>
<path d="M152.012 266.622L136.919 266.249L137.851 265.69L152.012 266.063V266.622Z" fill="#8A1505"/>
<path d="M139.342 259.542L152.199 265.877L152.012 266.436L139.714 260.473L139.342 259.542Z" fill="#8A1605"/>
<path d="M136.921 266.252L139.343 259.544L139.716 260.475L137.852 265.693L136.921 266.252Z" fill="#8A1605"/>
<path d="M152.012 266.623L136.733 266.25H136.919L152.012 266.623Z" fill="#8A1405"/>
<path d="M139.155 259.356L152.199 265.877L139.342 259.542L139.155 259.356Z" fill="#6E0300"/>
<path d="M136.733 266.251L139.155 259.356L139.342 259.543L136.919 266.251H136.733Z" fill="#AA1F14"/>
<path d="M153.503 259.356L153.317 265.877H150.522V259.169L153.503 259.356Z" fill="#AA1F14"/>
<path d="M150.522 265.878V260.288H153.503V265.878H150.522Z" fill="#8A1C08"/>
<path d="M148.845 302.957L148.472 297.554L148.658 280.411L149.031 283.392L148.845 302.957Z" fill="#AA1F14"/>
<path d="M148.845 302.958L149.031 283.393L155.366 283.579L155.18 302.958H148.845Z" fill="#8A1405"/>
<path d="M149.031 283.393V266.996H155.553L155.366 283.579L149.031 283.393Z" fill="#8A1505"/>
<path d="M148.661 280.411V266.623L149.034 266.995V283.393L148.661 280.411Z" fill="#AA1F14"/>
<path d="M149.034 266.995L148.661 266.623H154.065L155.555 266.995H149.034Z" fill="#8A1405"/>
<defs>
<radialGradient id="paint0_radial" cx="0" cy="0" r="1" gradientUnits="userSpaceOnUse" gradientTransform="translate(107.033 284.281) scale(49.7007 15.0146)">
<stop stop-color="#9C9C9C"/>
<stop offset="1" stop-color="white"/>
</radialGradient>
<radialGradient id="paint1_radial" cx="0" cy="0" r="1" gradientUnits="userSpaceOnUse" gradientTransform="translate(405.905 288.468) scale(49.6955 10.8287)">
<stop stop-color="#9C9C9C"/>
<stop offset="1" stop-color="white"/>
</radialGradient>
<radialGradient id="paint2_radial" cx="0" cy="0" r="1" gradientUnits="userSpaceOnUse" gradientTransform="translate(251.34 291.822) scale(141.163 33.9356)">
<stop stop-color="#9C9C9C"/>
<stop offset="1" stop-color="white"/>
</radialGradient>
<linearGradient id="paint3_linear" x1="340.861" y1="252.986" x2="386.015" y2="252.986" gradientUnits="userSpaceOnUse">
<stop stop-color="white"/>
<stop offset="0.0507639" stop-color="#FDFAFA"/>
<stop offset="0.1134" stop-color="#F5ECEB"/>
<stop offset="0.1822" stop-color="#EAD4D2"/>
<stop offset="0.2556" stop-color="#D9B3AE"/>
<stop offset="0.3325" stop-color="#C48981"/>
<stop offset="0.4124" stop-color="#AA554A"/>
<stop offset="0.4933" stop-color="#8D190B"/>
<stop offset="0.5" stop-color="#8A1405"/>
<stop offset="0.5176" stop-color="#932618"/>
<stop offset="0.571" stop-color="#AC584E"/>
<stop offset="0.6265" stop-color="#C2857D"/>
<stop offset="0.6828" stop-color="#D5ABA5"/>
<stop offset="0.7404" stop-color="#E4C9C6"/>
<stop offset="0.7995" stop-color="#F0E1DF"/>
<stop offset="0.8608" stop-color="#F8F2F1"/>
<stop offset="0.9256" stop-color="#FDFCFC"/>
<stop offset="1" stop-color="white"/>
</linearGradient>
<linearGradient id="paint4_linear" x1="339.099" y1="238.305" x2="387.851" y2="238.305" gradientUnits="userSpaceOnUse">
<stop stop-color="white"/>
<stop offset="0.074404" stop-color="#FDFCFC"/>
<stop offset="0.1392" stop-color="#F8F2F1"/>
<stop offset="0.2005" stop-color="#F0E1DF"/>
<stop offset="0.2596" stop-color="#E4C9C6"/>
<stop offset="0.3172" stop-color="#D5ABA5"/>
<stop offset="0.3735" stop-color="#C2857D"/>
<stop offset="0.429" stop-color="#AC584E"/>
<stop offset="0.4824" stop-color="#932618"/>
<stop offset="0.5" stop-color="#8A1405"/>
<stop offset="0.539" stop-color="#A14337"/>
<stop offset="0.5817" stop-color="#B76E65"/>
<stop offset="0.6271" stop-color="#CA958F"/>
<stop offset="0.6744" stop-color="#DBB6B1"/>
<stop offset="0.7243" stop-color="#E8D1CE"/>
<stop offset="0.7777" stop-color="#F2E5E4"/>
<stop offset="0.8361" stop-color="#F9F4F3"/>
<stop offset="0.9034" stop-color="#FEFCFC"/>
<stop offset="1" stop-color="white"/>
</linearGradient>
<linearGradient id="paint5_linear" x1="140.093" y1="262.587" x2="169.128" y2="262.587" gradientUnits="userSpaceOnUse">
<stop stop-color="white"/>
<stop offset="0.0507639" stop-color="#FDFAFA"/>
<stop offset="0.1134" stop-color="#F5ECEB"/>
<stop offset="0.1822" stop-color="#EAD4D2"/>
<stop offset="0.2556" stop-color="#D9B3AE"/>
<stop offset="0.3325" stop-color="#C48981"/>
<stop offset="0.4124" stop-color="#AA554A"/>
<stop offset="0.4933" stop-color="#8D190B"/>
<stop offset="0.5" stop-color="#8A1405"/>
<stop offset="0.5176" stop-color="#932618"/>
<stop offset="0.571" stop-color="#AC584E"/>
<stop offset="0.6265" stop-color="#C2857D"/>
<stop offset="0.6828" stop-color="#D5ABA5"/>
<stop offset="0.7404" stop-color="#E4C9C6"/>
<stop offset="0.7995" stop-color="#F0E1DF"/>
<stop offset="0.8608" stop-color="#F8F2F1"/>
<stop offset="0.9256" stop-color="#FDFCFC"/>
<stop offset="1" stop-color="white"/>
</linearGradient>
<linearGradient id="paint6_linear" x1="138.96" y1="253.148" x2="170.309" y2="253.148" gradientUnits="userSpaceOnUse">
<stop stop-color="white"/>
<stop offset="0.074404" stop-color="#FDFCFC"/>
<stop offset="0.1392" stop-color="#F8F2F1"/>
<stop offset="0.2005" stop-color="#F0E1DF"/>
<stop offset="0.2596" stop-color="#E4C9C6"/>
<stop offset="0.3172" stop-color="#D5ABA5"/>
<stop offset="0.3735" stop-color="#C2857D"/>
<stop offset="0.429" stop-color="#AC584E"/>
<stop offset="0.4824" stop-color="#932618"/>
<stop offset="0.5" stop-color="#8A1405"/>
<stop offset="0.539" stop-color="#A14337"/>
<stop offset="0.5817" stop-color="#B76E65"/>
<stop offset="0.6271" stop-color="#CA958F"/>
<stop offset="0.6744" stop-color="#DBB6B1"/>
<stop offset="0.7243" stop-color="#E8D1CE"/>
<stop offset="0.7777" stop-color="#F2E5E4"/>
<stop offset="0.8361" stop-color="#F9F4F3"/>
<stop offset="0.9034" stop-color="#FEFCFC"/>
<stop offset="1" stop-color="white"/>
</linearGradient>
<linearGradient id="paint7_linear" x1="377.848" y1="283.174" x2="117.823" y2="283.174" gradientUnits="userSpaceOnUse">
<stop stop-color="#616161"/>
<stop offset="1" stop-color="#9C9C9C"/>
</linearGradient>
<linearGradient id="paint8_linear" x1="252.879" y1="23.1084" x2="253.854" y2="28.9373" gradientUnits="userSpaceOnUse">
<stop stop-color="#615A0D"/>
<stop offset="1" stop-color="#6F671F"/>
</linearGradient>
<linearGradient id="paint9_linear" x1="219.621" y1="293.543" x2="238.78" y2="293.543" gradientUnits="userSpaceOnUse">
<stop stop-color="#85828C"/>
<stop offset="1" stop-color="#81838E"/>
</linearGradient>
<linearGradient id="paint10_linear" x1="229.091" y1="297.678" x2="225.393" y2="298.12" gradientUnits="userSpaceOnUse">
<stop stop-color="#AA1F14"/>
<stop offset="0.1004" stop-color="#B53D33"/>
<stop offset="0.3483" stop-color="#CF817B"/>
<stop offset="0.571" stop-color="#E4B7B4"/>
<stop offset="0.7607" stop-color="#F3DEDD"/>
<stop offset="0.9098" stop-color="#FCF6F6"/>
<stop offset="1" stop-color="white"/>
</linearGradient>
<linearGradient id="paint11_linear" x1="229.208" y1="285.893" x2="226.594" y2="286.205" gradientUnits="userSpaceOnUse">
<stop stop-color="#AA1F14"/>
<stop offset="0.1004" stop-color="#B53D33"/>
<stop offset="0.3483" stop-color="#CF817B"/>
<stop offset="0.571" stop-color="#E4B7B4"/>
<stop offset="0.7607" stop-color="#F3DEDD"/>
<stop offset="0.9098" stop-color="#FCF6F6"/>
<stop offset="1" stop-color="white"/>
</linearGradient>
<linearGradient id="paint12_linear" x1="226.26" y1="305.606" x2="225.75" y2="279.954" gradientUnits="userSpaceOnUse">
<stop stop-color="#AA1F14"/>
<stop offset="0.0110255" stop-color="#AD2116"/>
<stop offset="0.1204" stop-color="#C4362A"/>
<stop offset="0.2446" stop-color="#D6463A"/>
<stop offset="0.3928" stop-color="#E35145"/>
<stop offset="0.5868" stop-color="#EB574B"/>
<stop offset="1" stop-color="#ED594D"/>
</linearGradient>
<linearGradient id="paint13_linear" x1="218.21" y1="280.342" x2="218.21" y2="304.012" gradientUnits="userSpaceOnUse">
<stop stop-color="#BE1C0C"/>
<stop offset="1" stop-color="#8A1405"/>
</linearGradient>
<linearGradient id="paint14_linear" x1="214.255" y1="285.727" x2="217.03" y2="285.727" gradientUnits="userSpaceOnUse">
<stop stop-color="#AA1F14"/>
<stop offset="0.1004" stop-color="#B53D33"/>
<stop offset="0.3483" stop-color="#CF817B"/>
<stop offset="0.571" stop-color="#E4B7B4"/>
<stop offset="0.7607" stop-color="#F3DEDD"/>
<stop offset="0.9098" stop-color="#FCF6F6"/>
<stop offset="1" stop-color="white"/>
</linearGradient>
<linearGradient id="paint15_linear" x1="214.255" y1="297.548" x2="216.599" y2="297.548" gradientUnits="userSpaceOnUse">
<stop stop-color="#AA1F14"/>
<stop offset="0.1004" stop-color="#B53D33"/>
<stop offset="0.3483" stop-color="#CF817B"/>
<stop offset="0.571" stop-color="#E4B7B4"/>
<stop offset="0.7607" stop-color="#F3DEDD"/>
<stop offset="0.9098" stop-color="#FCF6F6"/>
<stop offset="1" stop-color="white"/>
</linearGradient>
<linearGradient id="paint16_linear" x1="100.339" y1="271.179" x2="128.389" y2="271.179" gradientUnits="userSpaceOnUse">
<stop stop-color="#85828C"/>
<stop offset="1" stop-color="#81838E"/>
</linearGradient>
<linearGradient id="paint17_linear" x1="114.204" y1="277.231" x2="108.788" y2="277.878" gradientUnits="userSpaceOnUse">
<stop stop-color="#AA1F14"/>
<stop offset="0.1004" stop-color="#B53D33"/>
<stop offset="0.3483" stop-color="#CF817B"/>
<stop offset="0.571" stop-color="#E4B7B4"/>
<stop offset="0.7607" stop-color="#F3DEDD"/>
<stop offset="0.9098" stop-color="#FCF6F6"/>
<stop offset="1" stop-color="white"/>
</linearGradient>
<linearGradient id="paint18_linear" x1="114.376" y1="259.979" x2="110.549" y2="260.435" gradientUnits="userSpaceOnUse">
<stop stop-color="#AA1F14"/>
<stop offset="0.1004" stop-color="#B53D33"/>
<stop offset="0.3483" stop-color="#CF817B"/>
<stop offset="0.571" stop-color="#E4B7B4"/>
<stop offset="0.7607" stop-color="#F3DEDD"/>
<stop offset="0.9098" stop-color="#FCF6F6"/>
<stop offset="1" stop-color="white"/>
</linearGradient>
<linearGradient id="paint19_linear" x1="110.058" y1="288.84" x2="109.311" y2="251.284" gradientUnits="userSpaceOnUse">
<stop stop-color="#AA1F14"/>
<stop offset="0.0110255" stop-color="#AD2116"/>
<stop offset="0.1204" stop-color="#C4362A"/>
<stop offset="0.2446" stop-color="#D6463A"/>
<stop offset="0.3928" stop-color="#E35145"/>
<stop offset="0.5868" stop-color="#EB574B"/>
<stop offset="1" stop-color="#ED594D"/>
</linearGradient>
<linearGradient id="paint20_linear" x1="98.2734" y1="251.852" x2="98.2734" y2="286.508" gradientUnits="userSpaceOnUse">
<stop stop-color="#BE1C0C"/>
<stop offset="1" stop-color="#8A1405"/>
</linearGradient>
<linearGradient id="paint21_linear" x1="92.4823" y1="259.736" x2="96.5466" y2="259.736" gradientUnits="userSpaceOnUse">
<stop stop-color="#AA1F14"/>
<stop offset="0.1004" stop-color="#B53D33"/>
<stop offset="0.3483" stop-color="#CF817B"/>
<stop offset="0.571" stop-color="#E4B7B4"/>
<stop offset="0.7607" stop-color="#F3DEDD"/>
<stop offset="0.9098" stop-color="#FCF6F6"/>
<stop offset="1" stop-color="white"/>
</linearGradient>
<linearGradient id="paint22_linear" x1="92.4823" y1="277.041" x2="95.9151" y2="277.041" gradientUnits="userSpaceOnUse">
<stop stop-color="#AA1F14"/>
<stop offset="0.1004" stop-color="#B53D33"/>
<stop offset="0.3483" stop-color="#CF817B"/>
<stop offset="0.571" stop-color="#E4B7B4"/>
<stop offset="0.7607" stop-color="#F3DEDD"/>
<stop offset="0.9098" stop-color="#FCF6F6"/>
<stop offset="1" stop-color="white"/>
</linearGradient>
<linearGradient id="paint23_linear" x1="392.65" y1="280.389" x2="415.741" y2="280.389" gradientUnits="userSpaceOnUse">
<stop stop-color="#85828C"/>
<stop offset="1" stop-color="#81838E"/>
</linearGradient>
<linearGradient id="paint24_linear" x1="404.064" y1="285.373" x2="399.603" y2="285.905" gradientUnits="userSpaceOnUse">
<stop stop-color="#AA1F14"/>
<stop offset="0.1004" stop-color="#B53D33"/>
<stop offset="0.3483" stop-color="#CF817B"/>
<stop offset="0.571" stop-color="#E4B7B4"/>
<stop offset="0.7607" stop-color="#F3DEDD"/>
<stop offset="0.9098" stop-color="#FCF6F6"/>
<stop offset="1" stop-color="white"/>
</linearGradient>
<linearGradient id="paint25_linear" x1="404.205" y1="271.169" x2="401.054" y2="271.545" gradientUnits="userSpaceOnUse">
<stop stop-color="#AA1F14"/>
<stop offset="0.1004" stop-color="#B53D33"/>
<stop offset="0.3483" stop-color="#CF817B"/>
<stop offset="0.571" stop-color="#E4B7B4"/>
<stop offset="0.7607" stop-color="#F3DEDD"/>
<stop offset="0.9098" stop-color="#FCF6F6"/>
<stop offset="1" stop-color="white"/>
</linearGradient>
<linearGradient id="paint26_linear" x1="400.65" y1="294.93" x2="400.035" y2="264.01" gradientUnits="userSpaceOnUse">
<stop stop-color="#AA1F14"/>
<stop offset="0.0110255" stop-color="#AD2116"/>
<stop offset="0.1204" stop-color="#C4362A"/>
<stop offset="0.2446" stop-color="#D6463A"/>
<stop offset="0.3928" stop-color="#E35145"/>
<stop offset="0.5868" stop-color="#EB574B"/>
<stop offset="1" stop-color="#ED594D"/>
</linearGradient>
<linearGradient id="paint27_linear" x1="390.948" y1="264.478" x2="390.948" y2="293.009" gradientUnits="userSpaceOnUse">
<stop stop-color="#BE1C0C"/>
<stop offset="1" stop-color="#8A1405"/>
</linearGradient>
<linearGradient id="paint28_linear" x1="386.181" y1="270.969" x2="389.525" y2="270.969" gradientUnits="userSpaceOnUse">
<stop stop-color="#AA1F14"/>
<stop offset="0.1004" stop-color="#B53D33"/>
<stop offset="0.3483" stop-color="#CF817B"/>
<stop offset="0.571" stop-color="#E4B7B4"/>
<stop offset="0.7607" stop-color="#F3DEDD"/>
<stop offset="0.9098" stop-color="#FCF6F6"/>
<stop offset="1" stop-color="white"/>
</linearGradient>
<linearGradient id="paint29_linear" x1="386.181" y1="285.216" x2="389.005" y2="285.216" gradientUnits="userSpaceOnUse">
<stop stop-color="#AA1F14"/>
<stop offset="0.1004" stop-color="#B53D33"/>
<stop offset="0.3483" stop-color="#CF817B"/>
<stop offset="0.571" stop-color="#E4B7B4"/>
<stop offset="0.7607" stop-color="#F3DEDD"/>
<stop offset="0.9098" stop-color="#FCF6F6"/>
<stop offset="1" stop-color="white"/>
</linearGradient>
<linearGradient id="paint30_linear" x1="135.986" y1="286.142" x2="168.186" y2="286.142" gradientUnits="userSpaceOnUse">
<stop stop-color="white"/>
<stop offset="0.0507639" stop-color="#FDFAFA"/>
<stop offset="0.1134" stop-color="#F5ECEB"/>
<stop offset="0.1822" stop-color="#EAD4D2"/>
<stop offset="0.2556" stop-color="#D9B3AE"/>
<stop offset="0.3325" stop-color="#C48981"/>
<stop offset="0.4124" stop-color="#AA554A"/>
<stop offset="0.4933" stop-color="#8D190B"/>
<stop offset="0.5" stop-color="#8A1405"/>
<stop offset="0.5176" stop-color="#932618"/>
<stop offset="0.571" stop-color="#AC584E"/>
<stop offset="0.6265" stop-color="#C2857D"/>
<stop offset="0.6828" stop-color="#D5ABA5"/>
<stop offset="0.7404" stop-color="#E4C9C6"/>
<stop offset="0.7995" stop-color="#F0E1DF"/>
<stop offset="0.8608" stop-color="#F8F2F1"/>
<stop offset="0.9256" stop-color="#FDFCFC"/>
<stop offset="1" stop-color="white"/>
</linearGradient>
<linearGradient id="paint31_linear" x1="134.729" y1="275.674" x2="169.496" y2="275.674" gradientUnits="userSpaceOnUse">
<stop stop-color="white"/>
<stop offset="0.074404" stop-color="#FDFCFC"/>
<stop offset="0.1392" stop-color="#F8F2F1"/>
<stop offset="0.2005" stop-color="#F0E1DF"/>
<stop offset="0.2596" stop-color="#E4C9C6"/>
<stop offset="0.3172" stop-color="#D5ABA5"/>
<stop offset="0.3735" stop-color="#C2857D"/>
<stop offset="0.429" stop-color="#AC584E"/>
<stop offset="0.4824" stop-color="#932618"/>
<stop offset="0.5" stop-color="#8A1405"/>
<stop offset="0.539" stop-color="#A14337"/>
<stop offset="0.5817" stop-color="#B76E65"/>
<stop offset="0.6271" stop-color="#CA958F"/>
<stop offset="0.6744" stop-color="#DBB6B1"/>
<stop offset="0.7243" stop-color="#E8D1CE"/>
<stop offset="0.7777" stop-color="#F2E5E4"/>
<stop offset="0.8361" stop-color="#F9F4F3"/>
<stop offset="0.9034" stop-color="#FEFCFC"/>
<stop offset="1" stop-color="white"/>
</linearGradient>
</defs>
</svg>
