<svg width="191" height="48" viewBox="0 0 191 48" fill="none" xmlns="http://www.w3.org/2000/svg">
<g clip-path="url(#clip0)">
<path fill-rule="evenodd" clip-rule="evenodd" d="M52.8961 33.5507C54.4226 30.4423 55.2808 26.9391 55.2808 23.2333C55.2808 10.4019 44.9916 0 32.2992 0C19.6067 0 9.31748 10.4019 9.31748 23.2333C9.31748 23.5646 9.32434 23.8945 9.33793 24.2225C5.75021 27.535 1.80139 31.988 0.157246 33.8767C0.0795447 33.9667 0.0281069 34.0767 0.00867774 34.1945C-0.0107514 34.3124 0.0025934 34.4333 0.0472214 34.544C0.0918494 34.6545 0.166003 34.7504 0.261399 34.8208C0.356794 34.8913 0.469675 34.9335 0.587433 34.9428C6.10015 35.3863 8.79076 34.0762 10.5335 31.9465C11.2801 31.0341 11.7124 29.5916 12.1859 28.0113C12.8177 25.9028 13.523 23.5491 15.1464 21.8821L24.0322 14.6467C24.1913 14.5306 24.3325 14.4229 24.4537 14.3248C25.0304 13.8589 25.7228 13.0696 26.5186 12.1625L26.5187 12.1624C27.8304 10.6672 29.423 8.8519 31.2408 7.63687C32.4157 6.71757 33.9747 6.15525 35.6848 6.15525C36.6334 6.1518 37.5739 6.32967 38.457 6.67949C38.8655 6.81347 39.251 7.01024 39.6002 7.26289C39.6038 7.26459 39.6069 7.26689 39.6097 7.26969C40.4359 7.78527 41.1252 8.49692 41.6178 9.34285C42.5883 9.46185 44.8076 9.64271 44.8076 9.64271C44.9305 9.65719 45.045 9.7132 45.1325 9.80169C45.2201 9.89017 45.2755 10.0059 45.2898 10.1302C45.4572 11.5459 45.2831 16.0812 38.652 18.0224C35.5577 18.9274 33.74 21.8854 32.6539 25.5571C32.6191 25.6753 32.5732 25.889 32.5223 26.1472C32.523 26.3657 32.5428 26.6711 32.7075 27.1371C32.8367 27.5028 32.9479 27.77 33.0427 27.9688L33.0446 27.9576C34.8588 30.5853 36.708 32.6084 38.5662 34.0476C40.9714 35.6156 44.3137 37.2339 46.3474 36.206C47.277 35.7361 48.6171 34.0214 48.1946 32.5271C45.745 27.8959 41.5355 24.7516 38.4867 23.383C38.4337 23.3479 38.3932 23.2966 38.3707 23.2366C38.3483 23.1767 38.3451 23.1111 38.3618 23.0493C38.3784 22.9874 38.414 22.9324 38.4633 22.8923C38.5127 22.852 38.5734 22.8287 38.6367 22.8254C41.5857 22.6711 44.3552 23.0614 45.9625 23.3333C46.4583 23.4182 46.9297 23.6123 47.3432 23.9018L47.9585 24.3329C47.9863 24.3526 48.02 24.3622 48.0539 24.3602C48.0879 24.3581 48.1201 24.3445 48.1454 24.3216C48.1707 24.2987 48.1877 24.2678 48.1934 24.2339C48.1991 24.2001 48.1934 24.1652 48.1771 24.1351C47.7417 23.3177 47.6096 22.37 47.8045 21.4629C48.1623 19.8011 48.6236 18.0488 49.0271 16.6053C49.0476 16.5319 49.0886 16.466 49.1454 16.4157C49.202 16.3654 49.272 16.3328 49.3466 16.3219C49.4213 16.3109 49.4975 16.3221 49.566 16.354C49.6345 16.386 49.6924 16.4374 49.7326 16.502C51.8673 19.9308 52.9967 23.9014 52.9897 27.9529C52.9899 28.9344 52.9243 29.9145 52.7933 30.8866C52.793 31.0153 52.7919 31.1225 52.7909 31.2179C52.7873 31.546 52.7853 31.7325 52.8304 32.1661C52.8792 32.6338 52.9228 33.1669 52.8961 33.5507ZM36.5687 12.0105C36.5488 12.0144 36.5429 12.0144 36.5488 12.0109C36.5806 12.0068 36.589 12.0063 36.5687 12.0105ZM19.5781 42.3463C19.5055 39.8914 19.3868 35.8771 22.4702 33.5L28.4404 29.8165C29.4939 30.349 27.5955 37.8946 26.8604 40.4654C26.0508 43.2985 23.3781 46.163 21.405 47.1611C21.0996 47.3157 20.7885 47.4652 20.4785 47.6143C20.3416 47.68 20.2049 47.7458 20.069 47.8117C19.2068 48.2305 18.8818 47.8745 18.9676 47.4791C18.9676 47.4791 19.5944 45.5009 19.597 43.2671C19.5974 42.9957 19.5882 42.6859 19.5781 42.3463Z" fill="url(#paint0_linear)"/>
<path d="M70.6538 10.9364C70.6538 10.4819 70.8246 10.091 71.1664 9.76371C71.526 9.43643 71.9577 9.2728 72.4613 9.2728H84.6821C84.6821 10.3637 84.4932 11.1637 84.1155 11.6728C83.7559 12.1637 83.1624 12.4092 82.335 12.4092H74.2688V17.0183H81.4448C81.4448 18.1092 81.2559 18.9091 80.8782 19.4183C80.5186 19.9092 79.9251 20.1546 79.0977 20.1546H74.2688V26.0183C74.2688 26.9273 73.981 27.591 73.4055 28.0092C72.83 28.4092 71.9128 28.6092 70.6538 28.6092V10.9364ZM89.8956 28.6092C88.4029 28.6092 87.2698 28.1819 86.4965 27.3273C85.7411 26.4546 85.3634 25.3547 85.3634 24.0273V11.1001C85.3634 10.3546 85.6332 9.82734 86.1727 9.51825C86.7303 9.19098 87.5846 9.02734 88.7356 9.02734V23.891C88.7356 24.5092 88.8705 24.9637 89.1402 25.2546C89.41 25.5273 89.8416 25.6637 90.4351 25.6637C91.1006 25.6637 91.7661 25.491 92.4315 25.1455C92.6114 25.3092 92.7463 25.5183 92.8361 25.7728C92.9441 26.0092 92.998 26.2547 92.998 26.5092C92.998 27.0546 92.7282 27.5455 92.1887 27.9819C91.6491 28.4 90.8848 28.6092 89.8956 28.6092ZM95.81 13.2001C95.1626 13.2001 94.623 13.0092 94.1914 12.6273C93.7778 12.2273 93.5709 11.7183 93.5709 11.1001C93.5709 10.5001 93.7778 10.0092 94.1914 9.62734C94.623 9.22734 95.1626 9.02734 95.81 9.02734C96.4575 9.02734 96.9881 9.22734 97.4017 9.62734C97.8333 10.0092 98.0491 10.5001 98.0491 11.1001C98.0491 11.7183 97.8333 12.2273 97.4017 12.6273C96.9881 13.0092 96.4575 13.2001 95.81 13.2001ZM94.1104 16.5546C94.1104 15.8092 94.3892 15.2819 94.9467 14.9728C95.5043 14.6455 96.3496 14.4819 97.4826 14.4819V26.5364C97.4826 27.2638 97.2039 27.791 96.6463 28.1183C96.0888 28.4455 95.2435 28.6092 94.1104 28.6092V16.5546ZM99.4838 16.8273C99.4838 16.1546 99.7446 15.6001 100.266 15.1637C100.788 14.7091 101.561 14.4819 102.586 14.4819V15.9546C102.28 16.3728 102.11 16.6182 102.074 16.691L102.182 16.8001C102.757 16.0364 103.387 15.4637 104.07 15.0819C104.771 14.6819 105.635 14.4819 106.66 14.4819C107.649 14.4819 108.521 14.691 109.277 15.1092C110.049 15.5092 110.653 16.0819 111.084 16.8273C111.516 17.5728 111.732 18.4274 111.732 19.391V23.7001C111.732 24.6819 111.489 25.5456 111.003 26.291C110.535 27.0364 109.888 27.6091 109.061 28.0092C108.233 28.4092 107.298 28.6092 106.255 28.6092C105.59 28.6092 104.897 28.4728 104.178 28.2001C103.476 27.9091 102.883 27.5183 102.397 27.0273L102.289 27.1637C102.415 27.3456 102.613 27.5365 102.883 27.7364V31.7728C102.883 33.3001 101.75 34.0637 99.4838 34.0637V16.8273ZM105.608 25.6637C106.489 25.6637 107.172 25.4728 107.658 25.091C108.144 24.7092 108.387 24.1728 108.387 23.4819V19.6092C108.387 18.9001 108.144 18.3637 107.658 18.0001C107.19 17.6183 106.507 17.4273 105.608 17.4273C104.798 17.4273 104.133 17.6273 103.611 18.0273C103.09 18.4092 102.829 18.891 102.829 19.4728V23.6183C102.829 24.1819 103.081 24.6637 103.584 25.0637C104.106 25.4637 104.78 25.6637 105.608 25.6637ZM112.668 16.8273C112.668 16.1546 112.928 15.6001 113.451 15.1637C113.972 14.7091 114.746 14.4819 115.771 14.4819V15.9546C115.464 16.3728 115.294 16.6182 115.258 16.691L115.366 16.8001C115.941 16.0364 116.57 15.4637 117.255 15.0819C117.956 14.6819 118.819 14.4819 119.844 14.4819C120.833 14.4819 121.706 14.691 122.461 15.1092C123.234 15.5092 123.837 16.0819 124.269 16.8273C124.7 17.5728 124.916 18.4274 124.916 19.391V23.7001C124.916 24.6819 124.673 25.5456 124.188 26.291C123.719 27.0364 123.072 27.6091 122.245 28.0092C121.418 28.4092 120.482 28.6092 119.44 28.6092C118.774 28.6092 118.081 28.4728 117.362 28.2001C116.661 27.9091 116.068 27.5183 115.582 27.0273L115.474 27.1637C115.599 27.3456 115.798 27.5365 116.068 27.7364V31.7728C116.068 33.3001 114.935 34.0637 112.668 34.0637V16.8273ZM118.792 25.6637C119.673 25.6637 120.357 25.4728 120.843 25.091C121.328 24.7092 121.571 24.1728 121.571 23.4819V19.6092C121.571 18.9001 121.328 18.3637 120.843 18.0001C120.374 17.6183 119.691 17.4273 118.792 17.4273C117.983 17.4273 117.317 17.6273 116.796 18.0273C116.274 18.4092 116.014 18.891 116.014 19.4728V23.6183C116.014 24.1819 116.265 24.6637 116.769 25.0637C117.29 25.4637 117.965 25.6637 118.792 25.6637ZM131.733 28.6092C130.618 28.6092 129.602 28.391 128.684 27.9546C127.767 27.5 127.039 26.891 126.499 26.1273C125.96 25.3455 125.69 24.4728 125.69 23.5092V19.8819C125.69 18.8637 125.969 17.9455 126.526 17.1273C127.084 16.3092 127.821 15.6637 128.738 15.191C129.674 14.7183 130.681 14.4819 131.76 14.4819C132.822 14.4819 133.793 14.7091 134.673 15.1637C135.573 15.6001 136.283 16.2183 136.805 17.0183C137.327 17.8001 137.587 18.7001 137.587 19.7183V21.2455C137.587 21.6456 137.435 21.9819 137.128 22.2546C136.841 22.5273 136.472 22.6637 136.022 22.6637H128.954V23.2637C128.954 24.0456 129.188 24.6819 129.656 25.1728C130.124 25.6637 130.825 25.9092 131.76 25.9092C132.66 25.9092 133.324 25.7092 133.756 25.3092C134.206 24.9091 134.431 24.3909 134.431 23.7546C134.754 23.7183 134.98 23.7001 135.105 23.7001C135.771 23.7001 136.292 23.8547 136.67 24.1637C137.047 24.4547 137.236 24.8728 137.236 25.4183C137.236 25.9455 136.993 26.4546 136.508 26.9455C136.022 27.4364 135.357 27.8365 134.511 28.1455C133.667 28.4546 132.741 28.6092 131.733 28.6092ZM134.538 20.2364V19.7183C134.538 18.9546 134.278 18.3364 133.756 17.8637C133.235 17.391 132.56 17.1546 131.733 17.1546C130.906 17.1546 130.232 17.391 129.709 17.8637C129.207 18.3183 128.954 18.9364 128.954 19.7183V20.2364H134.538ZM145.364 17.4273C144.302 17.4273 143.439 17.7183 142.774 18.3001C142.108 18.8637 141.776 19.5728 141.776 20.4273V26.5364C141.776 27.2638 141.506 27.791 140.967 28.1183C140.427 28.4455 139.581 28.6092 138.431 28.6092V17.1001C138.431 16.2637 138.691 15.6183 139.213 15.1637C139.753 14.7091 140.562 14.4819 141.641 14.4819V16.091C141.371 16.4 141.155 16.7 140.994 16.991L141.155 17.1001C142.289 15.3546 143.709 14.4819 145.418 14.4819C146.191 14.4819 146.775 14.691 147.171 15.1092C147.566 15.5092 147.765 16.0182 147.765 16.6364C147.765 17.1091 147.639 17.5092 147.387 17.8364C146.902 17.5637 146.227 17.4273 145.364 17.4273ZM148.322 10.9364C148.322 10.4819 148.492 10.091 148.834 9.76371C149.194 9.43643 149.625 9.2728 150.129 9.2728H162.35C162.35 10.3637 162.161 11.1637 161.783 11.6728C161.423 12.1637 160.83 12.4092 160.003 12.4092H151.937V17.0183H159.113C159.113 18.1092 158.924 18.9091 158.546 19.4183C158.186 19.9092 157.592 20.1546 156.766 20.1546H151.937V26.0183C151.937 26.9273 151.649 27.591 151.073 28.0092C150.497 28.4092 149.58 28.6092 148.322 28.6092V10.9364ZM167.563 28.6092C166.071 28.6092 164.938 28.1819 164.164 27.3273C163.409 26.4546 163.031 25.3547 163.031 24.0273V11.1001C163.031 10.3546 163.301 9.82734 163.84 9.51825C164.398 9.19098 165.252 9.02734 166.403 9.02734V23.891C166.403 24.5092 166.538 24.9637 166.808 25.2546C167.077 25.5273 167.509 25.6637 168.103 25.6637C168.768 25.6637 169.433 25.491 170.099 25.1455C170.279 25.3092 170.414 25.5183 170.504 25.7728C170.612 26.0092 170.666 26.2547 170.666 26.5092C170.666 27.0546 170.396 27.5455 169.856 27.9819C169.317 28.4 168.553 28.6092 167.563 28.6092ZM173.478 13.2001C172.83 13.2001 172.291 13.0092 171.859 12.6273C171.446 12.2273 171.239 11.7183 171.239 11.1001C171.239 10.5001 171.446 10.0092 171.859 9.62734C172.291 9.22734 172.83 9.02734 173.478 9.02734C174.125 9.02734 174.656 9.22734 175.069 9.62734C175.501 10.0092 175.717 10.5001 175.717 11.1001C175.717 11.7183 175.501 12.2273 175.069 12.6273C174.656 13.0092 174.125 13.2001 173.478 13.2001ZM171.778 16.5546C171.778 15.8092 172.056 15.2819 172.614 14.9728C173.172 14.6455 174.017 14.4819 175.15 14.4819V26.5364C175.15 27.2638 174.872 27.791 174.314 28.1183C173.756 28.4455 172.911 28.6092 171.778 28.6092V16.5546ZM177.151 16.8273C177.151 16.1546 177.412 15.6001 177.933 15.1637C178.456 14.7091 179.228 14.4819 180.253 14.4819V15.9546C179.948 16.3728 179.777 16.6182 179.741 16.691L179.849 16.8001C180.425 16.0364 181.054 15.4637 181.737 15.0819C182.438 14.6819 183.302 14.4819 184.327 14.4819C185.316 14.4819 186.188 14.691 186.944 15.1092C187.717 15.5092 188.32 16.0819 188.751 16.8273C189.183 17.5728 189.399 18.4274 189.399 19.391V23.7001C189.399 24.6819 189.156 25.5456 188.67 26.291C188.203 27.0364 187.556 27.6091 186.728 28.0092C185.901 28.4092 184.966 28.6092 183.922 28.6092C183.257 28.6092 182.565 28.4728 181.845 28.2001C181.144 27.9091 180.55 27.5183 180.064 27.0273L179.957 27.1637C180.083 27.3456 180.28 27.5365 180.55 27.7364V31.7728C180.55 33.3001 179.417 34.0637 177.151 34.0637V16.8273ZM183.275 25.6637C184.156 25.6637 184.839 25.4728 185.325 25.091C185.811 24.7092 186.053 24.1728 186.053 23.4819V19.6092C186.053 18.9001 185.811 18.3637 185.325 18.0001C184.858 17.6183 184.175 17.4273 183.275 17.4273C182.465 17.4273 181.801 17.6273 181.278 18.0273C180.757 18.4092 180.496 18.891 180.496 19.4728V23.6183C180.496 24.1819 180.749 24.6637 181.251 25.0637C181.774 25.4637 182.448 25.6637 183.275 25.6637Z" fill="white"/>
</g>
<defs>
<linearGradient id="paint0_linear" x1="38.9739" y1="13.8434" x2="-2.82437" y2="35.3014" gradientUnits="userSpaceOnUse">
<stop stop-color="#18EDFF"/>
<stop offset="1" stop-color="#00C1EC"/>
</linearGradient>
<clipPath id="clip0">
</clipPath>
</defs>
</svg>
