<svg width="104" height="34" viewBox="0 0 104 34" fill="none" xmlns="http://www.w3.org/2000/svg">
<path d="M14.8893 33.9103H0.616583C-0.0401604 33.9103 -0.0614718 33.8804 0.0536758 33.2195L4.92782 5.58216C4.99605 5.18561 5.08135 4.79324 5.13674 4.40088C5.1341 4.16541 5.32282 3.97234 5.55835 3.96969C5.58137 3.96942 5.60438 3.97102 5.62718 3.97449H28.5352C29.3881 3.97449 29.3881 3.97449 29.5331 3.16426C29.678 2.35404 29.8572 1.45852 29.9595 0.605672C30.0235 0.153669 30.2196 -0.00415736 30.6759 8.29125e-05C32.3134 0.0213944 33.951 8.29125e-05 35.5927 8.29125e-05H59.1873C59.9889 8.29125e-05 60.0018 8.26099e-05 59.8653 0.776218C58.7765 6.96234 57.6834 13.1471 56.5861 19.3305C56.0175 22.6083 55.4489 25.8861 54.8803 29.164C54.7523 29.889 54.7523 29.8975 54.0274 29.8975H31.3582C30.5736 29.8975 30.5693 29.8975 30.4328 30.6651C30.2964 31.4326 30.1471 32.3111 30.0064 33.1341C29.8656 33.9571 29.8656 33.8931 29.0682 33.8931L14.8893 33.9103ZM47.6309 15.5949H43.1875C42.7994 15.5949 42.616 15.7228 42.5606 16.1066C42.454 16.8316 42.3133 17.548 42.1939 18.2687C42.0873 18.9083 42.1001 18.9212 42.7397 18.9212H47.6735C47.8399 18.9212 48.0616 18.8486 48.1597 19.0192C48.2577 19.1898 48.0488 19.322 47.9422 19.4456C46.4328 21.2156 44.3118 22.3515 42.002 22.6268C37.5884 23.1855 34.113 19.5694 34.9659 15.1898C35.7335 11.2282 38.2067 8.79755 42.0318 7.76133C45.0552 6.94257 48.1981 8.16641 49.5669 10.9766C49.6678 11.1843 49.8936 11.3007 50.1213 11.2624H52.7908C53.3707 11.2624 53.4048 11.2197 53.2555 10.6653C52.7453 8.6286 51.4822 6.86096 49.7204 5.71867C47.1959 4.07262 44.4412 3.88076 41.5798 4.55452C36.2579 5.80821 31.9168 10.7634 31.469 16.1962C31.2473 18.8614 31.9253 21.3135 33.8358 23.2579C36.2238 25.7185 39.2003 26.3837 42.4753 25.8464C45.9721 25.2707 48.7353 23.42 50.9144 20.6652C51.4412 20.1036 51.8399 19.4343 52.0829 18.7036C52.2876 17.8508 52.3771 16.9979 52.5477 16.1451C52.6329 15.7186 52.5051 15.5949 52.0829 15.5992C50.5946 15.6035 49.1149 15.5949 47.6352 15.5949H47.6309V15.5949ZM24.7868 29.4626C24.9361 29.3816 24.9191 29.2835 24.9361 29.2025C25.2773 27.2835 25.6142 25.3646 25.9595 23.4413C26.0201 23.1155 25.9846 22.7792 25.8572 22.4733C23.8671 17.4726 21.8771 12.4705 19.8871 7.46704C19.8274 7.31345 19.8231 7.06614 19.6398 7.04059C19.4564 7.01504 19.3839 7.24952 19.2858 7.38168C16.6362 10.9069 13.9895 14.4321 11.3456 17.9573C8.5198 21.7156 5.69541 25.4824 2.8724 29.2579C2.77432 29.39 2.57817 29.5181 2.67624 29.6843C2.77432 29.8506 2.96194 29.7695 3.10269 29.7738H5.81909C6.13486 29.7912 6.4358 29.6383 6.608 29.373C8.11329 27.3432 9.63565 25.3261 11.1325 23.292C11.3166 23.0009 11.641 22.8289 11.9854 22.84H21.5502C21.9206 22.7918 22.2686 23.028 22.3605 23.39C23.0214 25.1342 23.7165 26.8613 24.3988 28.5968C24.5438 28.8996 24.6461 29.1769 24.7868 29.4626Z" fill="#494949"/>
<path d="M64.7338 25.1724H66.3543C66.6656 25.1724 66.8276 25.2662 66.7168 25.5988L65.7189 28.682C65.6611 28.8491 65.5335 28.9829 65.3691 29.0486C63.9345 29.792 62.305 30.0735 60.704 29.8546C59.0964 29.586 58.2009 28.5753 58.2051 26.9421C58.2051 24.6009 59.7104 22.0212 62.269 21.3302C63.2312 21.0598 64.2492 21.0598 65.2114 21.3302C66.2425 21.5819 67.0282 22.4178 67.2156 23.4624C67.2881 23.7823 67.2156 23.9741 66.8532 23.9869C66.6786 23.9878 66.5044 24.0049 66.3329 24.0381C65.8127 24.1532 65.4417 24.1234 65.1816 23.5094C64.8575 22.7418 63.9024 22.5158 62.8278 22.8058C61.8914 23.0638 61.1134 23.7158 60.6955 24.5924C60.3202 25.2857 60.1306 26.0643 60.1455 26.8526C60.1005 27.626 60.6911 28.2895 61.4647 28.3344C61.5025 28.3367 61.5403 28.3374 61.5783 28.3365C62.3286 28.379 63.0795 28.2643 63.7829 27.9996C64.3031 27.8247 64.3031 27.3386 64.414 26.9378C64.4737 26.7161 64.2392 26.7246 64.0857 26.7246H62.7808C62.3288 26.7246 62.2733 26.5625 62.4056 26.1872C62.8063 25.0189 62.623 25.2064 63.7531 25.1895H64.7467L64.7338 25.1724Z" fill="#494949"/>
<path d="M77.4115 24.1014C78.2132 23.6068 78.9638 23.3168 79.8252 23.4874C80.1765 23.5237 80.4914 23.7205 80.678 24.0204C80.8528 24.3446 81.0063 24.2678 81.2452 24.0973C81.9278 23.5634 82.806 23.3462 83.6587 23.5002C84.3031 23.5632 84.7757 24.1348 84.7163 24.7794C84.7114 25.1106 84.6539 25.4388 84.5457 25.7517C84.1662 26.9458 83.7696 28.1397 83.3987 29.3379C83.3445 29.6389 83.0674 29.8472 82.7632 29.8156C81.0234 29.8156 81.339 29.8881 81.7611 28.5065C82.0554 27.5385 82.3795 26.5833 82.6865 25.6195C82.759 25.3892 82.8656 25.1292 82.6609 24.9287C82.4347 24.7501 82.1226 24.7264 81.872 24.869C81.333 25.0954 80.9105 25.5333 80.7036 26.0801C80.2872 27.0959 79.9355 28.137 79.6503 29.1973C79.5893 29.6048 79.2093 29.8858 78.8018 29.8247L78.7974 29.8241C77.3092 29.7985 77.5181 29.8796 77.9233 28.6087C78.243 27.5939 78.5799 26.5875 78.8827 25.5684C79.066 24.9543 78.7548 24.6516 78.1407 24.8434C77.4535 25.091 76.9351 25.6654 76.759 26.3743C76.452 27.2656 76.1365 28.1525 75.9062 29.0608C75.8463 29.5494 75.4018 29.8969 74.9132 29.837C74.8872 29.8339 74.8615 29.8296 74.8358 29.8241C73.6248 29.7772 73.7271 29.8625 74.0854 28.7453C74.5757 27.2186 75.0874 25.7007 75.5608 24.1697C75.6887 23.7433 75.8934 23.5471 76.3412 23.6026C76.55 23.6154 76.7593 23.6154 76.968 23.6026C77.241 23.5939 77.5778 23.547 77.4115 24.1014Z" fill="#494949"/>
<path d="M100.06 29.3298C99.292 29.6922 98.5799 29.9566 97.7824 29.7562C97.1163 29.6171 96.591 29.105 96.4349 28.4427C95.9573 26.6945 97.0831 24.3746 98.7503 23.7009C99.7823 23.2745 100.763 23.317 101.573 24.2041C101.714 24.3618 101.846 24.4172 101.889 24.1657C101.991 23.5517 102.435 23.6028 102.882 23.607C103.876 23.607 103.88 23.607 103.569 24.5665C103.002 26.3064 102.46 28.0547 101.863 29.7818C101.087 32.0249 98.8228 32.963 96.6225 31.995C95.9455 31.7603 95.5578 31.0494 95.7271 30.3532C95.7654 30.0845 95.8933 29.9865 96.1534 30.0206L97.3943 30.2081C97.5153 30.2244 97.6214 30.2972 97.68 30.4043C98.0392 30.9602 98.781 31.1194 99.3368 30.7603C99.4793 30.6682 99.6006 30.5468 99.6928 30.4043C99.8957 30.079 100.021 29.7114 100.06 29.3298ZM101.087 25.9909C101.165 25.5225 100.914 25.0614 100.477 24.8736C100.031 24.6882 99.5163 24.8083 99.1982 25.1721C98.6857 25.702 98.3518 26.379 98.243 27.1081C98.0724 27.6593 98.381 28.2445 98.9322 28.4149C99.2761 28.5213 99.6505 28.4432 99.9231 28.2083C100.641 27.6956 101.073 26.8728 101.087 25.9909Z" fill="#494949"/>
<path d="M66.2039 10.8482C67.5046 10.8482 67.4832 10.8482 67.5515 12.0038C67.6923 14.2596 67.8585 16.5155 68.0333 18.7713C68.0675 19.1977 67.9779 19.3896 67.5174 19.381C65.9566 19.3512 66.1528 19.5559 66.1272 18.0762C66.1272 17.6498 65.9738 17.4792 65.5345 17.492C64.7328 17.5176 63.9312 17.492 63.1294 17.492C62.846 17.4622 62.5733 17.6096 62.4429 17.863C62.3505 17.989 62.2651 18.12 62.187 18.2553C61.7606 19.2702 60.9717 19.5346 59.9568 19.3726C59.8247 19.3512 59.6498 19.4109 59.5688 19.283C59.4878 19.1551 59.6157 18.9888 59.7009 18.8566L62.9076 14.2767C63.5174 13.4239 64.1614 12.571 64.7242 11.6585C65.1081 11.0443 65.5516 10.6563 66.2039 10.8482ZM63.5686 15.9654H65.624C65.7739 15.982 65.9088 15.8741 65.9255 15.7244C65.9272 15.7095 65.9276 15.6946 65.9268 15.6796C65.9561 14.7862 65.8976 13.8921 65.752 13.0101L63.5686 15.9654Z" fill="#494949"/>
<path d="M71.6294 29.7993C71.3735 29.7439 70.9557 29.9656 70.7765 29.4581C70.7084 29.2748 70.5335 29.424 70.4226 29.488C70.1234 29.6665 69.7982 29.7974 69.4589 29.8761C68.461 30.1064 67.5612 29.7183 67.2669 28.9337C66.95 27.9887 67.3445 26.9515 68.2094 26.4561C68.7785 26.193 69.395 26.0479 70.0218 26.0296C70.4482 25.9913 70.8533 25.9529 71.2669 25.9017C71.5566 25.9042 71.7934 25.6713 71.7958 25.3817C71.796 25.3574 71.7946 25.3331 71.7914 25.309C71.7914 24.9551 71.5483 24.8357 71.2371 24.8144C70.8726 24.7275 70.4894 24.8375 70.2264 25.1044C69.9879 25.4151 69.5804 25.5429 69.2072 25.4242C69.0707 25.4029 68.93 25.3944 68.7807 25.3646C68.6315 25.3347 68.3202 25.4498 68.2306 25.1939C68.1411 24.938 68.3543 24.8442 68.4652 24.695C69.2328 23.663 70.3415 23.4412 71.5271 23.4625C71.9669 23.4547 72.4033 23.5419 72.8063 23.7184C73.413 23.9649 73.7673 24.5993 73.6592 25.2451C73.4956 26.0473 73.2659 26.8346 72.9726 27.599C72.7352 28.1815 72.6276 28.8087 72.6571 29.4369C72.6912 29.7184 72.5377 29.8165 72.2904 29.8207C72.0431 29.8249 71.8938 29.7993 71.6294 29.7993ZM69.6337 28.52C70.3746 28.5127 71.0134 27.9974 71.1774 27.2748C71.2072 27.0914 71.1774 26.9934 70.9769 27.0232C70.4396 27.0617 69.9115 27.1841 69.4119 27.3856C69.0992 27.4931 68.9264 27.8274 69.0196 28.1447C69.1134 28.4987 69.4034 28.5328 69.6336 28.537V28.52H69.6337Z" fill="#494949"/>
<path d="M83.7178 13.0369H84.0845C85.7007 13.0881 86.3446 13.9665 85.8926 15.5187C85.7178 16.1201 85.5088 16.7129 85.3127 17.3055C85.0934 17.8464 84.9945 18.4284 85.0227 19.0113C85.0525 19.28 84.9459 19.3994 84.673 19.3951H83.5771C83.479 19.3951 83.3169 19.3569 83.2999 19.3013C83.125 18.7768 82.8734 19.0626 82.6048 19.2076C82.0638 19.5037 81.4364 19.6017 80.8308 19.4847C80.2728 19.4163 79.8104 19.0195 79.6581 18.4783C79.4112 17.7494 79.5979 16.9435 80.1399 16.3973C80.6033 15.9584 81.2083 15.6998 81.8458 15.6681C82.4484 15.5856 83.0525 15.5174 83.6581 15.4634C83.9496 15.4804 84.1998 15.2578 84.2168 14.9662C84.2179 14.9457 84.2179 14.9252 84.2168 14.9048C84.2168 14.5252 83.9523 14.4058 83.6369 14.3674C83.2338 14.2956 82.8224 14.4376 82.5494 14.7427C82.3063 15.0113 81.0057 15.088 80.7371 14.8535C80.5452 14.6872 80.7114 14.5294 80.7968 14.3972C81.3415 13.5864 82.2426 13.0866 83.2189 13.0539H83.7391L83.7178 13.0369ZM83.1975 16.6489C82.6961 16.6678 82.2045 16.7944 81.7562 17.0198C81.496 17.1776 81.2743 17.4164 81.4108 17.749C81.5318 18.056 81.864 18.223 82.1826 18.1371C82.7812 18.0591 83.2879 17.6574 83.5003 17.0923C83.6197 16.7726 83.56 16.619 83.1975 16.6489Z" fill="#494949"/>
<path d="M93.4982 29.8078C92.3895 29.8078 92.3895 29.8078 92.7136 28.8013C93.0377 27.7951 93.3745 26.7461 93.7071 25.7183C93.7924 25.4496 93.8991 25.1725 93.6389 24.9422C93.3967 24.748 93.0634 24.713 92.7861 24.8526C92.1007 25.1 91.5654 25.6463 91.332 26.3366C90.9994 27.2705 90.6711 28.2087 90.3897 29.1596C90.3362 29.5778 89.9538 29.8734 89.5356 29.8198L89.5112 29.8163C88.1467 29.7779 88.232 29.9314 88.6584 28.6266C89.136 27.134 89.6349 25.6415 90.0997 24.149C90.1459 23.7893 90.4749 23.535 90.8346 23.5811C90.8527 23.5834 90.8707 23.5865 90.8886 23.5903C91.1499 23.6053 91.4119 23.6053 91.6732 23.5903C91.7926 23.5903 91.9717 23.5903 91.976 23.731C91.976 24.2897 92.266 23.9741 92.4493 23.876C93.1 23.4916 93.8663 23.351 94.6113 23.4795C95.3416 23.5797 95.8523 24.253 95.7521 24.9832C95.7472 25.0196 95.7407 25.0556 95.7327 25.0914C95.3594 26.5776 94.9096 28.0437 94.3852 29.4837C94.2231 29.9911 93.7328 29.7225 93.4982 29.8078Z" fill="#494949"/>
<path d="M71.9374 19.4825C71.5192 19.5052 71.0998 19.4679 70.6922 19.3716C70.301 19.2795 69.938 19.0937 69.6346 18.8301C69.3063 18.5315 68.9438 18.1563 69.0333 17.7256C69.1229 17.2948 69.6474 17.4783 69.98 17.3844C70.3863 17.1887 70.8745 17.3584 71.0717 17.764C71.3702 18.2842 72.6197 18.3226 73.0674 17.8962C73.3361 17.6403 73.2977 17.3631 72.9224 17.2095C72.3894 16.9921 71.8393 16.8258 71.3019 16.6211C70.7646 16.4164 70.287 16.1222 70.2017 15.4826C70.0661 14.792 70.3608 14.088 70.948 13.7001C72.2272 12.8472 73.6261 12.8472 75.0418 13.3376C75.2165 13.4174 75.371 13.5354 75.4938 13.683C75.7369 13.9389 76.0013 14.2501 75.882 14.5998C75.7625 14.9495 75.3702 14.8002 75.0973 14.8727C74.6552 15.0378 74.1571 14.9141 73.8435 14.5614C73.4597 14.1734 72.867 14.2672 72.3509 14.4079C72.1593 14.4594 72.0286 14.6361 72.0354 14.8344C72.0354 15.0476 72.2145 15.1201 72.3808 15.1755C72.9395 15.3631 73.5152 15.5166 74.0652 15.7341C75.3915 16.2586 75.6388 17.4825 74.6494 18.523C73.9387 19.2391 72.9404 19.5923 71.9374 19.4825Z" fill="#494949"/>
<path d="M76.9202 19.3732C75.8584 19.3732 75.8584 19.3732 76.1655 18.4222C76.6729 16.8485 77.1974 15.2835 77.6878 13.7056C77.7349 13.3436 78.0666 13.0884 78.4286 13.1355C78.4433 13.1374 78.4579 13.1398 78.4724 13.1427C78.7564 13.1608 79.0413 13.1608 79.3253 13.1427C79.6706 13.1427 79.7518 13.2919 79.6494 13.6032C79.0695 15.3901 78.481 17.1726 77.9138 18.9637C77.7091 19.5693 77.223 19.2964 76.9202 19.3732Z" fill="#494949"/>
<path d="M87.7117 23.5945C88.7181 23.5945 88.7139 23.5945 88.4111 24.5411C87.8994 26.1274 87.3791 27.7138 86.8801 29.3086C86.8216 29.6279 86.5245 29.8466 86.202 29.8075C84.5559 29.8075 84.7862 29.9142 85.2298 28.5282C85.6733 27.1424 86.0827 25.8503 86.5091 24.5071C86.7992 23.5945 86.7864 23.5945 87.7117 23.5945Z" fill="#494949"/>
<path d="M79.0368 12.4732C78.0815 12.4732 78.1199 12.4732 78.363 11.5565C78.5208 10.9552 78.8449 10.823 79.4164 10.84C80.6403 10.8742 80.4868 10.7846 80.1882 11.9104C80.0006 12.6182 79.4974 12.4476 79.0368 12.4732Z" fill="#494949"/>
<path d="M88.0143 22.921C87.0378 22.921 87.089 22.921 87.3193 22.0042C87.477 21.356 87.8394 21.2621 88.4065 21.2834C89.5109 21.3218 89.4981 21.1855 89.14 22.2727C88.9225 22.921 88.9225 22.921 88.0143 22.921Z" fill="#494949"/>
<path d="M17.4016 19.4754H14.6297C14.4976 19.4754 14.327 19.5223 14.2502 19.3773C14.1734 19.2324 14.3013 19.1129 14.3824 19.0063C15.6318 17.3304 16.8898 15.6589 18.135 13.983C18.4079 13.6163 18.5614 13.7314 18.6936 14.0811C19.3375 15.7186 19.9729 17.3561 20.6339 18.9893C20.7916 19.3816 20.6339 19.484 20.2714 19.4797C19.3247 19.4711 18.3653 19.4754 17.4016 19.4754Z" fill="#494949"/>
</svg>
