<svg width="94" height="39" viewBox="0 0 94 39" fill="none" xmlns="http://www.w3.org/2000/svg">
<path d="M35.3887 33.4129V34.947C51.489 34.8767 64.5099 28.0964 64.6048 19.7236H61.3569C60.9155 27.0907 49.5768 33.0399 35.3887 33.4129Z" fill="#494949"/>
<path d="M8.46094 13.1109H9.30458C13.7412 8.3837 23.1193 5.12417 33.9712 5.12417C34.446 5.12417 34.9178 5.13045 35.3866 5.14278V4.31625C35.3024 4.31587 35.2182 4.31543 35.1339 4.31543C23.3452 4.31537 13.1736 7.91294 8.46094 13.1109Z" fill="#494949"/>
<path d="M9.964 23.6496C9.33344 24.2685 8.06918 24.5779 6.17134 24.5779C4.18878 24.5779 2.83033 24.2761 2.0959 23.6722C1.3613 23.0458 0.994141 21.9174 0.994141 20.2872V17.3889C0.994141 15.7662 1.32882 14.6455 1.99836 14.0265C2.64824 13.4077 3.94497 13.0981 5.88851 13.0981C7.76692 13.0981 9.05066 13.3172 9.73968 13.7548C10.4612 14.2455 10.8219 15.1399 10.8219 16.4379V16.6983H7.86771V16.4832C7.86771 15.8719 7.29566 15.5662 6.15174 15.5662C5.28068 15.5662 4.69245 15.6946 4.387 15.9511C4.08143 16.2229 3.92873 16.7738 3.92873 17.604V20.0606C3.92873 20.891 4.08138 21.4381 4.387 21.7022C4.69245 21.9665 5.28063 22.0984 6.15174 22.0984C6.80162 22.0984 7.25988 21.9665 7.52648 21.7022C7.75393 21.4759 7.86771 21.0835 7.86771 20.5248V20.1964H5.94697V18.0908H10.8218V20.5022C10.822 22.0722 10.5359 23.1214 9.964 23.6496Z" fill="#494949"/>
<path d="M11.8145 13.2H14.6712V21.8721H19.1268V24.4872H11.8145V13.2Z" fill="#494949"/>
<path d="M29.7846 20.2872C29.7846 21.7816 29.4531 22.8572 28.7901 23.5137C28.0426 24.2232 26.7231 24.5779 24.8318 24.5779C22.9467 24.5779 21.6305 24.2232 20.8831 23.5137C20.2007 22.8723 19.8594 21.7968 19.8594 20.2872V17.3889C19.8594 15.8946 20.2006 14.8229 20.8831 14.1737C21.6175 13.4568 22.9272 13.0981 24.8122 13.0981C26.6971 13.0981 28.0165 13.4568 28.7706 14.1737C29.4465 14.8229 29.7846 15.8945 29.7846 17.3889V20.2872ZM26.8304 17.604C26.8304 16.8042 26.7036 16.2946 26.4501 16.0756C26.203 15.8265 25.6571 15.702 24.8122 15.702C23.9738 15.702 23.4277 15.8265 23.1742 16.0756C22.9208 16.302 22.794 16.8115 22.794 17.604V20.0607C22.794 20.8459 22.9208 21.3626 23.1742 21.6118C23.4341 21.8458 23.9801 21.9627 24.8122 21.9627C25.6636 21.9627 26.2096 21.8458 26.4501 21.6118C26.7036 21.378 26.8304 20.8608 26.8304 20.0607V17.604Z" fill="#494949"/>
<path d="M39.9635 21.306C39.9635 22.5966 39.6839 23.4647 39.125 23.91C38.8845 24.1062 38.5464 24.2515 38.1111 24.3458C37.6756 24.4403 37.1425 24.4872 36.5121 24.4872H30.7598V13.2H36.5121C37.1166 13.2 37.6268 13.2492 38.0429 13.3471C38.4589 13.4454 38.7936 13.6075 39.0471 13.834C39.3006 14.0604 39.4842 14.3586 39.598 14.7284C39.7115 15.0982 39.7686 15.5549 39.7686 16.0982C39.7686 17.6682 39.2031 18.5323 38.0722 18.6908V18.804C39.3329 18.7813 39.9635 19.6154 39.9635 21.306ZM36.8923 16.7209C36.8923 16.487 36.8743 16.2983 36.8386 16.1549C36.8028 16.0115 36.7329 15.904 36.6289 15.8322C36.5249 15.7606 36.3835 15.7133 36.2048 15.6907C36.026 15.668 35.7937 15.6567 35.5077 15.6567H33.6163V17.7172H35.5077C35.7871 17.7172 36.0162 17.7078 36.195 17.6888C36.3737 17.6701 36.5151 17.6266 36.6191 17.5587C36.7231 17.4908 36.7946 17.3908 36.8336 17.2587C36.8728 17.1267 36.8923 16.9473 36.8923 16.7209ZM37.0873 20.9437C37.0873 20.408 36.9605 20.0759 36.7071 19.9474C36.5445 19.8494 36.1448 19.8002 35.5079 19.8002H33.6164V22.0078H35.5079C35.8003 22.0078 36.0456 21.9965 36.2439 21.9739C36.4422 21.9513 36.59 21.9098 36.6876 21.8493C36.954 21.6985 37.0873 21.3965 37.0873 20.9437Z" fill="#494949"/>
<path d="M47.1893 22.5399H43.2796L42.7532 24.4871H39.8867L43.0944 13.2H47.4721L50.6895 24.4871H47.7061L47.1893 22.5399ZM45.2101 15.4415L43.8743 20.3322H46.5946L45.2491 15.4415H45.2101Z" fill="#494949"/>
<path d="M50.9629 13.2H53.8196V21.8721H58.2752V24.4872H50.9629V13.2H50.9629Z" fill="#494949"/>
<path d="M75.6979 21.306C75.6979 22.5966 75.4183 23.4647 74.8595 23.91C74.6189 24.1062 74.2809 24.2515 73.8454 24.3458C73.4099 24.4403 72.8768 24.4872 72.2465 24.4872H66.4941V13.2H72.2465C72.8509 13.2 73.3612 13.2492 73.7772 13.3471C74.1932 13.4454 74.528 13.6075 74.7815 13.834C75.0349 14.0604 75.2185 14.3586 75.3323 14.7284C75.4459 15.0982 75.503 15.5549 75.503 16.0982C75.503 17.6682 74.9376 18.5323 73.8066 18.6908V18.804C75.0674 18.7813 75.6979 19.6154 75.6979 21.306ZM72.6267 16.7209C72.6267 16.487 72.6087 16.2983 72.573 16.1549C72.5372 16.0115 72.4673 15.904 72.3634 15.8322C72.2593 15.7606 72.118 15.7133 71.9393 15.6907C71.7604 15.668 71.528 15.6567 71.2422 15.6567H69.3507V17.7172H71.2422C71.5216 17.7172 71.7507 17.7078 71.9295 17.6888C72.1081 17.6701 72.2495 17.6266 72.3536 17.5587C72.4575 17.4908 72.5291 17.3908 72.568 17.2587C72.6072 17.1267 72.6267 16.9473 72.6267 16.7209ZM72.8217 20.9437C72.8217 20.408 72.6949 20.0759 72.4415 19.9474C72.2789 19.8494 71.8792 19.8002 71.2423 19.8002H69.3508V22.0078H71.2423C71.5348 22.0078 71.7801 21.9965 71.9784 21.9739C72.1766 21.9513 72.3245 21.9098 72.422 21.8493C72.6884 21.6985 72.8217 21.3965 72.8217 20.9437Z" fill="#494949"/>
<path d="M76.6328 13.2H84.3449V15.6567H79.4895V17.7172H84.0622V19.823H79.4895V22.0079H84.4619V24.4872H76.6328V13.2Z" fill="#494949"/>
<path d="M90.9286 24.4872H88.0719V15.8152H85.4199V13.2H93.8047V15.8152H90.9285V24.4872H90.9286Z" fill="#494949"/>
<path d="M39.9397 1.39373C26.6268 -2.12765 13.7163 3.02603 11.1032 12.9048C8.49024 22.7836 17.1642 33.6465 30.477 37.168C43.79 40.6894 56.7005 35.5357 59.3135 25.6569C61.9264 15.7781 53.2526 4.91507 39.9397 1.39373ZM56.7454 24.376C54.333 33.4963 42.3548 38.2385 29.9915 34.9683C17.628 31.698 9.56117 21.6537 11.9736 12.5334C14.386 3.41323 26.3642 -1.32915 38.7274 1.94117C51.0908 5.21144 59.1577 15.2558 56.7454 24.376Z" fill="#B0B0B0"/>
<path d="M33.9745 33.4315C22.6643 33.4315 12.9551 29.8908 8.77261 24.8381H7.41406C11.5141 30.7341 22.3786 34.9479 35.1371 34.9479C35.2215 34.9479 35.3057 34.9475 35.3898 34.9471V33.4129C34.9211 33.4252 34.4492 33.4315 33.9745 33.4315Z" fill="#494949"/>
<path d="M35.3887 4.31616V5.14269C49.8621 5.52317 61.3709 11.7062 61.3709 19.2779C61.3709 19.4271 61.3659 19.5757 61.357 19.7238H64.6049C64.6052 19.6931 64.606 19.6625 64.606 19.6317C64.6061 11.2166 51.5481 4.38673 35.3887 4.31616Z" fill="#494949"/>
</svg>
