<svg width="90" height="17" viewBox="0 0 90 17" fill="none" xmlns="http://www.w3.org/2000/svg">
<path d="M18.0234 4.27427C18.0234 3.77917 18.1335 3.41941 18.3536 3.19504C18.5736 2.97061 18.9123 2.8584 19.3698 2.8584H21.7629C22.093 2.8584 22.4085 2.87654 22.7097 2.91277C23.0108 2.94894 23.2923 3.00908 23.5544 3.09301C23.8164 3.17701 24.0539 3.28782 24.2667 3.42528C24.4795 3.56286 24.6612 3.73365 24.8117 3.9378C24.9622 4.14196 25.0789 4.38156 25.1614 4.6566C25.2439 4.9317 25.2852 5.2488 25.2852 5.60778C25.2852 5.96687 25.2439 6.28318 25.1614 6.55671C25.0788 6.83042 24.9622 7.06861 24.8117 7.27126C24.6612 7.4739 24.4794 7.64401 24.2667 7.78153C24.0539 7.91911 23.8164 8.02987 23.5544 8.11386C23.2923 8.19785 23.0108 8.25788 22.7097 8.29411C22.4085 8.33028 22.093 8.34842 21.7629 8.34842H20.2602V10.4722C20.2602 10.863 20.1639 11.1556 19.9714 11.3496C19.7788 11.5436 19.5016 11.6405 19.1396 11.6405C18.7776 11.6405 18.5012 11.5436 18.3101 11.3496C18.119 11.1556 18.0234 10.8631 18.0234 10.4722V4.27427ZM21.9018 6.71075C22.0408 6.71075 22.1791 6.68841 22.3167 6.64345C22.4541 6.59854 22.5772 6.53124 22.6858 6.44153C22.7943 6.35177 22.8827 6.23816 22.9507 6.10058C23.0186 5.96306 23.0527 5.80309 23.0527 5.62066C23.0527 5.26162 22.9405 4.98512 22.7162 4.79116C22.4917 4.59719 22.1769 4.50015 21.7716 4.50015H20.2602V6.71081H21.9018V6.71075Z" fill="#494949"/>
<path d="M26.094 4.35244C26.094 4.09184 26.1222 3.86753 26.1787 3.67928C26.2352 3.49108 26.3227 3.3362 26.4414 3.21458C26.5601 3.09296 26.7121 3.00326 26.8975 2.94525C27.0828 2.8874 27.3057 2.8584 27.5663 2.8584H30.6196C31.1088 2.8584 31.5317 2.92139 31.8878 3.04732C32.2439 3.17325 32.5377 3.34264 32.7694 3.55547C33.001 3.76831 33.1726 4.01659 33.2841 4.30031C33.3954 4.58409 33.4512 4.88377 33.4512 5.19941C33.4512 5.46583 33.4252 5.71988 33.3731 5.96155C33.3209 6.20333 33.2311 6.42266 33.1037 6.61954C32.9763 6.81653 32.8069 6.98725 32.5956 7.132C32.3843 7.2768 32.1207 7.38537 31.8052 7.45772C32.0744 7.48958 32.3009 7.54753 32.4849 7.63147C32.6687 7.71546 32.8185 7.81686 32.9344 7.93551C33.0501 8.05428 33.1363 8.18458 33.1928 8.32636C33.2492 8.46825 33.2833 8.61305 33.2948 8.76065C33.315 9.01548 33.3376 9.24645 33.3621 9.45347C33.3867 9.66048 33.41 9.8466 33.4316 10.0116C33.4533 10.1766 33.4714 10.3214 33.4859 10.4459C33.5004 10.5705 33.5077 10.676 33.5077 10.7629C33.5077 10.9019 33.478 11.0257 33.4187 11.1343C33.3593 11.2428 33.2819 11.3356 33.1864 11.4123C33.0908 11.489 32.9829 11.5468 32.8628 11.5861C32.7426 11.6251 32.6217 11.6447 32.5001 11.6447C32.3263 11.6447 32.1642 11.6251 32.0136 11.5861C31.8631 11.5469 31.7299 11.4854 31.6141 11.4015C31.4982 11.3175 31.4034 11.2096 31.3295 11.0779C31.2558 10.9462 31.2086 10.7862 31.1884 10.598L31.0581 9.40369C31.032 9.18072 30.9791 8.99543 30.8996 8.84772C30.8199 8.69995 30.7186 8.5813 30.5955 8.4916C30.4724 8.40178 30.329 8.33879 30.1655 8.30267C30.0019 8.2665 29.8245 8.2483 29.6334 8.2483H28.3392V10.3634C28.3392 10.7775 28.2436 11.0946 28.0526 11.3146C27.8614 11.5347 27.582 11.6447 27.2143 11.6447C26.8494 11.6447 26.5715 11.5347 26.3804 11.3146C26.1893 11.0945 26.0938 10.7775 26.0938 10.3634V4.35244H26.094ZM29.9377 6.81501C30.1751 6.81501 30.3793 6.79329 30.5502 6.74984C30.721 6.7065 30.86 6.63986 30.967 6.55011C31.0742 6.46035 31.153 6.34595 31.2038 6.20697C31.2545 6.06805 31.2798 5.90292 31.2798 5.71181C31.2798 5.5179 31.2545 5.34992 31.2038 5.20798C31.1531 5.0662 31.0743 4.94962 30.967 4.85835C30.8599 4.76713 30.7209 4.69988 30.5502 4.65643C30.3793 4.61304 30.1752 4.59125 29.9377 4.59125H28.3394V6.81496H29.9377V6.81501Z" fill="#494949"/>
<path d="M34.0898 7.20122C34.0898 6.79587 34.1295 6.40139 34.2093 6.01772C34.2889 5.63399 34.4097 5.27434 34.572 4.93843C34.7341 4.60258 34.9382 4.29494 35.1844 4.01548C35.4305 3.73618 35.7193 3.49646 36.0509 3.29668C36.3824 3.09694 36.7581 2.94128 37.1779 2.8298C37.5978 2.71837 38.0625 2.6626 38.5721 2.6626C39.0817 2.6626 39.5478 2.71837 39.9706 2.8298C40.3933 2.94128 40.772 3.0984 41.1063 3.30104C41.4408 3.50374 41.7324 3.7448 41.9814 4.02421C42.2304 4.30368 42.4375 4.61204 42.6025 4.94929C42.7675 5.28655 42.8907 5.64569 42.9717 6.02634C43.0527 6.40711 43.0933 6.79873 43.0933 7.20116C43.0933 7.60942 43.0527 8.00468 42.9717 8.38684C42.8907 8.76912 42.7683 9.12669 42.6047 9.45964C42.4411 9.79264 42.2355 10.0967 41.988 10.3717C41.7404 10.6468 41.4487 10.8828 41.1129 11.0797C40.7769 11.2767 40.3976 11.4293 39.9749 11.538C39.5521 11.6465 39.0846 11.7008 38.5721 11.7008C38.0623 11.7008 37.5977 11.6458 37.1779 11.5358C36.7581 11.4258 36.3824 11.2723 36.0509 11.0753C35.7193 10.8784 35.4305 10.6418 35.1844 10.3652C34.9383 10.0887 34.7341 9.78401 34.572 9.45101C34.4098 9.11802 34.2889 8.76117 34.2093 8.38035C34.1295 7.99964 34.0898 7.60662 34.0898 7.20122ZM36.3308 7.20122C36.3308 7.42413 36.3489 7.6457 36.3852 7.8657C36.4213 8.08582 36.4785 8.29568 36.5567 8.49547C36.6348 8.69526 36.7332 8.88055 36.8519 9.05138C36.9706 9.22234 37.1132 9.37061 37.2798 9.4966C37.4462 9.62247 37.6366 9.72175 37.8509 9.79409C38.0651 9.86649 38.3054 9.90266 38.5718 9.90266C38.8439 9.90266 39.0893 9.86649 39.3079 9.79409C39.5265 9.7218 39.7206 9.62258 39.89 9.4966C40.0593 9.37061 40.2041 9.22234 40.3243 9.05138C40.4445 8.88055 40.5436 8.69531 40.6218 8.49547C40.7 8.29563 40.7571 8.08582 40.7933 7.8657C40.8295 7.64564 40.8477 7.42413 40.8477 7.20122C40.8477 6.9783 40.8295 6.75606 40.7933 6.53455C40.7571 6.31304 40.7 6.10177 40.6218 5.90047C40.5436 5.69923 40.4444 5.51181 40.3243 5.33801C40.2041 5.16426 40.0594 5.01374 39.89 4.88636C39.7206 4.75903 39.5266 4.65902 39.3079 4.58662C39.0893 4.51427 38.8439 4.4781 38.5718 4.4781C38.3054 4.4781 38.065 4.51427 37.8509 4.58662C37.6366 4.65902 37.4462 4.75891 37.2798 4.88636C37.1132 5.01374 36.9706 5.16431 36.8519 5.33801C36.7332 5.51181 36.6348 5.69923 36.5567 5.90047C36.4785 6.10177 36.4213 6.31309 36.3852 6.53455C36.3489 6.75606 36.3308 6.97819 36.3308 7.20122Z" fill="#494949"/>
<path d="M50.0525 5.92258H52.3154C53.0961 5.92258 53.4868 6.34847 53.4868 7.20048C53.4868 8.50497 53.0896 9.58113 52.2955 10.4284C51.5012 11.2759 50.4519 11.6996 49.1474 11.6996C47.8072 11.6996 46.7091 11.2316 45.8529 10.2952C44.9963 9.35905 44.5684 8.19438 44.5684 6.80107C44.5684 5.39903 44.9943 4.232 45.8462 3.30026C46.6981 2.3684 47.7983 1.90259 49.1474 1.90259C50.1324 1.90259 50.9864 2.09353 51.7098 2.47496C52.433 2.85662 52.7946 3.28693 52.7946 3.76619C52.7946 4.05025 52.7191 4.27652 52.5684 4.44506C52.4174 4.61377 52.2177 4.69799 51.9694 4.69799C51.7209 4.69799 51.4456 4.60044 51.1441 4.40519C50.4606 3.96155 49.7951 3.73965 49.1475 3.73965C48.3488 3.73965 47.7231 4.04577 47.2705 4.65812C46.8534 5.21711 46.6449 5.93165 46.6449 6.80113C46.6449 7.67094 46.849 8.38515 47.2573 8.94419C47.7098 9.55655 48.3398 9.86272 49.1475 9.86272C49.7419 9.86272 50.2476 9.70291 50.665 9.38341C51.1618 9.00192 51.4104 8.46063 51.4104 7.75947H50.0527C49.7775 7.75947 49.5535 7.67296 49.3804 7.49988C49.2073 7.32686 49.1208 7.10283 49.1208 6.82767C49.1208 6.55268 49.2073 6.33307 49.3804 6.16867C49.5534 6.00472 49.7774 5.92258 50.0525 5.92258Z" fill="#494949"/>
<path d="M60.3177 9.89825C60.3177 10.0749 60.3263 10.2226 60.3437 10.3413C60.3612 10.46 60.3799 10.5613 60.4003 10.6453C60.4204 10.7293 60.4393 10.8024 60.4567 10.8646C60.4741 10.9269 60.4828 10.9884 60.4828 11.0492C60.4828 11.1708 60.4611 11.2722 60.4176 11.3533C60.3742 11.4344 60.3113 11.4988 60.2287 11.5465C60.1462 11.5943 60.0463 11.6283 59.929 11.6486C59.8117 11.6687 59.6778 11.679 59.5272 11.679C59.2435 11.679 59.0264 11.6169 58.8757 11.493C58.7252 11.369 58.6209 11.1744 58.563 10.909C58.4008 11.0965 58.2141 11.2421 58.0027 11.3459C57.7913 11.4497 57.5734 11.5262 57.3491 11.5752C57.1246 11.6242 56.9053 11.6538 56.6911 11.6639C56.4768 11.674 56.2872 11.679 56.1222 11.679C55.8181 11.679 55.5394 11.6443 55.2861 11.5747C55.0327 11.5053 54.8148 11.3953 54.6323 11.2446C54.4499 11.0941 54.308 10.9015 54.2067 10.667C54.1052 10.4325 54.0547 10.1502 54.0547 9.82008C54.0547 9.54806 54.1009 9.30835 54.1936 9.10134C54.2862 8.89432 54.4441 8.7133 54.667 8.55847C54.8899 8.40354 55.1867 8.27184 55.5573 8.16316C55.9279 8.05447 56.3912 7.9627 56.9471 7.88733C57.196 7.85261 57.4059 7.81207 57.5768 7.76576C57.7477 7.71946 57.8853 7.66223 57.9894 7.5942C58.0936 7.52622 58.1681 7.44593 58.213 7.35314C58.258 7.26053 58.2804 7.15335 58.2804 7.03173C58.2804 6.92171 58.2543 6.82691 58.2022 6.74723C58.15 6.6676 58.077 6.6017 57.9829 6.54962C57.8887 6.49749 57.778 6.4592 57.6506 6.4345C57.5232 6.40998 57.3841 6.3976 57.2336 6.3976C57.0947 6.3976 56.9658 6.41211 56.8472 6.44105C56.7284 6.47006 56.617 6.50763 56.5127 6.55399C56.4085 6.60036 56.3108 6.65321 56.2196 6.71251C56.1284 6.77198 56.0422 6.83195 55.9612 6.89276C55.9004 6.94209 55.8352 6.98834 55.7658 7.03173C55.6963 7.07513 55.6253 7.11354 55.5529 7.14681C55.4805 7.18018 55.4081 7.20403 55.3357 7.21848C55.2633 7.23303 55.1938 7.23595 55.1273 7.22716C55.0403 7.21562 54.9636 7.18656 54.8971 7.14031C54.8305 7.094 54.7733 7.0361 54.7256 6.9665C54.6778 6.89696 54.6416 6.81957 54.617 6.73418C54.5925 6.64885 54.5801 6.55976 54.5801 6.46703C54.5801 6.2528 54.649 6.05878 54.7865 5.88503C54.924 5.71122 55.1144 5.56295 55.3576 5.43982C55.6009 5.3168 55.8882 5.22195 56.2197 5.15531C56.5512 5.08874 56.911 5.05542 57.2989 5.05542C57.4958 5.05542 57.7071 5.06483 57.933 5.08364C58.1588 5.10251 58.384 5.1365 58.6084 5.18572C58.8328 5.23499 59.0478 5.30157 59.2534 5.38551C59.459 5.4695 59.6406 5.57589 59.7985 5.70467C59.9562 5.83363 60.0822 5.98918 60.1763 6.17155C60.2704 6.35404 60.3175 6.56682 60.3175 6.81V9.89814H60.3177V9.89825ZM58.2807 8.72993C58.1822 8.79662 58.0859 8.85233 57.9919 8.89713C57.8977 8.94209 57.8059 8.97826 57.7161 9.00564C57.6263 9.03319 57.5387 9.0557 57.4534 9.073C57.368 9.09036 57.2847 9.10627 57.2037 9.12077C57.0704 9.14406 56.938 9.17077 56.8062 9.20117C56.6744 9.23158 56.5565 9.27436 56.4522 9.32934C56.3481 9.38433 56.264 9.45601 56.2003 9.54436C56.1366 9.63261 56.1048 9.74779 56.1048 9.88962C56.1048 9.99965 56.1308 10.0981 56.183 10.1849C56.2351 10.2717 56.3046 10.3456 56.3914 10.4065C56.4784 10.4673 56.579 10.5135 56.6934 10.5453C56.8077 10.5772 56.9272 10.5931 57.0516 10.5931C57.2542 10.5931 57.4323 10.5598 57.5858 10.4932C57.7392 10.4267 57.8673 10.3376 57.9702 10.2261C58.0729 10.1147 58.1504 9.98711 58.2025 9.84393C58.2546 9.70047 58.2807 9.55075 58.2807 9.39435L58.2807 8.72993Z" fill="#494949"/>
<path d="M69.3155 8.04793C69.3155 7.80765 69.2953 7.6049 69.2547 7.43988C69.2141 7.27481 69.1526 7.14093 69.07 7.03812C68.9875 6.93537 68.8847 6.86157 68.7617 6.81661C68.6386 6.77176 68.4931 6.74931 68.3252 6.74931C68.2006 6.74931 68.079 6.78122 67.9603 6.84489C67.8416 6.90866 67.7351 6.99988 67.6411 7.11853C67.5469 7.2373 67.4717 7.38204 67.4153 7.55288C67.3588 7.72377 67.3306 7.91483 67.3306 8.12615V10.5844C67.3306 10.7726 67.3044 10.934 67.2524 11.0687C67.2003 11.2032 67.1272 11.3141 67.0331 11.4009C66.939 11.4878 66.8275 11.5514 66.6986 11.592C66.5697 11.6326 66.4286 11.6528 66.2752 11.6528C66.1188 11.6528 65.9761 11.6326 65.8474 11.592C65.7185 11.5513 65.607 11.4878 65.5128 11.4009C65.4187 11.3141 65.3457 11.2033 65.2936 11.0687C65.2414 10.934 65.2154 10.7726 65.2154 10.5844V8.04798C65.2154 7.80771 65.1951 7.60496 65.1546 7.43994C65.114 7.27492 65.0531 7.14099 64.9722 7.03818C64.8911 6.93543 64.7883 6.86163 64.6637 6.81667C64.5392 6.77182 64.3944 6.74936 64.2294 6.74936C64.1021 6.74936 63.9783 6.78128 63.858 6.84494C63.7379 6.90872 63.6307 6.99994 63.5368 7.11865C63.4425 7.23735 63.3674 7.3821 63.3109 7.55294C63.2544 7.72383 63.2262 7.91488 63.2262 8.12621V10.5845C63.2262 10.7727 63.2001 10.9341 63.148 11.0687C63.0959 11.2033 63.0235 11.3141 62.9308 11.401C62.8381 11.4878 62.7274 11.5515 62.5986 11.592C62.4696 11.6326 62.3286 11.6528 62.1751 11.6528C62.0216 11.6528 61.8798 11.6326 61.7494 11.592C61.6191 11.5514 61.5068 11.4878 61.4127 11.401C61.3186 11.3141 61.2456 11.2034 61.1934 11.0687C61.1413 10.934 61.1152 10.7727 61.1152 10.5845V6.12396C61.1152 5.77651 61.197 5.51306 61.3607 5.33349C61.5242 5.15397 61.7798 5.06421 62.1272 5.06421C62.4313 5.06421 62.6635 5.14893 62.8242 5.31831C62.9849 5.48764 63.0653 5.76935 63.0653 6.16304C63.3461 5.76929 63.6733 5.48758 64.0468 5.31831C64.4204 5.14893 64.8315 5.06421 65.2802 5.06421C65.4569 5.06421 65.6364 5.08017 65.8188 5.11203C66.0012 5.14389 66.1728 5.2033 66.3334 5.29015C66.4941 5.37699 66.6388 5.49794 66.7678 5.65282C66.8966 5.80781 66.9973 6.00676 67.0697 6.25C67.226 5.98655 67.3881 5.77657 67.5561 5.62023C67.724 5.4639 67.8978 5.34441 68.0773 5.26198C68.2568 5.17939 68.4414 5.12586 68.6311 5.10128C68.8208 5.0767 69.0154 5.06432 69.2153 5.06432C69.609 5.06432 69.9457 5.12513 70.225 5.24675C70.5044 5.36837 70.7332 5.53557 70.9114 5.7484C71.0894 5.96118 71.2204 6.21243 71.3044 6.50198C71.3884 6.79153 71.4304 7.10425 71.4304 7.44011V10.5846C71.4304 10.7728 71.4043 10.9342 71.3522 11.0688C71.3 11.2034 71.2269 11.3142 71.1328 11.4011C71.0386 11.4879 70.9265 11.5516 70.7962 11.5921C70.6659 11.6327 70.524 11.653 70.3705 11.653C70.217 11.653 70.0752 11.6327 69.9448 11.5921C69.8145 11.5516 69.7031 11.4879 69.6104 11.4011C69.5177 11.3142 69.4453 11.2035 69.3932 11.0688C69.341 10.9342 69.315 10.7728 69.315 10.5846V8.04804H69.3155V8.04793Z" fill="#494949"/>
<path d="M72.4004 6.18055C72.4004 6.00103 72.4265 5.8461 72.4786 5.7158C72.5307 5.5855 72.6031 5.47771 72.6957 5.39226C72.7883 5.30693 72.8999 5.24321 73.0302 5.20121C73.1605 5.15927 73.3022 5.13822 73.4559 5.13822C73.6093 5.13822 73.7505 5.15922 73.8794 5.20121C74.0081 5.24321 74.1189 5.30693 74.2116 5.39226C74.3042 5.47771 74.3766 5.58556 74.4288 5.7158C74.481 5.8461 74.507 6.00103 74.507 6.18055V10.641C74.507 10.8206 74.4809 10.9754 74.4288 11.1057C74.3766 11.236 74.3042 11.3439 74.2116 11.4293C74.119 11.5147 74.0081 11.5783 73.8794 11.6203C73.7504 11.6623 73.6094 11.6833 73.4559 11.6833C73.3024 11.6833 73.1606 11.6623 73.0302 11.6203C72.8998 11.5783 72.7884 11.5147 72.6957 11.4293C72.6031 11.3439 72.5307 11.236 72.4786 11.1057C72.4264 10.9754 72.4004 10.8206 72.4004 10.641V6.18055ZM72.4265 3.73097C72.4265 3.58919 72.4532 3.4552 72.5068 3.32927C72.5604 3.20328 72.6335 3.09477 72.7262 3.00361C72.8188 2.91239 72.9275 2.84005 73.0519 2.78646C73.1764 2.73293 73.311 2.70605 73.4558 2.70605C73.5976 2.70605 73.7316 2.73288 73.8576 2.78646C73.9836 2.84011 74.0921 2.91245 74.1833 3.00361C74.2745 3.09477 74.3468 3.20334 74.4004 3.32927C74.454 3.4552 74.4809 3.58925 74.4809 3.73097C74.4809 3.87577 74.454 4.01044 74.4004 4.13497C74.3468 4.2595 74.2745 4.36802 74.1833 4.46063C74.0921 4.5533 73.9836 4.62643 73.8576 4.67996C73.7316 4.7336 73.5976 4.76037 73.4558 4.76037C73.311 4.76037 73.1764 4.73355 73.0519 4.67996C72.9274 4.62643 72.8188 4.5533 72.7262 4.46063C72.6335 4.36802 72.5604 4.25939 72.5068 4.13497C72.4532 4.01049 72.4265 3.87588 72.4265 3.73097Z" fill="#494949"/>
<path d="M79.7977 7.91773C79.7977 7.51524 79.7058 7.20912 79.522 6.99914C79.3381 6.78922 79.0623 6.68424 78.6946 6.68424C78.5122 6.68424 78.3522 6.71761 78.2147 6.78413C78.0771 6.85076 77.9629 6.94483 77.8716 7.06645C77.7804 7.18801 77.7116 7.33505 77.6653 7.50729C77.6189 7.67959 77.5958 7.87142 77.5958 8.0828V10.5974C77.5958 10.777 77.5697 10.9326 77.5176 11.0644C77.4654 11.1962 77.3924 11.3054 77.2983 11.3923C77.2041 11.4791 77.0926 11.5435 76.9639 11.5855C76.8349 11.6274 76.6923 11.6485 76.536 11.6485C76.3796 11.6485 76.2369 11.6274 76.1082 11.5855C75.9792 11.5435 75.8686 11.4791 75.7758 11.3923C75.6832 11.3053 75.6108 11.1961 75.5586 11.0644C75.5065 10.9327 75.4805 10.777 75.4805 10.5974V6.08924C75.4805 5.75915 75.5623 5.50948 75.7259 5.34004C75.8895 5.17071 76.1465 5.08594 76.4968 5.08594C76.8066 5.08594 77.0419 5.17211 77.2026 5.34435C77.3633 5.51664 77.4437 5.78956 77.4437 6.16304C77.739 5.7867 78.0735 5.51306 78.447 5.34217C78.8205 5.17138 79.2273 5.08594 79.6674 5.08594C80.0671 5.08594 80.4086 5.14389 80.6924 5.25974C80.9761 5.37554 81.2078 5.53484 81.3873 5.73743C81.5669 5.94013 81.6986 6.17905 81.7826 6.4541C81.8666 6.72925 81.9086 7.02457 81.9086 7.34004V10.5975C81.9086 10.777 81.8825 10.9326 81.8304 11.0644C81.7783 11.1962 81.7059 11.3054 81.6133 11.3923C81.5206 11.4791 81.4098 11.5435 81.281 11.5855C81.1521 11.6274 81.0095 11.6485 80.8532 11.6485C80.6968 11.6485 80.5541 11.6274 80.4253 11.5855C80.2964 11.5435 80.1857 11.4791 80.0929 11.3923C80.0003 11.3053 79.928 11.1961 79.8758 11.0644C79.8237 10.9326 79.7977 10.7771 79.7977 10.5975V7.91773H79.7977Z" fill="#494949"/>
<path d="M87.238 10.6582C87.073 10.858 86.9065 11.0151 86.7386 11.1295C86.5706 11.2439 86.4013 11.33 86.2304 11.3878C86.0595 11.4458 85.8873 11.482 85.7136 11.4964C85.5399 11.5109 85.3647 11.5181 85.1881 11.5181C85.0027 11.5181 84.8116 11.4928 84.6149 11.4422C84.4178 11.3915 84.2253 11.3112 84.0372 11.2011C83.849 11.091 83.6702 10.9506 83.5009 10.7799C83.3315 10.609 83.183 10.4042 83.0557 10.1653C82.9283 9.92629 82.8269 9.65057 82.7517 9.3379C82.6763 9.02523 82.6387 8.67342 82.6387 8.28247C82.6387 7.85109 82.6952 7.43852 82.808 7.04472C82.9209 6.65097 83.0874 6.30414 83.3075 6.00451C83.5276 5.70483 83.7989 5.46596 84.1218 5.2879C84.4447 5.10978 84.8174 5.02075 85.2402 5.02075C85.4081 5.02075 85.5891 5.03234 85.7831 5.05552C85.9771 5.07876 86.1718 5.13302 86.3673 5.21841C86.5627 5.30386 86.7546 5.42839 86.9427 5.59189C87.1309 5.75551 87.3032 5.97624 87.4595 6.25425V6.10659C87.4595 5.77942 87.5361 5.53114 87.6897 5.36176C87.8431 5.19237 88.0704 5.10766 88.3716 5.10766C88.6872 5.10766 88.9225 5.20178 89.0773 5.38998C89.2322 5.57817 89.3097 5.85764 89.3097 6.22821V11.5877C89.3097 12.0943 89.2257 12.5237 89.0578 12.8755C88.8898 13.2272 88.6538 13.5124 88.3497 13.731C88.0458 13.9496 87.6816 14.108 87.2575 14.2067C86.8333 14.305 86.365 14.3543 85.8524 14.3543C85.4673 14.3543 85.1293 14.3311 84.8383 14.2849C84.5474 14.2385 84.2954 14.1769 84.0826 14.1003C83.8698 14.0235 83.6918 13.9359 83.5485 13.8375C83.405 13.739 83.2907 13.6378 83.2053 13.5334C83.1199 13.4292 83.0591 13.3272 83.0228 13.2272C82.9867 13.1274 82.9685 13.0383 82.9685 12.9601C82.9685 12.8529 82.9844 12.7523 83.0164 12.6582C83.0482 12.564 83.0952 12.4823 83.1575 12.4128C83.2197 12.3433 83.2958 12.2861 83.3855 12.2412C83.4753 12.1964 83.578 12.1696 83.6939 12.1609C83.7952 12.1522 83.9009 12.1631 84.0109 12.1935C84.1209 12.2239 84.2338 12.281 84.3497 12.365C84.4308 12.4258 84.5198 12.4902 84.6168 12.5584C84.7138 12.6263 84.8166 12.6893 84.9252 12.7472C85.0338 12.8051 85.1482 12.8529 85.2683 12.8906C85.3885 12.9282 85.5122 12.9471 85.6397 12.9471C85.9438 12.9471 86.1979 12.9145 86.402 12.8494C86.6061 12.7843 86.7696 12.6836 86.8928 12.5474C87.0157 12.4113 87.1041 12.2383 87.1576 12.0284C87.2112 11.8185 87.238 11.5702 87.238 11.2836V10.6582ZM87.3336 8.31287C87.3336 8.08711 87.3112 7.8699 87.2663 7.66138C87.2213 7.45292 87.1483 7.26909 87.047 7.10978C86.9455 6.95053 86.8131 6.82388 86.6495 6.72975C86.4859 6.63568 86.284 6.58859 86.0437 6.58859C85.8033 6.58859 85.6036 6.62924 85.4443 6.71021C85.285 6.79129 85.1562 6.90641 85.0578 7.05547C84.9594 7.20464 84.8899 7.38561 84.8493 7.59839C84.8087 7.81117 84.7885 8.04936 84.7885 8.31282C84.7885 8.57633 84.8087 8.81878 84.8493 9.04035C84.8899 9.26181 84.9594 9.45297 85.0578 9.61362C85.1563 9.77427 85.2851 9.89952 85.4443 9.98928C85.6036 10.0791 85.8033 10.1238 86.0437 10.1238C86.284 10.1238 86.4859 10.0718 86.6495 9.96756C86.8131 9.8633 86.9455 9.72639 87.047 9.55718C87.1483 9.38779 87.2213 9.19445 87.2663 8.97736C87.3112 8.76027 87.3336 8.53876 87.3336 8.31287Z" fill="#494949"/>
<path d="M15.3315 9.68203C14.3763 8.77996 12.8729 9.26224 9.94932 7.04974C12.6681 4.06542 14.4893 3.40984 15.3875 2.45878C16.3394 1.45089 14.3236 -0.676886 13.0357 0.442996C12.2597 1.11784 11.1103 4.00697 9.11277 6.37596C5.16831 3.04263 5.62086 1.46293 3.6287 0.331008C1.16495 -1.06885 -1.29179 2.33655 0.772993 3.74665C2.97149 5.24802 4.29744 4.4907 8.29049 7.27574C4.80166 10.8974 2.91057 11.5561 1.38893 12.4257C-0.178908 13.3216 -0.0109258 15.2814 0.661005 15.8974C1.33293 16.5133 2.84478 17.1852 4.30063 15.7294C5.71437 14.3157 6.23069 11.4762 9.18203 7.92902C11.9512 10.1028 11.8758 11.8751 12.9237 12.5937C14.8835 13.9376 17.147 11.3967 15.3315 9.68203Z" fill="#858585"/>
</svg>
