<svg xmlns="http://www.w3.org/2000/svg" width="55" height="34" viewBox="0 0 55 34">
    <g fill="none" fill-rule="nonzero">
        <path fill="#494949" d="M31.826 5H49L36.067 20.353C35.127 21.443 33.47 22 32.184 22H2.532C1.132 22 0 20.81 0 19.342v-6.03c0-1.468 1.129-2.671 2.529-2.671h22.954L31.826 5z"/>
        <path fill="#B0B0B0" d="M48.852 6.336H31.963L22.926 17H6L18.988 1.636C19.926.554 21.58 0 22.864 0h29.608C53.87 0 55 1.182 55 2.64V8.63c0 1.458-1.127 2.653-2.525 2.653h-7.697l4.074-4.946z"/>
        <g fill="#494949">
            <path d="M5.538 31.817c0 .243-.037.463-.111.66a1.716 1.716 0 0 1-.308.524 1.925 1.925 0 0 1-.47.39c-.182.11-.383.2-.602.27-.22.071-.453.123-.702.156-.249.034-.526.05-.83.05H.493a.514.514 0 0 1-.326-.102c-.088-.07-.132-.181-.132-.336v-5.962c0-.155.044-.267.132-.335a.514.514 0 0 1 .326-.104h1.909c.465 0 .86.036 1.183.106.323.07.595.177.816.32.221.143.39.323.508.542.118.218.176.475.176.771 0 .166-.023.322-.07.468-.047.146-.116.28-.206.4-.09.119-.2.225-.331.316a1.747 1.747 0 0 1-.45.222c.216.036.414.097.596.185s.341.202.476.341a1.563 1.563 0 0 1 .437 1.118zm-1.996-2.88a.928.928 0 0 0-.07-.37.674.674 0 0 0-.212-.273 1.013 1.013 0 0 0-.355-.166 2.267 2.267 0 0 0-.573-.058h-.78v1.775h.862c.223 0 .402-.023.535-.07a.938.938 0 0 0 .332-.196.784.784 0 0 0 .196-.291.964.964 0 0 0 .065-.352zm.393 2.928a.99.99 0 0 0-.088-.426.825.825 0 0 0-.258-.314 1.247 1.247 0 0 0-.435-.196 2.814 2.814 0 0 0-.687-.069h-.916v1.945h1.116c.215 0 .396-.02.543-.06.147-.041.274-.1.382-.18a.84.84 0 0 0 .343-.7zM11.153 33.704c0 .05-.02.088-.059.116a.431.431 0 0 1-.185.06 2.788 2.788 0 0 1-.373.02c-.176 0-.304-.007-.385-.02a.352.352 0 0 1-.17-.06.144.144 0 0 1-.05-.116v-.375c-.215.207-.46.37-.737.486a2.345 2.345 0 0 1-.919.174c-.278 0-.533-.032-.766-.098a1.793 1.793 0 0 1-.605-.29 1.329 1.329 0 0 1-.397-.479 1.487 1.487 0 0 1-.14-.666c0-.274.06-.513.179-.716.119-.202.297-.37.534-.502a2.85 2.85 0 0 1 .884-.293 7 7 0 0 1 1.227-.095h.511v-.286a1.36 1.36 0 0 0-.05-.388.63.63 0 0 0-.164-.278.697.697 0 0 0-.306-.164 1.802 1.802 0 0 0-.472-.052c-.247 0-.467.024-.661.074a4.08 4.08 0 0 0-.514.163c-.149.06-.273.115-.373.164a.588.588 0 0 1-.243.074.187.187 0 0 1-.115-.037.27.27 0 0 1-.082-.105.67.67 0 0 1-.05-.17 1.288 1.288 0 0 1 .012-.48.392.392 0 0 1 .111-.172c.055-.051.15-.108.288-.17.137-.061.297-.118.482-.171.183-.053.384-.096.601-.13.218-.033.442-.05.673-.05.41 0 .762.036 1.054.108.292.073.531.184.72.333.187.15.324.343.41.58.086.235.13.515.13.84v3.17zm-1.45-2.02h-.565c-.238 0-.442.017-.61.048a1.25 1.25 0 0 0-.411.143.615.615 0 0 0-.232.23.635.635 0 0 0-.074.31c0 .197.07.352.209.464.139.113.331.17.578.17.208 0 .398-.048.573-.143.174-.095.351-.235.531-.418v-.803zM17.63 33.688a.135.135 0 0 1-.035.092.263.263 0 0 1-.118.066c-.054.018-.13.031-.226.04a4.006 4.006 0 0 1-.355.013 4.1 4.1 0 0 1-.361-.013 1.098 1.098 0 0 1-.226-.04.262.262 0 0 1-.118-.066.135.135 0 0 1-.035-.092v-2.69c0-.23-.019-.409-.056-.54a1.014 1.014 0 0 0-.161-.335.701.701 0 0 0-.273-.217.93.93 0 0 0-.39-.076 1.05 1.05 0 0 0-.57.185 2.95 2.95 0 0 0-.6.539v3.134a.135.135 0 0 1-.035.092.265.265 0 0 1-.12.066 1.15 1.15 0 0 1-.226.04 3.986 3.986 0 0 1-.358.013c-.145 0-.265-.004-.359-.013a1.15 1.15 0 0 1-.226-.04.264.264 0 0 1-.12-.066.135.135 0 0 1-.035-.092v-4.715a.15.15 0 0 1 .03-.092.216.216 0 0 1 .105-.066.925.925 0 0 1 .197-.04c.08-.008.18-.013.302-.013.125 0 .23.005.311.013a.775.775 0 0 1 .191.04c.045.018.077.04.097.066.02.026.03.057.03.092v.545c.289-.282.584-.493.883-.634.3-.141.612-.212.937-.212.356 0 .657.053.901.159.245.105.443.249.593.43.151.182.26.394.326.637.067.244.1.536.1.878v2.912zM23.045 32.937c0 .092-.003.169-.01.23a1.228 1.228 0 0 1-.023.156.449.449 0 0 1-.035.103.394.394 0 0 1-.09.1c-.048.041-.128.09-.242.149-.113.058-.243.11-.387.156a3.441 3.441 0 0 1-.999.153c-.403 0-.76-.056-1.071-.17a2.022 2.022 0 0 1-.784-.499 2.136 2.136 0 0 1-.479-.806 3.378 3.378 0 0 1-.161-1.088c0-.473.065-.88.196-1.224s.314-.628.55-.854a2.22 2.22 0 0 1 .833-.502 3.265 3.265 0 0 1 1.518-.127c.151.025.292.059.423.1.131.043.249.09.353.144.103.052.177.098.22.137a.576.576 0 0 1 .09.098c.018.026.032.06.042.103.01.042.018.094.023.156.006.062.01.136.01.224 0 .205-.02.348-.06.431-.039.083-.09.124-.152.124a.385.385 0 0 1-.212-.074 5.978 5.978 0 0 0-.264-.163 2.069 2.069 0 0 0-.364-.164 1.535 1.535 0 0 0-.505-.074c-.384 0-.677.133-.88.399-.204.266-.306.656-.306 1.17 0 .254.025.478.076.672.051.194.126.356.226.486s.225.228.376.293c.15.066.326.098.526.098.203 0 .378-.027.525-.082.147-.054.275-.115.385-.182.11-.067.201-.128.276-.182.074-.055.137-.082.188-.082.035 0 .064.008.088.026.023.018.042.05.056.098a1.1 1.1 0 0 1 .032.182c.008.074.012.17.012.285zM29.352 31.283c0 .402-.059.768-.176 1.1a2.27 2.27 0 0 1-.535.856c-.239.24-.538.424-.898.555-.36.13-.781.195-1.263.195-.466 0-.871-.058-1.216-.174a2.219 2.219 0 0 1-.857-.508 2.036 2.036 0 0 1-.505-.819 3.458 3.458 0 0 1-.164-1.11c0-.401.06-.769.179-1.102.12-.333.298-.618.537-.856a2.42 2.42 0 0 1 .896-.552c.358-.13.778-.196 1.26-.196.47 0 .876.057 1.22.172.345.114.63.283.855.505.225.222.393.495.502.819.11.324.165.696.165 1.115zm-1.521.053c0-.233-.02-.447-.062-.642a1.42 1.42 0 0 0-.208-.51 1.004 1.004 0 0 0-.39-.339 1.371 1.371 0 0 0-.615-.121c-.219 0-.41.036-.575.108a1.01 1.01 0 0 0-.405.317c-.106.14-.185.307-.238.503-.053.195-.08.418-.08.668 0 .233.022.447.065.642.043.196.113.366.209.51a.957.957 0 0 0 .39.336 1.4 1.4 0 0 0 .61.119c.224 0 .418-.036.582-.108.165-.073.3-.178.406-.315.105-.137.183-.304.234-.5.051-.195.077-.418.077-.668zM35.524 33.688a.135.135 0 0 1-.035.092.263.263 0 0 1-.118.066c-.055.018-.13.031-.226.04a4.006 4.006 0 0 1-.355.013 4.1 4.1 0 0 1-.361-.013 1.097 1.097 0 0 1-.226-.04.263.263 0 0 1-.118-.066.135.135 0 0 1-.035-.092v-2.69c0-.23-.019-.409-.056-.54a1.014 1.014 0 0 0-.161-.335.702.702 0 0 0-.273-.217.931.931 0 0 0-.391-.076 1.05 1.05 0 0 0-.57.185 2.948 2.948 0 0 0-.599.539v3.134a.135.135 0 0 1-.035.092.265.265 0 0 1-.12.066 1.15 1.15 0 0 1-.226.04 3.986 3.986 0 0 1-.359.013c-.144 0-.264-.004-.358-.013a1.15 1.15 0 0 1-.226-.04.264.264 0 0 1-.12-.066.135.135 0 0 1-.036-.092v-4.715a.15.15 0 0 1 .03-.092.216.216 0 0 1 .106-.066.926.926 0 0 1 .196-.04c.08-.008.181-.013.303-.013.125 0 .229.005.311.013a.775.775 0 0 1 .19.04c.046.018.078.04.098.066.02.026.03.057.03.092v.545c.289-.282.583-.493.883-.634.3-.141.612-.212.937-.212.356 0 .656.053.901.159.245.105.442.249.593.43.15.182.26.394.326.637.067.244.1.536.1.878v2.912zM39.964 33.223c0 .155-.011.274-.033.357a.369.369 0 0 1-.085.174.472.472 0 0 1-.156.09c-.068.026-.148.05-.24.069a3.336 3.336 0 0 1-.625.06c-.294 0-.549-.033-.764-.1a1.29 1.29 0 0 1-.535-.31 1.252 1.252 0 0 1-.31-.525 2.508 2.508 0 0 1-.1-.75v-2.416h-.629c-.074 0-.131-.041-.17-.124-.04-.083-.06-.221-.06-.415 0-.102.006-.189.016-.26a.57.57 0 0 1 .044-.166c.02-.04.044-.07.073-.087a.196.196 0 0 1 .103-.026h.622v-1.052c0-.035.011-.067.033-.095a.244.244 0 0 1 .117-.072c.057-.019.133-.033.229-.042.096-.009.214-.013.355-.013.145 0 .266.004.362.013a.973.973 0 0 1 .226.042c.054.02.094.044.117.072.024.028.035.06.035.095v1.052h1.14c.039 0 .073.009.102.026.03.018.054.047.074.087.02.04.034.096.044.167.01.07.014.157.014.259 0 .194-.02.332-.058.415-.04.083-.096.124-.17.124h-1.146v2.215c0 .257.045.45.135.578.09.129.25.193.482.193.078 0 .149-.006.211-.018.063-.013.119-.027.168-.043l.123-.042a.265.265 0 0 1 .09-.018c.024 0 .047.006.068.018.022.012.039.037.05.074.012.037.023.087.033.15.01.064.015.145.015.244zM45.378 33.704c0 .05-.02.088-.059.116a.432.432 0 0 1-.185.06 2.788 2.788 0 0 1-.373.02c-.176 0-.304-.007-.384-.02a.352.352 0 0 1-.17-.06.144.144 0 0 1-.05-.116v-.375c-.216.207-.461.37-.737.486a2.345 2.345 0 0 1-.92.174c-.278 0-.533-.032-.766-.098a1.794 1.794 0 0 1-.605-.29 1.329 1.329 0 0 1-.396-.479 1.487 1.487 0 0 1-.141-.666c0-.274.06-.513.179-.716.12-.202.297-.37.534-.502a2.85 2.85 0 0 1 .884-.293 7 7 0 0 1 1.228-.095h.51v-.286a1.36 1.36 0 0 0-.05-.388.63.63 0 0 0-.164-.278.697.697 0 0 0-.305-.164 1.802 1.802 0 0 0-.473-.052c-.247 0-.467.024-.66.074-.194.049-.366.104-.514.163-.15.06-.274.115-.373.164a.588.588 0 0 1-.244.074.187.187 0 0 1-.115-.037.27.27 0 0 1-.082-.105.672.672 0 0 1-.05-.17 1.288 1.288 0 0 1 .012-.48.39.39 0 0 1 .112-.172c.054-.051.15-.108.287-.17.137-.061.298-.118.482-.171.184-.053.385-.096.602-.13a4.41 4.41 0 0 1 .672-.05c.411 0 .763.036 1.054.108.292.073.532.184.72.333.188.15.325.343.41.58.087.235.13.515.13.84v3.17zm-1.45-2.02h-.564c-.24 0-.443.017-.611.048a1.25 1.25 0 0 0-.411.143.615.615 0 0 0-.232.23.635.635 0 0 0-.073.31c0 .197.069.352.208.464.139.113.332.17.578.17.208 0 .399-.048.573-.143.174-.095.351-.235.531-.418v-.803zM50.816 32.937a2.5 2.5 0 0 1-.009.23 1.227 1.227 0 0 1-.023.156.449.449 0 0 1-.036.103.394.394 0 0 1-.09.1c-.048.041-.128.09-.241.149a2.51 2.51 0 0 1-.388.156 3.44 3.44 0 0 1-.998.153c-.404 0-.76-.056-1.072-.17a2.022 2.022 0 0 1-.784-.499 2.136 2.136 0 0 1-.479-.806 3.38 3.38 0 0 1-.161-1.088c0-.473.065-.88.197-1.224.13-.344.314-.628.549-.854a2.22 2.22 0 0 1 .834-.502 3.265 3.265 0 0 1 1.518-.127c.15.025.291.059.422.1.132.043.25.09.353.144.104.052.177.098.22.137a.577.577 0 0 1 .091.098c.018.026.031.06.041.103.01.042.018.094.024.156.006.062.008.136.008.224 0 .205-.02.348-.058.431-.04.083-.09.124-.153.124a.385.385 0 0 1-.211-.074 5.957 5.957 0 0 0-.265-.163 2.069 2.069 0 0 0-.364-.164c-.14-.05-.31-.074-.505-.074-.383 0-.677.133-.88.399-.204.266-.306.656-.306 1.17 0 .254.025.478.076.672.051.194.127.356.226.486.1.13.225.228.376.293.15.066.326.098.526.098.203 0 .379-.027.525-.082.147-.054.275-.115.385-.182.11-.067.202-.128.276-.182.074-.055.137-.082.188-.082.035 0 .065.008.088.026.024.018.042.05.056.098a1.1 1.1 0 0 1 .032.182c.008.074.012.17.012.285zM54.986 33.223c0 .155-.011.274-.033.357a.369.369 0 0 1-.085.174.472.472 0 0 1-.156.09c-.068.026-.148.05-.24.069a3.336 3.336 0 0 1-.625.06c-.294 0-.549-.033-.764-.1a1.29 1.29 0 0 1-.535-.31 1.252 1.252 0 0 1-.31-.525 2.508 2.508 0 0 1-.1-.75v-2.416h-.629c-.074 0-.131-.041-.17-.124-.04-.083-.06-.221-.06-.415 0-.102.006-.189.016-.26a.57.57 0 0 1 .044-.166c.02-.04.044-.07.073-.087a.196.196 0 0 1 .103-.026h.622v-1.052c0-.035.011-.067.033-.095a.244.244 0 0 1 .117-.072c.057-.019.133-.033.229-.042.096-.009.214-.013.355-.013.145 0 .266.004.362.013a.973.973 0 0 1 .226.042c.054.02.094.044.117.072.024.028.035.06.035.095v1.052h1.14c.039 0 .073.009.102.026.03.018.054.047.074.087.02.04.034.096.044.167.01.07.014.157.014.259 0 .194-.02.332-.058.415-.04.083-.096.124-.17.124H53.61v2.215c0 .257.045.45.135.578.09.129.25.193.482.193.078 0 .149-.006.211-.018.063-.013.119-.027.168-.043l.123-.042a.265.265 0 0 1 .09-.018c.024 0 .047.006.068.018.022.012.039.037.05.074.012.037.023.087.033.15.01.064.015.145.015.244z"/>
        </g>
    </g>
</svg>
