<svg width="86" height="33" viewBox="0 0 86 33" fill="none" xmlns="http://www.w3.org/2000/svg">
<path d="M8.57942 0L5.96829 10.8921L2.83489 7.68419L0 19.2851L4.69999 16.0772L0.67142 32.6766H78.0358L85.72 0H8.57942Z" fill="black"/>
<path d="M32.1912 14.0256L29.3189 25.8503H17.0093L19.8442 14.0256H22.6792L22.9776 13.0557H20.1053L22.8657 1.41753H35.25L32.415 13.0557H29.8039L29.5428 14.0256H32.1912ZM77.7742 25.8503H29.9903L32.8253 14.0256H37.2269L37.5254 13.0557H33.0491L35.8467 1.41753H83.556L77.7742 25.8503ZM48.7532 13.0557H41.0317L40.7706 14.0256H48.4921L48.7532 13.0557ZM16.5243 14.0256C16.5243 14.0256 16.487 13.6153 16.4124 13.578C16.3378 13.5406 16.3751 13.466 16.4124 13.4287C16.5989 13.3541 16.6735 13.0557 16.6735 13.0557H19.3965L22.2315 1.41748H9.84725L7.01225 13.0557H9.47418L9.2131 14.0255H6.75112L3.87891 25.8503H16.2631L19.1354 14.0255H16.5243V14.0256Z" fill="#B0B0B0"/>
<path d="M76.3207 24.321H42.5996L47.8592 3.05884H81.5429L76.3207 24.321Z" fill="black"/>
<path d="M40.696 29.6925L40.8079 29.2449C40.8079 29.2449 40.8079 29.2449 40.8452 29.2449H42.673C42.673 29.2449 42.7103 29.2449 42.7103 29.2821C42.5611 29.8417 42.4119 30.4385 42.4119 30.4385C42.4119 30.4385 42.3745 30.8862 41.7031 30.8862C41.069 30.8862 39.2785 30.8862 39.2785 30.8862C39.2785 30.8862 38.6816 30.9608 38.8681 30.2521C39.0547 29.5433 39.3531 28.536 39.3531 28.536C39.3531 28.536 39.4277 28.1258 39.9873 28.1258H42.4492C42.4492 28.1258 43.0087 28.0512 42.8968 28.536C42.8968 28.6107 42.8595 28.7226 42.8222 28.8718C42.8222 28.8718 42.8222 28.8718 42.7849 28.9091L42.2253 28.9837C42.2253 28.9837 42.1881 28.9837 42.1881 28.9464L42.2253 28.5734C42.2253 28.5734 42.2253 28.536 42.1881 28.536H39.8007H39.7634L39.2411 30.4385C39.2411 30.4385 39.2411 30.4758 39.2785 30.4758H41.6658H41.7031L41.8523 29.8417C41.8523 29.8417 41.8523 29.8043 41.815 29.8043H40.6214C40.696 29.7299 40.696 29.7299 40.696 29.6925ZM75.0512 29.7299H76.2449C76.2449 29.7299 76.2822 29.7299 76.2822 29.7671L76.133 30.4013C76.133 30.4013 76.133 30.4013 76.0957 30.4013H73.7083C73.7083 30.4013 73.671 30.4013 73.671 30.364L74.1933 28.4615C74.1933 28.4615 74.1933 28.4615 74.2305 28.4615H76.6179C76.6179 28.4615 76.6552 28.4615 76.6552 28.4989L76.6179 28.8718C76.6179 28.8718 76.6179 28.9092 76.6552 28.9092L77.2147 28.8346C77.2147 28.8346 77.2147 28.8346 77.252 28.7973C77.2893 28.6481 77.2893 28.5361 77.3266 28.4615C77.4012 27.9766 76.8789 28.0513 76.8789 28.0513H74.417C73.8575 28.0513 73.7829 28.4615 73.7829 28.4615C73.7829 28.4615 73.4844 29.4688 73.2979 30.1775C73.1114 30.8862 73.7082 30.8117 73.7082 30.8117C73.7082 30.8117 75.4987 30.8117 76.1329 30.8117C76.767 30.8117 76.8416 30.364 76.8416 30.364C76.8416 30.364 76.9908 29.7672 77.14 29.2076C77.14 29.2076 77.14 29.1704 77.1028 29.1704H75.275H75.2377L75.1257 29.6179C75.0512 29.7299 75.0512 29.7299 75.0512 29.7299ZM48.6041 28.1258H48.0818L45.6199 30.8489V30.8862H46.0675L46.7017 30.1774H48.716H48.7533L48.9398 30.8862C48.9398 30.8862 48.9398 30.8862 48.9771 30.8862H49.4993C49.4993 30.8862 49.5366 30.8862 49.5366 30.8489L48.6041 28.1258ZM47.0747 29.7671L48.1938 28.4615H48.231L48.716 29.7671C48.716 29.7671 48.716 29.8044 48.6786 29.8044H47.0747C47.0747 29.8044 47.0373 29.8044 47.0747 29.7671ZM56.4002 30.8862H56.8105H56.8478L57.5938 28.1631C57.5938 28.1631 57.5938 28.1258 57.5565 28.1258H57.1089L55.2437 29.9163H55.2064L54.1992 28.1258C54.1992 28.1258 54.1993 28.1258 54.162 28.1258H53.7517H53.7144L52.9683 30.8489C52.9683 30.8489 52.9683 30.8862 53.0057 30.8862H53.416H53.4532L54.0127 28.7972C54.0127 28.76 54.05 28.76 54.05 28.7972L54.9453 30.4385C54.9826 30.5505 55.1318 30.5505 55.2064 30.4758L56.885 28.8346C56.885 28.8346 56.9223 28.8346 56.9223 28.8718L56.4002 30.8862C56.3629 30.8489 56.4002 30.8862 56.4002 30.8862ZM61.0257 30.8862H61.4733H61.5106L62.2566 28.1631C62.2566 28.1631 62.2566 28.1258 62.2193 28.1258H61.7717H61.7344L61.0257 30.8862C60.9883 30.8489 60.9883 30.8862 61.0257 30.8862ZM68.7472 30.8862H69.1203H69.1575L69.829 28.1631C69.829 28.1631 69.8289 28.1258 69.7917 28.1258H69.3441H69.3067L68.8218 30.1028C68.8218 30.1028 68.7845 30.1401 68.7845 30.1028L66.8075 28.0885H66.3599H66.3225L65.6511 30.8116C65.6511 30.8116 65.6511 30.8489 65.6884 30.8489H66.1361H66.1733L66.6955 28.8346C66.6955 28.8346 66.7328 28.7973 66.7328 28.8346L68.7472 30.8862Z" fill="#B0B0B0"/>
<path d="M1.67969 16.9351L3.39565 10.0715L6.56627 13.3914L1.67969 16.9351ZM45.5096 13.6152L48.6057 17.1961L50.4334 9.95958L45.5096 13.6152ZM56.7748 19.4716C56.7375 19.6954 56.5883 19.9566 56.5883 20.2177C56.5883 20.5161 56.5137 20.7772 56.5883 21.0756C56.6629 21.3741 56.7375 21.6351 56.8867 21.8962C57.2597 22.6796 57.9312 23.0527 58.901 23.0527C59.8709 23.0527 61.0272 22.6423 61.736 21.859C62.0344 21.5233 62.2955 21.1502 62.5193 20.7772C62.7431 20.3669 62.8923 19.8074 62.9296 19.4717L65.7645 8.01993C65.8018 7.79612 66.063 7.12465 66.063 6.9009C66.063 6.1176 65.8019 5.44613 65.3542 4.92391C64.8693 4.43897 64.2725 4.28977 63.4891 4.28977C63.0788 4.28977 62.6685 4.36437 62.2955 4.5509C61.8852 4.73738 61.5494 4.96124 61.2137 5.2596C60.878 5.55801 60.505 5.93107 60.2812 6.34141C60.0574 6.75169 59.8708 7.19931 59.7962 7.6843L56.7748 19.4716ZM60.7661 19.882C60.6169 20.4788 60.132 21.001 59.3113 21.001C58.9756 21.001 58.7145 20.7026 58.7145 20.2923C58.7145 20.2177 58.7145 20.1803 58.7145 20.1058C58.7145 20.0685 58.7145 19.9938 58.7518 19.882L61.8105 7.57232C61.9225 6.93817 62.6685 6.37863 63.1534 6.37863C63.5265 6.37863 63.8622 6.71431 63.8622 7.12465C63.8622 7.16198 63.8622 7.23658 63.8622 7.27386C63.8622 7.31118 63.8622 7.38578 63.8249 7.46039L60.7661 19.882ZM73.0385 4.32699H67.7043L63.0042 23.09H65.1305L67.2194 14.7716H70.4273L70.9495 12.6827H67.7416L69.2336 6.37863H72.5908L73.0385 4.32699ZM77.3655 6.34135H79.1933C79.1933 6.34135 79.6782 4.36432 79.7155 4.32699H73.7845L73.225 6.34135H75.3139L71.136 23.0154H73.225L77.3655 6.34135ZM51.5525 20.3669C51.4406 19.9193 51.9628 18.5391 51.9628 18.5391H49.8366C49.8366 18.5391 49.4636 19.882 49.389 20.3296C49.2398 21.1876 49.5009 21.7471 49.8366 22.232C50.2096 22.717 50.993 23.1273 51.7017 23.1646C52.5224 23.2019 53.3057 22.9407 54.0891 22.3066C54.4247 22.0082 54.7606 21.6725 55.0216 21.2995C55.2827 20.9637 55.4693 20.6281 55.5065 20.3296C55.7676 19.3225 56.5883 16.674 56.5883 15.816C56.5883 15.3684 56.5137 14.8089 56.2899 14.2867C56.1034 13.7645 55.9168 13.5406 55.2081 12.9811C54.4994 12.3843 54.2009 11.6755 54.0891 11.3025C53.9399 10.9295 54.0891 10.37 54.1263 9.92231C54.1263 9.84771 54.5741 8.09453 54.7606 7.46039C54.8725 7.12465 55.0217 6.90084 55.1709 6.71431C55.3574 6.49056 55.7304 6.41596 55.805 6.41596C56.178 6.41596 56.9614 6.45323 56.6629 7.72152L56.3272 8.80328L58.3788 8.84055C58.3788 8.84055 58.7891 7.42311 58.8638 7.19925C58.8638 7.19925 59.1249 5.93102 58.4162 5.07307C57.9685 4.5509 57.2225 4.32699 56.551 4.28977C55.693 4.21517 54.8724 4.5509 54.1263 5.22227C53.7907 5.52073 53.4922 5.85647 53.2684 6.19215C53.0446 6.52783 52.8582 6.86357 52.7835 7.16198C52.7835 7.16198 51.8883 10.4818 51.8509 10.7429C51.8136 10.9667 51.7764 11.1906 51.7764 11.377C51.7391 11.862 51.7391 12.3096 51.8509 12.6826C51.9629 13.0557 52.1493 13.3914 52.4478 13.6897C52.7462 14.0254 53.5668 14.6969 53.7533 14.9953C53.9399 15.2564 54.0891 15.5175 54.2009 15.7787C54.3129 16.0398 54.3129 16.3009 54.3129 16.7858C54.3129 17.3081 53.5296 19.9192 53.5296 19.9192C53.0445 21.2249 51.7763 21.2995 51.5525 20.3669Z" fill="#494949"/>
<path d="M37.8249 23.0528H35.7733L39.9511 6.04299H37.8622L38.4217 4.02873H44.3527C44.3527 4.06606 43.8305 6.04299 43.8305 6.04299H42.0027L37.8249 23.0528ZM27.4177 6.04299L25.8883 12.4217H29.2082L28.7233 14.5479H25.3287L23.762 20.9266H27.0819L26.5597 22.9408H21.2255L25.8882 3.91675H31.297L30.8121 6.00572H27.4177V6.04299H27.4177ZM16.6747 11.3772C16.5628 11.7875 16.0779 12.9439 15.5557 13.2796C15.4811 13.3169 15.4437 13.4288 15.5184 13.5034C16.1151 14.063 15.854 15.3686 15.854 15.3686L15.0334 18.9869C14.8469 19.994 14.0635 23.0156 10.5198 22.9782H7.79688L12.385 3.95418H15.7048C16.3017 3.95418 17.0104 4.32719 17.3088 4.66293C17.6072 4.99867 17.9056 6.00582 17.7938 6.63997C17.5326 7.9827 16.6747 11.3772 16.6747 11.3772ZM10.3334 20.9266L11.0794 20.9639C11.639 21.0011 12.1611 20.7773 12.385 20.5909C12.5715 20.4044 12.6834 20.1805 12.758 19.9194L13.6906 15.9655C13.6906 15.9655 13.8398 15.2567 13.8398 15.1821C13.8398 14.8836 13.5414 14.5106 13.1683 14.5106C12.8699 14.5106 12.012 14.5106 12.012 14.5106L10.3334 20.9266ZM12.4969 12.3471C12.4969 12.3471 13.2802 12.3843 13.5413 12.3471C13.989 12.2351 14.3992 12.0114 14.5858 11.3772L15.6675 6.86372C15.7421 6.2669 15.1453 5.96839 14.7723 5.93117H14.0262L12.4969 12.3471Z" fill="black"/>
</svg>
