<svg width="84" height="60" viewBox="0 0 84 60" fill="none" xmlns="http://www.w3.org/2000/svg">
<path d="M5.63181 38.4905C4.51725 38.4905 3.64084 38.8855 3.00254 39.6753C2.36413 40.4654 2.04498 41.5554 2.04498 42.9457C2.04498 44.401 2.35194 45.502 2.96603 46.2484C3.58002 46.9951 4.46861 47.3683 5.63181 47.3683C6.13494 47.3683 6.62183 47.3185 7.0925 47.2182C7.56317 47.1181 8.05272 46.9897 8.56134 46.8327V48.4963C7.63075 48.8481 6.5758 49.0237 5.39648 49.0237C3.65985 49.0237 2.32624 48.4977 1.39576 47.4454C0.465181 46.3933 0 44.888 0 42.9294C0 41.6959 0.225804 40.6166 0.677579 39.6915C1.12924 38.7665 1.7825 38.0578 2.63736 37.5654C3.4921 37.0731 4.4957 36.8269 5.64804 36.8269C6.85983 36.8269 7.97971 37.0813 9.00768 37.5898L8.30977 39.2047C7.90935 39.0153 7.48611 38.8489 7.03976 38.7055C6.59342 38.5623 6.12402 38.4905 5.63181 38.4905Z" fill="#858585"/>
<path d="M15.2505 48.8615L14.8691 47.6117H14.8041C14.3713 48.1582 13.9358 48.5301 13.4976 48.7276C13.0594 48.925 12.4967 49.0238 11.8097 49.0238C10.9278 49.0238 10.2394 48.7858 9.74445 48.3096C9.24942 47.8336 9.00195 47.1601 9.00195 46.289C9.00195 45.3639 9.34542 44.666 10.0326 44.1953C10.7195 43.7246 11.7664 43.4677 13.173 43.4244L14.723 43.3757V42.8968C14.723 42.3234 14.5891 41.8946 14.3213 41.6106C14.0535 41.3266 13.6382 41.1846 13.0757 41.1846C12.6157 41.1846 12.1749 41.2524 11.7529 41.3874C11.3309 41.5227 10.9253 41.6824 10.5357 41.8663L9.9189 40.503C10.4058 40.2488 10.9386 40.0554 11.5175 39.9228C12.0963 39.7902 12.6428 39.7239 13.1568 39.7239C14.2982 39.7239 15.1597 39.9728 15.7414 40.4705C16.3229 40.9683 16.6137 41.7501 16.6137 42.8158V48.8615H15.2505ZM12.4103 47.563C13.1027 47.563 13.6586 47.3697 14.0779 46.9827C14.4971 46.5961 14.7069 46.0536 14.7069 45.3557V44.5767L13.5546 44.6254C12.6564 44.6579 12.0031 44.808 11.5948 45.0758C11.1862 45.3436 10.982 45.7534 10.982 46.3052C10.982 46.7057 11.101 47.0152 11.3391 47.2343C11.5771 47.4535 11.9341 47.563 12.4103 47.563Z" fill="#858585"/>
<path d="M24.0252 46.3053C24.0252 47.1817 23.7059 47.8541 23.0677 48.3218C22.4293 48.7898 21.5149 49.0238 20.3248 49.0238C19.1291 49.0238 18.1688 48.8426 17.444 48.4802V46.8328C18.4989 47.3197 19.4809 47.5633 20.3897 47.5633C21.5636 47.5633 22.1507 47.2089 22.1507 46.5002C22.1507 46.273 22.0857 46.0837 21.9558 45.9322C21.826 45.7808 21.6122 45.6238 21.3148 45.4615C21.0172 45.2992 20.6033 45.1154 20.0732 44.9097C19.0398 44.5094 18.3407 44.1091 17.9755 43.7086C17.6103 43.3083 17.4277 42.7889 17.4277 42.1506C17.4277 41.3825 17.7373 40.786 18.3568 40.3612C18.9762 39.9366 19.8188 39.7241 20.8846 39.7241C21.9396 39.7241 22.9378 39.9379 23.8791 40.3652L23.2623 41.8016C22.2939 41.4013 21.4797 41.201 20.8197 41.201C19.8135 41.201 19.3103 41.488 19.3103 42.0612C19.3103 42.3426 19.4415 42.5806 19.7039 42.7754C19.9661 42.9702 20.5384 43.238 21.4201 43.5787C22.1612 43.8656 22.6995 44.1279 23.035 44.3659C23.3704 44.6041 23.6193 44.8786 23.7816 45.1896C23.9441 45.5007 24.0252 45.8726 24.0252 46.3053Z" fill="#858585"/>
<path d="M32.7025 48.8616H30.7874V43.3434C30.7874 42.6511 30.648 42.1344 30.3695 41.7934C30.0908 41.4526 29.6485 41.2822 29.0427 41.2822C28.242 41.2822 27.6537 41.5215 27.2777 42.0003C26.9016 42.4792 26.7137 43.2813 26.7137 44.4065V48.8616H24.8066V36.2346H26.7137V39.44C26.7137 39.954 26.6812 40.503 26.6163 41.0873H26.738C26.9977 40.6545 27.3588 40.3192 27.8214 40.0811C28.284 39.8431 28.8236 39.7241 29.4404 39.7241C31.6152 39.7241 32.7026 40.8195 32.7026 43.0106L32.7025 48.8616Z" fill="#858585"/>
<path d="M36.853 48.3097C37.3615 48.3097 37.8052 48.2665 38.1838 48.1798V48.829C37.7943 48.9589 37.3452 49.0238 36.8368 49.0238C36.0577 49.0238 35.4829 48.8156 35.1123 48.399C34.7418 47.9824 34.5565 47.3278 34.5565 46.4352V40.7384H33.25V40.2677L34.5565 39.9025L34.9622 37.9062H35.3761V40.0405H37.9648V40.7384H35.3761V46.3215C35.3761 46.9978 35.495 47.4981 35.7331 47.8228C35.9711 48.1474 36.3444 48.3097 36.853 48.3097Z" fill="#858585"/>
<path d="M46.4374 44.4389C46.4374 45.8781 46.0885 47.002 45.3906 47.8106C44.6927 48.6195 43.7297 49.0238 42.5017 49.0238C41.728 49.0238 41.0463 48.8372 40.4567 48.4639C39.867 48.0906 39.4152 47.555 39.1015 46.8571C38.7877 46.1592 38.6309 45.3532 38.6309 44.4389C38.6309 42.9998 38.9798 41.8786 39.6777 41.0752C40.3755 40.2718 41.3331 39.8701 42.5503 39.8701C43.7621 39.8701 44.7129 40.2773 45.4027 41.0914C46.0925 41.9057 46.4374 43.0216 46.4374 44.4389ZM39.4747 44.4389C39.4747 45.6508 39.7412 46.5962 40.2741 47.2751C40.8069 47.9541 41.5604 48.2935 42.5341 48.2935C43.5079 48.2935 44.2613 47.9541 44.7942 47.2751C45.3269 46.5962 45.5936 45.6508 45.5936 44.4389C45.5936 43.2216 45.3244 42.2776 44.7861 41.6067C44.2477 40.9361 43.4918 40.6005 42.518 40.6005C41.5442 40.6005 40.7936 40.9346 40.2662 41.6027C39.7385 42.2709 39.4747 43.2163 39.4747 44.4389Z" fill="#858585"/>
<path d="M53.0713 38.4905C51.9567 38.4905 51.0803 38.8855 50.442 39.6753C49.8036 40.4654 49.4844 41.5554 49.4844 42.9457C49.4844 44.401 49.7914 45.502 50.4055 46.2484C51.0194 46.9951 51.908 47.3683 53.0713 47.3683C53.5744 47.3683 54.0612 47.3185 54.5319 47.2182C55.0025 47.1181 55.4921 46.9897 56.0008 46.8327V48.4963C55.0701 48.8481 54.0152 49.0237 52.8359 49.0237C51.0992 49.0237 49.7656 48.4977 48.8352 47.4454C47.9046 46.3933 47.4395 44.888 47.4395 42.9294C47.4395 41.6959 47.6653 40.6166 48.117 39.6915C48.5686 38.7665 49.2218 38.0578 50.0768 37.5654C50.9315 37.0731 51.9351 36.8269 53.0874 36.8269C54.2992 36.8269 55.4191 37.0813 56.4471 37.5898L55.7492 39.2047C55.3487 39.0153 54.9255 38.8489 54.4791 38.7055C54.0328 38.5623 53.5634 38.4905 53.0713 38.4905Z" fill="#858585"/>
<path d="M65.0335 44.3578C65.0335 45.824 64.6574 46.9682 63.9055 47.7905C63.1535 48.6129 62.1066 49.024 60.7651 49.024C59.9264 49.024 59.1853 48.8347 58.5415 48.4559C57.8976 48.0773 57.4026 47.5337 57.0565 46.8249C56.7102 46.1162 56.5371 45.2939 56.5371 44.3579C56.5371 42.9027 56.9104 41.7666 57.657 40.9497C58.4036 40.1329 59.4557 39.7244 60.8137 39.7244C62.1121 39.7244 63.1398 40.1423 63.8974 40.9781C64.6549 41.8138 65.0335 42.9405 65.0335 44.3578ZM58.501 44.3578C58.501 46.43 59.2664 47.4659 60.7975 47.4659C62.3123 47.4659 63.0698 46.4301 63.0698 44.3578C63.0698 42.3075 62.3069 41.2822 60.7813 41.2822C59.9806 41.2822 59.4003 41.5473 59.0406 42.0774C58.6807 42.6078 58.501 43.3678 58.501 44.3578Z" fill="#858585"/>
<path d="M68.9726 49.024C67.8527 49.024 66.979 48.6183 66.3515 47.8068C65.7238 46.9953 65.4102 45.8565 65.4102 44.3903C65.4102 42.9188 65.7279 41.7733 66.3637 40.9536C66.9994 40.134 67.8798 39.7242 69.0052 39.7242C70.1845 39.7242 71.0826 40.1598 71.6994 41.0308H71.7968C71.7047 40.3871 71.6589 39.8784 71.6589 39.5052V36.2349H73.574V48.8618H72.0808L71.7481 47.6852H71.6589C71.0473 48.5777 70.1519 49.024 68.9726 49.024ZM69.4839 47.4822C70.2682 47.4822 70.8391 47.2618 71.1961 46.8208C71.5532 46.38 71.737 45.6644 71.748 44.6744V44.4066C71.748 43.276 71.564 42.4726 71.1961 41.9965C70.8281 41.5205 70.252 41.2823 69.4676 41.2823C68.7968 41.2823 68.28 41.5541 67.9177 42.0979C67.5551 42.6415 67.374 43.4166 67.374 44.4229C67.374 45.4184 67.5497 46.1771 67.9014 46.6991C68.253 47.2212 68.7805 47.4822 69.4839 47.4822Z" fill="#858585"/>
<path d="M78.9375 49.0239C77.5418 49.0239 76.4503 48.6169 75.6631 47.8026C74.876 46.9885 74.4824 45.8671 74.4824 44.4389C74.4824 42.9729 74.8476 41.8206 75.5779 40.9819C76.3083 40.1434 77.3117 39.7241 78.5886 39.7241C79.7734 39.7241 80.7092 40.084 81.3964 40.8034C82.0834 41.523 82.4271 42.513 82.4271 43.7735V44.8041H76.4463C76.4733 45.6753 76.7086 46.3448 77.1522 46.8126C77.5958 47.2806 78.2206 47.5145 79.0269 47.5145C79.557 47.5145 80.0506 47.4647 80.5078 47.3644C80.9649 47.2643 81.4558 47.098 81.9807 46.8653V48.4153C81.5154 48.6372 81.0446 48.794 80.5687 48.886C80.0925 48.9779 79.5488 49.0239 78.9375 49.0239ZM78.5886 41.1686C77.9826 41.1686 77.4971 41.3608 77.1319 41.7447C76.7667 42.129 76.5489 42.6889 76.4787 43.4245H80.5523C80.5415 42.6834 80.3629 42.122 80.0167 41.7406C79.6705 41.3593 79.1944 41.1686 78.5886 41.1686Z" fill="#858585"/>
<path d="M2.47189 57.4489C1.80517 57.4489 1.28543 57.2436 0.912652 56.8329C0.539876 56.4221 0.353516 55.8468 0.353516 55.107C0.353516 54.3756 0.533505 53.7898 0.89365 53.3494C1.25374 52.9092 1.73897 52.689 2.34946 52.689C2.8896 52.689 3.31578 52.8774 3.62806 53.2544C3.94034 53.6315 4.09645 54.1434 4.09645 54.7905V55.1281H0.792326C0.797922 55.7583 0.944894 56.2394 1.2333 56.5713C1.52165 56.9032 1.93442 57.0692 2.47178 57.0692C2.73343 57.0692 2.96339 57.0509 3.16172 57.0144C3.36004 56.9778 3.61111 56.899 3.91497 56.778V57.1577C3.65609 57.2702 3.41705 57.347 3.19761 57.3877C2.97818 57.4284 2.73625 57.4489 2.47189 57.4489ZM2.34952 53.0603C1.90783 53.0603 1.55333 53.2059 1.28615 53.4971C1.01885 53.7882 0.862682 54.2081 0.817754 54.7567H3.65349C3.65349 54.2249 3.53809 53.8093 3.30747 53.5097C3.07668 53.2101 2.75736 53.0603 2.34952 53.0603Z" fill="#858585"/>
<path d="M8.14729 57.3645L8.04182 56.6387H8.00808C7.77734 56.934 7.54035 57.143 7.29704 57.2654C7.05367 57.3878 6.76599 57.4489 6.4341 57.4489C5.98399 57.4489 5.6337 57.3336 5.38336 57.1029C5.1329 56.8723 5.00781 56.5529 5.00781 56.145C5.00781 55.6978 5.19412 55.3503 5.56695 55.1028C5.93967 54.8553 6.47908 54.7245 7.18525 54.7104L8.05877 54.685V54.3812C8.05877 53.9452 7.97013 53.616 7.79291 53.3939C7.61569 53.1716 7.33011 53.0604 6.93629 53.0604C6.51149 53.0604 6.07124 53.1786 5.61548 53.4149L5.45936 53.0519C5.96288 52.8156 6.46086 52.6975 6.95318 52.6975C7.4567 52.6975 7.83302 52.8283 8.08198 53.09C8.33094 53.3516 8.45542 53.7595 8.45542 54.3137V57.3646H8.14729V57.3645ZM6.45936 57.0692C6.94886 57.0692 7.33499 56.9293 7.61769 56.6493C7.90044 56.3694 8.04176 55.9805 8.04176 55.4824V55.031L7.23998 55.0647C6.59575 55.0958 6.1365 55.1963 5.86222 55.3664C5.58794 55.5366 5.45078 55.8017 5.45078 56.1618C5.45078 56.4488 5.53864 56.6717 5.71453 56.8306C5.89036 56.9897 6.13866 57.0692 6.45936 57.0692Z" fill="#858585"/>
<path d="M12.7849 56.1704C12.7849 56.5812 12.6289 56.8969 12.3165 57.1179C12.0043 57.3387 11.5612 57.4491 10.9873 57.4491C10.3741 57.4491 9.88738 57.3549 9.52734 57.1663V56.7148C9.9887 56.9455 10.4753 57.0609 10.9873 57.0609C11.4402 57.0609 11.7842 56.9856 12.0191 56.8351C12.2539 56.6846 12.3714 56.4842 12.3714 56.2338C12.3714 56.0032 12.2778 55.8091 12.0908 55.6515C11.9037 55.4938 11.5964 55.3391 11.1687 55.1872C10.7102 55.0213 10.3881 54.8786 10.2024 54.759C10.0167 54.6394 9.8768 54.5044 9.78256 54.3538C9.68828 54.2034 9.64119 54.0199 9.64119 53.8032C9.64119 53.46 9.78533 53.1886 10.0737 52.9888C10.3621 52.7891 10.7651 52.6892 11.2827 52.6892C11.7778 52.6892 12.2476 52.7821 12.6921 52.9677L12.536 53.3474C12.0859 53.1617 11.668 53.069 11.2827 53.069C10.9085 53.069 10.6118 53.1308 10.3924 53.2547C10.173 53.3785 10.0633 53.5501 10.0633 53.7695C10.0633 54.0086 10.1483 54.2 10.3185 54.3434C10.4887 54.4869 10.8213 54.6471 11.3165 54.8245C11.7301 54.9736 12.0311 55.1079 12.2196 55.2274C12.408 55.347 12.5494 55.4827 12.6437 55.6347C12.7378 55.7864 12.7849 55.9651 12.7849 56.1704Z" fill="#858585"/>
<path d="M13.1973 52.7776H13.6278L14.5983 55.3517C14.8937 56.1423 15.0808 56.6753 15.1596 56.951H15.185C15.3031 56.588 15.4957 56.0465 15.7631 55.3264L16.7337 52.7776H17.1642L15.1091 58.1071C14.9431 58.5403 14.8038 58.833 14.6914 58.9849C14.5788 59.1368 14.4473 59.2508 14.2968 59.3267C14.1463 59.4027 13.9641 59.4407 13.7504 59.4407C13.5899 59.4407 13.4113 59.4112 13.2144 59.352V58.9891C13.3775 59.0341 13.5534 59.0567 13.7419 59.0567C13.8854 59.0567 14.012 59.0229 14.1216 58.9554C14.2313 58.8879 14.3306 58.783 14.4191 58.641C14.5078 58.499 14.6104 58.2739 14.7272 57.9658C14.8439 57.6577 14.9192 57.4573 14.953 57.3645L13.1973 52.7776Z" fill="#858585"/>
<path d="M17.8496 57.0354C17.8496 56.7597 17.9621 56.6218 18.1872 56.6218C18.4178 56.6218 18.5332 56.7597 18.5332 57.0354C18.5332 57.3112 18.4178 57.4489 18.1872 57.4489C17.9621 57.4489 17.8496 57.3111 17.8496 57.0354Z" fill="#858585"/>
<path d="M22.8318 56.1704C22.8318 56.5812 22.6757 56.8969 22.3634 57.1179C22.0511 57.3388 21.6081 57.4491 21.0342 57.4491C20.4209 57.4491 19.9343 57.3549 19.5742 57.1663V56.7148C20.0355 56.9455 20.5221 57.0609 21.0342 57.0609C21.4871 57.0609 21.831 56.9856 22.0659 56.8351C22.3008 56.6846 22.4183 56.4842 22.4183 56.2338C22.4183 56.0032 22.3247 55.8091 22.1377 55.6515C21.9505 55.4938 21.6432 55.3391 21.2156 55.1872C20.757 55.0213 20.4349 54.8786 20.2493 54.759C20.0636 54.6394 19.9237 54.5044 19.8294 54.3538C19.7352 54.2034 19.6881 54.0199 19.6881 53.8032C19.6881 53.46 19.8322 53.1886 20.1206 52.9888C20.409 52.7891 20.8119 52.6892 21.3296 52.6892C21.8247 52.6892 22.2944 52.7821 22.739 52.9677L22.5828 53.3474C22.1327 53.1617 21.7149 53.069 21.3296 53.069C20.9554 53.069 20.6586 53.1308 20.4392 53.2547C20.2198 53.3785 20.1101 53.5501 20.1101 53.7695C20.1101 54.0086 20.1952 54.2 20.3654 54.3434C20.5355 54.4869 20.8682 54.6471 21.3634 54.8245C21.777 54.9736 22.0779 55.1079 22.2665 55.2274C22.4549 55.347 22.5963 55.4827 22.6905 55.6347C22.7846 55.7864 22.8318 55.9651 22.8318 56.1704Z" fill="#858585"/>
<path d="M26.7976 57.3645L26.6922 56.6387H26.6585C26.4277 56.934 26.1908 57.143 25.9474 57.2654C25.7041 57.3878 25.4164 57.4489 25.0845 57.4489C24.6344 57.4489 24.2841 57.3336 24.0338 57.1029C23.7833 56.8723 23.6582 56.5529 23.6582 56.145C23.6582 55.6978 23.8445 55.3503 24.2173 55.1028C24.5901 54.8553 25.1295 54.7245 25.8357 54.7104L26.7092 54.685V54.3812C26.7092 53.9452 26.6206 53.616 26.4434 53.3939C26.2661 53.1716 25.9806 53.0604 25.5867 53.0604C25.1619 53.0604 24.7217 53.1786 24.2659 53.4149L24.1098 53.0519C24.6133 52.8156 25.1113 52.6975 25.6036 52.6975C26.1071 52.6975 26.4835 52.8283 26.7324 53.09C26.9814 53.3516 27.1059 53.7595 27.1059 54.3137V57.3646H26.7976V57.3645ZM25.1097 57.0692C25.5992 57.0692 25.9854 56.9293 26.268 56.6493C26.5508 56.3694 26.6921 55.9805 26.6921 55.4824V55.031L25.8903 55.0647C25.246 55.0958 24.7868 55.1963 24.5125 55.3664C24.2383 55.5366 24.1011 55.8017 24.1011 56.1618C24.1011 56.4488 24.1889 56.6717 24.3648 56.8306C24.5406 56.9897 24.789 57.0692 25.1097 57.0692Z" fill="#858585"/>
<path d="M30.2977 53.1405H29.2174V57.3646H28.7997V53.1405H27.9473V52.8957L28.7997 52.7396V52.3852C28.7997 51.8226 28.9031 51.4098 29.1099 51.1467C29.3166 50.8837 29.6549 50.7522 30.1247 50.7522C30.3779 50.7522 30.6311 50.7902 30.8843 50.8662L30.7872 51.2291C30.5621 51.1588 30.3384 51.1236 30.1163 51.1236C29.7899 51.1236 29.5586 51.22 29.4222 51.4127C29.2856 51.6054 29.2175 51.9185 29.2175 52.3516V52.7778H30.2978L30.2977 53.1405Z" fill="#858585"/>
<path d="M33.0363 57.4489C32.3696 57.4489 31.8499 57.2436 31.4771 56.8329C31.1043 56.4221 30.918 55.8468 30.918 55.107C30.918 54.3756 31.098 53.7898 31.4581 53.3494C31.8182 52.9092 32.3034 52.689 32.9139 52.689C33.454 52.689 33.8802 52.8774 34.1925 53.2544C34.5048 53.6315 34.6608 54.1434 34.6608 54.7905V55.1281H31.3567C31.3623 55.7583 31.5093 56.2394 31.7977 56.5713C32.086 56.9032 32.4988 57.0692 33.0361 57.0692C33.2978 57.0692 33.5277 57.0509 33.7261 57.0144C33.9244 56.9778 34.1754 56.899 34.4793 56.778V57.1577C34.2205 57.2702 33.9814 57.347 33.762 57.3877C33.5426 57.4284 33.3007 57.4489 33.0363 57.4489ZM32.914 53.0603C32.4723 53.0603 32.1178 53.2059 31.8507 53.4971C31.5834 53.7882 31.4271 54.2081 31.3823 54.7567H34.218C34.218 54.2249 34.1026 53.8093 33.872 53.5097C33.6411 53.2101 33.3218 53.0603 32.914 53.0603Z" fill="#858585"/>
<path d="M35.8418 57.0354C35.8418 56.7597 35.9543 56.6218 36.1794 56.6218C36.41 56.6218 36.5254 56.7597 36.5254 57.0354C36.5254 57.3112 36.41 57.4489 36.1794 57.4489C35.9543 57.4489 35.8418 57.3111 35.8418 57.0354Z" fill="#858585"/>
<path d="M39.8352 57.4489C39.1685 57.4489 38.6488 57.2436 38.2759 56.8329C37.9031 56.4221 37.7168 55.8468 37.7168 55.107C37.7168 54.3756 37.8968 53.7898 38.2569 53.3494C38.617 52.9092 39.1023 52.689 39.7127 52.689C40.2529 52.689 40.679 52.8774 40.9913 53.2544C41.3036 53.6315 41.4597 54.1434 41.4597 54.7905V55.1281H38.1556C38.1611 55.7583 38.3081 56.2394 38.5965 56.5713C38.8849 56.9032 39.2976 57.0692 39.835 57.0692C40.0967 57.0692 40.3266 57.0509 40.5249 57.0144C40.7232 56.9778 40.9743 56.899 41.2782 56.778V57.1577C41.0193 57.2702 40.7803 57.347 40.5608 57.3877C40.3415 57.4284 40.0995 57.4489 39.8352 57.4489ZM39.7128 53.0603C39.2711 53.0603 38.9167 53.2059 38.6495 53.4971C38.3822 53.7882 38.226 54.2081 38.1811 54.7567H41.0168C41.0168 54.2249 40.9014 53.8093 40.6709 53.5097C40.44 53.2101 40.1206 53.0603 39.7128 53.0603Z" fill="#858585"/>
<path d="M43.7273 57.3645L41.9551 52.7776H42.3855L43.5712 55.896C43.7288 56.2955 43.847 56.6444 43.9256 56.9425H43.951C44.0663 56.56 44.1845 56.2083 44.3053 55.8876L45.491 52.7776H45.9215L44.1493 57.3645H43.7273Z" fill="#858585"/>
<path d="M48.5442 57.4489C47.8774 57.4489 47.3577 57.2436 46.9849 56.8329C46.6121 56.4221 46.4258 55.8468 46.4258 55.107C46.4258 54.3756 46.6058 53.7898 46.9659 53.3494C47.326 52.9092 47.8113 52.689 48.4217 52.689C48.9619 52.689 49.388 52.8774 49.7003 53.2544C50.0126 53.6315 50.1687 54.1434 50.1687 54.7905V55.1281H46.8645C46.8702 55.7583 47.0171 56.2394 47.3055 56.5713C47.5939 56.9032 48.0066 57.0692 48.544 57.0692C48.8056 57.0692 49.0356 57.0509 49.2339 57.0144C49.4322 56.9778 49.6833 56.899 49.9872 56.778V57.1577C49.7283 57.2702 49.4893 57.347 49.2698 57.3877C49.0504 57.4284 48.8086 57.4489 48.5442 57.4489ZM48.4218 53.0603C47.98 53.0603 47.6257 53.2059 47.3584 53.4971C47.0911 53.7882 46.9349 54.2081 46.89 54.7567H49.7257C49.7257 54.2249 49.6104 53.8093 49.3797 53.5097C49.149 53.2101 48.8297 53.0603 48.4218 53.0603Z" fill="#858585"/>
<path d="M53.2396 52.689C53.4338 52.689 53.6419 52.7086 53.8641 52.748L53.7839 53.1488C53.5926 53.1011 53.3943 53.0771 53.189 53.0771C52.7979 53.0771 52.4772 53.2431 52.2269 53.575C51.9764 53.907 51.8514 54.3262 51.8514 54.8325V57.3644H51.4336V52.7774H51.788L51.8302 53.6045H51.8597C52.0481 53.2669 52.2493 53.03 52.4632 52.8935C52.6768 52.7572 52.9357 52.689 53.2396 52.689Z" fill="#858585"/>
<path d="M54.0293 52.7776H54.4598L55.4304 55.3517C55.7258 56.1423 55.9128 56.6753 55.9916 56.951H56.0169C56.1352 56.588 56.3277 56.0465 56.5951 55.3264L57.5657 52.7776H57.9962L55.9412 58.1071C55.7751 58.5403 55.6358 58.833 55.5234 58.9849C55.4109 59.1368 55.2793 59.2508 55.1288 59.3267C54.9783 59.4027 54.7961 59.4407 54.5824 59.4407C54.422 59.4407 54.2434 59.4112 54.0465 59.352V58.9891C54.2096 59.0341 54.3855 59.0567 54.5739 59.0567C54.7174 59.0567 54.844 59.0229 54.9537 58.9554C55.0633 58.8879 55.1626 58.783 55.2512 58.641C55.3398 58.499 55.4425 58.2739 55.5592 57.9658C55.6759 57.6577 55.7512 57.4573 55.785 57.3645L54.0293 52.7776Z" fill="#858585"/>
<path d="M62.4312 57.3645L61.4269 54.2967C61.3621 54.0884 61.2792 53.7832 61.1779 53.381H61.1526L61.064 53.6933L60.8741 54.3051L59.8528 57.3646H59.4392L58.127 52.7776H58.5742L59.3084 55.436C59.4801 56.0943 59.5926 56.5782 59.6461 56.8876H59.6714C59.8374 56.2294 59.9584 55.792 60.0343 55.5754L60.9796 52.7776H61.3593L62.2582 55.567C62.4607 56.2281 62.5846 56.6656 62.6295 56.8792H62.6548C62.6773 56.6964 62.7899 56.2069 62.9924 55.4107L63.693 52.7776H64.115L62.8701 57.3646L62.4312 57.3645Z" fill="#858585"/>
<path d="M68.2143 57.3646V54.3896C68.2143 53.9283 68.1173 53.5928 67.9232 53.3832C67.729 53.1737 67.428 53.0688 67.02 53.0688C66.4715 53.0688 66.07 53.2074 65.8153 53.4845C65.5606 53.7616 65.4334 54.211 65.4334 54.8327V57.3646H65.0156V50.7986H65.4334V52.8874L65.4123 53.4739H65.4418C65.6134 53.1982 65.83 52.9986 66.0916 52.8748C66.3532 52.751 66.6781 52.6891 67.0664 52.6891C68.1072 52.6891 68.6278 53.2475 68.6278 54.3643V57.3646H68.2143Z" fill="#858585"/>
<path d="M71.9641 57.4489C71.2974 57.4489 70.7776 57.2436 70.4048 56.8329C70.0321 56.4221 69.8457 55.8468 69.8457 55.107C69.8457 54.3756 70.0257 53.7898 70.3858 53.3494C70.7459 52.9092 71.2313 52.689 71.8417 52.689C72.3818 52.689 72.8079 52.8774 73.1203 53.2544C73.4325 53.6315 73.5886 54.1434 73.5886 54.7905V55.1281H70.2845C70.2902 55.7583 70.437 56.2394 70.7254 56.5713C71.0138 56.9032 71.4266 57.0692 71.9639 57.0692C72.2256 57.0692 72.4555 57.0509 72.6538 57.0144C72.8521 56.9778 73.1032 56.899 73.4071 56.778V57.1577C73.1482 57.2702 72.9092 57.347 72.6898 57.3877C72.4704 57.4284 72.2286 57.4489 71.9641 57.4489ZM71.8417 53.0603C71.4 53.0603 71.0456 53.2059 70.7783 53.4971C70.511 53.7882 70.3549 54.2081 70.3099 54.7567H73.1457C73.1457 54.2249 73.0303 53.8093 72.7997 53.5097C72.5689 53.2101 72.2495 53.0603 71.8417 53.0603Z" fill="#858585"/>
<path d="M76.6596 52.689C76.8537 52.689 77.0619 52.7086 77.284 52.748L77.2038 53.1488C77.0125 53.1011 76.8142 53.0771 76.6089 53.0771C76.2178 53.0771 75.8971 53.2431 75.6468 53.575C75.3964 53.907 75.2713 54.3262 75.2713 54.8325V57.3644H74.8535V52.7774H75.208L75.2502 53.6045H75.2797C75.468 53.2669 75.6693 53.03 75.8831 52.8935C76.0969 52.7572 76.3557 52.689 76.6596 52.689Z" fill="#858585"/>
<path d="M80.0696 57.4489C79.4028 57.4489 78.883 57.2436 78.5103 56.8329C78.1376 56.4221 77.9512 55.8468 77.9512 55.107C77.9512 54.3756 78.1312 53.7898 78.4913 53.3494C78.8514 52.9092 79.3367 52.689 79.9471 52.689C80.4872 52.689 80.9134 52.8774 81.2257 53.2544C81.538 53.6315 81.6941 54.1434 81.6941 54.7905V55.1281H78.3899C78.3956 55.7583 78.5425 56.2394 78.8309 56.5713C79.1192 56.9032 79.532 57.0692 80.0694 57.0692C80.331 57.0692 80.5609 57.0509 80.7593 57.0144C80.9576 56.9778 81.2087 56.899 81.5126 56.778V57.1577C81.2536 57.2702 81.0147 57.347 80.7952 57.3877C80.5758 57.4284 80.334 57.4489 80.0696 57.4489ZM79.9472 53.0603C79.5054 53.0603 79.1511 53.2059 78.8838 53.4971C78.6165 53.7882 78.4603 54.2081 78.4154 54.7567H81.2511C81.2511 54.2249 81.1358 53.8093 80.9052 53.5097C80.6744 53.2101 80.3551 53.0603 79.9472 53.0603Z" fill="#858585"/>
<path d="M82.877 57.0354C82.877 56.7597 82.9894 56.6218 83.2146 56.6218C83.4452 56.6218 83.5606 56.7597 83.5606 57.0354C83.5606 57.3112 83.4452 57.4489 83.2146 57.4489C82.9894 57.4489 82.877 57.3111 82.877 57.0354Z" fill="#858585"/>
<path d="M50.4174 3.72504L50.2571 2.94863C49.2827 2.69136 46.8858 2.14209 44.1856 2.14203C43.3543 2.14203 42.5685 2.18912 41.8255 2.28341L41.3973 0H39.68L40.1659 2.59043C39.7111 2.70372 39.2753 2.83911 38.8571 2.99594L38.295 0H37.2424L37.8834 3.41647C37.2581 3.7246 36.6771 4.08873 36.1386 4.51098C33.1216 6.87682 31.5918 10.9632 31.5918 16.6565C31.5918 19.4971 31.9781 21.9309 32.7399 23.8904C33.3088 25.3537 34.0996 26.5892 35.0967 27.5754C34.4819 26.7786 33.9713 25.8621 33.5708 24.8322C32.8091 22.8727 32.4228 20.4388 32.4228 17.5982C32.4228 11.9049 33.9525 7.81865 36.9696 5.45281C39.0024 3.85877 41.6346 3.08386 45.0167 3.08386C47.2229 3.08386 49.2265 3.45054 50.4174 3.72504Z" fill="#858585"/>
<path d="M49.6688 22.9729L49.4272 23.101C49.4053 23.1127 47.1996 24.2646 44.2957 24.2646C43.1404 24.2646 41.8521 24.2642 40.8125 23.4411C41.926 25.2059 43.6369 25.2062 45.1266 25.2062C48.0306 25.2062 50.2362 24.0544 50.2582 24.0427L50.5121 23.908L49.6688 22.9729Z" fill="#858585"/>
<path d="M50.888 25.4648C50.888 25.4648 48.4504 26.7574 45.2373 26.7574C42.0242 26.7574 38.6265 26.1296 38.6265 17.7829C38.6265 9.43617 43.3169 8.73449 45.6805 8.73449C48.0441 8.73449 50.888 9.76861 50.888 9.76861L51.3312 5.52138C51.3312 5.52138 48.4504 4.63501 45.1265 4.63501C40.8055 4.63501 33.6406 5.85377 33.6406 18.0414C33.6406 27.9542 38.4027 30.3087 43.0126 30.762L43.4461 33.0728H44.4987L44.0791 30.8357C44.4322 30.8507 44.7821 30.8569 45.1265 30.8569C45.2413 30.8569 45.3548 30.8553 45.4671 30.8523L45.8837 33.0728H47.601L47.1543 30.6922C49.6855 30.2793 51.2573 29.2318 51.2573 29.2318L50.888 25.4648Z" fill="#858585"/>
</svg>
