<svg width="98" height="40" viewBox="0 0 98 40" fill="none" xmlns="http://www.w3.org/2000/svg">
<path d="M28.7377 11.7141L28.435 25.6964C28.435 25.6964 27.983 20.1808 28.7377 11.7141Z" fill="black"/>
<path d="M70.1172 29.2649C70.1164 29.454 69.9654 29.6081 69.7765 29.6125C68.8533 29.6383 68.0117 29.7373 67.0125 29.7876C66.0473 29.8351 65.112 29.8717 64.3681 30.0279C64.256 30.0524 64.1391 30.0199 64.0559 29.941C63.9865 29.8753 63.9473 29.7841 63.9473 29.6885V27.788C63.9472 27.5961 63.7914 27.4405 63.5995 27.4407C63.527 27.4408 63.4564 27.4634 63.3975 27.5056C62.6189 28.0882 61.8061 28.6236 60.9635 29.1088C59.7946 29.7605 58.9476 30.0686 57.8588 30.0686C55.1574 30.0686 52.8578 28.4952 52.8578 24.3508V16.8329C52.8578 14.7967 52.5348 14.3636 51.5275 14.1342L50.6573 13.9564C50.5065 13.923 50.396 13.7941 50.3857 13.64L50.3545 13.1988C50.3401 13.0082 50.483 12.842 50.6736 12.8276C50.6781 12.8274 50.6826 12.8271 50.6871 12.8269C51.8329 12.7862 54.632 12.7034 55.7642 12.6151C55.954 12.5996 56.1204 12.7409 56.1359 12.9307C56.1373 12.9486 56.1374 12.9665 56.1361 12.9844C56.0505 14.1654 56.0505 15.846 56.0505 18.1361V23.3164C56.0505 26.7318 57.7841 27.6523 59.5991 27.6523C61.0095 27.6523 62.4973 27.1093 63.8372 25.916C63.9116 25.8493 63.954 25.754 63.9539 25.654V16.8329C63.9539 14.7967 63.5915 14.3256 62.2598 14.1342L61.0882 13.9469C60.9193 13.9201 60.7949 13.7745 60.795 13.6035V13.1758C60.7941 12.9888 60.942 12.8349 61.129 12.8283C62.4241 12.7876 65.5898 12.702 66.7531 12.6111C66.9439 12.5969 67.1099 12.7398 67.1242 12.9305C67.1249 12.9394 67.1252 12.9483 67.1251 12.9573V25.3852C67.1251 27.3033 67.4469 28.3975 69.0257 28.5075L69.7791 28.5346C69.9662 28.5412 70.1145 28.6949 70.1144 28.8821L70.1172 29.2649Z" fill="#B0B0B0"/>
<path d="M49.5486 25.2333C49.0558 26.5297 48.4924 27.9836 47.9752 29.299C47.9014 29.4863 47.7204 29.6091 47.5191 29.6085H34.8875C34.7013 29.609 34.5308 29.5038 34.4477 29.337L34.4287 29.2964C34.3499 29.1354 34.3655 28.9441 34.4695 28.7981C37.703 24.245 40.7642 19.6553 43.8498 14.9054C43.9975 14.6778 43.9326 14.3734 43.705 14.2257C43.6268 14.1749 43.5358 14.1475 43.4425 14.1466H40.7574C37.8537 14.1466 37.3298 14.7221 36.2002 16.8711L35.8337 17.5498C35.7195 17.7597 35.4707 17.8566 35.2446 17.7792L35.0776 17.7222C34.8278 17.6364 34.6908 17.368 34.768 17.1154C35.1454 15.8936 35.5704 14.585 35.8622 13.2397C35.9096 13.0133 36.1088 12.851 36.3401 12.8501H48.0241C48.2169 12.8502 48.3917 12.9634 48.4707 13.1392C48.5403 13.294 48.525 13.4737 48.4301 13.6143C45.3404 18.1905 42.3158 22.7952 39.2315 27.5845C39.0846 27.8125 39.1504 28.1167 39.3786 28.2636C39.4562 28.3137 39.5464 28.3408 39.6388 28.3419H42.7339C45.7924 28.3419 46.6014 27.5396 48.1273 25.2495L48.1463 25.2183L48.4368 24.7092C48.564 24.4862 48.8417 24.3991 49.0735 24.5096L49.3029 24.6183C49.5318 24.7286 49.6386 24.9956 49.5486 25.2333Z" fill="#B0B0B0"/>
<path d="M87.6152 29.0859C87.616 28.8175 87.8192 28.593 88.0863 28.566C90.3167 28.3406 91.4611 27.9836 91.4611 25.5401V17.6354C91.4611 15.4077 91.3552 14.6706 89.3542 14.3027C89.1046 14.2582 88.9225 14.0417 88.9211 13.7882V13.3483C88.921 13.0655 89.1461 12.8338 89.4288 12.8257C90.3017 12.8013 92.1547 12.7389 93.8312 12.6153C94.1183 12.5935 94.3687 12.8086 94.3904 13.0957C94.3914 13.1093 94.3919 13.123 94.3918 13.1366V25.5401C94.3918 27.9836 94.8628 28.3406 97.0389 28.5646C97.3064 28.5911 97.5106 28.8156 97.5113 29.0845C97.5113 29.3732 97.2774 29.6071 96.9887 29.6071H88.1378C87.8498 29.6071 87.616 29.374 87.6152 29.0859Z" fill="#B0B0B0"/>
<path d="M4.0318 7.35767L31.4344 0L30.4366 39.2238L0 33.4557L4.0318 7.35767Z" fill="#858585"/>
<path d="M31.4352 0L32.9177 1.07514L31.9538 37.5024L30.4375 39.2238L31.4352 0Z" fill="#494949"/>
<path d="M28.0619 27.0985C27.5706 28.627 26.042 32.8869 25.427 34.2457L2.76758 30.9511L2.84899 30.0633C7.02197 30.3348 7.41833 30.0972 7.70069 27.2682L9.09483 13.4393C9.41388 10.317 9.03512 10.2655 5.25855 10.8817L5.34679 9.964L27.88 4.61548C27.7442 5.75577 27.6221 8.80472 27.4931 11.1085L25.9714 11.5388C25.7338 9.74007 25.3347 8.85905 24.7727 8.06761C24.1632 7.25308 22.8057 7.26396 19.1201 8.0771L15.2838 8.91738C13.7335 9.25402 13.6222 9.38844 13.5055 10.4745L12.5932 18.9779L17.1857 18.6494C21.7048 18.325 21.9953 17.9707 22.9401 15.0289L24.413 14.8578L23.4097 23.2554H21.9694C21.6803 20.2295 21.3613 19.9974 17.0607 20.1996L12.4452 20.425L11.6959 27.4216C11.5126 29.1564 11.7081 30.0008 12.5103 30.5438C13.3507 31.1412 15.0027 31.3461 17.3811 31.6434C21.0341 32.1063 22.4351 31.9312 23.6459 30.9103C24.5894 30.0958 25.7202 28.5958 26.6325 26.85L28.0619 27.0985Z" fill="white"/>
<path d="M87.1889 13.5425C87.1919 13.9199 86.9002 14.2341 86.5237 14.2593C85.7826 14.3149 85.0767 14.4968 84.7672 15.0181C84.647 15.1558 84.647 15.3611 84.7672 15.4987C85.3074 16.3563 85.5901 17.3509 85.5816 18.3644C85.5816 22.5088 81.9517 24.5043 78.5227 24.5043C77.9776 24.5 77.4332 24.4587 76.8936 24.3808C76.5949 24.3352 76.2912 24.4242 76.0642 24.6238C75.6461 25.0012 75.2497 25.5171 75.2497 25.9229C75.2497 26.6519 75.9759 27.1107 77.7909 27.1107C79.2842 27.1107 80.6933 26.9831 82.0087 27.1012C84.4929 27.3238 87.322 29.2813 87.322 32.3575C87.322 35.5843 83.411 37.983 78.0475 37.983C73.5311 37.983 70.7754 35.7594 70.7754 33.5711C70.7754 30.871 73.6805 30.0199 74.632 29.2976C74.7667 29.1985 74.7954 29.009 74.6962 28.8744C74.6617 28.8275 74.6144 28.7917 74.5601 28.771C73.3912 28.308 72.4477 28.1532 72.1057 27.5709C70.854 25.4397 74.2451 24.883 74.9157 24.2098C75.0349 24.0936 75.0373 23.9028 74.9211 23.7836C74.895 23.7569 74.8642 23.7352 74.8302 23.7197C73.1605 22.9052 71.6618 21.173 71.6618 18.7471C71.6618 14.4113 75.775 12.3777 78.881 12.3777H78.9217C79.7601 12.3789 80.5927 12.5164 81.387 12.785C81.4922 12.8212 81.6027 12.84 81.7141 12.8406H86.4654C86.855 12.8406 87.1722 13.1541 87.1767 13.5438L87.1889 13.5425ZM73.9763 32.344C73.9763 34.4549 76.0601 36.2712 79.0439 36.2712C82.739 36.2712 84.3246 34.7468 84.5961 33.3187C84.9233 31.5933 84.0165 30.6485 82.8558 29.925C81.945 29.3616 81.2893 29.1105 79.5178 29.0154C75.7615 28.8186 73.9763 31.2688 73.9763 32.344ZM75.1451 18.135C75.1451 21.1215 76.7185 23.2772 78.9366 23.2772C80.7109 23.2392 82.2842 21.7418 82.2842 18.7106C82.2842 15.7241 80.791 13.5683 78.4533 13.5683C76.7592 13.5751 75.1464 15.1797 75.1464 18.135H75.1451Z" fill="#B0B0B0"/>
<path d="M89.7079 7.93173C89.9794 9.1182 91.2758 9.78472 92.6049 9.42499C93.9338 9.06526 94.7917 7.79598 94.5215 6.61634C94.2515 5.43664 92.9536 4.76329 91.6247 5.12308C90.2957 5.48281 89.4378 6.74526 89.7079 7.93173Z" fill="#B0B0B0"/>
</svg>
